<svg width="71" height="13" viewBox="0 0 71 13" fill="none" xmlns="http://www.w3.org/2000/svg">
<path d="M1.72798 7.98006C0.855983 7.13206 0.419983 6.07206 0.419983 4.80006C0.419983 3.52806 0.855983 2.47206 1.72798 1.63206C2.60798 0.784059 3.73198 0.360059 5.09998 0.360059C6.61198 0.360059 7.79998 0.912059 8.66398 2.01606C9.04798 2.52006 9.31998 3.06806 9.47998 3.66006H7.19998C7.07998 3.41206 6.93198 3.20406 6.75598 3.03606C6.33198 2.61206 5.77998 2.40006 5.09998 2.40006C4.40398 2.40006 3.83998 2.62006 3.40798 3.06006C2.97598 3.50006 2.75998 4.08006 2.75998 4.80006C2.75998 5.52006 2.97598 6.10006 3.40798 6.54006C3.83998 6.98006 4.40398 7.20006 5.09998 7.20006C5.85198 7.20006 6.43598 6.96006 6.85198 6.48006C7.04398 6.26406 7.17998 6.02406 7.25998 5.76006H9.53998C9.36398 6.40806 9.07998 6.98806 8.68798 7.50006C7.83198 8.66006 6.63598 9.24006 5.09998 9.24006C3.73198 9.24006 2.60798 8.82006 1.72798 7.98006Z" fill="white"/>
<path d="M11.2103 8.20806C10.5383 7.56006 10.2023 6.78406 10.2023 5.88006C10.2023 4.97606 10.5383 4.20006 11.2103 3.55206C11.8823 2.90406 12.7063 2.58006 13.6823 2.58006C14.6583 2.58006 15.4823 2.90406 16.1543 3.55206C16.8263 4.20006 17.1623 4.97606 17.1623 5.88006C17.1623 6.78406 16.8263 7.56006 16.1543 8.20806C15.4823 8.85606 14.6583 9.18006 13.6823 9.18006C12.7063 9.18006 11.8823 8.85606 11.2103 8.20806ZM12.6863 4.75206C12.4303 5.03206 12.3023 5.40806 12.3023 5.88006C12.3023 6.35206 12.4303 6.73206 12.6863 7.02006C12.9503 7.30006 13.2823 7.44006 13.6823 7.44006C14.0823 7.44006 14.4103 7.30006 14.6663 7.02006C14.9303 6.73206 15.0623 6.35206 15.0623 5.88006C15.0623 5.40806 14.9303 5.03206 14.6663 4.75206C14.4103 4.46406 14.0823 4.32006 13.6823 4.32006C13.2823 4.32006 12.9503 4.46406 12.6863 4.75206Z" fill="white"/>
<path d="M18.0609 10.5V2.76006H20.1009V3.60006H20.2209C20.3329 3.40006 20.4689 3.23206 20.6289 3.09606C21.0209 2.75206 21.4849 2.58006 22.0209 2.58006C22.6689 2.58006 23.1929 2.77206 23.5929 3.15606C23.7609 3.31606 23.8969 3.50406 24.0009 3.72006H24.1209C24.2169 3.51206 24.3489 3.32406 24.5169 3.15606C24.9009 2.77206 25.4089 2.58006 26.0409 2.58006C26.7769 2.58006 27.3489 2.80406 27.7569 3.25206C28.1729 3.69206 28.3809 4.32806 28.3809 5.16006V10.5H26.3409V5.46006C26.3409 4.70006 26.0209 4.32006 25.3809 4.32006C25.0369 4.32006 24.7609 4.43606 24.5529 4.66806C24.3449 4.90006 24.2409 5.22406 24.2409 5.64006V10.5H22.2009V5.46006C22.2009 4.70006 21.8809 4.32006 21.2409 4.32006C20.8969 4.32006 20.6209 4.43606 20.4129 4.66806C20.2049 4.90006 20.1009 5.22406 20.1009 5.64006V10.5H18.0609Z" fill="white"/>
<path d="M29.5219 10.5V2.76006H31.5619V3.60006H31.6819C31.7939 3.40006 31.9299 3.23206 32.0899 3.09606C32.4819 2.75206 32.9459 2.58006 33.4819 2.58006C34.1299 2.58006 34.6539 2.77206 35.0539 3.15606C35.2219 3.31606 35.3579 3.50406 35.4619 3.72006H35.5819C35.6779 3.51206 35.8099 3.32406 35.9779 3.15606C36.3619 2.77206 36.8699 2.58006 37.5019 2.58006C38.2379 2.58006 38.8099 2.80406 39.2179 3.25206C39.6339 3.69206 39.8419 4.32806 39.8419 5.16006V10.5H37.8019V5.46006C37.8019 4.70006 37.4819 4.32006 36.8419 4.32006C36.4979 4.32006 36.2219 4.43606 36.0139 4.66806C35.8059 4.90006 35.7019 5.22406 35.7019 5.64006V10.5H33.6619V5.46006C33.6619 4.70006 33.3419 4.32006 32.7019 4.32006C32.3579 4.32006 32.0819 4.43606 31.8739 4.66806C31.6659 4.90006 31.5619 5.22406 31.5619 5.64006V10.5H29.5219Z" fill="white"/>
<path d="M40.9828 6.60006V2.76006H43.0228V6.30006C43.0228 6.66006 43.1188 6.94006 43.3108 7.14006C43.5028 7.34006 43.7668 7.44006 44.1028 7.44006C44.4468 7.44006 44.7308 7.31606 44.9548 7.06806C45.1868 6.81206 45.3028 6.47606 45.3028 6.06006V2.76006H47.3428V10.5H45.3028V8.16006H45.1828C45.0788 8.36006 44.9348 8.53206 44.7508 8.67606C44.3508 9.01206 43.8748 9.18006 43.3228 9.18006C42.5868 9.18006 42.0108 8.96006 41.5948 8.52006C41.1868 8.07206 40.9828 7.43206 40.9828 6.60006Z" fill="white"/>
<path d="M48.5414 10.5V2.76006H50.5814V3.60006H50.7014C50.8134 3.40806 50.9574 3.24006 51.1334 3.09606C51.5414 2.75206 52.0174 2.58006 52.5614 2.58006C53.2974 2.58006 53.8694 2.80406 54.2774 3.25206C54.6934 3.69206 54.9014 4.32806 54.9014 5.16006V10.5H52.8614V5.46006C52.8614 5.10006 52.7654 4.82006 52.5734 4.62006C52.3814 4.42006 52.1174 4.32006 51.7814 4.32006C51.4374 4.32006 51.1494 4.44806 50.9174 4.70406C50.6934 4.95206 50.5814 5.28406 50.5814 5.70006V10.5H48.5414Z" fill="white"/>
<path d="M55.9814 1.08006C55.9814 0.792059 56.0894 0.552059 56.3054 0.360059C56.5214 0.160059 56.7934 0.0600586 57.1214 0.0600586C57.4494 0.0600586 57.7214 0.160059 57.9374 0.360059C58.1534 0.552059 58.2614 0.792059 58.2614 1.08006C58.2614 1.36006 58.1534 1.60006 57.9374 1.80006C57.7214 2.00006 57.4494 2.10006 57.1214 2.10006C56.7934 2.10006 56.5214 2.00006 56.3054 1.80006C56.0894 1.60006 55.9814 1.36006 55.9814 1.08006ZM56.1014 10.5V2.76006H58.1414V10.5H56.1014Z" fill="white"/>
<path d="M58.9847 4.38006V2.76006H59.7647V1.44006H61.8047V2.76006H63.4247V4.38006H61.8047V7.38006H63.5447V10.5H59.7647V4.38006H58.9847Z" fill="white"/>
<path d="M63.9637 2.76006H66.0637L67.1437 7.26006H67.5037L68.7037 2.76006H70.8037L68.4037 12.2801H0.5V10.1358H66.9637V9.00006H65.5837L63.9637 2.76006Z" fill="white"/>
</svg>
