<svg version="1.1" xmlns="http://www.w3.org/2000/svg" xmlns:xlink="http://www.w3.org/1999/xlink" width="21.51609" height="21.51609" viewBox="0,0,21.51609,21.51609"><g transform="translate(-229.24199,-169.242)"><g data-paper-data="{&quot;isPaintingLayer&quot;:true}" fill-rule="nonzero" stroke-linejoin="miter" stroke-miterlimit="10" stroke-dasharray="" stroke-dashoffset="0" style="mix-blend-mode: normal"><path d="M229.992,190.0081v-20.01609h20.01609v20.01609z" fill="#571b17" stroke="#380d09" stroke-width="1.5" stroke-linecap="butt"/><path d="M246.10398,180.1581l-0.31915,4.14894l-6.70213,1.80851l-4.73404,-3.82979l0.85106,-4.30851l6.2234,-2.92553z" fill="none" stroke-opacity="0.3451" stroke="#170303" stroke-width="2.5" stroke-linecap="round"/><path d="M246.10398,180.1581l-0.31915,4.14894l-6.70213,1.80851l-4.73404,-3.82979l0.85106,-4.30851l6.2234,-2.92553z" fill="none" stroke="#380d09" stroke-width="0.5" stroke-linecap="round"/><path d="M238.92312,173.13682l-1.43617,2.18085l-2.97872,1.32979l-2.18085,-1.2234l0.05319,-2.71277l5.69149,-0.53191z" fill="#505356" stroke="#160404" stroke-width="0.5" stroke-linecap="round"/><path d="M238.92312,173.13682l-1.43617,2.18085l-2.97872,1.32979l-2.18085,-1.2234l0.05319,-2.71277l5.69149,-0.53191z" fill="#505356" stroke="#160404" stroke-width="0.5" stroke-linecap="round"/><path d="M242.06141,176.11555l1.96809,-2.34043l3.98936,0.53191l0.21277,3.29787l-2.5,2.65957z" fill="#505356" stroke="#160404" stroke-width="0.5" stroke-linecap="round"/><path d="M242.06141,176.11555l1.96809,-2.34043l3.98936,0.53191l0.21277,3.29787l-2.5,2.65957z" fill="#505356" stroke="#160404" stroke-width="0.5" stroke-linecap="round"/><path d="M240.09333,179.20065l1.01064,3.08511l-2.39362,1.59574l-2.12766,-2.65957l1.54255,-2.12766z" fill="#505356" stroke="#160404" stroke-width="0.5" stroke-linecap="round"/><path d="M240.09333,179.20065l1.01064,3.08511l-2.39362,1.59574l-2.12766,-2.65957l1.54255,-2.12766z" fill="#505356" stroke="#160404" stroke-width="0.5" stroke-linecap="round"/><path d="M235.83801,186.70066l-1.96809,1.38298l-1.32979,-1.38298l2.87234,-1.38298z" fill="#505356" stroke="#160404" stroke-width="0.5" stroke-linecap="round"/><path d="M235.83801,186.70066l-1.96809,1.38298l-1.32979,-1.38298l2.87234,-1.38298z" fill="#505356" stroke="#160404" stroke-width="0.5" stroke-linecap="round"/></g></g></svg>