<svg version="1.1" xmlns="http://www.w3.org/2000/svg" xmlns:xlink="http://www.w3.org/1999/xlink" width="41.55132" height="39.44535" viewBox="0,0,41.55132,39.44535"><g transform="translate(-209.20685,-151.31275)"><g data-paper-data="{&quot;isPaintingLayer&quot;:true}" fill-rule="nonzero" stroke-linejoin="miter" stroke-miterlimit="10" stroke-dasharray="" stroke-dashoffset="0" style="mix-blend-mode: normal"><path d="M209.95685,169.76488l4.71354,-4.71354h16.79007" fill="none" stroke="#241918" stroke-width="1.5" stroke-linecap="round"/><path d="M244.18325,182.21398v-30.15123h4.13374v30.15123z" fill="#4c3534" stroke="#241918" stroke-width="1.5" stroke-linecap="butt"/><path d="M229.99208,190.0081v-30.15123h20.01609v30.15123z" fill="#4c3534" stroke="#241918" stroke-width="1.5" stroke-linecap="butt"/><path d="M209.99208,190.0081v-20.0777h20.01609v20.0777z" fill="#4c3534" stroke="#241918" stroke-width="1.5" stroke-linecap="butt"/><path d="M209.88791,182.53797v-5.3125h39.85417v5.3125z" fill="none" stroke="#241918" stroke-width="1" stroke-linecap="butt"/><path d="M250.00817,169.99201h-20.01609z" fill="#57140f" stroke="#241918" stroke-width="1.5" stroke-linecap="butt"/><path d="M232.31135,169.92857c0,-4.24634 3.44234,-7.68868 7.68868,-7.68868c4.24634,0 7.68868,3.44234 7.68868,7.68868c0,4.24634 -3.44234,7.68868 -7.68868,7.68868c-4.24634,0 -7.68868,-3.44234 -7.68868,-7.68868z" fill="#4c3534" stroke="#241918" stroke-width="1" stroke-linecap="butt"/><path d="M235.71006,170.83055l3.02793,-5.51516l0.46861,1.6942l2.307,-1.6942l1.1535,0.18024l-0.79303,1.58606l-0.36047,0.93722l2.34304,-0.93722l1.47792,-0.28837l-0.72094,2.01862l-2.8477,3.53259l-1.65815,1.00931l-1.91048,1.0814v-1.40583h-1.22559l-2.19886,0.25233l0.18024,-1.0814z" fill="#0a0a0a" stroke="#000000" stroke-width="0.5" stroke-linecap="round"/><path d="M235.61257,172.80658l2.79035,-6.04931l0.66335,0.77309l1.91399,-1.1991l0.38341,0.40471l-0.1278,1.61883l3.38676,-0.74551l-2.96075,3.94057l-2.91815,2.00224l-0.27691,-1.68273z" fill="#050505" stroke="#050505" stroke-width="0.5" stroke-linecap="round"/><path d="M237.5296,169.33462l0.75929,-1.81318l0.88119,0.51786l1.61563,-0.92833l0.40482,1.63374l1.83457,0.12129l-2.32174,2.57735l-1.61883,1.49103l-0.46861,-1.44843l-2.00224,0.40471z" fill="#000000" stroke="#000000" stroke-width="0.5" stroke-linecap="round"/></g></g></svg>