<svg version="1.1" xmlns="http://www.w3.org/2000/svg" xmlns:xlink="http://www.w3.org/1999/xlink" width="72.5" height="72.5" viewBox="0,0,72.5,72.5"><g transform="translate(-203.75,-143.75)"><g data-paper-data="{&quot;isPaintingLayer&quot;:true}" fill-rule="nonzero" stroke-linejoin="miter" stroke-miterlimit="10" stroke-dasharray="" stroke-dashoffset="0" style="mix-blend-mode: normal"><path d="M204.5,180c0,-19.60611 15.89389,-35.5 35.5,-35.5c19.60611,0 35.5,15.89389 35.5,35.5c0,19.60611 -15.89389,35.5 -35.5,35.5c-19.60611,0 -35.5,-15.89389 -35.5,-35.5z" fill="#57140f" stroke="#000000" stroke-width="1.5" stroke-linecap="butt"/><g stroke="#241918"><g><path d="M251.31604,190.02357l-11.41441,14.33068l-11.23192,-14.33068" data-paper-data="{&quot;index&quot;:null}" fill="#bebebe" stroke-width="2" stroke-linecap="butt"/><g><path d="M237.8513,201.84501l6.12999,-2.62714" fill="none" stroke-width="1" stroke-linecap="round"/><path d="M236.5131,199.69083l10.35675,-4.43861" fill="none" stroke-width="1" stroke-linecap="round"/><path d="M235.24017,197.4877l15.25262,-6.54383" fill="none" stroke-width="1" stroke-linecap="round"/><path d="M248.38757,189.1324l-15.25262,6.54383" fill="none" stroke-width="1" stroke-linecap="round"/><path d="M246.38027,187.17405l-15.25262,6.54383" fill="none" stroke-width="1" stroke-linecap="round"/><path d="M229.95264,191.71057l15.25262,-6.54383" fill="none" stroke-width="1" stroke-linecap="round"/><path d="M228.66971,189.75903v-34.11328h22.64633v34.11328z" fill="#4c3534" stroke-width="2" stroke-linecap="butt"/><path d="M251.31604,167.11271h-22.64633z" fill="#57140f" stroke-width="2" stroke-linecap="butt"/><path d="M228.66971,189.75903l11.23192,-9.22235l11.41441,9.22235" fill="none" stroke-width="2" stroke-linecap="butt"/><path d="M228.92902,171.4664l3.3294,3.3294v5.27401l-3.6093,3.6093" fill="none" stroke-width="2" stroke-linecap="round"/><path d="M251.35088,183.67911l-3.60931,-3.6093v-5.27401l3.3294,-3.3294" data-paper-data="{&quot;index&quot;:null}" fill="none" stroke-width="2" stroke-linecap="round"/></g></g><path d="M231.29377,167.04093c0,-4.80434 3.89468,-8.69902 8.69902,-8.69902c4.80434,0 8.69902,3.89468 8.69902,8.69902c0,4.80434 -3.89468,8.69902 -8.69902,8.69902c-4.80434,0 -8.69902,-3.89468 -8.69902,-8.69902z" fill="#4c3534" stroke-width="1.5" stroke-linecap="butt"/></g></g></g></svg>