<svg version="1.1" xmlns="http://www.w3.org/2000/svg" xmlns:xlink="http://www.w3.org/1999/xlink" width="17.38377" height="19.00197" viewBox="0,0,17.38377,19.00197"><g transform="translate(-235.76644,-165.23158)"><g data-paper-data="{&quot;isPaintingLayer&quot;:true}" fill-rule="nonzero" stroke-width="0.25" stroke-linejoin="miter" stroke-miterlimit="10" stroke-dasharray="" stroke-dashoffset="0" style="mix-blend-mode: normal"><g><g stroke="#0a9f04"><path d="M242.9109,168.53727c-0.15723,-0.24926 0.34246,-0.84691 1.11608,-1.3349c0.77362,-0.48798 1.68545,-0.43225 1.68545,-0.43225c0,0 -0.34246,0.84691 -1.11608,1.33489c-0.77362,0.48798 -1.52822,0.68152 -1.68544,0.43226z" fill="#2dff24" stroke-linecap="butt"/><path d="M243.00277,168.54159l2.47273,-1.67273" fill="none" stroke-linecap="round"/><path d="M244.33005,168.19614l0.10909,-0.52727l-0.67273,-0.18182" fill="none" stroke-linecap="round"/><path d="M244.55812,167.0274l0.49123,0.10526l-0.14035,0.59649" fill="none" stroke-linecap="round"/><path d="M243.11952,168.09757l0.47368,0.01754l-0.03509,0.33333" fill="none" stroke-linecap="round"/></g><path d="M237.08896,177.12897c0.02453,-0.02453 9.00598,-9.00536 9.03096,-9.02913c1.6017,-1.52385 4.13565,-1.49971 5.7078,0.07244c1.57506,1.57506 1.59638,4.1155 0.06396,5.7167c-0.02103,0.02197 -8.99903,9.00045 -9.02065,9.02206c-1.59668,1.59668 -4.1854,1.59668 -5.78207,0c-1.59668,-1.59668 -1.59668,-4.1854 0,-5.78207z" fill="#642200" stroke="#1a0900" stroke-linecap="butt"/><path d="M235.91147,180c0,-0.03468 0.00043,-0.06927 0.00129,-0.10375c0.05505,-2.21009 1.8639,-3.98479 4.08725,-3.98479c2.25804,0 4.08854,1.8305 4.08854,4.08854c0,2.25804 -1.8305,4.08854 -4.08854,4.08854c-2.25804,0 -4.08854,-1.8305 -4.08854,-4.08854z" fill="#642200" stroke="#1a0900" stroke-linecap="butt"/><path d="M236.40598,180c0,-0.03049 0.00038,-0.06089 0.00113,-0.09119c0.04838,-1.94278 1.63846,-3.50284 3.5929,-3.50284c1.98493,0 3.59403,1.6091 3.59403,3.59403c0,1.98493 -1.6091,3.59403 -3.59403,3.59403c-1.98493,0 -3.59403,-1.6091 -3.59403,-3.59403z" fill="#b0643e" stroke="#512e1c" stroke-linecap="butt"/><path d="M237.79831,180.00001c0,-1.21597 0.98574,-2.2017 2.20171,-2.2017c1.21597,0 2.20171,0.98573 2.20171,2.2017c0,1.21597 -0.98574,2.2017 -2.20171,2.2017c-1.21597,0 -2.20171,-0.98573 -2.20171,-2.2017z" fill="none" stroke="#512e1c" stroke-linecap="butt"/><path d="M237.36649,180.00001c0,-1.45445 1.17907,-2.63352 2.63352,-2.63352c1.45445,0 2.63352,1.17907 2.63352,2.63352c0,1.45445 -1.17907,2.63352 -2.63352,2.63352c-1.45445,0 -2.63352,-1.17906 -2.63352,-2.63352z" fill="none" stroke="#512e1c" stroke-linecap="butt"/><path d="M236.9233,180.00001c0,-1.69922 1.37749,-3.07671 3.07671,-3.07671c1.69922,0 3.07671,1.37749 3.07671,3.07671c0,1.69922 -1.37749,3.0767 -3.07671,3.0767c-1.69922,0 -3.07671,-1.37748 -3.07671,-3.0767z" fill="none" stroke="#512e1c" stroke-linecap="butt"/><path d="M238.9147,180c0,-0.5994 0.48591,-1.08531 1.08531,-1.08531c0.5994,0 1.08531,0.48591 1.08531,1.08531c0,0.5994 -0.48591,1.08531 -1.08531,1.08531c-0.5994,0 -1.08531,-0.48591 -1.08531,-1.08531z" fill="none" stroke="#512e1c" stroke-linecap="butt"/><path d="M238.38921,180c0,-0.88962 0.72118,-1.6108 1.6108,-1.6108c0.88962,0 1.6108,0.72118 1.6108,1.6108c0,0.88962 -0.72118,1.61079 -1.6108,1.61079c-0.88962,0 -1.6108,-0.72117 -1.6108,-1.61079z" fill="none" stroke="#512e1c" stroke-linecap="butt"/><path d="M242.44087,176.67479l8.81818,-8.81818" fill="none" stroke="#1a0900" stroke-linecap="round"/><path d="M245.71832,166.24102c0,0 0.2902,1.32158 1.04492,1.93196c0.05132,0.04151 1.36912,0.66719 1.43673,0.94177c0.14107,0.57283 -0.47076,1.39381 -1.36656,1.61442c-0.8958,0.2206 -0.91412,-0.73158 -1.05519,-1.30442c-0.14107,-0.57283 -0.05989,-3.18373 -0.05989,-3.18373z" fill="#642200" stroke="#1a0900" stroke-linecap="butt"/></g></g></g></svg>