<svg version="1.1" xmlns="http://www.w3.org/2000/svg" xmlns:xlink="http://www.w3.org/1999/xlink" width="311.78239" height="135.12718" viewBox="0,0,311.78239,135.12718"><g transform="translate(-83.83887,-126.14119)"><g data-paper-data="{&quot;isPaintingLayer&quot;:true}" fill-rule="nonzero" stroke-linejoin="miter" stroke-miterlimit="10" stroke-dasharray="" stroke-dashoffset="0" style="mix-blend-mode: normal"><path d="M291.94694,144.27164l5.4717,-3.86792l8.77358,-1.13208l9.71698,1.69811l0.84906,3.86792l-1.32075,5.09434z" fill="#505356" stroke="#160404" stroke-width="1.5" stroke-linecap="round"/><path d="M246.84733,178.68996l17.5,-0.375l23.375,12l-6.375,2.25l-20.5,1.125l-14.25,-3l-6.625,-5.25z" fill="#505356" stroke="#160404" stroke-width="1.5" stroke-linecap="round"/><path d="M343.84733,190.06496l-0.875,4.625l-5.125,4.375l-7.125,1.25l-4.875,-3.625l-0.625,-4.875l2.75,-4z" fill="#505356" stroke="#160404" stroke-width="1.5" stroke-linecap="round"/><path d="M255.47233,142.77867l-4.25,-4.875l-1.625,-6.625l4.875,-4.375l14.5,0.625l10.375,7.625l6.25,5.125l2.875,3z" fill="#505356" stroke="#160404" stroke-width="1.5" stroke-linecap="round"/><path d="M371.47233,155.56496l4.875,-2.75l12.875,-2.25l5.625,-1l-0.125,4.75l-5.875,7.5l-1.75,10l-6.5,6.5l-4.5,2.375z" fill="#505356" stroke="#160404" stroke-width="1.5" stroke-linecap="round"/><path d="M154.486,127.93505l17.66667,0.33333l29,4.33333l30.66667,10.33333h52.33333l26,4l36,-3.66667l33.33333,16l-2.66667,20.66667l-18.33333,13.33333l-42.33333,-8l-28.33333,5l-22.66667,-11.66667l-17.66667,0.33333l-7.33333,6l-32,0.33333l-43.66667,12.66667l-19.66667,-8.33333l-29.33333,1.66667l-19.33333,-16.66667l-10.66667,-22.33333l42,-22z" fill="#571b17" stroke="#380d09" stroke-width="2.5" stroke-linecap="round"/><path d="M189.80194,147.08027l-30.95879,9.12144l-67.93333,7.97778l-5.46667,-11.57778l41.608,-22.46704l25.42007,-1.82344l19.37193,-0.10952l28.4,4.4z" fill="#ffffff" stroke="#383838" stroke-width="1" stroke-linecap="round"/><path d="M90.97408,163.16447l8.44444,-4.44444l16.11111,-1.55556l15.66667,-1l6.33333,2.11111l-46.11111,5.66667z" fill="#c0ffff" stroke="#9bcfcf" stroke-width="0.5" stroke-linecap="round"/><path d="M173.08519,151.94225l3.88889,-8.88889l5.44444,-9l3.66667,-3.55556l2.68056,0.51389l-5.23611,9.81944l-6.33333,7.66667l-2.55556,3.22222z" fill="#c0ffff" stroke="#9bcfcf" stroke-width="0.5" stroke-linecap="round"/><path d="M137.90637,142.51197l5.40104,1.76361l12.77778,2.77778l12.88889,5.88889l-14.01389,3.48611l-3.43056,-1.375l-9.55556,-6.22222l-10.22222,-3.77778l-1.14834,-0.58969l-2.97937,0.36911l-5.9834,1.44281l-22.33333,7l-9.55556,4.33333l-2.11111,0.44444l-0.77778,-2.22222l27.88889,-13.22222l6.97793,-1.93401l-0.3141,-1.18168l-6.44161,-2.55098l6,-3.33333l6.91125,3.6375l3.50768,0.69593l4.35885,-1.22232l24.77778,-5l14.55556,-1.55556l4,-0.88889l-2.11111,3.55556l-25.55556,4.11111l-13.05352,5.13918z" fill="#c0ffff" stroke="#9bcfcf" stroke-width="0.5" stroke-linecap="round"/><path d="M189.80194,147.08027l-30.95879,9.12144l-67.93333,7.97778l-5.46667,-11.57778l41.608,-22.46704l25.42007,-1.82344l19.37193,-0.10952l28.4,4.4z" fill="none" stroke="#383838" stroke-width="1" stroke-linecap="round"/><path d="M345.09733,149.31496l0.5,5.75l-6.125,5.5l-10.875,-3.625l-6,-1l0.5,-5.75l15.5,-2.75z" fill="#505356" stroke="#160404" stroke-width="1.5" stroke-linecap="round"/><path d="M239.59733,157.31496l-6.375,4.875l-9.75,0.625l-5.75,-4.625l2,-6.875l19,-3z" fill="#505356" stroke="#160404" stroke-width="1.5" stroke-linecap="round"/><path d="M154.15267,127.93505l17.66667,0.33333l29,4.33333l30.66667,10.33333h52.33333l26,4l36,-3.66667l33.33333,16l-2.66667,20.66667l-18.33333,13.33333l-42.33333,-8l-28.33333,5l-22.66667,-11.66667l-17.66667,0.33333l-7.33333,6l-32,0.33333l-43.66667,12.66667l-19.66667,-8.33333l-29.33333,1.66667l-19.33333,-16.66667l-10.66667,-22.33333l42,-22z" fill="none" stroke="#380d09" stroke-width="1.5" stroke-linecap="round"/><text transform="translate(102.50981,173.10902) scale(0.65827,0.65827)" font-size="40" xml:space="preserve" fill="#000000" fill-rule="nonzero" stroke="none" stroke-width="1" stroke-linecap="butt" stroke-linejoin="miter" stroke-miterlimit="10" stroke-dasharray="" stroke-dashoffset="0" font-family="Sans Serif" font-weight="normal" text-anchor="start" style="mix-blend-mode: normal"><tspan x="0" dy="0">Марсианский завод</tspan></text><path d="M228.986,261.26837h-7l4.84733,-5.56892z" fill-opacity="0.00784" fill="#00ffff" stroke="#380d09" stroke-width="0" stroke-linecap="round"/></g></g></svg>