<svg version="1.1" xmlns="http://www.w3.org/2000/svg" xmlns:xlink="http://www.w3.org/1999/xlink" width="48.875" height="48.875" viewBox="0,0,48.875,48.875"><g transform="translate(-215.5625,-155.5625)"><g data-paper-data="{&quot;isPaintingLayer&quot;:true}" fill-rule="nonzero" stroke-linejoin="miter" stroke-miterlimit="10" stroke-dasharray="" stroke-dashoffset="0" style="mix-blend-mode: normal"><path d="M215.5625,204.4375v-48.875h48.875v48.875z" fill="none" stroke="#b0b0b0" stroke-width="0" stroke-linecap="butt"/><g stroke="#160404" stroke-width="0.25" stroke-linecap="round"><path d="M244.81771,179.31466l1.64024,0.65019l-0.1921,1.00483l-0.36942,0.7684l-1.71412,0.33987z" fill="#505356"/><path d="M235.59761,180.32536l-0.52261,-0.51148l0.2335,-0.46701l0.50037,-0.54484l0.93402,0.0556l0.53373,0.21127z" fill="#505356"/><path d="M238.2189,179.44227l2.72477,-3.35073l2.28291,-0.14729l1.25192,-0.47867l0.66278,3.20345l-0.55232,3.68212l-1.62013,1.03099h-3.46119z" fill="#571b17"/><path d="M240.53043,180.05582l0.90913,-0.32087l0.80217,0.46794l-0.08022,1.04283l-1.01609,0.81555z" fill="#505356"/><path d="M234.02632,183.43202l1.12682,-2.76233l2.52162,-2.00144l2.67733,0.94738l1.18767,1.38343l-0.80293,2.35929z" fill="#571b17"/><path d="M237.89348,182.01095l-0.90913,0.7487l-1.56424,-0.37435l-0.02674,-0.41446l0.32087,-0.64174l1.14978,-0.50804z" fill="#505356"/><path d="M242.22306,177.9053l-1.41572,0.65922l-0.2091,-0.79984l0.06499,-0.64845l1.33104,-0.77849l0.78673,0.1334l1.00716,1.21993z" fill="#505356"/><path d="M239.43984,179.95386l-0.26599,0.56152l-1.21171,-0.07388l-0.05911,-0.94572l0.9605,-0.05911z" fill="#505356"/></g><path d="M232.31132,180c0,-4.24634 3.44234,-7.68868 7.68868,-7.68868c4.24634,0 7.68868,3.44234 7.68868,7.68868c0,4.24634 -3.44234,7.68868 -7.68868,7.68868c-4.24634,0 -7.68868,-3.44234 -7.68868,-7.68868z" fill-opacity="0.15686" fill="#00c8ff" stroke="#000000" stroke-width="1" stroke-linecap="butt"/></g></g></svg>