<svg version="1.1" xmlns="http://www.w3.org/2000/svg" xmlns:xlink="http://www.w3.org/1999/xlink" width="20.51609" height="20.51609" viewBox="0,0,20.51609,20.51609"><g transform="translate(-229.74197,-169.74197)"><g data-paper-data="{&quot;isPaintingLayer&quot;:true}" fill-rule="nonzero" stroke-linecap="butt" stroke-linejoin="miter" stroke-miterlimit="10" stroke-dasharray="" stroke-dashoffset="0" style="mix-blend-mode: normal"><path d="M229.99198,190.00807v-20.01609h20.01609v20.01609z" fill-opacity="0.00784" fill="#00ffff" stroke-opacity="0.00784" stroke="#b0b0b0" stroke-width="0.5"/><path d="M240.00005,184.27217c-2.35944,0 -4.27215,-1.91271 -4.27215,-4.27215c0,-2.35944 1.91271,-4.27215 4.27215,-4.27215c2.35944,0 4.27215,1.91271 4.27215,4.27215c0,2.35944 -1.91271,4.27215 -4.27215,4.27215z" fill="#ff3d3d" stroke="#ff0000" stroke-width="1.5"/><g fill="#09ff00" stroke="#00d4ff" stroke-width="0"><g><path d="M244.51348,177.79409c0.73691,1.25794 0.73362,3.15967 -0.00987,4.41187c-0.39647,-0.59966 -2.32563,-2.19847 -2.32563,-2.19847c0,0 1.8477,-1.4756 2.3355,-2.2134z"/><path d="M237.86894,180.00748c0,0 -1.92916,1.59881 -2.32563,2.19847c-0.74349,-1.2522 -0.74677,-3.15393 -0.00987,-4.41187c0.4878,0.7378 2.3355,2.2134 2.3355,2.2134z" data-paper-data="{&quot;index&quot;:null}"/></g><g><path d="M237.79409,175.51c1.25794,-0.73691 3.15967,-0.73362 4.41187,0.00986c-0.59966,0.39647 -2.19848,2.32564 -2.19848,2.32564c0,0 -1.4756,-1.8477 -2.2134,-2.3355z"/><path d="M240.00748,182.15455c0,0 1.59881,1.92917 2.19847,2.32564c-1.2522,0.74349 -3.15393,0.74678 -4.41187,0.00987c0.7378,-0.4878 2.2134,-2.3355 2.2134,-2.3355z" data-paper-data="{&quot;index&quot;:null}"/></g></g><path d="M232.73438,180.00003c0,-4.01269 3.25293,-7.26562 7.26563,-7.26562c4.01269,0 7.26562,3.25293 7.26562,7.26562c0,4.01269 -3.25293,7.26563 -7.26562,7.26563c-4.01269,0 -7.26562,-3.25293 -7.26562,-7.26562z" fill="none" stroke="#09ff00" stroke-width="1"/></g></g></svg>