<svg version="1.1" xmlns="http://www.w3.org/2000/svg" xmlns:xlink="http://www.w3.org/1999/xlink" width="48.875" height="48.875" viewBox="0,0,48.875,48.875"><g transform="translate(-215.5625,-155.5625)"><g data-paper-data="{&quot;isPaintingLayer&quot;:true}" fill-rule="nonzero" stroke-linejoin="miter" stroke-miterlimit="10" stroke-dasharray="" stroke-dashoffset="0" style="mix-blend-mode: normal"><g stroke="#c8c8c8" stroke-linecap="round"><path d="M235.69532,180.9472l1.23474,-2.04662c0,0 1.59114,-1.56347 2.28584,-2.24609c0.58202,-0.57189 1.60444,-1.57654 1.60444,-1.57654l1.5392,-0.65966l-0.8288,1.40388l1.37005,-0.45668l-0.50743,1.28548l-0.25371,0.8288v0.77805l1.28548,-1.184l0.84571,-0.81188l-0.45668,1.74217l-0.9472,1.8944l2.1312,-1.55611l0.76114,-0.52434l-0.65966,1.87748l-1.15017,1.48845l-2.67245,1.92822l-2.08045,2.18194l-0.96411,0.28754l1.09943,-2.0128l-1.38697,0.50743l-0.77805,0.03383l0.60891,-1.08251l0.57508,-1.04868l-1.47154,0.45668l-1.48846,0.57508l-1.15017,-0.37211l0.96411,-1.37006z" fill="#ffffff" stroke-width="0.25"/><path d="M235.31519,182.90174l6.11951,-6.95991l1.4365,-0.65356l-0.43095,1.26412l-4.71173,5.54491z" fill="#c0ffff" stroke-width="0"/><path d="M242.74371,179.97127l-3.79237,3.70618l-1.89618,0.48841l0.8619,-1.35031l5.60237,-4.25205z" fill="#c0ffff" stroke-width="0"/><path d="M245.07058,179.68422l-1.14893,1.60864l-2.61444,1.86746l-2.03307,2.10915l-0.75755,0.30246l0.34857,-0.51543l3.76364,-3.87856l2.58571,-1.95365z" fill="#c0ffff" stroke-width="0"/><path d="M235.69532,180.9472l1.23474,-2.04662l3.89028,-3.82262l1.5392,-0.65966l-0.8288,1.40388l1.37005,-0.45668l-0.50743,1.28548l-0.25371,0.8288v0.77805l1.28548,-1.184l0.84571,-0.81188l-0.45668,1.74217l-0.9472,1.8944l2.1312,-1.55611l0.76114,-0.52434l-0.65966,1.87748l-1.15017,1.48845l-2.67245,1.92822l-2.08045,2.18194l-0.96411,0.28754l1.09943,-2.0128l-1.38697,0.50743l-0.77805,0.03383l0.60891,-1.08251l0.57508,-1.04868l-1.47154,0.45668l-1.48846,0.57508l-1.15017,-0.37211l0.96411,-1.37006z" fill="none" stroke-width="0.25"/></g><path d="M215.5625,204.4375v-48.875h48.875v48.875z" fill="none" stroke="#b0b0b0" stroke-width="0" stroke-linecap="butt"/><path d="M232.31132,180c0,-4.24634 3.44234,-7.68868 7.68868,-7.68868c4.24634,0 7.68868,3.44234 7.68868,7.68868c0,4.24634 -3.44234,7.68868 -7.68868,7.68868c-4.24634,0 -7.68868,-3.44234 -7.68868,-7.68868z" fill-opacity="0.15686" fill="#00c8ff" stroke="#000000" stroke-width="1" stroke-linecap="butt"/></g></g></svg>