<svg version="1.1" xmlns="http://www.w3.org/2000/svg" xmlns:xlink="http://www.w3.org/1999/xlink" width="61.63523" height="38.00197" viewBox="0,0,61.63523,38.00197"><g transform="translate(-209.20685,-152.75613)"><g data-paper-data="{&quot;isPaintingLayer&quot;:true}" fill-rule="nonzero" stroke="#241918" stroke-linejoin="miter" stroke-miterlimit="10" stroke-dasharray="" stroke-dashoffset="0" style="mix-blend-mode: normal"><path d="M209.95686,169.76488l4.71354,-4.71354h16.79007" fill="none" stroke-width="1.5" stroke-linecap="round"/><path d="M209.99208,190.0081v-20.0777h20.01609v20.0777z" fill="#4c3534" stroke-width="1.5" stroke-linecap="butt"/><path d="M248.56953,165.05134h16.79007l4.71354,4.71354" fill="none" stroke-width="1.5" stroke-linecap="round"/><path d="M250.02182,190.0081v-20.0777h20.01609v20.0777z" fill="#4c3534" stroke-width="1.5" stroke-linecap="butt"/><path d="M234.82856,175.13694l21.32014,-21.32014l2.923,2.923l-21.32014,21.32014z" fill="#4c3534" stroke-width="1.5" stroke-linecap="butt"/><path d="M242.2487,178.05993l-21.32014,-21.32014l2.923,-2.923l21.32014,21.32014z" data-paper-data="{&quot;index&quot;:null}" fill="#4c3534" stroke-width="1.5" stroke-linecap="butt"/><path d="M229.99208,190.0081v-30.15123h20.01609v30.15123z" fill="#4c3534" stroke-width="1.5" stroke-linecap="butt"/><path d="M250.00818,169.99201h-20.01609z" fill="#57140f" stroke-width="1.5" stroke-linecap="butt"/><path d="M209.78792,182.53797v-5.3125h60.55417v5.3125z" fill="none" stroke-width="1" stroke-linecap="butt"/><path d="M232.31136,169.92857c0,-4.24634 3.44234,-7.68868 7.68868,-7.68868c4.24634,0 7.68868,3.44234 7.68868,7.68868c0,4.24634 -3.44234,7.68868 -7.68868,7.68868c-4.24634,0 -7.68868,-3.44234 -7.68868,-7.68868z" fill="#4c3534" stroke-width="1" stroke-linecap="butt"/></g></g></svg>