<svg version="1.1" xmlns="http://www.w3.org/2000/svg" xmlns:xlink="http://www.w3.org/1999/xlink" width="72.5" height="72.5" viewBox="0,0,72.5,72.5"><g transform="translate(-203.75,-143.75)"><g data-paper-data="{&quot;isPaintingLayer&quot;:true}" fill-rule="nonzero" stroke-linejoin="miter" stroke-miterlimit="10" stroke-dasharray="" stroke-dashoffset="0" style="mix-blend-mode: normal"><path d="M204.5,180c0,-19.60611 15.89389,-35.5 35.5,-35.5c19.60611,0 35.5,15.89389 35.5,35.5c0,19.60611 -15.89389,35.5 -35.5,35.5c-19.60611,0 -35.5,-15.89389 -35.5,-35.5z" fill="#57140f" stroke="#000000" stroke-width="1.5" stroke-linecap="butt"/><g stroke="#241918"><path d="M218.89597,174.76689l4.94851,-4.94851h17.62706" fill="none" stroke-width="2" stroke-linecap="round"/><path d="M254.82856,187.83658v-31.65427h4.33981v31.65427z" fill="#4c3534" stroke-width="2" stroke-linecap="butt"/><path d="M239.92996,196.01924v-31.65427h21.01389v31.65427z" fill="#4c3534" stroke-width="2" stroke-linecap="butt"/><path d="M218.93295,196.01924v-21.07858h21.01389v21.07858z" fill="#4c3534" stroke-width="2" stroke-linecap="butt"/><path d="M218.82359,188.17672v-5.57733h41.84091v5.57733z" fill="none" stroke-width="1.5" stroke-linecap="butt"/><path d="M260.94385,175.00534h-21.01389z" fill="#57140f" stroke-width="2" stroke-linecap="butt"/><path d="M242.36484,174.93874c0,-4.45802 3.61394,-8.07196 8.07196,-8.07196c4.45802,0 8.07196,3.61394 8.07196,8.07196c0,4.45802 -3.61394,8.07196 -8.07196,8.07196c-4.45802,0 -8.07196,-3.61394 -8.07196,-8.07196z" fill="#4c3534" stroke-width="1.5" stroke-linecap="butt"/></g></g></g></svg>