<svg version="1.1" xmlns="http://www.w3.org/2000/svg" xmlns:xlink="http://www.w3.org/1999/xlink" width="72.5" height="72.5" viewBox="0,0,72.5,72.5"><g transform="translate(-203.75,-143.75)"><g data-paper-data="{&quot;isPaintingLayer&quot;:true}" fill-rule="nonzero" stroke-linecap="butt" stroke-linejoin="miter" stroke-miterlimit="10" stroke-dasharray="" stroke-dashoffset="0" style="mix-blend-mode: normal"><path d="M204.5,180c0,-19.60611 15.89389,-35.5 35.5,-35.5c19.60611,0 35.5,15.89389 35.5,35.5c0,19.60611 -15.89389,35.5 -35.5,35.5c-19.60611,0 -35.5,-15.89389 -35.5,-35.5z" fill="#57140f" stroke="#000000" stroke-width="1.5"/><path d="M218.43201,183.46411c0,-11.65681 9.63432,-21.10651 21.51886,-21.10651c11.88453,0 21.51886,9.4497 21.51886,21.10651c0,0 -43.0377,11.39727 -43.0377,0z" fill-opacity="0.08235" fill="#0be2ff" stroke="#241918" stroke-width="1"/><path d="M218.68984,190.68892v-7.31982h42.76632v7.31982z" fill="#4c3534" stroke="#241918" stroke-width="1.5"/><path d="M231.81457,180.68695c0,-4.5524 3.69045,-8.24286 8.24286,-8.24286c4.5524,0 8.24286,3.69045 8.24286,8.24286c0,4.5524 -3.69045,8.24286 -8.24286,8.24286c-4.5524,0 -8.24286,-3.69045 -8.24286,-8.24286z" fill="#4c3534" stroke="#241918" stroke-width="1"/></g></g></svg>