<svg version="1.1" xmlns="http://www.w3.org/2000/svg" xmlns:xlink="http://www.w3.org/1999/xlink" width="15.76474" height="23.04654" viewBox="0,0,15.76474,23.04654"><g transform="translate(-232.11763,-168.47673)"><g data-paper-data="{&quot;isPaintingLayer&quot;:true}" fill-rule="nonzero" stroke="none" stroke-linecap="butt" stroke-linejoin="miter" stroke-miterlimit="10" stroke-dasharray="" stroke-dashoffset="0" style="mix-blend-mode: normal"><path d="M232.11763,183.6409c0,-4.35331 7.88237,-15.16417 7.88237,-15.16417c0,0 7.88237,10.81086 7.88237,15.16417c0,4.35331 -3.52906,7.88237 -7.88237,7.88237c-4.35331,0 -7.88237,-3.52906 -7.88237,-7.88237z" fill="#31b8ff" stroke-width="NaN"/><path d="M243.10243,189.47947c-0.50493,0.23124 -1.70497,-1.5666 -1.81702,-2.02201c-0.06041,-0.24552 1.03312,-0.87675 1.65419,-1.68417c0.73017,-0.94924 1.02598,-2.07956 1.24786,-2.1925c0.52595,-0.26771 2.77664,0.4121 2.8884,0.86842c0.07301,0.29817 -0.38402,2.01524 -1.45579,3.29164c-0.84657,1.00823 -2.32254,1.64927 -2.51765,1.73863z" fill="#5ec7ff" stroke-width="0"/></g></g></svg>