<svg version="1.1" xmlns="http://www.w3.org/2000/svg" xmlns:xlink="http://www.w3.org/1999/xlink" width="24.47376" height="26.40342" viewBox="0,0,24.47376,26.40342"><g transform="translate(-227.80847,-165.43801)"><g data-paper-data="{&quot;isPaintingLayer&quot;:true}" fill-rule="nonzero" stroke-linejoin="miter" stroke-miterlimit="10" stroke-dasharray="" stroke-dashoffset="0" style="mix-blend-mode: normal"><path d="M250.43671,165.46677c0.13562,0.01119 0.27147,0.0244 0.40762,0.03977l-0.00014,-0.06853c-0.13583,0.00957 -0.27166,0.01916 -0.40748,0.02876z" fill="#000000" stroke="none" stroke-width="0.5" stroke-linecap="butt"/><path d="M231.18637,181.93934l2.52807,-4.19037l7.96516,-7.82664l3.15143,-1.35061l-1.69693,2.87439l2.80512,-0.93504l-1.03893,2.63197l-0.51947,1.69693l0,1.59303l2.63197,-2.42418l1.73156,-1.6623l-0.93504,3.56701l-1.93934,3.87869l4.36352,-3.18607l1.5584,-1.07357l-1.35061,3.84406l-2.35492,3.04754l-5.47172,3.94795l-4.25963,4.46742l-1.97398,0.58873l2.25102,-4.12111l-2.83975,1.03893l-1.59303,0.06926l1.24672,-2.21639l1.17746,-2.14713l-3.01291,0.93504l-3.04754,1.17746l-2.35492,-0.76189l1.97398,-2.80512z" fill="#ffffff" stroke="#c8c8c8" stroke-width="0.5" stroke-linecap="round"/><path d="M230.40806,185.94118l12.52941,-14.2501l2.94118,-1.33814l-0.88235,2.58824l-9.64706,11.35294z" fill="#c0ffff" stroke="#c8c8c8" stroke-width="0" stroke-linecap="round"/><path d="M247.20588,177.05882l-11.47059,8.70588l-1.76471,2.76471l3.88235,-1l7.76471,-7.58824z" fill="#c0ffff" stroke="#c8c8c8" stroke-width="0" stroke-linecap="round"/><path d="M250.67647,178.41176l-5.29412,4l-7.70588,7.94118l-0.71367,1.05532l1.55105,-0.61928l4.16262,-4.31839l5.35294,-3.82353l2.35238,-3.29361z" fill="#c0ffff" stroke="#c8c8c8" stroke-width="0" stroke-linecap="round"/><path d="M231.18637,181.93934l2.52807,-4.19037l7.96516,-7.82664l3.15143,-1.35061l-1.69693,2.87439l2.80512,-0.93504l-1.03893,2.63197l-0.51947,1.69693l0,1.59303l2.63197,-2.42418l1.73156,-1.6623l-0.93504,3.56701l-1.93934,3.87869l4.36352,-3.18607l1.5584,-1.07357l-1.35061,3.84406l-2.35492,3.04754l-5.47172,3.94795l-4.25963,4.46742l-1.97398,0.58873l2.25102,-4.12111l-2.83975,1.03893l-1.59303,0.06926l1.24672,-2.21639l1.17746,-2.14713l-3.01291,0.93504l-3.04754,1.17746l-2.35492,-0.76189l1.97398,-2.80512z" fill="none" stroke="#c8c8c8" stroke-width="0.5" stroke-linecap="round"/></g></g></svg>