<svg version="1.1" xmlns="http://www.w3.org/2000/svg" xmlns:xlink="http://www.w3.org/1999/xlink" width="24.94945" height="21.34253" viewBox="0,0,24.94945,21.34253"><g transform="translate(-231.04551,-165.71692)"><g data-paper-data="{&quot;isPaintingLayer&quot;:true}" fill-rule="nonzero" stroke-linejoin="miter" stroke-miterlimit="10" stroke-dasharray="" stroke-dashoffset="0" style="mix-blend-mode: normal"><path d="" fill="none" stroke="#b0b0b0" stroke-width="0" stroke-linecap="butt"/><g stroke="#160404" stroke-width="0.5" stroke-linecap="round"><path d="" fill="#505356"/><path d="" fill="#505356"/><path d="" fill="#57140f"/><path d="" fill="#505356"/><path d="" fill="#57140f"/><path d="" fill="#505356"/><path d="" fill="#505356"/><path d="" fill="#505356"/></g><g fill="#2a2c2e" stroke="#191919" stroke-width="0.5" stroke-linecap="butt"><g><g><path d="M231.29551,186.4307v-4.02426h3.9566v4.02426z"/><path d="M235.32582,186.44988c-0.02443,0.0084 0.01918,-4.04344 0.01918,-4.04344c0,0 16.38128,-12.42015 16.41551,-12.40118c0.01823,0.0101 0,4.0342 0,4.0342c0,0 -16.37647,12.39042 -16.4347,12.41043z"/><path d="M235.34501,182.42453c0,0 -4.04719,0.00654 -4.03988,-0.02275c0.01088,-0.04362 16.45388,-12.39125 16.45388,-12.39125c0,0 3.97066,-0.0165 3.98165,-0.01699c0.0029,-0.00013 -0.03897,0.03348 -0.12095,0.09729c-1.49228,1.16158 -16.27469,12.33369 -16.27469,12.33369z"/></g><g><path d="M235.27996,186.45241v-4.02426h3.9566v4.02426z"/><path d="M239.31027,186.47159c-0.02443,0.0084 0.01918,-4.04344 0.01918,-4.04344c0,0 16.38128,-12.42015 16.41551,-12.40118c0.01823,0.0101 0,4.0342 0,4.0342c0,0 -16.37647,12.39042 -16.4347,12.41043z"/><path d="M239.32946,182.44624c0,0 -4.04719,0.00654 -4.03988,-0.02275c0.01088,-0.04362 16.45388,-12.39125 16.45388,-12.39125c0,0 3.97066,-0.0165 3.98165,-0.01699c0.0029,-0.00013 -0.03897,0.03348 -0.12095,0.09729c-1.49228,1.16158 -16.27469,12.33369 -16.27469,12.33369z"/></g></g><g><g><path d="M231.29551,182.39237v-4.02426h3.9566v4.02426z"/><path d="M235.32582,182.41156c-0.02443,0.0084 0.01918,-4.04344 0.01918,-4.04344c0,0 16.38128,-12.42015 16.41551,-12.40118c0.01823,0.0101 0,4.0342 0,4.0342c0,0 -16.37647,12.39042 -16.4347,12.41043z"/><path d="M235.34501,178.3862c0,0 -4.04719,0.00654 -4.03988,-0.02275c0.01088,-0.04362 16.45388,-12.39125 16.45388,-12.39125c0,0 3.97066,-0.0165 3.98165,-0.01699c0.0029,-0.00013 -0.03897,0.03348 -0.12095,0.09729c-1.49228,1.16158 -16.27469,12.33369 -16.27469,12.33369z"/></g><g><path d="M235.27996,182.41408v-4.02426h3.9566v4.02426z"/><path d="M239.32945,178.38983c0,0 16.38128,-12.42015 16.41551,-12.40118c0.01823,0.0101 0,4.0342 0,4.0342c0,0 -16.37647,12.39042 -16.4347,12.41043z"/><path d="M239.32946,178.40792c0,0 -4.04719,0.00654 -4.03988,-0.02275c0.01088,-0.04362 16.45388,-12.39125 16.45388,-12.39125c0,0 3.97066,-0.0165 3.98165,-0.01699c0.0029,-0.00013 -0.03897,0.03348 -0.12095,0.09729c-1.49228,1.16158 -16.27469,12.33369 -16.27469,12.33369z"/></g></g></g><path d="M234.71148,176.51337l-1.07929,0.81728l0.89475,0.38278l0.91357,-0.82477z" fill="#17181a" stroke="#171819" stroke-width="0.5" stroke-linecap="round"/><path d="M249.67183,175.40198l-1.19342,1.15226l0.9465,0.90535l1.31687,-1.31687z" fill="#17181a" stroke="#171819" stroke-width="0.5" stroke-linecap="round"/><path d="M232.21165,183.71872l-0.02738,1.58705l1.20387,-0.42877l-0.01835,-0.48731z" fill="#17181a" stroke="#171819" stroke-width="0.5" stroke-linecap="round"/><path d="M249.92698,168.37752l-1.05673,0.77588l0.81013,0.57403l0.8284,-0.6576z" fill="#17181a" stroke="#171819" stroke-width="0.5" stroke-linecap="round"/></g></g></svg>