<svg version="1.1" xmlns="http://www.w3.org/2000/svg" xmlns:xlink="http://www.w3.org/1999/xlink" width="102.126" height="28" viewBox="0,0,102.126,28"><g transform="translate(-142.98682,-165.93997)"><g data-paper-data="{&quot;isPaintingLayer&quot;:true}" fill-rule="nonzero" stroke-linejoin="miter" stroke-miterlimit="10" stroke-dasharray="" stroke-dashoffset="0" style="mix-blend-mode: normal"><g fill="#2a2c2e" stroke="#191919" stroke-width="0.5" stroke-linecap="butt"><g><g><path d="M220.41337,190.3243v-4.02426h3.9566v4.02426z"/><path d="M224.44368,190.34348c-0.02443,0.0084 0.01918,-4.04344 0.01918,-4.04344c0,0 16.38128,-12.42015 16.41551,-12.40118c0.01823,0.0101 0,4.0342 0,4.0342c0,0 -16.37647,12.39042 -16.4347,12.41043z"/><path d="M224.46287,186.31813c0,0 -4.04719,0.00654 -4.03988,-0.02275c0.01088,-0.04362 16.45388,-12.39125 16.45388,-12.39125c0,0 3.97066,-0.0165 3.98165,-0.01699c0.0029,-0.00013 -0.03897,0.03348 -0.12095,0.09729c-1.49228,1.16158 -16.27469,12.33369 -16.27469,12.33369z"/></g><g><path d="M224.39782,190.34601v-4.02426h3.9566v4.02426z"/><path d="M228.42813,190.36519c-0.02443,0.0084 0.01918,-4.04344 0.01918,-4.04344c0,0 16.38128,-12.42015 16.41551,-12.40118c0.01823,0.0101 0,4.0342 0,4.0342c0,0 -16.37647,12.39042 -16.4347,12.41043z"/><path d="M228.44732,186.33984c0,0 -4.04719,0.00654 -4.03988,-0.02275c0.01088,-0.04362 16.45388,-12.39125 16.45388,-12.39125c0,0 3.97066,-0.0165 3.98165,-0.01699c0.0029,-0.00013 -0.03897,0.03348 -0.12095,0.09729c-1.49228,1.16158 -16.27469,12.33369 -16.27469,12.33369z"/></g></g><g><g><path d="M220.41337,186.28597v-4.02426h3.9566v4.02426z"/><path d="M224.44368,186.30516c-0.02443,0.0084 0.01918,-4.04344 0.01918,-4.04344c0,0 16.38128,-12.42015 16.41551,-12.40118c0.01823,0.0101 0,4.0342 0,4.0342c0,0 -16.37647,12.39042 -16.4347,12.41043z"/><path d="M224.46287,182.2798c0,0 -4.04719,0.00654 -4.03988,-0.02275c0.01088,-0.04362 16.45388,-12.39125 16.45388,-12.39125c0,0 3.97066,-0.0165 3.98165,-0.01699c0.0029,-0.00013 -0.03897,0.03348 -0.12095,0.09729c-1.49228,1.16158 -16.27469,12.33369 -16.27469,12.33369z"/></g><g><path d="M224.39782,186.30768v-4.02426h3.9566v4.02426z"/><path d="M228.44731,182.28343c0,0 16.38128,-12.42015 16.41551,-12.40118c0.01823,0.0101 0,4.0342 0,4.0342c0,0 -16.37647,12.39042 -16.4347,12.41043z"/><path d="M228.44732,182.30152c0,0 -4.04719,0.00654 -4.03988,-0.02275c0.01088,-0.04362 16.45388,-12.39125 16.45388,-12.39125c0,0 3.97066,-0.0165 3.98165,-0.01699c0.0029,-0.00013 -0.03897,0.03348 -0.12095,0.09729c-1.49228,1.16158 -16.27469,12.33369 -16.27469,12.33369z"/></g></g></g><path d="" fill="none" stroke="#b0b0b0" stroke-width="0" stroke-linecap="butt"/><g stroke="#160404" stroke-width="0.5" stroke-linecap="round"><path d="" fill="#505356"/><path d="" fill="#505356"/><path d="" fill="#57140f"/><path d="" fill="#505356"/><path d="" fill="#57140f"/><path d="" fill="#505356"/><path d="" fill="#505356"/><path d="" fill="#505356"/></g><path d="" fill="none" stroke="#b0b0b0" stroke-width="0" stroke-linecap="butt"/><g stroke="#160404" stroke-width="0.5" stroke-linecap="round"><path d="" fill="#505356"/><path d="" fill="#505356"/><path d="" fill="#57140f"/><path d="" fill="#505356"/><path d="" fill="#57140f"/><path d="" fill="#505356"/><path d="" fill="#505356"/><path d="" fill="#505356"/></g><path d="M224.55837,180.78226l-0.91357,0.82477l-0.89475,-0.38278l1.07929,-0.81728z" fill="#17181a" stroke="#171819" stroke-width="0.5" stroke-linecap="round"/><path d="M239.85964,180.03632l-1.31687,1.31687l-0.9465,-0.90535l1.19342,-1.15226z" fill="#17181a" stroke="#171819" stroke-width="0.5" stroke-linecap="round"/><path d="M222.48765,188.28329l0.01835,0.48731l-1.20387,0.42877l0.02738,-1.58705z" fill="#17181a" stroke="#171819" stroke-width="0.5" stroke-linecap="round"/><path d="M239.62664,172.96343l-0.8284,0.6576l-0.81013,-0.57403l1.05673,-0.77588z" fill="#17181a" stroke="#171819" stroke-width="0.5" stroke-linecap="round"/><text transform="translate(143.23682,187.68998) scale(0.5,0.5)" font-size="40" xml:space="preserve" fill="#000000" fill-rule="nonzero" stroke="none" stroke-width="1" stroke-linecap="butt" stroke-linejoin="miter" stroke-miterlimit="10" stroke-dasharray="" stroke-dashoffset="0" font-family="Sans Serif" font-weight="normal" text-anchor="start" style="mix-blend-mode: normal"><tspan x="0" dy="0">Сталь-&gt;</tspan></text></g></g></svg>