<svg version="1.1" xmlns="http://www.w3.org/2000/svg" xmlns:xlink="http://www.w3.org/1999/xlink" width="183.87709" height="43.31983" viewBox="0,0,183.87709,43.31983"><g transform="translate(-126.16667,-158.3401)"><g data-paper-data="{&quot;isPaintingLayer&quot;:true}" fill-rule="nonzero" stroke-linecap="butt" stroke-linejoin="miter" stroke-miterlimit="10" stroke-dasharray="" stroke-dashoffset="0" style="mix-blend-mode: normal"><path d="M171.20625,191.21508c0,-7.23545 0,-16.79932 0,-21.1559c0,-4.39698 5.15983,-10.46907 10.67778,-10.46907c15.36833,0 88.7334,0 116.35749,0c6.56968,0 10.55224,4.63313 10.55224,10.46907c0,7.53959 0,17.08678 0,21.2448c0,3.95264 -4.86516,9.10596 -11.43522,9.10596c-27.68369,0 -100.43085,0 -115.69674,0c-2.90232,0 -10.45556,-3.99648 -10.45556,-9.19486z" fill="#571b17" stroke="#380d09" stroke-width="2.5"/><text transform="translate(172.26002,186.00002) scale(0.5,0.5)" font-size="40" xml:space="preserve" fill="#000000" fill-rule="nonzero" stroke="none" stroke-width="1" stroke-linecap="butt" stroke-linejoin="miter" stroke-miterlimit="10" stroke-dasharray="" stroke-dashoffset="0" font-family="Sans Serif" font-weight="normal" text-anchor="start" style="mix-blend-mode: normal"><tspan x="0" dy="0">Предыстория</tspan></text><path d="M137.5,190.0328v-24.33333h11.33333v24.33333z" fill="none" stroke="#380d09" stroke-width="0"/><path d="M126.16667,190.03281v-24.33333h31.33333v24.33333z" fill="none" stroke="#380d09" stroke-width="0"/></g></g></svg>