<svg version="1.1" xmlns="http://www.w3.org/2000/svg" xmlns:xlink="http://www.w3.org/1999/xlink" width="61.63523" height="38.00197" viewBox="0,0,61.63523,38.00197"><g transform="translate(-209.20686,-152.75613)"><g data-paper-data="{&quot;isPaintingLayer&quot;:true}" fill-rule="nonzero" stroke-linejoin="miter" stroke-miterlimit="10" stroke-dasharray="" stroke-dashoffset="0" style="mix-blend-mode: normal"><path d="M209.95687,169.76488l4.71354,-4.71354h16.79007" fill="none" stroke="#241918" stroke-width="1.5" stroke-linecap="round"/><path d="M209.99208,190.0081v-20.0777h20.01609v20.0777z" fill="#4c3534" stroke="#241918" stroke-width="1.5" stroke-linecap="butt"/><path d="M248.56953,165.05134h16.79007l4.71354,4.71354" fill="none" stroke="#241918" stroke-width="1.5" stroke-linecap="round"/><path d="M250.02182,190.0081v-20.0777h20.01609v20.0777z" fill="#4c3534" stroke="#241918" stroke-width="1.5" stroke-linecap="butt"/><path d="M234.82857,175.13694l21.32014,-21.32014l2.923,2.923l-21.32014,21.32014z" fill="#4c3534" stroke="#241918" stroke-width="1.5" stroke-linecap="butt"/><path d="M242.24871,178.05993l-21.32014,-21.32014l2.923,-2.923l21.32014,21.32014z" data-paper-data="{&quot;index&quot;:null}" fill="#4c3534" stroke="#241918" stroke-width="1.5" stroke-linecap="butt"/><path d="M229.99208,190.0081v-30.15123h20.01609v30.15123z" fill="#4c3534" stroke="#241918" stroke-width="1.5" stroke-linecap="butt"/><path d="M250.00819,169.99201h-20.01609z" fill="#57140f" stroke="#241918" stroke-width="1.5" stroke-linecap="butt"/><path d="M209.78793,182.53797v-5.3125h60.55417v5.3125z" fill="none" stroke="#241918" stroke-width="1" stroke-linecap="butt"/><path d="M232.31137,169.92857c0,-4.24634 3.44234,-7.68868 7.68868,-7.68868c4.24634,0 7.68868,3.44234 7.68868,7.68868c0,4.24634 -3.44234,7.68868 -7.68868,7.68868c-4.24634,0 -7.68868,-3.44234 -7.68868,-7.68868z" fill="#4c3534" stroke="#241918" stroke-width="1" stroke-linecap="butt"/><path d="" fill="none" stroke="#b0b0b0" stroke-width="0" stroke-linecap="butt"/><g stroke="#160404" stroke-width="0.5" stroke-linecap="round"><path d="" fill="#505356"/><path d="" fill="#505356"/><path d="" fill="#57140f"/><path d="" fill="#505356"/><path d="" fill="#57140f"/><path d="" fill="#505356"/><path d="" fill="#505356"/><path d="" fill="#505356"/></g><g stroke-width="0.25"><g fill="#2a2c2e" stroke="#191919" stroke-linecap="butt"><g><g><path d="M235.59551,173.35712v-1.42452h1.40057v1.42452z"/><path d="M237.02217,173.36391c-0.00865,0.00297 0.00679,-1.43131 0.00679,-1.43131c0,0 5.79869,-4.39652 5.81081,-4.3898c0.00645,0.00358 0,1.42804 0,1.42804c0,0 -5.79699,4.386 -5.8176,4.39308z"/><path d="M237.02896,171.939c0,0 -1.43264,0.00232 -1.43005,-0.00805c0.00385,-0.01544 5.82439,-4.38629 5.82439,-4.38629c0,0 1.40555,-0.00584 1.40944,-0.00601c0.00103,-0.00005 -0.01379,0.01185 -0.04281,0.03444c-0.52824,0.41118 -5.76096,4.36591 -5.76096,4.36591z"/></g><g><path d="M237.00594,173.3648v-1.42452h1.40057v1.42452z"/><path d="M238.4326,173.37159c-0.00865,0.00297 0.00679,-1.43131 0.00679,-1.43131c0,0 5.79869,-4.39652 5.81081,-4.3898c0.00645,0.00358 0,1.42804 0,1.42804c0,0 -5.79699,4.386 -5.8176,4.39308z"/><path d="M238.43939,171.94669c0,0 -1.43264,0.00232 -1.43005,-0.00805c0.00385,-0.01544 5.82439,-4.38629 5.82439,-4.38629c0,0 1.40555,-0.00584 1.40944,-0.00601c0.00103,-0.00005 -0.01379,0.01185 -0.04281,0.03444c-0.52824,0.41118 -5.76096,4.36591 -5.76096,4.36591z"/></g></g><g><g><path d="M235.59551,171.92762v-1.42452h1.40057v1.42452z"/><path d="M237.02217,171.93441c-0.00865,0.00297 0.00679,-1.43131 0.00679,-1.43131c0,0 5.79869,-4.39652 5.81081,-4.3898c0.00645,0.00358 0,1.42804 0,1.42804c0,0 -5.79699,4.386 -5.8176,4.39308z"/><path d="M237.02896,170.5095c0,0 -1.43264,0.00232 -1.43005,-0.00805c0.00385,-0.01544 5.82439,-4.38629 5.82439,-4.38629c0,0 1.40555,-0.00584 1.40944,-0.00601c0.00103,-0.00005 -0.01379,0.01185 -0.04281,0.03444c-0.52824,0.41118 -5.76096,4.36591 -5.76096,4.36591z"/></g><g><path d="M237.00594,171.9353v-1.42452h1.40057v1.42452z"/><path d="M238.43939,170.51079c0,0 5.79869,-4.39652 5.81081,-4.3898c0.00645,0.00358 0,1.42804 0,1.42804c0,0 -5.79699,4.386 -5.8176,4.39308z"/><path d="M238.43939,170.51719c0,0 -1.43264,0.00232 -1.43005,-0.00805c0.00385,-0.01544 5.82439,-4.38629 5.82439,-4.38629c0,0 1.40555,-0.00584 1.40944,-0.00601c0.00103,-0.00005 -0.01379,0.01185 -0.04281,0.03444c-0.52824,0.41118 -5.76096,4.36591 -5.76096,4.36591z"/></g></g></g><path d="M237.06277,169.9794l-0.32339,0.29195l-0.31673,-0.1355l0.38205,-0.2893z" fill="#17181a" stroke="#171819" stroke-linecap="round"/><path d="M242.47915,169.71535l-0.46615,0.46615l-0.33504,-0.32048l0.42245,-0.40788z" fill="#17181a" stroke="#171819" stroke-linecap="round"/><path d="M236.32977,172.63464l0.0065,0.1725l-0.42615,0.15178l0.00969,-0.56179z" fill="#17181a" stroke="#171819" stroke-linecap="round"/><path d="M242.39668,167.21167l-0.29324,0.23278l-0.28677,-0.2032l0.37406,-0.27465z" fill="#17181a" stroke="#171819" stroke-linecap="round"/></g></g></g></svg>