<svg version="1.1" xmlns="http://www.w3.org/2000/svg" xmlns:xlink="http://www.w3.org/1999/xlink" width="151.23715" height="28" viewBox="0,0,151.23715,28"><g transform="translate(-91.31173,-165.94)"><g data-paper-data="{&quot;isPaintingLayer&quot;:true}" fill-rule="nonzero" stroke-linejoin="miter" stroke-miterlimit="10" stroke-dasharray="" stroke-dashoffset="0" style="mix-blend-mode: normal"><path d="" fill="none" stroke="#b0b0b0" stroke-width="0" stroke-linecap="butt"/><g stroke="#160404" stroke-width="0.5" stroke-linecap="round"><path d="" fill="#505356"/><path d="" fill="#505356"/><path d="" fill="#57140f"/><path d="" fill="#505356"/><path d="" fill="#57140f"/><path d="" fill="#505356"/><path d="" fill="#505356"/><path d="" fill="#505356"/></g><g><g stroke="#0a9f04" stroke-width="0.25"><path d="M229.52838,170.13867c-0.19853,-0.31472 0.4324,-1.06932 1.40918,-1.68546c0.97679,-0.61613 2.12807,-0.54576 2.12807,-0.54576c0,0 -0.4324,1.06932 -1.40918,1.68546c-0.97679,0.61613 -1.92956,0.86049 -2.12806,0.54578z" fill="#2dff24" stroke-linecap="butt"/><path d="M232.76649,168.03212l-3.12211,2.11201" fill="none" stroke-linecap="round"/><path d="M230.60856,168.81265l0.8494,0.22957l-0.13774,0.66574" fill="none" stroke-linecap="round"/><path d="M231.60819,168.23229l0.62024,0.1329l-0.17721,0.75314" fill="none" stroke-linecap="round"/><path d="M229.79179,169.5835l0.59807,0.02215l-0.04431,0.42087" fill="none" stroke-linecap="round"/></g><path d="M222.1775,180.98669c0.03097,-0.03097 11.37109,-11.37031 11.40263,-11.40032c2.02233,-1.92403 5.22174,-1.89356 7.20676,0.09146c1.9887,1.9887 2.01561,5.19629 0.08076,7.218c-0.02655,0.02774 -11.36231,11.36411 -11.38961,11.39139c-2.01599,2.01599 -5.28455,2.01599 -7.30053,0c-2.01599,-2.01599 -2.01599,-5.28455 0,-7.30053z" fill="#642200" stroke="#1a0900" stroke-width="0.5" stroke-linecap="butt"/><path d="M220.69079,184.6117c0,-0.04379 0.00054,-0.08746 0.00163,-0.131c0.06951,-2.7905 2.35339,-5.03126 5.16062,-5.03126c2.85104,0 5.16226,2.31121 5.16226,5.16226c0,2.85104 -2.31121,5.16226 -5.16226,5.16226c-2.85104,0 -5.16226,-2.31121 -5.16226,-5.16226z" fill="#642200" stroke="#1a0900" stroke-width="0.5" stroke-linecap="butt"/><path d="M221.31517,184.6117c0,-0.0385 0.00048,-0.07688 0.00143,-0.11514c0.06109,-2.45298 2.06875,-4.42274 4.53646,-4.42274c2.5062,0 4.53788,2.03167 4.53788,4.53788c0,2.5062 -2.03167,4.53788 -4.53788,4.53788c-2.5062,0 -4.53788,-2.03167 -4.53788,-4.53788z" fill="#b0643e" stroke="#512e1c" stroke-width="0.5" stroke-linecap="butt"/><path d="M223.07315,184.61171c0,-1.53531 1.24461,-2.7799 2.77992,-2.7799c1.53531,0 2.77992,1.2446 2.77992,2.7799c0,1.53531 -1.24461,2.7799 -2.77992,2.7799c-1.53531,0 -2.77992,-1.2446 -2.77992,-2.7799z" fill="none" stroke="#512e1c" stroke-width="0.5" stroke-linecap="butt"/><path d="M222.52792,184.61171c0,-1.83641 1.48871,-3.32512 3.32512,-3.32512c1.83641,0 3.32512,1.48871 3.32512,3.32512c0,1.83641 -1.48871,3.32512 -3.32512,3.32512c-1.83641,0 -3.32512,-1.4887 -3.32512,-3.32512z" fill="none" stroke="#512e1c" stroke-width="0.5" stroke-linecap="butt"/><path d="M221.96835,184.61171c0,-2.14546 1.73924,-3.8847 3.8847,-3.8847c2.14546,0 3.8847,1.73924 3.8847,3.8847c0,2.14546 -1.73924,3.88469 -3.8847,3.88469c-2.14546,0 -3.8847,-1.73923 -3.8847,-3.88469z" fill="none" stroke="#512e1c" stroke-width="0.5" stroke-linecap="butt"/><path d="M224.48272,184.6117c0,-0.75681 0.61352,-1.37033 1.37033,-1.37033c0.75681,0 1.37033,0.61352 1.37033,1.37033c0,0.75681 -0.61352,1.37033 -1.37033,1.37033c-0.75681,0 -1.37033,-0.61352 -1.37033,-1.37033z" fill="none" stroke="#512e1c" stroke-width="0.5" stroke-linecap="butt"/><path d="M223.81922,184.6117c0,-1.12325 0.91057,-2.03382 2.03382,-2.03382c1.12325,0 2.03382,0.91057 2.03382,2.03382c0,1.12325 -0.91057,2.0338 -2.03382,2.0338c-1.12325,0 -2.03382,-0.91056 -2.03382,-2.0338z" fill="none" stroke="#512e1c" stroke-width="0.5" stroke-linecap="butt"/><path d="M240.06889,169.27926l-11.13397,11.13397" fill="none" stroke="#1a0900" stroke-width="0.5" stroke-linecap="round"/><path d="M233.07308,167.23939c0,0 0.36641,1.66865 1.31933,2.43932c0.06479,0.05241 1.72868,0.84241 1.81404,1.1891c0.17812,0.72326 -0.59439,1.75985 -1.72544,2.03839c-1.13105,0.27853 -1.15419,-0.92371 -1.3323,-1.64698c-0.17812,-0.72326 -0.07561,-4.01983 -0.07561,-4.01983z" fill="#642200" stroke="#1a0900" stroke-width="0.5" stroke-linecap="butt"/></g><text transform="translate(92.06173,187.69) scale(0.5,0.5)" font-size="40" xml:space="preserve" fill="#000000" fill-rule="nonzero" stroke="none" stroke-width="1" stroke-linecap="butt" stroke-linejoin="miter" stroke-miterlimit="10" stroke-dasharray="" stroke-dashoffset="0" font-family="Sans Serif" font-weight="normal" text-anchor="start" style="mix-blend-mode: normal"><tspan x="0" dy="0">Древесина-&gt;</tspan></text></g></g></svg>