<svg version="1.1" xmlns="http://www.w3.org/2000/svg" xmlns:xlink="http://www.w3.org/1999/xlink" width="48.875" height="48.875" viewBox="0,0,48.875,48.875"><g transform="translate(-215.5625,-155.5625)"><g data-paper-data="{&quot;isPaintingLayer&quot;:true}" fill-rule="nonzero" stroke-linejoin="miter" stroke-miterlimit="10" stroke-dasharray="" stroke-dashoffset="0" style="mix-blend-mode: normal"><path d="M215.5625,204.4375v-48.875h48.875v48.875z" fill="none" stroke="#b0b0b0" stroke-width="0" stroke-linecap="butt"/><path d="" fill="none" stroke="#b0b0b0" stroke-width="0" stroke-linecap="butt"/><g stroke="#160404" stroke-width="0.5" stroke-linecap="round"><path d="" fill="#505356"/><path d="" fill="#505356"/><path d="" fill="#57140f"/><path d="" fill="#505356"/><path d="" fill="#57140f"/><path d="" fill="#505356"/><path d="" fill="#505356"/><path d="" fill="#505356"/></g><g fill="#505356" stroke="#191919" stroke-width="0.25" stroke-linecap="butt"><g><g><path d="M235.01271,184.16694v-1.64122h1.61363v1.64122z"/><path d="M236.6564,184.17476c-0.00996,0.00343 0.00782,-1.64905 0.00782,-1.64905c0,0 6.68082,-5.06534 6.69478,-5.0576c0.00743,0.00412 0,1.64528 0,1.64528c0,0 -6.67885,5.05321 -6.7026,5.06137z"/><path d="M236.66423,182.5331c0,0 -1.65057,0.00267 -1.64759,-0.00928c0.00444,-0.01779 6.71042,-5.05355 6.71042,-5.05355c0,0 1.61936,-0.00673 1.62385,-0.00693c0.00118,-0.00005 -0.01589,0.01365 -0.04933,0.03968c-0.6086,0.47373 -6.63734,5.03008 -6.63734,5.03008z"/></g><g><path d="M236.6377,184.1758v-1.64122h1.61363v1.64122z"/><path d="M238.28139,184.18362c-0.00996,0.00343 0.00782,-1.64905 0.00782,-1.64905c0,0 6.68082,-5.06534 6.69478,-5.0576c0.00743,0.00412 0,1.64528 0,1.64528c0,0 -6.67885,5.05321 -6.7026,5.06137z"/><path d="M238.28921,182.54195c0,0 -1.65057,0.00267 -1.64759,-0.00928c0.00444,-0.01779 6.71042,-5.05355 6.71042,-5.05355c0,0 1.61936,-0.00673 1.62385,-0.00693c0.00118,-0.00005 -0.01589,0.01365 -0.04933,0.03968c-0.6086,0.47373 -6.63734,5.03008 -6.63734,5.03008z"/></g></g><g><g><path d="M235.01271,182.51998v-1.64122h1.61363v1.64122z"/><path d="M236.6564,182.52781c-0.00996,0.00343 0.00782,-1.64905 0.00782,-1.64905c0,0 6.68082,-5.06534 6.69478,-5.0576c0.00743,0.00412 0,1.64528 0,1.64528c0,0 -6.67885,5.05321 -6.7026,5.06137z"/><path d="M236.66423,180.88614c0,0 -1.65057,0.00267 -1.64759,-0.00928c0.00444,-0.01779 6.71042,-5.05355 6.71042,-5.05355c0,0 1.61936,-0.00673 1.62385,-0.00693c0.00118,-0.00005 -0.01589,0.01365 -0.04933,0.03968c-0.6086,0.47373 -6.63734,5.03008 -6.63734,5.03008z"/></g><g><path d="M236.6377,182.52884v-1.64122h1.61363v1.64122z"/><path d="M238.28139,182.53666c-0.00996,0.00343 0.00782,-1.64905 0.00782,-1.64905c0,0 6.68082,-5.06534 6.69478,-5.0576c0.00743,0.00412 0,1.64528 0,1.64528c0,0 -6.67885,5.05321 -6.7026,5.06137z"/><path d="M238.28921,180.89499c0,0 -1.65057,0.00267 -1.64759,-0.00928c0.00444,-0.01779 6.71042,-5.05355 6.71042,-5.05355c0,0 1.61936,-0.00673 1.62385,-0.00693c0.00118,-0.00005 -0.01589,0.01365 -0.04933,0.03968c-0.6086,0.47373 -6.63734,5.03008 -6.63734,5.03008z"/></g></g></g><path d="M232.31132,180c0,-4.24634 3.44234,-7.68868 7.68868,-7.68868c4.24634,0 7.68868,3.44234 7.68868,7.68868c0,4.24634 -3.44234,7.68868 -7.68868,7.68868c-4.24634,0 -7.68868,-3.44234 -7.68868,-7.68868z" fill-opacity="0.15686" fill="#00c8ff" stroke="#000000" stroke-width="1" stroke-linecap="butt"/></g></g></svg>