<svg version="1.1" xmlns="http://www.w3.org/2000/svg" xmlns:xlink="http://www.w3.org/1999/xlink" width="83.82376" height="28.50195" viewBox="0,0,83.82376,28.50195"><g transform="translate(-162.8534,-165.43803)"><g data-paper-data="{&quot;isPaintingLayer&quot;:true}" fill-rule="nonzero" stroke-linejoin="miter" stroke-miterlimit="10" stroke-dasharray="" stroke-dashoffset="0" style="mix-blend-mode: normal"><path d="M245.23913,165.43803l0.00014,0.06853c-0.13615,-0.01537 -0.272,-0.02858 -0.40762,-0.03977c0.13582,-0.0096 0.27165,-0.01919 0.40748,-0.02876z" fill="#000000" stroke="none" stroke-width="0.5" stroke-linecap="butt"/><path d="M225.58131,181.93936l2.52807,-4.19037l7.96516,-7.82664l3.15143,-1.35061l-1.69693,2.87439l2.80512,-0.93504l-1.03893,2.63197l-0.51947,1.69693v1.59303l2.63197,-2.42418l1.73156,-1.6623l-0.93504,3.56701l-1.93934,3.87869l4.36352,-3.18607l1.5584,-1.07357l-1.35061,3.84406l-2.35492,3.04754l-5.47172,3.94795l-4.25963,4.46742l-1.97398,0.58873l2.25102,-4.12111l-2.83975,1.03893l-1.59303,0.06926l1.24672,-2.21639l1.17746,-2.14713l-3.01291,0.93504l-3.04754,1.17746l-2.35492,-0.76189l1.97398,-2.80512z" fill="#ffffff" stroke="#c8c8c8" stroke-width="0.5" stroke-linecap="round"/><path d="M224.803,185.9412l12.52941,-14.2501l2.94118,-1.33814l-0.88235,2.58824l-9.64706,11.35294z" fill="#c0ffff" stroke="#c8c8c8" stroke-width="0" stroke-linecap="round"/><path d="M240.01258,179.94119l-7.76471,7.58824l-3.88235,1l1.76471,-2.76471l11.47059,-8.70588z" fill="#c0ffff" stroke="#c8c8c8" stroke-width="0" stroke-linecap="round"/><path d="M244.77673,179.35347l-2.35238,3.29361l-5.35294,3.82353l-4.16262,4.31839l-1.55105,0.61928l0.71367,-1.05532l7.70588,-7.94118l5.29412,-4z" fill="#c0ffff" stroke="#c8c8c8" stroke-width="0" stroke-linecap="round"/><path d="M225.58131,181.93936l2.52807,-4.19037l7.96516,-7.82664l3.15143,-1.35061l-1.69693,2.87439l2.80512,-0.93504l-1.03893,2.63197l-0.51947,1.69693v1.59303l2.63197,-2.42418l1.73156,-1.6623l-0.93504,3.56701l-1.93934,3.87869l4.36352,-3.18607l1.5584,-1.07357l-1.35061,3.84406l-2.35492,3.04754l-5.47172,3.94795l-4.25963,4.46742l-1.97398,0.58873l2.25102,-4.12111l-2.83975,1.03893l-1.59303,0.06926l1.24672,-2.21639l1.17746,-2.14713l-3.01291,0.93504l-3.04754,1.17746l-2.35492,-0.76189l1.97398,-2.80512z" fill="none" stroke="#c8c8c8" stroke-width="0.5" stroke-linecap="round"/><text transform="translate(163.6034,187.68998) scale(0.5,0.5)" font-size="40" xml:space="preserve" fill="#000000" fill-rule="nonzero" stroke="none" stroke-width="1" stroke-linecap="butt" stroke-linejoin="miter" stroke-miterlimit="10" stroke-dasharray="" stroke-dashoffset="0" font-family="Sans Serif" font-weight="normal" text-anchor="start" style="mix-blend-mode: normal"><tspan x="0" dy="0">Лёд-&gt;</tspan></text></g></g></svg>