<svg version="1.1" xmlns="http://www.w3.org/2000/svg" xmlns:xlink="http://www.w3.org/1999/xlink" width="195.54376" height="43.31984" viewBox="0,0,195.54376,43.31984"><g transform="translate(-169.95624,-158.3401)"><g data-paper-data="{&quot;isPaintingLayer&quot;:true}" fill-rule="nonzero" stroke-linecap="butt" stroke-linejoin="miter" stroke-miterlimit="10" stroke-dasharray="" stroke-dashoffset="0" style="mix-blend-mode: normal"><path d="M171.20626,191.21509c0,-7.23546 0,-16.79932 0,-21.1559c0,-4.39697 5.15983,-10.46908 10.67778,-10.46908c15.36832,0 88.7334,0 116.35749,0c6.56968,0 10.55223,4.63313 10.55223,10.46908c0,7.53959 0,17.08678 0,21.2448c0,3.95264 -4.86516,9.10596 -11.43522,9.10596c-27.68369,0 -100.43084,0 -115.69674,0c-2.90231,0 -10.45556,-3.99649 -10.45556,-9.19486z" fill="#571b17" stroke="#380d09" stroke-width="2.5"/><text transform="translate(204.77001,185.76876) scale(0.5,0.5)" font-size="40" xml:space="preserve" fill="#000000" fill-rule="nonzero" stroke="none" stroke-width="1" stroke-linecap="butt" stroke-linejoin="miter" stroke-miterlimit="10" stroke-dasharray="" stroke-dashoffset="0" font-family="Sans Serif" font-weight="normal" text-anchor="start" style="mix-blend-mode: normal"><tspan x="0" dy="0">Играть</tspan></text><path d="M334.16667,190.03281v-24.33333h31.33333v24.33333z" fill="none" stroke="#380d09" stroke-width="0"/></g></g></svg>