<svg version="1.1" xmlns="http://www.w3.org/2000/svg" xmlns:xlink="http://www.w3.org/1999/xlink" width="77.10318" height="28" viewBox="0,0,77.10318,28"><g transform="translate(-163.3534,-165.93997)"><g data-paper-data="{&quot;isPaintingLayer&quot;:true}" fill-rule="nonzero" stroke-linecap="butt" stroke-linejoin="miter" stroke-miterlimit="10" stroke-dasharray="" stroke-dashoffset="0" style="mix-blend-mode: normal"><text transform="translate(163.6034,187.68998) scale(0.5,0.5)" font-size="40" xml:space="preserve" fill="#000000" fill-rule="nonzero" stroke="none" stroke-width="1" stroke-linecap="butt" stroke-linejoin="miter" stroke-miterlimit="10" stroke-dasharray="" stroke-dashoffset="0" font-family="Sans Serif" font-weight="normal" text-anchor="start" style="mix-blend-mode: normal"><tspan x="0" dy="0">Пар-&gt;</tspan></text><g stroke="#d5d5d5" stroke-width="0"><g fill="#ffffff"><path d="M234.18558,173.9348c2.12565,-0.42762 4.19551,0.94891 4.62312,3.07458c0.42762,2.12565 -0.94891,4.19551 -3.07458,4.62312c-2.12565,0.42762 -4.19551,-0.94891 -4.62312,-3.07458c-0.42762,-2.12565 0.94891,-4.19551 3.07458,-4.62312z"/><path d="M235.75558,177.31552c2.12565,-0.42762 4.19551,0.94891 4.62312,3.07458c0.42762,2.12565 -0.94891,4.19551 -3.07458,4.62312c-2.12565,0.42762 -4.19551,-0.94891 -4.62312,-3.07458c-0.42762,-2.12565 0.94891,-4.19551 3.07458,-4.62312z"/><path d="M232.56073,180.31992c2.12565,-0.42762 4.19551,0.94891 4.62312,3.07458c0.42762,2.12565 -0.94891,4.19551 -3.07458,4.62312c-2.12565,0.42762 -4.19551,-0.94891 -4.62312,-3.07458c-0.42762,-2.12565 0.94891,-4.19551 3.07458,-4.62312z"/><path d="M230.19514,171.70271c2.12565,-0.42762 4.19551,0.94891 4.62312,3.07458c0.42762,2.12565 -0.94891,4.19551 -3.07458,4.62312c-2.12565,0.42762 -4.19551,-0.94891 -4.62312,-3.07458c-0.42762,-2.12565 0.94891,-4.19551 3.07458,-4.62312z"/><path d="M225.99521,173.28388c2.12565,-0.42762 4.19551,0.94891 4.62312,3.07458c0.42762,2.12565 -0.94891,4.19551 -3.07458,4.62312c-2.12565,0.42762 -4.19551,-0.94891 -4.62312,-3.07458c-0.42762,-2.12565 0.94891,-4.19551 3.07458,-4.62312z"/><path d="M225.33757,177.8338c2.12565,-0.42762 4.19551,0.94891 4.62312,3.07458c0.42762,2.12565 -0.94891,4.19551 -3.07458,4.62312c-2.12565,0.42762 -4.19551,-0.94891 -4.62312,-3.07458c-0.42762,-2.12565 0.94891,-4.19551 3.07458,-4.62312z"/><path d="M228.99649,180.59958c2.12565,-0.42762 4.19551,0.94891 4.62312,3.07458c0.42762,2.12565 -0.94891,4.19551 -3.07458,4.62312c-2.12565,0.42762 -4.19551,-0.94891 -4.62312,-3.07458c-0.42762,-2.12565 0.94891,-4.19551 3.07458,-4.62312z"/></g><g fill="#d7d7d7"><path d="M233.12437,176.01576c1.40605,-0.28286 2.77516,0.62768 3.05802,2.03371c0.28286,1.40605 -0.62768,2.77518 -2.03371,3.05802c-1.40605,0.28286 -2.77518,-0.62768 -3.05802,-2.03371c-0.28286,-1.40605 0.62768,-2.77516 2.03371,-3.05802z"/><path d="M234.16289,178.25197c1.40605,-0.28286 2.77516,0.62768 3.05802,2.03371c0.28286,1.40605 -0.62768,2.77518 -2.03371,3.05802c-1.40605,0.28286 -2.77518,-0.62768 -3.05802,-2.03371c-0.28286,-1.40605 0.62768,-2.77518 2.03371,-3.05802z"/><path d="M231.50205,179.68009c1.40605,-0.28286 2.77518,0.62768 3.05802,2.03371c0.28286,1.40605 -0.62768,2.77516 -2.03371,3.05802c-1.40605,0.28286 -2.77518,-0.62768 -3.05802,-2.03371c-0.28286,-1.40605 0.62768,-2.77518 2.03371,-3.05802z"/><path d="M230.4917,174.90607c1.40605,-0.28286 2.77516,0.62768 3.05802,2.03371c0.28286,1.40605 -0.62768,2.77518 -2.03371,3.05802c-1.40605,0.28286 -2.77518,-0.62768 -3.05802,-2.03371c-0.28286,-1.40605 0.62768,-2.77518 2.03371,-3.05802z"/><path d="M227.70676,175.5852c1.40605,-0.28286 2.77516,0.62768 3.05802,2.03371c0.28286,1.40605 -0.62768,2.77518 -2.03371,3.05802c-1.40605,0.28286 -2.77518,-0.62768 -3.05802,-2.03371c-0.28286,-1.40605 0.62768,-2.77518 2.03371,-3.05802z"/><path d="M227.68343,178.47852c1.40605,-0.28286 2.77518,0.62768 3.05802,2.03371c0.28286,1.40605 -0.62768,2.77518 -2.03371,3.05802c-1.40605,0.28286 -2.77516,-0.62768 -3.05802,-2.03371c-0.28286,-1.40605 0.62768,-2.77516 2.03371,-3.05802z"/><path d="M229.82028,180.0638c1.40605,-0.28286 2.77516,0.62768 3.05802,2.03371c0.28286,1.40605 -0.62768,2.77518 -2.03371,3.05802c-1.40605,0.28286 -2.77518,-0.62768 -3.05802,-2.03371c-0.28286,-1.40605 0.62768,-2.77518 2.03371,-3.05802z"/></g></g></g></g></svg>