<svg version="1.1" xmlns="http://www.w3.org/2000/svg" xmlns:xlink="http://www.w3.org/1999/xlink" width="629.20304" height="454.40541" viewBox="0,0,629.20304,454.40541"><g transform="translate(86.64159,25.25)"><g data-paper-data="{&quot;isPaintingLayer&quot;:true}" fill-rule="nonzero" stroke-width="0.5" stroke-linecap="butt" stroke-linejoin="miter" stroke-miterlimit="10" stroke-dasharray="" stroke-dashoffset="0" style="mix-blend-mode: normal"><path d="M-12,385v-410h504v410z" fill="#b35c3d" stroke="#191919"/><path d="M137.36239,134.56268c4.70398,2.69977 8.10104,5.50808 12.73032,8.42382c5.73861,3.61445 12.74023,6.76478 18.01638,11.32827c5.31812,4.5998 11.85435,9.07534 16.3909,14.68523c4.17682,5.16505 7.53688,11.19176 11.35983,16.59511c3.43399,4.85359 7.63314,10.24355 9.44978,16.05761c3.17884,10.17371 2.15062,21.61118 -1,31.69456c-1.82803,5.85052 -5.93985,10.77791 -9.21305,15.82727c-2.38827,3.68422 -3.02577,8.37504 -5.51572,12.10997c-10.80151,16.20227 -25.06861,16.50179 -43.32154,15.59141c-10.3816,-0.51779 -21.95064,-1.86247 -32.01582,-4.50433c-5.852,-1.536 -14.93674,4.85218 -22.27134,6.22515c-3.68298,0.68942 -18.4066,4.3651 -26.47214,4.40325c-14.99983,0.07095 -30.00013,0.06182 -45,0c-9.68543,-0.03992 -21.75185,-5.16552 -28.77648,-11.57638c-1.36194,-1.24294 -2.9738,-2.93212 -4.18666,-4.4482c-1.57695,-1.97119 -2.16049,-5.57255 -4.65248,-5.97542c-9.99831,-1.61641 -20.25649,0.06937 -30.38438,0c-16.52007,-0.11315 -31.29982,-6.38187 -37.3068,-22.37087c-1.36286,-3.62759 -1.08008,-7.67594 -1.50015,-11.52826c-1.55437,-14.25447 2.64681,-28.75301 5.59767,-42.52999c2.77425,-12.95241 2.73049,-27.26907 12.40967,-37.3469c8.10659,-8.44048 25.31188,-12.42517 35.69871,-17.12438c4.64565,-2.10179 12.95508,-7.11512 19.45826,-9.55817c16.63431,-6.24901 33.3003,-12.24199 50.29049,-17.4359c7.45213,-2.27812 15.48591,-4.97422 23.35215,-5.10552c14.23646,-0.23764 27.9279,2.8448 41.78754,5.55973c0.73862,0.14469 1.53313,0.29823 2.3674,0.46648c4.05135,0.18422 7.85137,1.33273 11.17593,3.2214c4.34857,1.89511 8.06453,4.71538 9.26141,9.14384l3.40772,12.60856c0,0.05068 -0.00015,0.10132 -0.00045,0.15193c0.08914,3.08085 6.18707,3.87503 8.86285,5.41075z" fill="#b35634" stroke="none"/><path d="M528.28939,41.64853c-0.02554,1.0652 1.39506,1.61514 2.01187,2.48396c1.84243,2.59522 3.9887,5.73108 5.55942,8.68717c3.97741,7.48543 6.51085,15.5581 6.63932,24.18034c0.2002,13.43655 0.33287,27.33982 -6.80004,39.24997c-3.9167,6.53989 -6.80999,10.27137 -10.83743,16.77562c-2.69629,4.35447 -4.17121,9.27398 -7.0192,13.50536c-6.52612,9.69616 -15.15037,18.27288 -25.94271,23.11208c-5.46479,2.45037 -12.49222,3.34212 -18.40063,3.35696c-20.29614,0.05101 -40.60525,0.63463 -60.88855,-0.08886c-24.18764,-0.86275 -42.04783,-0.19851 -62.97384,-13.47382c-5.93969,-3.7681 -11.11864,-9.29301 -15.3012,-14.798c-2.79949,-3.68463 -3.51113,-8.51976 -7.48806,-11.36083c-21.48792,-15.3507 -38.44843,-37.54022 -30.10657,-64.79029c5.70329,-18.63074 21.6667,-27.66991 36.58077,-37.98556c3.24902,-2.24726 6.82343,-4.02453 9.94692,-6.44323c8.25165,-6.38973 15.13633,-15.60135 24.74257,-20.17066c29.78148,-14.16586 69.48935,-9.94084 100.48796,-9.88876c5.0406,0.00847 12.46909,0.80731 15.78118,1.06353c6.6182,0.51197 13.12209,2.27305 19.69431,2.93647c3.92908,0.39661 8.34464,-0.06204 12.08056,1.6196c3.76087,1.69287 7.34869,3.74677 11.00601,5.65307c3.40675,1.7757 7.36969,7.84162 7.44338,11.72275c0.64742,2.22254 0.99456,4.57302 0.99456,7.00458c0,6.84536 -2.75124,13.04814 -7.20828,17.56289c-0.00087,0.02853 -0.00164,0.05708 -0.00233,0.08565z" fill="#b35634" stroke="none"/><path d="M524.2996,353.22398c2.04256,2.04614 3.77047,4.87303 5.31164,7.28806c3.75823,5.88919 5.25558,19.95443 3.24598,26.2703c-5.07746,15.95772 -22.53904,17.48226 -36.41835,20.76592c-7.24188,1.71333 -14.40349,3.74978 -21.60242,5.63541c-11.51836,3.01703 -24.45483,8.11077 -36.41542,9.64509c-26.6728,3.42162 -53.46664,5.5038 -80.35443,6.11457c-17.46514,0.39673 -35.0971,0.12862 -52.5666,0.05666c-18.57497,-0.07652 -41.04929,-9.41094 -43.13485,-30.26656c-0.43041,-4.30415 0.58141,-8.58409 1.13485,-12.81108c4.73258,-36.14557 29.6816,-59.87336 64.7221,-69.00701c8.74732,-2.28007 18.08752,-4.88757 27.2779,-4.91535c24.99989,-0.07557 50.00001,-0.01963 75,0c7.16012,0.00562 19.11491,0.86447 22.18913,1.0283c16.58392,0.88379 37.11754,4.3745 52.12928,12.76612c4.29516,1.72637 8.00029,4.61064 10.72897,8.26642c3.15817,3.45924 5.37688,7.5484 4.76503,11.86124c0.12383,1.00863 0.18759,2.03583 0.18759,3.07793c0,0.42403 -0.01056,0.84559 -0.03142,1.26444c0.98835,1.27559 2.69098,1.8175 3.83102,2.95953z" fill="#b35634" stroke="none"/></g></g></svg>