<svg version="1.1" xmlns="http://www.w3.org/2000/svg" xmlns:xlink="http://www.w3.org/1999/xlink" width="21.51609" height="21.51609" viewBox="0,0,21.51609,21.51609"><g transform="translate(-229.242,-169.24202)"><g data-paper-data="{&quot;isPaintingLayer&quot;:true}" fill-rule="nonzero" stroke-linejoin="miter" stroke-miterlimit="10" stroke-dasharray="" stroke-dashoffset="0" style="mix-blend-mode: normal"><path d="M229.99201,190.00811v-20.01609h20.01609v20.01609z" fill="#571b17" stroke="#380d09" stroke-width="1.5" stroke-linecap="butt"/><g fill="#3f0e0b" stroke-opacity="0.3451" stroke="#370c09" stroke-width="2.5" stroke-linecap="round"><path d="M243.83569,175.464l-2.60274,2.43066l-2.65007,-0.48183l-3.32372,-3.52769l6.17597,-1.20027z"/><path d="M233.22151,180.24157l3.92277,0.59734l1.41297,3.77216l-4.70026,3.16533l-2.07186,-2.04338z"/><path d="M246.16643,187.91307l-3.92367,-1.65034l-1.82472,-4.28514l3.16128,-1.91003l4.61492,1.92726z"/></g><g fill="#3f0e0b" stroke="#380d09" stroke-width="0.5" stroke-linecap="round"><path d="M243.83569,175.464l-2.60274,2.43066l-2.65007,-0.48183l-3.32372,-3.52769l6.17597,-1.20027z"/><path d="M233.22151,180.24157l3.92277,0.59734l1.41297,3.77216l-4.70026,3.16533l-2.07186,-2.04338z"/><path d="M246.16643,187.91307l-3.92367,-1.65034l-1.82472,-4.28514l3.16128,-1.91003l4.61492,1.92726z"/></g></g></g></svg>