<svg version="1.1" xmlns="http://www.w3.org/2000/svg" xmlns:xlink="http://www.w3.org/1999/xlink" width="21.51609" height="21.51609" viewBox="0,0,21.51609,21.51609"><g transform="translate(-229.24199,-169.242)"><g data-paper-data="{&quot;isPaintingLayer&quot;:true}" fill-rule="nonzero" stroke-linejoin="miter" stroke-miterlimit="10" stroke-dasharray="" stroke-dashoffset="0" style="mix-blend-mode: normal"><path d="M229.99199,190.0081v-20.01609h20.01609v20.01609z" fill="#ffffff" stroke="#380d09" stroke-width="1.5" stroke-linecap="butt"/><path d="M230.14682,182.13081l10.65789,0.13158l5.59211,-0.13158l3.02632,-1.18421l0.26316,3.02632l-3.02632,2.30263l-2.43421,0.92105l-4.21053,-0.46053l-6.18421,-0.46053l-3.94737,-0.52632z" fill="#c0ffff" stroke="#9bcfcf" stroke-width="0.5" stroke-linecap="round"/><path d="M230.73894,176.93344l4.53947,-1.25l4.40789,-0.85526l6.25,-0.19737l4.01316,0.78947l-2.10526,2.23684l-6.71053,1.18421l-7.82895,0.13158l-3.28947,0.19737z" fill="#c0ffff" stroke="#9bcfcf" stroke-width="0.5" stroke-linecap="round"/><path d="M230.01526,172.1966l1.11842,-0.32895l1.90789,-1.57895l2.43421,0.13158l-2.43421,2.03947l-2.5,1.25z" fill="#c0ffff" stroke="#9bcfcf" stroke-width="0.5" stroke-linecap="round"/><path d="M229.992,190.0081v-20.01609h20.01609v20.01609z" fill="none" stroke="#51b1c5" stroke-width="1.5" stroke-linecap="butt"/></g></g></svg>