<svg version="1.1" xmlns="http://www.w3.org/2000/svg" xmlns:xlink="http://www.w3.org/1999/xlink" width="21.56509" height="31.65123" viewBox="0,0,21.56509,31.65123"><g transform="translate(-229.22383,-159.10687)"><g data-paper-data="{&quot;isPaintingLayer&quot;:true}" fill-rule="nonzero" stroke-linejoin="miter" stroke-miterlimit="10" stroke-dasharray="" stroke-dashoffset="0" style="mix-blend-mode: normal"><path d="M229.99204,190.0081v-30.15123h20.01609v30.15123z" fill="#4c3534" stroke="#241918" stroke-width="1.5" stroke-linecap="butt"/><path d="M229.99204,169.99201h20.01609z" fill="#57140f" stroke="#241918" stroke-width="1.5" stroke-linecap="butt"/><path d="M229.99204,190.0081l9.9274,-8.15123l10.08869,8.15123" fill="none" stroke="#241918" stroke-width="1.5" stroke-linecap="butt"/><g stroke="#160404" stroke-width="0.25" stroke-linecap="round"><path d="M243.59398,169.44192l1.21041,0.4798l-0.14176,0.74151l-0.27262,0.56704l-1.26494,0.25081z" fill="#505356"/><path d="M236.79002,170.18776l-0.38566,-0.37745l0.17231,-0.34463l0.36924,-0.40207l0.68926,0.04103l0.39386,0.1559z" fill="#505356"/><path d="M238.7244,169.53609l2.01074,-2.47266l1.68467,-0.10869l0.92385,-0.35324l0.4891,2.36398l-0.40758,2.71722l-1.19557,0.76082h-2.55418z" fill="#57140f"/><path d="M240.43019,169.98885l0.67089,-0.23679l0.59196,0.34531l-0.0592,0.76955l-0.74982,0.60183z" fill="#505356"/><path d="M235.63049,172.48031l0.83153,-2.03846l1.86082,-1.47696l1.97574,0.69912l0.87644,1.0209l-0.59252,1.74103z" fill="#57140f"/><path d="M238.48426,171.43163l-0.67089,0.5525l-1.15433,-0.27625l-0.01973,-0.30585l0.23679,-0.47357l0.84848,-0.37491z" fill="#505356"/><path d="M241.67926,168.40188l-1.04473,0.48647l-0.1543,-0.59024l0.04796,-0.47852l0.98224,-0.57449l0.58056,0.09844l0.74323,0.90025z" fill="#505356"/><path d="M239.62539,169.91361l-0.19628,0.41438l-0.89418,-0.05452l-0.04362,-0.69789l0.7088,-0.04362z" fill="#505356"/></g><path d="M232.31133,169.92857c0,-4.24634 3.44234,-7.68868 7.68868,-7.68868c4.24634,0 7.68868,3.44234 7.68868,7.68868c0,4.24634 -3.44234,7.68868 -7.68868,7.68868c-4.24634,0 -7.68868,-3.44234 -7.68868,-7.68868z" fill="#4c3534" stroke="#241918" stroke-width="1" stroke-linecap="butt"/><g stroke="#160404" stroke-width="0.25" stroke-linecap="round"><path d="M244.81772,168.45752l1.64024,0.65019l-0.1921,1.00483l-0.36942,0.7684l-1.71412,0.33987z" fill="#505356"/><path d="M235.59762,169.46822l-0.52261,-0.51148l0.2335,-0.46701l0.50037,-0.54484l0.93402,0.0556l0.53373,0.21127z" fill="#505356"/><path d="M238.21891,168.58513l2.72477,-3.35073l2.28291,-0.14729l1.25192,-0.47867l0.66278,3.20345l-0.55232,3.68212l-1.62013,1.03099h-3.46119z" fill="#57140f"/><path d="M240.53044,169.19868l0.90913,-0.32087l0.80217,0.46794l-0.08022,1.04283l-1.01609,0.81555z" fill="#505356"/><path d="M234.02633,172.57488l1.12682,-2.76233l2.52162,-2.00144l2.67733,0.94738l1.18767,1.38343l-0.80293,2.35929z" fill="#57140f"/><path d="M237.89349,171.15381l-0.90913,0.7487l-1.56424,-0.37435l-0.02674,-0.41446l0.32087,-0.64174l1.14978,-0.50804z" fill="#505356"/><path d="M242.22307,167.04816l-1.41572,0.65922l-0.2091,-0.79984l0.06499,-0.64845l1.33104,-0.77849l0.78673,0.1334l1.00716,1.21993z" fill="#505356"/><path d="M239.43985,169.09672l-0.26599,0.56152l-1.21171,-0.07388l-0.05911,-0.94572l0.9605,-0.05911z" fill="#505356"/></g><path d="M230.22123,173.84005l2.94271,2.94271v4.66146l-3.1901,3.1901" fill="none" stroke="#241918" stroke-width="1.5" stroke-linecap="round"/><path d="M250.03893,184.63432l-3.19011,-3.1901v-4.66146l2.94271,-2.94271" data-paper-data="{&quot;index&quot;:null}" fill="none" stroke="#241918" stroke-width="1.5" stroke-linecap="round"/></g></g></svg>