<svg version="1.1" xmlns="http://www.w3.org/2000/svg" xmlns:xlink="http://www.w3.org/1999/xlink" width="30.9386" height="28.36289" viewBox="0,0,30.9386,28.36289"><g transform="translate(-224.0307,-165.69356)"><g data-paper-data="{&quot;isPaintingLayer&quot;:true}" fill-rule="nonzero" stroke="#d5d5d5" stroke-width="0" stroke-linecap="butt" stroke-linejoin="miter" stroke-miterlimit="10" stroke-dasharray="" stroke-dashoffset="0" style="mix-blend-mode: normal"><g><g fill="#ffffff"><path d="M244.35076,169.60494c3.59933,-0.72408 7.10414,1.60678 7.82822,5.20611c0.72408,3.59933 -1.60678,7.10414 -5.20611,7.82822c-3.59933,0.72408 -7.10414,-1.60678 -7.82822,-5.20611c-0.72408,-3.59933 1.60678,-7.10414 5.20611,-7.82822z"/><path d="M247.00923,175.32944c3.59933,-0.72408 7.10414,1.60678 7.82822,5.20611c0.72408,3.59933 -1.60678,7.10414 -5.20611,7.82822c-3.59933,0.72408 -7.10414,-1.60678 -7.82822,-5.20611c-0.72408,-3.59933 1.60678,-7.10414 5.20611,-7.82822z"/><path d="M241.59946,180.41671c3.59933,-0.72408 7.10414,1.60678 7.82822,5.20611c0.72408,3.59933 -1.60678,7.10414 -5.20611,7.82822c-3.59933,0.72408 -7.10414,-1.60678 -7.82822,-5.20611c-0.72408,-3.59933 1.60678,-7.10414 5.20611,-7.82822z"/><path d="M237.59388,165.82541c3.59933,-0.72408 7.10414,1.60678 7.82822,5.20611c0.72408,3.59933 -1.60678,7.10414 -5.20611,7.82822c-3.59933,0.72408 -7.10414,-1.60678 -7.82822,-5.20611c-0.72408,-3.59933 1.60678,-7.10414 5.20611,-7.82822z"/><path d="M230.48222,168.50277c3.59933,-0.72408 7.10414,1.60678 7.82822,5.20611c0.72408,3.59933 -1.60678,7.10414 -5.20611,7.82822c-3.59933,0.72408 -7.10414,-1.60678 -7.82822,-5.20611c-0.72408,-3.59933 1.60678,-7.10414 5.20611,-7.82822z"/><path d="M229.36866,176.20703c3.59933,-0.72408 7.10414,1.60678 7.82822,5.20611c0.72408,3.59933 -1.60678,7.10414 -5.20611,7.82822c-3.59933,0.72408 -7.10414,-1.60678 -7.82822,-5.20611c-0.72408,-3.59933 1.60678,-7.10414 5.20611,-7.82822z"/><path d="M235.56422,180.89026c3.59933,-0.72408 7.10414,1.60678 7.82822,5.20611c0.72408,3.59933 -1.60678,7.10414 -5.20611,7.82822c-3.59933,0.72408 -7.10414,-1.60678 -7.82822,-5.20611c-0.72408,-3.59933 1.60678,-7.10414 5.20611,-7.82822z"/></g><g fill="#d7d7d7"><path d="M242.55387,173.12857c2.38082,-0.47895 4.69913,1.06282 5.17808,3.44365c0.47895,2.38082 -1.06282,4.69913 -3.44365,5.17808c-2.38082,0.47895 -4.69913,-1.06282 -5.17808,-3.44365c-0.47895,-2.38082 1.06282,-4.69913 3.44365,-5.17808z"/><path d="M244.31234,176.91512c2.38082,-0.47895 4.69913,1.06282 5.17808,3.44365c0.47895,2.38082 -1.06282,4.69913 -3.44365,5.17808c-2.38082,0.47895 -4.69913,-1.06282 -5.17808,-3.44365c-0.47895,-2.38082 1.06282,-4.69913 3.44365,-5.17808z"/><path d="M239.80682,179.33331c2.38082,-0.47895 4.69913,1.06282 5.17808,3.44365c0.47895,2.38082 -1.06282,4.69913 -3.44365,5.17808c-2.38082,0.47895 -4.69913,-1.06282 -5.17808,-3.44365c-0.47895,-2.38082 1.06282,-4.69913 3.44365,-5.17808z"/><path d="M238.09603,171.24958c2.38082,-0.47895 4.69913,1.06282 5.17808,3.44365c0.47895,2.38082 -1.06282,4.69913 -3.44365,5.17808c-2.38082,0.47895 -4.69913,-1.06282 -5.17808,-3.44365c-0.47895,-2.38082 1.06282,-4.69913 3.44365,-5.17808z"/><path d="M233.38034,172.39953c2.38082,-0.47895 4.69913,1.06282 5.17808,3.44365c0.47895,2.38082 -1.06282,4.69913 -3.44365,5.17808c-2.38082,0.47895 -4.69913,-1.06282 -5.17808,-3.44365c-0.47895,-2.38082 1.06282,-4.69913 3.44365,-5.17808z"/><path d="M233.34084,177.29871c2.38082,-0.47895 4.69913,1.06282 5.17808,3.44365c0.47895,2.38082 -1.06282,4.69913 -3.44365,5.17808c-2.38082,0.47895 -4.69913,-1.06282 -5.17808,-3.44365c-0.47895,-2.38082 1.06282,-4.69913 3.44365,-5.17808z"/><path d="M236.95911,179.98302c2.38082,-0.47895 4.69913,1.06282 5.17808,3.44365c0.47895,2.38082 -1.06282,4.69913 -3.44365,5.17808c-2.38082,0.47895 -4.69913,-1.06282 -5.17808,-3.44365c-0.47895,-2.38082 1.06282,-4.69913 3.44365,-5.17808z"/></g></g></g></g></svg>