<svg version="1.1" xmlns="http://www.w3.org/2000/svg" xmlns:xlink="http://www.w3.org/1999/xlink" width="41.55132" height="39.44535" viewBox="0,0,41.55132,39.44535"><g transform="translate(-209.20685,-151.31275)"><g data-paper-data="{&quot;isPaintingLayer&quot;:true}" fill-rule="nonzero" stroke-linejoin="miter" stroke-miterlimit="10" stroke-dasharray="" stroke-dashoffset="0" style="mix-blend-mode: normal"><path d="M209.95685,169.76488l4.71354,-4.71354h16.79007" fill="none" stroke="#241918" stroke-width="1.5" stroke-linecap="round"/><path d="M244.18325,182.21398v-30.15123h4.13374v30.15123z" fill="#4c3534" stroke="#241918" stroke-width="1.5" stroke-linecap="butt"/><path d="M229.99208,190.0081v-30.15123h20.01609v30.15123z" fill="#4c3534" stroke="#241918" stroke-width="1.5" stroke-linecap="butt"/><path d="M209.99208,190.0081v-20.0777h20.01609v20.0777z" fill="#4c3534" stroke="#241918" stroke-width="1.5" stroke-linecap="butt"/><path d="M209.88791,182.53797v-5.3125h39.85417v5.3125z" fill="none" stroke="#241918" stroke-width="1" stroke-linecap="butt"/><path d="M250.00817,169.99201h-20.01609z" fill="#57140f" stroke="#241918" stroke-width="1.5" stroke-linecap="butt"/><path d="M232.31135,169.92857c0,-4.24634 3.44234,-7.68868 7.68868,-7.68868c4.24634,0 7.68868,3.44234 7.68868,7.68868c0,4.24634 -3.44234,7.68868 -7.68868,7.68868c-4.24634,0 -7.68868,-3.44234 -7.68868,-7.68868z" fill="#4c3534" stroke="#241918" stroke-width="1" stroke-linecap="butt"/><g stroke="none" stroke-linecap="butt"><path d="M236.55513,171.4662c0,-1.90255 3.44487,-6.62727 3.44487,-6.62727c0,0 3.44487,4.72472 3.44487,6.62727c0,1.90255 -1.54232,3.44487 -3.44487,3.44487c-1.90255,0 -3.44487,-1.54232 -3.44487,-3.44487z" fill="#31b8ff" stroke-width="NaN"/><path d="M241.35587,174.01786c-0.22067,0.10106 -0.74513,-0.68466 -0.7941,-0.88369c-0.0264,-0.1073 0.45151,-0.38317 0.72294,-0.73604c0.31911,-0.41485 0.44839,-0.90884 0.54536,-0.9582c0.22986,-0.117 1.21349,0.1801 1.26233,0.37953c0.03191,0.13031 -0.16783,0.88073 -0.63623,1.43856c-0.36998,0.44063 -1.01503,0.72079 -1.1003,0.75984z" fill="#5ec7ff" stroke-width="0"/></g></g></g></svg>