<svg version="1.1" xmlns="http://www.w3.org/2000/svg" xmlns:xlink="http://www.w3.org/1999/xlink" width="23.71342" height="7.25" viewBox="0,0,23.71342,7.25"><g transform="translate(-228.14329,-176.375)"><g data-paper-data="{&quot;isPaintingLayer&quot;:true}" fill-rule="nonzero" stroke="#000000" stroke-width="0.5" stroke-linecap="butt" stroke-linejoin="miter" stroke-miterlimit="10" stroke-dasharray="" stroke-dashoffset="0" style="mix-blend-mode: normal"><path d="M236.62501,180c0,-1.86396 1.51104,-3.375 3.375,-3.375c1.86396,0 3.375,1.51104 3.375,3.375c0,1.86396 -1.51104,3.375 -3.375,3.375c-1.86396,0 -3.375,-1.51104 -3.375,-3.375z" fill="#fffd00"/><path d="M228.3933,180c0,-1.86396 1.51104,-3.375 3.375,-3.375c1.86396,0 3.375,1.51104 3.375,3.375c0,1.86396 -1.51104,3.375 -3.375,3.375c-1.86396,0 -3.375,-1.51104 -3.375,-3.375z" fill="#6c6c6c"/><path d="M244.85672,180c0,-1.86396 1.51104,-3.375 3.375,-3.375c1.86396,0 3.375,1.51104 3.375,3.375c0,1.86396 -1.51104,3.375 -3.375,3.375c-1.86396,0 -3.375,-1.51104 -3.375,-3.375z" fill="#6c6c6c"/></g></g></svg>