<svg version="1.1" xmlns="http://www.w3.org/2000/svg" xmlns:xlink="http://www.w3.org/1999/xlink" width="41.39109" height="27.67658" viewBox="0,0,41.39109,27.67658"><g transform="translate(-209.24208,-163.08152)"><g data-paper-data="{&quot;isPaintingLayer&quot;:true}" fill-rule="nonzero" stroke-linejoin="miter" stroke-miterlimit="10" stroke-dasharray="" stroke-dashoffset="0" style="mix-blend-mode: normal"><path d="M209.75158,183.26902c0,-10.87311 8.98659,-19.6875 20.07212,-19.6875c11.08552,0 20.07212,8.81439 20.07212,19.6875c0,0 -40.14423,10.63102 -40.14423,0z" fill-opacity="0.08235" fill="#0be2ff" stroke="#241918" stroke-width="1" stroke-linecap="butt"/><path d="M209.99208,190.0081v-6.8277h39.89109v6.8277z" fill="#4c3534" stroke="#241918" stroke-width="1.5" stroke-linecap="butt"/><path d="M222.23447,180.67858c0,-4.24634 3.44234,-7.68868 7.68868,-7.68868c4.24634,0 7.68868,3.44234 7.68868,7.68868c0,4.24634 -3.44234,7.68868 -7.68868,7.68868c-4.24634,0 -7.68868,-3.44234 -7.68868,-7.68868z" fill="#4c3534" stroke="#241918" stroke-width="1" stroke-linecap="butt"/><g stroke-width="0.15"><g stroke="#0a9f04"><path d="M229.06595,176.32244c-0.09491,-0.15046 0.20671,-0.51121 0.67368,-0.80577c0.46697,-0.29455 1.01737,-0.26091 1.01737,-0.26091c0,0 -0.20671,0.51121 -0.67368,0.80576c-0.46697,0.29455 -0.92246,0.41138 -1.01736,0.26092z" fill="#2dff24" stroke-linecap="butt"/><path d="M230.61402,175.31536l-1.49258,1.00969" fill="none" stroke-linecap="round"/><path d="M229.58234,175.68851l0.40607,0.10975l-0.06585,0.31827" fill="none" stroke-linecap="round"/><path d="M230.06023,175.41106l0.29651,0.06354l-0.08472,0.36005" fill="none" stroke-linecap="round"/><path d="M229.19191,176.05703l0.28592,0.01059l-0.02118,0.2012" fill="none" stroke-linecap="round"/></g><path d="M225.55172,181.50853c0.01481,-0.01481 5.43616,-5.43578 5.45123,-5.45013c0.96681,-0.91982 2.49635,-0.90525 3.44532,0.04373c0.95073,0.95073 0.9636,2.48418 0.03861,3.45069c-0.01269,0.01326 -5.43196,5.43282 -5.44501,5.44586c-0.96378,0.96378 -2.52638,0.96378 -3.49015,0c-0.96378,-0.96378 -0.96378,-2.52638 0,-3.49015z" fill="#642200" stroke="#1a0900" stroke-linecap="butt"/><path d="M224.84101,183.24153c0,-0.02093 0.00026,-0.04181 0.00078,-0.06263c0.03323,-1.33405 1.12508,-2.40528 2.46713,-2.40528c1.36299,0 2.46791,1.10492 2.46791,2.46791c0,1.36299 -1.10492,2.46791 -2.46791,2.46791c-1.36299,0 -2.46791,-1.10492 -2.46791,-2.46791z" fill="#642200" stroke="#1a0900" stroke-linecap="butt"/><path d="M225.13947,183.24153c0,-0.0184 0.00023,-0.03675 0.00068,-0.05504c0.0292,-1.17269 0.989,-2.11437 2.16873,-2.11437c1.19814,0 2.16942,0.97128 2.16942,2.16942c0,1.19814 -0.97128,2.16942 -2.16942,2.16942c-1.19814,0 -2.16942,-0.97128 -2.16942,-2.16942z" fill="#b0643e" stroke="#512e1c" stroke-linecap="butt"/><path d="M225.9799,183.24153c0,-0.73398 0.59501,-1.32898 1.32899,-1.32898c0.73398,0 1.32899,0.595 1.32899,1.32898c0,0.73398 -0.59501,1.32898 -1.32899,1.32898c-0.73398,0 -1.32899,-0.595 -1.32899,-1.32898z" fill="none" stroke="#512e1c" stroke-linecap="butt"/><path d="M225.71925,183.24153c0,-0.87793 0.71171,-1.58964 1.58964,-1.58964c0.87793,0 1.58964,0.71171 1.58964,1.58964c0,0.87793 -0.71171,1.58964 -1.58964,1.58964c-0.87793,0 -1.58964,-0.7117 -1.58964,-1.58964z" fill="none" stroke="#512e1c" stroke-linecap="butt"/><path d="M225.45177,183.24153c0,-1.02568 0.83148,-1.85715 1.85715,-1.85715c1.02568,0 1.85715,0.83148 1.85715,1.85715c0,1.02568 -0.83148,1.85715 -1.85715,1.85715c-1.02568,0 -1.85715,-0.83147 -1.85715,-1.85715z" fill="none" stroke="#512e1c" stroke-linecap="butt"/><path d="M226.65379,183.24153c0,-0.36181 0.2933,-0.65511 0.65511,-0.65511c0.36181,0 0.65511,0.2933 0.65511,0.65511c0,0.36181 -0.2933,0.65511 -0.65511,0.65511c-0.36181,0 -0.65511,-0.2933 -0.65511,-0.65511z" fill="none" stroke="#512e1c" stroke-linecap="butt"/><path d="M226.33662,183.24153c0,-0.53699 0.43532,-0.97231 0.97231,-0.97231c0.53699,0 0.97231,0.43532 0.97231,0.97231c0,0.53699 -0.43532,0.9723 -0.97231,0.9723c-0.53699,0 -0.97231,-0.43531 -0.97231,-0.9723z" fill="none" stroke="#512e1c" stroke-linecap="butt"/><path d="M234.10506,175.91158l-5.3228,5.3228" fill="none" stroke="#1a0900" stroke-linecap="round"/><path d="M230.76059,174.93638c0,0 0.17517,0.79773 0.63073,1.16616c0.03098,0.02506 0.82642,0.40273 0.86723,0.56847c0.08515,0.34577 -0.28416,0.84133 -0.82488,0.97449c-0.54072,0.13316 -0.55178,-0.44159 -0.63693,-0.78737c-0.08515,-0.34577 -0.03615,-1.92175 -0.03615,-1.92175z" fill="#642200" stroke="#1a0900" stroke-linecap="butt"/></g></g></g></svg>