<svg version="1.1" xmlns="http://www.w3.org/2000/svg" xmlns:xlink="http://www.w3.org/1999/xlink" width="48.875" height="48.875" viewBox="0,0,48.875,48.875"><g transform="translate(-215.5625,-155.5625)"><g data-paper-data="{&quot;isPaintingLayer&quot;:true}" fill-rule="nonzero" stroke-linecap="butt" stroke-linejoin="miter" stroke-miterlimit="10" stroke-dasharray="" stroke-dashoffset="0" style="mix-blend-mode: normal"><path d="M215.5625,204.4375v-48.875h48.875v48.875z" fill="none" stroke="#b0b0b0" stroke-width="0"/><g stroke="#d5d5d5" stroke-width="0"><g fill="#ffffff"><path d="M241.70188,176.39678c1.26281,-0.25404 2.49247,0.56373 2.74651,1.82655c0.25404,1.26281 -0.56373,2.49247 -1.82655,2.74651c-1.26281,0.25404 -2.49247,-0.56373 -2.74651,-1.82655c-0.25404,-1.26281 0.56373,-2.49247 1.82655,-2.74651z"/><path d="M242.63459,178.4052c1.26281,-0.25404 2.49247,0.56373 2.74651,1.82655c0.25404,1.26281 -0.56373,2.49247 -1.82655,2.74651c-1.26281,0.25404 -2.49247,-0.56373 -2.74651,-1.82655c-0.25404,-1.26281 0.56373,-2.49247 1.82655,-2.74651z"/><path d="M240.73659,180.19006c1.26281,-0.25404 2.49247,0.56373 2.74651,1.82655c0.25404,1.26281 -0.56373,2.49247 -1.82655,2.74651c-1.26281,0.25404 -2.49247,-0.56373 -2.74651,-1.82655c-0.25404,-1.26281 0.56373,-2.49247 1.82655,-2.74651z"/><path d="M239.33124,175.07074c1.26281,-0.25404 2.49247,0.56373 2.74651,1.82655c0.25404,1.26281 -0.56373,2.49247 -1.82655,2.74651c-1.26281,0.25404 -2.49247,-0.56373 -2.74651,-1.82655c-0.25404,-1.26281 0.56373,-2.49247 1.82655,-2.74651z"/><path d="M236.83614,176.01008c1.26281,-0.25404 2.49247,0.56373 2.74651,1.82655c0.25404,1.26281 -0.56373,2.49247 -1.82655,2.74651c-1.26281,0.25404 -2.49247,-0.56373 -2.74651,-1.82655c-0.25404,-1.26281 0.56373,-2.49247 1.82655,-2.74651z"/><path d="M236.44545,178.7131c1.26281,-0.25404 2.49247,0.56373 2.74651,1.82655c0.25404,1.26281 -0.56373,2.49247 -1.82655,2.74651c-1.26281,0.25404 -2.49247,-0.56373 -2.74651,-1.82655c-0.25404,-1.26281 0.56373,-2.49247 1.82655,-2.74651z"/><path d="M238.61914,180.3562c1.26281,-0.25404 2.49247,0.56373 2.74651,1.82655c0.25404,1.26281 -0.56373,2.49247 -1.82655,2.74651c-1.26281,0.25404 -2.49247,-0.56373 -2.74651,-1.82655c-0.25404,-1.26281 0.56373,-2.49247 1.82655,-2.74651z"/></g><g fill="#d7d7d7"><path d="M241.07144,177.63304c0.83531,-0.16804 1.64867,0.37289 1.81671,1.20819c0.16804,0.83531 -0.37289,1.64868 -1.20819,1.81671c-0.83531,0.16804 -1.64868,-0.37289 -1.81671,-1.20819c-0.16804,-0.83531 0.37289,-1.64867 1.20819,-1.81671z"/><path d="M241.6884,178.96153c0.83531,-0.16804 1.64867,0.37289 1.81671,1.20819c0.16804,0.83531 -0.37289,1.64868 -1.20819,1.81671c-0.83531,0.16804 -1.64868,-0.37289 -1.81671,-1.20819c-0.16804,-0.83531 0.37289,-1.64868 1.20819,-1.81671z"/><path d="M240.10765,179.80995c0.83531,-0.16804 1.64868,0.37289 1.81671,1.20819c0.16804,0.83531 -0.37289,1.64867 -1.20819,1.81671c-0.83531,0.16804 -1.64868,-0.37289 -1.81671,-1.20819c-0.16804,-0.83531 0.37289,-1.64868 1.20819,-1.81671z"/><path d="M239.50742,176.97379c0.83531,-0.16804 1.64867,0.37289 1.81671,1.20819c0.16804,0.83531 -0.37289,1.64868 -1.20819,1.81671c-0.83531,0.16804 -1.64868,-0.37289 -1.81671,-1.20819c-0.16804,-0.83531 0.37289,-1.64868 1.20819,-1.81671z"/><path d="M237.85294,177.37725c0.83531,-0.16804 1.64867,0.37289 1.81671,1.20819c0.16804,0.83531 -0.37289,1.64868 -1.20819,1.81671c-0.83531,0.16804 -1.64868,-0.37289 -1.81671,-1.20819c-0.16804,-0.83531 0.37289,-1.64868 1.20819,-1.81671z"/><path d="M237.83908,179.09612c0.83531,-0.16804 1.64868,0.37289 1.81671,1.20819c0.16804,0.83531 -0.37289,1.64868 -1.20819,1.81671c-0.83531,0.16804 -1.64867,-0.37289 -1.81671,-1.20819c-0.16804,-0.83531 0.37289,-1.64867 1.20819,-1.81671z"/><path d="M239.10854,180.0379c0.83531,-0.16804 1.64867,0.37289 1.81671,1.20819c0.16804,0.83531 -0.37289,1.64868 -1.20819,1.81671c-0.83531,0.16804 -1.64868,-0.37289 -1.81671,-1.20819c-0.16804,-0.83531 0.37289,-1.64868 1.20819,-1.81671z"/></g></g><path d="M232.31132,180c0,-4.24634 3.44234,-7.68868 7.68868,-7.68868c4.24634,0 7.68868,3.44234 7.68868,7.68868c0,4.24634 -3.44234,7.68868 -7.68868,7.68868c-4.24634,0 -7.68868,-3.44234 -7.68868,-7.68868z" fill-opacity="0.15686" fill="#00c8ff" stroke="#000000" stroke-width="1"/></g></g></svg>