<svg version="1.1" xmlns="http://www.w3.org/2000/svg" xmlns:xlink="http://www.w3.org/1999/xlink" width="41.55132" height="39.44535" viewBox="0,0,41.55132,39.44535"><g transform="translate(-209.20685,-151.31275)"><g data-paper-data="{&quot;isPaintingLayer&quot;:true}" fill-rule="nonzero" stroke-linejoin="miter" stroke-miterlimit="10" stroke-dasharray="" stroke-dashoffset="0" style="mix-blend-mode: normal"><path d="M209.95685,169.76488l4.71354,-4.71354h16.79007" fill="none" stroke="#241918" stroke-width="1.5" stroke-linecap="round"/><path d="M244.18325,182.21398v-30.15123h4.13374v30.15123z" fill="#4c3534" stroke="#241918" stroke-width="1.5" stroke-linecap="butt"/><path d="M229.99208,190.0081v-30.15123h20.01609v30.15123z" fill="#4c3534" stroke="#241918" stroke-width="1.5" stroke-linecap="butt"/><path d="M209.99208,190.0081v-20.0777h20.01609v20.0777z" fill="#4c3534" stroke="#241918" stroke-width="1.5" stroke-linecap="butt"/><path d="M209.88791,182.53797v-5.3125h39.85417v5.3125z" fill="none" stroke="#241918" stroke-width="1" stroke-linecap="butt"/><path d="M250.00817,169.99201h-20.01609z" fill="#57140f" stroke="#241918" stroke-width="1.5" stroke-linecap="butt"/><path d="M232.31135,169.92857c0,-4.24634 3.44234,-7.68868 7.68868,-7.68868c4.24634,0 7.68868,3.44234 7.68868,7.68868c0,4.24634 -3.44234,7.68868 -7.68868,7.68868c-4.24634,0 -7.68868,-3.44234 -7.68868,-7.68868z" fill="#4c3534" stroke="#241918" stroke-width="1" stroke-linecap="butt"/><g stroke="#d5d5d5" stroke-width="0" stroke-linecap="butt"><g fill="#ffffff"><path d="M241.70188,166.27178c1.26281,-0.25404 2.49247,0.56373 2.74651,1.82655c0.25404,1.26281 -0.56373,2.49247 -1.82655,2.74651c-1.26281,0.25404 -2.49247,-0.56373 -2.74651,-1.82655c-0.25404,-1.26281 0.56373,-2.49247 1.82655,-2.74651z"/><path d="M242.63459,168.2802c1.26281,-0.25404 2.49247,0.56373 2.74651,1.82655c0.25404,1.26281 -0.56373,2.49247 -1.82655,2.74651c-1.26281,0.25404 -2.49247,-0.56373 -2.74651,-1.82655c-0.25404,-1.26281 0.56373,-2.49247 1.82655,-2.74651z"/><path d="M240.73659,170.06506c1.26281,-0.25404 2.49247,0.56373 2.74651,1.82655c0.25404,1.26281 -0.56373,2.49247 -1.82655,2.74651c-1.26281,0.25404 -2.49247,-0.56373 -2.74651,-1.82655c-0.25404,-1.26281 0.56373,-2.49247 1.82655,-2.74651z"/><path d="M239.33124,164.94574c1.26281,-0.25404 2.49247,0.56373 2.74651,1.82655c0.25404,1.26281 -0.56373,2.49247 -1.82655,2.74651c-1.26281,0.25404 -2.49247,-0.56373 -2.74651,-1.82655c-0.25404,-1.26281 0.56373,-2.49247 1.82655,-2.74651z"/><path d="M236.83614,165.88508c1.26281,-0.25404 2.49247,0.56373 2.74651,1.82655c0.25404,1.26281 -0.56373,2.49247 -1.82655,2.74651c-1.26281,0.25404 -2.49247,-0.56373 -2.74651,-1.82655c-0.25404,-1.26281 0.56373,-2.49247 1.82655,-2.74651z"/><path d="M236.44545,168.5881c1.26281,-0.25404 2.49247,0.56373 2.74651,1.82655c0.25404,1.26281 -0.56373,2.49247 -1.82655,2.74651c-1.26281,0.25404 -2.49247,-0.56373 -2.74651,-1.82655c-0.25404,-1.26281 0.56373,-2.49247 1.82655,-2.74651z"/><path d="M238.61914,170.2312c1.26281,-0.25404 2.49247,0.56373 2.74651,1.82655c0.25404,1.26281 -0.56373,2.49247 -1.82655,2.74651c-1.26281,0.25404 -2.49247,-0.56373 -2.74651,-1.82655c-0.25404,-1.26281 0.56373,-2.49247 1.82655,-2.74651z"/></g><g fill="#d7d7d7"><path d="M241.07144,167.50804c0.83531,-0.16804 1.64867,0.37289 1.81671,1.20819c0.16804,0.83531 -0.37289,1.64868 -1.20819,1.81671c-0.83531,0.16804 -1.64868,-0.37289 -1.81671,-1.20819c-0.16804,-0.83531 0.37289,-1.64867 1.20819,-1.81671z"/><path d="M241.6884,168.83653c0.83531,-0.16804 1.64867,0.37289 1.81671,1.20819c0.16804,0.83531 -0.37289,1.64868 -1.20819,1.81671c-0.83531,0.16804 -1.64868,-0.37289 -1.81671,-1.20819c-0.16804,-0.83531 0.37289,-1.64868 1.20819,-1.81671z"/><path d="M240.10765,169.68495c0.83531,-0.16804 1.64868,0.37289 1.81671,1.20819c0.16804,0.83531 -0.37289,1.64867 -1.20819,1.81671c-0.83531,0.16804 -1.64868,-0.37289 -1.81671,-1.20819c-0.16804,-0.83531 0.37289,-1.64868 1.20819,-1.81671z"/><path d="M239.50742,166.84879c0.83531,-0.16804 1.64867,0.37289 1.81671,1.20819c0.16804,0.83531 -0.37289,1.64868 -1.20819,1.81671c-0.83531,0.16804 -1.64868,-0.37289 -1.81671,-1.20819c-0.16804,-0.83531 0.37289,-1.64868 1.20819,-1.81671z"/><path d="M237.85294,167.25225c0.83531,-0.16804 1.64867,0.37289 1.81671,1.20819c0.16804,0.83531 -0.37289,1.64868 -1.20819,1.81671c-0.83531,0.16804 -1.64868,-0.37289 -1.81671,-1.20819c-0.16804,-0.83531 0.37289,-1.64868 1.20819,-1.81671z"/><path d="M237.83908,168.97112c0.83531,-0.16804 1.64868,0.37289 1.81671,1.20819c0.16804,0.83531 -0.37289,1.64868 -1.20819,1.81671c-0.83531,0.16804 -1.64867,-0.37289 -1.81671,-1.20819c-0.16804,-0.83531 0.37289,-1.64867 1.20819,-1.81671z"/><path d="M239.10854,169.9129c0.83531,-0.16804 1.64867,0.37289 1.81671,1.20819c0.16804,0.83531 -0.37289,1.64868 -1.20819,1.81671c-0.83531,0.16804 -1.64868,-0.37289 -1.81671,-1.20819c-0.16804,-0.83531 0.37289,-1.64868 1.20819,-1.81671z"/></g></g></g></g></svg>