<svg version="1.1" xmlns="http://www.w3.org/2000/svg" xmlns:xlink="http://www.w3.org/1999/xlink" width="48.875" height="48.875" viewBox="0,0,48.875,48.875"><g transform="translate(-215.5625,-155.5625)"><g data-paper-data="{&quot;isPaintingLayer&quot;:true}" fill-rule="nonzero" stroke-linecap="butt" stroke-linejoin="miter" stroke-miterlimit="10" stroke-dasharray="" stroke-dashoffset="0" style="mix-blend-mode: normal"><g stroke="none"><path d="M236.55513,181.5912c0,-1.90255 3.44487,-6.62727 3.44487,-6.62727c0,0 3.44487,4.72472 3.44487,6.62727c0,1.90255 -1.54232,3.44487 -3.44487,3.44487c-1.90255,0 -3.44487,-1.54232 -3.44487,-3.44487z" fill="#31b8ff" stroke-width="NaN"/><path d="M241.35587,184.14286c-0.22067,0.10106 -0.74513,-0.68466 -0.7941,-0.88369c-0.0264,-0.1073 0.45151,-0.38317 0.72294,-0.73604c0.31911,-0.41485 0.44839,-0.90884 0.54536,-0.9582c0.22986,-0.117 1.21349,0.1801 1.26233,0.37953c0.03191,0.13031 -0.16783,0.88073 -0.63623,1.43856c-0.36998,0.44063 -1.01503,0.72079 -1.1003,0.75984z" fill="#5ec7ff" stroke-width="0"/></g><path d="M232.31132,180c0,-4.24634 3.44234,-7.68868 7.68868,-7.68868c4.24634,0 7.68868,3.44234 7.68868,7.68868c0,4.24634 -3.44234,7.68868 -7.68868,7.68868c-4.24634,0 -7.68868,-3.44234 -7.68868,-7.68868z" fill-opacity="0.15686" fill="#00c8ff" stroke="#000000" stroke-width="1"/><path d="M215.5625,204.4375v-48.875h48.875v48.875z" fill="none" stroke="#b0b0b0" stroke-width="0"/></g></g></svg>