<svg version="1.1" xmlns="http://www.w3.org/2000/svg" xmlns:xlink="http://www.w3.org/1999/xlink" width="48.875" height="48.875" viewBox="0,0,48.875,48.875"><g transform="translate(-215.5625,-155.5625)"><g data-paper-data="{&quot;isPaintingLayer&quot;:true}" fill-rule="nonzero" stroke-linejoin="miter" stroke-miterlimit="10" stroke-dasharray="" stroke-dashoffset="0" style="mix-blend-mode: normal"><path d="M215.5625,204.4375v-48.875h48.875v48.875z" fill="none" stroke="#b0b0b0" stroke-width="0" stroke-linecap="butt"/><g stroke="#160404" stroke-width="0.5" stroke-linecap="round"><path d="M252.5102,174.45758l3.65132,1.44737l-0.42763,2.23684l-0.82237,1.71053l-3.81579,0.75658z" fill="#505356"/><path d="M231.98544,176.70748l-1.16337,-1.13861l0.5198,-1.0396l1.11386,-1.21287l2.07921,0.12376l1.18812,0.4703z" fill="#505356"/><path d="M237.82067,174.74165l6.06557,-7.45901l5.08196,-0.32787l2.78689,-1.06557l1.47541,7.13115l-1.22951,8.19672l-3.60655,2.29508h-7.70492z" fill="#571b17"/><path d="M242.96633,176.10746l2.02381,-0.71429l1.78571,1.04167l-0.17857,2.32143l-2.2619,1.81548z" fill="#505356"/><path d="M228.48761,183.62317l2.50839,-6.14919l5.61334,-4.45539l5.95998,2.10895l2.64385,3.07963l-1.7874,5.25198z" fill="#571b17"/><path d="M237.09626,180.45974l-2.02381,1.66667l-3.48214,-0.83333l-0.05952,-0.92262l0.71429,-1.42857l2.55952,-1.13095z" fill="#505356"/><path d="M246.73427,171.32021l-3.15152,1.46747l-0.46547,-1.78051l0.14467,-1.4435l2.963,-1.73299l1.75132,0.29696l2.24202,2.71567z" fill="#505356"/><path d="M240.53859,175.88049l-0.59211,1.25l-2.69737,-0.16447l-0.13158,-2.10526l2.13816,-0.13158z" fill="#505356"/></g></g></g></svg>