<svg version="1.1" xmlns="http://www.w3.org/2000/svg" xmlns:xlink="http://www.w3.org/1999/xlink" width="18.52795" height="15.53125" viewBox="0,0,18.52795,15.53125"><g transform="translate(-232.2344,-172.23442)"><g data-paper-data="{&quot;isPaintingLayer&quot;:true}" fill-rule="nonzero" stroke-linejoin="miter" stroke-miterlimit="10" stroke-dasharray="" stroke-dashoffset="0" style="mix-blend-mode: normal"><path d="M243.87194,179.99999h-4.12283h11.01325h-3.26224" data-paper-data="{&quot;index&quot;:null}" fill="none" stroke="#434343" stroke-width="5" stroke-linecap="round"/><path d="M243.87194,179.99999h-4.12283h11.01325h-3.26224" data-paper-data="{&quot;index&quot;:null}" fill="none" stroke="#2a2a2a" stroke-width="2.5" stroke-linecap="round"/><path d="M240.00006,184.27216c-2.35944,0 -4.27215,-1.91271 -4.27215,-4.27215c0,-2.35944 1.91271,-4.27215 4.27215,-4.27215c2.35944,0 4.27215,1.91271 4.27215,4.27215c0,2.35944 -1.91271,4.27215 -4.27215,4.27215z" fill="#ff3d3d" stroke="#ff0000" stroke-width="1.5" stroke-linecap="butt"/><g fill="#ff0000" stroke="#00d4ff" stroke-width="0" stroke-linecap="butt"><g><path d="M244.5135,177.79411c0.73691,1.25794 0.73362,3.15967 -0.00987,4.41187c-0.39647,-0.59966 -2.32563,-2.19847 -2.32563,-2.19847c0,0 1.8477,-1.4756 2.3355,-2.2134z"/><path d="M237.86896,180.00751c0,0 -1.92916,1.59881 -2.32563,2.19847c-0.74349,-1.2522 -0.74677,-3.15393 -0.00987,-4.41187c0.4878,0.7378 2.3355,2.2134 2.3355,2.2134z" data-paper-data="{&quot;index&quot;:null}"/></g><g><path d="M237.79411,175.51003c1.25794,-0.73691 3.15967,-0.73362 4.41187,0.00986c-0.59966,0.39647 -2.19848,2.32564 -2.19848,2.32564c0,0 -1.4756,-1.8477 -2.2134,-2.3355z"/><path d="M240.00751,182.15457c0,0 1.59881,1.92917 2.19847,2.32564c-1.2522,0.74349 -3.15393,0.74678 -4.41187,0.00987c0.7378,-0.4878 2.2134,-2.3355 2.2134,-2.3355z" data-paper-data="{&quot;index&quot;:null}"/></g></g><path d="M232.73441,180.00005c0,-4.01269 3.25293,-7.26562 7.26563,-7.26562c4.01269,0 7.26562,3.25293 7.26562,7.26562c0,4.01269 -3.25293,7.26563 -7.26562,7.26563c-4.01269,0 -7.26562,-3.25293 -7.26562,-7.26562z" fill="none" stroke="#ff0000" stroke-width="1" stroke-linecap="butt"/></g></g></svg>