<svg version="1.1" xmlns="http://www.w3.org/2000/svg" xmlns:xlink="http://www.w3.org/1999/xlink" width="48.875" height="48.875" viewBox="0,0,48.875,48.875"><g transform="translate(-215.5625,-155.5625)"><g data-paper-data="{&quot;isPaintingLayer&quot;:true}" fill-rule="nonzero" stroke-linejoin="miter" stroke-miterlimit="10" stroke-dasharray="" stroke-dashoffset="0" style="mix-blend-mode: normal"><path d="M215.5625,204.4375v-48.875h48.875v48.875z" fill="none" stroke="#b0b0b0" stroke-width="0" stroke-linecap="butt"/><g stroke-width="0.25" stroke-linecap="round"><path d="M235.64634,180.95744l3.03492,-5.52789l0.46969,1.69811l2.31232,-1.69811l1.15616,0.18065l-0.79486,1.58972l-0.3613,0.93938l2.34845,-0.93938l1.48133,-0.28904l-0.7226,2.02328l-2.85427,3.54074l-1.66198,1.01164l-1.91489,1.0839v-1.40907h-1.22842l-2.20393,0.25291l0.18065,-1.0839z" fill="#0a0a0a" stroke="#000000"/><path d="M235.54862,182.93803l2.79679,-6.06327l0.66489,0.77488l1.91841,-1.20187l0.38429,0.40564l-0.1281,1.62257l3.39457,-0.74723l-2.96758,3.94966l-2.92488,2.00685l-0.27754,-1.68661z" fill="#050505" stroke="#050505"/><path d="M237.47008,179.45805l0.76105,-1.81736l0.88323,0.51906l1.61936,-0.93047l0.40575,1.63751l1.8388,0.12157l-2.3271,2.58329l-1.62256,1.49447l-0.46969,-1.45177l-2.00685,0.40564z" fill="#000000" stroke="#000000"/></g><path d="M232.31132,180c0,-4.24634 3.44234,-7.68868 7.68868,-7.68868c4.24634,0 7.68868,3.44234 7.68868,7.68868c0,4.24634 -3.44234,7.68868 -7.68868,7.68868c-4.24634,0 -7.68868,-3.44234 -7.68868,-7.68868z" fill-opacity="0.15686" fill="#00c8ff" stroke="#000000" stroke-width="1" stroke-linecap="butt"/></g></g></svg>