<svg version="1.1" xmlns="http://www.w3.org/2000/svg" xmlns:xlink="http://www.w3.org/1999/xlink" width="61.01804" height="51.19232" viewBox="0,0,61.01804,51.19232"><g transform="translate(-211.51117,-154.26339)"><g data-paper-data="{&quot;isPaintingLayer&quot;:true}" fill-rule="nonzero" stroke-linecap="round" stroke-linejoin="miter" stroke-miterlimit="10" stroke-dasharray="" stroke-dashoffset="0" style="mix-blend-mode: normal"><path d="M255.88711,155.88711l5,15.32258l6.12903,14.19355l-14.19355,12.41935l-18.54839,6.29032l-18.06452,-8.22581l-3.22581,-14.19355l13.54839,-4.35484l16.29032,-16.6129z" fill="#571b17" stroke="#380d09" stroke-width="2.5"/><path d="M258.39942,164.65094l7.90323,-3.54839l5.32258,5.96774l-6.45161,12.41935z" fill="#505356" stroke="#160404" stroke-width="1.5"/><path d="M234.68974,197.23158l9.67742,-9.83871l6.6129,-0.32258v8.22581z" fill="#505356" stroke="#160404" stroke-width="1.5"/><path d="M238.88328,164.16706l5.64516,4.03226l-0.96774,12.58065l-17.90323,3.87097l-10.16129,2.25806l-1.45161,-5.80645l12.74194,-3.54838l9.67742,-10.96775z" fill="#ffffff" stroke="#383838" stroke-width="1"/><path d="M255.88711,155.88711l5,15.32258l6.12903,14.19355l-14.19355,12.41935l-18.54839,6.29032l-18.06452,-8.22581l-3.22581,-14.19355l13.54839,-4.35484l16.29032,-16.6129z" fill="none" stroke="#380d09" stroke-width="2.5"/></g></g></svg>