<svg version="1.1" xmlns="http://www.w3.org/2000/svg" xmlns:xlink="http://www.w3.org/1999/xlink" width="21.56509" height="31.65123" viewBox="0,0,21.56509,31.65123"><g transform="translate(-229.22385,-159.10687)"><g data-paper-data="{&quot;isPaintingLayer&quot;:true}" fill-rule="nonzero" stroke-linejoin="miter" stroke-miterlimit="10" stroke-dasharray="" stroke-dashoffset="0" style="mix-blend-mode: normal"><path d="M229.99206,190.0081v-30.15123h20.01609v30.15123z" fill="#4c3534" stroke="#241918" stroke-width="1.5" stroke-linecap="butt"/><path d="M229.99206,169.99201h20.01609z" fill="#57140f" stroke="#241918" stroke-width="1.5" stroke-linecap="butt"/><path d="M229.99206,190.0081l9.9274,-8.15123l10.08869,8.15123" fill="none" stroke="#241918" stroke-width="1.5" stroke-linecap="butt"/><g stroke="#160404" stroke-width="0.25" stroke-linecap="round"><path d="M243.594,169.44192l1.21041,0.4798l-0.14176,0.74151l-0.27262,0.56704l-1.26494,0.25081z" fill="#505356"/><path d="M236.79004,170.18776l-0.38566,-0.37745l0.17231,-0.34463l0.36924,-0.40207l0.68926,0.04103l0.39386,0.1559z" fill="#505356"/><path d="M238.72442,169.53609l2.01074,-2.47266l1.68467,-0.10869l0.92385,-0.35324l0.4891,2.36398l-0.40758,2.71722l-1.19557,0.76082h-2.55418z" fill="#57140f"/><path d="M240.43021,169.98885l0.67089,-0.23679l0.59196,0.34531l-0.0592,0.76955l-0.74982,0.60183z" fill="#505356"/><path d="M235.63051,172.48031l0.83153,-2.03846l1.86082,-1.47696l1.97574,0.69912l0.87644,1.0209l-0.59252,1.74103z" fill="#57140f"/><path d="M238.48428,171.43163l-0.67089,0.5525l-1.15433,-0.27625l-0.01973,-0.30585l0.23679,-0.47357l0.84848,-0.37491z" fill="#505356"/><path d="M241.67928,168.40188l-1.04473,0.48647l-0.1543,-0.59024l0.04796,-0.47852l0.98224,-0.57449l0.58056,0.09844l0.74323,0.90025z" fill="#505356"/><path d="M239.62541,169.91361l-0.19628,0.41438l-0.89418,-0.05452l-0.04362,-0.69789l0.7088,-0.04362z" fill="#505356"/></g><path d="M232.31135,169.92857c0,-4.24634 3.44234,-7.68868 7.68868,-7.68868c4.24634,0 7.68868,3.44234 7.68868,7.68868c0,4.24634 -3.44234,7.68868 -7.68868,7.68868c-4.24634,0 -7.68868,-3.44234 -7.68868,-7.68868z" fill="#4c3534" stroke="#241918" stroke-width="1" stroke-linecap="butt"/><path d="M230.22125,173.84005l2.94271,2.94271v4.66146l-3.1901,3.1901" fill="none" stroke="#241918" stroke-width="1.5" stroke-linecap="round"/><path d="M250.03895,184.63432l-3.19011,-3.1901v-4.66146l2.94271,-2.94271" data-paper-data="{&quot;index&quot;:null}" fill="none" stroke="#241918" stroke-width="1.5" stroke-linecap="round"/><path d="M245.07641,162.66247l0.00007,0.03366c-0.06688,-0.00755 -0.13359,-0.01404 -0.20021,-0.01954c0.06671,-0.00472 0.13343,-0.00942 0.20014,-0.01412z" fill="#000000" stroke="none" stroke-width="0.5" stroke-linecap="butt"/><g stroke="#c8c8c8" stroke-linecap="round"><path d="M235.65624,170.59106l1.24173,-2.05821l3.9123,-3.84426l1.54791,-0.66339l-0.83349,1.41183l1.3778,-0.45927l-0.5103,1.29276l-0.25515,0.83349v0.78246l1.29276,-1.1907l0.8505,-0.81649l-0.45927,1.75203l-0.95255,1.90512l2.14325,-1.56492l0.76545,-0.52731l-0.66339,1.88811l-1.15668,1.49688l-2.68758,1.93914l-2.09223,2.19429l-0.96957,0.28917l1.10565,-2.02419l-1.39482,0.51029l-0.78246,0.03402l0.61236,-1.08864l0.57834,-1.05462l-1.47987,0.45927l-1.49688,0.57834l-1.15668,-0.37422l0.96957,-1.37781z" fill="#ffffff" stroke-width="0.25"/><path d="M235.27396,172.55667l6.15415,-6.99931l1.44464,-0.65727l-0.43339,1.27129l-4.7384,5.5763z" fill="#c0ffff" stroke-width="0"/><path d="M242.74454,169.60961l-3.81385,3.72716l-1.90691,0.49118l0.86678,-1.35796l5.63408,-4.27612z" fill="#c0ffff" stroke-width="0"/><path d="M245.08458,169.32093l-1.15543,1.61774l-2.62924,1.87803l-2.04458,2.12109l-0.76184,0.30418l0.35054,-0.51835l3.78494,-3.90052l2.60035,-1.9647z" fill="#c0ffff" stroke-width="0"/><path d="M235.65624,170.59106l1.24173,-2.05821l3.9123,-3.84426l1.54791,-0.66339l-0.83349,1.41183l1.3778,-0.45927l-0.5103,1.29276l-0.25515,0.83349v0.78246l1.29276,-1.1907l0.8505,-0.81649l-0.45927,1.75203l-0.95255,1.90512l2.14325,-1.56492l0.76545,-0.52731l-0.66339,1.88811l-1.15668,1.49688l-2.68758,1.93914l-2.09223,2.19429l-0.96957,0.28917l1.10565,-2.02419l-1.39482,0.51029l-0.78246,0.03402l0.61236,-1.08864l0.57834,-1.05462l-1.47987,0.45927l-1.49688,0.57834l-1.15668,-0.37422l0.96957,-1.37781z" fill="none" stroke-width="0.25"/></g></g></g></svg>