<svg version="1.1" xmlns="http://www.w3.org/2000/svg" xmlns:xlink="http://www.w3.org/1999/xlink" width="23.22274" height="20.54993" viewBox="0,0,23.22274,20.54993"><g transform="translate(-229.82051,-166.6978)"><g data-paper-data="{&quot;isPaintingLayer&quot;:true}" fill-rule="nonzero" stroke-width="0.5" stroke-linecap="round" stroke-linejoin="miter" stroke-miterlimit="10" stroke-dasharray="" stroke-dashoffset="0" style="mix-blend-mode: normal"><path d="M232.12166,179.12664l6.46154,-11.76923l1,3.61538l4.92308,-3.61538l2.46154,0.38462l-1.69231,3.38462l-0.76923,2l5,-2l3.15385,-0.61538l-1.53846,4.30769l-6.07692,7.53846l-3.53846,2.15385l-4.07692,2.30769v-3h-2.61538l-4.69231,0.53846l0.38462,-2.30769z" fill="#0a0a0a" stroke="#000000"/><path d="M231.91362,183.34343l5.95455,-12.90909l1.41558,1.64976l4.08442,-2.55885l0.81818,0.86364l-0.27273,3.45455l7.22727,-1.59091l-6.31818,8.40909l-6.22727,4.27273l-0.59091,-3.59091z" fill="#050505" stroke="#050505"/><path d="M236.00453,175.93434l1.62031,-3.86928l1.88045,1.10511l3.44771,-1.98103l0.86387,3.48637l3.91493,0.25883l-4.95455,5.5l-3.45455,3.18182l-1,-3.09091l-4.27273,0.86364z" fill="#000000" stroke="#000000"/></g></g></svg>