<svg version="1.1" xmlns="http://www.w3.org/2000/svg" xmlns:xlink="http://www.w3.org/1999/xlink" width="21.51609" height="21.51609" viewBox="0,0,21.51609,21.51609"><g transform="translate(-229.24199,-169.24201)"><g data-paper-data="{&quot;isPaintingLayer&quot;:true}" fill-rule="nonzero" stroke-linejoin="miter" stroke-miterlimit="10" stroke-dasharray="" stroke-dashoffset="0" style="mix-blend-mode: normal"><path d="M229.99199,190.0081v-20.01609h20.01609v20.01609z" fill="#571b17" stroke="#380d09" stroke-width="1.5" stroke-linecap="butt"/><path d="M232.81972,179.47203l6.22461,-4.85861l6.03649,2.46163l1.59083,7.7909l-8.0762,2.11165l-1.63527,-4.39792z" fill="none" stroke-opacity="0.3451" stroke="#170303" stroke-width="2.5" stroke-linecap="round"/><path d="M232.81972,179.47203l6.22461,-4.85861l6.03649,2.46163l1.59083,7.7909l-8.0762,2.11165l-1.63527,-4.39792z" fill="none" stroke="#380d09" stroke-width="1" stroke-linecap="round"/><path d="M243.52813,178.86414l-0.30303,2.19697l-3.86364,0.60606l-3.18182,-2.34848l3.33333,-2.19697z" fill="#505356" stroke="#160404" stroke-width="0.5" stroke-linecap="round"/><path d="M248.86003,173.50699l-0.90909,1.89394l-5.15152,-0.98485l-2.19697,-3.10606l6.21212,-0.22727z" fill="#505356" stroke="#160404" stroke-width="0.5" stroke-linecap="round"/><path d="M235.31385,183.62604l0.22727,2.19697l1.06061,2.04545l-3.48485,0.37879l-1.36364,-3.0303l2.57576,-2.12121z" fill="#505356" stroke="#160404" stroke-width="0.5" stroke-linecap="round"/><path d="M248.15293,187.77828l-0.83333,1.21212l-2.95454,-1.21212l2.87879,-1.28788z" fill="#505356" stroke="#160404" stroke-width="0.5" stroke-linecap="round"/></g></g></svg>