<svg version="1.1" xmlns="http://www.w3.org/2000/svg" xmlns:xlink="http://www.w3.org/1999/xlink" width="72.5" height="72.5" viewBox="0,0,72.5,72.5"><g transform="translate(-203.75,-143.75)"><g data-paper-data="{&quot;isPaintingLayer&quot;:true}" fill-rule="nonzero" stroke-linejoin="miter" stroke-miterlimit="10" stroke-dasharray="" stroke-dashoffset="0" style="mix-blend-mode: normal"><path d="M204.5,180c0,-19.60611 15.89389,-35.5 35.5,-35.5c19.60611,0 35.5,15.89389 35.5,35.5c0,19.60611 -15.89389,35.5 -35.5,35.5c-19.60611,0 -35.5,-15.89389 -35.5,-35.5z" fill="#57140f" stroke="#000000" stroke-width="1.5" stroke-linecap="butt"/><path d="M212.60391,174.40952l4.28896,-4.28896h15.27767" fill="none" stroke="#241918" stroke-width="1.5" stroke-linecap="round"/><path d="M212.63596,192.82929v-18.26916h18.2131v18.26916z" fill="#4c3534" stroke="#241918" stroke-width="1.5" stroke-linecap="butt"/><path d="M247.73846,170.12056h15.27767l4.28896,4.28896" fill="none" stroke="#241918" stroke-width="1.5" stroke-linecap="round"/><path d="M249.05993,192.82929v-18.26916h18.2131v18.26916z" fill="#4c3534" stroke="#241918" stroke-width="1.5" stroke-linecap="butt"/><path d="M235.23524,179.29768l19.39968,-19.39968l2.6597,2.6597l-19.39968,19.39968z" fill="#4c3534" stroke="#241918" stroke-width="1.5" stroke-linecap="butt"/><path d="M241.98699,181.95737l-19.39968,-19.39968l2.6597,-2.6597l19.39968,19.39968z" data-paper-data="{&quot;index&quot;:null}" fill="#4c3534" stroke="#241918" stroke-width="1.5" stroke-linecap="butt"/><path d="M230.83442,192.82929v-27.43529h18.2131v27.43529z" fill="#4c3534" stroke="#241918" stroke-width="1.5" stroke-linecap="butt"/><path d="M249.04752,174.61619h-18.2131z" fill="#57140f" stroke="#241918" stroke-width="1.5" stroke-linecap="butt"/><path d="M212.45019,186.03204v-4.83397h55.09962v4.83397z" fill="none" stroke="#241918" stroke-width="1" stroke-linecap="butt"/><path d="M232.94478,174.55846c0,-3.86384 3.13226,-6.99611 6.99611,-6.99611c3.86384,0 6.99611,3.13226 6.99611,6.99611c0,3.86384 -3.13226,6.99611 -6.99611,6.99611c-3.86384,0 -6.99611,-3.13226 -6.99611,-6.99611z" fill="#4c3534" stroke="#241918" stroke-width="1" stroke-linecap="butt"/></g></g></svg>