<svg version="1.1" xmlns="http://www.w3.org/2000/svg" xmlns:xlink="http://www.w3.org/1999/xlink" width="41.39109" height="27.67658" viewBox="0,0,41.39109,27.67658"><g transform="translate(-209.24208,-163.08152)"><g data-paper-data="{&quot;isPaintingLayer&quot;:true}" fill-rule="nonzero" stroke-linejoin="miter" stroke-miterlimit="10" stroke-dasharray="" stroke-dashoffset="0" style="mix-blend-mode: normal"><g stroke="#0a9f04" stroke-width="0.15"><g><path d="M220.05772,173.53997c0.09491,0.15046 -0.20671,0.51121 -0.67368,0.80577c-0.46697,0.29455 -1.01737,0.26091 -1.01737,0.26091c0,0 0.20671,-0.51121 0.67368,-0.80576c0.46697,-0.29455 0.92246,-0.41138 1.01736,-0.26092z" fill="#2dff24" stroke-linecap="butt"/><path d="M218.50969,174.54705l1.49258,-1.00969" fill="none" stroke-linecap="round"/><path d="M219.54133,174.1739l-0.40607,-0.10975l0.06585,-0.31827" fill="none" stroke-linecap="round"/><path d="M219.06344,174.45135l-0.29651,-0.06354l0.08472,-0.36005" fill="none" stroke-linecap="round"/><path d="M219.9318,173.80538l-0.28592,-0.01059l0.02118,-0.2012" fill="none" stroke-linecap="round"/></g><g><path d="M212.34647,177.65046c-0.14936,-0.09664 -0.02729,-0.55075 0.27264,-1.01429c0.29993,-0.46353 0.8135,-0.66433 0.8135,-0.66433c0,0 0.02729,0.55075 -0.27264,1.01428c-0.29993,0.46353 -0.66414,0.76098 -0.81348,0.66434z" fill="#2dff24" stroke-linecap="butt"/><path d="M213.32788,176.08603l-0.93,1.54349" fill="none" stroke-linecap="round"/><path d="M212.54862,176.8582l0.41459,-0.07108l0.07401,0.31647" fill="none" stroke-linecap="round"/><path d="M212.86564,176.4056l0.29576,-0.06696l0.07445,0.36231" fill="none" stroke-linecap="round"/><path d="M212.34918,177.3567l0.26389,-0.11056l0.06534,0.19147" fill="none" stroke-linecap="round"/></g></g><path d="M217.83612,175.76925c0.37701,0.28625 0.92464,0.71887 0.92464,0.71887l0.88542,5.57292l-0.46875,1.45833l-1.77083,-0.57292l-0.83333,-5.26042l-3.28125,-1.82292v-1.66667l2.65625,0.15625c0,0 0.68606,0.37569 1.03784,0.64279l0.99447,-1.46298l0.68182,0.41667z" fill="#642200" stroke="#1a0900" stroke-width="0.15" stroke-linecap="round"/><path d="M226.85351,166.72875l1.85517,-1.59479l4.21875,-0.20833l-0.15625,1.40625l-3.22917,1.30208l-4.63542,3.4375l-1.25,5.15625l0.625,7.03125l-2.55208,0.15625l-0.3125,-7.08333l1.35417,-6.09375l2.65913,-2.28592l-0.97247,-1.08635l0.94697,-0.90909z" fill="#642200" stroke="#1a0900" stroke-width="0.15" stroke-linecap="round"/><path d="M234.38576,183.25896l1.14583,-10.52083l-2.76042,-2.55208l-3.64583,0.41667l0.3125,-1.61458l3.07292,-0.625l3.48958,2.23958l1.82292,-2.86458l0.41667,0.57292l-1.40625,2.55208l0.67708,1.40625l-0.26042,7.76042l-0.98958,3.54167z" fill="#642200" stroke="#1a0900" stroke-width="0.15" stroke-linecap="round"/><path d="M244.43785,182.79022l-0.20833,-4.0625l-1.5625,-1.82292l-0.10417,1.40625l-0.52083,-0.15625l-0.15625,-2.03125l-2.29167,-2.13542l1.61458,-0.52083l4.27083,4.89583l0.78125,4.375" fill="#642200" stroke="#1a0900" stroke-width="0.15" stroke-linecap="round"/><g stroke="#0a9f04" stroke-width="0.15"><path d="M227.36833,164.86573c0.09491,0.15046 -0.20671,0.51121 -0.67368,0.80577c-0.46697,0.29455 -1.01737,0.26091 -1.01737,0.26091c0,0 0.20671,-0.51121 0.67368,-0.80576c0.46697,-0.29455 0.92246,-0.41138 1.01736,-0.26092z" fill="#2dff24" stroke-linecap="butt"/><path d="M225.8203,165.87281l1.49258,-1.00969" fill="none" stroke-linecap="round"/><path d="M226.85194,165.49966l-0.40607,-0.10975l0.06585,-0.31827" fill="none" stroke-linecap="round"/><path d="M226.37405,165.77711l-0.29651,-0.06354l0.08472,-0.36005" fill="none" stroke-linecap="round"/><path d="M227.24241,165.13114l-0.28592,-0.01059l0.02118,-0.2012" fill="none" stroke-linecap="round"/></g><g data-paper-data="{&quot;index&quot;:null}" stroke="#0a9f04" stroke-width="0.15"><path d="M222.81595,167.95123c-0.09491,-0.15046 0.20671,-0.51121 0.67368,-0.80577c0.46697,-0.29455 1.01737,-0.26091 1.01737,-0.26091c0,0 -0.20671,0.51121 -0.67368,0.80576c-0.46697,0.29455 -0.92246,0.41138 -1.01736,0.26092z" fill="#2dff24" stroke-linecap="butt"/><path d="M224.36399,166.94415l-1.49258,1.00969" fill="none" stroke-linecap="round"/><path d="M223.33234,167.3173l0.40607,0.10975l-0.06585,0.31827" fill="none" stroke-linecap="round"/><path d="M223.81023,167.03985l0.29651,0.06354l-0.08472,0.36005" fill="none" stroke-linecap="round"/><path d="M222.94188,167.68582l0.28592,0.01059l-0.02118,0.2012" fill="none" stroke-linecap="round"/></g><g stroke="#0a9f04" stroke-width="0.15"><path d="M240.20916,167.86143c0.04766,0.17139 -0.34491,0.43024 -0.87683,0.57816c-0.53192,0.14792 -1.04943,-0.04248 -1.04943,-0.04248c0,0 0.34491,-0.43024 0.87683,-0.57815c0.53192,-0.14792 1.00177,-0.12891 1.04943,0.04247z" fill="#2dff24" stroke-linecap="butt"/><path d="M238.437,168.38113l1.71979,-0.53813" fill="none" stroke-linecap="round"/><path d="M239.53236,168.32021l-0.3574,-0.22182l0.15454,-0.28592" fill="none" stroke-linecap="round"/><path d="M238.99489,168.44861l-0.26574,-0.14607l0.18462,-0.32051" fill="none" stroke-linecap="round"/><path d="M240.01227,168.07946l-0.27081,-0.09232l0.07811,-0.18662" fill="none" stroke-linecap="round"/></g><g stroke="#0a9f04" stroke-width="0.15"><path d="M228.35468,172.59845c-0.16312,-0.07098 -0.11677,-0.53891 0.10351,-1.04518c0.22029,-0.50626 0.69421,-0.78815 0.69421,-0.78815c0,0 0.11677,0.53891 -0.10351,1.04517c-0.22029,0.50626 -0.53109,0.85914 -0.6942,0.78815z" fill="#2dff24" stroke-linecap="butt"/><path d="M229.06772,170.89486l-0.66572,1.67454" fill="none" stroke-linecap="round"/><path d="M228.42487,171.78383l0.39744,-0.13777l0.12465,0.30016" fill="none" stroke-linecap="round"/><path d="M228.6638,171.28557l0.28087,-0.11432l0.13256,0.34531" fill="none" stroke-linecap="round"/><path d="M228.30944,172.30819l0.24232,-0.15213l0.0957,0.17824" fill="none" stroke-linecap="round"/></g><g stroke="#0a9f04" stroke-width="0.15"><path d="M241.21793,180.03435c-0.16312,-0.07098 -0.11677,-0.53891 0.10351,-1.04518c0.22028,-0.50626 0.69421,-0.78815 0.69421,-0.78815c0,0 0.11677,0.53891 -0.10351,1.04517c-0.22028,0.50626 -0.53108,0.85914 -0.6942,0.78816z" fill="#2dff24" stroke-linecap="butt"/><path d="M241.93097,178.33076l-0.66572,1.67454" fill="none" stroke-linecap="round"/><path d="M241.28811,179.21973l0.39744,-0.13777l0.12465,0.30016" fill="none" stroke-linecap="round"/><path d="M241.52705,178.72147l0.28087,-0.11432l0.13256,0.34532" fill="none" stroke-linecap="round"/><path d="M241.17269,179.74409l0.24232,-0.15213l0.09571,0.17824" fill="none" stroke-linecap="round"/></g><g stroke="#0a9f04" stroke-width="0.15"><path d="M243.20951,172.31884c0.10209,0.17038 -0.24384,0.56534 -0.77264,0.88218c-0.5288,0.31683 -1.14232,0.26517 -1.14232,0.26517c0,0 0.24384,-0.56534 0.77264,-0.88217c0.5288,-0.31683 1.04023,-0.43557 1.14231,-0.26519z" fill="#2dff24" stroke-linecap="butt"/><path d="M241.45571,173.40333l1.69196,-1.08882" fill="none" stroke-linecap="round"/><path d="M242.61684,173.01323l-0.45046,-0.13291l0.08166,-0.35358" fill="none" stroke-linecap="round"/><path d="M242.07629,173.31069l-0.32935,-0.07852l0.10379,-0.39974" fill="none" stroke-linecap="round"/><path d="M243.06214,172.61188l-0.31889,-0.01915l0.02879,-0.22404" fill="none" stroke-linecap="round"/></g><path d="M209.75158,183.26902c0,-10.87311 8.98659,-19.6875 20.07212,-19.6875c11.08552,0 20.07212,8.81439 20.07212,19.6875c0,0 -40.14423,10.63102 -40.14423,0z" fill-opacity="0.08235" fill="#0be2ff" stroke="#241918" stroke-width="1" stroke-linecap="butt"/><path d="M209.99208,190.0081v-6.8277h39.89109v6.8277z" fill="#4c3534" stroke="#241918" stroke-width="1.5" stroke-linecap="butt"/><path d="M222.23446,180.67857c0,-4.24634 3.44234,-7.68868 7.68868,-7.68868c4.24634,0 7.68868,3.44234 7.68868,7.68868c0,4.24634 -3.44234,7.68868 -7.68868,7.68868c-4.24634,0 -7.68868,-3.44234 -7.68868,-7.68868z" fill="#4c3534" stroke="#241918" stroke-width="1" stroke-linecap="butt"/><g stroke-width="0.15"><g stroke="#0a9f04"><path d="M229.06595,176.32244c-0.09491,-0.15046 0.20671,-0.51121 0.67368,-0.80577c0.46697,-0.29455 1.01737,-0.26091 1.01737,-0.26091c0,0 -0.20671,0.51121 -0.67368,0.80576c-0.46697,0.29455 -0.92246,0.41138 -1.01736,0.26092z" fill="#2dff24" stroke-linecap="butt"/><path d="M230.614,175.31536l-1.49258,1.00969" fill="none" stroke-linecap="round"/><path d="M229.58234,175.68851l0.40607,0.10975l-0.06585,0.31827" fill="none" stroke-linecap="round"/><path d="M230.06023,175.41106l0.29651,0.06354l-0.08472,0.36005" fill="none" stroke-linecap="round"/><path d="M229.19189,176.05703l0.28592,0.01059l-0.02118,0.2012" fill="none" stroke-linecap="round"/></g><path d="M225.55172,181.50853c0.01481,-0.01481 5.43616,-5.43578 5.45123,-5.45013c0.96681,-0.91982 2.49635,-0.90525 3.44532,0.04373c0.95073,0.95073 0.9636,2.48418 0.03861,3.45069c-0.01269,0.01326 -5.43196,5.43282 -5.44501,5.44586c-0.96378,0.96378 -2.52638,0.96378 -3.49015,0c-0.96378,-0.96378 -0.96378,-2.52638 0,-3.49015z" fill="#642200" stroke="#1a0900" stroke-linecap="butt"/><path d="M224.84099,183.24153c0,-0.02093 0.00026,-0.04181 0.00078,-0.06263c0.03323,-1.33405 1.12508,-2.40528 2.46713,-2.40528c1.36299,0 2.46791,1.10492 2.46791,2.46791c0,1.36299 -1.10492,2.46791 -2.46791,2.46791c-1.36299,0 -2.46791,-1.10492 -2.46791,-2.46791z" fill="#642200" stroke="#1a0900" stroke-linecap="butt"/><path d="M225.13947,183.24153c0,-0.0184 0.00023,-0.03675 0.00068,-0.05504c0.0292,-1.17269 0.989,-2.11437 2.16873,-2.11437c1.19814,0 2.16942,0.97128 2.16942,2.16942c0,1.19814 -0.97128,2.16942 -2.16942,2.16942c-1.19814,0 -2.16942,-0.97128 -2.16942,-2.16942z" fill="#b0643e" stroke="#512e1c" stroke-linecap="butt"/><path d="M225.9799,183.24153c0,-0.73398 0.59501,-1.32898 1.32899,-1.32898c0.73398,0 1.32899,0.595 1.32899,1.32898c0,0.73398 -0.59501,1.32898 -1.32899,1.32898c-0.73398,0 -1.32899,-0.595 -1.32899,-1.32898z" fill="none" stroke="#512e1c" stroke-linecap="butt"/><path d="M225.71925,183.24153c0,-0.87793 0.71171,-1.58964 1.58964,-1.58964c0.87793,0 1.58964,0.71171 1.58964,1.58964c0,0.87793 -0.71171,1.58964 -1.58964,1.58964c-0.87793,0 -1.58964,-0.7117 -1.58964,-1.58964z" fill="none" stroke="#512e1c" stroke-linecap="butt"/><path d="M225.45175,183.24153c0,-1.02568 0.83148,-1.85715 1.85715,-1.85715c1.02568,0 1.85715,0.83148 1.85715,1.85715c0,1.02568 -0.83148,1.85715 -1.85715,1.85715c-1.02568,0 -1.85715,-0.83147 -1.85715,-1.85715z" fill="none" stroke="#512e1c" stroke-linecap="butt"/><path d="M226.65379,183.24153c0,-0.36181 0.2933,-0.65511 0.65511,-0.65511c0.36181,0 0.65511,0.2933 0.65511,0.65511c0,0.36181 -0.2933,0.65511 -0.65511,0.65511c-0.36181,0 -0.65511,-0.2933 -0.65511,-0.65511z" fill="none" stroke="#512e1c" stroke-linecap="butt"/><path d="M226.3366,183.24153c0,-0.53699 0.43532,-0.97231 0.97231,-0.97231c0.53699,0 0.97231,0.43532 0.97231,0.97231c0,0.53699 -0.43532,0.9723 -0.97231,0.9723c-0.53699,0 -0.97231,-0.43531 -0.97231,-0.9723z" fill="none" stroke="#512e1c" stroke-linecap="butt"/><path d="M234.10504,175.91158l-5.3228,5.3228" fill="none" stroke="#1a0900" stroke-linecap="round"/><path d="M230.76057,174.93638c0,0 0.17517,0.79773 0.63073,1.16616c0.03098,0.02506 0.82642,0.40273 0.86723,0.56847c0.08515,0.34577 -0.28416,0.84133 -0.82488,0.97449c-0.54072,0.13316 -0.55178,-0.44159 -0.63693,-0.78737c-0.08515,-0.34577 -0.03615,-1.92175 -0.03615,-1.92175z" fill="#642200" stroke="#1a0900" stroke-linecap="butt"/></g></g></g></svg>