<svg version="1.1" xmlns="http://www.w3.org/2000/svg" xmlns:xlink="http://www.w3.org/1999/xlink" width="41.55132" height="39.44535" viewBox="0,0,41.55132,39.44535"><g transform="translate(-209.20685,-151.31275)"><g data-paper-data="{&quot;isPaintingLayer&quot;:true}" fill-rule="nonzero" stroke-linejoin="miter" stroke-miterlimit="10" stroke-dasharray="" stroke-dashoffset="0" style="mix-blend-mode: normal"><path d="M209.95685,169.76488l4.71354,-4.71354h16.79007" fill="none" stroke="#241918" stroke-width="1.5" stroke-linecap="round"/><path d="M244.18325,182.21398v-30.15123h4.13374v30.15123z" fill="#4c3534" stroke="#241918" stroke-width="1.5" stroke-linecap="butt"/><path d="M229.99208,190.0081v-30.15123h20.01609v30.15123z" fill="#4c3534" stroke="#241918" stroke-width="1.5" stroke-linecap="butt"/><path d="M209.99208,190.0081v-20.0777h20.01609v20.0777z" fill="#4c3534" stroke="#241918" stroke-width="1.5" stroke-linecap="butt"/><path d="M209.88791,182.53797v-5.3125h39.85417v5.3125z" fill="none" stroke="#241918" stroke-width="1" stroke-linecap="butt"/><path d="M250.00817,169.99201h-20.01609z" fill="#57140f" stroke="#241918" stroke-width="1.5" stroke-linecap="butt"/><path d="M232.31135,169.92857c0,-4.24634 3.44234,-7.68868 7.68868,-7.68868c4.24634,0 7.68868,3.44234 7.68868,7.68868c0,4.24634 -3.44234,7.68868 -7.68868,7.68868c-4.24634,0 -7.68868,-3.44234 -7.68868,-7.68868z" fill="#4c3534" stroke="#241918" stroke-width="1" stroke-linecap="butt"/><g fill="#505356" stroke="#191919" stroke-width="0.25" stroke-linecap="butt"><g><g><path d="M234.88771,174.04194v-1.64122h1.61363v1.64122z"/><path d="M236.5314,174.04976c-0.00996,0.00343 0.00782,-1.64905 0.00782,-1.64905c0,0 6.68082,-5.06534 6.69478,-5.0576c0.00743,0.00412 0,1.64528 0,1.64528c0,0 -6.67885,5.05321 -6.7026,5.06137z"/><path d="M236.53923,172.4081c0,0 -1.65057,0.00267 -1.64759,-0.00928c0.00444,-0.01779 6.71042,-5.05355 6.71042,-5.05355c0,0 1.61936,-0.00673 1.62385,-0.00693c0.00118,-0.00005 -0.01589,0.01365 -0.04933,0.03968c-0.6086,0.47373 -6.63734,5.03008 -6.63734,5.03008z"/></g><g><path d="M236.5127,174.0508v-1.64122h1.61363v1.64122z"/><path d="M238.15639,174.05862c-0.00996,0.00343 0.00782,-1.64905 0.00782,-1.64905c0,0 6.68082,-5.06534 6.69478,-5.0576c0.00743,0.00412 0,1.64528 0,1.64528c0,0 -6.67885,5.05321 -6.7026,5.06137z"/><path d="M238.16421,172.41695c0,0 -1.65057,0.00267 -1.64759,-0.00928c0.00444,-0.01779 6.71042,-5.05355 6.71042,-5.05355c0,0 1.61936,-0.00673 1.62385,-0.00693c0.00118,-0.00005 -0.01589,0.01365 -0.04933,0.03968c-0.6086,0.47373 -6.63734,5.03008 -6.63734,5.03008z"/></g></g><g><g><path d="M234.88771,172.39498v-1.64122h1.61363v1.64122z"/><path d="M236.5314,172.40281c-0.00996,0.00343 0.00782,-1.64905 0.00782,-1.64905c0,0 6.68082,-5.06534 6.69478,-5.0576c0.00743,0.00412 0,1.64528 0,1.64528c0,0 -6.67885,5.05321 -6.7026,5.06137z"/><path d="M236.53923,170.76114c0,0 -1.65057,0.00267 -1.64759,-0.00928c0.00444,-0.01779 6.71042,-5.05355 6.71042,-5.05355c0,0 1.61936,-0.00673 1.62385,-0.00693c0.00118,-0.00005 -0.01589,0.01365 -0.04933,0.03968c-0.6086,0.47373 -6.63734,5.03008 -6.63734,5.03008z"/></g><g><path d="M236.5127,172.40384v-1.64122h1.61363v1.64122z"/><path d="M238.15639,172.41166c-0.00996,0.00343 0.00782,-1.64905 0.00782,-1.64905c0,0 6.68082,-5.06534 6.69478,-5.0576c0.00743,0.00412 0,1.64528 0,1.64528c0,0 -6.67885,5.05321 -6.7026,5.06137z"/><path d="M238.16421,170.76999c0,0 -1.65057,0.00267 -1.64759,-0.00928c0.00444,-0.01779 6.71042,-5.05355 6.71042,-5.05355c0,0 1.61936,-0.00673 1.62385,-0.00693c0.00118,-0.00005 -0.01589,0.01365 -0.04933,0.03968c-0.6086,0.47373 -6.63734,5.03008 -6.63734,5.03008z"/></g></g></g></g></g></svg>