<svg version="1.1" xmlns="http://www.w3.org/2000/svg" xmlns:xlink="http://www.w3.org/1999/xlink" width="24.94945" height="21.34253" viewBox="0,0,24.94945,21.34253"><g transform="translate(-220.40001,-169.35199)"><g data-paper-data="{&quot;isPaintingLayer&quot;:true}" fill-rule="nonzero" stroke-linejoin="miter" stroke-miterlimit="10" stroke-dasharray="" stroke-dashoffset="0" style="mix-blend-mode: normal"><path d="" fill="none" stroke="#b0b0b0" stroke-width="0" stroke-linecap="butt"/><g stroke="#160404" stroke-width="0.5" stroke-linecap="round"><path d="" fill="#505356"/><path d="" fill="#505356"/><path d="" fill="#57140f"/><path d="" fill="#505356"/><path d="" fill="#57140f"/><path d="" fill="#505356"/><path d="" fill="#505356"/><path d="" fill="#505356"/></g><g fill="#505356" stroke="#191919" stroke-width="0.5" stroke-linecap="butt"><g><g><path d="M220.65001,190.06577v-4.02426h3.9566v4.02426z"/><path d="M224.68032,190.08495c-0.02443,0.0084 0.01918,-4.04344 0.01918,-4.04344c0,0 16.38128,-12.42015 16.41551,-12.40118c0.01823,0.0101 0,4.0342 0,4.0342c0,0 -16.37647,12.39042 -16.4347,12.41043z"/><path d="M224.69951,186.0596c0,0 -4.04719,0.00654 -4.03988,-0.02275c0.01088,-0.04362 16.45388,-12.39125 16.45388,-12.39125c0,0 3.97066,-0.0165 3.98165,-0.01699c0.0029,-0.00013 -0.03897,0.03348 -0.12095,0.09729c-1.49228,1.16158 -16.27469,12.33369 -16.27469,12.33369z"/></g><g><path d="M224.63446,190.08748v-4.02426h3.9566v4.02426z"/><path d="M228.66477,190.10666c-0.02443,0.0084 0.01918,-4.04344 0.01918,-4.04344c0,0 16.38128,-12.42015 16.41551,-12.40118c0.01823,0.0101 0,4.0342 0,4.0342c0,0 -16.37647,12.39042 -16.4347,12.41043z"/><path d="M228.68396,186.08131c0,0 -4.04719,0.00654 -4.03988,-0.02275c0.01088,-0.04362 16.45388,-12.39125 16.45388,-12.39125c0,0 3.97066,-0.0165 3.98165,-0.01699c0.0029,-0.00013 -0.03897,0.03348 -0.12095,0.09729c-1.49228,1.16158 -16.27469,12.33369 -16.27469,12.33369z"/></g></g><g><g><path d="M220.65001,186.02744v-4.02426h3.9566v4.02426z"/><path d="M224.68032,186.04663c-0.02443,0.0084 0.01918,-4.04344 0.01918,-4.04344c0,0 16.38128,-12.42015 16.41551,-12.40118c0.01823,0.0101 0,4.0342 0,4.0342c0,0 -16.37647,12.39042 -16.4347,12.41043z"/><path d="M224.69951,182.02127c0,0 -4.04719,0.00654 -4.03988,-0.02275c0.01088,-0.04362 16.45388,-12.39125 16.45388,-12.39125c0,0 3.97066,-0.0165 3.98165,-0.01699c0.0029,-0.00013 -0.03897,0.03348 -0.12095,0.09729c-1.49228,1.16158 -16.27469,12.33369 -16.27469,12.33369z"/></g><g><path d="M224.63446,186.04915v-4.02426h3.9566v4.02426z"/><path d="M228.66477,186.06834c-0.02443,0.0084 0.01918,-4.04344 0.01918,-4.04344c0,0 16.38128,-12.42015 16.41551,-12.40118c0.01823,0.0101 0,4.0342 0,4.0342c0,0 -16.37647,12.39042 -16.4347,12.41043z"/><path d="M228.68396,182.04299c0,0 -4.04719,0.00654 -4.03988,-0.02275c0.01088,-0.04362 16.45388,-12.39125 16.45388,-12.39125c0,0 3.97066,-0.0165 3.98165,-0.01699c0.0029,-0.00013 -0.03897,0.03348 -0.12095,0.09729c-1.49228,1.16158 -16.27469,12.33369 -16.27469,12.33369z"/></g></g></g></g></g></svg>