<svg version="1.1" xmlns="http://www.w3.org/2000/svg" xmlns:xlink="http://www.w3.org/1999/xlink" width="48.875" height="48.875" viewBox="0,0,48.875,48.875"><g transform="translate(-215.5625,-155.5625)"><g data-paper-data="{&quot;isPaintingLayer&quot;:true}" fill-rule="nonzero" stroke-linejoin="miter" stroke-miterlimit="10" stroke-dasharray="" stroke-dashoffset="0" style="mix-blend-mode: normal"><path d="M215.5625,204.4375v-48.875h48.875v48.875z" fill="none" stroke="#b0b0b0" stroke-width="0" stroke-linecap="butt"/><path d="" fill="none" stroke="#b0b0b0" stroke-width="0" stroke-linecap="butt"/><g stroke="#160404" stroke-width="0.5" stroke-linecap="round"><path d="" fill="#505356"/><path d="" fill="#505356"/><path d="" fill="#57140f"/><path d="" fill="#505356"/><path d="" fill="#57140f"/><path d="" fill="#505356"/><path d="" fill="#505356"/><path d="" fill="#505356"/></g><g stroke-width="0.25"><g fill="#2a2c2e" stroke="#191919" stroke-linecap="butt"><g><g><path d="M235.19547,184.01425v-1.58108h1.5545v1.58108z"/><path d="M236.77892,184.02178c-0.0096,0.0033 0.00754,-1.58862 0.00754,-1.58862c0,0 6.436,-4.87972 6.44945,-4.87227c0.00716,0.00397 0,1.58499 0,1.58499c0,0 -6.43411,4.86804 -6.45699,4.8759z"/><path d="M236.78646,182.44027c0,0 -1.59009,0.00257 -1.58722,-0.00894c0.00427,-0.01714 6.46452,-4.86837 6.46452,-4.86837c0,0 1.56002,-0.00648 1.56434,-0.00668c0.00114,-0.00005 -0.01531,0.01315 -0.04752,0.03822c-0.5863,0.45637 -6.39412,4.84575 -6.39412,4.84575z"/></g><g><path d="M236.76091,184.02278v-1.58108h1.5545v1.58108z"/><path d="M238.34437,184.03031c-0.0096,0.0033 0.00754,-1.58862 0.00754,-1.58862c0,0 6.436,-4.87972 6.44945,-4.87227c0.00716,0.00397 0,1.58499 0,1.58499c0,0 -6.43411,4.86804 -6.45699,4.8759z"/><path d="M238.35191,182.4488c0,0 -1.59009,0.00257 -1.58722,-0.00894c0.00427,-0.01714 6.46452,-4.86837 6.46452,-4.86837c0,0 1.56002,-0.00648 1.56434,-0.00668c0.00114,-0.00005 -0.01531,0.01315 -0.04752,0.03822c-0.5863,0.45637 -6.39412,4.84575 -6.39412,4.84575z"/></g></g><g><g><path d="M235.19547,182.42764v-1.58108h1.5545v1.58108z"/><path d="M236.77892,182.43518c-0.0096,0.0033 0.00754,-1.58862 0.00754,-1.58862c0,0 6.436,-4.87972 6.44945,-4.87227c0.00716,0.00397 0,1.58499 0,1.58499c0,0 -6.43411,4.86804 -6.45699,4.8759z"/><path d="M236.78646,180.85366c0,0 -1.59009,0.00257 -1.58722,-0.00894c0.00427,-0.01714 6.46452,-4.86837 6.46452,-4.86837c0,0 1.56002,-0.00648 1.56434,-0.00668c0.00114,-0.00005 -0.01531,0.01315 -0.04752,0.03822c-0.5863,0.45637 -6.39412,4.84575 -6.39412,4.84575z"/></g><g><path d="M236.76091,182.43617v-1.58108h1.5545v1.58108z"/><path d="M238.3519,180.85509c0,0 6.436,-4.87972 6.44945,-4.87227c0.00716,0.00397 0,1.58499 0,1.58499c0,0 -6.43411,4.86804 -6.45699,4.8759z"/><path d="M238.35191,180.8622c0,0 -1.59009,0.00257 -1.58722,-0.00894c0.00427,-0.01714 6.46452,-4.86837 6.46452,-4.86837c0,0 1.56002,-0.00648 1.56434,-0.00668c0.00114,-0.00005 -0.01531,0.01315 -0.04752,0.03822c-0.5863,0.45637 -6.39412,4.84575 -6.39412,4.84575z"/></g></g></g><path d="M236.82399,180.2653l-0.35893,0.32404l-0.35154,-0.15039l0.42404,-0.3211z" fill="#17181a" stroke="#171819" stroke-linecap="round"/><path d="M242.83566,179.97223l-0.51738,0.51738l-0.37187,-0.3557l0.46888,-0.45271z" fill="#17181a" stroke="#171819" stroke-linecap="round"/><path d="M236.01043,183.21236l0.00721,0.19146l-0.47299,0.16846l0.01076,-0.62353z" fill="#17181a" stroke="#171819" stroke-linecap="round"/><path d="M242.74412,177.19338l-0.32547,0.25836l-0.31829,-0.22553l0.41518,-0.30483z" fill="#17181a" stroke="#171819" stroke-linecap="round"/></g><path d="M232.31132,180c0,-4.24634 3.44234,-7.68868 7.68868,-7.68868c4.24634,0 7.68868,3.44234 7.68868,7.68868c0,4.24634 -3.44234,7.68868 -7.68868,7.68868c-4.24634,0 -7.68868,-3.44234 -7.68868,-7.68868z" fill-opacity="0.15686" fill="#00c8ff" stroke="#000000" stroke-width="1" stroke-linecap="butt"/></g></g></svg>