<svg version="1.1" xmlns="http://www.w3.org/2000/svg" xmlns:xlink="http://www.w3.org/1999/xlink" width="21.51609" height="21.51609" viewBox="0,0,21.51609,21.51609"><g transform="translate(-229.24195,-169.24195)"><g data-paper-data="{&quot;isPaintingLayer&quot;:true}" fill-rule="nonzero" stroke-linejoin="miter" stroke-miterlimit="10" stroke-dasharray="" stroke-dashoffset="0" style="mix-blend-mode: normal"><path d="M229.99196,190.00805v-20.01609h20.01609v20.01609z" fill="#571b17" stroke="#380d09" stroke-width="1.5" stroke-linecap="butt"/><path d="M237.57161,183.90588l-1.91011,1.96629l1.79775,2.24719l-4.83146,-0.50562v-2.92135l4.60674,-0.8427z" fill="#3f0e0b" stroke-opacity="0.3451" stroke="#370c09" stroke-width="2.5" stroke-linecap="round"/><path d="M248.47051,180.08565l0.33708,4.1573l-5.8427,-1.91011l-0.16854,-1.74157l3.59551,-2.13483z" fill="#3f0e0b" stroke-opacity="0.3451" stroke="#370c09" stroke-width="2.5" stroke-linecap="round"/><path d="M239.48176,176.77105l-1.79775,1.91011l-3.65169,-0.5618l-2.58427,-3.82022l3.8764,-2.35955z" fill="#3f0e0b" stroke-opacity="0.3451" stroke="#380d09" stroke-width="2.5" stroke-linecap="round"/><path d="M239.48176,176.77105l-1.79775,1.91011l-3.65169,-0.5618l-2.58427,-3.82022l3.8764,-2.35955z" fill="#3f0e0b" stroke="#380d09" stroke-width="0.5" stroke-linecap="round"/><path d="M248.47051,180.08565l0.33708,4.1573l-5.8427,-1.91011l-0.16854,-1.74157l3.59551,-2.13483z" fill="#3f0e0b" stroke="#380d09" stroke-width="0.5" stroke-linecap="round"/><path d="M237.57161,183.90588l-1.91011,1.96629l1.79775,2.24719l-4.83146,-0.50562v-2.92135l4.60674,-0.8427z" fill="#3f0e0b" stroke="#380d09" stroke-width="0.5" stroke-linecap="round"/></g></g></svg>