<svg version="1.1" xmlns="http://www.w3.org/2000/svg" xmlns:xlink="http://www.w3.org/1999/xlink" width="21.51609" height="21.51609" viewBox="0,0,21.51609,21.51609"><g transform="translate(-229.24199,-169.24201)"><g data-paper-data="{&quot;isPaintingLayer&quot;:true}" fill-rule="nonzero" stroke-linejoin="miter" stroke-miterlimit="10" stroke-dasharray="" stroke-dashoffset="0" style="mix-blend-mode: normal"><path d="M229.99199,190.0081v-20.01609h20.01609v20.01609z" fill="#571b17" stroke="#380d09" stroke-width="1.5" stroke-linecap="butt"/><g fill="#3f0e0b" stroke-opacity="0.3451" stroke="#370c09" stroke-width="2.5" stroke-linecap="round"><path d="M247.40308,174.17652l-0.8427,2.35955l-2.35955,0.5618l-4.4382,-0.44944l-1.1236,-2.86517l0.44944,-1.79775l5.95506,0.5618z"/><path d="M239.81882,186.43399l-3.93258,1.62921l-3.76404,-1.06742l-0.89888,-3.03371l4.66292,-0.11236z"/><path d="M247.62782,182.60038l-1.01124,2.30337l-4.60674,-0.5618l-0.05618,-2.19101l3.53933,-2.47191z"/></g><path d="M247.40308,174.17652l-0.8427,2.35955l-2.35955,0.5618l-4.4382,-0.44944l-1.1236,-2.86517l0.44944,-1.79775l5.95506,0.5618z" fill="#3f0e0b" stroke="#380d09" stroke-width="0.5" stroke-linecap="round"/><path d="M239.81882,186.43399l-3.93258,1.62921l-3.76404,-1.06742l-0.89888,-3.03371l4.66292,-0.11236z" fill="#3f0e0b" stroke="#380d09" stroke-width="0.5" stroke-linecap="round"/><path d="M247.62782,182.60038l-1.01124,2.30337l-4.60674,-0.5618l-0.05618,-2.19101l3.53933,-2.47191z" fill="#3f0e0b" stroke="#380d09" stroke-width="0.5" stroke-linecap="round"/></g></g></svg>