<svg version="1.1" xmlns="http://www.w3.org/2000/svg" xmlns:xlink="http://www.w3.org/1999/xlink" width="21.51609" height="21.51609" viewBox="0,0,21.51609,21.51609"><g transform="translate(-229.24199,-169.24201)"><g data-paper-data="{&quot;isPaintingLayer&quot;:true}" fill-rule="nonzero" stroke-linejoin="miter" stroke-miterlimit="10" stroke-dasharray="" stroke-dashoffset="0" style="mix-blend-mode: normal"><path d="M229.99199,190.0081v-20.01609h20.01609v20.01609z" fill="#571b17" stroke="#380d09" stroke-width="1.5" stroke-linecap="butt"/><path d="M242.76515,173.48485l3.33333,1.59091l0.15152,2.57576l-4.01515,2.12121l-2.34848,2.27273l0.83333,2.42424l-0.98485,2.04545l-5,-0.83333l0.07576,-2.19697l-1.06061,-2.87879l1.81818,-5.07576l4.24242,-2.04545z" fill="none" stroke-opacity="0.3451" stroke="#170303" stroke-width="2.5" stroke-linecap="round"/><path d="M247.84631,179.54592l-3.48485,5.5303l-2.96777,-0.78404l-0.68543,-2.01539l1.90957,-1.92159l3.84921,-2.14286z" fill="#505356" stroke="#160404" stroke-width="0.5" stroke-linecap="round"/><path d="M242.76518,173.48485l3.33333,1.59091l0.15152,2.57576l-4.01515,2.12121l-2.34848,2.27273l0.83333,2.42424l-0.98485,2.04545l-5,-0.83333l0.07576,-2.19697l-1.06061,-2.87879l1.81818,-5.07576l4.24242,-2.04545z" fill="none" stroke="#380d09" stroke-width="1" stroke-linecap="round"/><path d="M241.53512,178.26269l-1.42336,1.13139l-2.81022,1.13139l-0.54745,-3.24818l4.12409,-2.08029z" fill="#505356" stroke="#160404" stroke-width="0.5" stroke-linecap="round"/><path d="M235.8084,173.2372l-1.0219,0.65693l-2.33577,2.51825l-0.62044,-3.24818l2.33577,-1.45985z" fill="#505356" stroke="#160404" stroke-width="0.5" stroke-linecap="round"/></g></g></svg>