<svg version="1.1" xmlns="http://www.w3.org/2000/svg" xmlns:xlink="http://www.w3.org/1999/xlink" width="401.5" height="257.40063" viewBox="0,0,401.5,257.40063"><defs><linearGradient x1="120.62009" y1="106.3276" x2="169.67122" y2="106.3276" gradientUnits="userSpaceOnUse" id="color-1"><stop offset="0" stop-color="#35eb29"/><stop offset="1" stop-color="#dceb3d"/></linearGradient></defs><g transform="translate(-39.25,-51.29968)"><g data-paper-data="{&quot;isPaintingLayer&quot;:true}" fill-rule="nonzero" stroke-linejoin="miter" stroke-miterlimit="10" stroke-dasharray="" stroke-dashoffset="0" style="mix-blend-mode: normal"><path d="M40,307.95031v-255.90063h400v255.90063z" fill="#3c3f41" stroke="#bbbbbb" stroke-width="1.5" stroke-linecap="butt"/><path d="M439.88201,72.42625h-399.41003" fill="none" stroke="#bbbbbb" stroke-width="1.5" stroke-linecap="round"/><path d="M421.63225,68.16617l11.4061,-11.4061" fill="none" stroke="#bbbbbb" stroke-width="1.5" stroke-linecap="round"/><path d="M433.03835,68.16617l-11.4061,-11.4061" data-paper-data="{&quot;index&quot;:null}" fill="none" stroke="#bbbbbb" stroke-width="1.5" stroke-linecap="round"/><path d="M414.21829,72.42625v-19.46903" fill="none" stroke="#bbbbbb" stroke-width="1.5" stroke-linecap="round"/><path d="M43.85448,62.16814c0,-3.63845 2.94955,-6.588 6.588,-6.588c3.63845,0 6.588,2.94955 6.588,6.588c0,3.63845 -2.94955,6.588 -6.588,6.588c-3.63845,0 -6.588,-2.94955 -6.588,-6.588z" fill="none" stroke="#bbbbbb" stroke-width="1.5" stroke-linecap="butt"/><path d="M49.9823,66.41003v-4.48378h0.82596v4.48378z" fill="#bbbbbb" stroke="#bbbbbb" stroke-width="1.5" stroke-linecap="butt"/><path d="M48.56637,58.74041c0,-0.9775 0.79241,-1.76991 1.76991,-1.76991c0.9775,0 1.76991,0.79241 1.76991,1.76991c0,0.9775 -0.79241,1.76991 -1.76991,1.76991c-0.9775,0 -1.76991,-0.79241 -1.76991,-1.76991z" fill="#bbbbbb" stroke="none" stroke-width="0.5" stroke-linecap="butt"/><text transform="translate(59.87416,65.52408) scale(0.27804,0.27804)" font-size="40" xml:space="preserve" fill="#bbbbbb" fill-rule="nonzero" stroke="none" stroke-width="1" stroke-linecap="butt" stroke-linejoin="miter" stroke-miterlimit="10" stroke-dasharray="" stroke-dashoffset="0" font-family="Sans Serif" font-weight="normal" text-anchor="start" style="mix-blend-mode: normal"><tspan x="0" dy="0">Описание проекта</tspan></text><text transform="translate(50.40547,184.68027) scale(0.84709,0.84709)" font-size="40" xml:space="preserve" fill="#bbbbbb" fill-rule="nonzero" stroke="none" stroke-width="1" stroke-linecap="butt" stroke-linejoin="miter" stroke-miterlimit="10" stroke-dasharray="" stroke-dashoffset="0" font-family="Sans Serif" font-weight="normal" text-anchor="start" style="mix-blend-mode: normal"><tspan x="0" dy="0">Помогает взламывать</tspan><tspan x="0" dy="46.150000000000006px">    пароли аккаунтов</tspan><tspan x="0" dy="46.150000000000006px">    Имеет уровни 1-5</tspan></text><g stroke-linecap="butt"><path d="M169.67122,122.411c0,4.08032 -3.30925,7.38871 -7.38871,7.38871h-34.27459c-4.08032,0 -7.38785,-3.30925 -7.38785,-7.38871v-32.1677c0,-4.08032 3.30753,-7.38785 7.38785,-7.38785h34.27373c4.08204,0 7.38871,3.30753 7.38871,7.38785v32.1677z" fill="url(#color-1)" stroke="#000000" stroke-width="2.5"/><g fill="none" stroke="#000000" stroke-width="1.5"><g data-paper-data="{&quot;index&quot;:null}"><path d="M159.49165,102.38953c-0.9924,-0.41901 -3.18481,0.31305 -3.18481,0.31305l-1.52631,-5.72368c0,0 5.14577,0.74723 6.66085,2.14798c1.80464,1.66843 3.45099,7.20071 3.45099,7.20071c0,0 -3.81744,-3.26956 -5.40072,-3.93806z"/><path d="M159.87323,111.35664c-0.99239,-0.41901 -3.75717,0.31305 -3.75717,0.31305l0.19079,-5.72368c0,0 4.00104,0.74724 5.51612,2.14798c1.80464,1.66844 3.45099,7.20071 3.45099,7.20071c0,0 -3.81745,-3.26955 -5.40072,-3.93805z"/><path d="M157.20218,120.13296c-0.99239,-0.41901 -6.42822,-0.83169 -6.42822,-0.83169l4.00658,-4.19736c0,0 4.00104,0.74724 5.51612,2.14798c1.80464,1.66844 3.45098,7.20071 3.45098,7.20071c0,0 -4.96218,-3.65113 -6.54546,-4.31963z"/></g><path d="M156.11606,106.70916c0,7.48128 -3.23721,13.54605 -11.06579,13.54605c-7.82858,0 -11.06579,-6.06478 -11.06579,-13.54605c0,-7.48128 0.74222,-13.70012 11.06579,-13.54605c9.91786,0.14801 11.06579,6.06477 11.06579,13.54605z"/><path d="M125.39892,106.32759c0,0 1.64634,-5.53228 3.45099,-7.20071c1.51508,-1.40074 6.66085,-2.14798 6.66085,-2.14798l-1.52631,5.72368c0,0 -2.19241,-0.73206 -3.18481,-0.31305c-1.58328,0.6685 -5.40072,3.93806 -5.40072,3.93806z"/><path d="M125.01734,115.29468c0,0 1.64634,-5.53227 3.45099,-7.20071c1.51508,-1.40073 5.51612,-2.14798 5.51612,-2.14798l0.19079,5.72368c0,0 -2.76478,-0.73206 -3.75717,-0.31305c-1.58328,0.6685 -5.40072,3.93805 -5.40072,3.93805z"/><path d="M126.54368,124.45259c0,0 1.64634,-5.53227 3.45099,-7.20071c1.51508,-1.40073 5.51612,-2.14798 5.51612,-2.14798l4.00658,4.19736c0,0 -5.43583,0.41268 -6.42822,0.83169c-1.58328,0.6685 -6.54546,4.31963 -6.54546,4.31963z"/><path d="M139.89892,93.73548c0,0 -3.80574,-0.11899 -4.41137,-0.99715c-0.66138,-0.959 0.59558,-4.53574 0.59558,-4.53574c0,0 2.02814,2.09375 3.23508,2.95131c1.20972,0.85953 4.01492,2.20001 4.01492,2.20001z"/><path d="M145.21633,93.3539c0,0 2.8052,-1.34047 4.01492,-2.20001c1.20694,-0.85756 3.23508,-2.95131 3.23508,-2.95131c0,0 1.25696,3.57674 0.59558,4.53575c-0.60563,0.87816 -4.41137,0.99715 -4.41137,0.99715z" data-paper-data="{&quot;index&quot;:null}"/></g><text transform="translate(176.80314,120.40263) scale(0.89516,0.89516)" font-size="40" xml:space="preserve" fill="#d1d1d1" fill-rule="nonzero" stroke="none" stroke-width="1" stroke-linecap="butt" stroke-linejoin="miter" stroke-miterlimit="10" stroke-dasharray="" stroke-dashoffset="0" font-family="Sans Serif" font-weight="normal" text-anchor="start" style="mix-blend-mode: normal"><tspan x="0" dy="0">Bruteforce</tspan></text></g></g></g></svg>