<svg version="1.1" xmlns="http://www.w3.org/2000/svg" xmlns:xlink="http://www.w3.org/1999/xlink" width="147.66984" height="107.60875" viewBox="0,0,147.66984,107.60875"><defs><radialGradient cx="240.53221" cy="180.23933" r="65.80343" gradientUnits="userSpaceOnUse" id="color-1"><stop offset="0" stop-color="#ff8a00"/><stop offset="1" stop-color="#000000"/></radialGradient></defs><g transform="translate(-166.16508,-136.39125)"><g data-paper-data="{&quot;isPaintingLayer&quot;:true}" stroke-linecap="butt" stroke-linejoin="miter" stroke-miterlimit="10" stroke-dasharray="" stroke-dashoffset="0" style="mix-blend-mode: normal"><path d="M166.16508,243.91335v-107.5221h147.66984v107.5221z" fill="#ffffff" fill-rule="nonzero" stroke="none" stroke-width="0"/><path d="M172,220.75v-81.5h136v81.5z" fill="#bb0000" fill-rule="nonzero" stroke="none" stroke-width="0"/><path d="M167.15254,222.69539v-85.39073h145.69492v85.39073zM306.30245,213.7052c0,-13.76894 0,-59.48565 0,-66.96176c0,-2.02466 -1.62431,-3.73601 -3.76958,-3.73863c-11.22048,-0.01366 -105.05287,-0.12843 -124.32303,-0.15201c-2.22047,-0.00271 -3.44984,1.24221 -3.448,3.40826c0.01142,13.27624 0.05256,61.10025 0.05867,68.21596c0.0015,1.73532 1.24511,3.14875 3.48587,3.14875c19.34968,0 113.14675,0 124.27487,0c2.11911,0 3.72116,-1.44315 3.72116,-3.92057z" fill="#ffffff" fill-rule="nonzero" stroke="none" stroke-width="0"/><path d="M306.3356,213.7221c0,2.47741 -1.60335,3.9229 -3.72246,3.9229c-11.12813,0 -104.98898,-0.00004 -124.33866,-0.00004c-2.24076,0 -3.48547,-1.41541 -3.48697,-3.15073c-0.00611,-7.11571 -0.04731,-54.974 -0.05873,-68.25025c-0.00185,-2.16606 1.22867,-3.41303 3.44915,-3.41032c19.27016,0.02359 113.16639,0.13834 124.38687,0.152c2.14527,0.00262 3.77083,1.71624 3.77083,3.74091c0,7.47612 0.00001,53.22659 0.00001,66.99554z" data-paper-data="{&quot;noHover&quot;:false,&quot;origItem&quot;:[&quot;Path&quot;,{&quot;applyMatrix&quot;:true,&quot;segments&quot;:[[[390.11262,450.54452],[0,0],[0,-36.98842]],[[390.11262,270.66074],[0,20.08358],[0,-5.43898]],[[379.98616,260.6174],[5.76298,0.00704],[-30.1423,-0.0367]],[[46.00902,260.20904],[51.7667,0.06336],[-5.965,-0.00728]],[[36.74644,269.36488],[-0.00496,-5.81882],[0.03068,35.66484]],[[36.90406,452.6179],[-0.01642,-19.1154],[0.00402,4.6617]],[[46.26838,461.0766],[-6.0195,0],[51.98032,0]],[[380.11614,461.0766],[-29.89422,0],[5.6927,0]],[[390.11254,450.54452],[0,6.65524],[0,0]]],&quot;closed&quot;:true,&quot;fillColor&quot;:[0,0,0,1]}]}" fill="url(#color-1)" fill-rule="nonzero" stroke="#dbdbdb" stroke-width="0.5"/><text transform="translate(179.71022,237.75) scale(0.5,0.5)" font-size="40" xml:space="preserve" fill="#000000" fill-rule="nonzero" stroke="#000000" stroke-width="1" stroke-linecap="butt" stroke-linejoin="miter" stroke-miterlimit="10" stroke-dasharray="" stroke-dashoffset="0" font-family="Sans Serif" font-weight="normal" text-anchor="start" style="mix-blend-mode: normal"><tspan x="0" dy="0">Тако Кликер</tspan></text><g fill-rule="evenodd" stroke="none" stroke-width="1"><path d="M205.19592,205.05635c-9.61018,0 -3.79266,-40.00115 20.71732,-39.40766c24.96594,0.60513 34.03023,39.40766 34.03023,39.40766z" fill="#efab00"/><path d="M278.04698,189.00046c0,0 -49.8811,13.28223 -58.83431,14.60146c-11.98945,1.76673 -15.96301,-2.08834 -17.41025,-8.33115c-2.39408,-10.32639 5.94976,-10.66704 8.50677,-16.30895c2.55594,-5.64296 -3.4573,-14.82257 8.50676,-15.29652c10.0069,-0.39672 10.15924,-8.08571 15.07859,-8.65064c7.62975,-0.87596 9.29597,6.36765 14.94106,8.38616c5.33194,1.90638 8.13755,-2.97171 14.1053,-0.5734c5.11294,2.05555 5.34357,12.98072 12.07831,15.25209c10.97596,3.70273 3.02778,10.92095 3.02778,10.92095" fill="#59c059"/><path d="M213.2336,185.83599c-1.0886,-0.33007 -1.71066,-1.49273 -1.37953,-2.58133l0.66332,-2.18779c0.33007,-1.0886 1.49167,-1.70961 2.58133,-1.37953l5.82493,1.76567c1.08966,0.33113 1.71066,1.49273 1.37953,2.58239l-0.66332,2.18673c-0.33007,1.08966 -1.49167,1.7096 -2.58133,1.37953l-5.82493,-1.76567" fill="#e8511c"/><path d="M209.3305,184.29142c1.20603,0.3068 2.93045,1.61862 4.33749,1.96774c-3.63926,9.4261 -4.29517,18.46077 -8.80193,18.77815h-0.02116c-3.45941,-0.28564 -7.19388,-3.52289 -5.03572,-6.85535c1.28009,-1.97832 -0.70881,-4.4327 -0.16927,-6.70723c0.77228,-3.27956 4.12591,-3.98837 5.28962,-4.31633c1.26951,-0.34912 2.61307,-3.32188 4.40096,-2.86697" fill="#c18500"/><path d="M218.39669,180.69406c-1.0685,1.936 -1.94658,3.92489 -2.68713,5.89263l-0.99445,-0.3068l-0.95213,-0.28458c0.77228,-1.96879 1.6821,-3.94711 2.78234,-5.8609z" fill="#c6431a"/><path d="M215.70956,186.58712c-3.50173,9.2251 -4.21054,17.9847 -8.5586,18.43961c-0.5078,0 -0.7617,0 -1.60804,0.03174h-0.21159c-0.15869,0 -0.3068,-0.01058 -0.46549,-0.02116c4.50676,-0.31738 5.16267,-9.35205 8.80193,-18.77815c0.38085,0.09521 0.72997,0.11637 1.04734,0.02116z" fill="#a06b00"/><path d="M217.62493,173.73292c-1.02618,0.49194 -2.26925,0.05396 -2.76012,-0.97329l-0.19043,-0.39566c-0.49088,-1.02724 -0.0529,-2.26819 0.97329,-2.76012l2.84052,-1.35943c1.02724,-0.49194 2.26925,-0.05395 2.76012,0.97223l0.19043,0.39672c0.49088,1.02618 0.0529,2.26925 -0.97329,2.76012l-2.84052,1.35943" fill="#e8511c"/><path d="M246.45283,165.00558c-0.77228,0.01058 -1.56573,0.0529 -2.38033,0.11637c-14.19734,1.08966 -21.44411,7.89211 -25.67581,15.57263l-1.85136,-0.5607c4.27401,-7.45836 11.51021,-13.94343 25.35843,-15.01194c1.58689,-0.12695 3.09971,-0.15869 4.54907,-0.11637" fill="#4ba04b"/><path d="M270.9555,180.9761c-0.56916,-0.98598 -0.22851,-2.25867 0.75853,-2.82783l1.00714,-0.58186c0.98598,-0.56916 2.25867,-0.22745 2.82783,0.75747l2.15076,3.72601c0.56916,0.98598 0.22851,2.25761 -0.75853,2.82783l-1.00714,0.5808c-0.98598,0.56916 -2.25867,0.22851 -2.82783,-0.75747l-2.15076,-3.72495" fill="#e8511c"/><path d="M246.55618,166.69932c-1.07379,0.37873 -2.26184,-0.18831 -2.64058,-1.2621l-0.3872,-1.09707c-0.37979,-1.07379 0.18725,-2.26184 1.26104,-2.64164l4.05608,-1.43349c1.07379,-0.37873 2.26184,0.18937 2.64058,1.2621l0.38826,1.09706c0.37979,1.07379 -0.18831,2.2629 -1.2621,2.64164l-4.05608,1.43349" fill="#e8511c"/><path d="M206.78259,205.05635c9.52131,0 2.35177,-37.25478 37.29181,-39.93662c27.81493,-2.13489 34.6999,21.46316 36.14608,33.85568c0.37768,3.23407 -2.11585,6.08094 -5.37002,6.08094z" fill="#ffbf00"/><path d="M232.15848,164.05504c-0.3068,0 -0.61148,-0.1333 -0.82095,-0.39037c-0.36922,-0.45279 -0.30045,-1.11928 0.15234,-1.48744l5.5541,-4.52368c0.45385,-0.3671 1.12034,-0.30045 1.4885,0.15234c0.36922,0.45279 0.30045,1.11928 -0.15234,1.4885l-5.5541,4.52262c-0.19677,0.15975 -0.43269,0.23803 -0.66755,0.23803" fill="#ffbf00"/><path d="M268.22394,167.36623c-0.06559,0 -0.13118,-0.00529 -0.19783,-0.01904l-7.03837,-1.33193c-0.57445,-0.10791 -0.95107,-0.66226 -0.84316,-1.23565c0.10897,-0.57445 0.66332,-0.95742 1.23565,-0.84317l7.03943,1.33298c0.57445,0.10791 0.95108,0.66226 0.84211,1.23566c-0.09521,0.5078 -0.53954,0.86115 -1.03782,0.86115" fill="#ffbf00"/><path d="M208.10055,189.08414c-0.23486,0 -0.47183,-0.07723 -0.66861,-0.23909l-5.55093,-4.52791c-0.45279,-0.36816 -0.5205,-1.03465 -0.15022,-1.48744c0.36922,-0.45173 1.03465,-0.52155 1.4885,-0.15128l5.55092,4.52897c0.45279,0.36816 0.5205,1.03465 0.15022,1.48744c-0.20841,0.25602 -0.51309,0.38932 -0.81989,0.38932" fill="#ffbf00"/><path d="M267.78797,186.06228c-1.72547,0 -1.72865,-2.68183 0,-2.68183c1.72653,0 1.72865,2.68183 0,2.68183" fill="#efab00"/><path d="M254.05358,188.46112c-1.72547,0 -1.72865,-2.68183 0,-2.68183c1.72653,0 1.72865,2.68183 0,2.68183" fill="#efab00"/><path d="M252.39328,199.5032c-1.72547,0 -1.72865,-2.68183 0,-2.68183c1.72653,0 1.72971,2.68183 0,2.68183" fill="#efab00"/><path d="M229.67797,200.84423c-1.72547,0 -1.72865,-2.68184 0,-2.68184c1.72547,0 1.72865,2.68184 0,2.68184" fill="#efab00"/><path d="M232.33568,177.52653c-1.72547,0 -1.72865,-2.68184 0,-2.68184c1.72547,0 1.72865,2.68184 0,2.68184" fill="#efab00"/><path d="M246.55301,171.44971c-1.72547,0 -1.72865,-2.68289 0,-2.68289c1.72547,0 1.72865,2.68289 0,2.68289" fill="#efab00"/><path d="M239.58352,190.08525c-1.72547,0 -1.72865,-2.68184 0,-2.68184c1.72547,0 1.72865,2.68184 0,2.68184" fill="#efab00"/><path d="M224.73799,191.14317c-1.72547,0 -1.72865,-2.68184 0,-2.68184c1.72547,0 1.72865,2.68184 0,2.68184" fill="#efab00"/><path d="M270.40697,196.95456c-1.72547,0 -1.72865,-2.68183 0,-2.68183c1.72547,0 1.72865,2.68183 0,2.68183" fill="#efab00"/><path d="M259.94347,176.18551c-1.72653,0 -1.72971,-2.68184 0,-2.68184c1.72547,0 1.72865,2.68184 0,2.68184" fill="#efab00"/><path d="M213.76309,185.99511l0.95213,0.28564c-0.31738,0.09416 -0.66649,0.07406 -1.04734,-0.02116c0.03174,-0.08463 0.06347,-0.16927 0.09521,-0.26448" fill="#4ba04b"/></g></g></g></svg>