<svg version="1.1" xmlns="http://www.w3.org/2000/svg" xmlns:xlink="http://www.w3.org/1999/xlink" width="311.33128" height="68.65254" viewBox="0,0,311.33128,68.65254"><defs><linearGradient x1="-32.30446" y1="180.00024" x2="77.00473" y2="180.00024" gradientUnits="userSpaceOnUse" id="color-1"><stop offset="0" stop-color="#00afc7"/><stop offset="1" stop-color="#00fff6"/></linearGradient></defs><g transform="translate(1.08217,-145.67373)"><g data-paper-data="{&quot;isPaintingLayer&quot;:true}" fill-rule="nonzero" stroke-miterlimit="10" stroke-dasharray="" stroke-dashoffset="0" style="mix-blend-mode: normal"><path d="M-1.08217,214.32627v-68.65254h311.33128v68.65254z" fill="#ffffff" stroke="none" stroke-width="0" stroke-linecap="butt" stroke-linejoin="miter"/><g stroke="#000000" stroke-width="2.5"><path d="M77.00485,202.49969c0,5.7081 -4.62942,10.33632 -10.33632,10.33632h-47.94796c-5.7081,0 -10.33512,-4.62942 -10.33512,-10.33632v-45.00055c0,-5.7081 4.62702,-10.33512 10.33512,-10.33512h47.94676c5.7105,0 10.33632,4.62702 10.33632,10.33512v45.00055z" fill="url(#color-1)" stroke-linecap="butt" stroke-linejoin="miter"/><path d="M24.17725,203.80872c0,-10.22717 8.29075,-18.5179 18.5179,-18.5179c10.22717,0 18.5179,8.29073 18.5179,18.5179M53.27682,166.77291c0,-5.84409 -4.73768,-10.58166 -10.58166,-10.58166c-5.84409,0 -10.58166,4.73757 -10.58166,10.58166c0,5.84409 4.73757,10.58166 10.58166,10.58166c5.84398,0 10.58166,-4.73757 10.58166,-10.58166z" fill="none" stroke-linecap="round" stroke-linejoin="round"/></g><text transform="translate(87.1574,192.57498) scale(0.9117,0.9117)" font-size="40" xml:space="preserve" fill="#000000" fill-rule="nonzero" stroke="none" stroke-width="1" stroke-linecap="butt" stroke-linejoin="miter" stroke-miterlimit="10" stroke-dasharray="" stroke-dashoffset="0" font-family="Sans Serif" font-weight="normal" text-anchor="start" style="mix-blend-mode: normal"><tspan x="0" dy="0">Ученики.txt</tspan></text></g></g></svg>