<svg version="1.1" xmlns="http://www.w3.org/2000/svg" xmlns:xlink="http://www.w3.org/1999/xlink" width="101" height="101" viewBox="0,0,101,101"><g transform="translate(-189.5,-129.5)"><g data-paper-data="{&quot;isPaintingLayer&quot;:true}" fill-rule="nonzero" stroke-miterlimit="10" stroke-dasharray="" stroke-dashoffset="0" style="mix-blend-mode: normal"><path d="M189.5,230.5v-101h101v101z" fill="none" stroke="#00fff6" stroke-width="0" stroke-linecap="butt" stroke-linejoin="miter"/><g stroke="#003c97" stroke-width="2.5"><path d="M274.83216,202.84232c0,5.79502 -4.69992,10.49372 -10.49372,10.49372h-48.67807c-5.79502,0 -10.4925,-4.69992 -10.4925,-10.49372v-45.68578c0,-5.79502 4.69748,-10.4925 10.4925,-10.4925h48.67685c5.79746,0 10.49372,4.69748 10.49372,10.4925v45.68578z" fill-opacity="0.2" fill="#003c96" stroke-linecap="butt" stroke-linejoin="miter"/><path d="M242.06843,199.50588c-0.49677,0.22486 -0.74538,0.33753 -1.30934,0.43429c-0.35701,0.06136 -1.15885,0.06136 -1.51586,0c-0.56598,-0.09721 -0.81728,-0.21009 -1.31718,-0.43653c-4.71733,-2.13513 -15.8439,-8.73072 -15.8439,-23.442v-8.88011c0,-2.50876 0,-3.76407 0.48824,-4.72227c0.42946,-0.84288 1.11422,-1.52766 1.9571,-1.9571c0.9582,-0.48824 2.21351,-0.48825 4.72227,-0.48825h21.50148c2.50874,0 3.76142,0 4.71958,0.48825c0.84281,0.42946 1.52996,1.11422 1.95932,1.9571c0.48781,0.95726 0.48781,2.21106 0.48781,4.71491v8.88748c0,14.71128 -11.12724,21.30686 -15.84436,23.442z" fill="none" stroke-linecap="round" stroke-linejoin="round"/></g></g></g></svg>