<svg version="1.1" xmlns="http://www.w3.org/2000/svg" xmlns:xlink="http://www.w3.org/1999/xlink" width="340.5" height="218.37578" viewBox="0,0,340.5,218.37578"><defs><linearGradient x1="118.34783" y1="125" x2="176.04026" y2="125" gradientUnits="userSpaceOnUse" id="color-1"><stop offset="0" stop-color="#580062"/><stop offset="1" stop-color="#d700b0"/></linearGradient></defs><g transform="translate(-69.75,-70.81211)"><g data-paper-data="{&quot;isPaintingLayer&quot;:true}" fill-rule="nonzero" stroke-linejoin="miter" stroke-miterlimit="10" stroke-dasharray="" stroke-dashoffset="0" style="mix-blend-mode: normal"><path d="M70.5,288.43789v-216.87578h339v216.87578z" fill="#ffffff" stroke="#000000" stroke-width="1.5" stroke-linecap="butt"/><g stroke-linecap="butt"><g stroke="#000000" stroke-width="2.5"><path d="M176.04026,143.91682c0,4.79914 -3.89223,8.69036 -8.69036,8.69036h-40.3127c-4.79914,0 -8.68936,-3.89223 -8.68936,-8.69036v-37.83464c0,-4.79914 3.89021,-8.68936 8.68936,-8.68936h40.31169c4.80116,0 8.69036,3.89021 8.69036,8.68936v37.83464z" fill="url(#color-1)"/><path d="M156.0376,134.69349l-18.54018,-18.54018l9.27619,-9.27619l18.54018,18.54018z" fill="none"/><path d="M149.35666,128.01889l-14.17145,14.05062c-0.66372,0.68689 -1.58235,1.06809 -2.5374,1.05293c-1.97335,0 -3.57306,-1.59971 -3.57306,-3.57306c-0.01516,-0.95504 0.36604,-1.87369 1.05293,-2.5374l14.05062,-14.17145z" fill="none"/><path d="M162.14719,113.62305c0.00499,0.94461 -0.36791,1.852 -1.03567,2.52013l-2.5374,2.5374l-5.05753,-5.05753l2.5374,-2.5374c1.02389,-1.01871 2.56038,-1.32081 3.89373,-0.76556c1.33334,0.55525 2.20127,1.85863 2.19946,3.30296z" fill="none"/></g><text transform="translate(184.84699,135.64915) scale(0.77208,0.77208)" font-size="40" xml:space="preserve" fill="#000000" fill-rule="nonzero" stroke="none" stroke-width="1" stroke-linecap="butt" stroke-linejoin="miter" stroke-miterlimit="10" stroke-dasharray="" stroke-dashoffset="0" font-family="Sans Serif" font-weight="normal" text-anchor="start" style="mix-blend-mode: normal"><tspan x="0" dy="0">Админы.txt</tspan></text></g><path d="M409.4,88.83125h-338.5" fill="none" stroke="#000000" stroke-width="1.5" stroke-linecap="round"/><path d="M393.93333,85.22083l9.66667,-9.66667" fill="none" stroke="#000000" stroke-width="1.5" stroke-linecap="round"/><path d="M403.6,85.22083l-9.66667,-9.66667" data-paper-data="{&quot;index&quot;:null}" fill="none" stroke="#000000" stroke-width="1.5" stroke-linecap="round"/><path d="M387.65,88.83125v-16.5" fill="none" stroke="#000000" stroke-width="1.5" stroke-linecap="round"/><path d="M73.76667,80.1375c0,-3.08359 2.49974,-5.58333 5.58333,-5.58333c3.08359,0 5.58333,2.49974 5.58333,5.58333c0,3.08359 -2.49974,5.58333 -5.58333,5.58333c-3.08359,0 -5.58333,-2.49974 -5.58333,-5.58333z" fill="none" stroke="#000000" stroke-width="1.5" stroke-linecap="butt"/><path d="M78.96,83.7325v-3.8h0.7v3.8z" fill="#000000" stroke="#000000" stroke-width="1.5" stroke-linecap="butt"/><path d="M77.76,77.2325c0,-0.82843 0.67157,-1.5 1.5,-1.5c0.82843,0 1.5,0.67157 1.5,1.5c0,0.82843 -0.67157,1.5 -1.5,1.5c-0.82843,0 -1.5,-0.67157 -1.5,-1.5z" fill="#000000" stroke="none" stroke-width="0.5" stroke-linecap="butt"/><text transform="translate(87.34335,82.98166) scale(0.23564,0.23564)" font-size="40" xml:space="preserve" fill="#000000" fill-rule="nonzero" stroke="none" stroke-width="1" stroke-linecap="butt" stroke-linejoin="miter" stroke-miterlimit="10" stroke-dasharray="" stroke-dashoffset="0" font-family="Sans Serif" font-weight="normal" text-anchor="start" style="mix-blend-mode: normal"><tspan x="0" dy="0">Информация</tspan></text><text transform="translate(80.23548,192.99891) scale(0.69342,0.69342)" font-size="40" xml:space="preserve" fill="#000000" fill-rule="nonzero" stroke="none" stroke-width="1" stroke-linecap="butt" stroke-linejoin="miter" stroke-miterlimit="10" stroke-dasharray="" stroke-dashoffset="0" font-family="Sans Serif" font-weight="normal" text-anchor="start" style="mix-blend-mode: normal"><tspan x="0" dy="0">    Аккаунты админов</tspan><tspan x="0" dy="46.150000000000006px">     позволяют банить</tspan><tspan x="0" dy="46.150000000000006px">нежелательных людей</tspan></text></g></g></svg>