<svg version="1.1" xmlns="http://www.w3.org/2000/svg" xmlns:xlink="http://www.w3.org/1999/xlink" width="191.125" height="80.29167" viewBox="0,0,191.125,80.29167"><g transform="translate(-137.375,42)"><g data-paper-data="{&quot;isPaintingLayer&quot;:true}" fill-rule="nonzero" stroke-width="0" stroke-linecap="butt" stroke-linejoin="miter" stroke-miterlimit="10" stroke-dasharray="" stroke-dashoffset="0" style="mix-blend-mode: normal"><path d="M328.5,-6.5c0,19.60611 -42.30909,35.5 -94.5,35.5c-52.19091,0 -94.5,-15.89389 -94.5,-35.5c0,-19.60611 42.30909,-35.5 94.5,-35.5c52.19091,0 94.5,15.89389 94.5,35.5z" fill="#666666" stroke="#ffffff"/><path d="M193.875,28.54167v-5.75h15.25v5.75z" fill="#ffffff" stroke="none"/><path d="M243.45833,18.875v-22.25h16.25v22.25z" fill="#ffffff" stroke="none"/><path d="M208.54167,13.125v-13.75h15.75v13.75z" fill="#ffffff" stroke="none"/><path d="M296.375,21.625v-13.25h11.75v13.25z" fill="#ffffff" stroke="none"/><path d="M259.79167,26.95833v-11h23.75v11z" fill="#ffffff" stroke="none"/><path d="M151.875,19.04167v-14.25h12v14.25z" fill="#ffffff" stroke="none"/><path d="M259.45833,14.125v-13h23.5v13z" fill="#ffffff" stroke="none"/><path d="M304.04167,21.45833v-10.25h15.25v10.25z" fill="#ffffff" stroke="none"/><path d="M137.375,12.875v-15.5h17.5v15.5z" fill="#ffffff" stroke="none"/><path d="M279.95833,12.70833v-17.75h10.75v17.75z" fill="#ffffff" stroke="none"/><path d="M180.375,29.125v-15.5h18.75v15.5z" fill="#ffffff" stroke="none"/><path d="M306.04167,7.20833v-11.75h21.75v11.75z" fill="#ffffff" stroke="none"/><path d="M157.125,29.54167v-16.25h13.25v16.25z" fill="#ffffff" stroke="none"/><path d="M191.79167,16.875v-9h32.5v9z" fill="#ffffff" stroke="none"/><path d="M212.70833,34.70833v-16h11.25v16z" fill="#ffffff" stroke="none"/><path d="M248.54167,38.29167v-14h22.75v14z" fill="#ffffff" stroke="none"/><path d="M226.875,32.20833v-17h16.75v17z" fill="#ffffff" stroke="none"/><path d="M168.125,18.45833v-19.75h19.25v19.75z" fill="#ffffff" stroke="none"/><path d="M223.54167,8.54167v-7h21v7z" fill="#ffffff" stroke="none"/></g></g></svg>