<svg version="1.1" xmlns="http://www.w3.org/2000/svg" xmlns:xlink="http://www.w3.org/1999/xlink" width="195.5" height="156.5" viewBox="0,0,195.5,156.5"><g transform="translate(-144.58333,-88.41667)"><g data-paper-data="{&quot;isPaintingLayer&quot;:true}" fill-rule="nonzero" stroke-width="0.5" stroke-linecap="butt" stroke-linejoin="miter" stroke-miterlimit="10" stroke-dasharray="" stroke-dashoffset="0" style="mix-blend-mode: normal"><path d="M144.83333,244.66667v-156h195v156z" fill="#000000" stroke="#17ff00"/><g fill-opacity="0.10196" fill="#0aff00" stroke="#17ff00"><g><path d="M239.66156,112.19199l-5.99968,-1.3682l1.3682,-5.99968l5.99968,1.3682z"/><path d="M244.28586,119.54843l-5.99968,-1.3682l1.3682,-5.99968l5.99968,1.3682z"/></g><g><path d="M248.90974,126.90421l-5.99968,-1.3682l1.3682,-5.99968l5.99968,1.3682z"/><path d="M253.53404,134.26065l-5.99968,-1.3682l1.3682,-5.99968l5.99968,1.3682z"/></g></g><g fill-opacity="0.10196" fill="#0aff00" stroke="#17ff00"><g><path d="M246.56047,109.01581l-5.21697,-3.26365l3.26365,-5.21697l5.21697,3.26365z"/><path d="M248.51077,117.48326l-5.21697,-3.26365l3.26365,-5.21696l5.21697,3.26365z"/></g><g><path d="M250.46088,125.94995l-5.21697,-3.26365l3.26365,-5.21697l5.21697,3.26365z"/><path d="M252.41118,134.41741l-5.21697,-3.26365l3.26365,-5.21697l5.21697,3.26365z"/></g></g><g fill-opacity="0.10196" fill="#0aff00" stroke="#17ff00"><g><path d="M236.40672,115.48715l-6.15369,-0.01461l0.01461,-6.15369l6.15369,0.01461z"/><path d="M242.53628,121.64587l-6.15369,-0.01461l0.01461,-6.15369l6.15369,0.01461z"/></g><g><path d="M248.66528,127.80404l-6.15369,-0.01461l0.01461,-6.15369l6.15369,0.01461z"/><path d="M254.79484,133.96277l-6.15369,-0.01461l0.01461,-6.15369l6.15369,0.01461z"/></g></g><g fill-opacity="0.10196" fill="#0aff00" stroke="#17ff00"><g><path d="M242.40362,111.0585l-5.8072,-2.03582l2.03582,-5.8072l5.8072,2.03582z"/><path d="M246.16914,118.88935l-5.8072,-2.03582l2.03583,-5.8072l5.8072,2.03582z"/></g><g><path d="M249.93432,126.7195l-5.8072,-2.03582l2.03582,-5.8072l5.8072,2.03582z"/><path d="M253.69985,134.55035l-5.8072,-2.03582l2.03582,-5.8072l5.8072,2.03582z"/></g></g><g fill-opacity="0.10196" fill="#0aff00" stroke="#17ff00"><g><path d="M254.97173,128.1932l-1.3682,5.99968l-5.99968,-1.3682l1.3682,-5.99968z"/><path d="M262.32817,123.5689l-1.3682,5.99968l-5.99968,-1.3682l1.3682,-5.99968z"/></g><g><path d="M269.68396,118.94502l-1.3682,5.99968l-5.99968,-1.3682l1.3682,-5.99968z"/><path d="M277.0404,114.32072l-1.3682,5.99968l-5.99968,-1.3682l1.3682,-5.99968z"/></g></g><g fill-opacity="0.10196" fill="#0aff00" stroke="#17ff00"><g><path d="M255.76273,129.15926l-3.26365,5.21697l-5.21697,-3.26365l3.26365,-5.21697z"/><path d="M264.23018,127.20898l-3.26365,5.21697l-5.21697,-3.26365l3.26365,-5.21697z"/></g><g><path d="M272.69688,125.25886l-3.26365,5.21697l-5.21697,-3.26365l3.26365,-5.21697z"/><path d="M281.16433,123.30857l-3.26365,5.21697l-5.21697,-3.26365l3.26365,-5.21697z"/></g></g><g fill-opacity="0.10196" fill="#0aff00" stroke="#17ff00"><g><path d="M254.86233,127.72767l-0.01461,6.15369l-6.15369,-0.01461l0.01461,-6.15369z"/><path d="M261.02106,121.59812l-0.01461,6.15369l-6.15369,-0.01461l0.01461,-6.15369z"/></g><g><path d="M267.17923,115.46911l-0.01461,6.15369l-6.15369,-0.01461l0.01461,-6.15369z"/><path d="M273.33796,109.33955l-0.01461,6.15369l-6.15369,-0.01461l0.01461,-6.15369z"/></g></g><g fill-opacity="0.10196" fill="#0aff00" stroke="#17ff00"><g><path d="M255.81237,128.68364l-2.03582,5.8072l-5.8072,-2.03582l2.03582,-5.8072z"/><path d="M263.64322,124.91812l-2.03582,5.8072l-5.8072,-2.03582l2.03582,-5.8072z"/></g><g><path d="M271.47337,121.15294l-2.03582,5.8072l-5.8072,-2.03582l2.03582,-5.8072z"/><path d="M279.30422,117.38741l-2.03582,5.8072l-5.8072,-2.03582l2.03582,-5.8072z"/></g></g><g fill-opacity="0.10196" fill="#ff5c00" stroke="#ff5c00"><g><g><g><g><g><path d="M203.14831,178.91958l-6.32588,5.96553l-5.96553,-6.32589l6.32589,-5.96553z"/><path d="M215.42066,179.27938l-6.32589,5.96553l-5.96552,-6.32589l6.32588,-5.96553z"/></g><g><path d="M227.69188,179.63915l-6.32588,5.96553l-5.96553,-6.32589l6.32589,-5.96553z"/><path d="M239.96423,179.99895l-6.32589,5.96553l-5.96552,-6.32589l6.32588,-5.96553z"/></g></g><g><g><path d="M252.32718,180.36141l-6.32588,5.96553l-5.96553,-6.32589l6.32589,-5.96553z"/><path d="M264.59953,180.72121l-6.32589,5.96553l-5.96552,-6.32589l6.32588,-5.96553z"/></g><g><path d="M276.87075,181.08098l-6.32588,5.96553l-5.96553,-6.32589l6.32589,-5.96553z"/><path d="M289.1431,181.44078l-6.32589,5.96553l-5.96552,-6.32589l6.32588,-5.96553z"/></g></g></g><g><g><g><path d="M238.91958,216.85169l5.96553,6.32588l-6.32589,5.96553l-5.96553,-6.32589z"/><path d="M239.27938,204.57934l5.96553,6.32589l-6.32589,5.96552l-5.96553,-6.32588z"/></g><g><path d="M239.63915,192.30812l5.96553,6.32588l-6.32589,5.96553l-5.96553,-6.32589z"/><path d="M239.99895,180.03577l5.96553,6.32589l-6.32589,5.96552l-5.96553,-6.32588z"/></g></g><g><g><path d="M240.36141,167.67282l5.96553,6.32588l-6.32589,5.96553l-5.96553,-6.32589z"/><path d="M240.72121,155.40047l5.96553,6.32589l-6.32589,5.96552l-5.96553,-6.32588z"/></g><g><path d="M241.08098,143.12925l5.96553,6.32588l-6.32589,5.96553l-5.96553,-6.32589z"/><path d="M241.44078,130.8569l5.96553,6.32589l-6.32589,5.96552l-5.96553,-6.32588z"/></g></g></g></g><g><g><g><g><path d="M213.17796,205.29411l-0.25481,8.69134l-8.69135,-0.25481l0.25481,-8.69135z"/><path d="M222.11022,196.87066l-0.25481,8.69135l-8.69134,-0.25482l0.25481,-8.69134z"/></g><g><path d="M231.0417,188.448l-0.25481,8.69134l-8.69135,-0.25481l0.25481,-8.69135z"/><path d="M239.97396,180.02455l-0.25481,8.69135l-8.69134,-0.25482l0.25481,-8.69134z"/></g></g><g><g><path d="M248.9722,171.53892l-0.25481,8.69134l-8.69135,-0.25481l0.25481,-8.69135z"/><path d="M257.90446,163.11548l-0.25481,8.69135l-8.69134,-0.25482l0.25481,-8.69134z"/></g><g><path d="M266.83594,154.69281l-0.25481,8.69134l-8.69135,-0.25481l0.25481,-8.69135z"/><path d="M275.7682,146.26936l-0.25481,8.69135l-8.69134,-0.25482l0.25481,-8.69134z"/></g></g></g><g><g><g><path d="M265.29411,206.82204l8.69134,0.25481l-0.25481,8.69135l-8.69135,-0.25481z"/><path d="M256.87066,197.88978l8.69135,0.25481l-0.25482,8.69134l-8.69134,-0.25481z"/></g><g><path d="M248.448,188.9583l8.69134,0.25481l-0.25481,8.69135l-8.69135,-0.25481z"/><path d="M240.02455,180.02604l8.69135,0.25481l-0.25482,8.69134l-8.69134,-0.25481z"/></g></g><g><g><path d="M231.53892,171.0278l8.69134,0.25481l-0.25481,8.69135l-8.69135,-0.25481z"/><path d="M223.11548,162.09554l8.69135,0.25481l-0.25482,8.69134l-8.69134,-0.25481z"/></g><g><path d="M214.69281,153.16406l8.69134,0.25481l-0.25481,8.69135l-8.69135,-0.25481z"/><path d="M206.26936,144.2318l8.69135,0.25481l-0.25482,8.69134l-8.69134,-0.25481z"/></g></g></g></g></g><g><g><g><g><g><path d="M205.59522,193.2486l-3.52818,7.94709l-7.94709,-3.52819l3.52819,-7.94709z"/><path d="M217.05271,188.83655l-3.52819,7.94709l-7.94709,-3.52819l3.52818,-7.94709z"/></g><g><path d="M228.50912,184.42491l-3.52818,7.94709l-7.94709,-3.52819l3.52819,-7.94709z"/><path d="M239.96661,180.01286l-3.52819,7.94709l-7.94709,-3.52819l3.52818,-7.94709z"/></g></g><g><g><path d="M251.50866,175.56824l-3.52818,7.94709l-7.94709,-3.52819l3.52819,-7.94709z"/><path d="M262.96616,171.15619l-3.52819,7.94709l-7.94709,-3.52819l3.52818,-7.94709z"/></g><g><path d="M274.42257,166.74454l-3.52818,7.94709l-7.94709,-3.52819l3.52819,-7.94709z"/><path d="M285.88006,162.3325l-3.52819,7.94709l-7.94709,-3.52819l3.52818,-7.94709z"/></g></g></g><g><g><g><path d="M253.2486,214.40478l7.94709,3.52818l-3.52819,7.94709l-7.94709,-3.52819z"/><path d="M248.83655,202.94729l7.94709,3.52819l-3.52819,7.94709l-7.94709,-3.52818z"/></g><g><path d="M244.42491,191.49088l7.94709,3.52818l-3.52819,7.94709l-7.94709,-3.52819z"/><path d="M240.01286,180.03339l7.94709,3.52819l-3.52819,7.94709l-7.94709,-3.52818z"/></g></g><g><g><path d="M235.56824,168.49134l7.94709,3.52818l-3.52819,7.94709l-7.94709,-3.52819z"/><path d="M231.15619,157.03384l7.94709,3.52819l-3.52819,7.94709l-7.94709,-3.52818z"/></g><g><path d="M226.74454,145.57743l7.94709,3.52818l-3.52819,7.94709l-7.94709,-3.52819z"/><path d="M222.3325,134.11994l7.94709,3.52819l-3.52819,7.94709l-7.94709,-3.52818z"/></g></g></g></g><g><g><g><g><path d="M225.04033,213.69602l3.12464,8.11425l-8.11425,3.12464l-3.12464,-8.11425z"/><path d="M230.0222,202.47458l3.12464,8.11425l-8.11425,3.12463l-3.12464,-8.11425z"/></g><g><path d="M235.00361,191.25415l3.12464,8.11425l-8.11425,3.12464l-3.12464,-8.11425z"/><path d="M239.98548,180.03271l3.12464,8.11425l-8.11425,3.12463l-3.12464,-8.11425z"/></g></g><g><g><path d="M245.00413,168.7284l3.12464,8.11425l-8.11425,3.12464l-3.12464,-8.11425z"/><path d="M249.986,157.50697l3.12464,8.11425l-8.11425,3.12463l-3.12464,-8.11425z"/></g><g><path d="M254.96742,146.28653l3.12464,8.11425l-8.11425,3.12464l-3.12464,-8.11425z"/><path d="M259.94928,135.0651l3.12464,8.11425l-8.11425,3.12463l-3.12464,-8.11425z"/></g></g></g><g><g><g><path d="M273.69602,194.95967l8.11425,-3.12464l3.12464,8.11425l-8.11425,3.12464z"/><path d="M262.47458,189.9778l8.11425,-3.12464l3.12463,8.11425l-8.11425,3.12464z"/></g><g><path d="M251.25415,184.99639l8.11425,-3.12464l3.12464,8.11425l-8.11425,3.12464z"/><path d="M240.03271,180.01452l8.11425,-3.12464l3.12463,8.11425l-8.11425,3.12464z"/></g></g><g><g><path d="M228.7284,174.99587l8.11425,-3.12464l3.12464,8.11425l-8.11425,3.12464z"/><path d="M217.50697,170.014l8.11425,-3.12464l3.12463,8.11425l-8.11425,3.12464z"/></g><g><path d="M206.28653,165.03258l8.11425,-3.12464l3.12464,8.11425l-8.11425,3.12464z"/><path d="M195.0651,160.05072l8.11425,-3.12464l3.12463,8.11425l-8.11425,3.12464z"/></g></g></g></g></g></g><g fill-opacity="0.10196" fill="#ff5c00" stroke="#ff5c00"><g><g><g><g><g><path d="M208.80461,199.64847l-1.92566,8.47916l-8.47917,-1.92566l1.92566,-8.47917z"/><path d="M219.1933,193.10513l-1.92566,8.47917l-8.47916,-1.92567l1.92566,-8.47916z"/></g><g><path d="M229.58103,186.5624l-1.92566,8.47916l-8.47917,-1.92566l1.92566,-8.47917z"/><path d="M239.96972,180.01907l-1.92566,8.47917l-8.47916,-1.92567l1.92566,-8.47916z"/></g></g><g><g><path d="M250.4351,173.42743l-1.92566,8.47916l-8.47917,-1.92566l1.92566,-8.47917z"/><path d="M260.82379,166.8841l-1.92566,8.47917l-8.47916,-1.92567l1.92566,-8.47916z"/></g><g><path d="M271.21152,160.34137l-1.92566,8.47916l-8.47917,-1.92566l1.92566,-8.47917z"/><path d="M281.60021,153.79804l-1.92566,8.47917l-8.47916,-1.92567l1.92566,-8.47916z"/></g></g></g><g><g><g><path d="M259.64847,211.19539l8.47916,1.92566l-1.92566,8.47917l-8.47917,-1.92566z"/><path d="M253.10513,200.8067l8.47917,1.92566l-1.92567,8.47916l-8.47916,-1.92566z"/></g><g><path d="M246.5624,190.41897l8.47916,1.92566l-1.92566,8.47917l-8.47917,-1.92566z"/><path d="M240.01907,180.03028l8.47917,1.92566l-1.92567,8.47916l-8.47916,-1.92566z"/></g></g><g><g><path d="M233.42743,169.5649l8.47916,1.92566l-1.92566,8.47917l-8.47917,-1.92566z"/><path d="M226.8841,159.17621l8.47917,1.92566l-1.92567,8.47916l-8.47916,-1.92566z"/></g><g><path d="M220.34137,148.78848l8.47916,1.92566l-1.92566,8.47917l-8.47917,-1.92566z"/><path d="M213.79804,138.39979l8.47917,1.92566l-1.92567,8.47916l-8.47916,-1.92566z"/></g></g></g></g><g><g><g><g><path d="M231.83511,215.95203l4.63402,7.35732l-7.35733,4.63403l-4.63403,-7.35733z"/><path d="M234.55416,203.97929l4.63403,7.35733l-7.35732,4.63402l-4.63402,-7.35732z"/></g><g><path d="M237.27301,192.00764l4.63402,7.35732l-7.35733,4.63403l-4.63403,-7.35733z"/><path d="M239.99207,180.0349l4.63403,7.35733l-7.35732,4.63402l-4.63402,-7.35732z"/></g></g><g><g><path d="M242.73123,167.97375l4.63402,7.35732l-7.35733,4.63403l-4.63403,-7.35733z"/><path d="M245.4503,156.00102l4.63403,7.35733l-7.35732,4.63402l-4.63402,-7.35732z"/></g><g><path d="M248.16914,144.02936l4.63402,7.35732l-7.35733,4.63403l-4.63403,-7.35733z"/><path d="M250.8882,132.05662l4.63403,7.35733l-7.35732,4.63402l-4.63402,-7.35732z"/></g></g></g><g><g><g><path d="M275.95203,188.16489l7.35732,-4.63402l4.63403,7.35733l-7.35733,4.63403z"/><path d="M263.97929,185.44584l7.35733,-4.63403l4.63402,7.35732l-7.35732,4.63402z"/></g><g><path d="M252.00764,182.72699l7.35732,-4.63402l4.63403,7.35733l-7.35733,4.63403z"/><path d="M240.0349,180.00793l7.35733,-4.63403l4.63402,7.35732l-7.35732,4.63402z"/></g></g><g><g><path d="M227.97375,177.26877l7.35732,-4.63402l4.63403,7.35733l-7.35733,4.63403z"/><path d="M216.00102,174.5497l7.35733,-4.63403l4.63402,7.35732l-7.35732,4.63402z"/></g><g><path d="M204.02936,171.83086l7.35732,-4.63402l4.63403,7.35733l-7.35733,4.63403z"/><path d="M192.05662,169.1118l7.35733,-4.63403l4.63402,7.35732l-7.35732,4.63402z"/></g></g></g></g></g><g><g><g><g><g><path d="M218.82461,210.17975l1.50165,8.56442l-8.56443,1.50164l-1.50164,-8.56443z"/><path d="M225.87645,200.12928l1.50164,8.56443l-8.56443,1.50164l-1.50165,-8.56442z"/></g><g><path d="M232.92761,190.07976l1.50165,8.56442l-8.56443,1.50164l-1.50164,-8.56443z"/><path d="M239.97945,180.02929l1.50164,8.56443l-8.56443,1.50164l-1.50165,-8.56442z"/></g></g><g><g><path d="M247.08333,169.90464l1.50165,8.56442l-8.56443,1.50164l-1.50164,-8.56443z"/><path d="M254.13517,159.85417l1.50164,8.56443l-8.56443,1.50164l-1.50165,-8.56442z"/></g><g><path d="M261.18633,149.80464l1.50165,8.56442l-8.56443,1.50164l-1.50164,-8.56443z"/><path d="M268.23818,139.75418l1.50164,8.56443l-8.56443,1.50164l-1.50165,-8.56442z"/></g></g></g><g><g><g><path d="M270.17975,201.17539l8.56442,-1.50165l1.50164,8.56443l-8.56443,1.50164z"/><path d="M260.12928,194.12355l8.56443,-1.50164l1.50164,8.56443l-8.56442,1.50165z"/></g><g><path d="M250.07976,187.07239l8.56442,-1.50165l1.50164,8.56443l-8.56443,1.50164z"/><path d="M240.02929,180.02055l8.56443,-1.50164l1.50164,8.56443l-8.56442,1.50165z"/></g></g><g><g><path d="M229.90464,172.91667l8.56442,-1.50165l1.50164,8.56443l-8.56443,1.50164z"/><path d="M219.85417,165.86483l8.56443,-1.50164l1.50164,8.56443l-8.56442,1.50165z"/></g><g><path d="M209.80464,158.81367l8.56442,-1.50165l1.50164,8.56443l-8.56443,1.50164z"/><path d="M199.75418,151.76182l8.56443,-1.50164l1.50164,8.56443l-8.56442,1.50165z"/></g></g></g></g><g><g><g><g><path d="M246.36705,216.31355l7.11779,4.99414l-4.99414,7.11779l-7.11779,-4.99414z"/><path d="M244.2467,204.22042l7.11779,4.99414l-4.99415,7.11778l-7.11779,-4.99414z"/></g><g><path d="M242.12653,192.12838l7.11779,4.99414l-4.99414,7.11779l-7.11779,-4.99414z"/><path d="M240.00618,180.03525l7.11779,4.99414l-4.99415,7.11778l-7.11779,-4.99414z"/></g></g><g><g><path d="M237.87017,167.85282l7.11779,4.99414l-4.99414,7.11779l-7.11779,-4.99414z"/><path d="M235.74982,155.75969l7.11779,4.99414l-4.99415,7.11778l-7.11779,-4.99414z"/></g><g><path d="M233.62966,143.66764l7.11779,4.99414l-4.99414,7.11779l-7.11779,-4.99414z"/><path d="M231.50931,131.57452l7.11779,4.99414l-4.99415,7.11778l-7.11779,-4.99414z"/></g></g></g><g><g><g><path d="M276.31355,173.63295l4.99414,-7.11779l7.11779,4.99414l-4.99414,7.11779z"/><path d="M264.22042,175.7533l4.99414,-7.11779l7.11778,4.99415l-4.99414,7.11779z"/></g><g><path d="M252.12838,177.87347l4.99414,-7.11779l7.11779,4.99414l-4.99414,7.11779z"/><path d="M240.03525,179.99382l4.99414,-7.11779l7.11778,4.99415l-4.99414,7.11779z"/></g></g><g><g><path d="M227.85282,182.12983l4.99414,-7.11779l7.11779,4.99414l-4.99414,7.11779z"/><path d="M215.75969,184.25018l4.99414,-7.11779l7.11778,4.99415l-4.99414,7.11779z"/></g><g><path d="M203.66764,186.37034l4.99414,-7.11779l7.11779,4.99414l-4.99414,7.11779z"/><path d="M191.57452,188.49069l4.99414,-7.11779l7.11778,4.99415l-4.99414,7.11779z"/></g></g></g></g></g></g></g></g></svg>