<svg version="1.1" xmlns="http://www.w3.org/2000/svg" xmlns:xlink="http://www.w3.org/1999/xlink" width="340.5" height="218.37578" viewBox="0,0,340.5,218.37578"><defs><linearGradient x1="85.77882" y1="125.0002" x2="175.9815" y2="125.0002" gradientUnits="userSpaceOnUse" id="color-1"><stop offset="0" stop-color="#00afc7"/><stop offset="1" stop-color="#00fff6"/></linearGradient></defs><g transform="translate(-69.75,-70.81211)"><g data-paper-data="{&quot;isPaintingLayer&quot;:true}" fill-rule="nonzero" stroke-miterlimit="10" stroke-dasharray="" stroke-dashoffset="0" style="mix-blend-mode: normal"><path d="M70.5,288.43789v-216.87578h339v216.87578z" fill="#ffffff" stroke="#000000" stroke-width="1.5" stroke-linecap="butt" stroke-linejoin="miter"/><g><path d="M111.54366,153.32627v-56.65254h256.91268v56.65254z" fill="#ffffff" stroke="none" stroke-width="0" stroke-linecap="butt" stroke-linejoin="miter"/><g stroke="#000000" stroke-width="2.5"><path d="M175.9816,143.5669c0,4.71036 -3.82023,8.5296 -8.5296,8.5296h-39.56698c-4.71036,0 -8.52861,-3.82023 -8.52861,-8.5296v-37.13476c0,-4.71036 3.81825,-8.52861 8.52861,-8.52861h39.56599c4.71234,0 8.5296,3.81825 8.5296,8.52861v37.13476z" fill="url(#color-1)" stroke-linecap="butt" stroke-linejoin="miter"/><path d="M132.38791,144.64712c0,-8.43953 6.84158,-15.2811 15.2811,-15.2811c8.43953,0 15.2811,6.84157 15.2811,15.2811M156.40107,114.08492c0,-4.82258 -3.90957,-8.73206 -8.73206,-8.73206c-4.82258,0 -8.73206,3.90947 -8.73206,8.73206c0,4.82258 3.90947,8.73206 8.73206,8.73206c4.82249,0 8.73206,-3.90947 8.73206,-8.73206z" fill="none" stroke-linecap="round" stroke-linejoin="round"/></g><text transform="translate(184.35955,135.37696) scale(0.75234,0.75234)" font-size="40" xml:space="preserve" fill="#000000" fill-rule="nonzero" stroke="none" stroke-width="1" stroke-linecap="butt" stroke-linejoin="miter" stroke-miterlimit="10" stroke-dasharray="" stroke-dashoffset="0" font-family="Sans Serif" font-weight="normal" text-anchor="start" style="mix-blend-mode: normal"><tspan x="0" dy="0">Ученики.txt</tspan></text></g><path d="M409.4,88.83125h-338.5" fill="none" stroke="#000000" stroke-width="1.5" stroke-linecap="round" stroke-linejoin="miter"/><path d="M393.93333,85.22083l9.66667,-9.66667" fill="none" stroke="#000000" stroke-width="1.5" stroke-linecap="round" stroke-linejoin="miter"/><path d="M403.6,85.22083l-9.66667,-9.66667" data-paper-data="{&quot;index&quot;:null}" fill="none" stroke="#000000" stroke-width="1.5" stroke-linecap="round" stroke-linejoin="miter"/><path d="M387.65,88.83125v-16.5" fill="none" stroke="#000000" stroke-width="1.5" stroke-linecap="round" stroke-linejoin="miter"/><path d="M73.76667,80.1375c0,-3.08359 2.49974,-5.58333 5.58333,-5.58333c3.08359,0 5.58333,2.49974 5.58333,5.58333c0,3.08359 -2.49974,5.58333 -5.58333,5.58333c-3.08359,0 -5.58333,-2.49974 -5.58333,-5.58333z" fill="none" stroke="#000000" stroke-width="1.5" stroke-linecap="butt" stroke-linejoin="miter"/><path d="M78.96,83.7325v-3.8h0.7v3.8z" fill="#000000" stroke="#000000" stroke-width="1.5" stroke-linecap="butt" stroke-linejoin="miter"/><path d="M77.76,77.2325c0,-0.82843 0.67157,-1.5 1.5,-1.5c0.82843,0 1.5,0.67157 1.5,1.5c0,0.82843 -0.67157,1.5 -1.5,1.5c-0.82843,0 -1.5,-0.67157 -1.5,-1.5z" fill="#000000" stroke="none" stroke-width="0.5" stroke-linecap="butt" stroke-linejoin="miter"/><text transform="translate(87.34335,82.98166) scale(0.23564,0.23564)" font-size="40" xml:space="preserve" fill="#000000" fill-rule="nonzero" stroke="none" stroke-width="1" stroke-linecap="butt" stroke-linejoin="miter" stroke-miterlimit="10" stroke-dasharray="" stroke-dashoffset="0" font-family="Sans Serif" font-weight="normal" text-anchor="start" style="mix-blend-mode: normal"><tspan x="0" dy="0">Информация</tspan></text><text transform="translate(98.89947,191.22228) scale(0.7169,0.7169)" font-size="40" xml:space="preserve" fill="#000000" fill-rule="nonzero" stroke="none" stroke-width="1" stroke-linecap="butt" stroke-linejoin="miter" stroke-miterlimit="10" stroke-dasharray="" stroke-dashoffset="0" font-family="Sans Serif" font-weight="normal" text-anchor="start" style="mix-blend-mode: normal"><tspan x="0" dy="0">Аккаунты учеников</tspan><tspan x="0" dy="46.15px">    понижают риск</tspan><tspan x="0" dy="46.15px">       подозрения</tspan></text></g></g></svg>