<svg version="1.1" xmlns="http://www.w3.org/2000/svg" xmlns:xlink="http://www.w3.org/1999/xlink" width="28.78572" height="28.78571" viewBox="0,0,28.78572,28.78571"><g transform="translate(-225.60714,-165.60716)"><g data-paper-data="{&quot;isPaintingLayer&quot;:true}" fill-rule="nonzero" stroke-linecap="butt" stroke-linejoin="miter" stroke-miterlimit="10" stroke-dasharray="" stroke-dashoffset="0" style="mix-blend-mode: normal"><path d="M234.75001,180.00003c0,-2.89949 2.35051,-5.25 5.25,-5.25c2.89949,0 5.25,2.35051 5.25,5.25c0,2.89949 -2.35051,5.25 -5.25,5.25c-2.89949,0 -5.25,-2.35051 -5.25,-5.25z" fill="#2fff00" stroke="#000000" stroke-width="0"/><path d="M234.41668,185.58336v-11.16667h11.16667v11.16667z" fill="#000000" stroke="#000000" stroke-width="1.5"/><path d="M234.62501,180.00003c0,-2.96853 2.40647,-5.375 5.375,-5.375c2.96853,0 5.375,2.40647 5.375,5.375c0,2.96853 -2.40647,5.375 -5.375,5.375c-2.96853,0 -5.375,-2.40647 -5.375,-5.375z" fill="#ff0000" stroke="#ff0000" stroke-width="1.5"/><path d="M254.14286,180.00002c0,1.32154 -6.33197,2.39286 -14.14286,2.39286c-7.81088,0 -14.14286,-1.07132 -14.14286,-2.39286c0,-1.32154 6.33197,-2.39286 14.14286,-2.39286c7.81088,0 14.14286,1.07132 14.14286,2.39286z" fill="none" stroke-opacity="0.02353" stroke="#000000" stroke-width="0.5"/><path d="M240,165.85717c1.32154,0 2.39285,6.33197 2.39285,14.14285c0,7.81089 -1.07131,14.14285 -2.39286,14.14286c-1.32154,0 -2.39285,-6.33197 -2.39285,-14.14285c0,-7.81089 1.07132,-14.14286 2.39285,-14.14286z" fill="none" stroke-opacity="0.02353" stroke="#000000" stroke-width="0.5"/></g></g></svg>