<svg version="1.1" xmlns="http://www.w3.org/2000/svg" xmlns:xlink="http://www.w3.org/1999/xlink" width="147.66984" height="107.60878" viewBox="0,0,147.66984,107.60878"><g transform="translate(-166.16508,-136.39125)"><g data-paper-data="{&quot;isPaintingLayer&quot;:true}" fill-rule="nonzero" stroke-linejoin="miter" stroke-miterlimit="10" stroke-dasharray="" stroke-dashoffset="0" style="mix-blend-mode: normal"><path d="M166.16508,243.91335v-107.5221h147.66984v107.5221z" fill="#ffffff" stroke="none" stroke-width="0" stroke-linecap="butt"/><path d="M169.22874,219.35811v-78.71622h141.54252v78.71622z" fill="#ffffff" stroke="none" stroke-width="0" stroke-linecap="butt"/><g stroke="#000000" stroke-width="0.5" stroke-linecap="butt"><g><path d="M224.16714,183.60926v-6.4685h6.4685v6.4685z" fill="#ffffff"/><path d="M230.63564,183.60926v-6.4685h6.46851v6.4685z" fill="#ff4200"/></g><g><path d="M224.18562,177.14076v-6.46851h6.46851v6.46851z" fill="#00ff02"/><path d="M230.65412,177.14076v-6.46851h6.46851v6.46851z" fill="#ffe400"/></g><g><path d="M224.14404,190.10549v-6.4685h6.4685v6.4685z" fill="#ffffff"/><path d="M230.61254,190.10549v-6.4685h6.46851v6.4685z" fill="#ff4200"/></g><g><g><path d="M211.2024,183.59078v-6.4685h6.4685v6.4685z" fill="#ff4200"/><path d="M217.67091,183.59078v-6.4685h6.46851v6.4685z" fill="#001bff"/></g><g><path d="M211.22089,177.12228v-6.46851h6.4685v6.46851z" fill="#ff4200"/><path d="M217.68939,177.12228v-6.46851h6.4685v6.46851z" fill="#ffffff"/></g><path d="M211.20702,190.08701v-6.46851h6.46851v6.46851z" fill="#001bff"/><path d="M217.64781,190.08701v-6.46851h6.4685v6.46851z" fill="#ff4200"/></g><g><g fill="#ff0000"><path d="M198.22843,183.5954v-6.46851h6.46851v6.46851z"/><path d="M204.69693,183.5954v-6.46851h6.46851v6.46851z"/></g><g fill="#ffe400"><path d="M198.24691,177.12689v-6.4685h6.46851v6.4685z"/><path d="M204.71541,177.12689v-6.4685h6.46851v6.4685z"/></g><path d="M198.23305,190.09163v-6.46851h6.46851v6.46851z" fill="#ff0000"/><path d="M204.67383,190.09163v-6.46851h6.4685v6.46851z" fill="#ffe400"/></g></g><path d="M250.05502,183.58616v-6.46851h6.46851v6.46851z" fill="#00ff02" stroke="#000000" stroke-width="0.5" stroke-linecap="butt"/><path d="M250.07351,177.11766v-6.46851h6.4685v6.46851z" fill="#00ff02" stroke="#000000" stroke-width="0.5" stroke-linecap="butt"/><path d="M250.05964,190.08239v-6.46851h6.46851v6.46851z" fill="#ff0000" stroke="#000000" stroke-width="0.5" stroke-linecap="butt"/><g stroke="#000000" stroke-width="0.5" stroke-linecap="butt"><g><path d="M237.08105,183.59078v-6.46851h6.46851v6.46851z" fill="#ffffff"/><path d="M243.54956,183.59078v-6.46851h6.4685v6.46851z" fill="#ff4200"/></g><g><path d="M237.09953,177.12228v-6.46851h6.46851v6.46851z" fill="#001bff"/><path d="M243.56804,177.12228v-6.46851h6.4685v6.46851z" fill="#ff0000"/></g><path d="M237.08567,190.08701v-6.46851h6.4685v6.46851z" fill="#00ff02"/><path d="M243.52645,190.08701v-6.46851h6.46851v6.46851z" fill="#ff0000"/></g><g stroke="#000000" stroke-width="0.5" stroke-linecap="butt"><path d="M263.01976,183.60464v-6.4685h6.4685v6.4685z" fill="#ffe400"/><path d="M269.48827,183.60464v-6.4685h6.4685v6.4685z" fill="#ffffff"/><path d="M263.03824,177.13614v-6.4685h6.46851v6.4685z" fill="#ffffff"/><path d="M269.50675,177.13614v-6.4685h6.4685v6.4685z" fill="#00ff02"/><path d="M262.99665,190.10087v-6.46851h6.46851v6.46851z" fill="#ff0000"/><path d="M269.46516,190.10087v-6.46851h6.46851v6.46851z" fill="#001bff"/><path d="M256.52353,183.58616v-6.46851h6.4685v6.46851z" fill="#ffe400"/><path d="M256.54201,177.11766v-6.46851h6.4685v6.46851z" fill="#ff0000"/><path d="M256.50043,190.08239v-6.46851h6.46851v6.46851z" fill="#ffffff"/></g><g stroke="#000000" stroke-width="0.5" stroke-linecap="butt"><path d="M224.23644,164.20143v-6.4685h6.46851v6.4685z" fill="#00ff02"/><path d="M230.70495,164.20144v-6.46851h6.4685v6.46851z" fill="#00ff02"/><path d="M224.25493,157.73293v-6.4685h6.46851v6.4685z" fill="#001bff"/><path d="M230.72343,157.73293v-6.4685h6.4685v6.4685z" fill="#ffffff"/><path d="M224.21334,170.69766v-6.46851h6.46851v6.46851z" fill="#ff4200"/><path d="M230.68185,170.69766v-6.46851h6.46851v6.46851z" fill="#ff0000"/><path d="M217.74022,164.18295v-6.4685h6.4685v6.46851z" fill="#ff4200"/><path d="M217.7587,157.71445v-6.46851h6.46851v6.46851z" fill="#ff0000"/><path d="M217.71711,170.67918v-6.4685h6.46851v6.4685z" fill="#001bff"/></g><g stroke="#000000" stroke-width="0.5" stroke-linecap="butt"><path d="M224.12556,203.12336v-6.4685h6.46851v6.4685z" fill="#001bff"/><path d="M230.59406,203.01248v-6.46851h6.46851v6.46851z" fill="#001bff"/><path d="M224.14404,196.54397v-6.4685h6.4685v6.46851z" fill="#00ff02"/><path d="M230.61254,196.54397v-6.4685h6.46851v6.46851z" fill="#ffe400"/><path d="M224.10245,209.5087v-6.4685h6.4685v6.4685z" fill="#ffe400"/><path d="M230.57096,209.5087v-6.4685h6.4685v6.4685z" fill="#00ff02"/><path d="M217.62933,202.99399v-6.4685h6.4685v6.4685z" fill="#001bff"/><path d="M217.64781,196.52549v-6.4685h6.4685v6.4685z" fill="#ffe400"/><path d="M217.60622,209.49022v-6.46851h6.46851v6.46851z" fill="#ffffff"/></g><path d="M237.10184,209.6889v-58.40137z" fill="none" stroke="#000000" stroke-width="1" stroke-linecap="round"/><path d="M256.5628,190.0616v-19.36856z" fill="none" stroke="#000000" stroke-width="1" stroke-linecap="round"/><path d="M217.69632,209.46712v-58.1796z" fill="none" stroke="#000000" stroke-width="1" stroke-linecap="round"/><path d="M275.83895,190.02464h-77.58511z" fill="none" stroke="#000000" stroke-width="1" stroke-linecap="round"/><path d="M275.94984,170.73h-77.58511z" fill="none" stroke="#000000" stroke-width="1" stroke-linecap="round"/><path d="M237.53924,151.46002h-20.29263z" fill="none" stroke="#000000" stroke-width="1" stroke-linecap="round"/><path d="M198.00742,190.48315l0.06337,-20.19758z" fill="none" stroke="#000000" stroke-width="1" stroke-linecap="round"/><path d="M217.23692,209.55689h20.30848z" fill="none" stroke="#000000" stroke-width="1" stroke-linecap="round"/><path d="M276.11089,190.47347v-20.12894z" fill="none" stroke="#000000" stroke-width="1" stroke-linecap="round"/><g stroke="#000000" stroke-width="0.5"><g><path d="M278.79379,178.50594c0.69648,0 1.66057,0 2.06424,0c0.35798,0 0.82569,0.3143 0.82569,0.58685c0,0.43762 0,1.77623 0,2.54191c0,0.32938 -0.40067,0.55274 -0.72334,0.55274c-0.41222,0 -1.48414,0 -2.21777,0c-0.42768,0 -0.7404,-0.44494 -0.7404,-0.58686c0,-0.3921 0,-1.50747 0,-2.28601c0,-0.46419 0.33939,-0.80863 0.79158,-0.80863z" fill="#676767" stroke-linecap="butt"/><path d="M279.40795,179.3487l1.02359,1.02358l-0.98094,0.98094" fill="none" stroke-linecap="round"/></g><g><path d="M278.77795,172.24865c0.69648,0 1.66057,0 2.06423,0c0.35798,0 0.8257,0.31431 0.8257,0.58686c0,0.43762 0,1.77623 0,2.54191c0,0.32938 -0.40067,0.55274 -0.72334,0.55274c-0.41222,0 -1.48415,0 -2.21778,0c-0.42768,0 -0.74039,-0.44494 -0.74039,-0.58686c0,-0.3921 0,-1.50747 0,-2.28601c0,-0.46419 0.33939,-0.80864 0.79157,-0.80864z" fill="#676767" stroke-linecap="butt"/><path d="M279.39211,173.09141l1.02359,1.02359l-0.98094,0.98094" fill="none" stroke-linecap="round"/></g><g><path d="M278.80963,184.8266c0.69648,0 1.66057,0 2.06424,0c0.35798,0 0.82569,0.31431 0.82569,0.58686c0,0.43762 0,1.77623 0,2.54191c0,0.32938 -0.40067,0.55274 -0.72333,0.55274c-0.41222,0 -1.48414,0 -2.21777,0c-0.42768,0 -0.7404,-0.44494 -0.7404,-0.58686c0,-0.3921 0,-1.50747 0,-2.28601c0,-0.46419 0.33939,-0.80864 0.79157,-0.80864z" fill="#676767" stroke-linecap="butt"/><path d="M279.42379,185.66935l1.02359,1.02358l-0.98094,0.98094" fill="none" stroke-linecap="round"/></g></g><g data-paper-data="{&quot;index&quot;:null}" stroke="#000000" stroke-width="0.5"><g><path d="M196.33112,179.34626c0,0.77854 0,1.89391 0,2.28601c0,0.14192 -0.31271,0.58686 -0.7404,0.58686c-0.73363,0 -1.80556,0 -2.21778,0c-0.32267,0 -0.72333,-0.22336 -0.72333,-0.55274c0,-0.76568 0,-2.10429 0,-2.54191c0,-0.27255 0.46771,-0.58686 0.82569,-0.58686c0.40367,0 1.36775,0 2.06423,0c0.45218,0 0.79158,0.34445 0.79158,0.80864z" fill="#676767" stroke-linecap="butt"/><path d="M194.88274,181.3849l-0.98094,-0.98093l1.02359,-1.02359" fill="none" stroke-linecap="round"/></g><g><path d="M196.34696,173.08897c0,0.77854 0,1.89392 0,2.28601c0,0.14192 -0.31271,0.58686 -0.7404,0.58686c-0.73363,0 -1.80555,0 -2.21777,0c-0.32267,0 -0.72333,-0.22336 -0.72333,-0.55274c0,-0.76568 0,-2.10429 0,-2.54191c0,-0.27255 0.46771,-0.58686 0.82569,-0.58686c0.40367,0 1.36776,0 2.06424,0c0.45218,0 0.79157,0.34445 0.79157,0.80864z" fill="#676767" stroke-linecap="butt"/><path d="M194.89858,175.12761l-0.98094,-0.98094l1.02359,-1.02359" fill="none" stroke-linecap="round"/></g><g><path d="M196.31528,185.66691c0,0.77854 0,1.89392 0,2.28601c0,0.14192 -0.31271,0.58686 -0.7404,0.58686c-0.73363,0 -1.80556,0 -2.21778,0c-0.32267,0 -0.72333,-0.22336 -0.72333,-0.55274c0,-0.76568 0,-2.10429 0,-2.54191c0,-0.27255 0.46772,-0.58686 0.82569,-0.58686c0.40367,0 1.36775,0 2.06423,0c0.45218,0 0.79158,0.34445 0.79158,0.80864z" fill="#676767" stroke-linecap="butt"/><path d="M194.8669,187.70556l-0.98094,-0.98094l1.02359,-1.02359" fill="none" stroke-linecap="round"/></g></g><path d="M226.31298,211.23361c0.77854,0 1.89391,0 2.28601,0c0.14192,0 0.58686,0.31271 0.58686,0.7404c0,0.73363 0,1.80555 0,2.21777c0,0.32267 -0.22336,0.72333 -0.55274,0.72333c-0.76568,0 -2.10429,0 -2.54191,0c-0.27255,0 -0.58685,-0.46772 -0.58685,-0.82569c0,-0.40367 0,-1.36775 0,-2.06423c0,-0.45218 0.34445,-0.79157 0.80864,-0.79157z" fill="#676767" stroke="#000000" stroke-width="0.5" stroke-linecap="butt"/><path d="M228.35163,212.68199l-0.98094,0.98094l-1.02359,-1.02359" fill="none" stroke="#000000" stroke-width="0.5" stroke-linecap="round"/><path d="M220.05569,211.21777c0.77854,0 1.89392,0 2.28601,0c0.14192,0 0.58686,0.31271 0.58686,0.7404c0,0.73363 0,1.80556 0,2.21777c0,0.32267 -0.22336,0.72333 -0.55274,0.72333c-0.76568,0 -2.10429,0 -2.54191,0c-0.27255,0 -0.58686,-0.46771 -0.58686,-0.82569c0,-0.40367 0,-1.36775 0,-2.06424c0,-0.45218 0.34445,-0.79157 0.80864,-0.79157z" fill="#676767" stroke="#000000" stroke-width="0.5" stroke-linecap="butt"/><path d="M222.09434,212.66615l-0.98093,0.98094l-1.02359,-1.02359" fill="none" stroke="#000000" stroke-width="0.5" stroke-linecap="round"/><path d="M232.63364,211.24945c0.77854,0 1.89391,0 2.28601,0c0.14192,0 0.58686,0.31271 0.58686,0.7404c0,0.73363 0,1.80556 0,2.21778c0,0.32267 -0.22336,0.72333 -0.55274,0.72333c-0.76568,0 -2.10429,0 -2.54191,0c-0.27255,0 -0.58686,-0.46771 -0.58686,-0.82569c0,-0.40367 0,-1.36776 0,-2.06424c0,-0.45218 0.34445,-0.79157 0.80864,-0.79157z" fill="#676767" stroke="#000000" stroke-width="0.5" stroke-linecap="butt"/><path d="M234.67228,212.69783l-0.98094,0.98094l-1.02359,-1.02359" fill="none" stroke="#000000" stroke-width="0.5" stroke-linecap="round"/><g data-paper-data="{&quot;index&quot;:null}" stroke="#000000" stroke-width="0.5"><g><path d="M225.4885,148.96852c0,-0.69648 0,-1.66057 0,-2.06424c0,-0.35798 0.31431,-0.82569 0.58686,-0.82569c0.43762,0 1.77623,0 2.54191,0c0.32938,0 0.55274,0.40067 0.55274,0.72333c0,0.41222 0,1.48415 0,2.21778c0,0.42768 -0.44494,0.7404 -0.58686,0.7404c-0.3921,0 -1.50747,0 -2.28601,0c-0.46419,0 -0.80864,-0.33939 -0.80864,-0.79157z" fill="#676767" stroke-linecap="butt"/><path d="M226.33126,148.35437l1.02359,-1.02359l0.98093,0.98094" fill="none" stroke-linecap="round"/></g><g><path d="M219.23122,148.98436c0,-0.69648 0,-1.66056 0,-2.06423c0,-0.35798 0.31431,-0.8257 0.58686,-0.8257c0.43762,0 1.77623,0 2.54191,0c0.32938,0 0.55274,0.40067 0.55274,0.72334c0,0.41222 0,1.48414 0,2.21777c0,0.42768 -0.44494,0.7404 -0.58686,0.7404c-0.3921,0 -1.50747,0 -2.28601,0c-0.46419,0 -0.80864,-0.33939 -0.80864,-0.79157z" fill="#676767" stroke-linecap="butt"/><path d="M220.07397,148.37021l1.02359,-1.02359l0.98094,0.98094" fill="none" stroke-linecap="round"/></g><g><path d="M231.80916,148.95268c0,-0.69648 0,-1.66056 0,-2.06423c0,-0.35798 0.31431,-0.82569 0.58686,-0.82569c0.43762,0 1.77623,0 2.54191,0c0.32938,0 0.55274,0.40067 0.55274,0.72333c0,0.41222 0,1.48414 0,2.21777c0,0.42768 -0.44494,0.7404 -0.58686,0.7404c-0.3921,0 -1.50747,0 -2.28601,0c-0.46419,0 -0.80864,-0.33939 -0.80864,-0.79157z" fill="#676767" stroke-linecap="butt"/><path d="M232.65191,148.33852l1.02359,-1.02358l0.98093,0.98094" fill="none" stroke-linecap="round"/></g></g><g stroke="#000000" stroke-width="0.5"><path d="M244.86234,168.24764c0,-0.41232 0,-4.75708 0,-4.75708c0,0 -2.72073,-0.00971 -3.96685,-0.00358c-0.34414,0.00169 -0.69353,-0.61759 -0.67953,-0.93801c0.00715,-0.16343 0.01442,-1.17263 0.01951,-1.81525c0.00411,-0.5189 0.47709,-0.96871 1.13502,-0.97522c1.52791,-0.01513 4.06766,-0.00858 4.07871,-0.00858c0.43762,0 1.77623,0 2.54191,0c0.32938,0 0.55274,0.40067 0.55274,0.72333c0,0.41222 0,7.09194 0,7.82557c0,0.42768 -0.44494,0.7404 -0.58686,0.7404c-0.3921,0 -1.50747,0 -2.28601,0c-0.46419,0 -0.80864,-0.33939 -0.80864,-0.79157z" fill="#676767" stroke-linecap="butt"/><path d="M245.67342,167.60181l1.02358,-1.02359l0.98094,0.98094" fill="none" stroke-linecap="round"/><path d="M242.75192,162.61121l-1.02359,-1.02359l0.98094,-0.98093" fill="none" stroke-linecap="round"/></g><g data-paper-data="{&quot;index&quot;:null}" stroke="#000000" stroke-width="0.5"><path d="M209.21985,169.19763c-0.77854,0 -1.89391,0 -2.28601,0c-0.14192,0 -0.58686,-0.31271 -0.58686,-0.7404c0,-0.73363 0,-7.41335 0,-7.82557c0,-0.32267 0.22336,-0.72334 0.55274,-0.72334c0.76568,0 2.10429,0 2.54191,0c0.01105,0 2.55079,-0.00655 4.0787,0.00858c0.65793,0.00652 1.13091,0.45632 1.13502,0.97522c0.00509,0.64262 0.01237,1.65181 0.01952,1.81525c0.014,0.32041 -0.33539,0.9397 -0.67953,0.93801c-1.24613,-0.00612 -3.96686,0.00358 -3.96686,0.00358c0,0 0,4.34477 0,4.75709c0,0.45218 -0.34444,0.79157 -0.80863,0.79157z" fill="#676767" stroke-linecap="butt"/><path d="M207.21289,167.71757l0.98094,-0.98094l1.02359,1.02359" fill="none" stroke-linecap="round"/><path d="M212.18156,160.76509l0.98094,0.98094l-1.02359,1.02359" fill="none" stroke-linecap="round"/></g><g data-paper-data="{&quot;index&quot;:null}" stroke="#000000" stroke-width="0.5"><path d="M245.67098,191.28841c0.77854,0 1.89392,0 2.28601,0c0.14192,0 0.58686,0.31271 0.58686,0.7404c0,0.73363 0,7.41336 0,7.82557c0,0.32267 -0.22336,0.72333 -0.55274,0.72333c-0.76568,0 -2.10429,0 -2.54191,0c-0.01105,0 -2.5508,0.00655 -4.07871,-0.00858c-0.65793,-0.00652 -1.13091,-0.45632 -1.13502,-0.97522c-0.00509,-0.64262 -0.01236,-1.65181 -0.01951,-1.81525c-0.014,-0.32041 0.33538,-0.9397 0.67953,-0.93801c1.24613,0.00612 3.96685,-0.00358 3.96685,-0.00358c0,0 0,-4.34477 0,-4.75709c0,-0.45218 0.34445,-0.79157 0.80864,-0.79157z" fill="#676767" stroke-linecap="butt"/><path d="M247.67794,192.76847l-0.98093,0.98094l-1.02359,-1.02359" fill="none" stroke-linecap="round"/><path d="M242.70927,199.72095l-0.98094,-0.98093l1.02359,-1.02359" fill="none" stroke-linecap="round"/></g><g data-paper-data="{&quot;index&quot;:null}" stroke="#000000" stroke-width="0.5"><path d="M210.02849,191.92158c0,0.41232 0,4.75709 0,4.75709c0,0 2.72073,0.0097 3.96686,0.00358c0.34414,-0.00169 0.69353,0.61759 0.67953,0.93801c-0.00715,0.16343 -0.01443,1.17263 -0.01952,1.81525c-0.00411,0.5189 -0.47709,0.96871 -1.13502,0.97522c-1.52792,0.01513 -4.06765,0.00858 -4.0787,0.00858c-0.43762,0 -1.77623,0 -2.54191,0c-0.32938,0 -0.55274,-0.40067 -0.55274,-0.72333c0,-0.41222 0,-7.09194 0,-7.82557c0,-0.42768 0.44494,-0.7404 0.58686,-0.7404c0.3921,0 1.50747,0 2.28601,0c0.46419,0 0.80863,0.33939 0.80863,0.79157z" fill="#676767" stroke-linecap="butt"/><path d="M209.21742,192.56741l-1.02359,1.02359l-0.98094,-0.98094" fill="none" stroke-linecap="round"/><path d="M212.13891,197.55801l1.02359,1.02359l-0.98094,0.98093" fill="none" stroke-linecap="round"/></g><g stroke="#000000" stroke-width="0.5"><path d="M212.08298,194.4667c0,-0.77854 0,-1.89391 0,-2.28601c0,-0.14192 0.31271,-0.58686 0.7404,-0.58686c0.73363,0 1.80556,0 2.21777,0c0.32267,0 0.72333,0.22336 0.72333,0.55274c0,0.76568 0,2.10429 0,2.54191c0,0.27255 -0.46772,0.58686 -0.82569,0.58686c-0.40367,0 -1.36775,0 -2.06423,0c-0.45218,0 -0.79157,-0.34445 -0.79157,-0.80864z" fill="#676767" stroke-linecap="butt"/><path d="M214.36725,192.16351l-0.47776,0.47776l-0.49853,-0.49853" fill="none" stroke-linecap="round"/><path d="M214.70849,193.02036l0.47776,0.47776l-0.49853,0.49853" fill="none" stroke-linecap="round"/></g><g data-paper-data="{&quot;index&quot;:null}" stroke="#000000" stroke-width="0.5"><path d="M241.28377,195.33582c-0.69648,0 -1.66056,0 -2.06423,0c-0.35798,0 -0.82569,-0.31431 -0.82569,-0.58686c0,-0.43762 0,-1.77623 0,-2.54191c0,-0.32938 0.40067,-0.55274 0.72333,-0.55274c0.41222,0 1.48414,0 2.21777,0c0.42768,0 0.7404,0.44494 0.7404,0.58686c0,0.3921 0,1.50747 0,2.28601c0,0.46419 -0.33939,0.80864 -0.79158,0.80864z" fill="#676767" stroke-linecap="butt"/><path d="M240.76736,192.20322l-0.49853,0.49853l-0.47776,-0.47776" fill="none" stroke-linecap="round"/><path d="M239.4706,194.05714l-0.49853,-0.49853l0.47776,-0.47776" fill="none" stroke-linecap="round"/></g><g data-paper-data="{&quot;index&quot;:null}" stroke="#000000" stroke-width="0.5"><path d="M242.07534,166.35371c0,0.77854 0,1.89392 0,2.28602c0,0.14192 -0.31271,0.58685 -0.7404,0.58685c-0.73363,0 -1.80556,0 -2.21777,0c-0.32267,0 -0.72333,-0.22335 -0.72333,-0.55273c0,-0.76568 0,-2.10429 0,-2.54191c0,-0.27255 0.46771,-0.58686 0.82569,-0.58686c0.40367,0 1.36775,0 2.06424,0c0.45218,0 0.79157,0.34444 0.79157,0.80863z" fill="#676767" stroke-linecap="butt"/><path d="M239.79107,168.6569l0.47776,-0.47776l0.49853,0.49853" fill="none" stroke-linecap="round"/><path d="M239.44983,167.80005l-0.47776,-0.47776l0.49853,-0.49853" fill="none" stroke-linecap="round"/></g><g data-paper-data="{&quot;index&quot;:null}" stroke="#000000" stroke-width="0.5"><path d="M213.09633,165.52491c0.69648,0 1.66057,0 2.06424,0c0.35798,0 0.82569,0.3143 0.82569,0.58685c0,0.43762 0,1.77623 0,2.54191c0,0.32938 -0.40067,0.55274 -0.72333,0.55274c-0.41222,0 -1.48414,0 -2.21777,0c-0.42768,0 -0.7404,-0.44494 -0.7404,-0.58686c0,-0.3921 0,-1.50747 0,-2.28601c0,-0.46419 0.33939,-0.80863 0.79157,-0.80863z" fill="#676767" stroke-linecap="butt"/><path d="M213.61274,168.65751l0.49853,-0.49853l0.47776,0.47776" fill="none" stroke-linecap="round"/><path d="M214.9095,166.8036l0.49853,0.49854l-0.47776,0.47776" fill="none" stroke-linecap="round"/></g><path d="M202.39576,169.18755c-0.10819,0 -0.68106,0 -0.76937,0c-1.15636,0 -0.68183,0 -1.39532,0c-0.27796,0 -0.83263,-0.29567 -0.83263,-1.13336c0,-1.43693 0,-13.28461 0,-14.092c0,-0.63199 0.43748,-1.41676 1.08263,-1.41676c1.49971,0 2.60082,0 3.45797,0c0.02164,0 5.91493,-0.01283 8.90759,0.01681c1.28867,0.01276 1.29629,0.07004 1.30432,1.08639c0.00995,1.25868 0.02422,1.84131 0.03821,2.16142c0.02743,0.62758 -0.51432,0.77918 -1.18838,0.77587c-0.08465,-0.00042 -9.46473,0.05454 -9.46473,0.05454c0,0 0,10.63265 0,11.44023c0,0.88567 -0.23109,1.10687 -1.14028,1.10687z" fill="#676767" stroke="#000000" stroke-width="0.5" stroke-linecap="butt"/><path d="M212.77938,155.83689l-1.24447,-1.24448l1.19263,-1.19262" data-paper-data="{&quot;index&quot;:null}" fill="none" stroke="#000000" stroke-width="0.5" stroke-linecap="round"/><path d="M202.60365,167.00609l-1.19262,1.19262l-1.24448,-1.24448" fill="none" stroke="#000000" stroke-width="0.5" stroke-linecap="round"/><path d="M250.85958,168.14405c0,-0.80758 0,-11.44023 0,-11.44023c0,0 -9.38008,-0.05496 -9.46472,-0.05454c-0.67406,0.00331 -1.21582,-0.14829 -1.18839,-0.77587c0.01399,-0.32012 0.02826,-0.90275 0.03822,-2.16142c0.00804,-1.01635 0.01565,-1.07363 1.30432,-1.08639c2.99266,-0.02964 8.88595,-0.01681 8.90759,-0.01681c0.85715,0 1.95826,0 3.45797,0c0.64515,0 1.08263,0.78477 1.08263,1.41676c0,0.80739 0,12.65507 0,14.092c0,0.83768 -0.55467,1.13336 -0.83263,1.13336c-0.71349,0 -0.23896,0 -1.39532,0c-0.08831,0 -0.66119,0 -0.76938,0c-0.90919,0 -1.14029,-0.2212 -1.14029,-1.10687z" fill="#676767" stroke="#000000" stroke-width="0.5" stroke-linecap="butt"/><path d="M241.66811,153.46316l1.19262,1.19262l-1.24448,1.24448" data-paper-data="{&quot;index&quot;:null}" fill="none" stroke="#000000" stroke-width="0.5" stroke-linecap="round"/><path d="M254.22909,167.0176l-1.24448,1.24448l-1.19262,-1.19262" fill="none" stroke="#000000" stroke-width="0.5" stroke-linecap="round"/><path d="M203.59149,192.19127c0,0.80758 0,11.44024 0,11.44024c0,0 9.38008,0.05495 9.46473,0.05454c0.67406,-0.00331 1.21581,0.14829 1.18838,0.77587c-0.01399,0.32012 -0.02826,0.90275 -0.03821,2.16142c-0.00804,1.01635 -0.01566,1.07363 -1.30432,1.08639c-2.99266,0.02964 -8.88594,0.01681 -8.90758,0.01681c-0.85715,0 -1.95827,0 -3.45798,0c-0.64515,0 -1.08263,-0.78477 -1.08263,-1.41676c0,-0.80739 0,-12.65508 0,-14.092c0,-0.83768 0.55467,-1.13336 0.83263,-1.13336c0.71349,0 0.23895,0 1.39532,0c0.08831,0 0.66119,0 0.76938,0c0.90919,0 1.14029,0.22119 1.14029,1.10687z" fill="#676767" stroke="#000000" stroke-width="0.5" stroke-linecap="butt"/><path d="M212.78297,206.87216l-1.19263,-1.19262l1.24448,-1.24448" data-paper-data="{&quot;index&quot;:null}" fill="none" stroke="#000000" stroke-width="0.5" stroke-linecap="round"/><path d="M200.22199,193.31771l1.24448,-1.24448l1.19262,1.19262" fill="none" stroke="#000000" stroke-width="0.5" stroke-linecap="round"/><path d="M252.05531,191.02104c0.10819,0 0.68107,0 0.76938,0c1.15636,0 0.68183,0 1.39531,0c0.27796,0 0.83263,0.29567 0.83263,1.13336c0,1.43693 0,13.28462 0,14.092c0,0.63199 -0.43748,1.41676 -1.08263,1.41676c-1.49971,0 -2.60083,0 -3.45798,0c-0.02164,0 -5.91493,0.01283 -8.90759,-0.0168c-1.28867,-0.01276 -1.29628,-0.07004 -1.30432,-1.08639c-0.00995,-1.25868 -0.02423,-1.84131 -0.03822,-2.16143c-0.02743,-0.62758 0.51433,-0.77918 1.18839,-0.77587c0.08464,0.00042 9.46472,-0.05454 9.46472,-0.05454c0,0 0,-10.63264 0,-11.44023c0,-0.88567 0.2311,-1.10686 1.14029,-1.10686z" fill="#676767" stroke="#000000" stroke-width="0.5" stroke-linecap="butt"/><path d="M241.6717,204.37169l1.24448,1.24448l-1.19263,1.19262" data-paper-data="{&quot;index&quot;:null}" fill="none" stroke="#000000" stroke-width="0.5" stroke-linecap="round"/><path d="M251.84743,193.20249l1.19263,-1.19263l1.24448,1.24448" fill="none" stroke="#000000" stroke-width="0.5" stroke-linecap="round"/><path d="M167.15254,222.69542v-85.39073h145.69492v85.39073zM306.30245,213.70523c0,-13.76894 0,-59.48565 0,-66.96176c0,-2.02466 -1.62431,-3.73601 -3.76958,-3.73863c-11.22048,-0.01366 -105.05287,-0.12843 -124.32303,-0.15201c-2.22047,-0.00271 -3.44984,1.24221 -3.448,3.40826c0.01142,13.27624 0.05256,61.10025 0.05867,68.21596c0.0015,1.73532 1.24511,3.14875 3.48587,3.14875c19.34968,0 113.14675,0 124.27487,0c2.11911,0 3.72116,-1.44315 3.72116,-3.92057z" fill="#ffffff" stroke="none" stroke-width="0" stroke-linecap="butt"/><text transform="translate(172.74384,237.75003) scale(0.5,0.5)" font-size="40" xml:space="preserve" fill="#000000" fill-rule="nonzero" stroke="#000000" stroke-width="1" stroke-linecap="butt" stroke-linejoin="miter" stroke-miterlimit="10" stroke-dasharray="" stroke-dashoffset="0" font-family="Sans Serif" font-weight="normal" text-anchor="start" style="mix-blend-mode: normal"><tspan x="0" dy="0">Кубик Рубика</tspan></text><path d="M306.3356,213.72213c0,2.47741 -1.60335,3.9229 -3.72246,3.9229c-11.12813,0 -104.98898,-0.00004 -124.33866,-0.00004c-2.24076,0 -3.48547,-1.41541 -3.48697,-3.15073c-0.00611,-7.11571 -0.04731,-54.974 -0.05873,-68.25025c-0.00185,-2.16606 1.22867,-3.41303 3.44915,-3.41032c19.27016,0.02359 113.16639,0.13834 124.38687,0.152c2.14527,0.00262 3.77083,1.71624 3.77083,3.74091c0,7.47612 0.00001,53.22659 0.00001,66.99554z" data-paper-data="{&quot;noHover&quot;:false,&quot;origItem&quot;:[&quot;Path&quot;,{&quot;applyMatrix&quot;:true,&quot;segments&quot;:[[[390.11262,450.54452],[0,0],[0,-36.98842]],[[390.11262,270.66074],[0,20.08358],[0,-5.43898]],[[379.98616,260.6174],[5.76298,0.00704],[-30.1423,-0.0367]],[[46.00902,260.20904],[51.7667,0.06336],[-5.965,-0.00728]],[[36.74644,269.36488],[-0.00496,-5.81882],[0.03068,35.66484]],[[36.90406,452.6179],[-0.01642,-19.1154],[0.00402,4.6617]],[[46.26838,461.0766],[-6.0195,0],[51.98032,0]],[[380.11614,461.0766],[-29.89422,0],[5.6927,0]],[[390.11254,450.54452],[0,6.65524],[0,0]]],&quot;closed&quot;:true,&quot;fillColor&quot;:[0,0,0,1]}]}" fill="none" stroke="#dbdbdb" stroke-width="0.5" stroke-linecap="butt"/></g></g></svg>