<svg version="1.1" xmlns="http://www.w3.org/2000/svg" xmlns:xlink="http://www.w3.org/1999/xlink" width="147.66984" height="107.5221" viewBox="0,0,147.66984,107.5221"><defs><linearGradient x1="191.31735" y1="193.65328" x2="191.31735" y2="205.30953" gradientUnits="userSpaceOnUse" id="color-1"><stop offset="0" stop-color="#ff0000"/><stop offset="1" stop-color="#ff5500"/></linearGradient><linearGradient x1="191.31735" y1="193.65328" x2="191.31735" y2="205.30953" gradientUnits="userSpaceOnUse" id="color-2"><stop offset="0" stop-color="#ff0000"/><stop offset="1" stop-color="#ff5500"/></linearGradient></defs><g transform="translate(-166.16508,-136.39125)"><g data-paper-data="{&quot;isPaintingLayer&quot;:true}" fill-rule="nonzero" stroke-linejoin="miter" stroke-miterlimit="10" stroke-dasharray="" stroke-dashoffset="0" style="mix-blend-mode: normal"><path d="M166.16508,243.91335v-107.5221h147.66984v107.5221z" fill="#ffffff" stroke="none" stroke-width="0" stroke-linecap="butt"/><path d="M167.15254,222.69539v-85.39073h145.69492v85.39073zM306.30245,213.7052c0,-13.76894 0,-59.48565 0,-66.96176c0,-2.02466 -1.62431,-3.73601 -3.76958,-3.73863c-11.22048,-0.01366 -105.05287,-0.12843 -124.32303,-0.15201c-2.22047,-0.00271 -3.44984,1.24221 -3.448,3.40826c0.01142,13.27624 0.05256,61.10025 0.05867,68.21596c0.0015,1.73532 1.24511,3.14875 3.48587,3.14875c19.34968,0 113.14675,0 124.27487,0c2.11911,0 3.72116,-1.44315 3.72116,-3.92057z" fill="#ffffff" stroke="none" stroke-width="0" stroke-linecap="butt"/><text transform="translate(169.99335,236.61603) scale(0.46528,0.46528)" font-size="40" xml:space="preserve" fill="#000000" fill-rule="nonzero" stroke="#000000" stroke-width="1" stroke-linecap="butt" stroke-linejoin="miter" stroke-miterlimit="10" stroke-dasharray="" stroke-dashoffset="0" font-family="Sans Serif" font-weight="normal" text-anchor="start" style="mix-blend-mode: normal"><tspan x="0" dy="0">Кликер блёбов</tspan></text><path d="M171.7,220.6v-78.6h138.6v78.6z" fill="#b2f9ff" stroke="none" stroke-width="0" stroke-linecap="butt"/><path d="M292.3,146.3c0,-4.78784 1.34464,-5.84121 5.6812,-7.20739c1.01589,-0.32004 14.5188,1.29794 14.5188,7.20739c0,5.90945 -3.59055,10.7 -9.5,10.7c-5.90945,0 -10.7,-4.79055 -10.7,-10.7z" fill="#feff00" stroke="none" stroke-width="0" stroke-linecap="butt"/><path d="M293.73094,201.43083c2.92683,-2.54254 1.0543,-7.62722 2.13526,-6.44797c1.08096,1.17925 2.61961,5.64452 -0.36441,8.37983c-1.17925,1.08096 -2.97852,-0.88275 -1.77085,-1.93186z" data-paper-data="{&quot;index&quot;:null}" fill="#6a0066" stroke="#170016" stroke-width="0.5" stroke-linecap="butt"/><path d="M288.79147,203.39718c-2.98402,-2.73531 -1.44537,-7.20058 -0.36441,-8.37983c1.08096,-1.17925 -0.79157,3.90542 2.13526,6.44796c1.20767,1.04911 -0.59159,3.01283 -1.77085,1.93187z" data-paper-data="{&quot;index&quot;:null}" fill="#6a0066" stroke="#170016" stroke-width="0.5" stroke-linecap="butt"/><path d="M183.84718,205.30953c0,0 0.41579,-2.77311 0.41912,-4.17312c0.0033,-1.38776 -0.44469,-4.19051 -0.44469,-4.19051l4.42898,2.95454l3.20171,-3.88352l3.66193,3.53694l3.77557,-2.67329c0,0 -0.59426,2.88651 -0.55061,4.30272c0.04347,1.41047 0.81197,4.17739 0.81197,4.17739z" fill="url(#color-1)" stroke="url(#color-2)" stroke-width="0.5" stroke-linecap="round"/><path d="M282.18102,220.6485v-11.69569h19.00463v11.69569z" fill="#4c2701" stroke="#402001" stroke-width="1" stroke-linecap="butt"/><path d="M281.99546,211.11933v-3.55029h19.37576v3.34742l-1.85925,-1.21614l-1.97494,1.29054l-2.06714,-1.40463l-2.33358,1.38164l-1.84921,-1.30688l-2.04556,1.39003l-1.72223,-1.30637l-1.66664,1.44799l-1.85148,-1.50415z" fill="#03ff1d" stroke="#01620b" stroke-width="0.5" stroke-linecap="butt"/><path d="M181.73102,220.6985v-11.69569h19.00463v11.69569z" fill="#4c2701" stroke="#402001" stroke-width="1" stroke-linecap="butt"/><path d="M181.54546,211.16933v-3.5503h19.37575v3.34742l-1.85925,-1.21614l-1.97494,1.29054l-2.06714,-1.40464l-2.33358,1.38164l-1.84921,-1.30688l-2.04556,1.39003l-1.72223,-1.30637l-1.66664,1.44799l-1.85148,-1.50414z" fill="#03ff1d" stroke="#01620b" stroke-width="0.5" stroke-linecap="butt"/><path d="M272.28119,193.021l4.10263,-4.40471l0.54872,5.99433z" data-paper-data="{&quot;index&quot;:null}" fill="#d7d7d7" stroke="#616161" stroke-width="1" stroke-linecap="butt"/><path d="M262.6886,194.7958l0.54872,-5.99433l4.10263,4.40471z" fill="#d7d7d7" stroke="#616161" stroke-width="1" stroke-linecap="butt"/><path d="M255.30477,220.8985v-16.3436h26.55713v16.3436z" fill="#4c2701" stroke="#402001" stroke-width="1" stroke-linecap="butt"/><path d="M256.84546,207.58241v-4.9612h25.27576v4.6777l-2.59812,-1.69943l-2.7598,1.8034l-2.88863,-1.96284l-3.26095,1.93072l-2.5841,-1.82624l-3.65847,1.94243l-2.90664,-1.82552l-2.72898,2.02343l-0.88725,-0.1019z" fill="#03ff1d" stroke="#01620b" stroke-width="0.5" stroke-linecap="butt"/><path d="M200.80362,220.8985v-16.3436h22.05943v16.3436z" fill="#4c2701" stroke="#402001" stroke-width="1" stroke-linecap="butt"/><path d="M200.54546,207.58241v-4.9612h22.57575v4.6777l-0.95369,0.10397l-2.87589,-1.96284l-3.24657,1.93072l-2.5727,-1.82624l-2.84587,1.94243l-2.39603,-1.82552l-2.31871,2.02343l-2.57585,-2.1019z" fill="#03ff1d" stroke="#01620b" stroke-width="0.5" stroke-linecap="butt"/><path d="M223.125,218.56516v-20.96365h33.75v20.96365z" fill="#4c2701" stroke="#402001" stroke-width="1" stroke-linecap="butt"/><path d="M222.79546,201.48485v-6.36364h34.40909v6l-3.30181,-2.17984l-3.50728,2.3132l-3.671,-2.5177l-4.14416,2.4765l-3.28399,-2.34249l-3.63268,2.49152l-3.05847,-2.34157l-2.95977,2.59542l-3.288,-2.69608z" fill="#03ff1d" stroke="#01620b" stroke-width="0.5" stroke-linecap="butt"/><path d="M256.18389,190.85715c0,4.79004 -7.32584,3.66596 -16.36272,3.66596c-9.03688,0 -16.36272,1.12408 -16.36272,-3.66596c0,-4.79004 7.23643,-10.72966 16.27331,-10.72966c9.03688,0 16.45213,5.93962 16.45213,10.72966z" fill="#ff4975" stroke="#601c2d" stroke-width="1" stroke-linecap="butt"/><path d="M240.9058,186.37134l-0.7764,-2.0704" fill="none" stroke="#000000" stroke-width="2" stroke-linecap="round"/><path d="M247.28607,186.45415l-0.7764,-2.0704" fill="none" stroke="#000000" stroke-width="2" stroke-linecap="round"/><path d="M221.85056,200.08543c0,2.95227 -4.51518,2.25947 -10.08494,2.25947c-5.56976,0 -10.08494,0.69281 -10.08494,-2.25947c0,-2.5169 3.24159,-5.54874 7.6488,-6.38824c0.76238,-0.14522 2.22197,-1.64816 0.69717,-2.33724c-1.95788,-0.8848 -5.22745,-1.08304 -5.00726,-1.06238c0.2198,0.02063 3.59689,-1.47252 5.6553,-0.68593c2.328,0.8896 3.36646,4.0726 3.60378,4.12107c4.34027,0.88648 7.57209,3.87011 7.57209,6.35272z" fill="#4affb4" stroke="#1c6148" stroke-width="1" stroke-linecap="butt"/><path d="M212.43411,197.32067l-0.47852,-1.27607" fill="none" stroke="#000000" stroke-width="1.5" stroke-linecap="round"/><path d="M216.3665,197.3717l-0.47852,-1.27606" fill="none" stroke="#000000" stroke-width="1.5" stroke-linecap="round"/><path d="M203.75,190.35684c0,-0.86029 0.6974,-1.55769 1.55769,-1.55769c0.86029,0 1.55769,0.69741 1.55769,1.55769c0,0.86029 -0.69741,1.55769 -1.55769,1.55769c-0.86029,0 -1.55769,-0.6974 -1.55769,-1.55769z" fill="#e7ff4a" stroke="#a58230" stroke-width="1" stroke-linecap="butt"/><path d="M280.98389,199.81506c0,3.23851 -4.95295,2.47853 -11.06272,2.47853c-6.10977,0 -11.06272,0.75998 -11.06272,-2.47853c0,-3.23851 4.89249,-7.25424 11.00227,-7.25424c6.10977,0 11.12317,4.01574 11.12317,7.25424z" fill="#d7d7d7" stroke="#616161" stroke-width="1" stroke-linecap="butt"/><path d="M270.65448,196.78224l-0.52491,-1.39978" fill="none" stroke="#000000" stroke-width="1.5" stroke-linecap="round"/><path d="M274.44322,195.43844l0.52492,1.39978" fill="none" stroke="#000000" stroke-width="1.5" stroke-linecap="round"/><path d="M275.7963,198.66666l-1.11111,1.81482l-1.18518,-1.7037l-1.81482,1.59259l-1.11111,-1.62963" fill="none" stroke="#000000" stroke-width="0.5" stroke-linecap="round"/><path d="M199.18389,205.69294c0,2.25295 -3.44564,1.72425 -7.69605,1.72425c-4.25041,0 -7.69605,0.5287 -7.69605,-1.72425c0,-2.25295 3.40359,-5.04659 7.654,-5.04659c4.25041,0 7.7381,2.79364 7.7381,5.04659z" fill="#efff00" stroke="#ff5500" stroke-width="0.5" stroke-linecap="butt"/><path d="M191.99798,203.58308l-0.36517,-0.97379" fill="none" stroke="#000000" stroke-width="1" stroke-linecap="round"/><path d="M194.63371,202.64824l0.36517,0.97379" fill="none" stroke="#000000" stroke-width="1" stroke-linecap="round"/><path d="M299.72935,205.87476c0,2.25295 -3.44564,1.72425 -7.69605,1.72425c-4.25041,0 -7.69605,0.5287 -7.69605,-1.72425c0,-2.25295 3.40359,-5.04659 7.654,-5.04659c4.25041,0 7.73811,2.79364 7.73811,5.04659z" fill="#6a0066" stroke="#170016" stroke-width="0.5" stroke-linecap="butt"/><path d="M292.17827,202.79111l0.36517,0.9738" fill="#6a0066" stroke="#000000" stroke-width="1" stroke-linecap="round"/><path d="M295.17917,202.83006l0.36517,0.97379" fill="#6a0066" stroke="#000000" stroke-width="1" stroke-linecap="round"/><path d="M167.15254,222.69542v-85.39073h145.69492v85.39073zM306.30245,213.70523c0,-13.76894 0,-59.48565 0,-66.96176c0,-2.02466 -1.62431,-3.73601 -3.76958,-3.73863c-11.22048,-0.01366 -105.05287,-0.12843 -124.32303,-0.15201c-2.22047,-0.00271 -3.44984,1.24221 -3.448,3.40826c0.01142,13.27624 0.05256,61.10025 0.05867,68.21596c0.0015,1.73532 1.24511,3.14875 3.48587,3.14875c19.34968,0 113.14675,0 124.27487,0c2.11911,0 3.72116,-1.44315 3.72116,-3.92057z" fill="#ffffff" stroke="none" stroke-width="0" stroke-linecap="butt"/><path d="M208.59018,152.68041c0.69641,-0.27824 2.01466,-0.53009 2.98995,0.93284c1.03545,1.55317 0.13805,2.71976 -0.38308,3.21116c0.16,0.23376 0.27629,0.49172 0.33178,0.78333c1.37472,7.22365 -8.94203,6.96327 -12.9061,6.24627c-0.67744,-0.12253 -1.23449,-0.73798 -1.92274,-0.75402c-0.58117,-0.01354 -1.05855,0.48603 -1.60943,0.67171c-3.61653,1.21899 -5.81882,2.69633 -9.44661,0.26051c-4.16295,-2.79513 -4.42659,-8.81007 -0.4633,-11.75575c0.78011,-0.57981 6.50128,-1.4801 7.24772,-1.56168c4.7661,-0.52093 9.53307,-1.00866 14.23378,0.04922c0,0 1.68151,0.38805 1.92803,1.91639z" fill="#ffffff" stroke="none" stroke-width="0.5" stroke-linecap="butt"/><path d="M297.45407,173.16553c1.69518,0.44783 3.44048,1.11847 4.15177,2.28709c1.86737,3.06804 -0.9672,9.71856 -3.9878,11.18345c-1.35699,0.65809 -3.01541,0.35513 -4.51849,0.23165c-0.84044,-0.06904 -1.56731,-0.6668 -2.4,-0.8c-3.05669,-0.48894 -6.56108,0.85343 -9.52841,-0.54668c-1.37457,-0.64858 -2.95182,-1.47178 -3.54082,-2.87292c-1.73922,-4.13731 0.69281,-5.42469 3.2627,-7.3146c4.57247,-3.36262 9.52061,-3.7739 14.96054,-3.00838c0,0 0.96174,0.13739 1.60051,0.8404z" fill="#ffffff" stroke="none" stroke-width="0.5" stroke-linecap="butt"/><path d="M209.97476,177.78055c-0.01117,-0.04444 -0.02185,-0.08953 -0.03202,-0.13526c-0.02509,0.02887 -0.02229,0.06714 0.01907,0.11939c0.00426,0.00538 0.00858,0.01067 0.01295,0.01587zM224.03648,172.21326c2.60103,0.32747 5.46276,1.08908 5.76247,4.71417c0.12747,1.54172 -1.37772,2.82421 -2.44325,3.94572c-4.07684,4.29103 -13.1881,5.05111 -18.02759,1.73517c-1.60781,-1.10164 -3.80385,-2.08555 -4.28991,-3.97299c-0.40783,-1.58368 1.17727,-3.09002 2.12845,-4.42029c4.33754,-6.06626 9.90864,-3.63925 15.82365,-2.46648c0,0 0.52887,0.10577 1.04619,0.46471z" fill="#ffffff" stroke="none" stroke-width="0.5" stroke-linecap="butt"/><path d="M248.37722,154.0089c0.27085,0.07171 0.53646,0.13345 0.79752,0.18599c-0.119,-0.1435 -0.22227,-0.30051 -0.30716,-0.4684c-0.4607,0.10655 -0.79242,0.20244 -0.49035,0.28241zM266.02484,149.16918c0.16824,0.16025 0.32961,0.33232 0.48347,0.51683c1.28098,1.53614 3.29829,3.61227 2.50969,5.4504c-0.82606,1.92545 -3.849,1.67316 -5.84248,2.31795c-3.93829,1.27383 -10.10789,3.11967 -14.12203,1.76059c-1.70641,-0.57774 -3.88087,-0.89302 -4.8307,-2.42386c-2.96897,-4.78507 0.65864,-6.13685 3.52544,-7.80998c2.83143,-1.65249 6.62712,-3.82669 9.95954,-4.07372c0.85766,-0.06358 5.16609,0.6362 6.37239,0.82167c0,0 2.47093,0.38014 2.09078,2.85107c-0.0335,0.21775 -0.08324,0.41336 -0.14609,0.58904z" fill="#ffffff" stroke="none" stroke-width="0.5" stroke-linecap="butt"/><path d="M178.918,188.34472c-0.02119,-0.08372 -0.03721,-0.16746 -0.04745,-0.25119c-0.01969,0.01257 -0.03806,0.02865 -0.05494,0.04879c-0.0711,0.08482 -0.00997,0.14645 0.10239,0.2024zM190.19341,189.44114c0.49563,1.78754 -0.05817,3.86157 -2.20717,5.50259c-1.06486,0.81315 -2.64135,0.5368 -3.98107,0.55447c-4.31861,0.05696 -11.81885,-3.38585 -9.82079,-9.24051c0.449,-1.31565 2.1754,-1.74244 3.35784,-2.47344c4.9495,-3.05982 8.95334,-1.61476 12.616,2.34334c0,0 1.53137,1.70152 0.03517,3.31355z" fill="#ffffff" stroke="none" stroke-width="0.5" stroke-linecap="butt"/><path d="M200.5,167.57143c0,-2.27766 0,-4.93835 0,-6.28571c0,-1.64243 1.61532,-4 3.57143,-4c7.72126,0 57.8494,0 72,0c2.35566,0 3.71428,2.15962 3.71428,3.71428c0,1.53743 0,4.90484 0,7.42857c0,1.78167 -1.30388,3.14286 -3.57143,3.14286c-8.35527,0 -29.79441,0 -47.29762,0c-11.6524,0 -21.56041,0 -24.70238,0c-2.02685,0 -3.71428,-1.82543 -3.71428,-4z" fill="#02ca04" stroke="#013501" stroke-width="2" stroke-linecap="butt"/><text transform="translate(206.20061,166.67722) scale(0.1949,0.1949)" font-size="40" xml:space="preserve" fill="#000000" fill-rule="nonzero" stroke="none" stroke-width="1" stroke-linecap="butt" stroke-linejoin="miter" stroke-miterlimit="10" stroke-dasharray="" stroke-dashoffset="0" font-family="Sans Serif" font-weight="normal" text-anchor="start" style="mix-blend-mode: normal"><tspan x="0" dy="0">Кликер блёбиков</tspan></text><path d="M273.60238,158.45c0,-2.12629 0.4237,-1.65 2.55,-1.65c0.9648,0 2.83201,-0.42157 3.71006,1.06452c1.05705,1.78905 1.3111,5.93867 0.51614,6.78548c-0.47619,0.50725 -1.43322,2.22142 -2.65476,0.03095c-1.0356,-1.85706 -4.12143,-4.10466 -4.12143,-6.23095z" fill="#8fff4a" stroke="#54952b" stroke-width="1" stroke-linecap="butt"/><path d="M279.11905,159.61191l-0.81667,-1.34047" fill="none" stroke="#000000" stroke-width="1" stroke-linecap="round"/><path d="M276.40476,158.95238l0.76191,1.28571" fill="none" stroke="#000000" stroke-width="1" stroke-linecap="round"/><path d="M199.55953,168.95455c0,-1.8278 0.08886,-2.95238 1.91666,-2.95238c1.8278,0 4.13096,4.48173 4.13096,6.30953c0,1.24937 -0.75908,4.15438 -3.11171,5.07676c-1.08922,0.42704 -4.08536,1.20643 -4.69781,-0.55296c-0.61246,-1.75939 1.76191,-6.05315 1.76191,-7.88095z" fill="#0100ff" stroke="#000059" stroke-width="1" stroke-linecap="butt"/><path d="M197.46999,175.3165c-1.12295,-0.36209 -1.73975,-1.56594 -1.37767,-2.68889c0.36209,-1.12295 1.56594,-1.73975 2.68889,-1.37767c0.09517,0.03069 -1.19449,4.1042 -1.31123,4.06656z" fill="#0100ff" stroke="#000059" stroke-width="0.5" stroke-linecap="butt"/><path d="M199.20455,174.83182v1.27273" fill="none" stroke="#000000" stroke-width="1" stroke-linecap="round"/><path d="M200.93182,174.65l0.18182,1.59091" fill="none" stroke="#000000" stroke-width="1" stroke-linecap="round"/></g></g></svg>