<svg version="1.1" xmlns="http://www.w3.org/2000/svg" xmlns:xlink="http://www.w3.org/1999/xlink" width="179.73684" height="180.28231" viewBox="0,0,179.73684,180.28231"><defs><linearGradient x1="240" y1="89.86842" x2="240" y2="270.13158" gradientUnits="userSpaceOnUse" id="color-1"><stop offset="0" stop-color="#ba3bca"/><stop offset="1" stop-color="#833be0"/></linearGradient><linearGradient x1="240" y1="89.86842" x2="240" y2="180.65953" gradientUnits="userSpaceOnUse" id="color-2"><stop offset="0" stop-color="#a457df" stop-opacity="0"/><stop offset="1" stop-color="#a457df"/></linearGradient><linearGradient x1="240" y1="269.86842" x2="240" y2="180.65953" gradientUnits="userSpaceOnUse" id="color-3"><stop offset="0" stop-color="#a457df" stop-opacity="0"/><stop offset="1" stop-color="#a457df"/></linearGradient></defs><g transform="translate(-150.13158,-89.86842)"><g data-paper-data="{&quot;isPaintingLayer&quot;:true}" fill-rule="nonzero" stroke-width="0" stroke-linecap="butt" stroke-linejoin="miter" stroke-miterlimit="10" stroke-dasharray="" stroke-dashoffset="0" style="mix-blend-mode: normal"><g stroke="#000000"><path d="M150.13158,270.13158v-180.26316h179.73684v180.26316z" fill="url(#color-1)"/><path d="M150.13158,180.65953v-90.79111h179.73684v90.79111z" fill="url(#color-2)"/><path d="M150.13158,180.65953v89.20889h179.73684v-89.20889z" fill="url(#color-3)"/></g><path d="M190.1087,180c0,-27.5542 22.3371,-49.8913 49.8913,-49.8913c27.55421,0 49.8913,22.3371 49.8913,49.8913c0,27.5542 -22.3371,49.8913 -49.8913,49.8913c-27.5542,0 -49.8913,-22.3371 -49.8913,-49.8913z" fill="#c89bec" stroke="#000000"/><path d="M179.34142,178.10392c0,-5.62077 4.55653,-10.17731 10.17731,-10.17731c5.62077,0 10.1773,4.55653 10.1773,10.17731c0,5.62077 -4.55653,10.1773 -10.1773,10.1773c-5.62077,0 -10.17731,-4.55653 -10.17731,-10.1773z" fill="#c89bec" stroke="none"/><path d="M279.57952,178.10392c0,-5.62077 4.55653,-10.17731 10.17731,-10.17731c5.62077,0 10.1773,4.55653 10.1773,10.17731c0,5.62077 -4.55653,10.1773 -10.1773,10.1773c-5.62077,0 -10.17731,-4.55653 -10.17731,-10.1773z" fill="#c89bec" stroke="none"/><path d="M182.48302,253.54285c7.89516,-9.1953 30.3357,-16.3662 56.06723,-16.3662c22.70413,0 41.31506,3.55129 53.55423,12.62082c10.85801,8.04606 14.4906,15.85815 15.72763,20.25252c-45.52309,-0.24205 -91.04735,0.0759 -136.5715,0.10073c2.00693,-6.02774 6.65657,-11.29015 11.22241,-16.60788z" fill="#c89bec" stroke="#000000"/><path d="M254.99283,238.06l-29.96913,-0.15432c0,0 0.08095,-4.43204 -0.98302,-6.23037c-1.44249,-2.43809 -4.32121,-6.45482 -4.32121,-6.45482l40.70546,0.30864c0,0 -3.53288,4.0041 -4.3373,6.13582c-0.84012,2.22631 -1.0948,6.39504 -1.0948,6.39504z" fill="#c89bec" stroke="#000000"/></g></g></svg>