<svg version="1.1" xmlns="http://www.w3.org/2000/svg" xmlns:xlink="http://www.w3.org/1999/xlink" width="23.98361" height="23.5" viewBox="0,0,23.98361,23.5"><g transform="translate(-227.7664,-168.25)"><g data-paper-data="{&quot;isPaintingLayer&quot;:true}" fill-rule="nonzero" stroke="#ff450a" stroke-width="1" stroke-linecap="butt" stroke-linejoin="miter" stroke-miterlimit="10" stroke-dasharray="" stroke-dashoffset="0" style="mix-blend-mode: normal"><path d="M228.75,180c0,-6.2132 5.0368,-11.25 11.25,-11.25c6.2132,0 11.25,5.0368 11.25,11.25c0,6.2132 -5.0368,11.25 -11.25,11.25c-6.2132,0 -11.25,-5.0368 -11.25,-11.25z" fill="#000000"/><g fill="none"><path d="M240.04799,169.20229c-0.04047,0 10.93803,10.99393 10.9785,10.99393c0.02107,0 -7.99701,2.99508 -10.80662,0.07208c-2.58728,-2.69169 -0.15248,-11.066 -0.17188,-11.066z"/><path d="M228.97351,179.80377c-0.02107,0 7.997,-2.99508 10.80661,-0.07208c2.58728,2.69169 0.15248,11.066 0.17188,11.066c0.04047,0 -10.93803,-10.99393 -10.9785,-10.99393z" data-paper-data="{&quot;index&quot;:null}"/></g><g fill="none"><path d="M229.20232,179.95201c-0.00001,0.04047 10.99392,-10.93803 10.99392,-10.9785c0,-0.02108 2.99507,7.997 0.07207,10.80661c-2.6917,2.58729 -11.066,0.15249 -11.066,0.17189z"/><path d="M239.55987,191.02649c0,0.02107 -2.75117,-7.99701 0.17183,-10.80661c2.69169,-2.58728 11.066,-0.15247 11.066,-0.17188c0,-0.04047 -10.99392,10.93802 -10.99393,10.9785z" data-paper-data="{&quot;index&quot;:null}"/></g></g></g></svg>