<svg version="1.1" xmlns="http://www.w3.org/2000/svg" xmlns:xlink="http://www.w3.org/1999/xlink" width="185.47417" height="71.73852" viewBox="0,0,185.47417,71.73852"><defs><linearGradient x1="150.43383" y1="180.56938" x2="329.55887" y2="180.56938" gradientTransform="translate(-121.64016,-157.54511) scale(0.80858,0.80858)" gradientUnits="userSpaceOnUse" id="color-1"><stop offset="0" stop-color="#48ff00" stop-opacity="0.6"/><stop offset="1" stop-color="#058a00" stop-opacity="0.6"/></linearGradient></defs><g transform="translate(-147.26293,-141.04301)"><g data-paper-data="{&quot;isPaintingLayer&quot;:true}" fill-rule="nonzero" stroke-linecap="butt" stroke-linejoin="miter" stroke-miterlimit="10" stroke-dasharray="" stroke-dashoffset="0" style="mix-blend-mode: normal"><path d="M148.51294,201.8817c0,-7.55913 0,-31.41437 0,-44.54025c0,-5.31666 5.26857,-8.87298 9.91696,-8.87298c38.02106,0 144.6123,0 164.44813,0c4.75948,0 8.60907,3.31831 8.60907,8.35507c0,13.50663 0,39.37071 0,46.74137c0,3.84789 -3.59359,7.96662 -8.09116,7.96662c-19.57179,0 -129.41243,0 -165.87239,0c-5.5709,0 -9.01062,-5.13543 -9.01062,-9.64983z" fill-opacity="0.4" fill="#48ff00" stroke="#000000" stroke-width="2.5"/><text transform="translate(151.40394,167.48354) scale(0.36162,0.36162)" font-size="40" xml:space="preserve" fill-opacity="0.4" fill="#48ff00" fill-rule="nonzero" stroke="none" stroke-width="1" stroke-linecap="butt" stroke-linejoin="miter" stroke-miterlimit="10" stroke-dasharray="" stroke-dashoffset="0" font-family="Sans Serif" font-weight="normal" text-anchor="start" style="mix-blend-mode: normal"><tspan x="0" dy="0">&lt;button onclick="start()"&gt;</tspan><tspan x="0" dy="46.150000000000006px">Начать</tspan><tspan x="0" dy="46.150000000000006px">&lt;/button&gt;</tspan></text><text transform="translate(150.43603,194.84076) scale(1.23673,1.23673)" font-size="40" xml:space="preserve" fill="url(#color-1)" fill-rule="nonzero" stroke="#000000" stroke-width="1" stroke-linecap="butt" stroke-linejoin="miter" stroke-miterlimit="10" stroke-dasharray="" stroke-dashoffset="0" font-family="Sans Serif" font-weight="normal" text-anchor="start" style="mix-blend-mode: normal"><tspan x="0" dy="0">Начать</tspan></text></g></g></svg>