<svg version="1.1" xmlns="http://www.w3.org/2000/svg" xmlns:xlink="http://www.w3.org/1999/xlink" width="85" height="90.51268" viewBox="0,0,85,90.51268"><g transform="translate(-198.16667,-132.32065)"><g data-paper-data="{&quot;isPaintingLayer&quot;:true}" fill-rule="nonzero" stroke-linecap="butt" stroke-linejoin="miter" stroke-miterlimit="10" stroke-dasharray="" stroke-dashoffset="0" style="mix-blend-mode: normal"><path d="M206.30255,210.57667v-67.39493h67.39493v67.39493z" fill-opacity="0.01569" fill="#000000" stroke="#808080" stroke-width="5"/><text transform="translate(220.84723,198.54853) scale(1.52248,1.52248)" font-size="40" xml:space="preserve" fill="#808080" fill-rule="nonzero" stroke="none" stroke-width="1" stroke-linecap="butt" stroke-linejoin="miter" stroke-miterlimit="10" stroke-dasharray="" stroke-dashoffset="0" font-family="Sans Serif" font-weight="normal" text-anchor="start" style="mix-blend-mode: normal"><tspan x="0" dy="0">if</tspan></text><path d="M200.16667,160.5v-20.66667h20.66667v20.66667z" fill="#ffffff" stroke="#000000" stroke-width="0"/><path d="M231.5,157.83333v-20.33333h9.33333v20.33333z" fill="#ffffff" stroke="none" stroke-width="0"/><path d="M260.16667,173.5v-14.66667h23v14.66667z" fill="#ffffff" stroke="none" stroke-width="0"/><path d="M245.5,149.16667v-9h29.33333v9z" fill="#ffffff" stroke="none" stroke-width="0"/><path d="M267.83333,201.16667v-24h8v24z" fill="#ffffff" stroke="none" stroke-width="0"/><path d="M250.5,222.83333v-32.66667h13.33333v32.66667z" fill="#ffffff" stroke="none" stroke-width="0"/><path d="M217.83333,205.16667v-16.66667h21v16.66667z" fill="#ffffff" stroke="none" stroke-width="0"/><path d="M240.16667,179.5v-17.66667h13.33333v17.66667z" fill="#ffffff" stroke="none" stroke-width="0"/><path d="M198.5,181.83333v-13h17v13z" fill="#ffffff" stroke="none" stroke-width="0"/><path d="M198.16667,219.16667v-20.66667h12.66667v20.66667z" fill="#ffffff" stroke="none" stroke-width="0"/></g></g></svg>