<svg version="1.1" xmlns="http://www.w3.org/2000/svg" xmlns:xlink="http://www.w3.org/1999/xlink" width="63.5" height="63.5" viewBox="0,0,63.5,63.5"><g transform="translate(-208.25,-148.25)"><g data-paper-data="{&quot;isPaintingLayer&quot;:true}" fill-rule="nonzero" stroke-linejoin="miter" stroke-miterlimit="10" stroke-dasharray="" stroke-dashoffset="0" style="mix-blend-mode: normal"><path d="M209.75,180c0,-16.70661 13.54339,-30.25 30.25,-30.25c16.70661,0 30.25,13.54339 30.25,30.25c0,16.70661 -13.54339,30.25 -30.25,30.25c-16.70661,0 -30.25,-13.54339 -30.25,-30.25z" fill="#000000" stroke="#ffffff" stroke-width="3" stroke-linecap="butt"/><path d="M211.125,180h4.1" fill="none" stroke="#ffffff" stroke-width="3" stroke-linecap="round"/><path d="M264.725,180h4.1" fill="none" stroke="#ffffff" stroke-width="3" stroke-linecap="round"/><path d="M239.975,208.85v-4.1" fill="none" stroke="#ffffff" stroke-width="3" stroke-linecap="round"/><path d="M239.975,155.25v-4.1" fill="none" stroke="#ffffff" stroke-width="3" stroke-linecap="round"/><path d="M222.47411,197.50089l-2.89914,2.89914" fill="none" stroke="#ffffff" stroke-width="3" stroke-linecap="round"/><path d="M260.37503,159.59997l-2.89914,2.89914" fill="none" stroke="#ffffff" stroke-width="3" stroke-linecap="round"/><path d="M260.37503,200.40003l-2.89914,-2.89914" fill="none" stroke="#ffffff" stroke-width="3" stroke-linecap="round"/><path d="M222.47411,162.49911l-2.89914,-2.89914" fill="none" stroke="#ffffff" stroke-width="3" stroke-linecap="round"/><path d="M236.5125,185.36885l3.51707,-27.36968l3.45793,27.36968l-3.51497,2.54107z" fill="#ffffff" stroke="none" stroke-width="0" stroke-linecap="butt"/></g></g></svg>