<svg version="1.1" xmlns="http://www.w3.org/2000/svg" xmlns:xlink="http://www.w3.org/1999/xlink" width="533.04123" height="400.91613" viewBox="0,0,533.04123,400.91613"><defs><linearGradient x1="357.31382" y1="-5.41718" x2="357.31382" y2="366.95519" gradientUnits="userSpaceOnUse" id="color-1"><stop offset="0" stop-color="#ff9900" stop-opacity="0"/><stop offset="1" stop-color="#ff9900" stop-opacity="0.23137"/></linearGradient></defs><g transform="translate(4.75,25.56906)"><g data-paper-data="{&quot;isPaintingLayer&quot;:true}" fill-rule="nonzero" stroke-linecap="butt" stroke-linejoin="miter" stroke-miterlimit="10" stroke-dasharray="" stroke-dashoffset="0" style="mix-blend-mode: normal"><path d="M-4.75,369.50003v-379h488v379z" fill="#000000" stroke="none" stroke-width="0"/><path d="M206.81822,199.9439h17.81568h17.81568l6.00492,8.41598c3.29773,4.62665 7.29878,10.23015 8.87798,12.4576l2.8797,4.04698l-0.09952,0.16639c-0.08626,0.15565 -2.12992,3.01644 -13.54921,19.02185l-4.10723,5.75379h-17.82232h-17.81568l-4.50534,-6.32273c-2.48159,-3.47267 -6.44948,-9.03323 -8.81827,-12.35562c-2.36879,-3.32238 -4.33946,-6.09193 -4.37927,-6.15634c-0.05308,-0.10198 1.09482,-1.73901 8.81826,-12.57031z" fill="none" stroke="#824e00" stroke-width="2"/><path d="M206.81822,150.08288h17.81568h17.81568l6.00492,8.41599c3.29773,4.62665 7.29878,10.23015 8.87798,12.4576l2.8797,4.04698l-0.09952,0.16639c-0.08626,0.15565 -2.12992,3.01644 -13.54921,19.02185l-4.10723,5.75379h-17.82232h-17.81568l-4.50534,-6.32273c-2.48159,-3.47267 -6.44948,-9.03323 -8.81827,-12.35562c-2.36879,-3.32238 -4.33946,-6.09193 -4.37927,-6.15634c-0.05308,-0.10198 1.09482,-1.73902 8.81826,-12.57032z" fill="none" stroke="#824e00" stroke-width="2"/><path d="M206.81822,299.67594h17.81568h17.81568l6.00492,8.41598c3.29773,4.62665 7.29878,10.23015 8.87798,12.4576l2.8797,4.04698l-0.09952,0.16639c-0.08626,0.15565 -2.12992,3.01644 -13.54921,19.02185l-4.10723,5.75379h-17.82232h-17.81568l-4.50534,-6.32273c-2.48159,-3.47267 -6.44948,-9.03323 -8.81827,-12.35562c-2.36879,-3.32238 -4.33946,-6.09193 -4.37927,-6.15634c-0.05308,-0.10198 1.09482,-1.73901 8.81826,-12.57031z" fill="none" stroke="#824e00" stroke-width="2"/><path d="M206.81822,249.81492h17.81568h17.81568l6.00492,8.41599c3.29773,4.62665 7.29878,10.23015 8.87798,12.4576l2.8797,4.04698l-0.09952,0.16639c-0.08626,0.15565 -2.12992,3.01644 -13.54921,19.02185l-4.10723,5.75379h-17.82232h-17.81568l-4.50534,-6.32273c-2.48159,-3.47267 -6.44948,-9.03323 -8.81827,-12.35562c-2.36879,-3.32238 -4.33946,-6.09193 -4.37927,-6.15634c-0.05308,-0.10198 1.09482,-1.73902 8.81826,-12.57032z" fill="none" stroke="#824e00" stroke-width="2"/><path d="M206.81822,199.9439h17.81568h17.81568l6.00492,8.41598c3.29773,4.62665 7.29878,10.23015 8.87798,12.4576l2.8797,4.04698l-0.09952,0.16639c-0.08626,0.15565 -2.12992,3.01644 -13.54921,19.02185l-4.10723,5.75379h-17.82232h-17.81568l-4.50534,-6.32273c-2.48159,-3.47267 -6.44948,-9.03323 -8.81827,-12.35562c-2.36879,-3.32238 -4.33946,-6.09193 -4.37927,-6.15634c-0.05308,-0.10198 1.09482,-1.73901 8.81826,-12.57031z" fill="none" stroke="#824e00" stroke-width="2"/><path d="M206.81822,150.08288h17.81568h17.81568l6.00492,8.41599c3.29773,4.62665 7.29878,10.23015 8.87798,12.4576l2.8797,4.04698l-0.09952,0.16639c-0.08626,0.15565 -2.12992,3.01644 -13.54921,19.02185l-4.10723,5.75379h-17.82232h-17.81568l-4.50534,-6.32273c-2.48159,-3.47267 -6.44948,-9.03323 -8.81827,-12.35562c-2.36879,-3.32238 -4.33946,-6.09193 -4.37927,-6.15634c-0.05308,-0.10198 1.09482,-1.73902 8.81826,-12.57032z" fill="none" stroke="#824e00" stroke-width="2"/><path d="M206.81822,299.67594h17.81568h17.81568l6.00492,8.41598c3.29773,4.62665 7.29878,10.23015 8.87798,12.4576l2.8797,4.04698l-0.09952,0.16639c-0.08626,0.15565 -2.12992,3.01644 -13.54921,19.02185l-4.10723,5.75379h-17.82232h-17.81568l-4.50534,-6.32273c-2.48159,-3.47267 -6.44948,-9.03323 -8.81827,-12.35562c-2.36879,-3.32238 -4.33946,-6.09193 -4.37927,-6.15634c-0.05308,-0.10198 1.09482,-1.73901 8.81826,-12.57031z" fill="none" stroke="#824e00" stroke-width="2"/><path d="M206.81822,249.81492h17.81568h17.81568l6.00492,8.41599c3.29773,4.62665 7.29878,10.23015 8.87798,12.4576l2.8797,4.04698l-0.09952,0.16639c-0.08626,0.15565 -2.12992,3.01644 -13.54921,19.02185l-4.10723,5.75379h-17.82232h-17.81568l-4.50534,-6.32273c-2.48159,-3.47267 -6.44948,-9.03323 -8.81827,-12.35562c-2.36879,-3.32238 -4.33946,-6.09193 -4.37927,-6.15634c-0.05308,-0.10198 1.09482,-1.73902 8.81826,-12.57032z" fill="none" stroke="#824e00" stroke-width="2"/><path d="M206.81822,0.48344h17.81568h17.81568l6.00492,8.41599c3.29773,4.62665 7.29878,10.23015 8.87798,12.4576l2.8797,4.04698l-0.09952,0.16639c-0.08626,0.15565 -2.12992,3.01645 -13.54921,19.02186l-4.10723,5.75379h-17.82232h-17.81568l-4.50534,-6.32273c-2.48159,-3.47267 -6.44948,-9.03323 -8.81827,-12.35562c-2.36879,-3.32238 -4.33946,-6.09193 -4.37927,-6.15634c-0.05308,-0.10198 1.09482,-1.73902 8.81826,-12.57032z" fill="none" stroke="#824e00" stroke-width="2"/><path d="" fill="none" stroke="#820000" stroke-width="2"/><path d="M206.81822,100.21548h17.81568h17.81568l6.00492,8.41599c3.29773,4.62665 7.29878,10.23015 8.87798,12.4576l2.8797,4.04698l-0.09952,0.16639c-0.08626,0.15565 -2.12992,3.01645 -13.54921,19.02186l-4.10723,5.75379h-17.82232h-17.81568l-4.50534,-6.32273c-2.48159,-3.47267 -6.44948,-9.03323 -8.81827,-12.35562c-2.36879,-3.32238 -4.33946,-6.09193 -4.37927,-6.15634c-0.05308,-0.10198 1.09482,-1.73902 8.81826,-12.57032z" fill="none" stroke="#824e00" stroke-width="2"/><path d="M206.81822,50.35447h17.81568h17.81568l6.00492,8.41599c3.29773,4.62665 7.29878,10.23015 8.87798,12.4576l2.8797,4.04698l-0.09952,0.16639c-0.08626,0.15565 -2.12992,3.01645 -13.54921,19.02186l-4.10723,5.75379h-17.82232h-17.81568l-4.50534,-6.32273c-2.48159,-3.47267 -6.44948,-9.03323 -8.81827,-12.35562c-2.36879,-3.32238 -4.33946,-6.09193 -4.37927,-6.15634c-0.05308,-0.10198 1.09482,-1.73902 8.81826,-12.57032z" fill="none" stroke="#824e00" stroke-width="2"/><path d="M260.11592,224.75241h17.81568h17.81568l6.00492,8.41599c3.29773,4.62665 7.29878,10.23015 8.87798,12.4576l2.87971,4.04698l-0.09953,0.16639c-0.08626,0.15565 -2.12992,3.01645 -13.54921,19.02186l-4.10723,5.75379h-17.82232h-17.81568l-4.50534,-6.32273c-2.48159,-3.47267 -6.44948,-9.03324 -8.81827,-12.35562c-2.36879,-3.32238 -4.33946,-6.09193 -4.37927,-6.15633c-0.05308,-0.10198 1.09482,-1.73902 8.81827,-12.57032z" fill="none" stroke="#824e00" stroke-width="2"/><path d="M260.11592,174.8914h17.81568h17.81568l6.00492,8.41599c3.29773,4.62665 7.29878,10.23015 8.87798,12.4576l2.87971,4.04698l-0.09953,0.16639c-0.08626,0.15565 -2.12992,3.01644 -13.54921,19.02185l-4.10723,5.75379h-17.82232h-17.81568l-4.50534,-6.32273c-2.48159,-3.47267 -6.44948,-9.03323 -8.81827,-12.35562c-2.36879,-3.32238 -4.33946,-6.09193 -4.37927,-6.15634c-0.05308,-0.10198 1.09482,-1.73901 8.81827,-12.57031z" fill="none" stroke="#824e00" stroke-width="2"/><path d="M260.11592,324.48446h17.81568h17.81568l6.00492,8.41599c3.29773,4.62665 7.29878,10.23015 8.87798,12.4576l2.87971,4.04698l-0.09953,0.16639c-0.08626,0.15565 -2.12992,3.01645 -13.54921,19.02186l-4.10723,5.75379h-17.82232h-17.81568l-4.50534,-6.32273c-2.48159,-3.47267 -6.44948,-9.03324 -8.81827,-12.35562c-2.36879,-3.32238 -4.33946,-6.09193 -4.37927,-6.15634c-0.05308,-0.10198 1.09482,-1.73901 8.81827,-12.57031z" fill="none" stroke="#824e00" stroke-width="2"/><path d="M260.11592,274.62344h17.81568h17.81568l6.00492,8.41599c3.29773,4.62665 7.29878,10.23015 8.87798,12.4576l2.87971,4.04698l-0.09953,0.16639c-0.08626,0.15565 -2.12992,3.01644 -13.54921,19.02185l-4.10723,5.75379h-17.82232h-17.81568l-4.50534,-6.32273c-2.48159,-3.47267 -6.44948,-9.03323 -8.81827,-12.35562c-2.36879,-3.32238 -4.33946,-6.09193 -4.37927,-6.15634c-0.05308,-0.10198 1.09482,-1.73901 8.81827,-12.57031z" fill="none" stroke="#824e00" stroke-width="2"/><path d="M260.11592,224.75241h17.81568h17.81568l6.00492,8.41599c3.29773,4.62665 7.29878,10.23015 8.87798,12.4576l2.87971,4.04698l-0.09953,0.16639c-0.08626,0.15565 -2.12992,3.01645 -13.54921,19.02186l-4.10723,5.75379h-17.82232h-17.81568l-4.50534,-6.32273c-2.48159,-3.47267 -6.44948,-9.03324 -8.81827,-12.35562c-2.36879,-3.32238 -4.33946,-6.09193 -4.37927,-6.15633c-0.05308,-0.10198 1.09482,-1.73902 8.81827,-12.57032z" fill="none" stroke="#824e00" stroke-width="2"/><path d="M260.11592,174.8914h17.81568h17.81568l6.00492,8.41599c3.29773,4.62665 7.29878,10.23015 8.87798,12.4576l2.87971,4.04698l-0.09953,0.16639c-0.08626,0.15565 -2.12992,3.01644 -13.54921,19.02185l-4.10723,5.75379h-17.82232h-17.81568l-4.50534,-6.32273c-2.48159,-3.47267 -6.44948,-9.03323 -8.81827,-12.35562c-2.36879,-3.32238 -4.33946,-6.09193 -4.37927,-6.15634c-0.05308,-0.10198 1.09482,-1.73901 8.81827,-12.57031z" fill="none" stroke="#824e00" stroke-width="2"/><path d="M260.11592,324.48446h17.81568h17.81568l6.00492,8.41599c3.29773,4.62665 7.29878,10.23015 8.87798,12.4576l2.87971,4.04698l-0.09953,0.16639c-0.08626,0.15565 -2.12992,3.01645 -13.54921,19.02186l-4.10723,5.75379h-17.82232h-17.81568l-4.50534,-6.32273c-2.48159,-3.47267 -6.44948,-9.03324 -8.81827,-12.35562c-2.36879,-3.32238 -4.33946,-6.09193 -4.37927,-6.15634c-0.05308,-0.10198 1.09482,-1.73901 8.81827,-12.57031z" fill="none" stroke="#824e00" stroke-width="2"/><path d="M260.11592,274.62344h17.81568h17.81568l6.00492,8.41599c3.29773,4.62665 7.29878,10.23015 8.87798,12.4576l2.87971,4.04698l-0.09953,0.16639c-0.08626,0.15565 -2.12992,3.01644 -13.54921,19.02185l-4.10723,5.75379h-17.82232h-17.81568l-4.50534,-6.32273c-2.48159,-3.47267 -6.44948,-9.03323 -8.81827,-12.35562c-2.36879,-3.32238 -4.33946,-6.09193 -4.37927,-6.15634c-0.05308,-0.10198 1.09482,-1.73901 8.81827,-12.57031z" fill="none" stroke="#824e00" stroke-width="2"/><path d="M260.11592,25.29196h17.81568h17.81568l6.00492,8.41599c3.29773,4.62665 7.29878,10.23015 8.87798,12.4576l2.87971,4.04698l-0.09953,0.16639c-0.08626,0.15565 -2.12992,3.01644 -13.54921,19.02185l-4.10723,5.75379h-17.82232h-17.81568l-4.50534,-6.32273c-2.48159,-3.47267 -6.44948,-9.03323 -8.81827,-12.35562c-2.36879,-3.32238 -4.33946,-6.09193 -4.37927,-6.15634c-0.05308,-0.10198 1.09482,-1.73901 8.81827,-12.57031z" fill="none" stroke="#824e00" stroke-width="2"/><path d="M260.11592,-24.56906h17.81568h17.81568l6.00492,8.41599c3.29773,4.62665 7.29878,10.23015 8.87798,12.4576l2.87971,4.04697l-0.09953,0.16639c-0.08626,0.15565 -2.12992,3.01644 -13.54921,19.02185l-4.10723,5.75379h-17.82232h-17.81568l-4.50534,-6.32273c-2.48159,-3.47267 -6.44948,-9.03323 -8.81827,-12.35562c-2.36879,-3.32238 -4.33946,-6.09193 -4.37927,-6.15634c-0.05308,-0.10198 1.09482,-1.73901 8.81827,-12.57031z" fill="none" stroke="#824e00" stroke-width="2"/><path d="M260.11592,125.024h17.81568h17.81568l6.00492,8.41599c3.29773,4.62665 7.29878,10.23015 8.87798,12.4576l2.87971,4.04698l-0.09953,0.16639c-0.08626,0.15565 -2.12992,3.01644 -13.54921,19.02185l-4.10723,5.75379h-17.82232h-17.81568l-4.50534,-6.32273c-2.48159,-3.47267 -6.44948,-9.03323 -8.81827,-12.35562c-2.36879,-3.32238 -4.33946,-6.09193 -4.37927,-6.15634c-0.05308,-0.10198 1.09482,-1.73901 8.81827,-12.57031z" fill="none" stroke="#824e00" stroke-width="2"/><path d="M260.11592,75.16299h17.81568h17.81568l6.00492,8.41599c3.29773,4.62665 7.29878,10.23015 8.87798,12.4576l2.87971,4.04697l-0.09953,0.16639c-0.08626,0.15565 -2.12992,3.01644 -13.54921,19.02185l-4.10723,5.75379h-17.82232h-17.81568l-4.50534,-6.32273c-2.48159,-3.47267 -6.44948,-9.03323 -8.81827,-12.35562c-2.36879,-3.32238 -4.33946,-6.09193 -4.37927,-6.15634c-0.05308,-0.10198 1.09482,-1.73901 8.81827,-12.57031z" fill="none" stroke="#824e00" stroke-width="2"/><path d="M313.53392,199.9439h17.81568h17.81568l6.00492,8.41598c3.29773,4.62665 7.29878,10.23015 8.87798,12.4576l2.8797,4.04698l-0.09952,0.16639c-0.08626,0.15565 -2.12992,3.01644 -13.54921,19.02185l-4.10723,5.75379h-17.82232h-17.81568l-4.50534,-6.32273c-2.48159,-3.47267 -6.44948,-9.03323 -8.81827,-12.35562c-2.36879,-3.32238 -4.33946,-6.09193 -4.37927,-6.15634c-0.05308,-0.10198 1.09482,-1.73901 8.81826,-12.57031z" fill="none" stroke="#824e00" stroke-width="2"/><path d="M313.53392,150.08288h17.81568h17.81568l6.00492,8.41599c3.29773,4.62665 7.29878,10.23015 8.87798,12.4576l2.8797,4.04698l-0.09952,0.16639c-0.08626,0.15565 -2.12992,3.01644 -13.54921,19.02185l-4.10723,5.75379h-17.82232h-17.81568l-4.50534,-6.32273c-2.48159,-3.47267 -6.44948,-9.03323 -8.81827,-12.35562c-2.36879,-3.32238 -4.33946,-6.09193 -4.37927,-6.15634c-0.05308,-0.10198 1.09482,-1.73902 8.81826,-12.57032z" fill="none" stroke="#824e00" stroke-width="2"/><path d="M313.53392,299.67594h17.81568h17.81568l6.00492,8.41598c3.29773,4.62665 7.29878,10.23015 8.87798,12.4576l2.8797,4.04698l-0.09952,0.16639c-0.08626,0.15565 -2.12992,3.01644 -13.54921,19.02185l-4.10723,5.75379h-17.82232h-17.81568l-4.50534,-6.32273c-2.48159,-3.47267 -6.44948,-9.03323 -8.81827,-12.35562c-2.36879,-3.32238 -4.33946,-6.09193 -4.37927,-6.15634c-0.05308,-0.10198 1.09482,-1.73901 8.81826,-12.57031z" fill="none" stroke="#824e00" stroke-width="2"/><path d="M313.53392,249.81492h17.81568h17.81568l6.00492,8.41599c3.29773,4.62665 7.29878,10.23015 8.87798,12.4576l2.8797,4.04698l-0.09952,0.16639c-0.08626,0.15565 -2.12992,3.01644 -13.54921,19.02185l-4.10723,5.75379h-17.82232h-17.81568l-4.50534,-6.32273c-2.48159,-3.47267 -6.44948,-9.03323 -8.81827,-12.35562c-2.36879,-3.32238 -4.33946,-6.09193 -4.37927,-6.15634c-0.05308,-0.10198 1.09482,-1.73902 8.81826,-12.57032z" fill="none" stroke="#824e00" stroke-width="2"/><path d="M313.53392,199.9439h17.81568h17.81568l6.00492,8.41598c3.29773,4.62665 7.29878,10.23015 8.87798,12.4576l2.8797,4.04698l-0.09952,0.16639c-0.08626,0.15565 -2.12992,3.01644 -13.54921,19.02185l-4.10723,5.75379h-17.82232h-17.81568l-4.50534,-6.32273c-2.48159,-3.47267 -6.44948,-9.03323 -8.81827,-12.35562c-2.36879,-3.32238 -4.33946,-6.09193 -4.37927,-6.15634c-0.05308,-0.10198 1.09482,-1.73901 8.81826,-12.57031z" fill="none" stroke="#824e00" stroke-width="2"/><path d="M313.53392,150.08288h17.81568h17.81568l6.00492,8.41599c3.29773,4.62665 7.29878,10.23015 8.87798,12.4576l2.8797,4.04698l-0.09952,0.16639c-0.08626,0.15565 -2.12992,3.01644 -13.54921,19.02185l-4.10723,5.75379h-17.82232h-17.81568l-4.50534,-6.32273c-2.48159,-3.47267 -6.44948,-9.03323 -8.81827,-12.35562c-2.36879,-3.32238 -4.33946,-6.09193 -4.37927,-6.15634c-0.05308,-0.10198 1.09482,-1.73902 8.81826,-12.57032z" fill="none" stroke="#824e00" stroke-width="2"/><path d="M313.53392,299.67594h17.81568h17.81568l6.00492,8.41598c3.29773,4.62665 7.29878,10.23015 8.87798,12.4576l2.8797,4.04698l-0.09952,0.16639c-0.08626,0.15565 -2.12992,3.01644 -13.54921,19.02185l-4.10723,5.75379h-17.82232h-17.81568l-4.50534,-6.32273c-2.48159,-3.47267 -6.44948,-9.03323 -8.81827,-12.35562c-2.36879,-3.32238 -4.33946,-6.09193 -4.37927,-6.15634c-0.05308,-0.10198 1.09482,-1.73901 8.81826,-12.57031z" fill="none" stroke="#824e00" stroke-width="2"/><path d="M313.53392,249.81492h17.81568h17.81568l6.00492,8.41599c3.29773,4.62665 7.29878,10.23015 8.87798,12.4576l2.8797,4.04698l-0.09952,0.16639c-0.08626,0.15565 -2.12992,3.01644 -13.54921,19.02185l-4.10723,5.75379h-17.82232h-17.81568l-4.50534,-6.32273c-2.48159,-3.47267 -6.44948,-9.03323 -8.81827,-12.35562c-2.36879,-3.32238 -4.33946,-6.09193 -4.37927,-6.15634c-0.05308,-0.10198 1.09482,-1.73902 8.81826,-12.57032z" fill="none" stroke="#824e00" stroke-width="2"/><path d="M313.53392,0.48344h17.81568h17.81568l6.00492,8.41599c3.29773,4.62665 7.29878,10.23015 8.87798,12.4576l2.8797,4.04698l-0.09952,0.16639c-0.08626,0.15565 -2.12992,3.01645 -13.54921,19.02186l-4.10723,5.75379h-17.82232h-17.81568l-4.50534,-6.32273c-2.48159,-3.47267 -6.44948,-9.03323 -8.81827,-12.35562c-2.36879,-3.32238 -4.33946,-6.09193 -4.37927,-6.15634c-0.05308,-0.10198 1.09482,-1.73902 8.81826,-12.57032z" fill="none" stroke="#824e00" stroke-width="2"/><path d="M313.53392,100.21548h17.81568h17.81568l6.00492,8.41599c3.29773,4.62665 7.29878,10.23015 8.87798,12.4576l2.8797,4.04698l-0.09952,0.16639c-0.08626,0.15565 -2.12992,3.01645 -13.54921,19.02186l-4.10723,5.75379h-17.82232h-17.81568l-4.50534,-6.32273c-2.48159,-3.47267 -6.44948,-9.03323 -8.81827,-12.35562c-2.36879,-3.32238 -4.33946,-6.09193 -4.37927,-6.15634c-0.05308,-0.10198 1.09482,-1.73902 8.81826,-12.57032z" fill="none" stroke="#824e00" stroke-width="2"/><path d="M313.53392,50.35447h17.81568h17.81568l6.00492,8.41599c3.29773,4.62665 7.29878,10.23015 8.87798,12.4576l2.8797,4.04698l-0.09952,0.16639c-0.08626,0.15565 -2.12992,3.01645 -13.54921,19.02186l-4.10723,5.75379h-17.82232h-17.81568l-4.50534,-6.32273c-2.48159,-3.47267 -6.44948,-9.03323 -8.81827,-12.35562c-2.36879,-3.32238 -4.33946,-6.09193 -4.37927,-6.15634c-0.05308,-0.10198 1.09482,-1.73902 8.81826,-12.57032z" fill="none" stroke="#824e00" stroke-width="2"/><path d="M366.98799,224.75241h17.81568h17.81568l6.00492,8.41599c3.29773,4.62665 7.29878,10.23015 8.87798,12.4576l2.8797,4.04698l-0.09952,0.16639c-0.08626,0.15565 -2.12992,3.01645 -13.54921,19.02186l-4.10723,5.75379h-17.82232h-17.81568l-4.50534,-6.32273c-2.48159,-3.47267 -6.44948,-9.03324 -8.81827,-12.35562c-2.36879,-3.32238 -4.33946,-6.09193 -4.37927,-6.15633c-0.05308,-0.10198 1.09482,-1.73902 8.81826,-12.57032z" fill="none" stroke="#824e00" stroke-width="2"/><path d="M366.98799,174.8914h17.81568h17.81568l6.00492,8.41599c3.29773,4.62665 7.29878,10.23015 8.87798,12.4576l2.8797,4.04698l-0.09952,0.16639c-0.08626,0.15565 -2.12992,3.01644 -13.54921,19.02185l-4.10723,5.75379h-17.82232h-17.81568l-4.50534,-6.32273c-2.48159,-3.47267 -6.44948,-9.03323 -8.81827,-12.35562c-2.36879,-3.32238 -4.33946,-6.09193 -4.37927,-6.15634c-0.05308,-0.10198 1.09482,-1.73901 8.81826,-12.57031z" fill="none" stroke="#824e00" stroke-width="2"/><path d="M366.98799,324.48446h17.81568h17.81568l6.00492,8.41599c3.29773,4.62665 7.29878,10.23015 8.87798,12.4576l2.8797,4.04698l-0.09952,0.16639c-0.08626,0.15565 -2.12992,3.01645 -13.54921,19.02186l-4.10723,5.75379h-17.82232h-17.81568l-4.50534,-6.32273c-2.48159,-3.47267 -6.44948,-9.03324 -8.81827,-12.35562c-2.36879,-3.32238 -4.33946,-6.09193 -4.37927,-6.15634c-0.05308,-0.10198 1.09482,-1.73901 8.81826,-12.57031z" fill="none" stroke="#824e00" stroke-width="2"/><path d="M366.98799,274.62344h17.81568h17.81568l6.00492,8.41599c3.29773,4.62665 7.29878,10.23015 8.87798,12.4576l2.8797,4.04698l-0.09952,0.16639c-0.08626,0.15565 -2.12992,3.01644 -13.54921,19.02185l-4.10723,5.75379h-17.82232h-17.81568l-4.50534,-6.32273c-2.48159,-3.47267 -6.44948,-9.03323 -8.81827,-12.35562c-2.36879,-3.32238 -4.33946,-6.09193 -4.37927,-6.15634c-0.05308,-0.10198 1.09482,-1.73901 8.81826,-12.57031z" fill="none" stroke="#824e00" stroke-width="2"/><path d="M366.98799,224.75241h17.81568h17.81568l6.00492,8.41599c3.29773,4.62665 7.29878,10.23015 8.87798,12.4576l2.8797,4.04698l-0.09952,0.16639c-0.08626,0.15565 -2.12992,3.01645 -13.54921,19.02186l-4.10723,5.75379h-17.82232h-17.81568l-4.50534,-6.32273c-2.48159,-3.47267 -6.44948,-9.03324 -8.81827,-12.35562c-2.36879,-3.32238 -4.33946,-6.09193 -4.37927,-6.15633c-0.05308,-0.10198 1.09482,-1.73902 8.81826,-12.57032z" fill="none" stroke="#824e00" stroke-width="2"/><path d="M366.98799,174.8914h17.81568h17.81568l6.00492,8.41599c3.29773,4.62665 7.29878,10.23015 8.87798,12.4576l2.8797,4.04698l-0.09952,0.16639c-0.08626,0.15565 -2.12992,3.01644 -13.54921,19.02185l-4.10723,5.75379h-17.82232h-17.81568l-4.50534,-6.32273c-2.48159,-3.47267 -6.44948,-9.03323 -8.81827,-12.35562c-2.36879,-3.32238 -4.33946,-6.09193 -4.37927,-6.15634c-0.05308,-0.10198 1.09482,-1.73901 8.81826,-12.57031z" fill="none" stroke="#824e00" stroke-width="2"/><path d="M366.98799,324.48446h17.81568h17.81568l6.00492,8.41599c3.29773,4.62665 7.29878,10.23015 8.87798,12.4576l2.8797,4.04698l-0.09952,0.16639c-0.08626,0.15565 -2.12992,3.01645 -13.54921,19.02186l-4.10723,5.75379h-17.82232h-17.81568l-4.50534,-6.32273c-2.48159,-3.47267 -6.44948,-9.03324 -8.81827,-12.35562c-2.36879,-3.32238 -4.33946,-6.09193 -4.37927,-6.15634c-0.05308,-0.10198 1.09482,-1.73901 8.81826,-12.57031z" fill="none" stroke="#824e00" stroke-width="2"/><path d="M366.98799,274.62344h17.81568h17.81568l6.00492,8.41599c3.29773,4.62665 7.29878,10.23015 8.87798,12.4576l2.8797,4.04698l-0.09952,0.16639c-0.08626,0.15565 -2.12992,3.01644 -13.54921,19.02185l-4.10723,5.75379h-17.82232h-17.81568l-4.50534,-6.32273c-2.48159,-3.47267 -6.44948,-9.03323 -8.81827,-12.35562c-2.36879,-3.32238 -4.33946,-6.09193 -4.37927,-6.15634c-0.05308,-0.10198 1.09482,-1.73901 8.81826,-12.57031z" fill="none" stroke="#824e00" stroke-width="2"/><path d="M366.98799,25.29196h17.81568h17.81568l6.00492,8.41599c3.29773,4.62665 7.29878,10.23015 8.87798,12.4576l2.8797,4.04698l-0.09952,0.16639c-0.08626,0.15565 -2.12992,3.01644 -13.54921,19.02185l-4.10723,5.75379h-17.82232h-17.81568l-4.50534,-6.32273c-2.48159,-3.47267 -6.44948,-9.03323 -8.81827,-12.35562c-2.36879,-3.32238 -4.33946,-6.09193 -4.37927,-6.15634c-0.05308,-0.10198 1.09482,-1.73901 8.81826,-12.57031z" fill="none" stroke="#824e00" stroke-width="2"/><path d="M366.98799,-24.56906h17.81568h17.81568l6.00492,8.41599c3.29773,4.62665 7.29878,10.23015 8.87798,12.4576l2.8797,4.04697l-0.09952,0.16639c-0.08626,0.15565 -2.12992,3.01644 -13.54921,19.02185l-4.10723,5.75379h-17.82232h-17.81568l-4.50534,-6.32273c-2.48159,-3.47267 -6.44948,-9.03323 -8.81827,-12.35562c-2.36879,-3.32238 -4.33946,-6.09193 -4.37927,-6.15634c-0.05308,-0.10198 1.09482,-1.73901 8.81826,-12.57031z" fill="none" stroke="#824e00" stroke-width="2"/><path d="M366.98799,125.024h17.81568h17.81568l6.00492,8.41599c3.29773,4.62665 7.29878,10.23015 8.87798,12.4576l2.8797,4.04698l-0.09952,0.16639c-0.08626,0.15565 -2.12992,3.01644 -13.54921,19.02185l-4.10723,5.75379h-17.82232h-17.81568l-4.50534,-6.32273c-2.48159,-3.47267 -6.44948,-9.03323 -8.81827,-12.35562c-2.36879,-3.32238 -4.33946,-6.09193 -4.37927,-6.15634c-0.05308,-0.10198 1.09482,-1.73901 8.81826,-12.57031z" fill="none" stroke="#824e00" stroke-width="2"/><path d="M366.98799,75.16299h17.81568h17.81568l6.00492,8.41599c3.29773,4.62665 7.29878,10.23015 8.87798,12.4576l2.8797,4.04697l-0.09952,0.16639c-0.08626,0.15565 -2.12992,3.01644 -13.54921,19.02185l-4.10723,5.75379h-17.82232h-17.81568l-4.50534,-6.32273c-2.48159,-3.47267 -6.44948,-9.03323 -8.81827,-12.35562c-2.36879,-3.32238 -4.33946,-6.09193 -4.37927,-6.15634c-0.05308,-0.10198 1.09482,-1.73901 8.81826,-12.57031z" fill="none" stroke="#824e00" stroke-width="2"/><path d="M420.406,199.9439h17.81568h17.81568l6.00492,8.41598c3.29773,4.62665 7.29878,10.23015 8.87798,12.4576l2.8797,4.04698l-0.09952,0.16639c-0.08626,0.15565 -2.12992,3.01644 -13.54921,19.02185l-4.10723,5.75379h-17.82232h-17.81568l-4.50534,-6.32273c-2.48159,-3.47267 -6.44948,-9.03323 -8.81827,-12.35562c-2.36879,-3.32238 -4.33946,-6.09193 -4.37927,-6.15634c-0.05308,-0.10198 1.09482,-1.73901 8.81826,-12.57031z" fill="none" stroke="#824e00" stroke-width="2"/><path d="M420.406,150.08288h17.81568h17.81568l6.00492,8.41599c3.29773,4.62665 7.29878,10.23015 8.87798,12.4576l2.8797,4.04698l-0.09952,0.16639c-0.08626,0.15565 -2.12992,3.01644 -13.54921,19.02185l-4.10723,5.75379h-17.82232h-17.81568l-4.50534,-6.32273c-2.48159,-3.47267 -6.44948,-9.03323 -8.81827,-12.35562c-2.36879,-3.32238 -4.33946,-6.09193 -4.37927,-6.15634c-0.05308,-0.10198 1.09482,-1.73902 8.81826,-12.57032z" fill="none" stroke="#824e00" stroke-width="2"/><path d="M420.406,299.67594h17.81568h17.81568l6.00492,8.41598c3.29773,4.62665 7.29878,10.23015 8.87798,12.4576l2.8797,4.04698l-0.09952,0.16639c-0.08626,0.15565 -2.12992,3.01644 -13.54921,19.02185l-4.10723,5.75379h-17.82232h-17.81568l-4.50534,-6.32273c-2.48159,-3.47267 -6.44948,-9.03323 -8.81827,-12.35562c-2.36879,-3.32238 -4.33946,-6.09193 -4.37927,-6.15634c-0.05308,-0.10198 1.09482,-1.73901 8.81826,-12.57031z" fill="none" stroke="#824e00" stroke-width="2"/><path d="M420.406,249.81492h17.81568h17.81568l6.00492,8.41599c3.29773,4.62665 7.29878,10.23015 8.87798,12.4576l2.8797,4.04698l-0.09952,0.16639c-0.08626,0.15565 -2.12992,3.01644 -13.54921,19.02185l-4.10723,5.75379h-17.82232h-17.81568l-4.50534,-6.32273c-2.48159,-3.47267 -6.44948,-9.03323 -8.81827,-12.35562c-2.36879,-3.32238 -4.33946,-6.09193 -4.37927,-6.15634c-0.05308,-0.10198 1.09482,-1.73902 8.81826,-12.57032z" fill="none" stroke="#824e00" stroke-width="2"/><path d="M420.406,199.9439h17.81568h17.81568l6.00492,8.41598c3.29773,4.62665 7.29878,10.23015 8.87798,12.4576l2.8797,4.04698l-0.09952,0.16639c-0.08626,0.15565 -2.12992,3.01644 -13.54921,19.02185l-4.10723,5.75379h-17.82232h-17.81568l-4.50534,-6.32273c-2.48159,-3.47267 -6.44948,-9.03323 -8.81827,-12.35562c-2.36879,-3.32238 -4.33946,-6.09193 -4.37927,-6.15634c-0.05308,-0.10198 1.09482,-1.73901 8.81826,-12.57031z" fill="none" stroke="#824e00" stroke-width="2"/><path d="M420.406,150.08288h17.81568h17.81568l6.00492,8.41599c3.29773,4.62665 7.29878,10.23015 8.87798,12.4576l2.8797,4.04698l-0.09952,0.16639c-0.08626,0.15565 -2.12992,3.01644 -13.54921,19.02185l-4.10723,5.75379h-17.82232h-17.81568l-4.50534,-6.32273c-2.48159,-3.47267 -6.44948,-9.03323 -8.81827,-12.35562c-2.36879,-3.32238 -4.33946,-6.09193 -4.37927,-6.15634c-0.05308,-0.10198 1.09482,-1.73902 8.81826,-12.57032z" fill="none" stroke="#824e00" stroke-width="2"/><path d="M420.406,299.67594h17.81568h17.81568l6.00492,8.41598c3.29773,4.62665 7.29878,10.23015 8.87798,12.4576l2.8797,4.04698l-0.09952,0.16639c-0.08626,0.15565 -2.12992,3.01644 -13.54921,19.02185l-4.10723,5.75379h-17.82232h-17.81568l-4.50534,-6.32273c-2.48159,-3.47267 -6.44948,-9.03323 -8.81827,-12.35562c-2.36879,-3.32238 -4.33946,-6.09193 -4.37927,-6.15634c-0.05308,-0.10198 1.09482,-1.73901 8.81826,-12.57031z" fill="none" stroke="#824e00" stroke-width="2"/><path d="M420.406,249.81492h17.81568h17.81568l6.00492,8.41599c3.29773,4.62665 7.29878,10.23015 8.87798,12.4576l2.8797,4.04698l-0.09952,0.16639c-0.08626,0.15565 -2.12992,3.01644 -13.54921,19.02185l-4.10723,5.75379h-17.82232h-17.81568l-4.50534,-6.32273c-2.48159,-3.47267 -6.44948,-9.03323 -8.81827,-12.35562c-2.36879,-3.32238 -4.33946,-6.09193 -4.37927,-6.15634c-0.05308,-0.10198 1.09482,-1.73902 8.81826,-12.57032z" fill="none" stroke="#824e00" stroke-width="2"/><path d="M420.406,0.48344h17.81568h17.81568l6.00492,8.41599c3.29773,4.62665 7.29878,10.23015 8.87798,12.4576l2.8797,4.04698l-0.09952,0.16639c-0.08626,0.15565 -2.12992,3.01645 -13.54921,19.02186l-4.10723,5.75379h-17.82232h-17.81568l-4.50534,-6.32273c-2.48159,-3.47267 -6.44948,-9.03323 -8.81827,-12.35562c-2.36879,-3.32238 -4.33946,-6.09193 -4.37927,-6.15634c-0.05308,-0.10198 1.09482,-1.73902 8.81826,-12.57032z" fill="none" stroke="#824e00" stroke-width="2"/><path d="M420.406,100.21548h17.81568h17.81568l6.00492,8.41599c3.29773,4.62665 7.29878,10.23015 8.87798,12.4576l2.8797,4.04698l-0.09952,0.16639c-0.08626,0.15565 -2.12992,3.01645 -13.54921,19.02186l-4.10723,5.75379h-17.82232h-17.81568l-4.50534,-6.32273c-2.48159,-3.47267 -6.44948,-9.03323 -8.81827,-12.35562c-2.36879,-3.32238 -4.33946,-6.09193 -4.37927,-6.15634c-0.05308,-0.10198 1.09482,-1.73902 8.81826,-12.57032z" fill="none" stroke="#824e00" stroke-width="2"/><path d="M420.406,50.35447h17.81568h17.81568l6.00492,8.41599c3.29773,4.62665 7.29878,10.23015 8.87798,12.4576l2.8797,4.04698l-0.09952,0.16639c-0.08626,0.15565 -2.12992,3.01645 -13.54921,19.02186l-4.10723,5.75379h-17.82232h-17.81568l-4.50534,-6.32273c-2.48159,-3.47267 -6.44948,-9.03323 -8.81827,-12.35562c-2.36879,-3.32238 -4.33946,-6.09193 -4.37927,-6.15634c-0.05308,-0.10198 1.09482,-1.73902 8.81826,-12.57032z" fill="none" stroke="#824e00" stroke-width="2"/><path d="M473.70369,224.75241h17.81568h17.81568l6.00492,8.41599c3.29773,4.62665 7.29878,10.23015 8.87798,12.4576l2.8797,4.04698l-0.09952,0.16639c-0.08626,0.15565 -2.12992,3.01645 -13.54921,19.02186l-4.10723,5.75379h-17.82232h-17.81568l-4.50534,-6.32273c-2.48159,-3.47267 -6.44948,-9.03324 -8.81827,-12.35562c-2.36879,-3.32238 -4.33946,-6.09193 -4.37927,-6.15633c-0.05308,-0.10198 1.09482,-1.73902 8.81826,-12.57032z" fill="none" stroke="#824e00" stroke-width="2"/><path d="M473.70369,174.8914h17.81568h17.81568l6.00492,8.41599c3.29773,4.62665 7.29878,10.23015 8.87798,12.4576l2.8797,4.04698l-0.09952,0.16639c-0.08626,0.15565 -2.12992,3.01644 -13.54921,19.02185l-4.10723,5.75379h-17.82232h-17.81568l-4.50534,-6.32273c-2.48159,-3.47267 -6.44948,-9.03323 -8.81827,-12.35562c-2.36879,-3.32238 -4.33946,-6.09193 -4.37927,-6.15634c-0.05308,-0.10198 1.09482,-1.73901 8.81826,-12.57031z" fill="none" stroke="#824e00" stroke-width="2"/><path d="M473.70369,324.48446h17.81568h17.81568l6.00492,8.41599c3.29773,4.62665 7.29878,10.23015 8.87798,12.4576l2.8797,4.04698l-0.09952,0.16639c-0.08626,0.15565 -2.12992,3.01645 -13.54921,19.02186l-4.10723,5.75379h-17.82232h-17.81568l-4.50534,-6.32273c-2.48159,-3.47267 -6.44948,-9.03324 -8.81827,-12.35562c-2.36879,-3.32238 -4.33946,-6.09193 -4.37927,-6.15634c-0.05308,-0.10198 1.09482,-1.73901 8.81826,-12.57031z" fill="none" stroke="#824e00" stroke-width="2"/><path d="M473.70369,274.62344h17.81568h17.81568l6.00492,8.41599c3.29773,4.62665 7.29878,10.23015 8.87798,12.4576l2.8797,4.04698l-0.09952,0.16639c-0.08626,0.15565 -2.12992,3.01644 -13.54921,19.02185l-4.10723,5.75379h-17.82232h-17.81568l-4.50534,-6.32273c-2.48159,-3.47267 -6.44948,-9.03323 -8.81827,-12.35562c-2.36879,-3.32238 -4.33946,-6.09193 -4.37927,-6.15634c-0.05308,-0.10198 1.09482,-1.73901 8.81826,-12.57031z" fill="none" stroke="#824e00" stroke-width="2"/><path d="M473.70369,224.75241h17.81568h17.81568l6.00492,8.41599c3.29773,4.62665 7.29878,10.23015 8.87798,12.4576l2.8797,4.04698l-0.09952,0.16639c-0.08626,0.15565 -2.12992,3.01645 -13.54921,19.02186l-4.10723,5.75379h-17.82232h-17.81568l-4.50534,-6.32273c-2.48159,-3.47267 -6.44948,-9.03324 -8.81827,-12.35562c-2.36879,-3.32238 -4.33946,-6.09193 -4.37927,-6.15633c-0.05308,-0.10198 1.09482,-1.73902 8.81826,-12.57032z" fill="none" stroke="#824e00" stroke-width="2"/><path d="M473.70369,174.8914h17.81568h17.81568l6.00492,8.41599c3.29773,4.62665 7.29878,10.23015 8.87798,12.4576l2.8797,4.04698l-0.09952,0.16639c-0.08626,0.15565 -2.12992,3.01644 -13.54921,19.02185l-4.10723,5.75379h-17.82232h-17.81568l-4.50534,-6.32273c-2.48159,-3.47267 -6.44948,-9.03323 -8.81827,-12.35562c-2.36879,-3.32238 -4.33946,-6.09193 -4.37927,-6.15634c-0.05308,-0.10198 1.09482,-1.73901 8.81826,-12.57031z" fill="none" stroke="#824e00" stroke-width="2"/><path d="M473.70369,324.48446h17.81568h17.81568l6.00492,8.41599c3.29773,4.62665 7.29878,10.23015 8.87798,12.4576l2.8797,4.04698l-0.09952,0.16639c-0.08626,0.15565 -2.12992,3.01645 -13.54921,19.02186l-4.10723,5.75379h-17.82232h-17.81568l-4.50534,-6.32273c-2.48159,-3.47267 -6.44948,-9.03324 -8.81827,-12.35562c-2.36879,-3.32238 -4.33946,-6.09193 -4.37927,-6.15634c-0.05308,-0.10198 1.09482,-1.73901 8.81826,-12.57031z" fill="none" stroke="#824e00" stroke-width="2"/><path d="M473.70369,274.62344h17.81568h17.81568l6.00492,8.41599c3.29773,4.62665 7.29878,10.23015 8.87798,12.4576l2.8797,4.04698l-0.09952,0.16639c-0.08626,0.15565 -2.12992,3.01644 -13.54921,19.02185l-4.10723,5.75379h-17.82232h-17.81568l-4.50534,-6.32273c-2.48159,-3.47267 -6.44948,-9.03323 -8.81827,-12.35562c-2.36879,-3.32238 -4.33946,-6.09193 -4.37927,-6.15634c-0.05308,-0.10198 1.09482,-1.73901 8.81826,-12.57031z" fill="none" stroke="#824e00" stroke-width="2"/><path d="M473.70369,25.29196h17.81568h17.81568l6.00492,8.41599c3.29773,4.62665 7.29878,10.23015 8.87798,12.4576l2.8797,4.04698l-0.09952,0.16639c-0.08626,0.15565 -2.12992,3.01644 -13.54921,19.02185l-4.10723,5.75379h-17.82232h-17.81568l-4.50534,-6.32273c-2.48159,-3.47267 -6.44948,-9.03323 -8.81827,-12.35562c-2.36879,-3.32238 -4.33946,-6.09193 -4.37927,-6.15634c-0.05308,-0.10198 1.09482,-1.73901 8.81826,-12.57031z" fill="none" stroke="#824e00" stroke-width="2"/><path d="M473.70369,-24.56906h17.81568h17.81568l6.00492,8.41599c3.29773,4.62665 7.29878,10.23015 8.87798,12.4576l2.8797,4.04697l-0.09952,0.16639c-0.08626,0.15565 -2.12992,3.01644 -13.54921,19.02185l-4.10723,5.75379h-17.82232h-17.81568l-4.50534,-6.32273c-2.48159,-3.47267 -6.44948,-9.03323 -8.81827,-12.35562c-2.36879,-3.32238 -4.33946,-6.09193 -4.37927,-6.15634c-0.05308,-0.10198 1.09482,-1.73901 8.81826,-12.57031z" fill="none" stroke="#824e00" stroke-width="2"/><path d="M473.70369,125.024h17.81568h17.81568l6.00492,8.41599c3.29773,4.62665 7.29878,10.23015 8.87798,12.4576l2.8797,4.04698l-0.09952,0.16639c-0.08626,0.15565 -2.12992,3.01644 -13.54921,19.02185l-4.10723,5.75379h-17.82232h-17.81568l-4.50534,-6.32273c-2.48159,-3.47267 -6.44948,-9.03323 -8.81827,-12.35562c-2.36879,-3.32238 -4.33946,-6.09193 -4.37927,-6.15634c-0.05308,-0.10198 1.09482,-1.73901 8.81826,-12.57031z" fill="none" stroke="#824e00" stroke-width="2"/><path d="M473.70369,75.16299h17.81568h17.81568l6.00492,8.41599c3.29773,4.62665 7.29878,10.23015 8.87798,12.4576l2.8797,4.04697l-0.09952,0.16639c-0.08626,0.15565 -2.12992,3.01644 -13.54921,19.02185l-4.10723,5.75379h-17.82232h-17.81568l-4.50534,-6.32273c-2.48159,-3.47267 -6.44948,-9.03323 -8.81827,-12.35562c-2.36879,-3.32238 -4.33946,-6.09193 -4.37927,-6.15634c-0.05308,-0.10198 1.09482,-1.73901 8.81826,-12.57031z" fill="none" stroke="#824e00" stroke-width="2"/><path d="M229.68619,366.95519v-372.37237h255.25526v372.37237z" fill="url(#color-1)" stroke="none" stroke-width="0"/><path d="M-4.75,369.50002v-379h245v379z" fill="#000000" stroke="none" stroke-width="0"/></g></g></svg>