<svg version="1.1" xmlns="http://www.w3.org/2000/svg" xmlns:xlink="http://www.w3.org/1999/xlink" width="241.64286" height="360.35714" viewBox="0,0,241.64286,360.35714"><g transform="translate(0.14286,0.5)"><g data-paper-data="{&quot;isPaintingLayer&quot;:true}" fill-rule="nonzero" stroke-linecap="butt" stroke-linejoin="miter" stroke-miterlimit="10" stroke-dasharray="" stroke-dashoffset="0" style="mix-blend-mode: normal"><path d="M240.5,1.25v357.5z" fill="#000000" stroke="#00ff02" stroke-width="2"/><path d="M1,46v-45.5h239.5v45.5z" fill="#000000" stroke="#00ff02" stroke-width="2"/><text transform="translate(13.5,30.5) scale(0.5,0.5)" font-size="40" xml:space="preserve" fill="#00ff02" fill-rule="nonzero" stroke="none" stroke-width="1" stroke-linecap="butt" stroke-linejoin="miter" stroke-miterlimit="10" stroke-dasharray="" stroke-dashoffset="0" font-family="Sans Serif" font-weight="normal" text-anchor="start" style="mix-blend-mode: normal"><tspan x="0" dy="0">Код</tspan></text><path d="M0.85714,358.85714v-58.25h239.5v58.25z" fill="#000000" stroke="#00ff02" stroke-width="2"/><path d="M1,359.75v-357.5z" fill="#000000" stroke="#00ff02" stroke-width="2"/><path d="M225.83152,56.48276c2.51882,0 4.56072,2.18034 4.56072,4.86992c0,0.04611 -0.0006,218.88671 -0.00179,218.93252c-0.06837,2.62582 -2.0833,4.73204 -4.55893,4.73204c-2.44865,0 -4.44658,-2.06055 -4.556,-4.64637c-0.00314,-0.0741 -0.00472,-218.94326 -0.00472,-219.01819c0,-2.68958 2.04191,-4.86992 4.56072,-4.86992z" fill="#000000" stroke="#00ff02" stroke-width="1"/></g></g></svg>