<svg version="1.1" xmlns="http://www.w3.org/2000/svg" xmlns:xlink="http://www.w3.org/1999/xlink" width="115.37729" height="127.29321" viewBox="0,0,115.37729,127.29321"><g transform="translate(-180.12271,-118.42657)"><g data-paper-data="{&quot;isPaintingLayer&quot;:true}" fill-rule="nonzero" stroke-miterlimit="10" stroke-dasharray="" stroke-dashoffset="0" style="mix-blend-mode: normal"><path d="M274.3097,202.49971c0,5.7081 -4.62942,10.33632 -10.33632,10.33632h-47.94796c-5.7081,0 -10.33512,-4.62942 -10.33512,-10.33632v-45.00055c0,-5.7081 4.62702,-10.33512 10.33512,-10.33512h47.94676c5.7105,0 10.33632,4.62702 10.33632,10.33512v45.00055z" fill-opacity="0.2" fill="#00fff7" stroke="#00fff6" stroke-width="2.5" stroke-linecap="butt" stroke-linejoin="miter"/><path d="M221.4821,203.80878c0,-10.22717 8.29075,-18.5179 18.5179,-18.5179c10.22717,0 18.5179,8.29073 18.5179,18.5179M250.58167,166.77292c0,-5.84409 -4.73768,-10.58166 -10.58166,-10.58166c-5.84409,0 -10.58166,4.73757 -10.58166,10.58166c0,5.84409 4.73757,10.58166 10.58166,10.58166c5.84398,0 10.58166,-4.73757 10.58166,-10.58166z" fill="none" stroke="#00fff6" stroke-width="2.5" stroke-linecap="round" stroke-linejoin="round"/><text transform="translate(253.95407,157.05236) scale(0.5,0.5)" font-size="40" xml:space="preserve" fill="#ff0000" fill-rule="nonzero" stroke="none" stroke-width="1" stroke-linecap="butt" stroke-linejoin="miter" stroke-miterlimit="10" stroke-dasharray="" stroke-dashoffset="0" font-family="Sans Serif" font-weight="normal" text-anchor="start" style="mix-blend-mode: normal"><tspan x="0" dy="0">х50</tspan></text><path d="M194.5,118.54763h5.14285v2.26019l-5.14285,0.0014z" fill-opacity="0.00784" fill="#00ffff" stroke="#00fff6" stroke-width="0" stroke-linecap="butt" stroke-linejoin="miter"/><path d="M291.55825,118.54763l-0.00254,-0.12105l3.94429,0.0016v0.11945z" fill-opacity="0.00784" fill="#00ffff" stroke="#00fff6" stroke-width="0" stroke-linecap="butt" stroke-linejoin="miter"/><path d="M295.5,235.50001h-0.93562l0.02197,-4.68068l0.91365,-2.49445z" fill-opacity="0.00784" fill="#00ffff" stroke="#00fff6" stroke-width="0" stroke-linecap="butt" stroke-linejoin="miter"/><path d="M180.12271,245.71979v-1.89883l1.24644,0.09677l0.04974,1.80206z" fill-opacity="0.00784" fill="#00ffff" stroke="#00fff6" stroke-width="0" stroke-linecap="butt" stroke-linejoin="miter"/></g></g></svg>