<svg version="1.1" xmlns="http://www.w3.org/2000/svg" xmlns:xlink="http://www.w3.org/1999/xlink" width="189" height="82.25" viewBox="0,0,189,82.25"><g transform="translate(-139.5,42)"><g data-paper-data="{&quot;isPaintingLayer&quot;:true}" fill-rule="nonzero" stroke-width="0" stroke-linecap="butt" stroke-linejoin="miter" stroke-miterlimit="10" stroke-dasharray="" stroke-dashoffset="0" style="mix-blend-mode: normal"><path d="M328.5,-6.5c0,19.60611 -42.30909,35.5 -94.5,35.5c-52.19091,0 -94.5,-15.89389 -94.5,-35.5c0,-19.60611 42.30909,-35.5 94.5,-35.5c52.19091,0 94.5,15.89389 94.5,35.5z" fill="#666666" stroke="#ffffff"/><path d="M284.54545,20.18182v-15.75h17.5v15.75z" fill="#ffffff" stroke="#000000"/><path d="M249.02273,24.88636v-6h23.5v6z" fill="#ffffff" stroke="#000000"/><path d="M235.68939,7.55303v-6h23.5v6z" fill="#ffffff" stroke="#000000"/><path d="M300.95455,19.43182v-16h16.5v16z" fill="#ffffff" stroke="#000000"/><path d="M225.63636,40.25v-23.75h26.75v23.75z" fill="#ffffff" stroke="#000000"/><path d="M219.09091,9.5v-14h22.25v14z" fill="#ffffff" stroke="#000000"/><path d="M212.22727,26.40909v-22.25h15.25v22.25z" fill="#ffffff" stroke="#000000"/><path d="M204.11364,33.75v-13.5h10.5v13.5z" fill="#ffffff" stroke="#000000"/><path d="M175.22727,14.38636v-14h19.75v14z" fill="#ffffff" stroke="#000000"/><path d="M252.65909,13.93182v-22.75h15.5v22.75z" fill="#ffffff" stroke="#000000"/><path d="M266.40909,9.68182v-9.25h21v9.25z" fill="#ffffff" stroke="#000000"/><path d="M184.5,35.86364v-21h15.75v21z" fill="#ffffff" stroke="#000000"/><path d="M272,33.27273v-22.5h14.5v22.5z" fill="#ffffff" stroke="#000000"/><path d="M160.70455,21.61364v-17.5h19.25v17.5z" fill="#ffffff" stroke="#000000"/><path d="M145.20455,13.47727v-19.5h17.25v19.5z" fill="#ffffff" stroke="#000000"/><path d="M190.09091,5.84091v-10.5h21v10.5z" fill="#ffffff" stroke="#000000"/><path d="M285.80682,12.38636v-19h10.75v19z" fill="#ffffff" stroke="#000000"/></g></g></svg>