<svg version="1.1" xmlns="http://www.w3.org/2000/svg" xmlns:xlink="http://www.w3.org/1999/xlink" width="302.55014" height="68.65254" viewBox="0,0,302.55014,68.65254"><defs><linearGradient x1="7.44788" y1="180" x2="75.5736" y2="180" gradientUnits="userSpaceOnUse" id="color-1"><stop offset="0" stop-color="#580062"/><stop offset="1" stop-color="#d700b0"/></linearGradient></defs><g transform="translate(1.08217,-145.67373)"><g data-paper-data="{&quot;isPaintingLayer&quot;:true}" fill-rule="nonzero" stroke-linecap="butt" stroke-linejoin="miter" stroke-miterlimit="10" stroke-dasharray="" stroke-dashoffset="0" style="mix-blend-mode: normal"><path d="M-1.08217,214.32627v-68.65254h302.55014v68.65254z" fill="#ffffff" stroke="none" stroke-width="0"/><g stroke="#000000" stroke-width="2.5"><path d="M75.5736,202.3378c0,5.66703 -4.59612,10.26196 -10.26196,10.26196h-47.60299c-5.66703,0 -10.26077,-4.59612 -10.26077,-10.26196v-44.67679c0,-5.66703 4.59373,-10.26077 10.26077,-10.26077h47.6018c5.66942,0 10.26196,4.59373 10.26196,10.26077v44.67679z" fill="url(#color-1)"/><path d="M51.9536,191.44649l-21.89305,-21.89305l10.95373,-10.95373l21.89305,21.89305z" fill="none"/><path d="M44.06445,183.56484l-16.73426,16.59158c-0.78375,0.81111 -1.86851,1.26125 -2.99627,1.24335c-2.33022,0 -4.21923,-1.88901 -4.21923,-4.21923c-0.0179,-1.12775 0.43224,-2.21253 1.24335,-2.99627l16.59158,-16.73426z" fill="none"/><path d="M59.16807,166.5656c0.00589,1.11544 -0.43444,2.18692 -1.22297,2.97588l-2.99627,2.99627l-5.97215,-5.97215l2.99627,-2.99627c1.20905,-1.20294 3.02341,-1.55967 4.59788,-0.90401c1.57447,0.65566 2.59936,2.19475 2.59722,3.90028z" fill="none"/></g><text transform="translate(85.97297,192.57498) scale(0.9117,0.9117)" font-size="40" xml:space="preserve" fill="#000000" fill-rule="nonzero" stroke="none" stroke-width="1" stroke-linecap="butt" stroke-linejoin="miter" stroke-miterlimit="10" stroke-dasharray="" stroke-dashoffset="0" font-family="Sans Serif" font-weight="normal" text-anchor="start" style="mix-blend-mode: normal"><tspan x="0" dy="0">Админы.txt</tspan></text></g></g></svg>