<svg version="1.1" xmlns="http://www.w3.org/2000/svg" xmlns:xlink="http://www.w3.org/1999/xlink" width="101" height="101" viewBox="0,0,101,101"><g transform="translate(-189.5,-129.5)"><g data-paper-data="{&quot;isPaintingLayer&quot;:true}" fill-rule="nonzero" stroke-linejoin="miter" stroke-miterlimit="10" stroke-dasharray="" stroke-dashoffset="0" style="mix-blend-mode: normal"><path d="M189.5,230.5v-101h101v101z" fill="none" stroke="#00fff6" stroke-width="0" stroke-linecap="butt"/><g stroke="#642c78"><path d="M274.06286,202.33787c0,5.66703 -4.59612,10.26196 -10.26196,10.26196h-47.60299c-5.66703,0 -10.26077,-4.59612 -10.26077,-10.26196v-44.67679c0,-5.66703 4.59373,-10.26077 10.26077,-10.26077h47.6018c5.66942,0 10.26196,4.59373 10.26196,10.26077v44.67679z" fill-opacity="0.2" fill="#622d7a" stroke-width="2.5" stroke-linecap="butt"/><g fill="none" stroke-width="9"><path d="M215.21065,180.00002c0,-6.00628 4.86905,-10.87533 10.87533,-10.87533c6.00628,0 10.87533,4.86905 10.87533,10.87533c0,6.00628 -4.86905,10.87533 -10.87533,10.87533c-6.00628,0 -10.87533,-4.86905 -10.87533,-10.87533z" stroke-linecap="butt"/><path d="M264.46949,180.00003h-24.52279" stroke-linecap="round"/><path d="M251.56837,189.38264v-5.54428" stroke-linecap="round"/><path d="M264.78935,180.00002v9.38263" stroke-linecap="round"/></g></g></g></g></svg>