<svg version="1.1" xmlns="http://www.w3.org/2000/svg" xmlns:xlink="http://www.w3.org/1999/xlink" width="84.8125" height="81.9375" viewBox="0,0,84.8125,81.9375"><g transform="translate(-197.59375,-139.03125)"><g data-paper-data="{&quot;isPaintingLayer&quot;:true}" fill-rule="nonzero" stroke-linecap="butt" stroke-linejoin="miter" stroke-miterlimit="10" stroke-dasharray="" stroke-dashoffset="0" style="mix-blend-mode: normal"><path d="M228.75,180c0,-6.2132 5.0368,-11.25 11.25,-11.25c6.2132,0 11.25,5.0368 11.25,11.25c0,6.2132 -5.0368,11.25 -11.25,11.25c-6.2132,0 -11.25,-5.0368 -11.25,-11.25z" fill="#ff1212" stroke="#3aff13" stroke-width="0"/><g fill-opacity="0.01569" fill="#39ff12" stroke="none" stroke-width="0.5"><path d="M197.59375,179.28125c0,-1.38071 1.11929,-2.5 2.5,-2.5c1.38071,0 2.5,1.11929 2.5,2.5c0,1.38071 -1.11929,2.5 -2.5,2.5c-1.38071,0 -2.5,-1.11929 -2.5,-2.5z"/><path d="M238.21875,141.53125c0,-1.38071 1.11929,-2.5 2.5,-2.5c1.38071,0 2.5,1.11929 2.5,2.5c0,1.38071 -1.11929,2.5 -2.5,2.5c-1.38071,0 -2.5,-1.11929 -2.5,-2.5z"/></g><g data-paper-data="{&quot;index&quot;:null}" fill-opacity="0.01569" fill="#39ff12" stroke="none" stroke-width="0.5"><path d="M282.40625,180.71875c0,1.38071 -1.11929,2.5 -2.5,2.5c-1.38071,0 -2.5,-1.11929 -2.5,-2.5c0,-1.38071 1.11929,-2.5 2.5,-2.5c1.38071,0 2.5,1.11929 2.5,2.5z"/><path d="M241.78125,218.46875c0,1.38071 -1.11929,2.5 -2.5,2.5c-1.38071,0 -2.5,-1.11929 -2.5,-2.5c0,-1.38071 1.11929,-2.5 2.5,-2.5c1.38071,0 2.5,1.11929 2.5,2.5z"/></g></g></g></svg>