<svg version="1.1" xmlns="http://www.w3.org/2000/svg" xmlns:xlink="http://www.w3.org/1999/xlink" width="95.38113" height="112.77769" viewBox="0,0,95.38113,112.77769"><defs><linearGradient x1="240.00005" y1="125.96888" x2="240.00005" y2="211.67009" gradientUnits="userSpaceOnUse" id="color-1"><stop offset="0" stop-color="#bb3aca"/><stop offset="1" stop-color="#833ae0"/></linearGradient><linearGradient x1="239.79787" y1="143.214" x2="239.79787" y2="212.08806" gradientUnits="userSpaceOnUse" id="color-2"><stop offset="0" stop-color="#d195e7"/><stop offset="1" stop-color="#b68aed"/></linearGradient></defs><g transform="translate(-192.30948,-123.61115)"><g data-paper-data="{&quot;isPaintingLayer&quot;:true}" fill-rule="nonzero" stroke-linecap="butt" stroke-linejoin="miter" stroke-miterlimit="10" stroke-dasharray="" stroke-dashoffset="0" style="mix-blend-mode: normal"><path d="M192.30948,236.38884v-112.77769h95.38113v112.77769z" fill="#ffffff" stroke="none" stroke-width="NaN"/><path d="M197.14944,168.81949c0,-23.6658 19.18486,-42.85061 42.85061,-42.85061c23.66575,0 42.85061,19.1848 42.85061,42.85061c0,23.6658 -19.1848,42.85061 -42.85061,42.85061c-23.66575,0 -42.85061,-19.1848 -42.85061,-42.85061z" fill="url(#color-1)" stroke="none" stroke-width="0"/><path d="M223.78775,156.20058c1.61109,-7.45537 8.27128,-12.98659 16.20872,-12.98659c7.90889,0 14.52238,5.44011 16.16365,12.85518c0.08875,0.40098 1.18618,-0.32221 2.56724,0.86035c1.27145,1.08866 1.17716,2.28703 1.17716,2.48635c0,0.17956 0.03969,1.61044 -1.09068,2.54755c-1.55316,1.28777 -2.48735,0.56141 -2.55112,0.89863c-1.00506,5.31777 -4.55332,10.06597 -9.3324,12.27337c-0.11388,0.05259 -0.67357,0.46687 -1.24798,1.34157c-0.71352,1.0866 -0.75663,2.64732 -0.75663,2.64732c0,0 5.46383,0.36205 9.49514,2.14777c3.72608,1.65043 5.99422,4.66111 7.10766,6.33285c0.60468,0.90795 1.96649,3.80792 2.88154,8.17458c0.26308,1.25514 0.73588,4.29544 1.19726,7.40983c0.00951,0.06458 -10.30965,8.3346 -24.51673,8.58745c-16.37751,0.29148 -26.99602,-8.69675 -26.98106,-8.79245c0.50802,-3.23854 1.02042,-6.39002 1.27317,-7.60345c0.61112,-2.93362 1.50396,-5.37488 1.92292,-5.99336c1.4274,-2.10757 1.86848,-4.94116 7.01378,-7.67704c4.46322,-2.37316 10.71563,-2.56397 10.71563,-2.56397c0,0 0.04724,-1.60158 -0.63858,-2.66476c-1.07813,-1.67129 -0.39272,-0.66295 -0.98637,-1.23675c-4.81701,-2.20186 -8.68274,-7.05815 -9.68498,-12.40982c-0.02736,-0.14642 -1.17258,0.32004 -2.6037,-0.8874c-1.15929,-0.97807 -1.00128,-2.20705 -0.99644,-2.52599c0.00227,-0.14586 -0.11987,-1.59704 1.19152,-2.58029c1.07653,-0.8072 2.45657,-0.57243 2.47144,-0.64083z" fill="url(#color-2)" stroke="none" stroke-width="0"/><text transform="translate(202.0913,229.51072) scale(0.36869,0.36869)" font-size="40" xml:space="preserve" fill="#000000" fill-rule="nonzero" stroke="#000000" stroke-width="1" stroke-linecap="butt" stroke-linejoin="miter" stroke-miterlimit="10" stroke-dasharray="" stroke-dashoffset="0" font-family="Sans Serif" font-weight="normal" text-anchor="start" style="mix-blend-mode: normal"><tspan x="0" dy="0">Елизавета</tspan></text></g></g></svg>