<svg version="1.1" xmlns="http://www.w3.org/2000/svg" xmlns:xlink="http://www.w3.org/1999/xlink" width="220.15278" height="164.1351" viewBox="0,0,220.15278,164.1351"><g transform="translate(-130.00806,-94.54291)"><g data-paper-data="{&quot;isPaintingLayer&quot;:true}" fill-rule="nonzero" stroke-linecap="butt" stroke-linejoin="miter" stroke-miterlimit="10" stroke-dasharray="" stroke-dashoffset="0" style="mix-blend-mode: normal"><path d="M191.16228,201.38407v-92.09396h97.67545v92.09396h-23.44211l-26.23283,22.32583l-25.67467,-22.32583z" fill="#622d7b" stroke="none" stroke-width="0"/><text transform="translate(212.00083,186.36522) scale(2.14038,2.14038)" font-size="40" xml:space="preserve" fill="#ffffff" fill-rule="nonzero" stroke="none" stroke-width="1" stroke-linecap="butt" stroke-linejoin="miter" stroke-miterlimit="10" stroke-dasharray="" stroke-dashoffset="0" font-family="Sans Serif" font-weight="normal" text-anchor="start" style="mix-blend-mode: normal"><tspan x="0" dy="0">А</tspan></text><text transform="translate(131.0723,248.44501) scale(0.81864,0.81864)" font-size="40" xml:space="preserve" fill="#ffffff" fill-rule="nonzero" stroke="#000000" stroke-width="1" stroke-linecap="butt" stroke-linejoin="miter" stroke-miterlimit="10" stroke-dasharray="" stroke-dashoffset="0" font-family="Sans Serif" font-weight="normal" text-anchor="start" style="mix-blend-mode: normal"><tspan x="0" dy="0">Алгоритмика</tspan></text><g stroke-width="2"><path d="M175.675,219.81875v-30.50001h30.5v30.50001z" fill="#ffffff" stroke="#bfbfbf"/><path d="M187.95422,216.64991c0,0 -4.77998,-2.93928 -5.31168,-5.87631c-0.20623,-1.13919 -0.08373,-4.9721 1.2327,-7.45569c1.23347,-2.32708 3.66017,-3.34867 3.66017,-3.34867l-5.91884,-6.29335h17.82468v16.43831c0,0 -3.05656,-4.11107 -7.07841,-3.5225c-3.83696,0.56152 -4.40861,10.05822 -4.40861,10.05822z" fill="#3765a0" stroke="none"/></g></g></g></svg>