<svg version="1.1" xmlns="http://www.w3.org/2000/svg" xmlns:xlink="http://www.w3.org/1999/xlink" width="101" height="101" viewBox="0,0,101,101"><g transform="translate(-189.5,-129.5)"><g data-paper-data="{&quot;isPaintingLayer&quot;:true}" fill-rule="nonzero" stroke-linecap="butt" stroke-linejoin="miter" stroke-miterlimit="10" stroke-dasharray="" stroke-dashoffset="0" style="mix-blend-mode: normal"><path d="M189.5,230.5v-101h101v101z" fill="none" stroke="#00fff6" stroke-width="0"/><path d="M274.06286,202.33781c0,5.66703 -4.59612,10.26196 -10.26196,10.26196h-47.60299c-5.66703,0 -10.26077,-4.59612 -10.26077,-10.26196v-44.67679c0,-5.66703 4.59373,-10.26077 10.26077,-10.26077h47.6018c5.66942,0 10.26196,4.59373 10.26196,10.26077v44.67679z" fill-opacity="0.2" fill="#d600af" stroke="#d700b0" stroke-width="2.5"/><path d="M250.44285,191.44651l-21.89305,-21.89305l10.95373,-10.95373l21.89305,21.89305z" fill="none" stroke="#d700b0" stroke-width="2.5"/><path d="M242.55371,183.56488l-16.73426,16.59158c-0.78375,0.81111 -1.86851,1.26125 -2.99627,1.24335c-2.33022,0 -4.21923,-1.88901 -4.21923,-4.21923c-0.0179,-1.12775 0.43224,-2.21253 1.24335,-2.99627l16.59158,-16.73426z" fill="none" stroke="#d700b0" stroke-width="2.5"/><path d="M257.65733,166.56561c0.00589,1.11544 -0.43444,2.18692 -1.22297,2.97588l-2.99627,2.99627l-5.97215,-5.97215l2.99627,-2.99627c1.20905,-1.20294 3.02341,-1.55967 4.59788,-0.90401c1.57447,0.65566 2.59936,2.19475 2.59722,3.90028z" fill="none" stroke="#d700b0" stroke-width="2.5"/></g></g></svg>