<svg version="1.1" xmlns="http://www.w3.org/2000/svg" xmlns:xlink="http://www.w3.org/1999/xlink" width="578.28518" height="499.67305" viewBox="0,0,578.28518,499.67305"><g transform="translate(49.14259,69.83653)"><g data-paper-data="{&quot;isPaintingLayer&quot;:true}" fill-rule="nonzero" stroke-linejoin="miter" stroke-miterlimit="10" stroke-dasharray="" stroke-dashoffset="0" style="mix-blend-mode: normal"><path d="M-49.14259,383.2542v-406.5084h578.28518v406.5084z" fill="#000000" stroke="none" stroke-width="0" stroke-linecap="butt"/><g fill="none" stroke-opacity="0.10196" stroke="#00d9ff" stroke-width="10" stroke-linecap="round"><path d="M484.74683,87.48508c0,0 11.19004,96.72563 -216.33098,161.45144c-224.39308,63.83596 -273.25232,-22.17343 -273.25232,-22.17343"/><path d="M147.4851,-64.74677c0,0 96.72563,-11.19004 161.45144,216.33098c63.83596,224.39308 -22.17343,273.25232 -22.17343,273.25232"/><g><path d="M484.74683,87.48508c0,0 11.19004,96.72563 -216.33098,161.45144c-224.39308,63.83596 -273.25232,-22.17343 -273.25232,-22.17343"/><path d="M147.4851,-64.74677c0,0 96.72563,-11.19004 161.45144,216.33098c63.83596,224.39308 -22.17343,273.25232 -22.17343,273.25232"/></g><path d="M363.23647,-42.88776c0,0 76.3079,60.4828 -38.80569,267.13251c-113.53103,203.80871 -208.89755,177.53959 -208.89755,177.53959"/><path d="M-3.90878,93.95412c0,0 81.50382,-82.31391 288.15353,32.79968c203.80871,113.53103 177.53959,208.89755 177.53959,208.89755"/><path d="M-4.74678,272.51493c0,0 -11.19004,-96.72563 216.33098,-161.45144c224.39308,-63.83596 273.25232,22.17343 273.25232,22.17343"/><path d="M332.51494,424.74678c0,0 -96.72563,11.19004 -161.45144,-216.33098c-63.83596,-224.39308 22.17343,-273.25232 22.17343,-273.25232"/><g><path d="M-4.74677,272.51493c0,0 -11.19004,-96.72563 216.33098,-161.45144c224.39308,-63.83596 273.25232,22.17343 273.25232,22.17343"/><path d="M332.51495,424.74678c0,0 -96.72563,11.19004 -161.45144,-216.33098c-63.83596,-224.39308 22.17343,-273.25232 22.17343,-273.25232"/></g><path d="M116.76358,402.88777c0,0 -76.3079,-60.4828 38.8057,-267.13251c113.53103,-203.80871 208.89755,-177.53958 208.89755,-177.53958"/><path d="M462.8878,272.05189c0,0 -60.4828,76.3079 -267.13252,-38.80569c-203.80871,-113.53103 -162.52456,-244.93359 -162.52456,-244.93359"/></g></g></g></svg>