<svg version="1.1" xmlns="http://www.w3.org/2000/svg" xmlns:xlink="http://www.w3.org/1999/xlink" width="468.67284" height="162.50001" viewBox="0,0,468.67284,162.50001"><g transform="translate(-5.66358,-98.74999)"><g data-paper-data="{&quot;isPaintingLayer&quot;:true}" fill-rule="nonzero" stroke-linecap="butt" stroke-linejoin="miter" stroke-miterlimit="10" stroke-dasharray="" stroke-dashoffset="0" style="mix-blend-mode: normal"><path d="M6.91358,223.66666c0,-30.63453 0,-72.14967 0,-89.33333c0,-15.03183 16.43535,-34.33334 34.25309,-34.33334c51.68982,0 307.19608,0 399,0c20.56868,0 32.91975,16.91735 32.91975,30.66667c0,17.07089 0,60.77377 0,92.66667c0,20.85933 -13.4205,36.66667 -35.58642,36.66667c-94.43932,0 -347.62897,0 -398,0c-17.05008,0 -32.58642,-15.69829 -32.58642,-36.33334z" fill-opacity="0.70196" fill="#828282" stroke="#000000" stroke-width="2.5"/><text transform="translate(32.66005,153.22692) scale(0.7604,0.7604)" font-size="40" xml:space="preserve" fill="#000000" fill-rule="nonzero" stroke="none" stroke-width="1" stroke-linecap="butt" stroke-linejoin="miter" stroke-miterlimit="10" stroke-dasharray="" stroke-dashoffset="0" font-family="Sans Serif" font-weight="normal" text-anchor="start" style="mix-blend-mode: normal"><tspan x="0" dy="0">Тебя поставили на учёт.</tspan><tspan x="0" dy="48px">Твоя жизнь разрушена.</tspan></text></g></g></svg>