<svg version="1.1" xmlns="http://www.w3.org/2000/svg" xmlns:xlink="http://www.w3.org/1999/xlink" width="118.07508" height="118.07507" viewBox="0,0,118.07508,118.07507"><g transform="translate(-180.96246,-120.96246)"><g data-paper-data="{&quot;isPaintingLayer&quot;:true}" fill-rule="nonzero" stroke-linecap="butt" stroke-linejoin="miter" stroke-miterlimit="10" stroke-dasharray="" stroke-dashoffset="0" style="mix-blend-mode: normal"><path d="M182.71246,224.92905c0,-23.56821 0,-73.83332 0,-87.75507c0,-6.9859 7.08587,-14.46152 13.8016,-14.46152c13.73475,0 64.4065,0 88.23461,0c7.65447,0 12.53887,6.63022 12.53887,13.02291c0,13.43997 0,64.20481 0,88.47437c0,7.9662 -5.29289,13.07779 -13.49794,13.07779c-24.34251,0 -74.31702,0 -87.75507,0c-6.51735,0 -13.32206,-4.80992 -13.32206,-12.35848z" fill="#833ae0" stroke="#833ae0" stroke-width="3.5"/><g fill="none" stroke="#ffffff" stroke-width="8"><path d="M263.59681,205.86468l-49.46989,-49.46989l24.75123,-24.75123l49.46989,49.46989z"/><path d="M245.77039,188.05518l-37.813,37.4906c-1.77097,1.8328 -4.22212,2.84994 -6.77042,2.80949c-5.2654,0 -9.53384,-4.26844 -9.53384,-9.53384c-0.04045,-2.54828 0.9767,-4.99947 2.80949,-6.77042l37.4906,-37.813z"/><path d="M279.89877,149.64342c0.01331,2.52047 -0.98167,4.9416 -2.76344,6.72435l-6.77042,6.77042l-13.49477,-13.49477l6.77042,-6.77042c2.73199,-2.71818 6.83175,-3.52426 10.38944,-2.04272c3.5577,1.48154 5.87356,4.95929 5.86872,8.81314z"/></g></g></g></svg>