<svg version="1.1" xmlns="http://www.w3.org/2000/svg" xmlns:xlink="http://www.w3.org/1999/xlink" width="340.5" height="218.37578" viewBox="0,0,340.5,218.37578"><defs><linearGradient x1="89.91954" y1="124.44445" x2="146.293" y2="124.44445" gradientUnits="userSpaceOnUse" id="color-1"><stop offset="0" stop-color="#003c97"/><stop offset="1" stop-color="#00a2d6"/></linearGradient></defs><g transform="translate(-69.75,-70.81211)"><g data-paper-data="{&quot;isPaintingLayer&quot;:true}" fill-rule="nonzero" stroke-miterlimit="10" stroke-dasharray="" stroke-dashoffset="0" style="mix-blend-mode: normal"><path d="M70.5,288.43789v-216.87578h339v216.87578z" fill="#ffffff" stroke="#000000" stroke-width="1.5" stroke-linecap="butt" stroke-linejoin="miter"/><path d="M409.4,88.83125h-338.5" fill="none" stroke="#000000" stroke-width="1.5" stroke-linecap="round" stroke-linejoin="miter"/><path d="M393.93333,85.22083l9.66667,-9.66667" fill="none" stroke="#000000" stroke-width="1.5" stroke-linecap="round" stroke-linejoin="miter"/><path d="M403.6,85.22083l-9.66667,-9.66667" data-paper-data="{&quot;index&quot;:null}" fill="none" stroke="#000000" stroke-width="1.5" stroke-linecap="round" stroke-linejoin="miter"/><path d="M387.65,88.83125v-16.5" fill="none" stroke="#000000" stroke-width="1.5" stroke-linecap="round" stroke-linejoin="miter"/><path d="M73.76667,80.1375c0,-3.08359 2.49974,-5.58333 5.58333,-5.58333c3.08359,0 5.58333,2.49974 5.58333,5.58333c0,3.08359 -2.49974,5.58333 -5.58333,5.58333c-3.08359,0 -5.58333,-2.49974 -5.58333,-5.58333z" fill="none" stroke="#000000" stroke-width="1.5" stroke-linecap="butt" stroke-linejoin="miter"/><path d="M78.96,83.7325v-3.8h0.7v3.8z" fill="#000000" stroke="#000000" stroke-width="1.5" stroke-linecap="butt" stroke-linejoin="miter"/><path d="M77.76,77.2325c0,-0.82843 0.67157,-1.5 1.5,-1.5c0.82843,0 1.5,0.67157 1.5,1.5c0,0.82843 -0.67157,1.5 -1.5,1.5c-0.82843,0 -1.5,-0.67157 -1.5,-1.5z" fill="#000000" stroke="none" stroke-width="0.5" stroke-linecap="butt" stroke-linejoin="miter"/><text transform="translate(87.34335,82.98166) scale(0.23564,0.23564)" font-size="40" xml:space="preserve" fill="#000000" fill-rule="nonzero" stroke="none" stroke-width="1" stroke-linecap="butt" stroke-linejoin="miter" stroke-miterlimit="10" stroke-dasharray="" stroke-dashoffset="0" font-family="Sans Serif" font-weight="normal" text-anchor="start" style="mix-blend-mode: normal"><tspan x="0" dy="0">Информация</tspan></text><text transform="translate(118.7193,184.33133) scale(0.63564,0.63564)" font-size="40" xml:space="preserve" fill="#000000" fill-rule="nonzero" stroke="none" stroke-width="1" stroke-linecap="butt" stroke-linejoin="miter" stroke-miterlimit="10" stroke-dasharray="" stroke-dashoffset="0" font-family="Sans Serif" font-weight="normal" text-anchor="start" style="mix-blend-mode: normal"><tspan x="0" dy="0">Модераторы могут</tspan><tspan x="0" dy="46.150000000000006px">чистить Зал Славы</tspan><tspan x="0" dy="46.150000000000006px">от нежелательных</tspan><tspan x="0" dy="46.150000000000006px">         проектов</tspan></text><g><g stroke="#000000" stroke-width="2.5"><path d="M146.293,142.92879c0,4.68943 -3.80325,8.49169 -8.49169,8.49169h-39.39107c-4.68942,0 -8.4907,-3.80325 -8.4907,-8.49169v-36.96966c0,-4.68943 3.80128,-8.4907 8.4907,-8.4907h39.39008c4.6914,0 8.49169,3.80127 8.49169,8.4907v36.96966z" fill="url(#color-1)" stroke-linecap="butt" stroke-linejoin="miter"/><path d="M119.78005,140.22888c-0.40199,0.18196 -0.60317,0.27313 -1.05954,0.35143c-0.2889,0.04966 -0.93775,0.04966 -1.22665,0c-0.458,-0.07867 -0.66136,-0.17001 -1.06589,-0.35324c-3.81734,-1.72778 -12.82113,-7.06503 -12.82113,-18.96964v-7.18593c0,-2.03013 0,-3.04595 0.39509,-3.82134c0.34752,-0.68207 0.90165,-1.23621 1.58372,-1.58372c0.77539,-0.39509 1.79121,-0.3951 3.82134,-0.3951h17.39934c2.03011,0 3.0438,0 3.81916,0.3951c0.68202,0.34753 1.23807,0.90165 1.58551,1.58372c0.39475,0.77463 0.39475,1.78922 0.39475,3.81538v7.19189c0,11.90461 -9.00434,17.24185 -12.82151,18.96964z" fill="none" stroke-linecap="round" stroke-linejoin="round"/></g><text transform="translate(154.08582,134.62032) scale(0.73776,0.73776)" font-size="40" xml:space="preserve" fill="#000000" fill-rule="nonzero" stroke="none" stroke-width="1" stroke-linecap="butt" stroke-linejoin="miter" stroke-miterlimit="10" stroke-dasharray="" stroke-dashoffset="0" font-family="Sans Serif" font-weight="normal" text-anchor="start" style="mix-blend-mode: normal"><tspan x="0" dy="0">Модераторы.txt</tspan></text></g></g></g></svg>