<svg version="1.1" xmlns="http://www.w3.org/2000/svg" xmlns:xlink="http://www.w3.org/1999/xlink" width="549.83543" height="392.07702" viewBox="0,0,549.83543,392.07702"><defs><linearGradient x1="357.31382" y1="-5.41718" x2="357.31382" y2="366.95519" gradientUnits="userSpaceOnUse" id="color-1"><stop offset="0" stop-color="#00ffc8" stop-opacity="0"/><stop offset="1" stop-color="#00ffc8" stop-opacity="0.23137"/></linearGradient></defs><g transform="translate(13,20.47701)"><g data-paper-data="{&quot;isPaintingLayer&quot;:true}" fill-rule="nonzero" stroke-linejoin="miter" stroke-miterlimit="10" stroke-dasharray="" stroke-dashoffset="0" style="mix-blend-mode: normal"><path d="M-13,371.50001v-383h506v383z" fill="#000000" stroke="none" stroke-width="0" stroke-linecap="butt"/><path d="M229.68619,366.95519v-372.37237h255.25526v372.37237z" fill="url(#color-1)" stroke="none" stroke-width="0" stroke-linecap="butt"/><path d="M215.7,370.60001l25,-48.8h89.8l-25,48.8z" fill="none" stroke="#008165" stroke-width="2" stroke-linecap="butt"/><path d="M305.46666,370.60001l25,-48.8h89.8l-25,48.8z" fill="none" stroke="#008165" stroke-width="2" stroke-linecap="butt"/><path d="M395.24955,370.60001l25,-48.8h89.8l-25,48.8z" fill="none" stroke="#008165" stroke-width="2" stroke-linecap="butt"/><path d="M151.08333,321.82299l25,-48.8h89.8l-25,48.8z" fill="none" stroke="#008165" stroke-width="2" stroke-linecap="butt"/><path d="M240.85,321.82299l25,-48.8h89.8l-25,48.8z" fill="none" stroke="#008165" stroke-width="2" stroke-linecap="butt"/><path d="M330.63289,321.82299l25,-48.8h89.8l-25,48.8z" fill="none" stroke="#008165" stroke-width="2" stroke-linecap="butt"/><path d="M420.39955,321.82299l25,-48.8h89.8l-25,48.8z" fill="none" stroke="#008165" stroke-width="2" stroke-linecap="butt"/><path d="M215.7,273.10001l25,-48.8h89.8l-25,48.8z" fill="none" stroke="#008165" stroke-width="2" stroke-linecap="butt"/><path d="M305.46666,273.10001l25,-48.8h89.8l-25,48.8z" fill="none" stroke="#008165" stroke-width="2" stroke-linecap="butt"/><path d="M395.24955,273.10001l25,-48.8h89.8l-25,48.8z" fill="none" stroke="#008165" stroke-width="2" stroke-linecap="butt"/><path d="M151.08333,224.32299l25,-48.8h89.8l-25,48.8z" fill="none" stroke="#008165" stroke-width="2" stroke-linecap="butt"/><path d="M240.85,224.32299l25,-48.8h89.8l-25,48.8z" fill="none" stroke="#008165" stroke-width="2" stroke-linecap="butt"/><path d="M330.63289,224.32299l25,-48.8h89.8l-25,48.8z" fill="none" stroke="#008165" stroke-width="2" stroke-linecap="butt"/><path d="M420.39955,224.32299l25,-48.8h89.8l-25,48.8z" fill="none" stroke="#008165" stroke-width="2" stroke-linecap="butt"/><path d="M215.7,175.60001l25,-48.8h89.8l-25,48.8z" fill="none" stroke="#008165" stroke-width="2" stroke-linecap="butt"/><path d="M305.46666,175.60001l25,-48.8h89.8l-25,48.8z" fill="none" stroke="#008165" stroke-width="2" stroke-linecap="butt"/><path d="M395.24955,175.60001l25,-48.8h89.8l-25,48.8z" fill="none" stroke="#008165" stroke-width="2" stroke-linecap="butt"/><path d="M151.08333,126.82298l25,-48.8h89.8l-25,48.8z" fill="none" stroke="#008165" stroke-width="2" stroke-linecap="butt"/><path d="M240.85,126.82298l25,-48.8h89.8l-25,48.8z" fill="none" stroke="#008165" stroke-width="2" stroke-linecap="butt"/><path d="M330.63289,126.82298l25,-48.8h89.8l-25,48.8z" fill="none" stroke="#008165" stroke-width="2" stroke-linecap="butt"/><path d="M420.39955,126.82298l25,-48.8h89.8l-25,48.8z" fill="none" stroke="#008165" stroke-width="2" stroke-linecap="butt"/><path d="M215.7,78.10001l25,-48.8h89.8l-25,48.8z" fill="none" stroke="#008165" stroke-width="2" stroke-linecap="butt"/><path d="M305.46666,78.10001l25,-48.8h89.8l-25,48.8z" fill="none" stroke="#008165" stroke-width="2" stroke-linecap="butt"/><path d="M395.24955,78.10001l25,-48.8h89.8l-25,48.8z" fill="none" stroke="#008165" stroke-width="2" stroke-linecap="butt"/><path d="M151.08333,29.32299l25,-48.8h89.8l-25,48.8z" fill="none" stroke="#008165" stroke-width="2" stroke-linecap="butt"/><path d="M240.85,29.32299l25,-48.8h89.8l-25,48.8z" fill="none" stroke="#008165" stroke-width="2" stroke-linecap="butt"/><path d="M330.63289,29.32299l25,-48.8h89.8l-25,48.8z" fill="none" stroke="#008165" stroke-width="2" stroke-linecap="butt"/><path d="M420.39955,29.32299l25,-48.8h89.8l-25,48.8z" fill="none" stroke="#008165" stroke-width="2" stroke-linecap="butt"/><path d="M-4.75,369.50001v-379h245v379z" fill="#000000" stroke="none" stroke-width="0" stroke-linecap="butt"/><path d="M407.06081,199.9909l6.73771,-0.18817" fill="none" stroke-opacity="0.39216" stroke="#ff430a" stroke-width="2.5" stroke-linecap="round"/></g></g></svg>