<svg version="1.1" xmlns="http://www.w3.org/2000/svg" xmlns:xlink="http://www.w3.org/1999/xlink" width="539.03904" height="403.9039" viewBox="0,0,539.03904,403.9039"><defs><linearGradient x1="4.97914" y1="16.60339" x2="22.57074" y2="16.60339" gradientUnits="userSpaceOnUse" id="color-1"><stop offset="0" stop-color="#35eb29"/><stop offset="1" stop-color="#dceb3d"/></linearGradient><linearGradient x1="7.12017" y1="16.65346" x2="20.37547" y2="16.65346" gradientUnits="userSpaceOnUse" id="color-2"><stop offset="0" stop-color="#298b2a"/><stop offset="1" stop-color="#000000"/></linearGradient><linearGradient x1="31.56173" y1="98.91893" x2="80.93721" y2="98.91893" gradientUnits="userSpaceOnUse" id="color-3"><stop offset="0" stop-color="#35eb29"/><stop offset="1" stop-color="#dceb3d"/></linearGradient></defs><g transform="translate(29.51952,21.95195)"><g data-paper-data="{&quot;isPaintingLayer&quot;:true}" fill-rule="nonzero" stroke-linejoin="miter" stroke-miterlimit="10" stroke-dasharray="" stroke-dashoffset="0" style="mix-blend-mode: normal"><path d="M-29.51952,381.95195v-403.9039h539.03904v403.9039z" fill="#3c3f41" stroke="none" stroke-width="0" stroke-linecap="butt"/><path d="M-11.47266,37.17589h494.84985" fill="none" stroke="#515151" stroke-width="2.5" stroke-linecap="round"/><g stroke="none" stroke-linecap="butt"><path d="M4.97914,25.39919v-17.59159h17.59159v17.59159z" fill="url(#color-1)" stroke-width="0"/><path d="M7.12017,23.2811v-13.25529h13.25529v13.25529z" fill="url(#color-2)" stroke-width="0"/><path d="M8.84483,21.65499v-0.98552h4.77979v0.98552z" fill="#ffffff" stroke-width="0"/><text transform="translate(8.15498,16.65643) scale(0.19799,0.17664)" font-size="40" xml:space="preserve" fill="#ffffff" fill-rule="nonzero" stroke="none" stroke-width="1" stroke-linecap="butt" stroke-linejoin="miter" stroke-miterlimit="10" stroke-dasharray="" stroke-dashoffset="0" font-family="Sans Serif" font-weight="normal" text-anchor="start" style="mix-blend-mode: normal"><tspan x="0" dy="0">PC</tspan></text></g><text transform="translate(27.04398,22.58053) scale(0.29902,0.29902)" font-size="40" xml:space="preserve" fill="#bbbbbb" fill-rule="nonzero" stroke="none" stroke-width="1" stroke-linecap="butt" stroke-linejoin="miter" stroke-miterlimit="10" stroke-dasharray="" stroke-dashoffset="0" font-family="Sans Serif" font-weight="normal" text-anchor="start" style="mix-blend-mode: normal"><tspan x="0" dy="0">File</tspan></text><text transform="translate(49.76253,22.58054) scale(0.29902,0.29902)" font-size="40" xml:space="preserve" fill="#bbbbbb" fill-rule="nonzero" stroke="none" stroke-width="1" stroke-linecap="butt" stroke-linejoin="miter" stroke-miterlimit="10" stroke-dasharray="" stroke-dashoffset="0" font-family="Sans Serif" font-weight="normal" text-anchor="start" style="mix-blend-mode: normal"><tspan x="0" dy="0">Edit</tspan></text><text transform="translate(75.67614,22.58054) scale(0.29902,0.29902)" font-size="40" xml:space="preserve" fill="#bbbbbb" fill-rule="nonzero" stroke="none" stroke-width="1" stroke-linecap="butt" stroke-linejoin="miter" stroke-miterlimit="10" stroke-dasharray="" stroke-dashoffset="0" font-family="Sans Serif" font-weight="normal" text-anchor="start" style="mix-blend-mode: normal"><tspan x="0" dy="0">View</tspan></text><text transform="translate(106.86981,22.58054) scale(0.29902,0.29902)" font-size="40" xml:space="preserve" fill="#bbbbbb" fill-rule="nonzero" stroke="none" stroke-width="1" stroke-linecap="butt" stroke-linejoin="miter" stroke-miterlimit="10" stroke-dasharray="" stroke-dashoffset="0" font-family="Sans Serif" font-weight="normal" text-anchor="start" style="mix-blend-mode: normal"><tspan x="0" dy="0">Navigate</tspan></text><text transform="translate(162.18656,22.58054) scale(0.29902,0.29902)" font-size="40" xml:space="preserve" fill="#bbbbbb" fill-rule="nonzero" stroke="none" stroke-width="1" stroke-linecap="butt" stroke-linejoin="miter" stroke-miterlimit="10" stroke-dasharray="" stroke-dashoffset="0" font-family="Sans Serif" font-weight="normal" text-anchor="start" style="mix-blend-mode: normal"><tspan x="0" dy="0">Code</tspan></text><text transform="translate(195.97717,22.58054) scale(0.29902,0.29902)" font-size="40" xml:space="preserve" fill="#bbbbbb" fill-rule="nonzero" stroke="none" stroke-width="1" stroke-linecap="butt" stroke-linejoin="miter" stroke-miterlimit="10" stroke-dasharray="" stroke-dashoffset="0" font-family="Sans Serif" font-weight="normal" text-anchor="start" style="mix-blend-mode: normal"><tspan x="0" dy="0">Refactor</tspan></text><text transform="translate(248.46732,22.58054) scale(0.29902,0.29902)" font-size="40" xml:space="preserve" fill="#bbbbbb" fill-rule="nonzero" stroke="none" stroke-width="1" stroke-linecap="butt" stroke-linejoin="miter" stroke-miterlimit="10" stroke-dasharray="" stroke-dashoffset="0" font-family="Sans Serif" font-weight="normal" text-anchor="start" style="mix-blend-mode: normal"><tspan x="0" dy="0">Run</tspan></text><text transform="translate(274.8322,22.58054) scale(0.29902,0.29902)" font-size="40" xml:space="preserve" fill="#bbbbbb" fill-rule="nonzero" stroke="none" stroke-width="1" stroke-linecap="butt" stroke-linejoin="miter" stroke-miterlimit="10" stroke-dasharray="" stroke-dashoffset="0" font-family="Sans Serif" font-weight="normal" text-anchor="start" style="mix-blend-mode: normal"><tspan x="0" dy="0">Tools</tspan></text><text transform="translate(308.38755,22.58054) scale(0.29902,0.29902)" font-size="40" xml:space="preserve" fill="#bbbbbb" fill-rule="nonzero" stroke="none" stroke-width="1" stroke-linecap="butt" stroke-linejoin="miter" stroke-miterlimit="10" stroke-dasharray="" stroke-dashoffset="0" font-family="Sans Serif" font-weight="normal" text-anchor="start" style="mix-blend-mode: normal"><tspan x="0" dy="0">VCS</tspan></text><text transform="translate(335.37864,22.58054) scale(0.29902,0.29902)" font-size="40" xml:space="preserve" fill="#bbbbbb" fill-rule="nonzero" stroke="none" stroke-width="1" stroke-linecap="butt" stroke-linejoin="miter" stroke-miterlimit="10" stroke-dasharray="" stroke-dashoffset="0" font-family="Sans Serif" font-weight="normal" text-anchor="start" style="mix-blend-mode: normal"><tspan x="0" dy="0">Window</tspan></text><text transform="translate(387.20156,22.58054) scale(0.29902,0.29902)" font-size="40" xml:space="preserve" fill="#bbbbbb" fill-rule="nonzero" stroke="none" stroke-width="1" stroke-linecap="butt" stroke-linejoin="miter" stroke-miterlimit="10" stroke-dasharray="" stroke-dashoffset="0" font-family="Sans Serif" font-weight="normal" text-anchor="start" style="mix-blend-mode: normal"><tspan x="0" dy="0">Help</tspan></text><path d="M19.27928,320.21943c0,-56.8832 0,-214.93774 0,-246.81433c0,-10.94999 8.1399,-21.03273 18.1785,-21.03273c41.48779,0 322.40148,0 402.17618,0c13.36698,0 21.08677,7.99412 21.08677,21.22787c0,56.3254 0,207.56768 0,241.35091c0,13.05474 -8.43405,25.70951 -22.93749,25.70951c-82.46393,0 -361.14267,0 -401.38301,0c-9.50475,0 -17.12094,-7.67117 -17.12094,-20.44122z" fill="none" stroke="#bbbbbb" stroke-width="2.5" stroke-linecap="butt"/><g stroke-linecap="butt"><g stroke="#000000" stroke-width="2.5"><path d="M80.93721,115.10869c0,4.1073 -3.33114,7.43757 -7.43757,7.43757h-34.50123c-4.1073,0 -7.43671,-3.33114 -7.43671,-7.43757v-32.38041c0,-4.1073 3.3294,-7.43671 7.43671,-7.43671h34.50037c4.10903,0 7.43757,3.3294 7.43757,7.43671v32.38041z" fill="url(#color-3)"/><g fill="none"><path d="M54.49813,105.40985l-11.21513,12.94367c-0.64109,0.69384 -1.54099,1.09105 -2.48565,1.09718c-1.9512,0.0436 -3.56829,-1.50281 -3.6119,-3.45401c-0.03609,-0.94398 0.32053,-1.86073 0.98505,-2.53218l11.29432,-12.25517z"/><path d="M50.39153,92.54394c0,-5.50323 4.46124,-9.96448 9.96448,-9.96448c5.50323,0 9.96448,4.46124 9.96448,9.96448c0,5.50323 -4.46124,9.96448 -9.96448,9.96448c-5.50323,0 -9.96448,-4.46124 -9.96448,-9.96448z"/><path d="M46.78237,92.6224c0,-7.53986 6.11228,-13.65214 13.65214,-13.65214c7.53986,0 13.65214,6.11228 13.65214,13.65214c0,7.53986 -6.11228,13.65214 -13.65214,13.65214c-7.53986,0 -13.65214,-6.11228 -13.65214,-13.65214z"/></g></g><text transform="translate(87.86463,110.79529) scale(0.90107,0.90107)" font-size="40" xml:space="preserve" fill="#d1d1d1" fill-rule="nonzero" stroke="none" stroke-width="1" stroke-linecap="butt" stroke-linejoin="miter" stroke-miterlimit="10" stroke-dasharray="" stroke-dashoffset="0" font-family="Sans Serif" font-weight="normal" text-anchor="start" style="mix-blend-mode: normal"><tspan x="0" dy="0">Поисковик Логинов</tspan></text></g><text transform="translate(80.65142,159.56817) scale(0.93734,0.93734)" font-size="40" xml:space="preserve" fill="#d1d1d1" fill-rule="nonzero" stroke="none" stroke-width="1" stroke-linecap="butt" stroke-linejoin="miter" stroke-miterlimit="10" stroke-dasharray="" stroke-dashoffset="0" font-family="Sans Serif" font-weight="normal" text-anchor="start" style="mix-blend-mode: normal"><tspan x="0" dy="0">Помогает искать</tspan><tspan x="0" dy="46.150000000000006px">сложные логины</tspan><tspan x="0" dy="46.150000000000006px">   для аккаунтов</tspan></text></g></g></svg>