<svg version="1.1" xmlns="http://www.w3.org/2000/svg" xmlns:xlink="http://www.w3.org/1999/xlink" width="528.52853" height="414.90238" viewBox="0,0,528.52853,414.90238"><defs><linearGradient x1="-15.25525" y1="169.48949" x2="495.25526" y2="169.48949" gradientUnits="userSpaceOnUse" id="color-1"><stop offset="0" stop-color="#89fff5"/><stop offset="1" stop-color="#31ffee"/></linearGradient><linearGradient x1="208.15501" y1="94.81469" x2="295.81843" y2="94.81469" gradientUnits="userSpaceOnUse" id="color-2"><stop offset="0" stop-color="#c9fffb" stop-opacity="0.20784"/><stop offset="1" stop-color="#c9fffb"/></linearGradient><linearGradient x1="208.15501" y1="203.97637" x2="295.81843" y2="203.97637" gradientUnits="userSpaceOnUse" id="color-3"><stop offset="0" stop-color="#c9fffb" stop-opacity="0.20784"/><stop offset="1" stop-color="#c9fffb"/></linearGradient><linearGradient x1="312.51622" y1="85.63091" x2="441.92416" y2="85.63091" gradientUnits="userSpaceOnUse" id="color-4"><stop offset="0" stop-color="#c9fffb" stop-opacity="0.20784"/><stop offset="1" stop-color="#c9fffb"/></linearGradient><linearGradient x1="312.51624" y1="212.01231" x2="441.92416" y2="212.01231" gradientUnits="userSpaceOnUse" id="color-5"><stop offset="0" stop-color="#c9fffb" stop-opacity="0.20784"/><stop offset="1" stop-color="#c9fffb"/></linearGradient><linearGradient x1="208.15501" y1="203.97637" x2="295.81843" y2="203.97637" gradientUnits="userSpaceOnUse" id="color-6"><stop offset="0" stop-color="#c9fffb" stop-opacity="0.20784"/><stop offset="1" stop-color="#c9fffb"/></linearGradient></defs><g transform="translate(25.6156,9.18919)"><g data-paper-data="{&quot;isPaintingLayer&quot;:true}" fill-rule="nonzero" stroke-linejoin="miter" stroke-miterlimit="10" stroke-dasharray="" stroke-dashoffset="0" style="mix-blend-mode: normal"><path d="M-15.25525,348.16817v-357.35736h510.51051v357.35736z" fill="url(#color-1)" stroke="none" stroke-width="0" stroke-linecap="butt"/><path d="M-25.6156,405.71319v-90.09009h528.52853v90.09009z" fill="#000000" stroke="none" stroke-width="0" stroke-linecap="butt"/><g fill="#ffffff" stroke="none" stroke-width="0" stroke-linecap="butt"><path d="M17.4643,335.66072v-8.625l10.5,-1.7v10.325z"/><path d="M27.9643,337.66071v11.82499l-10.5,-1.575v-10.25z" data-paper-data="{&quot;index&quot;:null}"/><path d="M29.9643,335.66072v-10.77946l15.5,-1.74554v12.52499z"/><path d="M45.4643,337.53571v14.00001l-15.5,-1.87055v-12.12946z" data-paper-data="{&quot;index&quot;:null}"/></g><g fill="none" stroke="#ffffff" stroke-width="2.5"><path d="M83.96632,333.84631c0,-4.43311 3.59374,-8.02685 8.02685,-8.02685c4.43311,0 8.02685,3.59374 8.02685,8.02685c0,4.43311 -3.59374,8.02685 -8.02685,8.02685c-4.43311,0 -8.02685,-3.59374 -8.02685,-8.02685z" stroke-linecap="butt"/><path d="M76.10001,349.9l9.71248,-9.71248" stroke-linecap="round"/></g><g stroke="none" stroke-width="0" stroke-linecap="butt"><path d="M208.15501,137.91588v-72.00925l87.66343,-14.19313v86.20237z" fill="url(#color-2)"/><path d="M295.81843,154.61359v98.72564l-87.66343,-13.14951v-85.57621z" data-paper-data="{&quot;index&quot;:null}" fill="url(#color-3)"/><path d="M312.51622,137.91588v-89.99661l129.40792,-14.57334v104.56987z" fill="url(#color-4)"/><path d="M441.92416,153.56998v116.88466l-129.40792,-15.61703v-101.26763z" data-paper-data="{&quot;index&quot;:null}" fill="url(#color-5)"/></g><path d="M295.81843,154.6136v98.72563l-87.66343,-13.14951v-85.57621z" data-paper-data="{&quot;index&quot;:null}" fill="url(#color-6)" stroke="none" stroke-width="0" stroke-linecap="butt"/><path d="M312.51624,137.91588v-89.99661l129.40792,-14.57333v104.56987z" fill="#cafffb" stroke="none" stroke-width="0" stroke-linecap="butt"/><path d="M441.92416,153.56998v116.88466l-129.40792,-15.61703v-101.26763z" data-paper-data="{&quot;index&quot;:null}" fill="#cafffb" stroke="none" stroke-width="0" stroke-linecap="butt"/></g></g></svg>