<svg version="1.1" xmlns="http://www.w3.org/2000/svg" xmlns:xlink="http://www.w3.org/1999/xlink" width="63.23227" height="63.23227" viewBox="0,0,63.23227,63.23227"><g transform="translate(-208.38388,-148.38387)"><g data-paper-data="{&quot;isPaintingLayer&quot;:true}" fill-rule="nonzero" stroke-linejoin="miter" stroke-miterlimit="10" stroke-dasharray="" stroke-dashoffset="0" style="mix-blend-mode: normal"><path d="M210.13389,203.42321c0,-12.28699 0,-38.49207 0,-45.75c0,-3.64201 3.69413,-7.53933 7.19529,-7.53933c7.16044,0 33.57752,0 46,0c3.99056,0 6.53698,3.45658 6.53698,6.78933c0,7.00676 0,33.47237 0,46.125c0,4.15308 -2.75938,6.81794 -7.03698,6.81794c-12.69066,0 -38.74424,0 -45.75,0c-3.39774,0 -6.94529,-2.50759 -6.94529,-6.44294z" fill-opacity="0.2" fill="#00d5ff" stroke="#00d6ff" stroke-width="3.5" stroke-linecap="butt"/><path d="M217.59079,202.40925l44.81846,-44.81846" fill="none" stroke="#00d6ff" stroke-width="5" stroke-linecap="round"/><path d="M217.59079,157.59079l44.81846,44.81846" data-paper-data="{&quot;index&quot;:null}" fill="none" stroke="#00d6ff" stroke-width="5" stroke-linecap="round"/></g></g></svg>