<svg version="1.1" xmlns="http://www.w3.org/2000/svg" xmlns:xlink="http://www.w3.org/1999/xlink" width="206.16666" height="328.16666" viewBox="0,0,206.16666,328.16666"><g transform="translate(-138,-16)"><g data-paper-data="{&quot;isPaintingLayer&quot;:true}" fill-rule="nonzero" stroke-linecap="butt" stroke-linejoin="miter" stroke-miterlimit="10" stroke-dasharray="" stroke-dashoffset="0" style="mix-blend-mode: normal"><path d="M149.16667,333.77778c0,-12.49178 0,-32.61711 0,-39.33333c0,-4.31937 3.58469,-9.27778 7.66666,-9.27778c18.04408,0 147.59394,0 180,0c4.67948,0 7.33333,5.28045 7.33333,8.94444c0,6.31491 0,27.60796 0,40.33333c0,6.45992 -2.44861,9.72222 -7.33333,9.72222c-32.10971,0 -158.74879,0 -179.66666,0c-5.89257,0 -8,-4.28235 -8,-10.38889z" fill-opacity="0.2" fill="#ffffff" stroke="none" stroke-width="0"/><path d="M142.5,326.44444c0,-12.49178 0,-32.61711 0,-39.33333c0,-4.31937 3.58469,-9.27778 7.66667,-9.27778c18.04408,0 147.59394,0 180,0c4.67947,0 7.33333,5.28045 7.33333,8.94444c0,6.31491 0,27.60795 0,40.33333c0,6.45992 -2.44861,9.72222 -7.33333,9.72222c-32.10971,0 -158.7488,0 -179.66667,0c-5.89257,0 -8,-4.28235 -8,-10.38889z" fill="#000000" stroke="#ffffff" stroke-width="5"/><text transform="translate(166.23438,313.90372) scale(0.56948,0.56948)" font-size="40" xml:space="preserve" fill="#ffffff" fill-rule="nonzero" stroke="#ffffff" stroke-width="2" stroke-linecap="butt" stroke-linejoin="miter" stroke-miterlimit="10" stroke-dasharray="" stroke-dashoffset="0" font-family="&quot;Microsoft YaHei&quot;, &quot;微软雅黑&quot;, STXihei, &quot;华文细黑&quot;" font-weight="normal" text-anchor="start" style="mix-blend-mode: normal"><tspan x="0" dy="0">Подтвердить</tspan></text><path d="M138,276v-260h204v260z" fill="none" stroke="none" stroke-width="0"/></g></g></svg>