<svg version="1.1" xmlns="http://www.w3.org/2000/svg" xmlns:xlink="http://www.w3.org/1999/xlink" width="490" height="367" viewBox="0,0,490,367"><defs><radialGradient cx="240.12758" cy="179.88336" r="241.97137" gradientUnits="userSpaceOnUse" id="color-1"><stop offset="0" stop-color="#ffffff" stop-opacity="0"/><stop offset="1" stop-color="#ffffff" stop-opacity="0.30196"/></radialGradient></defs><g transform="translate(5,3.5)"><g data-paper-data="{&quot;isPaintingLayer&quot;:true}" fill-rule="nonzero" stroke-linecap="butt" stroke-linejoin="miter" stroke-miterlimit="10" stroke-dasharray="" stroke-dashoffset="0" style="mix-blend-mode: normal"><path d="M-5,363.5v-367h490v367z" fill="#ffffff" stroke="none" stroke-width="0"/><path d="M36.83334,262.05919c0,-10.03184 0,-22.94234 0,-28.66667c0,-4.952 5.35297,-11.33333 12.33333,-11.33333c34.29787,0 306.38799,0 374.33334,0c9.78256,0 15.33333,7.497 15.33333,13c0,5.04878 0,15.71417 0,24.66667c0,8.02078 -5.93055,14.66666 -16.33333,14.66666c-69.39988,0 -337.84097,0 -372.33333,0c-7.15405,0 -13.33333,-5.85888 -13.33333,-12.33333z" fill="#833ae0" stroke="none" stroke-width="0"/><text transform="translate(37.25,57.12684) scale(0.84499,0.84499)" font-size="40" xml:space="preserve" fill="#0f1c2c" fill-rule="nonzero" stroke="#0f1c2c" stroke-width="1" stroke-linecap="butt" stroke-linejoin="miter" stroke-miterlimit="10" stroke-dasharray="" stroke-dashoffset="0" font-family="Sans Serif" font-weight="normal" text-anchor="start" style="mix-blend-mode: normal"><tspan x="0" dy="0">Вход для учеников</tspan></text><text transform="translate(36.75,107.89943) scale(0.38799,0.38799)" font-size="40" xml:space="preserve" fill="#414346" fill-rule="nonzero" stroke="none" stroke-width="1" stroke-linecap="butt" stroke-linejoin="miter" stroke-miterlimit="10" stroke-dasharray="" stroke-dashoffset="0" font-family="Sans Serif" font-weight="normal" text-anchor="start" style="mix-blend-mode: normal"><tspan x="0" dy="0">ЛОГИН</tspan></text><text transform="translate(58.75,191.36646) scale(0.34751,0.34751)" font-size="40" xml:space="preserve" fill="#e96440" fill-rule="nonzero" stroke="none" stroke-width="1" stroke-linecap="butt" stroke-linejoin="miter" stroke-miterlimit="10" stroke-dasharray="" stroke-dashoffset="0" font-family="Sans Serif" font-weight="normal" text-anchor="start" style="mix-blend-mode: normal"><tspan x="0" dy="0">Аккаунт был удалён</tspan></text><text transform="translate(46.75,154.10748) scale(0.5,0.5)" font-size="40" xml:space="preserve" fill="#36383a" fill-rule="nonzero" stroke="none" stroke-width="1" stroke-linecap="butt" stroke-linejoin="miter" stroke-miterlimit="10" stroke-dasharray="" stroke-dashoffset="0" font-family="Sans Serif" font-weight="normal" text-anchor="start" style="mix-blend-mode: normal"><tspan x="0" dy="0">testtest</tspan></text><path d="M38.7,184.70748c0,-4.03168 3.26832,-7.3 7.3,-7.3c4.03168,0 7.3,3.26832 7.3,7.3c0,4.03168 -3.26832,7.3 -7.3,7.3c-4.03168,0 -7.3,-3.26832 -7.3,-7.3z" fill="none" stroke="#e96440" stroke-width="1"/><text transform="translate(44.3,189.33641) scale(0.31548,0.31548)" font-size="40" xml:space="preserve" fill="#e96440" fill-rule="nonzero" stroke="#e96440" stroke-width="1" stroke-linecap="butt" stroke-linejoin="miter" stroke-miterlimit="10" stroke-dasharray="" stroke-dashoffset="0" font-family="Sans Serif" font-weight="normal" text-anchor="start" style="mix-blend-mode: normal"><tspan x="0" dy="0">!</tspan></text><path d="M37.96667,161.07414c0,-9.95457 0,-24.5579 0,-30.33333c0,-4.6961 5.61097,-10.66667 12.86667,-10.66667c35.16643,0 310.46793,0 374.33333,0c8.45121,0 13.2,4.89015 13.2,11.33333c0,9.53889 0,22.4817 0,28c0,5.0354 -4.12673,11.66666 -11.53333,11.66666c-60.80365,0 -342.65078,0 -377,0c-6.73421,0 -11.86667,-4.215 -11.86667,-10z" fill="none" stroke="#e96440" stroke-width="1.5"/><text transform="translate(209.16667,254.80517) scale(0.46424,0.46424)" font-size="40" xml:space="preserve" fill="#ffffff" fill-rule="nonzero" stroke="none" stroke-width="1" stroke-linecap="butt" stroke-linejoin="miter" stroke-miterlimit="10" stroke-dasharray="" stroke-dashoffset="0" font-family="Sans Serif" font-weight="normal" text-anchor="start" style="mix-blend-mode: normal"><tspan x="0" dy="0">Далее</tspan></text><text transform="translate(153.5,315.97677) scale(0.44936,0.44936)" font-size="40" xml:space="preserve" fill="#833ae0" fill-rule="nonzero" stroke="none" stroke-width="1" stroke-linecap="butt" stroke-linejoin="miter" stroke-miterlimit="10" stroke-dasharray="" stroke-dashoffset="0" font-family="Sans Serif" font-weight="normal" text-anchor="start" style="mix-blend-mode: normal"><tspan x="0" dy="0">Войти как учитель</tspan></text><path d="M-1.84379,361.68815v-363.60958h483.94272v363.60958z" fill="url(#color-1)" stroke="#000000" stroke-width="0.5"/></g></g></svg>