<svg version="1.1" xmlns="http://www.w3.org/2000/svg" xmlns:xlink="http://www.w3.org/1999/xlink" width="344.04968" height="181.70113" viewBox="0,0,344.04968,181.70113"><g transform="translate(-68.52967,-29.07955)"><g data-paper-data="{&quot;isPaintingLayer&quot;:true}" fill-rule="nonzero" stroke-linecap="butt" stroke-linejoin="miter" stroke-miterlimit="10" stroke-dasharray="" stroke-dashoffset="0" style="mix-blend-mode: normal"><text transform="translate(72.92691,193.19172) scale(1.09931,1.09931)" font-size="40" xml:space="preserve" fill="#337eff" fill-rule="nonzero" stroke="#337eff" stroke-width="8" stroke-linecap="butt" stroke-linejoin="miter" stroke-miterlimit="10" stroke-dasharray="" stroke-dashoffset="0" font-family="Sans Serif" font-weight="normal" text-anchor="start" style="mix-blend-mode: normal"><tspan x="0" dy="0">Рофл концовка</tspan></text><text transform="translate(72.92691,193.19172) scale(1.09931,1.09931)" font-size="40" xml:space="preserve" fill="#005fff" fill-rule="nonzero" stroke="#005fff" stroke-width="2" stroke-linecap="butt" stroke-linejoin="miter" stroke-miterlimit="10" stroke-dasharray="" stroke-dashoffset="0" font-family="Sans Serif" font-weight="normal" text-anchor="start" style="mix-blend-mode: normal"><tspan x="0" dy="0">Рофл концовка</tspan></text><g stroke-width="0"><path d="M233.80163,145.55398c0,0 -7.04304,0.94094 -10.4337,0.85017c-1.97752,-0.05294 -4.45134,-0.57365 -5.21567,-0.71247c-3.22868,-0.58646 -5.48582,-5.99345 -5.48582,-5.99345c0,0 -5.68861,-5.46705 -6.56968,-6.98803c-0.88106,-1.52099 -0.07571,-4.48395 -0.07571,-4.48395c0,0 7.76018,-0.91223 12.4262,-2.57376c3.4636,-1.23335 10.97803,-11.4653 10.97803,-11.4653z" data-paper-data="{&quot;index&quot;:null}" fill="#056980" stroke="none"/><path d="M249.916,114.18719c0,0 7.51443,10.23193 10.97803,11.4653c4.66602,1.66153 12.4262,2.57376 12.4262,2.57376c0,0 0.80536,2.96295 -0.0757,4.48395c-0.88106,1.52099 -6.56968,6.98803 -6.56968,6.98803c0,0 -2.25714,5.40698 -5.48582,5.99345c-0.76431,0.13883 -3.23816,0.65954 -5.21567,0.71248c-3.39067,0.09077 -10.4337,-0.85017 -10.4337,-0.85017z" data-paper-data="{&quot;index&quot;:null}" fill="#056980" stroke="none"/><g data-paper-data="{&quot;index&quot;:null}" stroke="none"><path d="M235.96151,157.48014c-0.38101,0.65953 -19.88332,6.50859 -27.80761,6.43968c-2.0724,-0.01801 -2.39457,-2.43301 -2.39457,-2.43301c0,0 -2.82189,0.73023 -3.45376,-1.51087c-0.85656,-3.03801 0.86687,-2.97243 0.1259,-3.08401c-0.55107,-0.08298 -1.01928,-0.4298 -1.56139,-0.96659c-0.52125,-0.51611 -1.0999,-1.25074 -1.36453,-2.14697c-0.48084,-1.62864 0.21298,-3.9161 2.03582,-4.45275c0.04383,-0.0129 3.29011,-1.35059 10.76017,-1.0782c6.1234,0.22327 16.7433,2.06551 16.7433,2.06551l-1.13812,-4.6458l6.3716,-0.06252c0,0 0.50105,3.26399 1.12785,6.26533c0.46061,2.20559 0.85708,5.08789 0.55535,5.61017z" fill="#804e2a"/><path d="M234.26518,156.19723c-0.33255,0.50652 -17.63024,5.62727 -24.54671,5.57436c-1.80882,-0.01383 -2.36577,-2.12002 -2.36577,-2.12002c0,0 -2.18722,0.81229 -2.73873,-0.90889c-0.74761,-2.3332 1.03238,-2.28284 0.38565,-2.36852c-0.48099,-0.06373 -1.16541,-0.33009 -1.63859,-0.74234c-0.45495,-0.39638 -0.96002,-0.96057 -1.19098,-1.64889c-0.41971,-1.2508 0.18588,-3.00759 1.77689,-3.41972c0.06961,-0.01803 5.84262,-0.97293 11.50525,0.07214c0.73513,0.13567 4.34212,0.4012 7.91037,0.80369c3.90372,0.44032 7.76109,1.01402 7.76109,1.01402l-0.99336,-4.95103l2.39,0.20344c0,0 0.43733,2.50677 0.9844,4.8118c0.40203,1.69389 1.02383,3.27886 0.76049,3.67998z" fill="#ec904e"/></g><g stroke="none"><path d="M241.15234,157.48014c-0.30173,-0.52228 0.09476,-3.40458 0.55535,-5.61018c0.62678,-3.00132 1.12784,-6.26533 1.12784,-6.26533l6.3716,0.06252l-1.13812,4.6458c0,0 10.61989,-1.84224 16.7433,-2.06551c7.47008,-0.2724 10.71636,1.06529 10.76017,1.0782c1.82285,0.53665 2.51668,2.82411 2.03582,4.45275c-0.26461,0.89624 -0.84329,1.63086 -1.36453,2.14697c-0.54213,0.53679 -1.01034,0.88361 -1.56141,0.96659c-0.74096,0.11158 0.98246,0.046 0.1259,3.08401c-0.63186,2.2411 -3.45376,1.51087 -3.45376,1.51087c0,0 -0.32217,2.41499 -2.39457,2.43301c-7.92431,0.06889 -27.42662,-5.78017 -27.80761,-6.43968z" fill="#804e2a"/><path d="M242.84868,156.19722c-0.26336,-0.40112 0.35846,-1.98607 0.76049,-3.67998c0.54707,-2.30503 0.9844,-4.8118 0.9844,-4.8118l2.39,-0.20344l-0.99336,4.95103c0,0 3.85739,-0.5737 7.76109,-1.01402c3.56826,-0.40247 7.17524,-0.668 7.91037,-0.80369c5.66264,-1.04506 11.43565,-0.09017 11.50525,-0.07214c1.59102,0.41213 2.1966,2.16891 1.77689,3.41972c-0.23096,0.68832 -0.73603,1.25251 -1.19098,1.64889c-0.47318,0.41224 -1.1576,0.67861 -1.63859,0.74234c-0.64672,0.08569 1.13327,0.03533 0.38565,2.36853c-0.5515,1.72118 -2.73873,0.90889 -2.73873,0.90889c0,0 -0.55695,2.10619 -2.36577,2.12002c-6.91646,0.05291 -24.21415,-5.06785 -24.54671,-5.57436z" fill="#ec904e"/></g><path d="M257.0267,128.40716c0.33043,11.38949 -7.09481,20.84568 -16.5847,21.12098c-4.21912,0.12241 -9.55461,0.17803 -12.6331,-2.76332c-3.84585,-3.67453 -4.96466,-11.03483 -5.14817,-17.36065c-0.33043,-11.38949 12.11299,-20.28942 15.14112,-20.2154c5.38609,0.13164 18.89444,7.82893 19.22487,19.21841z" fill="#056980" stroke="none"/><path d="M254.59117,128.53892c0.28354,9.77396 -6.08845,17.88883 -14.23226,18.12509c-3.62067,0.10504 -8.19934,0.15278 -10.84116,-2.37137c-3.30033,-3.15332 -4.26045,-9.4696 -4.41795,-14.89814c-0.28354,-9.77396 10.39484,-17.4115 12.99344,-17.34796c4.62209,0.11297 16.21439,6.71844 16.49794,16.4924z" fill="#0bc9f5" stroke="none"/><path d="M265.23343,103.91408c0.18383,6.33694 -7.59185,13.25233 -21.34412,13.65131c-13.75228,0.39898 -26.16169,-6.18889 -26.34554,-12.52584c-0.06118,-2.10879 -0.13766,-6.26919 -3.13787,-17.07205c-2.25424,-8.11683 -7.04345,-13.34279 -6.90769,-22.73808c0.22653,-15.67615 9.67842,-34.54275 34.62003,-36.12762c8.86503,-0.36571 18.91702,3.89744 18.91702,3.89744c0,0 2.62625,1.04273 5.85025,-0.36438c1.81757,-0.79328 6.614,-3.3549 6.614,-3.3549c0,0 -0.2068,2.56443 0.24936,4.10206c0.45617,1.53763 2.90465,1.49959 2.90465,1.49959c0,0 -3.97859,2.01254 -2.86598,6.8464c0.6758,2.93602 2.72949,4.31688 3.96334,7.61199c1.92596,5.14349 3.02386,11.50415 2.87884,13.46106c-1.83816,24.80543 -15.55515,35.63678 -15.39629,41.11307z" fill="#056980" stroke="none"/><path d="M263.586,102.25261c0.17378,5.99007 -6.9756,12.52112 -19.62881,12.88821c-12.65321,0.36709 -24.07596,-5.86909 -24.24974,-11.85916c-0.05783,-1.99337 -0.13124,-5.926 -2.89962,-16.13951c-2.08005,-7.67401 -6.49044,-12.61729 -6.37237,-21.49802c0.19699,-14.81758 8.87992,-32.64417 31.82758,-34.12405c8.15645,-0.33921 20.10837,3.92695 20.10837,3.92695c0,0 1.3662,0.86432 4.3316,-0.46339c1.67176,-0.74852 5.35184,-2.97772 5.35184,-2.97772c0,0 -2.10777,2.57505 -1.29221,3.29324c0.81361,0.71649 2.17772,0.19048 2.17772,0.19048c0,0 -2.56974,2.9576 -1.54248,7.52755c0.62395,2.77575 2.52792,4.54327 3.66559,7.65884c1.77584,4.86325 2.79066,10.87641 2.65866,12.72605c-1.67319,23.44577 -14.28632,33.674 -14.13615,38.85054z" fill="#0bc9f5" stroke="none"/><path d="M269.77195,86.58595c0.06536,2.25326 -0.26506,7.07508 -6.20311,8.3382c-4.82226,1.02577 -14.53864,-1.31282 -21.15419,-1.1209c-7.56107,0.21936 -23.30403,-0.00992 -24.60719,-2.68692c-3.99356,-8.20376 -0.86178,-11.13475 1.28262,-12.70627c3.99277,-2.9261 13.58586,-4.81485 20.61188,-5.01868c9.24637,-0.26825 19.13071,2.7102 24.90393,6.47305c3.44371,2.24451 5.12182,5.19596 5.16608,6.72153z" fill="#275072" stroke="none"/><path d="M239.36774,75.59649c0.34496,11.89042 -0.86131,21.24739 -6.29052,21.40489c-5.4292,0.15752 -12.7476,-10.57837 -13.09256,-22.46879c-0.15714,-5.4164 -0.09505,-10.03416 1.2401,-13.49239c1.59585,-4.13346 4.73187,-6.60228 7.68792,-6.68803c5.4292,-0.15752 10.11011,9.3539 10.45505,21.24432z" fill="#ffffff" stroke="none"/><path d="M257.73031,56.21724c2.98041,0.34872 5.92011,3.05926 7.1473,7.27071c1.02672,3.52344 0.65812,8.07445 -0.00671,13.39201c-1.45949,11.6734 -9.86088,21.58684 -15.33481,20.94634c-5.47393,-0.64048 -5.81931,-9.95877 -4.35982,-21.63217c1.45949,-11.6734 7.08013,-20.61736 12.55405,-19.97688z" data-paper-data="{&quot;index&quot;:null}" fill="#ffffff" stroke="#000000"/><path d="M237.61118,82.31502c0.18354,6.32659 -1.34087,11.50387 -3.40486,11.56376c-2.06399,0.05988 -3.88599,-5.02031 -4.06953,-11.3469c-0.18354,-6.32659 1.34087,-11.50387 3.40486,-11.56376c2.06399,-0.05988 3.88599,5.02031 4.06953,11.3469z" fill="#000000" stroke="none"/><path d="M254.01413,84.0324c-1.05414,6.24086 -3.5592,11.02129 -5.59523,10.6774c-2.03602,-0.3439 -2.83201,-5.68191 -1.77787,-11.92277c1.05414,-6.24086 3.5592,-11.02129 5.59524,-10.67739c2.03602,0.3439 2.83201,5.68191 1.77787,11.92277z" fill="#000000" stroke="none"/><path d="M225.50995,102.42486c0.06769,2.33321 -0.81194,5.39013 -2.60672,5.44221c-1.79478,0.05207 -3.34704,-3.25954 -3.41472,-5.59277c-0.06769,-2.33321 -0.51625,-6.32735 1.27854,-6.37942c0.80431,-0.02335 1.98442,0.64988 2.87393,1.79454c1.09541,1.4096 1.83162,3.44783 1.86897,4.73544z" fill="#f87eb3" stroke="none"/><path d="M258.55955,100.26521c0.99977,-1.04973 2.24142,-1.60126 3.03934,-1.49743c1.78052,0.23171 0.93387,4.16076 0.63263,6.47545c-0.30123,2.31468 -2.17761,5.45402 -3.95813,5.22231c-1.78052,-0.23171 -2.3493,-3.36141 -2.04807,-5.67608c0.16624,-1.27739 1.10305,-3.23155 2.33423,-4.52425z" data-paper-data="{&quot;index&quot;:null}" fill="#f87eb3" stroke="none"/><path d="M256.47109,105.53121c0.03015,1.03926 -1.43328,5.69792 -5.13508,8.75966c-1.31903,1.09097 -3.8354,1.05805 -5.39628,1.87093c-1.99334,1.0381 -4.13425,1.73483 -6.29574,1.79754c-2.61844,0.07596 -4.94808,-1.11806 -6.92374,-2.8692c-1.74605,-1.54761 -4.48394,-2.25304 -5.63202,-4.1788c-1.82154,-3.05544 -1.5655,-7.24481 -1.5888,-8.0481c-0.05461,-1.8825 5.24599,-4.80413 13.85006,-5.05375c8.60408,-0.24961 17.06696,5.8392 17.12156,7.7217z" fill="#80532f" stroke="none"/><path d="M254.01866,106.00218c0.02372,0.81745 -1.21416,4.48427 -4.33167,6.89851c-1.11084,0.86025 -3.2267,0.83831 -4.54047,1.48019c-1.67777,0.81971 -3.47906,1.37115 -5.29665,1.42388c-2.20185,0.06389 -4.15887,-0.87167 -5.81737,-2.24602c-1.46574,-1.21461 -3.76681,-1.76518 -4.72916,-3.27821c-1.52685,-2.40056 -1.30495,-5.69634 -1.32327,-6.32818c-0.04296,-1.4807 4.41871,-3.78723 11.65393,-3.99712c7.23521,-0.2099 14.34172,4.56627 14.38468,6.04697z" fill="#ffa75f" stroke="none"/><path d="M227.59725,107.91308l-0.03771,-1.29989c0,0 9.02647,2.34012 13.56185,2.20853c4.61661,-0.13392 13.89845,-3.00518 13.89845,-3.00518l0.03771,1.29989c0,0 -9.30357,3.03451 -13.89373,3.16768c-4.56309,0.13238 -13.56656,-2.37101 -13.56656,-2.37101z" fill="#80532f" stroke="none"/><path d="M251.08028,119.88834c0,0 6.78758,7.58984 9.72087,8.53553c3.9516,1.27402 10.52363,1.58989 10.52363,1.58989c0,0 0.26829,1.43668 -0.77025,2.79884c-2.47847,3.25076 -6.55238,5.86969 -6.55238,5.86969c0,0 -1.20542,4.52953 -3.93976,4.97921c-0.6473,0.10646 -2.17745,0.50572 -3.8522,0.5463c-2.87152,0.06959 -8.8362,-0.26829 -8.8362,-0.26829z" data-paper-data="{&quot;index&quot;:null}" fill="#0bc9f5" stroke="none"/><path d="M231.96729,143.93953c0,0 -5.96468,0.33788 -8.83621,0.26829c-1.67474,-0.04059 -3.2049,-0.43986 -3.8522,-0.5463c-2.73433,-0.44968 -3.93976,-4.97921 -3.93976,-4.97921c0,0 -4.07391,-2.61895 -6.55238,-5.86969c-1.03854,-1.36216 -0.77025,-2.79884 -0.77025,-2.79884c0,0 6.57203,-0.31587 10.52363,-1.58989c2.93329,-0.94572 9.72087,-8.53553 9.72087,-8.53553z" data-paper-data="{&quot;index&quot;:null}" fill="#0bc9f5" stroke="none"/><path d="M251.66985,131.54533c0.1933,6.66313 -4.83327,12.21502 -11.22718,12.40052c-2.80769,0.08145 -6.12921,-0.37675 -8.18389,-2.05116c-2.62443,-2.1387 -3.63489,-5.94041 -3.74329,-9.67762c-0.1933,-6.66313 4.81913,-12.70249 11.21304,-12.88799c2.8619,-0.08302 5.75216,0.77002 7.8279,2.61237c2.56174,2.27374 4.00668,5.92315 4.11347,9.60388z" fill="#ffffff" stroke="none"/></g></g></g></svg>