<svg version="1.1" xmlns="http://www.w3.org/2000/svg" xmlns:xlink="http://www.w3.org/1999/xlink" width="364.54003" height="338.08602" viewBox="0,0,364.54003,338.08602"><g transform="translate(-57.57385,-26.15593)"><g data-paper-data="{&quot;isPaintingLayer&quot;:true}" fill-rule="nonzero" stroke-linecap="butt" stroke-linejoin="miter" stroke-miterlimit="10" stroke-dasharray="" stroke-dashoffset="0" style="mix-blend-mode: normal"><path d="M389.15906,149.11582v-15.30793h1.85205v15.30793z" fill="#00d6ff" stroke="#000000" stroke-width="0"/><path d="M88.98889,271.99511v-15.30793h15.30793v15.30793z" fill="#00d6ff" stroke="#000000" stroke-width="1"/><path d="M254.82222,271.99511v-15.30793h15.30793v15.30793z" fill="#00d6ff" stroke="#000000" stroke-width="1"/><path d="M345.60794,271.99511v-15.30793h15.30793v15.30793z" fill="#00d6ff" stroke="#000000" stroke-width="1"/><path d="M194.48889,271.99511v-15.30793h15.30793v15.30793z" fill="#00d6ff" stroke="#000000" stroke-width="1"/><path d="M375.70318,271.99511v-15.30793h15.30793v15.30793z" fill="#00d6ff" stroke="#000000" stroke-width="1"/><path d="M406.30595,271.99511v-15.30793h15.30793v15.30793z" fill="#000000" stroke="#000000" stroke-width="1"/><path d="M88.98889,256.62011v-15.30793h15.30793v15.30793z" fill="#00d6ff" stroke="#000000" stroke-width="1"/><path d="M103.98889,241.40272v-15.30793h15.30793v15.30793z" fill="#00d6ff" stroke="#000000" stroke-width="1"/><path d="M119.15556,256.62011v-15.30793h15.30793v15.30793z" fill="#00d6ff" stroke="#000000" stroke-width="1"/><path d="M134.15556,256.62011v-15.30793h15.30793v15.30793z" fill="#00d6ff" stroke="#000000" stroke-width="1"/><path d="M330.44127,256.62011v-15.30793h15.30793v15.30793z" fill="#00d6ff" stroke="#000000" stroke-width="1"/><path d="M149.32222,256.62011v-15.30793h15.30793v15.30793z" fill="#00d6ff" stroke="#000000" stroke-width="1"/><path d="M164.32222,256.62011v-15.30793h15.30793v15.30793z" fill="#00d6ff" stroke="#000000" stroke-width="1"/><path d="M194.4889,256.62011v-15.30793h15.30793v15.30793z" fill="#00d6ff" stroke="#000000" stroke-width="1"/><path d="M375.70318,256.62011v-15.30793h15.30793v15.30793z" fill="#00d6ff" stroke="#000000" stroke-width="1"/><path d="M406.30595,256.62011v-15.30793h15.30793v15.30793z" fill="#000000" stroke="#000000" stroke-width="1"/><path d="M88.98889,241.30761v-15.30793h15.30793v15.30793z" fill="#00d6ff" stroke="#000000" stroke-width="1"/><path d="M73.64406,241.30761v-15.30793h15.30793v15.30793z" fill="#30ff00" stroke="#000000" stroke-width="1"/><path d="M254.82223,241.30761v-15.30793h15.30793v15.30793z" fill="#00d6ff" stroke="#000000" stroke-width="1"/><path d="M315.44127,256.57077v-15.30793h15.30793v15.30793z" fill="#00d6ff" stroke="#000000" stroke-width="1"/><path d="M360.60794,241.30761v-15.30793h15.30793v15.30793z" fill="#00d6ff" stroke="#000000" stroke-width="1"/><path d="M269.98889,225.51814v-15.30793h15.30793v15.30793z" fill="#00d6ff" stroke="#000000" stroke-width="1"/><path d="M284.98889,241.30761v-15.30793h15.30793v15.30793z" fill="#00d6ff" stroke="#000000" stroke-width="1"/><path d="M375.70318,241.30761v-15.30793h15.30793v15.30793z" fill="#00d6ff" stroke="#000000" stroke-width="1"/><path d="M406.30595,241.30761v-15.30793h15.30793v15.30793z" fill="#000000" stroke="#000000" stroke-width="1"/><path d="M88.98889,225.93261v-15.30793h15.30793v15.30793z" fill="#00d6ff" stroke="#000000" stroke-width="1"/><path d="M134.15556,225.93261v-15.30793h15.30793v15.30793z" fill="#00d6ff" stroke="#000000" stroke-width="1"/><path d="M209.88283,242.40989v-15.30793h15.30793v15.30793z" fill="#00d6ff" stroke="#000000" stroke-width="1"/><path d="M225.22373,226.72807v-15.30793h15.30793v15.30793z" fill="#00d6ff" stroke="#000000" stroke-width="1"/><path d="M254.82223,225.93261v-15.30793h15.30793v15.30793z" fill="#00d6ff" stroke="#000000" stroke-width="1"/><path d="M149.32222,225.93261v-15.30793h15.30793v15.30793z" fill="#00d6ff" stroke="#000000" stroke-width="1"/><path d="M164.32222,225.93261v-15.30793h15.30793v15.30793z" fill="#00d6ff" stroke="#000000" stroke-width="1"/><path d="M194.4889,242.36118v-15.30793h15.30793v15.30793z" fill="#00d6ff" stroke="#000000" stroke-width="1"/><path d="M375.70318,225.93261v-15.30793h15.30793v15.30793z" fill="#00d6ff" stroke="#000000" stroke-width="1"/><path d="M406.30595,225.93261v-15.30793h15.30793v15.30793z" fill="#000000" stroke="#000000" stroke-width="1"/><path d="M88.98889,210.69303v-15.30793h15.30793v15.30793z" fill="#00d6ff" stroke="#000000" stroke-width="1"/><path d="M119.15556,210.69303v-15.30793h15.30793v15.30793z" fill="#00d6ff" stroke="#000000" stroke-width="1"/><path d="M254.82223,210.69303v-15.30793h15.30793v15.30793z" fill="#00d6ff" stroke="#000000" stroke-width="1"/><path d="M315.44127,225.95619v-15.30793h15.30793v15.30793z" fill="#00d6ff" stroke="#000000" stroke-width="1"/><path d="M330.44127,210.69303v-15.30793h15.30793v15.30793z" fill="#00d6ff" stroke="#000000" stroke-width="1"/><path d="M360.60794,210.69303v-15.30793h15.30793v15.30793z" fill="#00d6ff" stroke="#000000" stroke-width="1"/><path d="M194.4889,210.69303v-15.30793h15.30793v15.30793z" fill="#00d6ff" stroke="#000000" stroke-width="1"/><path d="M269.98889,210.69303v-15.30793h15.30793v15.30793z" fill="#00d6ff" stroke="#000000" stroke-width="1"/><path d="M284.98889,210.69303v-15.30793h15.30793v15.30793z" fill="#00d6ff" stroke="#000000" stroke-width="1"/><path d="M300.15556,210.69303v-15.30793h15.30793v15.30793z" fill="#00d6ff" stroke="#000000" stroke-width="1"/><path d="M375.70318,210.69303v-15.30793h15.30793v15.30793z" fill="#00d6ff" stroke="#000000" stroke-width="1"/><path d="M406.30595,210.69303v-15.30793h15.30793v15.30793z" fill="#000000" stroke="#000000" stroke-width="1"/><path d="M88.98889,195.31803v-15.30793h15.30793v15.30793z" fill="#00d6ff" stroke="#000000" stroke-width="1"/><path d="M134.15556,195.31803v-15.30793h15.30793v15.30793z" fill="#00d6ff" stroke="#000000" stroke-width="1"/><path d="M254.82223,195.31803v-15.30793h15.30793v15.30793z" fill="#00d6ff" stroke="#000000" stroke-width="1"/><path d="M149.32222,195.31803v-15.30793h15.30793v15.30793z" fill="#00d6ff" stroke="#000000" stroke-width="1"/><path d="M164.32222,195.31803v-15.30793h15.30793v15.30793z" fill="#00d6ff" stroke="#000000" stroke-width="1"/><path d="M194.4889,195.31803v-15.30793h15.30793v15.30793z" fill="#00d6ff" stroke="#000000" stroke-width="1"/><path d="M375.70318,195.31803v-15.30793h15.30793v15.30793z" fill="#00d6ff" stroke="#000000" stroke-width="1"/><path d="M406.30595,195.31803v-15.30793h15.30793v15.30793z" fill="#000000" stroke="#000000" stroke-width="1"/><path d="M88.98889,180.00553v-15.30793h15.30793v15.30793z" fill="#00d6ff" stroke="#000000" stroke-width="1"/><path d="M209.65555,180.00553v-15.30793h15.30793v15.30793z" fill="#00d6ff" stroke="#000000" stroke-width="1"/><path d="M239.82222,180.00553v-15.30793h15.30793v15.30793z" fill="#00d6ff" stroke="#000000" stroke-width="1"/><path d="M254.82223,180.00553v-15.30793h15.30793v15.30793z" fill="#00d6ff" stroke="#000000" stroke-width="1"/><path d="M330.44127,180.00553v-15.30793h15.30793v15.30793z" fill="#00d6ff" stroke="#000000" stroke-width="1"/><path d="M194.4889,180.00553v-15.30793h15.30793v15.30793z" fill="#00d6ff" stroke="#000000" stroke-width="1"/><path d="M269.98889,180.00553v-15.30793h15.30793v15.30793z" fill="#00d6ff" stroke="#000000" stroke-width="1"/><path d="M300.15556,180.00553v-15.30793h15.30793v15.30793z" fill="#00d6ff" stroke="#000000" stroke-width="1"/><path d="M375.70318,180.00553v-15.30793h15.30793v15.30793z" fill="#00d6ff" stroke="#000000" stroke-width="1"/><path d="M406.30595,180.00553v-15.30793h15.30793v15.30793z" fill="#000000" stroke="#000000" stroke-width="1"/><path d="M88.98889,164.63053v-15.30793h15.30793v15.30793z" fill="#00d6ff" stroke="#000000" stroke-width="1"/><path d="M103.98889,164.63053v-15.30793h15.30793v15.30793z" fill="#00d6ff" stroke="#000000" stroke-width="1"/><path d="M134.15556,164.63053v-15.30793h15.30793v15.30793z" fill="#00d6ff" stroke="#000000" stroke-width="1"/><path d="M254.82223,164.63053v-15.30793h15.30793v15.30793z" fill="#00d6ff" stroke="#000000" stroke-width="1"/><path d="M315.44127,164.63053v-15.30793h15.30793v15.30793z" fill="#00d6ff" stroke="#000000" stroke-width="1"/><path d="M360.60794,164.63053v-15.30793h15.30793v15.30793z" fill="#00d6ff" stroke="#000000" stroke-width="1"/><path d="M149.32222,164.63053v-15.30793h15.30793v15.30793z" fill="#00d6ff" stroke="#000000" stroke-width="1"/><path d="M164.32222,164.63053v-15.30793h15.30793v15.30793z" fill="#00d6ff" stroke="#000000" stroke-width="1"/><path d="M179.4889,164.63053v-15.30793h15.30793v15.30793z" fill="#00d6ff" stroke="#000000" stroke-width="1"/><path d="M194.4889,164.63053v-15.30793h15.30793v15.30793z" fill="#00d6ff" stroke="#000000" stroke-width="1"/><path d="M375.70318,164.63053v-15.30793h15.30793v15.30793z" fill="#00d6ff" stroke="#000000" stroke-width="1"/><path d="M406.30595,164.63053v-15.30793h15.30793v15.30793z" fill="#000000" stroke="#000000" stroke-width="1"/><path d="M88.98889,149.32844v-15.30793h15.30793v15.30793z" fill="#00d6ff" stroke="#000000" stroke-width="1"/><path d="M224.65556,149.32844v-15.30793h15.30793v15.30793z" fill="#00d6ff" stroke="#000000" stroke-width="1"/><path d="M149.32223,149.32844v-15.30793h15.30793v15.30793z" fill="#00d6ff" stroke="#000000" stroke-width="1"/><path d="M284.98889,149.32844v-15.30793h15.30793v15.30793z" fill="#00d6ff" stroke="#000000" stroke-width="1"/><path d="M88.98889,133.95344v-15.30793h15.30793v15.30793z" fill="#00d6ff" stroke="#000000" stroke-width="1"/><path d="M103.98889,133.95344v-15.30793h15.30793v15.30793z" fill="#00d6ff" stroke="#000000" stroke-width="1"/><path d="M134.15556,133.95344v-15.30793h15.30793v15.30793z" fill="#00d6ff" stroke="#000000" stroke-width="1"/><path d="M209.65556,118.56883v-15.30793h15.30793v15.30793z" fill="#00d6ff" stroke="#000000" stroke-width="1"/><path d="M224.65556,133.95344v-15.30793h15.30793v15.30793z" fill="#00d6ff" stroke="#000000" stroke-width="1"/><path d="M239.82223,133.95344v-15.30793h15.30793v15.30793z" fill="#00d6ff" stroke="#000000" stroke-width="1"/><path d="M254.82223,133.95344v-15.30793h15.30793v15.30793z" fill="#00d6ff" stroke="#000000" stroke-width="1"/><path d="M315.44127,133.95344v-15.30793h15.30793v15.30793z" fill="#00d6ff" stroke="#000000" stroke-width="1"/><path d="M330.44127,133.95344v-15.30793h15.30793v15.30793z" fill="#00d6ff" stroke="#000000" stroke-width="1"/><path d="M345.60794,133.95344v-15.30793h15.30793v15.30793z" fill="#00d6ff" stroke="#000000" stroke-width="1"/><path d="M360.60794,133.95344v-15.30793h15.30793v15.30793z" fill="#00d6ff" stroke="#000000" stroke-width="1"/><path d="M149.32223,133.95344v-15.30793h15.30793v15.30793z" fill="#00d6ff" stroke="#000000" stroke-width="1"/><path d="M164.32223,133.95344v-15.30793h15.30793v15.30793z" fill="#00d6ff" stroke="#000000" stroke-width="1"/><path d="M194.4889,133.95344v-15.30793h15.30793v15.30793z" fill="#00d6ff" stroke="#000000" stroke-width="1"/><path d="M269.98889,133.95344v-15.30793h15.30793v15.30793z" fill="#00d6ff" stroke="#000000" stroke-width="1"/><path d="M300.15556,133.95344v-15.30793h15.30793v15.30793z" fill="#00d6ff" stroke="#000000" stroke-width="1"/><path d="M375.70318,133.95344v-15.30793h15.30793v15.30793z" fill="#00d6ff" stroke="#000000" stroke-width="1"/><path d="M390.9895,133.95344v-15.30793h15.30793v15.30793z" fill="#000000" stroke="#000000" stroke-width="1"/><path d="M406.30595,133.95344v-15.30793h15.30793v15.30793z" fill="#000000" stroke="#000000" stroke-width="1"/><path d="M88.98889,118.64094v-15.30793h15.30793v15.30793z" fill="#00d6ff" stroke="#000000" stroke-width="1"/><path d="M134.15556,118.64094v-15.30793h15.30793v15.30793z" fill="#00d6ff" stroke="#000000" stroke-width="1"/><path d="M375.70318,118.64094v-15.30793h15.30793v15.30793z" fill="#00d6ff" stroke="#000000" stroke-width="1"/><path d="M88.98889,103.26594v-15.30793h15.30793v15.30793z" fill="#00d6ff" stroke="#000000" stroke-width="1"/><path d="M103.98889,103.26594v-15.30793h15.30793v15.30793z" fill="#00d6ff" stroke="#000000" stroke-width="1"/><path d="M209.65556,103.26594v-15.30793h15.30793v15.30793z" fill="#00d6ff" stroke="#000000" stroke-width="1"/><path d="M315.44127,103.26594v-15.30793h15.30793v15.30793z" fill="#00d6ff" stroke="#000000" stroke-width="1"/><path d="M330.44127,103.26594v-15.30793h15.30793v15.30793z" fill="#00d6ff" stroke="#000000" stroke-width="1"/><path d="M345.60794,103.26594v-15.30793h15.30793v15.30793z" fill="#00d6ff" stroke="#000000" stroke-width="1"/><path d="M164.32223,103.26594v-15.30793h15.30793v15.30793z" fill="#00d6ff" stroke="#000000" stroke-width="1"/><path d="M269.98889,103.26594v-15.30793h15.30793v15.30793z" fill="#00d6ff" stroke="#000000" stroke-width="1"/><path d="M284.98889,103.26594v-15.30793h15.30793v15.30793z" fill="#00d6ff" stroke="#000000" stroke-width="1"/><path d="M300.15556,103.26594v-15.30793h15.30793v15.30793z" fill="#00d6ff" stroke="#000000" stroke-width="1"/><path d="M375.70318,103.26594v-15.30793h15.30793v15.30793z" fill="#00d6ff" stroke="#000000" stroke-width="1"/><path d="M88.98889,88.02636v-15.30793h15.30793v15.30793z" fill="#00d6ff" stroke="#000000" stroke-width="1"/><path d="M134.15556,88.02636v-15.30793h15.30793v15.30793z" fill="#00d6ff" stroke="#000000" stroke-width="1"/><path d="M224.65556,88.02636v-15.30793h15.30793v15.30793z" fill="#00d6ff" stroke="#000000" stroke-width="1"/><path d="M179.31649,88.02636v-15.30793h15.30793v15.30793z" fill="#00d6ff" stroke="#000000" stroke-width="1"/><path d="M269.98889,88.02636v-15.30793h15.30793v15.30793z" fill="#00d6ff" stroke="#000000" stroke-width="1"/><path d="M375.70318,88.02636v-15.30793h15.30793v15.30793z" fill="#00d6ff" stroke="#000000" stroke-width="1"/><path d="M88.98889,72.65136v-15.30793h15.30793v15.30793z" fill="#00d6ff" stroke="#000000" stroke-width="1"/><path d="M103.98889,72.65136v-15.30793h15.30793v15.30793z" fill="#00d6ff" stroke="#000000" stroke-width="1"/><path d="M119.15556,72.65136v-15.30793h15.30793v15.30793z" fill="#00d6ff" stroke="#000000" stroke-width="1"/><path d="M134.15556,72.65136v-15.30793h15.30793v15.30793z" fill="#00d6ff" stroke="#000000" stroke-width="1"/><path d="M224.65556,72.65136v-15.30793h15.30793v15.30793z" fill="#00d6ff" stroke="#000000" stroke-width="1"/><path d="M239.82223,72.65136v-15.30793h15.30793v15.30793z" fill="#00d6ff" stroke="#000000" stroke-width="1"/><path d="M330.44127,72.65136v-15.30793h15.30793v15.30793z" fill="#00d6ff" stroke="#000000" stroke-width="1"/><path d="M345.60794,72.65136v-15.30793h15.30793v15.30793z" fill="#00d6ff" stroke="#000000" stroke-width="1"/><path d="M360.60794,72.65136v-15.30793h15.30793v15.30793z" fill="#00d6ff" stroke="#000000" stroke-width="1"/><path d="M164.32223,72.65136v-15.30793h15.30793v15.30793z" fill="#00d6ff" stroke="#000000" stroke-width="1"/><path d="M179.4889,57.47895v-15.30793h15.30793v15.30793z" fill="#00d6ff" stroke="#000000" stroke-width="1"/><path d="M194.4889,72.65136v-15.30793h15.30793v15.30793z" fill="#00d6ff" stroke="#000000" stroke-width="1"/><path d="M284.98889,72.65136v-15.30793h15.30793v15.30793z" fill="#00d6ff" stroke="#000000" stroke-width="1"/><path d="M300.15556,72.65136v-15.30793h15.30793v15.30793z" fill="#00d6ff" stroke="#000000" stroke-width="1"/><path d="M375.70318,72.65136v-15.30793h15.30793v15.30793z" fill="#00d6ff" stroke="#000000" stroke-width="1"/><path d="M88.98889,57.33886v-15.30793h15.30793v15.30793z" fill="#00d6ff" stroke="#000000" stroke-width="1"/><path d="M360.60794,57.33886v-15.30793h15.30793v15.30793z" fill="#30ff00" stroke="#000000" stroke-width="1"/><path d="M269.98889,57.33886v-15.30793h15.30793v15.30793z" fill="#00d6ff" stroke="#000000" stroke-width="1"/><path d="M375.70318,57.33886v-15.30793h15.30793v15.30793z" fill="#00d6ff" stroke="#000000" stroke-width="1"/><path d="M88.98889,41.96386v-15.30793h15.30793v15.30793z" fill="#00d6ff" stroke="#000000" stroke-width="1"/><path d="M103.98889,41.96386v-15.30793h15.30793v15.30793z" fill="#00d6ff" stroke="#000000" stroke-width="1"/><path d="M119.15556,41.96386v-15.30793h15.30793v15.30793z" fill="#00d6ff" stroke="#000000" stroke-width="1"/><path d="M134.15556,41.96386v-15.30793h15.30793v15.30793z" fill="#00d6ff" stroke="#000000" stroke-width="1"/><path d="M209.65556,41.96386v-15.30793h15.30793v15.30793z" fill="#00d6ff" stroke="#000000" stroke-width="1"/><path d="M224.65556,41.96386v-15.30793h15.30793v15.30793z" fill="#00d6ff" stroke="#000000" stroke-width="1"/><path d="M239.82223,41.96386v-15.30793h15.30793v15.30793z" fill="#00d6ff" stroke="#000000" stroke-width="1"/><path d="M254.82223,41.96386v-15.30793h15.30793v15.30793z" fill="#00d6ff" stroke="#000000" stroke-width="1"/><path d="M315.44127,41.96386v-15.30793h15.30793v15.30793z" fill="#00d6ff" stroke="#000000" stroke-width="1"/><path d="M330.44127,41.96386v-15.30793h15.30793v15.30793z" fill="#00d6ff" stroke="#000000" stroke-width="1"/><path d="M345.60794,41.96386v-15.30793h15.30793v15.30793z" fill="#00d6ff" stroke="#000000" stroke-width="1"/><path d="M360.60794,41.96386v-15.30793h15.30793v15.30793z" fill="#00d6ff" stroke="#000000" stroke-width="1"/><path d="M149.32223,41.96386v-15.30793h15.30793v15.30793z" fill="#00d6ff" stroke="#000000" stroke-width="1"/><path d="M164.32223,41.96386v-15.30793h15.30793v15.30793z" fill="#00d6ff" stroke="#000000" stroke-width="1"/><path d="M194.4889,41.96386v-15.30793h15.30793v15.30793z" fill="#00d6ff" stroke="#000000" stroke-width="1"/><path d="M269.98889,41.96386v-15.30793h15.30793v15.30793z" fill="#00d6ff" stroke="#000000" stroke-width="1"/><path d="M284.98889,41.96386v-15.30793h15.30793v15.30793z" fill="#00d6ff" stroke="#000000" stroke-width="1"/><path d="M300.15556,41.96386v-15.30793h15.30793v15.30793z" fill="#00d6ff" stroke="#000000" stroke-width="1"/><path d="M375.70318,41.96386v-15.30793h15.30793v15.30793z" fill="#00d6ff" stroke="#000000" stroke-width="1"/><path d="M88.98889,333.34407v-15.30793h15.30793v15.30793z" fill="#00d6ff" stroke="#000000" stroke-width="1"/><path d="M103.98889,333.34407v-15.30793h15.30793v15.30793z" fill="#00d6ff" stroke="#000000" stroke-width="1"/><path d="M119.15556,333.34407v-15.30793h15.30793v15.30793z" fill="#00d6ff" stroke="#000000" stroke-width="1"/><path d="M134.15556,333.34407v-15.30793h15.30793v15.30793z" fill="#00d6ff" stroke="#000000" stroke-width="1"/><path d="M209.65555,333.34407v-15.30793h15.30793v15.30793z" fill="#00d6ff" stroke="#000000" stroke-width="1"/><path d="M224.65555,333.34407v-15.30793h15.30793v15.30793z" fill="#00d6ff" stroke="#000000" stroke-width="1"/><path d="M239.82223,333.34407v-15.30793h15.30793v15.30793z" fill="#00d6ff" stroke="#000000" stroke-width="1"/><path d="M254.82223,333.34407v-15.30793h15.30793v15.30793z" fill="#00d6ff" stroke="#000000" stroke-width="1"/><path d="M315.44127,333.34407v-15.30793h15.30793v15.30793z" fill="#00d6ff" stroke="#000000" stroke-width="1"/><path d="M330.44127,333.34407v-15.30793h15.30793v15.30793z" fill="#00d6ff" stroke="#000000" stroke-width="1"/><path d="M345.60794,333.34407v-15.30793h15.30793v15.30793z" fill="#00d6ff" stroke="#000000" stroke-width="1"/><path d="M360.60794,333.34407v-15.30793h15.30793v15.30793z" fill="#00d6ff" stroke="#000000" stroke-width="1"/><path d="M149.32223,333.34407v-15.30793h15.30793v15.30793z" fill="#00d6ff" stroke="#000000" stroke-width="1"/><path d="M164.32223,333.34407v-15.30793h15.30793v15.30793z" fill="#00d6ff" stroke="#000000" stroke-width="1"/><path d="M179.48889,333.34407v-15.30793h15.30793v15.30793z" fill="#00d6ff" stroke="#000000" stroke-width="1"/><path d="M194.48889,333.34407v-15.30793h15.30793v15.30793z" fill="#00d6ff" stroke="#000000" stroke-width="1"/><path d="M269.98889,333.34407v-15.30793h15.30793v15.30793z" fill="#00d6ff" stroke="#000000" stroke-width="1"/><path d="M284.98889,333.34407v-15.30793h15.30793v15.30793z" fill="#00d6ff" stroke="#000000" stroke-width="1"/><path d="M300.15556,333.34407v-15.30793h15.30793v15.30793z" fill="#00d6ff" stroke="#000000" stroke-width="1"/><path d="M375.70318,333.34407v-15.30793h15.30793v15.30793z" fill="#00d6ff" stroke="#000000" stroke-width="1"/><path d="M406.30595,333.34407v-15.30793h15.30793v15.30793z" fill="#000000" stroke="#000000" stroke-width="1"/><path d="M406.30595,363.62185v-15.30793h15.30793v15.30793z" fill="#000000" stroke="#000000" stroke-width="1"/><path d="M88.98889,317.96907v-15.30793h15.30793v15.30793z" fill="#00d6ff" stroke="#000000" stroke-width="1"/><path d="M224.65555,317.96907v-15.30793h15.30793v15.30793z" fill="#00d6ff" stroke="#000000" stroke-width="1"/><path d="M149.32223,317.96907v-15.30793h15.30793v15.30793z" fill="#00d6ff" stroke="#000000" stroke-width="1"/><path d="M194.48889,317.96907v-15.30793h15.30793v15.30793z" fill="#00d6ff" stroke="#000000" stroke-width="1"/><path d="M300.15556,317.96907v-15.30793h15.30793v15.30793z" fill="#00d6ff" stroke="#000000" stroke-width="1"/><path d="M375.70318,317.96907v-15.30793h15.30793v15.30793z" fill="#00d6ff" stroke="#000000" stroke-width="1"/><path d="M406.30595,317.96907v-15.30793h15.30793v15.30793z" fill="#000000" stroke="#000000" stroke-width="1"/><path d="M406.30595,348.24685v-15.30793h15.30793v15.30793z" fill="#000000" stroke="#000000" stroke-width="1"/><path d="M88.98889,302.65657v-15.30793h15.30793v15.30793z" fill="#00d6ff" stroke="#000000" stroke-width="1"/><path d="M119.15556,302.65657v-15.30793h15.30793v15.30793z" fill="#00d6ff" stroke="#000000" stroke-width="1"/><path d="M194.48889,302.65657v-15.30793h15.30793v15.30793z" fill="#00d6ff" stroke="#000000" stroke-width="1"/><path d="M269.98889,302.65657v-15.30793h15.30793v15.30793z" fill="#00d6ff" stroke="#000000" stroke-width="1"/><path d="M300.15556,302.65657v-15.30793h15.30793v15.30793z" fill="#00d6ff" stroke="#000000" stroke-width="1"/><path d="M375.70318,302.65657v-15.30793h15.30793v15.30793z" fill="#00d6ff" stroke="#000000" stroke-width="1"/><path d="M406.30595,302.65657v-15.30793h15.30793v15.30793z" fill="#000000" stroke="#000000" stroke-width="1"/><path d="M88.98889,287.28157v-15.30793h15.30793v15.30793z" fill="#00d6ff" stroke="#000000" stroke-width="1"/><path d="M103.98889,287.28157v-15.30793h15.30793v15.30793z" fill="#00d6ff" stroke="#000000" stroke-width="1"/><path d="M134.15556,287.28157v-15.30793h15.30793v15.30793z" fill="#00d6ff" stroke="#000000" stroke-width="1"/><path d="M209.65555,287.28157v-15.30793h15.30793v15.30793z" fill="#00d6ff" stroke="#000000" stroke-width="1"/><path d="M224.65555,287.28157v-15.30793h15.30793v15.30793z" fill="#00d6ff" stroke="#000000" stroke-width="1"/><path d="M330.44127,287.28157v-15.30793h15.30793v15.30793z" fill="#00d6ff" stroke="#000000" stroke-width="1"/><path d="M149.32223,287.28157v-15.30793h15.30793v15.30793z" fill="#00d6ff" stroke="#000000" stroke-width="1"/><path d="M164.32223,287.28157v-15.30793h15.30793v15.30793z" fill="#00d6ff" stroke="#000000" stroke-width="1"/><path d="M269.98889,287.28157v-15.30793h15.30793v15.30793z" fill="#00d6ff" stroke="#000000" stroke-width="1"/><path d="M284.98889,287.28157v-15.30793h15.30793v15.30793z" fill="#00d6ff" stroke="#000000" stroke-width="1"/><path d="M300.15556,287.28157v-15.30793h15.30793v15.30793z" fill="#00d6ff" stroke="#000000" stroke-width="1"/><path d="M375.70318,287.28157v-15.30793h15.30793v15.30793z" fill="#00d6ff" stroke="#000000" stroke-width="1"/><path d="M406.30595,287.28157v-15.30793h15.30793v15.30793z" fill="#000000" stroke="#000000" stroke-width="1"/><path d="M224.54192,256.84738v-14.39884h15.30793v14.39884z" fill="#00d6ff" stroke="#000000" stroke-width="1"/><path d="M224.54192,195.57371v-15.76247h15.30793v15.76247z" fill="#00d6ff" stroke="#000000" stroke-width="1"/><path d="M179.71617,41.96386v-15.30793h15.30793v15.30793z" fill="#00d6ff" stroke="#000000" stroke-width="1"/><path d="M179.75729,149.9924v-16.15209h14.78845v16.15209z" fill="#00d6ff" stroke="#000000" stroke-width="1"/><path d="M375.66073,149.32844v-15.30793h15.30793v15.30793z" fill="none" stroke="#000000" stroke-width="1"/><path d="M406.2635,149.32844v-15.30793h15.30793v15.30793z" fill="#000000" stroke="#000000" stroke-width="1"/><g fill="none" stroke-width="2"><path d="M81.39201,238.74062l-5.05538,-5.05538l5.05538,-5.05538l5.05538,5.05538z" stroke="#e8ff00"/><path d="M80.32837,233.55632c0,-0.58742 0.4762,-1.06363 1.06363,-1.06363c0.58742,0 1.06363,0.4762 1.06363,1.06363c0,0.58742 -0.4762,1.06363 -1.06363,1.06363c-0.58742,0 -1.06363,-0.4762 -1.06363,-1.06363z" stroke="#acff00"/></g><path d="M58.1163,363.74195v-15.30793h351.64126v15.30793z" fill="#000000" stroke="#000000" stroke-width="1"/><path d="M58.1163,348.42945v-15.30793h15.30793v15.30793z" fill="#000000" stroke="#000000" stroke-width="1"/><path d="M58.1163,333.05445v-15.30793h15.30793v15.30793z" fill="#000000" stroke="#000000" stroke-width="1"/><path d="M58.1163,317.81487v-15.30793h15.30793v15.30793z" fill="#000000" stroke="#000000" stroke-width="1"/><path d="M58.1163,302.43987v-15.30793h15.30793v15.30793z" fill="#000000" stroke="#000000" stroke-width="1"/><path d="M58.1163,287.12737v-15.30793h15.30793v15.30793z" fill="#000000" stroke="#000000" stroke-width="1"/><path d="M58.1163,271.75237v-15.30793h15.30793v15.30793z" fill="#000000" stroke="#000000" stroke-width="1"/><path d="M58.1163,241.07528v-15.30793h15.30793v15.30793z" fill="#000000" stroke="#000000" stroke-width="1"/><path d="M58.07385,256.45028v-15.30793h15.30793v15.30793z" fill="#000000" stroke="#000000" stroke-width="1"/></g></g></svg>