<svg version="1.1" xmlns="http://www.w3.org/2000/svg" xmlns:xlink="http://www.w3.org/1999/xlink" width="340.5" height="218.37578" viewBox="0,0,340.5,218.37578"><defs><linearGradient x1="120.20469" y1="125" x2="177.70425" y2="125" gradientUnits="userSpaceOnUse" id="color-1"><stop offset="0" stop-color="#d69b00"/><stop offset="1" stop-color="#ffeb00"/></linearGradient></defs><g transform="translate(-69.75,-70.81211)"><g data-paper-data="{&quot;isPaintingLayer&quot;:true}" fill-rule="nonzero" stroke-miterlimit="10" stroke-dasharray="" stroke-dashoffset="0" style="mix-blend-mode: normal"><path d="M70.5,288.43789v-216.87578h339v216.87578z" fill="#ffffff" stroke="#000000" stroke-width="1.5" stroke-linecap="butt" stroke-linejoin="miter"/><path d="M409.4,88.83125h-338.5" fill="none" stroke="#000000" stroke-width="1.5" stroke-linecap="round" stroke-linejoin="miter"/><path d="M393.93333,85.22083l9.66667,-9.66667" fill="none" stroke="#000000" stroke-width="1.5" stroke-linecap="round" stroke-linejoin="miter"/><path d="M403.6,85.22083l-9.66667,-9.66667" data-paper-data="{&quot;index&quot;:null}" fill="none" stroke="#000000" stroke-width="1.5" stroke-linecap="round" stroke-linejoin="miter"/><path d="M387.65,88.83125v-16.5" fill="none" stroke="#000000" stroke-width="1.5" stroke-linecap="round" stroke-linejoin="miter"/><path d="M73.76667,80.1375c0,-3.08359 2.49974,-5.58333 5.58333,-5.58333c3.08359,0 5.58333,2.49974 5.58333,5.58333c0,3.08359 -2.49974,5.58333 -5.58333,5.58333c-3.08359,0 -5.58333,-2.49974 -5.58333,-5.58333z" fill="none" stroke="#000000" stroke-width="1.5" stroke-linecap="butt" stroke-linejoin="miter"/><path d="M78.96,83.7325v-3.8h0.7v3.8z" fill="#000000" stroke="#000000" stroke-width="1.5" stroke-linecap="butt" stroke-linejoin="miter"/><path d="M77.76,77.2325c0,-0.82843 0.67157,-1.5 1.5,-1.5c0.82843,0 1.5,0.67157 1.5,1.5c0,0.82843 -0.67157,1.5 -1.5,1.5c-0.82843,0 -1.5,-0.67157 -1.5,-1.5z" fill="#000000" stroke="none" stroke-width="0.5" stroke-linecap="butt" stroke-linejoin="miter"/><text transform="translate(87.34335,82.98166) scale(0.23564,0.23564)" font-size="40" xml:space="preserve" fill="#000000" fill-rule="nonzero" stroke="none" stroke-width="1" stroke-linecap="butt" stroke-linejoin="miter" stroke-miterlimit="10" stroke-dasharray="" stroke-dashoffset="0" font-family="Sans Serif" font-weight="normal" text-anchor="start" style="mix-blend-mode: normal"><tspan x="0" dy="0">Информация</tspan></text><text transform="translate(118.7193,182.33133) scale(0.63564,0.63564)" font-size="40" xml:space="preserve" fill="#000000" fill-rule="nonzero" stroke="none" stroke-width="1" stroke-linecap="butt" stroke-linejoin="miter" stroke-miterlimit="10" stroke-dasharray="" stroke-dashoffset="0" font-family="Sans Serif" font-weight="normal" text-anchor="start" style="mix-blend-mode: normal"><tspan x="0" dy="0">  Аккаунт учителя</tspan><tspan x="0" dy="46.150000000000006px">время от времени</tspan><tspan x="0" dy="46.150000000000006px"> создаёт аккаунты</tspan><tspan x="0" dy="46.150000000000006px">         учеников</tspan></text><g><g stroke="#000000" stroke-width="2.5"><path d="M177.70425,143.85358c0,4.7831 -3.87922,8.66131 -8.66131,8.66131h-40.17794c-4.7831,0 -8.66031,-3.87922 -8.66031,-8.66131v-37.70817c0,-4.7831 3.87721,-8.66031 8.66031,-8.66031h40.17694c4.78512,0 8.66131,3.87721 8.66131,8.66031v37.70817z" fill="url(#color-1)" stroke-linecap="butt" stroke-linejoin="miter"/><path d="M134.94569,140.00979v-26.61667c0,-2.24162 0,-3.36326 0.43626,-4.21944c0.38372,-0.75313 0.99558,-1.36499 1.74872,-1.74872c0.85618,-0.43626 1.97782,-0.43626 4.21944,-0.43626h18.41153c1.1207,0 1.68206,0 2.11012,0.21812c0.37643,0.19188 0.68083,0.49782 0.87255,0.87436c0.21814,0.4281 0.21894,0.98891 0.21894,2.10973v23.61479c0,1.1207 -0.0008,1.68045 -0.21894,2.10852c-0.19172,0.37664 -0.49571,0.68344 -0.87215,0.87535c-0.42767,0.21794 -0.98821,0.21794 -2.10692,0.21794h-20.31672c-2.48684,0 -4.50281,2.01607 -4.50281,4.50281c0,0.82892 0.672,1.50094 1.50094,1.50094h21.31735c1.1187,0 1.67925,0 2.10692,-0.21794c0.37643,-0.19192 0.68042,-0.49851 0.87215,-0.87515c0.21814,-0.42807 0.21894,-0.98802 0.21894,-2.10892v-2.80176" fill="none" stroke-linecap="round" stroke-linejoin="round"/></g><text transform="translate(186.00967,135.48009) scale(0.75982,0.75982)" font-size="40" xml:space="preserve" fill="#000000" fill-rule="nonzero" stroke="none" stroke-width="1" stroke-linecap="butt" stroke-linejoin="miter" stroke-miterlimit="10" stroke-dasharray="" stroke-dashoffset="0" font-family="Sans Serif" font-weight="normal" text-anchor="start" style="mix-blend-mode: normal"><tspan x="0" dy="0">Учителя.txt</tspan></text></g></g></g></svg>