<svg version="1.1" xmlns="http://www.w3.org/2000/svg" xmlns:xlink="http://www.w3.org/1999/xlink" width="570.88088" height="410.8344" viewBox="0,0,570.88088,410.8344"><g transform="translate(90.14277,50.30726)"><g data-paper-data="{&quot;isPaintingLayer&quot;:true}" fill-rule="nonzero" stroke-linejoin="miter" stroke-miterlimit="10" stroke-dasharray="" stroke-dashoffset="0" style="mix-blend-mode: normal"><path d="M61.48291,134.52606v-32.60186h34.19999v32.60186z" fill-opacity="0.30196" fill="#00c8ff" stroke="none" stroke-width="0" stroke-linecap="butt"/><path d="M252.61933,156.89989v-49.22242h50.82055v49.22242z" fill-opacity="0.30196" fill="#00c8ff" stroke="none" stroke-width="0" stroke-linecap="butt"/><path d="M45.5016,358.48227v-72.2355h32.28224v72.2355z" fill-opacity="0.30196" fill="#00c8ff" stroke="none" stroke-width="0" stroke-linecap="butt"/><path d="M404.76137,221.1448v-30.36448h73.83363v30.36448z" fill-opacity="0.30196" fill="#00c8ff" stroke="none" stroke-width="0" stroke-linecap="butt"/><path d="M218.0997,285.51509v-35.44999h54.65607v35.44999z" fill-opacity="0.30196" fill="#00c8ff" stroke="none" stroke-width="0" stroke-linecap="butt"/><path d="M228.45079,120.5577h-103.10142v-2.31493h103.10142z" fill="#00c9ff" stroke="#00c9ff" stroke-width="1.5" stroke-linecap="butt"/><path d="" data-paper-data="{&quot;index&quot;:null}" fill="#0a00ff" stroke="#0a00ff" stroke-width="1.5" stroke-linecap="butt"/><path d="M228.65081,43.55767h-134.38713v-2.31493h134.38713z" fill="#00c9ff" stroke="#00c9ff" stroke-width="1.5" stroke-linecap="butt"/><path d="M226.24938,157.85279v-116.31285h2.31493v116.31285z" fill="#00c9ff" stroke="#00c9ff" stroke-width="1.5" stroke-linecap="butt"/><path d="M251.29697,157.69179v-116.31285h2.31493v116.31285z" fill="#00c9ff" stroke="#00c9ff" stroke-width="1.5" stroke-linecap="butt"/><path d="M286.45072,-47.24232h-92.90142v-2.31493h92.90142z" fill="#00c9ff" stroke="#00c9ff" stroke-width="1.5" stroke-linecap="butt"/><path d="M195.75755,-49.45048v92.90142h-2.31493v-92.90142z" fill="#00c9ff" stroke="#00c9ff" stroke-width="1.5" stroke-linecap="butt"/><path d="M286.55746,-49.45048v92.90142h-2.31493v-92.90142z" fill="#00c9ff" stroke="#00c9ff" stroke-width="1.5" stroke-linecap="butt"/><path d="M479.16509,43.55767h-227.41571v-2.31493h227.41571z" fill="#00c9ff" stroke="#00c9ff" stroke-width="1.5" stroke-linecap="butt"/><path d="M228.45079,157.95764h-35.30142v-2.31493h35.30142z" fill="#00c9ff" stroke="#00c9ff" stroke-width="1.5" stroke-linecap="butt"/><path d="M161.75752,118.3495v68.90142h-2.31493v-68.90142z" fill="#00c9ff" stroke="#00c9ff" stroke-width="1.5" stroke-linecap="butt"/><path d="M228.45079,187.15778h-68.90142v-2.31493h68.90142z" fill="#00c9ff" stroke="#00c9ff" stroke-width="1.5" stroke-linecap="butt"/><path d="M94.11604,71.6539v-30.11394h2.31493v30.11394z" fill="#00c9ff" stroke="#00c9ff" stroke-width="1.5" stroke-linecap="butt"/><path d="M125.31604,212.11482v-151.77475h2.31493v151.77475z" fill="#00c9ff" stroke="#00c9ff" stroke-width="1.5" stroke-linecap="butt"/><path d="M155.74456,101.99578v-59.65571h2.31493v59.65571z" fill="#00c9ff" stroke="#00c9ff" stroke-width="1.5" stroke-linecap="butt"/><path d="M190.81604,118.99578v-76.5307h2.31493v76.53071z" fill="#00c9ff" stroke="#00c9ff" stroke-width="1.5" stroke-linecap="butt"/><path d="M94.11604,211.88175v-110.74158h2.31493v110.74158z" fill="#00c9ff" stroke="#00c9ff" stroke-width="1.5" stroke-linecap="butt"/><path d="M96.4508,103.15768h-35.10142v-2.31493h35.10142z" fill="#00c9ff" stroke="#00c9ff" stroke-width="1.5" stroke-linecap="butt"/><path d="M96.4508,43.55767h-95.28142v-2.31493h95.28142z" fill="#00c9ff" stroke="#00c9ff" stroke-width="1.5" stroke-linecap="butt"/><path d="M61.31604,250.33872v-208.59856h2.31493v208.59856z" fill="#00c9ff" stroke="#00c9ff" stroke-width="1.5" stroke-linecap="butt"/><path d="M96.4508,250.43871h-35.10142v-2.31493h35.10142z" fill="#00c9ff" stroke="#00c9ff" stroke-width="1.5" stroke-linecap="butt"/><path d="M319.49834,80.80751h-66.64904v-2.31493h66.64904z" fill="#00c9ff" stroke="#00c9ff" stroke-width="1.5" stroke-linecap="butt"/><path d="M381.15412,109.27912v-67.90015h2.31493v67.90016z" fill="#00c9ff" stroke="#00c9ff" stroke-width="1.5" stroke-linecap="butt"/><path d="M451.62938,80.80751h-103.70857v-2.31493h103.70857z" fill="#00c9ff" stroke="#00c9ff" stroke-width="1.5" stroke-linecap="butt"/><path d="M125.31604,358.92002v-74.50844h2.31493v74.50844z" fill="#00c9ff" stroke="#00c9ff" stroke-width="1.5" stroke-linecap="butt"/><path d="M305.32572,250.43866h-145.97642v-2.31493h145.97642z" fill="#00c9ff" stroke="#00c9ff" stroke-width="1.5" stroke-linecap="butt"/><path d="M479.2008,359.18872h-478.17285v-2.31493h478.17285z" fill="#00c9ff" stroke="#00c9ff" stroke-width="1.5" stroke-linecap="butt"/><path d="M1.17311,357.67205v-164.61838l2.31493,0.00661v164.61176z" fill="#00c9ff" stroke="#00c9ff" stroke-width="1.5" stroke-linecap="butt"/><path d="M1.17311,41.74008h2.31493v125.35942c-0.77165,0.00013 -1.54331,0.00334 -2.31493,0.00958z" fill="#00c9ff" stroke="#00c9ff" stroke-width="1.5" stroke-linecap="butt"/><path d="M44.72376,359.30752v-73.75392h2.31493v73.75392z" fill="#00c9ff" stroke="#00c9ff" stroke-width="1.5" stroke-linecap="butt"/><path d="M79.77214,286.66544h-35.04343v-2.31493h35.04343z" fill="#00c9ff" stroke="#00c9ff" stroke-width="1.5" stroke-linecap="butt"/><path d="M77.46358,359.77715v-73.86363h2.31493v73.86363z" fill="#00c9ff" stroke="#00c9ff" stroke-width="1.5" stroke-linecap="butt"/><path d="M30.89938,250.67196v-55.59856h2.31493v55.59856z" fill="#00c9ff" stroke="#00c9ff" stroke-width="1.5" stroke-linecap="butt"/><path d="M96.4508,135.49087h-35.10142v-2.31493h35.10142z" fill="#00c9ff" stroke="#00c9ff" stroke-width="1.5" stroke-linecap="butt"/><path d="M33.27218,195.35531h-32.09212c0.00496,-0.77154 0.00721,-1.54314 0.00823,-2.31493h32.08389z" fill="#00c9ff" stroke="#00c9ff" stroke-width="1.5" stroke-linecap="butt"/><path d="M31.03229,166.58847v-85.76523h2.31493v85.76523z" data-paper-data="{&quot;index&quot;:null}" fill="#00c9ff" stroke="#00c9ff" stroke-width="1.5" stroke-linecap="butt"/><path d="M30.97438,78.79038h32.04785v2.31493h-32.04785z" data-paper-data="{&quot;index&quot;:null}" fill="#00c9ff" stroke="#00c9ff" stroke-width="1.5" stroke-linecap="butt"/><path d="M477.67319,357.67205v-315.93189h2.31493v315.93189z" fill="#00c9ff" stroke="#00c9ff" stroke-width="1.5" stroke-linecap="butt"/><path d="M221.82579,286.65756h-96.51253v-2.31493h96.51253z" fill="#00c9ff" stroke="#00c9ff" stroke-width="1.5" stroke-linecap="butt"/><path d="M221.82579,322.05755h-96.40142v-2.31493h96.40142z" fill="#00c9ff" stroke="#00c9ff" stroke-width="1.5" stroke-linecap="butt"/><path d="M303.16238,322.44795v-91.8079h2.31493v91.8079z" fill="#00c9ff" stroke="#00c9ff" stroke-width="1.5" stroke-linecap="butt"/><path d="M272.1855,322.44795v-74.05236h2.31493v74.05236z" fill="#00c9ff" stroke="#00c9ff" stroke-width="1.5" stroke-linecap="butt"/><path d="M221.55035,284.34263h51.21467v2.31493h-51.21467z" fill="#00c9ff" stroke="#00c9ff" stroke-width="1.5" stroke-linecap="butt"/><path d="M437.84602,157.95764h-186.59293v-2.31493h186.59293z" fill="#00c9ff" stroke="#00c9ff" stroke-width="1.5" stroke-linecap="butt"/><path d="M303.16238,191.68022v-85.07178h2.31493v85.07179z" fill="#00c9ff" stroke="#00c9ff" stroke-width="1.5" stroke-linecap="butt"/><path d="M304.44597,108.9259h-53.19293v-2.31493h53.19293z" fill="#00c9ff" stroke="#00c9ff" stroke-width="1.5" stroke-linecap="butt"/><path d="M477.22938,109.60766h-35.10857v-2.31493h35.10857z" fill="#00c9ff" stroke="#00c9ff" stroke-width="1.5" stroke-linecap="butt"/><path d="M361.09603,191.70771h-57.84293v-2.31493h57.84293z" fill="#00c9ff" stroke="#00c9ff" stroke-width="1.5" stroke-linecap="butt"/><path d="M477.7627,191.70771h-73.84293v-2.31493h73.84293z" fill="#00c9ff" stroke="#00c9ff" stroke-width="1.5" stroke-linecap="butt"/><path d="M477.7627,222.45773h-73.84293v-2.31493h73.84293z" fill="#00c9ff" stroke="#00c9ff" stroke-width="1.5" stroke-linecap="butt"/><path d="M403.90786,322.55093v-131.90542h2.31493v131.90542z" fill="#00c9ff" stroke="#00c9ff" stroke-width="1.5" stroke-linecap="butt"/><path d="M477.7627,259.12424h-34.31793v-2.31493h34.31793z" fill="#00c9ff" stroke="#00c9ff" stroke-width="1.5" stroke-linecap="butt"/><path d="M440.50785,322.75095v-65.90542h2.31493v65.90542z" fill="#00c9ff" stroke="#00c9ff" stroke-width="1.5" stroke-linecap="butt"/><path d="M337.4987,304.74595v52.49195h-2.31493v-52.49195z" fill="#00c9ff" stroke="#00c9ff" stroke-width="1.5" stroke-linecap="butt"/><path d="M374.78108,357.15107v-52.49195h2.31493v52.49195z" fill="#00c9ff" stroke="#00c9ff" stroke-width="1.5" stroke-linecap="butt"/><path d="M218.06053,286.32295v-37.92736h2.31493v37.92736z" fill="#00c9ff" stroke="#00c9ff" stroke-width="1.5" stroke-linecap="butt"/><path d="M192.20023,119.63152v-77.01151h34.69208v77.01151z" fill-opacity="0.30196" fill="#00c8ff" stroke="none" stroke-width="NaN" stroke-linecap="butt"/><text transform="translate(216.48609,116.17558) rotate(-90) scale(0.47057,0.47057)" font-size="40" xml:space="preserve" fill="#00c9ff" fill-rule="nonzero" stroke="none" stroke-width="1" stroke-linecap="butt" stroke-linejoin="miter" stroke-miterlimit="10" stroke-dasharray="" stroke-dashoffset="0" font-family="Sans Serif" font-weight="normal" text-anchor="start" style="mix-blend-mode: normal"><tspan x="0" dy="0">&lt;/html&gt;</tspan></text><text transform="translate(222.25485,277.6616) scale(0.79285,0.79285)" font-size="40" xml:space="preserve" fill="#00c8ff" fill-rule="nonzero" stroke="none" stroke-width="1" stroke-linecap="butt" stroke-linejoin="miter" stroke-miterlimit="10" stroke-dasharray="" stroke-dashoffset="0" font-family="Sans Serif" font-weight="normal" text-anchor="start" style="mix-blend-mode: normal"><tspan x="0" dy="0">&lt;/&gt;</tspan></text><text transform="translate(414.98941,213.07629) scale(0.58986,0.58986)" font-size="40" xml:space="preserve" fill="#00c8ff" fill-rule="nonzero" stroke="none" stroke-width="1" stroke-linecap="butt" stroke-linejoin="miter" stroke-miterlimit="10" stroke-dasharray="" stroke-dashoffset="0" font-family="Sans Serif" font-weight="normal" text-anchor="start" style="mix-blend-mode: normal"><tspan x="0" dy="0">JSON</tspan></text><text transform="translate(67.11245,356.1728) rotate(-90) scale(0.45144,0.45144)" font-size="40" xml:space="preserve" fill="#00c9ff" fill-rule="nonzero" stroke="none" stroke-width="1" stroke-linecap="butt" stroke-linejoin="miter" stroke-miterlimit="10" stroke-dasharray="" stroke-dashoffset="0" font-family="Sans Serif" font-weight="normal" text-anchor="start" style="mix-blend-mode: normal"><tspan x="0" dy="0">student</tspan></text><text transform="translate(256.77441,140.37312) scale(0.63038,0.63038)" font-size="40" xml:space="preserve" fill="#00c8ff" fill-rule="nonzero" stroke="none" stroke-width="1" stroke-linecap="butt" stroke-linejoin="miter" stroke-miterlimit="10" stroke-dasharray="" stroke-dashoffset="0" font-family="Sans Serif" font-weight="normal" text-anchor="start" style="mix-blend-mode: normal"><tspan x="0" dy="0">404</tspan></text><text transform="translate(66.59687,132.95694) scale(1.05155,1.05155)" font-size="40" xml:space="preserve" fill="#00c8ff" fill-rule="nonzero" stroke="none" stroke-width="1" stroke-linecap="butt" stroke-linejoin="miter" stroke-miterlimit="10" stroke-dasharray="" stroke-dashoffset="0" font-family="Sans Serif" font-weight="normal" text-anchor="start" style="mix-blend-mode: normal"><tspan x="0" dy="0">+</tspan></text><g stroke-linecap="butt"><path d="M377.09603,232.95773h-41.84293v-2.31493h41.84293z" fill="#00c9ff" stroke="#00c9ff" stroke-width="1.5"/><path d="M374.78108,272.48555v-41.84293h2.31493v41.84293z" fill="#00c9ff" stroke="#00c9ff" stroke-width="1.5"/><g><path d="M337.00064,270.49271v-38.35513h39.95326v38.35513z" fill-opacity="0.30196" fill="#00c8ff" stroke="none" stroke-width="0"/><path d="M337.4987,230.71212v41.84293h-2.31493v-41.84293z" fill="#00c9ff" stroke="#00c9ff" stroke-width="1.5"/><path d="M335.1837,270.24004h41.84293v2.31493h-41.84293z" fill="#00c9ff" stroke="#00c9ff" stroke-width="1.5"/><text transform="translate(342.75391,262.29358) scale(0.712,0.712)" font-size="40" xml:space="preserve" fill="#00c9ff" fill-rule="nonzero" stroke="none" stroke-width="1" stroke-linecap="butt" stroke-linejoin="miter" stroke-miterlimit="10" stroke-dasharray="" stroke-dashoffset="0" font-family="Sans Serif" font-weight="normal" text-anchor="start" style="mix-blend-mode: normal"><tspan x="0" dy="0">Id</tspan></text></g></g><path d="M-89.89277,20.6072l2,-10" fill="none" stroke-opacity="0.01569" stroke="#009cff" stroke-width="0.5" stroke-linecap="round"/></g></g></svg>