<svg version="1.1" xmlns="http://www.w3.org/2000/svg" xmlns:xlink="http://www.w3.org/1999/xlink" width="387.96667" height="51.06546" viewBox="0,0,387.96667,51.06546"><defs><linearGradient x1="6.90223" y1="179.93873" x2="55.95335" y2="179.93873" gradientUnits="userSpaceOnUse" id="color-1"><stop offset="0" stop-color="#35eb29"/><stop offset="1" stop-color="#dceb3d"/></linearGradient></defs><g transform="translate(1.88046,-153.59538)"><g data-paper-data="{&quot;isPaintingLayer&quot;:true}" fill-rule="nonzero" stroke-linecap="butt" stroke-linejoin="miter" stroke-miterlimit="10" stroke-dasharray="" stroke-dashoffset="0" style="mix-blend-mode: normal"><path d="M-1.88045,204.3477v-49.49369h387.96667v49.49369z" fill="#3c3f41" stroke="none" stroke-width="0"/><g stroke="#000000"><path d="M55.95335,196.02213c0,4.08032 -3.30925,7.38871 -7.38871,7.38871h-34.27459c-4.08032,0 -7.38785,-3.30925 -7.38785,-7.38871v-32.1677c0,-4.08032 3.30753,-7.38785 7.38785,-7.38785h34.27373c4.08204,0 7.38871,3.30753 7.38871,7.38785v32.1677z" fill="url(#color-1)" stroke-width="2.5"/><g data-paper-data="{&quot;index&quot;:null}" fill="none" stroke-width="2"><path d="M15.83115,161.94446h15.51082v15.0455l-4.5139,-4.37848c0,0 -1.92801,1.32205 -2.94381,2.91185c-0.8037,1.25786 -1.41243,4.23513 -1.41243,4.23513l-9.01949,0.02353c0,0 -0.17951,-3.58568 1.46,-7.09774c1.44241,-3.08983 4.9596,-6.82022 4.9596,-6.82022z"/><path d="M49.40899,164.30011v15.51082h-15.0455l4.37848,-4.5139c0,0 -1.32205,-1.92801 -2.91185,-2.94381c-1.25786,-0.8037 -4.23513,-1.41243 -4.23513,-1.41243l-0.02353,-9.01949c0,0 3.58568,-0.17951 7.09774,1.46c3.08983,1.44241 6.82022,4.9596 6.82022,4.9596z"/><path d="M13.4755,195.21208v-15.51082h15.0455l-4.37848,4.5139c0,0 1.8893,4.56506 7.02314,4.55709c6.41053,-0.00996 8.10675,-4.54389 8.10675,-4.54389l6.43467,6.55844c0,0 -3.98725,7.3145 -14.58378,7.17309c-9.1292,-0.12183 -13.72822,-6.78862 -13.72822,-6.78862z"/></g></g><text transform="translate(62.83528,191.99775) scale(0.89516,0.89516)" font-size="40" xml:space="preserve" fill="#d1d1d1" fill-rule="nonzero" stroke="none" stroke-width="1" stroke-linecap="butt" stroke-linejoin="miter" stroke-miterlimit="10" stroke-dasharray="" stroke-dashoffset="0" font-family="Sans Serif" font-weight="normal" text-anchor="start" style="mix-blend-mode: normal"><tspan x="0" dy="0">Обход reCAPTCHA</tspan></text></g></g></svg>