<svg version="1.1" xmlns="http://www.w3.org/2000/svg" xmlns:xlink="http://www.w3.org/1999/xlink" width="401.5" height="257.40063" viewBox="0,0,401.5,257.40063"><defs><linearGradient x1="51.42992" y1="106.00001" x2="96.09873" y2="106.00001" gradientUnits="userSpaceOnUse" id="color-1"><stop offset="0" stop-color="#35eb29"/><stop offset="1" stop-color="#dceb3d"/></linearGradient></defs><g transform="translate(-39.25,-51.29968)"><g data-paper-data="{&quot;isPaintingLayer&quot;:true}" fill-rule="nonzero" stroke-linejoin="miter" stroke-miterlimit="10" stroke-dasharray="" stroke-dashoffset="0" style="mix-blend-mode: normal"><path d="M40,307.95031v-255.90063h400v255.90063z" fill="#3c3f41" stroke="#bbbbbb" stroke-width="1.5" stroke-linecap="butt"/><path d="M439.88201,72.42625h-399.41003" fill="none" stroke="#bbbbbb" stroke-width="1.5" stroke-linecap="round"/><path d="M421.63225,68.16617l11.4061,-11.4061" fill="none" stroke="#bbbbbb" stroke-width="1.5" stroke-linecap="round"/><path d="M433.03835,68.16617l-11.4061,-11.4061" data-paper-data="{&quot;index&quot;:null}" fill="none" stroke="#bbbbbb" stroke-width="1.5" stroke-linecap="round"/><path d="M414.21829,72.42625v-19.46903" fill="none" stroke="#bbbbbb" stroke-width="1.5" stroke-linecap="round"/><path d="M43.85448,62.16814c0,-3.63845 2.94955,-6.588 6.588,-6.588c3.63845,0 6.588,2.94955 6.588,6.588c0,3.63845 -2.94955,6.588 -6.588,6.588c-3.63845,0 -6.588,-2.94955 -6.588,-6.588z" fill="none" stroke="#bbbbbb" stroke-width="1.5" stroke-linecap="butt"/><path d="M49.9823,66.41003v-4.48378h0.82596v4.48378z" fill="#bbbbbb" stroke="#bbbbbb" stroke-width="1.5" stroke-linecap="butt"/><path d="M48.56637,58.74041c0,-0.9775 0.79241,-1.76991 1.76991,-1.76991c0.9775,0 1.76991,0.79241 1.76991,1.76991c0,0.9775 -0.79241,1.76991 -1.76991,1.76991c-0.9775,0 -1.76991,-0.79241 -1.76991,-1.76991z" fill="#bbbbbb" stroke="none" stroke-width="0.5" stroke-linecap="butt"/><text transform="translate(59.87416,65.52408) scale(0.27804,0.27804)" font-size="40" xml:space="preserve" fill="#bbbbbb" fill-rule="nonzero" stroke="none" stroke-width="1" stroke-linecap="butt" stroke-linejoin="miter" stroke-miterlimit="10" stroke-dasharray="" stroke-dashoffset="0" font-family="Sans Serif" font-weight="normal" text-anchor="start" style="mix-blend-mode: normal"><tspan x="0" dy="0">Описание проекта</tspan></text><text transform="translate(75.12077,179.4301) scale(0.96988,0.96988)" font-size="40" xml:space="preserve" fill="#bbbbbb" fill-rule="nonzero" stroke="none" stroke-width="1" stroke-linecap="butt" stroke-linejoin="miter" stroke-miterlimit="10" stroke-dasharray="" stroke-dashoffset="0" font-family="Sans Serif" font-weight="normal" text-anchor="start" style="mix-blend-mode: normal"><tspan x="0" dy="0">Помогает искать</tspan><tspan x="0" dy="46.150000000000006px">сложные логины</tspan><tspan x="0" dy="46.150000000000006px">   для аккаунтов</tspan></text><g stroke-linecap="butt"><g stroke="#000000" stroke-width="2.5"><path d="M96.09873,120.6465c0,3.71578 -3.0136,6.72859 -6.72859,6.72859h-31.21244c-3.71578,0 -6.72781,-3.0136 -6.72781,-6.72859v-29.29378c0,-3.71578 3.01203,-6.72781 6.72781,-6.72781h31.21166c3.71734,0 6.72859,3.01203 6.72859,6.72781v29.29378z" fill="url(#color-1)"/><g fill="none"><path d="M72.17993,111.87219l-10.14606,11.70983c-0.57998,0.6277 -1.3941,0.98705 -2.24871,0.99259c-1.7652,0.03944 -3.22815,-1.35956 -3.2676,-3.12476c-0.03265,-0.854 0.28998,-1.68336 0.89115,-2.2908l10.2177,-11.08696z"/><path d="M68.46479,100.23271c0,-4.97864 4.03598,-9.01463 9.01463,-9.01463c4.97864,0 9.01463,4.03598 9.01463,9.01463c0,4.97864 -4.03598,9.01463 -9.01463,9.01463c-4.97864,0 -9.01463,-4.03598 -9.01463,-9.01463z"/><path d="M65.19967,100.30369c0,-6.82113 5.52963,-12.35076 12.35076,-12.35076c6.82113,0 12.35076,5.52963 12.35076,12.35076c0,6.82113 -5.52963,12.35076 -12.35076,12.35076c-6.82113,0 -12.35076,-5.52963 -12.35076,-12.35076z"/></g></g><text transform="translate(102.3658,116.74427) scale(0.81518,0.81518)" font-size="40" xml:space="preserve" fill="#d1d1d1" fill-rule="nonzero" stroke="none" stroke-width="1" stroke-linecap="butt" stroke-linejoin="miter" stroke-miterlimit="10" stroke-dasharray="" stroke-dashoffset="0" font-family="Sans Serif" font-weight="normal" text-anchor="start" style="mix-blend-mode: normal"><tspan x="0" dy="0">Поисковик Логинов</tspan></text></g></g></g></svg>