<svg version="1.1" xmlns="http://www.w3.org/2000/svg" xmlns:xlink="http://www.w3.org/1999/xlink" width="63.5" height="63.5" viewBox="0,0,63.5,63.5"><g transform="translate(-208.25,-148.25)"><g data-paper-data="{&quot;isPaintingLayer&quot;:true}" fill-rule="nonzero" stroke-linejoin="miter" stroke-miterlimit="10" stroke-dasharray="" stroke-dashoffset="0" style="mix-blend-mode: normal"><path d="M209.75,180c0,-16.70661 13.54339,-30.25 30.25,-30.25c16.70661,0 30.25,13.54339 30.25,30.25c0,16.70661 -13.54339,30.25 -30.25,30.25c-16.70661,0 -30.25,-13.54339 -30.25,-30.25z" fill="#000000" stroke="#ffffff" stroke-width="3" stroke-linecap="butt"/><path d="M211.125,180h4.1" fill="none" stroke="#ffffff" stroke-width="3" stroke-linecap="round"/><path d="M264.725,180h4.1" fill="none" stroke="#ffffff" stroke-width="3" stroke-linecap="round"/><path d="M239.975,208.85v-4.1" fill="none" stroke="#ffffff" stroke-width="3" stroke-linecap="round"/><path d="M239.975,151.15v4.1" fill="none" stroke="#ffffff" stroke-width="3" stroke-linecap="round"/><path d="M219.57497,200.40003l2.89914,-2.89914" fill="none" stroke="#ffffff" stroke-width="3" stroke-linecap="round"/><path d="M257.47589,162.49911l2.89914,-2.89914" fill="none" stroke="#ffffff" stroke-width="3" stroke-linecap="round"/><path d="M260.37503,200.40003l-2.89914,-2.89914" fill="none" stroke="#ffffff" stroke-width="3" stroke-linecap="round"/><path d="M222.47411,162.49911l-2.89914,-2.89914" fill="none" stroke="#ffffff" stroke-width="3" stroke-linecap="round"/><path d="M245.57373,174.39558l0.68865,4.28227l-21.79841,16.90816l16.86634,-21.84023z" data-paper-data="{&quot;index&quot;:null}" fill="#ffffff" stroke="none" stroke-width="0" stroke-linecap="butt"/></g></g></svg>