<svg version="1.1" xmlns="http://www.w3.org/2000/svg" xmlns:xlink="http://www.w3.org/1999/xlink" width="147.66984" height="107.5221" viewBox="0,0,147.66984,107.5221"><defs><linearGradient x1="240.95238" y1="195.8208" x2="240.95238" y2="221.08396" gradientUnits="userSpaceOnUse" id="color-1"><stop offset="0" stop-color="#b93ac9" stop-opacity="0.50196"/><stop offset="1" stop-color="#833be0"/></linearGradient><linearGradient x1="240.95238" y1="195.8208" x2="240.95238" y2="208.54481" gradientUnits="userSpaceOnUse" id="color-2"><stop offset="0" stop-color="#a357de" stop-opacity="0"/><stop offset="1" stop-color="#a357de" stop-opacity="0.25098"/></linearGradient><linearGradient x1="240.95238" y1="221.04708" x2="240.95238" y2="208.54481" gradientUnits="userSpaceOnUse" id="color-3"><stop offset="0" stop-color="#a357de" stop-opacity="0"/><stop offset="1" stop-color="#a357de" stop-opacity="0.25098"/></linearGradient><linearGradient x1="240" y1="147.43959" x2="240" y2="195.65053" gradientUnits="userSpaceOnUse" id="color-4"><stop offset="0" stop-color="#ffa859"/><stop offset="1" stop-color="#e0ff5e"/></linearGradient><linearGradient x1="240" y1="147.43959" x2="240" y2="171.72144" gradientUnits="userSpaceOnUse" id="color-5"><stop offset="0" stop-color="#debc92" stop-opacity="0"/><stop offset="1" stop-color="#debc92"/></linearGradient><linearGradient x1="240" y1="195.58015" x2="240" y2="171.72144" gradientUnits="userSpaceOnUse" id="color-6"><stop offset="0" stop-color="#debc92" stop-opacity="0"/><stop offset="1" stop-color="#debc92"/></linearGradient></defs><g transform="translate(-166.16508,-136.39124)"><g data-paper-data="{&quot;isPaintingLayer&quot;:true}" fill-rule="nonzero" stroke-linecap="butt" stroke-linejoin="miter" stroke-miterlimit="10" stroke-dasharray="" stroke-dashoffset="0" style="mix-blend-mode: normal"><path d="M166.16508,243.91335v-107.5221h147.66984v107.5221z" fill="#ffffff" stroke="none" stroke-width="0"/><path d="M172,220.75v-81.5h136v81.5z" fill="#004967" stroke="none" stroke-width="0"/><text transform="translate(167.29985,234.30432) scale(0.26565,0.26565)" font-size="40" xml:space="preserve" fill="#000000" fill-rule="nonzero" stroke="#000000" stroke-width="1" stroke-linecap="butt" stroke-linejoin="miter" stroke-miterlimit="10" stroke-dasharray="" stroke-dashoffset="0" font-family="Sans Serif" font-weight="normal" text-anchor="start" style="mix-blend-mode: normal"><tspan x="0" dy="0">Легендарное возвращение</tspan></text><g><g fill="none" stroke="none" stroke-width="1" font-family="sans-serif" font-weight="normal" font-size="12" text-anchor="start"/><path d="M176.80011,207.1417c0,-4.16761 3.37852,-7.54613 7.54613,-7.54613c4.16761,0 7.54613,3.37852 7.54613,7.54613c0,4.16761 -3.37852,7.54613 -7.54613,7.54613c-4.16761,0 -7.54613,-3.37852 -7.54613,-7.54613z" fill="#c89bec" stroke="#000000" stroke-width="0"/><path d="M175.17154,206.85492c0,-0.85015 0.68918,-1.53933 1.53933,-1.53933c0.85015,0 1.53933,0.68918 1.53933,1.53933c0,0.85015 -0.68918,1.53933 -1.53933,1.53933c-0.85015,0 -1.53933,-0.68918 -1.53933,-1.53933z" fill="#c89bec" stroke="none" stroke-width="0"/><path d="M190.33269,206.85492c0,-0.85015 0.68918,-1.53933 1.53933,-1.53933c0.85015,0 1.53933,0.68918 1.53933,1.53933c0,0.85015 -0.68918,1.53933 -1.53933,1.53933c-0.85015,0 -1.53933,-0.68918 -1.53933,-1.53933z" fill="#c89bec" stroke="none" stroke-width="0"/><path d="M175.64671,218.26516c1.19415,-1.3908 4.58832,-2.47541 8.48025,-2.47541c3.43403,0 6.24896,0.53714 8.10015,1.90892c1.64229,1.21698 2.19172,2.39857 2.37883,3.06322c-6.88543,-0.03661 -13.77104,0.01148 -20.65663,0.01524c0.30355,-0.9117 1.00682,-1.70765 1.69741,-2.51197z" fill="#c89bec" stroke="#000000" stroke-width="0"/><path d="M186.61392,215.92336l-4.53287,-0.02334c0,0 0.01224,-0.67035 -0.14868,-0.94235c-0.21818,-0.36876 -0.65359,-0.9763 -0.65359,-0.9763l6.15676,0.04668c0,0 -0.53435,0.60563 -0.65602,0.92805c-0.12707,0.33673 -0.16559,0.96726 -0.16559,0.96726z" fill="#c89bec" stroke="#000000" stroke-width="0"/></g><g><g fill="none" stroke="none" stroke-width="1" font-family="sans-serif" font-weight="normal" font-size="12" text-anchor="start"/><path d="M201.61492,212.69726c0,-4.16761 3.37852,-7.54613 7.54613,-7.54613c4.16761,0 7.54613,3.37852 7.54613,7.54613c0,4.16761 -3.37852,7.54613 -7.54613,7.54613c-4.16761,0 -7.54613,-3.37852 -7.54613,-7.54613z" fill="#c89bec" stroke="#000000" stroke-width="0"/><path d="M199.98635,212.41047c0,-0.85015 0.68918,-1.53933 1.53933,-1.53933c0.85015,0 1.53933,0.68918 1.53933,1.53933c0,0.85015 -0.68918,1.53933 -1.53933,1.53933c-0.85015,0 -1.53933,-0.68918 -1.53933,-1.53933z" fill="#c89bec" stroke="none" stroke-width="0"/><path d="M215.14751,212.41047c0,-0.85015 0.68918,-1.53933 1.53933,-1.53933c0.85015,0 1.53933,0.68918 1.53933,1.53933c0,0.85015 -0.68918,1.53933 -1.53933,1.53933c-0.85015,0 -1.53933,-0.68918 -1.53933,-1.53933z" fill="#c89bec" stroke="none" stroke-width="0"/><path d="M208.94177,221.34531c1.70269,0 3.25318,0.13205 4.60945,0.43242c-2.98052,0.01178 -5.96103,0.02526 -8.94154,0.0406c1.29081,-0.29862 2.77143,-0.47302 4.33209,-0.47302z" fill="#c89bec" stroke="#000000" stroke-width="0"/><path d="M211.42874,221.47891l-4.53287,-0.02334c0,0 0.01224,-0.67035 -0.14868,-0.94235c-0.21818,-0.36876 -0.65359,-0.9763 -0.65359,-0.9763l6.15676,0.04668c0,0 -0.53435,0.60563 -0.65602,0.92805c-0.12707,0.33673 -0.16559,0.96726 -0.16559,0.96726z" fill="#c89bec" stroke="#000000" stroke-width="0"/></g><g><g fill="none" stroke="none" stroke-width="1" font-family="sans-serif" font-weight="normal" font-size="12" text-anchor="start"/><path d="M236.05937,211.40096c0,-4.16761 3.37852,-7.54613 7.54613,-7.54613c4.16761,0 7.54613,3.37852 7.54613,7.54613c0,4.16761 -3.37852,7.54613 -7.54613,7.54613c-4.16761,0 -7.54613,-3.37852 -7.54613,-7.54613z" fill="#c89bec" stroke="#000000" stroke-width="0"/><path d="M234.4308,211.11418c0,-0.85015 0.68918,-1.53933 1.53933,-1.53933c0.85015,0 1.53933,0.68918 1.53933,1.53933c0,0.85015 -0.68918,1.53933 -1.53933,1.53933c-0.85015,0 -1.53933,-0.68918 -1.53933,-1.53933z" fill="#c89bec" stroke="none" stroke-width="0"/><path d="M249.59195,211.11418c0,-0.85015 0.68918,-1.53933 1.53933,-1.53933c0.85015,0 1.53933,0.68918 1.53933,1.53933c0,0.85015 -0.68918,1.53933 -1.53933,1.53933c-0.85015,0 -1.53933,-0.68918 -1.53933,-1.53933z" fill="#c89bec" stroke="none" stroke-width="0"/><path d="M243.38622,220.04901c3.217,0 5.89068,0.47139 7.73771,1.65876c-5.07607,0.00041 -10.15213,0.00385 -15.22818,0.01109c1.60846,-0.98226 4.39169,-1.66985 7.49047,-1.66985z" fill="#c89bec" stroke="#000000" stroke-width="0"/><path d="M245.87318,220.18262l-4.53287,-0.02334c0,0 0.01224,-0.67035 -0.14868,-0.94235c-0.21818,-0.36876 -0.65359,-0.9763 -0.65359,-0.9763l6.15676,0.04668c0,0 -0.53435,0.60563 -0.65602,0.92805c-0.12707,0.33673 -0.16559,0.96726 -0.16559,0.96726z" fill="#c89bec" stroke="#000000" stroke-width="0"/></g><g><g fill="none" stroke="none" stroke-width="1" font-family="sans-serif" font-weight="normal" font-size="12" text-anchor="start"/><path d="M261.98529,211.77133c0,-4.16761 3.37852,-7.54613 7.54613,-7.54613c4.16761,0 7.54613,3.37852 7.54613,7.54613c0,4.16761 -3.37852,7.54613 -7.54613,7.54613c-4.16761,0 -7.54613,-3.37852 -7.54613,-7.54613z" fill="#c89bec" stroke="#000000" stroke-width="0"/><path d="M260.35673,211.48455c0,-0.85015 0.68918,-1.53933 1.53933,-1.53933c0.85015,0 1.53933,0.68918 1.53933,1.53933c0,0.85015 -0.68918,1.53933 -1.53933,1.53933c-0.85015,0 -1.53933,-0.68918 -1.53933,-1.53933z" fill="#c89bec" stroke="none" stroke-width="0"/><path d="M275.51788,211.48455c0,-0.85015 0.68918,-1.53933 1.53933,-1.53933c0.85015,0 1.53933,0.68918 1.53933,1.53933c0,0.85015 -0.68918,1.53933 -1.53933,1.53933c-0.85015,0 -1.53933,-0.68918 -1.53933,-1.53933z" fill="#c89bec" stroke="none" stroke-width="0"/><path d="M269.31214,220.41938c2.87902,0 5.32288,0.37754 7.1285,1.30794c-4.63738,-0.00689 -9.27475,-0.01231 -13.91211,-0.01569c1.65223,-0.77639 4.09954,-1.29224 6.78361,-1.29224z" fill="#c89bec" stroke="#000000" stroke-width="0"/><path d="M271.79911,220.55299l-4.53287,-0.02334c0,0 0.01224,-0.67035 -0.14868,-0.94235c-0.21818,-0.36876 -0.65359,-0.9763 -0.65359,-0.9763l6.15676,0.04668c0,0 -0.53435,0.60563 -0.65602,0.92805c-0.12707,0.33673 -0.16559,0.96726 -0.16559,0.96726z" fill="#c89bec" stroke="#000000" stroke-width="0"/></g><g><g fill="none" stroke="none" stroke-width="1" font-family="sans-serif" font-weight="normal" font-size="12" text-anchor="start"/><path d="M219.20751,211.03059c0,-4.16761 3.37852,-7.54613 7.54613,-7.54613c4.16761,0 7.54613,3.37852 7.54613,7.54613c0,4.16761 -3.37852,7.54613 -7.54613,7.54613c-4.16761,0 -7.54613,-3.37852 -7.54613,-7.54613z" fill="#c89bec" stroke="#000000" stroke-width="0"/><path d="M217.57895,210.74381c0,-0.85015 0.68918,-1.53933 1.53933,-1.53933c0.85015,0 1.53933,0.68918 1.53933,1.53933c0,0.85015 -0.68918,1.53933 -1.53933,1.53933c-0.85015,0 -1.53933,-0.68918 -1.53933,-1.53933z" fill="#c89bec" stroke="none" stroke-width="0"/><path d="M232.7401,210.74381c0,-0.85015 0.68918,-1.53933 1.53933,-1.53933c0.85015,0 1.53933,0.68918 1.53933,1.53933c0,0.85015 -0.68918,1.53933 -1.53933,1.53933c-0.85015,0 -1.53933,-0.68918 -1.53933,-1.53933z" fill="#c89bec" stroke="none" stroke-width="0"/><path d="M226.53437,219.67864c3.43403,0 6.24896,0.53714 8.10015,1.90892c0.05986,0.04436 0.11827,0.08867 0.17526,0.13291c-5.44969,0.00836 -10.89936,0.02117 -16.34902,0.03938c1.44866,-1.19623 4.55806,-2.0812 8.07361,-2.0812z" fill="#c89bec" stroke="#000000" stroke-width="0"/><path d="M229.02133,219.81225l-4.53287,-0.02334c0,0 0.01224,-0.67035 -0.14868,-0.94235c-0.21818,-0.36876 -0.65359,-0.9763 -0.65359,-0.9763l6.15676,0.04668c0,0 -0.53435,0.60563 -0.65602,0.92805c-0.12707,0.33673 -0.16559,0.96726 -0.16559,0.96726z" fill="#c89bec" stroke="#000000" stroke-width="0"/></g><g><g fill="none" stroke="none" stroke-width="1" font-family="sans-serif" font-weight="normal" font-size="12" text-anchor="start"/><path d="M279.20751,207.51207c0,-4.16761 3.37852,-7.54613 7.54613,-7.54613c4.16761,0 7.54613,3.37852 7.54613,7.54613c0,4.16761 -3.37852,7.54613 -7.54613,7.54613c-4.16761,0 -7.54613,-3.37852 -7.54613,-7.54613z" fill="#c89bec" stroke="#000000" stroke-width="0"/><path d="M277.57895,207.22529c0,-0.85015 0.68918,-1.53933 1.53933,-1.53933c0.85015,0 1.53933,0.68918 1.53933,1.53933c0,0.85015 -0.68918,1.53933 -1.53933,1.53933c-0.85015,0 -1.53933,-0.68918 -1.53933,-1.53933z" fill="#c89bec" stroke="none" stroke-width="0"/><path d="M292.7401,207.22529c0,-0.85015 0.68918,-1.53933 1.53933,-1.53933c0.85015,0 1.53933,0.68918 1.53933,1.53933c0,0.85015 -0.68918,1.53933 -1.53933,1.53933c-0.85015,0 -1.53933,-0.68918 -1.53933,-1.53933z" fill="#c89bec" stroke="none" stroke-width="0"/><path d="M278.05412,218.63553c1.19415,-1.3908 4.58832,-2.47541 8.48025,-2.47541c3.43403,0 6.24896,0.53714 8.10015,1.90892c1.64229,1.21698 2.19172,2.39857 2.37883,3.06322c-6.88543,-0.03661 -13.77104,0.01148 -20.65663,0.01524c0.30355,-0.9117 1.00682,-1.70765 1.69741,-2.51197z" fill="#c89bec" stroke="#000000" stroke-width="0"/><path d="M289.02133,216.29373l-4.53287,-0.02334c0,0 0.01224,-0.67035 -0.14868,-0.94235c-0.21818,-0.36876 -0.65359,-0.9763 -0.65359,-0.9763l6.15676,0.04668c0,0 -0.53435,0.60563 -0.65602,0.92805c-0.12707,0.33673 -0.16559,0.96726 -0.16559,0.96726z" fill="#c89bec" stroke="#000000" stroke-width="0"/></g><g><g fill="none" stroke="none" stroke-width="1" font-family="sans-serif" font-weight="normal" font-size="12" text-anchor="start"/><path d="M290.50381,204.54911c0,-4.16761 3.37852,-7.54613 7.54613,-7.54613c4.16761,0 7.54613,3.37852 7.54613,7.54613c0,4.16761 -3.37852,7.54613 -7.54613,7.54613c-4.16761,0 -7.54613,-3.37852 -7.54613,-7.54613z" fill="#c89bec" stroke="#000000" stroke-width="0"/><path d="M288.87524,204.26232c0,-0.85015 0.68918,-1.53933 1.53933,-1.53933c0.85015,0 1.53933,0.68918 1.53933,1.53933c0,0.85015 -0.68918,1.53933 -1.53933,1.53933c-0.85015,0 -1.53933,-0.68918 -1.53933,-1.53933z" fill="#c89bec" stroke="none" stroke-width="0"/><path d="M304.0364,204.26232c0,-0.85015 0.68918,-1.53933 1.53933,-1.53933c0.85015,0 1.53933,0.68918 1.53933,1.53933c0,0.85015 -0.68918,1.53933 -1.53933,1.53933c-0.85015,0 -1.53933,-0.68918 -1.53933,-1.53933z" fill="#c89bec" stroke="none" stroke-width="0"/><path d="M289.35042,215.67257c1.19415,-1.3908 4.58832,-2.47541 8.48025,-2.47541c3.43403,0 6.24896,0.53714 8.10015,1.90892c1.64229,1.21698 2.19172,2.39857 2.37883,3.06322c-6.88543,-0.03661 -13.77104,0.01148 -20.65663,0.01524c0.30355,-0.9117 1.00682,-1.70765 1.69741,-2.51197z" fill="#c89bec" stroke="#000000" stroke-width="0"/><path d="M300.31763,213.33077l-4.53287,-0.02334c0,0 0.01224,-0.67035 -0.14868,-0.94235c-0.21818,-0.36876 -0.65359,-0.9763 -0.65359,-0.9763l6.15676,0.04668c0,0 -0.53435,0.60563 -0.65602,0.92805c-0.12707,0.33673 -0.16559,0.96726 -0.16559,0.96726z" fill="#c89bec" stroke="#000000" stroke-width="0"/></g><g stroke="#000000" stroke-width="0"><path d="M172.75063,221.08396v-25.26316h136.40351v25.26316z" fill="url(#color-1)"/><g><path d="M172.75063,208.54481v-12.72401h136.40351v12.72401z" fill="url(#color-2)"/><path d="M309.15414,208.54481v12.50227h-136.4035v-12.50227z" fill="url(#color-3)"/></g></g><path d="M167.15254,222.69539v-85.39073h145.69492v85.39073zM306.30245,213.7052c0,-13.76894 0,-59.48565 0,-66.96176c0,-2.02466 -1.62431,-3.73601 -3.76958,-3.73863c-11.22048,-0.01366 -105.05287,-0.12843 -124.32303,-0.15201c-2.22047,-0.00271 -3.44984,1.24221 -3.448,3.40826c0.01142,13.27624 0.05256,61.10025 0.05867,68.21596c0.0015,1.73532 1.24511,3.14875 3.48587,3.14875c19.34968,0 113.14675,0 124.27487,0c2.11911,0 3.72116,-1.44315 3.72116,-3.92057z" fill="#ffffff" stroke="none" stroke-width="0"/><g stroke-width="0"><path d="M215.96492,195.65053v-48.21094h48.07017v48.21094z" fill="url(#color-4)" stroke="#000000"/><g stroke="#000000"><path d="M215.96492,171.72144v-24.28186h48.07017v24.28186z" fill="url(#color-5)"/><path d="M264.03508,171.72144v23.8587h-48.07017v-23.8587z" fill="url(#color-6)"/></g><path d="M226.6567,171.54505c0,-7.3693 5.974,-13.34331 13.34331,-13.34331c7.3693,0 13.34331,5.974 13.34331,13.34331c0,7.3693 -5.974,13.34331 -13.34331,13.34331c-7.3693,0 -13.34331,-5.974 -13.34331,-13.34331z" fill="#ed944f" stroke="#000000"/><path d="M223.77702,171.03795c0,-1.50326 1.21863,-2.7219 2.7219,-2.7219c1.50326,0 2.7219,1.21863 2.7219,2.7219c0,1.50326 -1.21863,2.7219 -2.7219,2.7219c-1.50326,0 -2.7219,-1.21863 -2.7219,-2.7219z" fill="#ed944f" stroke="none"/><path d="M250.58545,171.03795c0,-1.50326 1.21863,-2.7219 2.7219,-2.7219c1.50326,0 2.7219,1.21863 2.7219,2.7219c0,1.50326 -1.21863,2.7219 -2.7219,2.7219c-1.50326,0 -2.7219,-1.21863 -2.7219,-2.7219z" fill="#ed944f" stroke="none"/><path d="M224.61723,191.21391c2.11154,-2.45926 8.11321,-4.3771 14.99504,-4.3771c6.07216,0 11.04961,0.94979 14.32295,3.37541c2.90395,2.1519 3.87548,4.24122 4.20632,5.41649c-12.17504,-0.06473 -24.35039,0.0203 -36.52571,0.02694c0.53675,-1.6121 1.78028,-3.01952 3.00141,-4.44174z" fill="#ed944f" stroke="#000000"/><path d="M244.0098,187.07306l-8.01517,-0.04127c0,0 0.02165,-1.18534 -0.26291,-1.6663c-0.38579,-0.65206 -1.1557,-1.72633 -1.1557,-1.72633l10.88658,0.08255c0,0 -0.94486,1.07089 -1.16,1.64101c-0.22469,0.59542 -0.2928,1.71034 -0.2928,1.71034z" fill="#ed944f" stroke="#000000"/></g><text transform="translate(187.81746,161.42857) scale(0.5,0.5)" font-size="40" xml:space="preserve" fill-opacity="0.43922" fill="#000000" fill-rule="nonzero" stroke="none" stroke-width="1" stroke-linecap="butt" stroke-linejoin="miter" stroke-miterlimit="10" stroke-dasharray="" stroke-dashoffset="0" font-family="Serif" font-weight="normal" text-anchor="start" style="mix-blend-mode: normal"><tspan x="0" dy="0">   Я кодвик</tspan><tspan x="0" dy="46.15px">и я вернулся.</tspan></text><text transform="translate(176.62698,211.42857) scale(0.5,0.5)" font-size="40" xml:space="preserve" fill-opacity="0.50196" fill="#000000" fill-rule="nonzero" stroke="none" stroke-width="1" stroke-linecap="butt" stroke-linejoin="miter" stroke-miterlimit="10" stroke-dasharray="" stroke-dashoffset="0" font-family="Serif" font-weight="normal" text-anchor="start" style="mix-blend-mode: normal"><tspan x="0" dy="0">Вам всем ------</tspan></text></g></g></svg>