<svg version="1.1" xmlns="http://www.w3.org/2000/svg" xmlns:xlink="http://www.w3.org/1999/xlink" width="401.5" height="257.40063" viewBox="0,0,401.5,257.40063"><defs><linearGradient x1="53.73345" y1="105.93872" x2="102.78457" y2="105.93872" gradientUnits="userSpaceOnUse" id="color-1"><stop offset="0" stop-color="#35eb29"/><stop offset="1" stop-color="#dceb3d"/></linearGradient></defs><g transform="translate(-39.25,-51.29968)"><g data-paper-data="{&quot;isPaintingLayer&quot;:true}" fill-rule="nonzero" stroke-linejoin="miter" stroke-miterlimit="10" stroke-dasharray="" stroke-dashoffset="0" style="mix-blend-mode: normal"><path d="M40,307.95031v-255.90063h400v255.90063z" fill="#3c3f41" stroke="#bbbbbb" stroke-width="1.5" stroke-linecap="butt"/><path d="M439.88201,72.42625h-399.41003" fill="none" stroke="#bbbbbb" stroke-width="1.5" stroke-linecap="round"/><path d="M421.63225,68.16617l11.4061,-11.4061" fill="none" stroke="#bbbbbb" stroke-width="1.5" stroke-linecap="round"/><path d="M433.03835,68.16617l-11.4061,-11.4061" data-paper-data="{&quot;index&quot;:null}" fill="none" stroke="#bbbbbb" stroke-width="1.5" stroke-linecap="round"/><path d="M414.21829,72.42625v-19.46903" fill="none" stroke="#bbbbbb" stroke-width="1.5" stroke-linecap="round"/><path d="M43.85448,62.16814c0,-3.63845 2.94955,-6.588 6.588,-6.588c3.63845,0 6.588,2.94955 6.588,6.588c0,3.63845 -2.94955,6.588 -6.588,6.588c-3.63845,0 -6.588,-2.94955 -6.588,-6.588z" fill="none" stroke="#bbbbbb" stroke-width="1.5" stroke-linecap="butt"/><path d="M49.9823,66.41003v-4.48378h0.82596v4.48378z" fill="#bbbbbb" stroke="#bbbbbb" stroke-width="1.5" stroke-linecap="butt"/><path d="M48.56637,58.74041c0,-0.9775 0.79241,-1.76991 1.76991,-1.76991c0.9775,0 1.76991,0.79241 1.76991,1.76991c0,0.9775 -0.79241,1.76991 -1.76991,1.76991c-0.9775,0 -1.76991,-0.79241 -1.76991,-1.76991z" fill="#bbbbbb" stroke="none" stroke-width="0.5" stroke-linecap="butt"/><text transform="translate(59.87416,65.52408) scale(0.27804,0.27804)" font-size="40" xml:space="preserve" fill="#bbbbbb" fill-rule="nonzero" stroke="none" stroke-width="1" stroke-linecap="butt" stroke-linejoin="miter" stroke-miterlimit="10" stroke-dasharray="" stroke-dashoffset="0" font-family="Sans Serif" font-weight="normal" text-anchor="start" style="mix-blend-mode: normal"><tspan x="0" dy="0">Описание проекта</tspan></text><text transform="translate(53.64726,197.10376) scale(0.94442,0.94442)" font-size="40" xml:space="preserve" fill="#bbbbbb" fill-rule="nonzero" stroke="none" stroke-width="1" stroke-linecap="butt" stroke-linejoin="miter" stroke-miterlimit="10" stroke-dasharray="" stroke-dashoffset="0" font-family="Sans Serif" font-weight="normal" text-anchor="start" style="mix-blend-mode: normal"><tspan x="0" dy="0">Помогает обходить</tspan><tspan x="0" dy="46.150000000000006px"> защиту от взломов</tspan></text><g stroke-linecap="butt"><g stroke="#000000"><path d="M102.78457,122.02214c0,4.08032 -3.30925,7.38871 -7.38871,7.38871h-34.27459c-4.08032,0 -7.38785,-3.30925 -7.38785,-7.38871v-32.1677c0,-4.08032 3.30753,-7.38785 7.38785,-7.38785h34.27373c4.08204,0 7.38871,3.30753 7.38871,7.38785v32.1677z" fill="url(#color-1)" stroke-width="2.5"/><g data-paper-data="{&quot;index&quot;:null}" fill="none" stroke-width="2"><path d="M62.66237,87.94446h15.51082v15.0455l-4.5139,-4.37848c0,0 -1.92801,1.32205 -2.94381,2.91185c-0.8037,1.25786 -1.41243,4.23513 -1.41243,4.23513l-9.01949,0.02353c0,0 -0.17951,-3.58568 1.46,-7.09774c1.44241,-3.08983 4.9596,-6.82022 4.9596,-6.82022z"/><path d="M96.24021,90.30011v15.51082h-15.0455l4.37848,-4.5139c0,0 -1.32205,-1.92801 -2.91185,-2.94381c-1.25786,-0.8037 -4.23513,-1.41243 -4.23513,-1.41243l-0.02353,-9.01949c0,0 3.58568,-0.17951 7.09774,1.46c3.08983,1.44241 6.82022,4.9596 6.82022,4.9596z"/><path d="M60.30672,121.21208v-15.51082h15.0455l-4.37848,4.5139c0,0 1.8893,4.56506 7.02314,4.55709c6.41053,-0.00996 8.10675,-4.54389 8.10675,-4.54389l6.43467,6.55844c0,0 -3.98725,7.3145 -14.58378,7.17309c-9.1292,-0.12183 -13.72822,-6.78862 -13.72822,-6.78862z"/></g></g><text transform="translate(109.6665,118.7915) scale(0.89516,0.89516)" font-size="40" xml:space="preserve" fill="#d1d1d1" fill-rule="nonzero" stroke="none" stroke-width="1" stroke-linecap="butt" stroke-linejoin="miter" stroke-miterlimit="10" stroke-dasharray="" stroke-dashoffset="0" font-family="Sans Serif" font-weight="normal" text-anchor="start" style="mix-blend-mode: normal"><tspan x="0" dy="0">Обход reCAPTCHA</tspan></text></g></g></g></svg>