<svg version="1.1" xmlns="http://www.w3.org/2000/svg" xmlns:xlink="http://www.w3.org/1999/xlink" width="468.67284" height="188.05422" viewBox="0,0,468.67284,188.05422"><g transform="translate(-5.66358,-73.19581)"><g data-paper-data="{&quot;isPaintingLayer&quot;:true}" fill-rule="nonzero" stroke-linecap="butt" stroke-linejoin="miter" stroke-miterlimit="10" stroke-dasharray="" stroke-dashoffset="0" style="mix-blend-mode: normal"><path d="M6.91358,223.66669c0,-30.63453 0,-72.14967 0,-89.33333c0,-15.03183 16.43535,-34.33334 34.25309,-34.33334c51.68982,0 307.19608,0 399,0c20.56868,0 32.91975,16.91735 32.91975,30.66667c0,17.07089 0,60.77377 0,92.66667c0,20.85933 -13.4205,36.66667 -35.58642,36.66667c-94.43932,0 -347.62897,0 -398,0c-17.05008,0 -32.58642,-15.69829 -32.58642,-36.33334z" fill-opacity="0.70196" fill="#5fff7a" stroke="#000000" stroke-width="2.5"/><text transform="translate(32.66005,153.22695) scale(0.7604,0.7604)" font-size="40" xml:space="preserve" fill="#000000" fill-rule="nonzero" stroke="none" stroke-width="1" stroke-linecap="butt" stroke-linejoin="miter" stroke-miterlimit="10" stroke-dasharray="" stroke-dashoffset="0" font-family="Sans Serif" font-weight="normal" text-anchor="start" style="mix-blend-mode: normal"><tspan x="0" dy="0">Теперь ты можешь попасть</tspan><tspan x="0" dy="48px">в</tspan></text><path d="M46.58502,114.26101c0,-9.1728 0,-21.60355 0,-26.74881c0,-4.50093 4.92119,-10.28033 10.2563,-10.28033c15.47732,0 91.98278,0 119.47135,0c6.15882,0 9.85706,5.06551 9.85706,9.18243c0,5.11148 0,18.1973 0,27.7469c0,6.24585 -4.01846,10.97899 -10.65553,10.97899c-28.27768,0 -104.08948,0 -119.17192,0c-5.10525,0 -9.75725,-4.70049 -9.75725,-10.87918z" fill-opacity="0.70196" fill="#5fff7a" stroke="#000000" stroke-width="2.5"/><text transform="translate(60.67707,113.65211) scale(0.93003,0.93003)" font-size="40" xml:space="preserve" fill="#000000" fill-rule="nonzero" stroke="#000000" stroke-width="1" stroke-linecap="butt" stroke-linejoin="miter" stroke-miterlimit="10" stroke-dasharray="" stroke-dashoffset="0" font-family="Sans Serif" font-weight="normal" text-anchor="start" style="mix-blend-mode: normal"><tspan x="0" dy="0">Хакер</tspan></text><text transform="translate(58.73832,190.004) scale(0.7604,0.7604)" font-size="40" xml:space="preserve" fill="#00c7ff" fill-rule="nonzero" stroke="#00c7ff" stroke-width="1" stroke-linecap="butt" stroke-linejoin="miter" stroke-miterlimit="10" stroke-dasharray="" stroke-dashoffset="0" font-family="Sans Serif" font-weight="normal" text-anchor="start" style="mix-blend-mode: normal"><tspan x="0" dy="0">Мир Кода</tspan></text></g></g></svg>