<svg version="1.1" xmlns="http://www.w3.org/2000/svg" xmlns:xlink="http://www.w3.org/1999/xlink" width="147.66984" height="107.5221" viewBox="0,0,147.66984,107.5221"><defs><linearGradient x1="187.54964" y1="232.45036" x2="292.45036" y2="127.54964" gradientUnits="userSpaceOnUse" id="color-1"><stop offset="0" stop-color="#a05302"/><stop offset="1" stop-color="#e27602"/></linearGradient></defs><g transform="translate(-166.16508,-136.39125)"><g data-paper-data="{&quot;isPaintingLayer&quot;:true}" fill-rule="nonzero" stroke-linecap="butt" stroke-linejoin="miter" stroke-miterlimit="10" stroke-dasharray="" stroke-dashoffset="0" style="mix-blend-mode: normal"><path d="M166.16508,243.91335v-107.5221h147.66984v107.5221z" fill="#ffffff" stroke="none" stroke-width="0"/><path d="M172.97619,217.8769v-75.7538h134.04762v75.7538z" fill="url(#color-1)" stroke="none" stroke-width="0"/><path d="M189.97688,158.6048c0,0 -3.18552,2.67485 -4.21298,3.55914c-0.21759,0.18727 -0.51618,0.22734 -0.63134,0.19462c-0.03646,-0.0076 -0.31044,-0.08674 -0.35439,-0.27736c-0.26949,-1.16896 -0.58901,-5.49677 -0.58901,-5.49677c0,0 -2.7926,-2.03353 -4.71513,-3.30764c-0.07903,-0.05238 -0.31766,-0.22074 -0.29615,-0.60214c0.01838,-0.32591 0.23546,-0.45773 0.45328,-0.53361c1.87767,-0.65415 5.08737,-1.88419 5.08737,-1.88419c0,0 0.71174,-3.28821 1.28143,-5.19638c0.07039,-0.14052 0.03643,-0.22123 0.38854,-0.32671c0.43404,-0.12386 0.44221,0.0735 0.53982,0.14334c1.33448,1.38543 3.4895,3.8683 3.4895,3.8683c0,0 3.61292,-0.60399 5.45016,-0.89438c0.22528,-0.0356 0.54225,0.13295 0.63811,0.32432c0.10851,0.21663 0.02211,0.47789 -0.08253,0.68449c-1.23499,2.43832 -2.43898,5.08523 -2.43898,5.08523c0,0 1.41056,3.15896 2.10774,4.94167c0,0 0.12949,0.33319 -0.08321,0.54948c-0.18299,0.18608 -0.50049,0.2526 -0.74983,0.20329c-0.78652,-0.15554 -5.28239,-1.03471 -5.28239,-1.03471z" fill="none" stroke="#e77902" stroke-width="2.5"/><path d="M270.72372,178.37575c-0.06345,0.12911 -2.29603,4.65481 -2.35731,4.78348c-1.98643,4.17104 -5.90401,5.14474 -9.05857,3.54621c-3.6267,-1.83778 -4.23459,-5.20967 -3.42498,-7.8804c0.03619,-0.11938 3.17391,-6.4919 3.22399,-6.60917c2.20934,-5.17337 6.65575,-4.92408 9.18628,-3.79305c3.31339,1.48092 4.91181,4.90433 2.4306,9.95294z" fill="none" stroke="#f37f02" stroke-width="2.5"/><path d="M246.03007,161.14511c0.31395,-2.45596 1.29306,-11.19752 1.7268,-14.11662c0.15771,-0.6477 0.13034,-0.9077 0.63895,-1.16969c0.45651,-0.19716 0.58998,-0.09445 1.18295,0.24471c2.64406,1.77081 9.79952,6.66221 12.19379,8.25392c0.19617,0.16277 0.35476,0.44385 0.34663,0.73523c-0.0087,0.31158 -0.19634,0.63313 -0.35843,0.77641c-2.25985,0.9524 -11.39119,4.82169 -14.43237,6.08945c-0.19125,0.03843 -0.48525,0.09363 -0.7159,-0.01348c-0.3197,-0.14845 -0.61905,-0.51337 -0.58242,-0.79993z" fill="none" stroke="#f37f02" stroke-width="2.5"/><path d="M178.60612,204.76779c2.72882,-2.72882 7.15455,-2.72737 9.88515,0.00322c2.7306,2.7306 2.73204,7.15633 0.00322,9.88515c-2.72882,2.72882 -7.15455,2.72737 -9.88515,-0.00322c-2.7306,-2.7306 -2.73204,-7.15633 -0.00322,-9.88515z" fill="none" stroke="#db7202" stroke-width="2.5"/><path d="M212.79337,162.95275c0,0 -0.14398,-0.24034 -0.03277,-0.58278c0.47039,-1.44842 3.66729,-11.29225 4.57532,-14.08824c0.14907,-0.459 0.4082,-0.52442 0.4082,-0.52442c0,0 0.20794,-0.13864 0.66312,0.00918c2.77458,0.90108 12.62116,4.09887 14.08824,4.57532c0.35275,0.11456 0.45879,0.41861 0.45879,0.41861c0,0 0.10918,0.20099 0.0114,0.50209c-0.44755,1.37808 -3.71733,11.44635 -4.60328,14.17432c-0.13941,0.42927 -0.39725,0.4907 -0.39725,0.4907c0,0 -0.18515,0.13018 -0.63694,-0.01654c-1.61041,-0.523 -11.19001,-3.63408 -14.01651,-4.55202c-0.49916,-0.16211 -0.51832,-0.40622 -0.51832,-0.40622z" fill="none" stroke="#e17502" stroke-width="2.5"/><path d="M204.60107,181.48287c-0.08943,0.2747 -0.51607,0.47656 -0.86856,0.47404c-0.2543,-0.00182 -0.49646,-0.17744 -0.6529,-0.29396c-2.20695,-2.4465 -8.80664,-9.849 -10.44216,-11.6763c-0.08524,-0.19883 -0.11736,-0.56974 0.00801,-0.85511c0.11725,-0.26687 0.38081,-0.45313 0.62774,-0.51638c2.84497,-0.41497 11.40489,-1.77668 14.55225,-2.24673c0.68105,-0.05301 0.84562,-0.08879 1.17398,0.28466c0.34772,0.45432 0.2118,0.67765 0.07739,1.33058c-0.85622,2.8242 -3.7093,11.14487 -4.47575,13.4992z" data-paper-data="{&quot;index&quot;:null}" fill="none" stroke="#db7202" stroke-width="2.5"/><path d="M229.26005,188.27913c0,0 -4.15707,-0.14531 -5.51232,-0.17617c-0.287,-0.00654 -0.53565,-0.17665 -0.5993,-0.27805c-0.022,-0.03005 -0.17256,-0.27225 -0.0776,-0.44328c0.58232,-1.04881 3.24204,-4.47778 3.24204,-4.47778c0,0 -0.71333,-3.3801 -1.28865,-5.61358c-0.02365,-0.09182 -0.08822,-0.37663 0.18307,-0.64557c0.23182,-0.22981 0.48133,-0.18242 0.69394,-0.09299c1.8328,0.77097 5.04066,2.00581 5.04066,2.00581c0,0 2.72992,-1.96633 4.43049,-3.00254c0.14636,-0.05727 0.17516,-0.13996 0.50735,0.01738c0.40536,0.19854 0.27931,0.35063 0.30507,0.46785c0.06395,1.92254 0.00283,5.20964 0.00283,5.20964c0,0 3.08833,1.96983 4.64759,2.98398c0.19119,0.12435 0.31383,0.46176 0.25694,0.6681c-0.0644,0.23357 -0.30348,0.36982 -0.51952,0.45326c-2.5497,0.98469 -5.21602,2.14509 -5.21602,2.14509c0,0 -1.06676,3.291 -1.7422,5.08206c0,0 -0.12685,0.3342 -0.42964,0.3525c-0.2605,0.01574 -0.5409,-0.14738 -0.69313,-0.35092c-0.48018,-0.64205 -3.23159,-4.30477 -3.23159,-4.30477z" fill="none" stroke="#e17502" stroke-width="2.5"/><path d="M223.44921,200.31297c0.03796,0.13876 1.36254,5.00824 1.40185,5.14523c1.27412,4.44073 -1.01626,7.76485 -4.4385,8.65639c-3.93444,1.02498 -6.62307,-1.09881 -7.78527,-3.63604c-0.05195,-0.11342 -1.92147,-6.96608 -1.96162,-7.08712c-1.77092,-5.33936 1.72564,-8.09739 4.3707,-8.92592c3.46335,-1.08485 6.92825,0.42151 8.41285,5.84746z" fill="none" stroke="#db7202" stroke-width="2.5"/><path d="M248.7816,213.75839c0,0 -0.22575,-0.16592 -0.25568,-0.52472c-0.12658,-1.51762 -0.98689,-11.83174 -1.23124,-14.76131c-0.04011,-0.48093 0.17354,-0.6415 0.17354,-0.6415c0,0 0.13811,-0.20829 0.61504,-0.24808c2.90714,-0.24249 13.22413,-1.10303 14.76131,-1.23124c0.3696,-0.03083 0.58501,0.20853 0.58501,0.20853c0,0 0.17844,0.1431 0.20475,0.45858c0.12044,1.44391 1.00036,11.9932 1.23877,14.8515c0.03752,0.44978 -0.17648,0.60618 -0.17648,0.60618c0,0 -0.12037,0.19168 -0.59375,0.23116c-1.68735,0.14074 -11.72461,0.97795 -14.68615,1.22497c-0.52301,0.04362 -0.63512,-0.17407 -0.63512,-0.17407z" fill="none" stroke="#e17502" stroke-width="2.5"/><path d="M287.05659,197.90508c3.33349,-3.33349 8.73991,-3.33173 12.07558,0.00394c3.33567,3.33567 3.33743,8.74209 0.00394,12.07558c-3.33349,3.33349 -8.73991,3.33173 -12.07558,-0.00394c-3.33567,-3.33567 -3.33743,-8.74209 -0.00394,-12.07558z" fill="none" stroke="#ff8503" stroke-width="2.5"/><path d="M280.60645,149.88096c0,0 -0.16289,-4.15642 -0.23246,-5.51024c-0.01473,-0.2867 0.1365,-0.54726 0.23291,-0.61824c0.02834,-0.02417 0.25873,-0.19225 0.43632,-0.11021c1.08905,0.50306 4.70554,2.90159 4.70554,2.90159c0,0 3.318,-0.96164 5.50276,-1.70076c0.08981,-0.03039 0.36906,-0.11586 0.65735,0.13477c0.24635,0.21416 0.21756,0.46651 0.14411,0.68516c-0.63315,1.88486 -1.62708,5.17534 -1.62708,5.17534c0,0 2.16306,2.57683 3.32234,4.19601c0.06795,0.14172 0.15255,0.16432 0.02023,0.50724c-0.16798,0.41895 -0.32898,0.3045 -0.44398,0.33888c-1.91253,0.20612 -5.19513,0.38856 -5.19513,0.38856c0,0 -1.73576,3.2257 -2.63167,4.85577c-0.10985,0.19987 -0.43725,0.34716 -0.64724,0.3057c-0.2377,-0.04693 -0.39128,-0.27527 -0.49048,-0.48453c-1.17078,-2.4698 -2.52541,-5.04287 -2.52541,-5.04287c0,0 -3.36096,-0.82016 -5.19711,-1.36113c0,0 -0.34268,-0.10176 -0.38335,-0.40236c-0.03499,-0.25862 0.10692,-0.55033 0.29864,-0.71721c0.60473,-0.5264 4.05368,-3.54146 4.05368,-3.54146z" fill="none" stroke="#ff8503" stroke-width="2.5"/><path d="M286.82942,170.8549c2.47516,-0.06266 11.26402,-0.42241 14.21512,-0.43701c0.66414,0.05752 0.91697,-0.00901 1.25316,0.45391c0.2642,0.42128 0.18295,0.5688 -0.06223,1.20639c-1.34874,2.88231 -5.09676,10.6976 -6.30641,13.30582c-0.13109,0.21861 -0.38482,0.41805 -0.67406,0.45426c-0.30929,0.03872 -0.6556,-0.09792 -0.82184,-0.23636c-1.28454,-2.08901 -6.49565,-10.52684 -8.21056,-13.34022c-0.06703,-0.18319 -0.16623,-0.4654 -0.0954,-0.70965c0.09818,-0.33854 0.41341,-0.68983 0.70221,-0.69714z" fill="none" stroke="#ff8503" stroke-width="2.5"/><path d="M229.23669,166.16622v-20.70525h21.83052v20.70525h-6.26068l-4.43976,4.58298l-5.15585,-4.58298z" fill="#ffffff" stroke="none" stroke-width="0"/><text transform="translate(234.00218,162.67034) scale(0.47016,0.47016)" font-size="40" xml:space="preserve" fill="#ff8503" fill-rule="nonzero" stroke="none" stroke-width="1" stroke-linecap="butt" stroke-linejoin="miter" stroke-miterlimit="10" stroke-dasharray="" stroke-dashoffset="0" font-family="Sans Serif" font-weight="normal" text-anchor="start" style="mix-blend-mode: normal"><tspan x="0" dy="0">А</tspan></text><path d="M228.78868,164.87524l19.72854,-19.46087l2.6941,-0.10773l-0.00166,2.4833l-18.72342,18.75042l-3.53981,-0.02937z" fill="#ff8503" stroke="none" stroke-width="0"/><path d="M251.05357,166.26806l-3.2582,0.27229l-18.72341,-18.89123l-0.14247,-2.20168l2.83491,-0.17388l19.44692,19.46087z" data-paper-data="{&quot;index&quot;:null}" fill="#ff8503" stroke="none" stroke-width="0"/><path d="M192.9434,196.72c-0.12952,0.01181 -4.67353,0.41938 -4.80168,0.43266c-4.15439,0.43058 -6.75026,-2.1346 -7.00166,-5.32186c-0.28903,-3.66429 2.0272,-5.72092 4.46962,-6.35343c0.10918,-0.02827 6.50468,-0.60672 6.61877,-0.62328c5.03293,-0.73042 6.93386,2.81868 7.2523,5.30421c0.41695,3.25447 -1.47271,6.09985 -6.53735,6.5617z" fill="none" stroke="#e17502" stroke-width="2.5"/><text transform="translate(175.08208,177.94247) scale(0.18149,0.18149)" font-size="40" xml:space="preserve" fill="#000000" fill-rule="nonzero" stroke="none" stroke-width="1" stroke-linecap="butt" stroke-linejoin="miter" stroke-miterlimit="10" stroke-dasharray="" stroke-dashoffset="0" font-family="Sans Serif" font-weight="normal" text-anchor="start" style="mix-blend-mode: normal"><tspan x="0" dy="0">           Акция ТОА Против Хакера</tspan><tspan x="0" dy="46.150000000000006px">        Сохрани все проекты на ПК</tspan><tspan x="0" dy="46.150000000000006px">И смени пароль на более сложный!</tspan><tspan x="0" dy="46.150000000000006px">  Через поддержку: @marsobot_bot</tspan></text><path d="M167.15254,222.69539v-85.39073h145.69492v85.39073zM306.30245,213.7052c0,-13.76894 0,-59.48565 0,-66.96176c0,-2.02466 -1.62431,-3.73601 -3.76958,-3.73863c-11.22048,-0.01366 -105.05287,-0.12843 -124.32303,-0.15201c-2.22047,-0.00271 -3.44984,1.24221 -3.448,3.40826c0.01142,13.27624 0.05256,61.10025 0.05867,68.21596c0.0015,1.73532 1.24511,3.14875 3.48587,3.14875c19.34968,0 113.14675,0 124.27487,0c2.11911,0 3.72116,-1.44315 3.72116,-3.92057z" fill="#ffffff" stroke="none" stroke-width="0"/><path d="M167.15254,222.69539v-85.39073h145.69492v85.39073zM306.30245,213.7052c0,-13.76894 0,-59.48565 0,-66.96176c0,-2.02466 -1.62431,-3.73601 -3.76958,-3.73863c-11.22048,-0.01366 -105.05287,-0.12843 -124.32303,-0.15201c-2.22047,-0.00271 -3.44984,1.24221 -3.448,3.40826c0.01142,13.27624 0.05256,61.10025 0.05867,68.21596c0.0015,1.73532 1.24511,3.14875 3.48587,3.14875c19.34968,0 113.14675,0 124.27487,0c2.11911,0 3.72116,-1.44315 3.72116,-3.92057z" fill="#ffffff" stroke="none" stroke-width="0"/><text transform="translate(174.32287,235.85647) scale(0.43225,0.43225)" font-size="40" xml:space="preserve" fill="#000000" fill-rule="nonzero" stroke="#000000" stroke-width="1" stroke-linecap="butt" stroke-linejoin="miter" stroke-miterlimit="10" stroke-dasharray="" stroke-dashoffset="0" font-family="Sans Serif" font-weight="normal" text-anchor="start" style="mix-blend-mode: normal"><tspan x="0" dy="0">Против Хакера!</tspan></text></g></g></svg>