<svg version="1.1" xmlns="http://www.w3.org/2000/svg" xmlns:xlink="http://www.w3.org/1999/xlink" width="147.66984" height="107.59987" viewBox="0,0,147.66984,107.59987"><defs><linearGradient x1="240.53221" y1="142.83369" x2="240.53221" y2="217.64503" gradientUnits="userSpaceOnUse" id="color-1"><stop offset="0" stop-color="#f900ff"/><stop offset="1" stop-color="#a51fff"/></linearGradient></defs><g transform="translate(-166.16508,-136.39125)"><g data-paper-data="{&quot;isPaintingLayer&quot;:true}" fill-rule="nonzero" stroke-linecap="butt" stroke-linejoin="miter" stroke-miterlimit="10" stroke-dasharray="" stroke-dashoffset="0" style="mix-blend-mode: normal"><path d="M166.16508,243.91335v-107.5221h147.66984v107.5221z" fill="#ffffff" stroke="none" stroke-width="0"/><path d="M306.3356,213.72213c0,2.47741 -1.60335,3.9229 -3.72246,3.9229c-11.12813,0 -104.98898,-0.00004 -124.33866,-0.00004c-2.24076,0 -3.48547,-1.41541 -3.48697,-3.15073c-0.00611,-7.11571 -0.04731,-54.974 -0.05873,-68.25025c-0.00185,-2.16606 1.22867,-3.41303 3.44915,-3.41032c19.27016,0.02359 113.16639,0.13834 124.38687,0.152c2.14527,0.00262 3.77083,1.71624 3.77083,3.74091c0,7.47612 0.00001,53.22659 0.00001,66.99554z" data-paper-data="{&quot;noHover&quot;:false,&quot;origItem&quot;:[&quot;Path&quot;,{&quot;applyMatrix&quot;:true,&quot;segments&quot;:[[[390.11262,450.54452],[0,0],[0,-36.98842]],[[390.11262,270.66074],[0,20.08358],[0,-5.43898]],[[379.98616,260.6174],[5.76298,0.00704],[-30.1423,-0.0367]],[[46.00902,260.20904],[51.7667,0.06336],[-5.965,-0.00728]],[[36.74644,269.36488],[-0.00496,-5.81882],[0.03068,35.66484]],[[36.90406,452.6179],[-0.01642,-19.1154],[0.00402,4.6617]],[[46.26838,461.0766],[-6.0195,0],[51.98032,0]],[[380.11614,461.0766],[-29.89422,0],[5.6927,0]],[[390.11254,450.54452],[0,6.65524],[0,0]]],&quot;closed&quot;:true,&quot;fillColor&quot;:[0,0,0,1]}]}" fill="url(#color-1)" stroke="none" stroke-width="0"/><text transform="translate(183.36426,166.46269) scale(0.34612,0.34612)" font-size="40" xml:space="preserve" fill="#000000" fill-rule="nonzero" stroke="none" stroke-width="1" stroke-linecap="butt" stroke-linejoin="miter" stroke-miterlimit="10" stroke-dasharray="" stroke-dashoffset="0" font-family="Sans Serif" font-weight="normal" text-anchor="start" style="mix-blend-mode: normal"><tspan x="0" dy="0">ОСТЕРЕГАЙТЕСЬ</tspan><tspan x="0" dy="46.150000000000006px">         ХАКЕРА</tspan><tspan x="0" dy="46.150000000000006px">!!!!!!!!!!!!!!!!!!!!!!!!!!!!!</tspan></text><path d="M167.15254,222.69539v-85.39073h145.69492v85.39073zM306.30245,213.7052c0,-13.76894 0,-59.48565 0,-66.96176c0,-2.02466 -1.62431,-3.73601 -3.76958,-3.73863c-11.22048,-0.01366 -105.05287,-0.12843 -124.32303,-0.15201c-2.22047,-0.00271 -3.44984,1.24221 -3.448,3.40826c0.01142,13.27624 0.05256,61.10025 0.05867,68.21596c0.0015,1.73532 1.24511,3.14875 3.48587,3.14875c19.34968,0 113.14675,0 124.27487,0c2.11911,0 3.72116,-1.44315 3.72116,-3.92057z" fill="#ffffff" stroke="none" stroke-width="0"/><path d="M306.3356,213.7221c0,2.47741 -1.60335,3.9229 -3.72246,3.9229c-11.12813,0 -104.98898,-0.00004 -124.33866,-0.00004c-2.24076,0 -3.48547,-1.41541 -3.48697,-3.15073c-0.00611,-7.11571 -0.04731,-54.974 -0.05873,-68.25025c-0.00185,-2.16606 1.22867,-3.41303 3.44915,-3.41032c19.27016,0.02359 113.16639,0.13834 124.38687,0.152c2.14527,0.00262 3.77083,1.71624 3.77083,3.74091c0,7.47612 0.00001,53.22659 0.00001,66.99554z" data-paper-data="{&quot;noHover&quot;:false,&quot;origItem&quot;:[&quot;Path&quot;,{&quot;applyMatrix&quot;:true,&quot;segments&quot;:[[[390.11262,450.54452],[0,0],[0,-36.98842]],[[390.11262,270.66074],[0,20.08358],[0,-5.43898]],[[379.98616,260.6174],[5.76298,0.00704],[-30.1423,-0.0367]],[[46.00902,260.20904],[51.7667,0.06336],[-5.965,-0.00728]],[[36.74644,269.36488],[-0.00496,-5.81882],[0.03068,35.66484]],[[36.90406,452.6179],[-0.01642,-19.1154],[0.00402,4.6617]],[[46.26838,461.0766],[-6.0195,0],[51.98032,0]],[[380.11614,461.0766],[-29.89422,0],[5.6927,0]],[[390.11254,450.54452],[0,6.65524],[0,0]]],&quot;closed&quot;:true,&quot;fillColor&quot;:[0,0,0,1]}]}" fill="none" stroke="#dbdbdb" stroke-width="0.5"/><text transform="translate(185.29001,237.74113) scale(0.5,0.5)" font-size="40" xml:space="preserve" fill="#000000" fill-rule="nonzero" stroke="#000000" stroke-width="1" stroke-linecap="butt" stroke-linejoin="miter" stroke-miterlimit="10" stroke-dasharray="" stroke-dashoffset="0" font-family="Sans Serif" font-weight="normal" text-anchor="start" style="mix-blend-mode: normal"><tspan x="0" dy="0">Внимание!</tspan></text></g></g></svg>