<svg version="1.1" xmlns="http://www.w3.org/2000/svg" xmlns:xlink="http://www.w3.org/1999/xlink" width="98.993" height="98.993" viewBox="0,0,98.993,98.993"><g transform="translate(-190.5035,-130.5035)"><g data-paper-data="{&quot;isPaintingLayer&quot;:true}" fill-opacity="0.10196" fill="#48ff00" fill-rule="nonzero" stroke="#44ff00" stroke-width="0.5" stroke-linecap="butt" stroke-linejoin="miter" stroke-miterlimit="10" stroke-dasharray="" stroke-dashoffset="0" style="mix-blend-mode: normal"><g><g><g><g><g><g><g><path d="M203.14831,178.91958l-6.32588,5.96553l-5.96553,-6.32589l6.32589,-5.96553z"/><path d="M215.42066,179.27938l-6.32589,5.96553l-5.96552,-6.32589l6.32588,-5.96553z"/></g><g><path d="M227.69188,179.63915l-6.32588,5.96553l-5.96553,-6.32589l6.32589,-5.96553z"/><path d="M239.96423,179.99895l-6.32589,5.96553l-5.96552,-6.32589l6.32588,-5.96553z"/></g></g><g><g><path d="M252.32718,180.36141l-6.32588,5.96553l-5.96553,-6.32589l6.32589,-5.96553z"/><path d="M264.59953,180.72121l-6.32589,5.96553l-5.96552,-6.32589l6.32588,-5.96553z"/></g><g><path d="M276.87075,181.08098l-6.32588,5.96553l-5.96553,-6.32589l6.32589,-5.96553z"/><path d="M289.1431,181.44078l-6.32589,5.96553l-5.96552,-6.32589l6.32588,-5.96553z"/></g></g></g><g><g><g><path d="M238.91958,216.85169l5.96553,6.32588l-6.32589,5.96553l-5.96553,-6.32589z"/><path d="M239.27938,204.57934l5.96553,6.32589l-6.32589,5.96552l-5.96553,-6.32588z"/></g><g><path d="M239.63915,192.30812l5.96553,6.32588l-6.32589,5.96553l-5.96553,-6.32589z"/><path d="M239.99895,180.03577l5.96553,6.32589l-6.32589,5.96552l-5.96553,-6.32588z"/></g></g><g><g><path d="M240.36141,167.67282l5.96553,6.32588l-6.32589,5.96553l-5.96553,-6.32589z"/><path d="M240.72121,155.40047l5.96553,6.32589l-6.32589,5.96552l-5.96553,-6.32588z"/></g><g><path d="M241.08098,143.12925l5.96553,6.32588l-6.32589,5.96553l-5.96553,-6.32589z"/><path d="M241.44078,130.8569l5.96553,6.32589l-6.32589,5.96552l-5.96553,-6.32588z"/></g></g></g></g><g><g><g><g><path d="M213.17796,205.29411l-0.25481,8.69134l-8.69135,-0.25481l0.25481,-8.69135z"/><path d="M222.11022,196.87066l-0.25481,8.69135l-8.69134,-0.25482l0.25481,-8.69134z"/></g><g><path d="M231.0417,188.448l-0.25481,8.69134l-8.69135,-0.25481l0.25481,-8.69135z"/><path d="M239.97396,180.02455l-0.25481,8.69135l-8.69134,-0.25482l0.25481,-8.69134z"/></g></g><g><g><path d="M248.9722,171.53892l-0.25481,8.69134l-8.69135,-0.25481l0.25481,-8.69135z"/><path d="M257.90446,163.11548l-0.25481,8.69135l-8.69134,-0.25482l0.25481,-8.69134z"/></g><g><path d="M266.83594,154.69281l-0.25481,8.69134l-8.69135,-0.25481l0.25481,-8.69135z"/><path d="M275.7682,146.26936l-0.25481,8.69135l-8.69134,-0.25482l0.25481,-8.69134z"/></g></g></g><g><g><g><path d="M265.29411,206.82204l8.69134,0.25481l-0.25481,8.69135l-8.69135,-0.25481z"/><path d="M256.87066,197.88978l8.69135,0.25481l-0.25482,8.69134l-8.69134,-0.25481z"/></g><g><path d="M248.448,188.9583l8.69134,0.25481l-0.25481,8.69135l-8.69135,-0.25481z"/><path d="M240.02455,180.02604l8.69135,0.25481l-0.25482,8.69134l-8.69134,-0.25481z"/></g></g><g><g><path d="M231.53892,171.0278l8.69134,0.25481l-0.25481,8.69135l-8.69135,-0.25481z"/><path d="M223.11548,162.09554l8.69135,0.25481l-0.25482,8.69134l-8.69134,-0.25481z"/></g><g><path d="M214.69281,153.16406l8.69134,0.25481l-0.25481,8.69135l-8.69135,-0.25481z"/><path d="M206.26936,144.2318l8.69135,0.25481l-0.25482,8.69134l-8.69134,-0.25481z"/></g></g></g></g></g><g><g><g><g><g><path d="M205.59522,193.2486l-3.52818,7.94709l-7.94709,-3.52819l3.52819,-7.94709z"/><path d="M217.05271,188.83655l-3.52819,7.94709l-7.94709,-3.52819l3.52818,-7.94709z"/></g><g><path d="M228.50912,184.42491l-3.52818,7.94709l-7.94709,-3.52819l3.52819,-7.94709z"/><path d="M239.96661,180.01286l-3.52819,7.94709l-7.94709,-3.52819l3.52818,-7.94709z"/></g></g><g><g><path d="M251.50866,175.56824l-3.52818,7.94709l-7.94709,-3.52819l3.52819,-7.94709z"/><path d="M262.96616,171.15619l-3.52819,7.94709l-7.94709,-3.52819l3.52818,-7.94709z"/></g><g><path d="M274.42257,166.74454l-3.52818,7.94709l-7.94709,-3.52819l3.52819,-7.94709z"/><path d="M285.88006,162.3325l-3.52819,7.94709l-7.94709,-3.52819l3.52818,-7.94709z"/></g></g></g><g><g><g><path d="M253.2486,214.40478l7.94709,3.52818l-3.52819,7.94709l-7.94709,-3.52819z"/><path d="M248.83655,202.94729l7.94709,3.52819l-3.52819,7.94709l-7.94709,-3.52818z"/></g><g><path d="M244.42491,191.49088l7.94709,3.52818l-3.52819,7.94709l-7.94709,-3.52819z"/><path d="M240.01286,180.03339l7.94709,3.52819l-3.52819,7.94709l-7.94709,-3.52818z"/></g></g><g><g><path d="M235.56824,168.49134l7.94709,3.52818l-3.52819,7.94709l-7.94709,-3.52819z"/><path d="M231.15619,157.03384l7.94709,3.52819l-3.52819,7.94709l-7.94709,-3.52818z"/></g><g><path d="M226.74454,145.57743l7.94709,3.52818l-3.52819,7.94709l-7.94709,-3.52819z"/><path d="M222.3325,134.11994l7.94709,3.52819l-3.52819,7.94709l-7.94709,-3.52818z"/></g></g></g></g><g><g><g><g><path d="M225.04033,213.69602l3.12464,8.11425l-8.11425,3.12464l-3.12464,-8.11425z"/><path d="M230.0222,202.47458l3.12464,8.11425l-8.11425,3.12463l-3.12464,-8.11425z"/></g><g><path d="M235.00361,191.25415l3.12464,8.11425l-8.11425,3.12464l-3.12464,-8.11425z"/><path d="M239.98548,180.03271l3.12464,8.11425l-8.11425,3.12463l-3.12464,-8.11425z"/></g></g><g><g><path d="M245.00413,168.7284l3.12464,8.11425l-8.11425,3.12464l-3.12464,-8.11425z"/><path d="M249.986,157.50697l3.12464,8.11425l-8.11425,3.12463l-3.12464,-8.11425z"/></g><g><path d="M254.96742,146.28653l3.12464,8.11425l-8.11425,3.12464l-3.12464,-8.11425z"/><path d="M259.94928,135.0651l3.12464,8.11425l-8.11425,3.12463l-3.12464,-8.11425z"/></g></g></g><g><g><g><path d="M273.69602,194.95967l8.11425,-3.12464l3.12464,8.11425l-8.11425,3.12464z"/><path d="M262.47458,189.9778l8.11425,-3.12464l3.12463,8.11425l-8.11425,3.12464z"/></g><g><path d="M251.25415,184.99639l8.11425,-3.12464l3.12464,8.11425l-8.11425,3.12464z"/><path d="M240.03271,180.01452l8.11425,-3.12464l3.12463,8.11425l-8.11425,3.12464z"/></g></g><g><g><path d="M228.7284,174.99587l8.11425,-3.12464l3.12464,8.11425l-8.11425,3.12464z"/><path d="M217.50697,170.014l8.11425,-3.12464l3.12463,8.11425l-8.11425,3.12464z"/></g><g><path d="M206.28653,165.03258l8.11425,-3.12464l3.12464,8.11425l-8.11425,3.12464z"/><path d="M195.0651,160.05072l8.11425,-3.12464l3.12463,8.11425l-8.11425,3.12464z"/></g></g></g></g></g></g><g><g><g><g><g><g><path d="M204.05528,171.803l-7.36146,4.62745l-4.62745,-7.36146l7.36146,-4.62745z"/><path d="M216.02558,174.53276l-7.36146,4.62745l-4.62744,-7.36146l7.36146,-4.62745z"/></g><g><path d="M227.9948,177.26228l-7.36146,4.62745l-4.62745,-7.36146l7.36146,-4.62745z"/><path d="M239.96511,179.99204l-7.36146,4.62745l-4.62745,-7.36146l7.36146,-4.62745z"/></g></g><g><g><path d="M252.0238,182.74196l-7.36146,4.62745l-4.62745,-7.36146l7.36146,-4.62745z"/><path d="M263.9941,185.47173l-7.36146,4.62745l-4.62745,-7.36146l7.36146,-4.62745z"/></g><g><path d="M275.96333,188.20125l-7.36146,4.62745l-4.62745,-7.36146l7.36146,-4.62745z"/><path d="M287.93363,190.93101l-7.36146,4.62745l-4.62745,-7.36146l7.36146,-4.62745z"/></g></g></g><g><g><g><path d="M231.803,215.94472l4.62745,7.36146l-7.36146,4.62745l-4.62745,-7.36146z"/><path d="M234.53276,203.97442l4.62745,7.36146l-7.36146,4.62744l-4.62745,-7.36146z"/></g><g><path d="M237.26228,192.0052l4.62745,7.36146l-7.36146,4.62745l-4.62745,-7.36146z"/><path d="M239.99204,180.03489l4.62745,7.36146l-7.36146,4.62745l-4.62745,-7.36146z"/></g></g><g><g><path d="M242.74196,167.9762l4.62745,7.36146l-7.36146,4.62745l-4.62745,-7.36146z"/><path d="M245.47173,156.0059l4.62745,7.36146l-7.36146,4.62745l-4.62745,-7.36146z"/></g><g><path d="M248.20125,144.03667l4.62745,7.36146l-7.36146,4.62745l-4.62745,-7.36146z"/><path d="M250.93101,132.06637l4.62745,7.36146l-7.36146,4.62745l-4.62745,-7.36146z"/></g></g></g></g><g><g><g><g><path d="M208.78708,199.6206l-1.93323,8.47744l-8.47744,-1.93324l1.93324,-8.47744z"/><path d="M219.18161,193.08655l-1.93324,8.47745l-8.47744,-1.93324l1.93324,-8.47744z"/></g><g><path d="M229.57518,186.5531l-1.93324,8.47744l-8.47744,-1.93324l1.93324,-8.47744z"/><path d="M239.96971,180.01905l-1.93324,8.47744l-8.47744,-1.93324l1.93323,-8.47744z"/></g></g><g><g><path d="M250.44096,173.43675l-1.93323,8.47744l-8.47744,-1.93323l1.93324,-8.47744z"/><path d="M260.83549,166.90271l-1.93324,8.47744l-8.47744,-1.93324l1.93324,-8.47744z"/></g><g><path d="M271.22907,160.36925l-1.93324,8.47744l-8.47744,-1.93323l1.93324,-8.47745z"/><path d="M281.62359,153.8352l-1.93324,8.47744l-8.47743,-1.93324l1.93323,-8.47744z"/></g></g></g><g><g><g><path d="M259.6206,211.21292l8.47744,1.93323l-1.93324,8.47744l-8.47744,-1.93324z"/><path d="M253.08655,200.81839l8.47745,1.93324l-1.93324,8.47744l-8.47744,-1.93324z"/></g><g><path d="M246.5531,190.42482l8.47744,1.93324l-1.93324,8.47744l-8.47744,-1.93324z"/><path d="M240.01905,180.03029l8.47744,1.93324l-1.93324,8.47744l-8.47744,-1.93323z"/></g></g><g><g><path d="M233.43675,169.55904l8.47744,1.93323l-1.93323,8.47744l-8.47744,-1.93324z"/><path d="M226.90271,159.16451l8.47744,1.93324l-1.93324,8.47744l-8.47744,-1.93324z"/></g><g><path d="M220.36925,148.77093l8.47744,1.93324l-1.93323,8.47744l-8.47745,-1.93324z"/><path d="M213.8352,138.37641l8.47744,1.93324l-1.93324,8.47743l-8.47744,-1.93323z"/></g></g></g></g></g><g><g><g><g><g><path d="M203.68076,186.33462l-5.00049,7.11333l-7.11333,-5.0005l5.0005,-7.11333z"/><path d="M215.77579,184.22507l-5.00049,7.11333l-7.11332,-5.0005l5.00049,-7.11333z"/></g><g><path d="M227.86971,182.1157l-5.00049,7.11333l-7.11333,-5.0005l5.0005,-7.11332z"/><path d="M239.96475,180.00615l-5.0005,7.11333l-7.11332,-5.0005l5.00049,-7.11333z"/></g></g><g><g><path d="M252.14907,177.88102l-5.00049,7.11333l-7.11333,-5.0005l5.0005,-7.11333z"/><path d="M264.2441,175.77148l-5.0005,7.11332l-7.11332,-5.0005l5.00049,-7.11333z"/></g><g><path d="M276.33803,173.66211l-5.00049,7.11333l-7.11333,-5.0005l5.00049,-7.11333z"/><path d="M288.43306,171.55255l-5.0005,7.11333l-7.11332,-5.0005l5.00049,-7.11333z"/></g></g></g><g><g><g><path d="M246.33462,216.31924l7.11333,5.00049l-5.0005,7.11333l-7.11333,-5.0005z"/><path d="M244.22507,204.22421l7.11333,5.00049l-5.0005,7.11332l-7.11333,-5.00049z"/></g><g><path d="M242.1157,192.13029l7.11333,5.00049l-5.0005,7.11333l-7.11332,-5.0005z"/><path d="M240.00615,180.03525l7.11333,5.0005l-5.0005,7.11332l-7.11333,-5.00049z"/></g></g><g><g><path d="M237.88102,167.85093l7.11333,5.00049l-5.0005,7.11333l-7.11333,-5.0005z"/><path d="M235.77148,155.7559l7.11332,5.0005l-5.0005,7.11332l-7.11333,-5.00049z"/></g><g><path d="M233.66211,143.66197l7.11333,5.00049l-5.0005,7.11333l-7.11333,-5.00049z"/><path d="M231.55255,131.56694l7.11333,5.0005l-5.0005,7.11332l-7.11333,-5.00049z"/></g></g></g></g><g><g><g><g><path d="M218.79768,210.16083l1.494,8.56576l-8.56577,1.494l-1.494,-8.56577z"/><path d="M225.85847,200.11666l1.494,8.56577l-8.56577,1.494l-1.494,-8.56576z"/></g><g><path d="M232.91863,190.07344l1.494,8.56576l-8.56577,1.494l-1.494,-8.56577z"/><path d="M239.97941,180.02926l1.494,8.56577l-8.56576,1.494l-1.494,-8.56576z"/></g></g><g><g><path d="M247.09235,169.91097l1.494,8.56576l-8.56577,1.494l-1.494,-8.56577z"/><path d="M254.15315,159.86679l1.494,8.56577l-8.56577,1.494l-1.494,-8.56576z"/></g><g><path d="M261.2133,149.82357l1.494,8.56576l-8.56577,1.494l-1.494,-8.56577z"/><path d="M268.27409,139.7794l1.494,8.56577l-8.56577,1.494l-1.494,-8.56576z"/></g></g></g><g><g><g><path d="M270.16083,201.20232l8.56576,-1.494l1.494,8.56577l-8.56577,1.494z"/><path d="M260.11666,194.14153l8.56577,-1.494l1.494,8.56577l-8.56576,1.494z"/></g><g><path d="M250.07344,187.08137l8.56576,-1.494l1.494,8.56577l-8.56577,1.494z"/><path d="M240.02926,180.02059l8.56577,-1.494l1.494,8.56576l-8.56576,1.494z"/></g></g><g><g><path d="M229.91097,172.90765l8.56576,-1.494l1.494,8.56577l-8.56577,1.494z"/><path d="M219.86679,165.84685l8.56577,-1.494l1.494,8.56577l-8.56576,1.494z"/></g><g><path d="M209.82357,158.7867l8.56576,-1.494l1.494,8.56577l-8.56577,1.494z"/><path d="M199.7794,151.72591l8.56577,-1.494l1.494,8.56577l-8.56576,1.494z"/></g></g></g></g></g></g></g></g></g></svg>