<svg version="1.1" xmlns="http://www.w3.org/2000/svg" xmlns:xlink="http://www.w3.org/1999/xlink" width="91.82588" height="91.82588" viewBox="0,0,91.82588,91.82588"><defs><linearGradient x1="230.6633" y1="180.57695" x2="245.99599" y2="180.57695" gradientUnits="userSpaceOnUse" id="color-1"><stop offset="0" stop-color="#2fff00" stop-opacity="0.2"/><stop offset="1" stop-color="#ff0000"/></linearGradient><linearGradient x1="199.81216" y1="180.57695" x2="215.14485" y2="180.57695" gradientUnits="userSpaceOnUse" id="color-2"><stop offset="0" stop-color="#ff0000"/><stop offset="1" stop-color="#2fff00" stop-opacity="0.2"/></linearGradient></defs><g transform="translate(-189.86518,-133.55933)"><g data-paper-data="{&quot;isPaintingLayer&quot;:true}" fill-rule="nonzero" stroke-width="0" stroke-linecap="butt" stroke-linejoin="miter" stroke-miterlimit="10" stroke-dasharray="" stroke-dashoffset="0" style="mix-blend-mode: normal"><g fill-opacity="0.48627" fill="#2fff00" stroke="#ff450a"><g><g><path d="M214.76848,196.8417l-0.26543,-2.82773l2.82773,-0.26543l0.26543,2.82773z"/><path d="M203.44187,197.9049l-0.26543,-2.82773l2.82773,-0.26543l0.26543,2.82773z"/></g><g><path d="M211.4013,191.44455l-2.82773,0.26543l-0.26543,-2.82773l2.82773,-0.26543z"/><path d="M212.46451,202.77118l-2.82773,0.26543l-0.26543,-2.82773l2.82773,-0.26543z"/></g><g><path d="M208.00537,192.01036l-1.81182,2.1872l-2.1872,-1.81183l1.81182,-2.18719z"/><path d="M216.7663,199.26769l-1.81182,2.18719l-2.18721,-1.81182l1.81182,-2.1872z"/></g><g><path d="M206.56997,198.20767l2.1872,1.81182l-1.81183,2.1872l-2.18719,-1.81182z"/><path d="M213.8273,189.44675l2.18719,1.81182l-1.81182,2.18721l-2.1872,-1.81182z"/></g></g><path d="M206.19355,194.19757l1.81182,-2.1872l0.5682,-0.30037l2.82773,-0.26543l0.61417,0.18939l2.1872,1.81182l0.30037,0.5682l0.26543,2.82773l-0.18939,0.61417l-1.81182,2.1872l-0.5682,0.30037l-2.82773,0.26543l-0.61417,-0.18939l-2.1872,-1.81182l-0.30037,-0.5682l-0.26543,-2.82773zM210.63768,198.31184c1.37467,-0.12904 2.38445,-1.34803 2.25542,-2.7227c-0.12904,-1.37467 -1.34803,-2.38445 -2.7227,-2.25542c-1.37467,0.12904 -2.38445,1.34803 -2.25542,2.7227c0.12904,1.37467 1.34803,2.38445 2.7227,2.25542z"/></g><g fill-opacity="0.48627" fill="#2fff00" stroke="#ff450a"><g><g><path d="M236.31609,179.55832l-1.70956,-2.26802l2.26803,-1.70956l1.70956,2.26802z"/><path d="M227.23141,186.40603l-1.70956,-2.26802l2.26803,-1.70956l1.70956,2.26802z"/></g><g><path d="M230.61792,176.73027l-2.26802,1.70956l-1.70956,-2.26803l2.26802,-1.70956z"/><path d="M237.46564,185.81496l-2.26802,1.70956l-1.70956,-2.26803l2.26802,-1.70956z"/></g><g><path d="M228.02378,178.99366l-0.3949,2.81258l-2.81258,-0.3949l0.3949,-2.81257z"/><path d="M239.28968,180.57543l-0.3949,2.81257l-2.81258,-0.39489l0.3949,-2.81258z"/></g><g><path d="M230.05326,185.0226l2.81258,0.3949l-0.3949,2.81258l-2.81257,-0.3949z"/><path d="M231.63504,173.75669l2.81257,0.3949l-0.39489,2.81258l-2.81258,-0.3949z"/></g></g><path d="M227.62888,181.80624l0.3949,-2.81258l0.32612,-0.55382l2.26802,-1.70956l0.62222,-0.161l2.81258,0.3949l0.55382,0.32612l1.70956,2.26802l0.161,0.62222l-0.3949,2.81258l-0.32612,0.55382l-2.26802,1.70956l-0.62222,0.161l-2.81258,-0.3949l-0.55382,-0.32612l-1.70956,-2.26802zM233.57081,182.97713c1.10257,-0.83108 1.32266,-2.39862 0.49158,-3.50119c-0.83108,-1.10257 -2.39862,-1.32266 -3.50119,-0.49158c-1.10257,0.83108 -1.32266,2.39862 -0.49158,3.50119c0.83108,1.10257 2.39862,1.32266 3.50119,0.49158z"/></g><g fill-opacity="0.48627" fill="#2fff00" stroke="#ff450a"><g><g><path d="M221.32111,167.41346v-2.84016h2.84016v2.84016z"/><path d="M209.94471,167.41346v-2.84016h2.84016v2.84016z"/></g><g><path d="M218.47307,161.72526h-2.84016v-2.84016h2.84016z"/><path d="M218.47307,173.10167h-2.84016v-2.84016h2.84016z"/></g><g><path d="M215.03913,161.97122l-2.0083,2.0083l-2.0083,-2.0083l2.0083,-2.0083z"/><path d="M223.08346,170.01555l-2.0083,2.0083l-2.0083,-2.0083l2.0083,-2.0083z"/></g><g><path d="M213.03083,168.00725l2.0083,2.0083l-2.0083,2.0083l-2.0083,-2.0083z"/><path d="M221.07516,159.96291l2.0083,2.0083l-2.0083,2.0083l-2.0083,-2.0083z"/></g></g><path d="M213.03083,163.97952l2.0083,-2.0083l0.59378,-0.24596h2.84016l0.59378,0.24596l2.0083,2.0083l0.24596,0.59378v2.84016l-0.24596,0.59378l-2.0083,2.0083l-0.59378,0.24596h-2.84016l-0.59378,-0.24596l-2.0083,-2.0083l-0.24596,-0.59378v-2.84016zM217.07099,168.49113c1.38071,0 2.5,-1.11929 2.5,-2.5c0,-1.38071 -1.11929,-2.5 -2.5,-2.5c-1.38071,0 -2.5,1.11929 -2.5,2.5c0,1.38071 1.11929,2.5 2.5,2.5z"/></g><path d="M215.14145,216.68539v-72.21689h15.51993v72.21689z" fill-opacity="0.2" fill="#2eff00" stroke="#00ff08"/><path d="M230.6633,216.68539v-72.21689h15.33269v72.21689z" fill="url(#color-1)" stroke="#00ff08"/><path d="M199.81216,216.68539v-72.21689h15.33268v72.21689z" fill="url(#color-2)" stroke="#00ff08"/><path d="M196.59064,153.04334v-10.67269h52.98894v10.67269z" fill="#00ff08" stroke="#ff450a"/><path d="M196.59064,218.95187v-10.67269h52.98894v10.67269z" fill="#00ff08" stroke="#ff450a"/><path d="M189.86518,225.3852v-91.82588h91.82588v91.82588z" fill="none" stroke="#00ff08"/></g></g></svg>