<svg version="1.1" xmlns="http://www.w3.org/2000/svg" xmlns:xlink="http://www.w3.org/1999/xlink" width="147.66984" height="107.60875" viewBox="0,0,147.66984,107.60875"><g transform="translate(-166.16508,-136.39125)"><g data-paper-data="{&quot;isPaintingLayer&quot;:true}" fill-rule="nonzero" stroke-linecap="butt" stroke-linejoin="miter" stroke-miterlimit="10" stroke-dasharray="" stroke-dashoffset="0" style="mix-blend-mode: normal"><path d="M166.16508,243.91335v-107.5221h147.66984v107.5221z" fill="#ffffff" stroke="none" stroke-width="0"/><path d="M172,220.75v-81.5h136v81.5z" fill="#bb0000" stroke="none" stroke-width="0"/><path d="M167.15254,222.69539v-85.39073h145.69492v85.39073zM306.30245,213.7052c0,-13.76894 0,-59.48565 0,-66.96176c0,-2.02466 -1.62431,-3.73601 -3.76958,-3.73863c-11.22048,-0.01366 -105.05287,-0.12843 -124.32303,-0.15201c-2.22047,-0.00271 -3.44984,1.24221 -3.448,3.40826c0.01142,13.27624 0.05256,61.10025 0.05867,68.21596c0.0015,1.73532 1.24511,3.14875 3.48587,3.14875c19.34968,0 113.14675,0 124.27487,0c2.11911,0 3.72116,-1.44315 3.72116,-3.92057z" fill="#ffffff" stroke="none" stroke-width="0"/><path d="M306.3356,213.7221c0,2.47741 -1.60335,3.9229 -3.72246,3.9229c-11.12813,0 -104.98898,-0.00004 -124.33866,-0.00004c-2.24076,0 -3.48547,-1.41541 -3.48697,-3.15073c-0.00611,-7.11571 -0.04731,-54.974 -0.05873,-68.25025c-0.00185,-2.16606 1.22867,-3.41303 3.44915,-3.41032c19.27016,0.02359 113.16639,0.13834 124.38687,0.152c2.14527,0.00262 3.77083,1.71624 3.77083,3.74091c0,7.47612 0.00001,53.22659 0.00001,66.99554z" data-paper-data="{&quot;noHover&quot;:false,&quot;origItem&quot;:[&quot;Path&quot;,{&quot;applyMatrix&quot;:true,&quot;segments&quot;:[[[390.11262,450.54452],[0,0],[0,-36.98842]],[[390.11262,270.66074],[0,20.08358],[0,-5.43898]],[[379.98616,260.6174],[5.76298,0.00704],[-30.1423,-0.0367]],[[46.00902,260.20904],[51.7667,0.06336],[-5.965,-0.00728]],[[36.74644,269.36488],[-0.00496,-5.81882],[0.03068,35.66484]],[[36.90406,452.6179],[-0.01642,-19.1154],[0.00402,4.6617]],[[46.26838,461.0766],[-6.0195,0],[51.98032,0]],[[380.11614,461.0766],[-29.89422,0],[5.6927,0]],[[390.11254,450.54452],[0,6.65524],[0,0]]],&quot;closed&quot;:true,&quot;fillColor&quot;:[0,0,0,1]}]}" fill="#ffffff" stroke="#dbdbdb" stroke-width="0.5"/><text transform="translate(176.30795,237.75) scale(0.5,0.5)" font-size="40" xml:space="preserve" fill="#000000" fill-rule="nonzero" stroke="#000000" stroke-width="1" stroke-linecap="butt" stroke-linejoin="miter" stroke-miterlimit="10" stroke-dasharray="" stroke-dashoffset="0" font-family="Sans Serif" font-weight="normal" text-anchor="start" style="mix-blend-mode: normal"><tspan x="0" dy="0">Алга би лайк</tspan></text><path d="M204.93775,192.57441v-37.61395h49.71089v37.61395l-24.57192,15.87724z" fill="#8c00ff" stroke="none" stroke-width="0"/><path d="M243.94144,175.11842c0.75651,0.75651 0.86553,1.51302 0.74269,2.13098c1.5875,1.4636 3.47576,2.66116 4.6529,4.45774c0.74144,1.1316 0.9544,2.53182 1.4316,3.79773l0.14252,2.53318c0,0 0,2.5 -2.5,2.5c-2.5,0 -2.5,-2.5 -2.5,-2.5l0.14252,-0.86908c-1.14251,-3.59012 -3.26455,-4.49324 -5.749,-7.21661c-2.12544,0.33758 -4.0408,0.95254 -6.21,1.28729c-4.32149,0.66689 -8.73021,0.30378 -13.10313,1.04369c-0.5561,0.55957 -1.10644,1.12433 -1.61203,1.72819c-0.21736,0.25961 -0.74789,0.47646 -0.63253,0.79478c0.31686,0.87431 1.69567,1.26894 1.71738,2.19864c0.03375,1.44498 -1.04776,2.69418 -1.57164,4.04127l-2.87237,1.66381c0,0 -2.40381,0.6868 -3.09061,-1.71701c-0.6868,-2.40381 1.71701,-3.09061 1.71701,-3.09061l-0.22616,0.90775c0.35819,-0.41705 1.17723,-0.71106 1.07457,-1.25114c-0.16087,-0.84632 -1.62449,-1.10033 -1.68489,-1.95968c-0.10066,-1.43223 0.60747,-2.83948 1.25762,-4.1196c1.09525,-2.15651 2.89849,-3.01856 4.35229,-4.82004c3.06659,-3.79995 5.7382,-9.37784 6.38718,-14.24354c-0.26399,-0.63213 -0.32218,-1.48647 0.4443,-2.42328c1.58309,-1.93489 3.51799,-0.3518 3.51799,-0.3518c4.92728,4.07009 8.47177,9.65075 12.39318,14.69303c0.5425,-0.01964 1.16054,0.16625 1.77859,0.78429zM233.24132,176.31301c1.22839,-0.19476 2.41231,-0.47146 3.60142,-0.73954c-2.21407,-3.00012 -4.37603,-6.12972 -6.87717,-8.86391c-0.9828,3.52988 -2.59394,7.07025 -4.56972,10.16488c2.63719,-0.11858 5.26924,-0.15298 7.84547,-0.56143z" fill="#ffffff" stroke="none" stroke-width="0.5"/></g></g></svg>