<svg version="1.1" xmlns="http://www.w3.org/2000/svg" xmlns:xlink="http://www.w3.org/1999/xlink" width="63.23227" height="63.23227" viewBox="0,0,63.23227,63.23227"><defs><radialGradient cx="212.1875" cy="180.75001" r="29.86614" gradientUnits="userSpaceOnUse" id="color-1"><stop offset="0" stop-color="#ff00b8" stop-opacity="0.50196"/><stop offset="1" stop-color="#ff00b8" stop-opacity="0"/></radialGradient><radialGradient cx="241.31251" cy="208.37501" r="29.86614" gradientUnits="userSpaceOnUse" id="color-2"><stop offset="0" stop-color="#0047ff" stop-opacity="0.50196"/><stop offset="1" stop-color="#0047ff" stop-opacity="0"/></radialGradient><radialGradient cx="268.18751" cy="178.75002" r="29.86613" gradientUnits="userSpaceOnUse" id="color-3"><stop offset="0" stop-color="#00ff47" stop-opacity="0.50196"/><stop offset="1" stop-color="#00ff47" stop-opacity="0"/></radialGradient><radialGradient cx="239.31253" cy="151.50001" r="29.86614" gradientUnits="userSpaceOnUse" id="color-4"><stop offset="0" stop-color="#ffb800" stop-opacity="0.50196"/><stop offset="1" stop-color="#ffb800" stop-opacity="0"/></radialGradient><radialGradient cx="266.93754" cy="153.75001" r="29.86613" gradientUnits="userSpaceOnUse" id="color-5"><stop offset="0" stop-color="#80ff00" stop-opacity="0.50196"/><stop offset="1" stop-color="#80ff00" stop-opacity="0"/></radialGradient><radialGradient cx="212.93754" cy="207.00003" r="29.86613" gradientUnits="userSpaceOnUse" id="color-6"><stop offset="0" stop-color="#8000ff" stop-opacity="0.50196"/><stop offset="1" stop-color="#8000ff" stop-opacity="0"/></radialGradient><radialGradient cx="266.81254" cy="207.12503" r="29.86613" gradientUnits="userSpaceOnUse" id="color-7"><stop offset="0" stop-color="#00ffff" stop-opacity="0.50196"/><stop offset="1" stop-color="#00ffff" stop-opacity="0"/></radialGradient><radialGradient cx="215.18757" cy="154.12501" r="29.86614" gradientUnits="userSpaceOnUse" id="color-8"><stop offset="0" stop-color="#ff0000" stop-opacity="0.50196"/><stop offset="1" stop-color="#ff0000" stop-opacity="0"/></radialGradient></defs><g transform="translate(-208.38393,-148.3839)"><g data-paper-data="{&quot;isPaintingLayer&quot;:true}" fill-rule="nonzero" stroke-linejoin="miter" stroke-miterlimit="10" stroke-dasharray="" stroke-dashoffset="0" style="mix-blend-mode: normal"><path d="M210.13392,203.42323c0,-12.28699 0,-38.49207 0,-45.75c0,-3.64201 3.69413,-7.53933 7.19529,-7.53933c7.16044,0 33.57752,0 46,0c3.99056,0 6.53698,3.45658 6.53698,6.78933c0,7.00676 0,33.47237 0,46.125c0,4.15308 -2.75938,6.81794 -7.03698,6.81794c-12.69066,0 -38.74424,0 -45.75,0c-3.39774,0 -6.94529,-2.50759 -6.94529,-6.44294z" fill="url(#color-1)" stroke="none" stroke-width="0" stroke-linecap="butt"/><path d="M210.13393,203.42323c0,-12.28699 0,-38.49207 0,-45.75c0,-3.64201 3.69413,-7.53933 7.19529,-7.53933c7.16044,0 33.57752,0 46,0c3.99056,0 6.53698,3.45658 6.53698,6.78933c0,7.00676 0,33.47237 0,46.125c0,4.15308 -2.75938,6.81794 -7.03698,6.81794c-12.69066,0 -38.74424,0 -45.75,0c-3.39774,0 -6.94529,-2.50759 -6.94529,-6.44294z" fill="url(#color-2)" stroke="none" stroke-width="0" stroke-linecap="butt"/><path d="M210.13394,203.42323c0,-12.28699 0,-38.49207 0,-45.75c0,-3.64201 3.69413,-7.53933 7.19529,-7.53933c7.16044,0 33.57752,0 46,0c3.99056,0 6.53698,3.45658 6.53698,6.78933c0,7.00676 0,33.47237 0,46.125c0,4.15308 -2.75938,6.81794 -7.03698,6.81794c-12.69066,0 -38.74424,0 -45.75,0c-3.39774,0 -6.94529,-2.50759 -6.94529,-6.44294z" fill="url(#color-3)" stroke="none" stroke-width="0" stroke-linecap="butt"/><path d="M210.13395,203.42324c0,-12.28699 0,-38.49207 0,-45.75c0,-3.64201 3.69413,-7.53933 7.19529,-7.53933c7.16044,0 33.57752,0 46,0c3.99056,0 6.53698,3.45658 6.53698,6.78933c0,7.00676 0,33.47237 0,46.125c0,4.15308 -2.75938,6.81794 -7.03698,6.81794c-12.69066,0 -38.74424,0 -45.75,0c-3.39774,0 -6.94529,-2.50759 -6.94529,-6.44294z" fill="url(#color-4)" stroke="none" stroke-width="0" stroke-linecap="butt"/><path d="M210.13394,203.42323c0,-12.28699 0,-38.49207 0,-45.75c0,-3.64201 3.69413,-7.53933 7.19529,-7.53933c7.16044,0 33.57752,0 46,0c3.99056,0 6.53698,3.45658 6.53698,6.78933c0,7.00676 0,33.47237 0,46.125c0,4.15308 -2.75938,6.81794 -7.03698,6.81794c-12.69066,0 -38.74424,0 -45.75,0c-3.39774,0 -6.94529,-2.50759 -6.94529,-6.44294z" fill="url(#color-5)" stroke="none" stroke-width="0" stroke-linecap="butt"/><path d="M210.13394,203.42324c0,-12.28699 0,-38.49207 0,-45.75c0,-3.64201 3.69413,-7.53933 7.19529,-7.53933c7.16044,0 33.57752,0 46,0c3.99056,0 6.53698,3.45658 6.53698,6.78933c0,7.00676 0,33.47237 0,46.125c0,4.15308 -2.75938,6.81794 -7.03698,6.81794c-12.69066,0 -38.74424,0 -45.75,0c-3.39774,0 -6.94529,-2.50759 -6.94529,-6.44294z" fill="url(#color-6)" stroke="none" stroke-width="0" stroke-linecap="butt"/><path d="M210.13394,203.42324c0,-12.28699 0,-38.49207 0,-45.75c0,-3.64201 3.69413,-7.53933 7.19529,-7.53933c7.16044,0 33.57752,0 46,0c3.99056,0 6.53698,3.45658 6.53698,6.78933c0,7.00676 0,33.47237 0,46.125c0,4.15308 -2.75938,6.81794 -7.03698,6.81794c-12.69066,0 -38.74424,0 -45.75,0c-3.39774,0 -6.94529,-2.50759 -6.94529,-6.44294z" fill="url(#color-7)" stroke="none" stroke-width="0" stroke-linecap="butt"/><path d="M210.13394,203.42323c0,-12.28699 0,-38.49207 0,-45.75c0,-3.64201 3.69413,-7.53933 7.19529,-7.53933c7.16044,0 33.57752,0 46,0c3.99056,0 6.53698,3.45658 6.53698,6.78933c0,7.00676 0,33.47237 0,46.125c0,4.15308 -2.75938,6.81794 -7.03698,6.81794c-12.69066,0 -38.74424,0 -45.75,0c-3.39774,0 -6.94529,-2.50759 -6.94529,-6.44294z" fill="url(#color-8)" stroke="none" stroke-width="0" stroke-linecap="butt"/><path d="M210.13394,203.42323c0,-12.28699 0,-38.49207 0,-45.75c0,-3.64201 3.69413,-7.53933 7.19529,-7.53933c7.16044,0 33.57752,0 46,0c3.99056,0 6.53698,3.45658 6.53698,6.78933c0,7.00676 0,33.47237 0,46.125c0,4.15308 -2.75938,6.81794 -7.03698,6.81794c-12.69066,0 -38.74424,0 -45.75,0c-3.39774,0 -6.94529,-2.50759 -6.94529,-6.44294z" fill="none" stroke="#ffffff" stroke-width="3.5" stroke-linecap="butt"/><path d="M217.59084,202.40926l44.81846,-44.81846" fill="none" stroke="#ffffff" stroke-width="5" stroke-linecap="round"/><path d="M217.59086,157.5908l44.81846,44.81846" data-paper-data="{&quot;index&quot;:null}" fill="none" stroke="#ffffff" stroke-width="5" stroke-linecap="round"/></g></g></svg>