<svg version="1.1" xmlns="http://www.w3.org/2000/svg" xmlns:xlink="http://www.w3.org/1999/xlink" width="570.88088" height="410.8344" viewBox="0,0,570.88088,410.8344"><g transform="translate(90.14277,50.30726)"><g data-paper-data="{&quot;isPaintingLayer&quot;:true}" fill-rule="nonzero" stroke-linejoin="miter" stroke-miterlimit="10" stroke-dasharray="" stroke-dashoffset="0" style="mix-blend-mode: normal"><g fill-opacity="0.30196" fill="#00c8ff" stroke="none" stroke-width="0" stroke-linecap="butt"><path d="M380.42072,99.59549h3.74693v47.88072h-3.74693z"/><path d="M358.35382,134.45039v-3.74693h22.07727v3.74693z"/><path d="M406.20966,130.70348v3.74693h-22.04474v-3.74693z"/></g><g fill-opacity="0.30196" fill="#00c8ff" stroke="none" stroke-width="0" stroke-linecap="butt"><path d="M126.31743,212.70609v-3.74693h32.49011v3.74693z"/><path d="M145.78175,234.77298h-3.74693v-22.07727h3.74693z"/><path d="M142.03481,186.91714h3.74693v22.04474h-3.74693z"/></g><g fill-opacity="0.30196" fill="#00c8ff" stroke="none" stroke-width="0" stroke-linecap="butt"><path d="M423.34309,158.69089v-3.74693h44.90645v3.74693z"/><path d="M458.19801,180.7578h-3.74693v-22.07727h3.74693z"/><path d="M454.45107,132.90194h3.74693v22.04474h-3.74693z"/></g><g fill-opacity="0.30196" fill="#00c8ff" stroke="none" stroke-width="0" stroke-linecap="butt"><path d="M420.42614,188.68774v3.74693h-48.41391v-3.74693z"/><path d="M385.57124,166.62085h3.74693v22.07727h-3.74693z"/><path d="M389.31817,214.47669h-3.74693v-22.04474h3.74693z"/></g><path d="M405.11355,230.10553v43.14512h-29.12776v-43.14512z" fill-opacity="0.30196" fill="#00c8ff" stroke="none" stroke-width="0" stroke-linecap="butt"/><path d="M196.37339,219.70535h-3.74693v-51.21212h3.74693z" fill-opacity="0.30196" fill="#00c8ff" stroke="none" stroke-width="0" stroke-linecap="butt"/><path d="M178.1323,74.59704v3.74693h-42.26475v-3.74693z" fill-opacity="0.30196" fill="#00c8ff" stroke="none" stroke-width="0" stroke-linecap="butt"/><path d="M192.38762,96.61832v3.74693h-21.3073v-3.74693z" fill-opacity="0.30196" fill="#00c8ff" stroke="none" stroke-width="0" stroke-linecap="butt"/><path d="M144.30251,96.61832v3.74693h-19.28603v-3.74693z" fill-opacity="0.30196" fill="#00c8ff" stroke="none" stroke-width="0" stroke-linecap="butt"/><path d="M221.26928,248.89453h-3.74693v-29.12776h3.74693z" fill-opacity="0.30196" fill="#00c8ff" stroke="none" stroke-width="0" stroke-linecap="butt"/><path d="M365.11355,317.0037v3.74693h-29.12776v-3.74693z" fill-opacity="0.30196" fill="#00c8ff" stroke="none" stroke-width="0" stroke-linecap="butt"/><path d="M441.95565,304.10893v3.74693h-22.54881v-3.74693z" fill-opacity="0.30196" fill="#00c8ff" stroke="none" stroke-width="0" stroke-linecap="butt"/><path d="M477.48196,310.42475v3.74693h-22.54881v-3.74693z" fill-opacity="0.30196" fill="#00c8ff" stroke="none" stroke-width="0" stroke-linecap="butt"/><path d="M426.95565,272.53003v3.74693h-22.54881v-3.74693z" fill-opacity="0.30196" fill="#00c8ff" stroke="none" stroke-width="0" stroke-linecap="butt"/><path d="M304.176,310.7537v3.74693h-17.76412v-3.74693z" fill-opacity="0.30196" fill="#00c8ff" stroke="none" stroke-width="0" stroke-linecap="butt"/><path d="M292.24422,292.0037v3.74693h-17.76412v-3.74693z" fill-opacity="0.30196" fill="#00c8ff" stroke="none" stroke-width="0" stroke-linecap="butt"/><path d="M275.30053,248.89453h-3.74693v-25.66479l-21.03651,-0.03379l-0.04608,-3.42917h24.82952z" fill-opacity="0.30196" fill="#00c8ff" stroke="none" stroke-width="0" stroke-linecap="butt"/><path d="M61.48291,134.52606v-32.60186h34.19999v32.60186z" fill-opacity="0.30196" fill="#00c8ff" stroke="none" stroke-width="0" stroke-linecap="butt"/><path d="M252.61933,156.89989v-49.22242h50.82055v49.22242z" fill-opacity="0.30196" fill="#00c8ff" stroke="none" stroke-width="0" stroke-linecap="butt"/><path d="M45.5016,358.48227v-72.2355h32.28224v72.2355z" fill-opacity="0.30196" fill="#00c8ff" stroke="none" stroke-width="0" stroke-linecap="butt"/><path d="M404.76137,221.1448v-30.36448h73.83363v30.36448z" fill-opacity="0.30196" fill="#00c8ff" stroke="none" stroke-width="0" stroke-linecap="butt"/><path d="M218.0997,285.51509v-35.44999h54.65607v35.44999z" fill-opacity="0.30196" fill="#00c8ff" stroke="none" stroke-width="0" stroke-linecap="butt"/><path d="M228.45079,120.5577h-103.10142v-2.31493h103.10142z" fill="#00c9ff" stroke="#00c9ff" stroke-width="1.5" stroke-linecap="butt"/><path d="" data-paper-data="{&quot;index&quot;:null}" fill="#0a00ff" stroke="#0a00ff" stroke-width="1.5" stroke-linecap="butt"/><path d="M228.65081,43.55767h-134.38713v-2.31493h134.38713z" fill="#00c9ff" stroke="#00c9ff" stroke-width="1.5" stroke-linecap="butt"/><path d="M226.24938,157.85279v-116.31285h2.31493v116.31285z" fill="#00c9ff" stroke="#00c9ff" stroke-width="1.5" stroke-linecap="butt"/><path d="M251.29697,157.69179v-116.31285h2.31493v116.31285z" fill="#00c9ff" stroke="#00c9ff" stroke-width="1.5" stroke-linecap="butt"/><path d="M286.45072,-47.24232h-92.90142v-2.31493h92.90142z" fill="#00c9ff" stroke="#00c9ff" stroke-width="1.5" stroke-linecap="butt"/><path d="M195.75755,-49.45048v92.90142h-2.31493v-92.90142z" fill="#00c9ff" stroke="#00c9ff" stroke-width="1.5" stroke-linecap="butt"/><path d="M286.55746,-49.45048v92.90142h-2.31493v-92.90142z" fill="#00c9ff" stroke="#00c9ff" stroke-width="1.5" stroke-linecap="butt"/><path d="M479.16509,43.55767h-227.41571v-2.31493h227.41571z" fill="#00c9ff" stroke="#00c9ff" stroke-width="1.5" stroke-linecap="butt"/><path d="M228.45079,157.95764h-35.30142v-2.31493h35.30142z" fill="#00c9ff" stroke="#00c9ff" stroke-width="1.5" stroke-linecap="butt"/><path d="M161.75752,118.3495v68.90142h-2.31493v-68.90142z" fill="#00c9ff" stroke="#00c9ff" stroke-width="1.5" stroke-linecap="butt"/><path d="M228.45079,187.15778h-68.90142v-2.31493h68.90142z" fill="#00c9ff" stroke="#00c9ff" stroke-width="1.5" stroke-linecap="butt"/><path d="M94.11604,71.6539v-30.11394h2.31493v30.11394z" fill="#00c9ff" stroke="#00c9ff" stroke-width="1.5" stroke-linecap="butt"/><path d="M125.31604,212.11482v-151.77475h2.31493v151.77475z" fill="#00c9ff" stroke="#00c9ff" stroke-width="1.5" stroke-linecap="butt"/><path d="M155.74456,101.99578v-59.65571h2.31493v59.65571z" fill="#00c9ff" stroke="#00c9ff" stroke-width="1.5" stroke-linecap="butt"/><path d="M190.81604,118.99578v-76.5307h2.31493v76.53071z" fill="#00c9ff" stroke="#00c9ff" stroke-width="1.5" stroke-linecap="butt"/><path d="M94.11604,211.88175v-110.74158h2.31493v110.74158z" fill="#00c9ff" stroke="#00c9ff" stroke-width="1.5" stroke-linecap="butt"/><path d="M96.4508,103.15768h-35.10142v-2.31493h35.10142z" fill="#00c9ff" stroke="#00c9ff" stroke-width="1.5" stroke-linecap="butt"/><path d="M96.4508,43.55767h-95.28142v-2.31493h95.28142z" fill="#00c9ff" stroke="#00c9ff" stroke-width="1.5" stroke-linecap="butt"/><path d="M61.31604,250.33872v-208.59856h2.31493v208.59856z" fill="#00c9ff" stroke="#00c9ff" stroke-width="1.5" stroke-linecap="butt"/><path d="M96.4508,250.43871h-35.10142v-2.31493h35.10142z" fill="#00c9ff" stroke="#00c9ff" stroke-width="1.5" stroke-linecap="butt"/><path d="M319.49834,80.80751h-66.64904v-2.31493h66.64904z" fill="#00c9ff" stroke="#00c9ff" stroke-width="1.5" stroke-linecap="butt"/><path d="M381.15412,109.27912v-67.90015h2.31493v67.90016z" fill="#00c9ff" stroke="#00c9ff" stroke-width="1.5" stroke-linecap="butt"/><path d="M451.62938,80.80751h-103.70857v-2.31493h103.70857z" fill="#00c9ff" stroke="#00c9ff" stroke-width="1.5" stroke-linecap="butt"/><path d="M125.31604,358.92002v-74.50844h2.31493v74.50844z" fill="#00c9ff" stroke="#00c9ff" stroke-width="1.5" stroke-linecap="butt"/><path d="M305.32572,250.43866h-145.97642v-2.31493h145.97642z" fill="#00c9ff" stroke="#00c9ff" stroke-width="1.5" stroke-linecap="butt"/><path d="M479.2008,359.18872h-478.17285v-2.31493h478.17285z" fill="#ff5c00" stroke="#ff5c00" stroke-width="1.5" stroke-linecap="butt"/><path d="M1.17311,357.67205v-164.61838l2.31493,0.00661v164.61176z" fill="#00c9ff" stroke="#00c9ff" stroke-width="1.5" stroke-linecap="butt"/><path d="M1.17311,41.74008h2.31493v125.35942c-0.77165,0.00013 -1.54331,0.00334 -2.31493,0.00958z" fill="#00c9ff" stroke="#00c9ff" stroke-width="1.5" stroke-linecap="butt"/><path d="M44.72376,359.30752v-73.75392h2.31493v73.75392z" fill="#00c9ff" stroke="#00c9ff" stroke-width="1.5" stroke-linecap="butt"/><path d="M79.77214,286.66544h-35.04343v-2.31493h35.04343z" fill="#00c9ff" stroke="#00c9ff" stroke-width="1.5" stroke-linecap="butt"/><path d="M77.46358,359.77715v-73.86363h2.31493v73.86363z" fill="#00c9ff" stroke="#00c9ff" stroke-width="1.5" stroke-linecap="butt"/><path d="M30.89938,250.67196v-55.59856h2.31493v55.59856z" fill="#00c9ff" stroke="#00c9ff" stroke-width="1.5" stroke-linecap="butt"/><path d="M96.4508,135.49087h-35.10142v-2.31493h35.10142z" fill="#00c9ff" stroke="#00c9ff" stroke-width="1.5" stroke-linecap="butt"/><path d="M33.27218,195.35531h-32.09212c0.00496,-0.77154 0.00721,-1.54314 0.00823,-2.31493h32.08389z" fill="#00c9ff" stroke="#00c9ff" stroke-width="1.5" stroke-linecap="butt"/><path d="M31.03229,166.58847v-85.76523h2.31493v85.76523z" data-paper-data="{&quot;index&quot;:null}" fill="#00c9ff" stroke="#00c9ff" stroke-width="1.5" stroke-linecap="butt"/><path d="M30.97438,78.79038h32.04785v2.31493h-32.04785z" data-paper-data="{&quot;index&quot;:null}" fill="#00c9ff" stroke="#00c9ff" stroke-width="1.5" stroke-linecap="butt"/><path d="M477.67319,357.67205v-315.93189h2.31493v315.93189z" fill="#00c9ff" stroke="#00c9ff" stroke-width="1.5" stroke-linecap="butt"/><path d="M221.82579,286.65756h-96.51253v-2.31493h96.51253z" fill="#00c9ff" stroke="#00c9ff" stroke-width="1.5" stroke-linecap="butt"/><path d="M221.82579,322.05755h-96.40142v-2.31493h96.40142z" fill="#00c9ff" stroke="#00c9ff" stroke-width="1.5" stroke-linecap="butt"/><path d="M303.16238,322.44795v-91.8079h2.31493v91.8079z" fill="#00c9ff" stroke="#00c9ff" stroke-width="1.5" stroke-linecap="butt"/><path d="M272.1855,322.44795v-74.05236h2.31493v74.05236z" fill="#00c9ff" stroke="#00c9ff" stroke-width="1.5" stroke-linecap="butt"/><path d="M221.55035,284.34263h51.21467v2.31493h-51.21467z" fill="#00c9ff" stroke="#00c9ff" stroke-width="1.5" stroke-linecap="butt"/><path d="M437.84602,157.95764h-186.59293v-2.31493h186.59293z" fill="#00c9ff" stroke="#00c9ff" stroke-width="1.5" stroke-linecap="butt"/><path d="M303.16238,191.68022v-85.07178h2.31493v85.07179z" fill="#00c9ff" stroke="#00c9ff" stroke-width="1.5" stroke-linecap="butt"/><path d="M304.44597,108.9259h-53.19293v-2.31493h53.19293z" fill="#00c9ff" stroke="#00c9ff" stroke-width="1.5" stroke-linecap="butt"/><path d="M477.22938,109.60766h-35.10857v-2.31493h35.10857z" fill="#00c9ff" stroke="#00c9ff" stroke-width="1.5" stroke-linecap="butt"/><path d="M361.09603,191.70771h-57.84293v-2.31493h57.84293z" fill="#00c9ff" stroke="#00c9ff" stroke-width="1.5" stroke-linecap="butt"/><path d="M477.7627,191.70771h-73.84293v-2.31493h73.84293z" fill="#00c9ff" stroke="#00c9ff" stroke-width="1.5" stroke-linecap="butt"/><path d="M477.7627,222.45773h-73.84293v-2.31493h73.84293z" fill="#00c9ff" stroke="#00c9ff" stroke-width="1.5" stroke-linecap="butt"/><path d="M403.90786,322.55093v-131.90542h2.31493v131.90542z" fill="#00c9ff" stroke="#00c9ff" stroke-width="1.5" stroke-linecap="butt"/><path d="M477.7627,259.12424h-34.31793v-2.31493h34.31793z" fill="#00c9ff" stroke="#00c9ff" stroke-width="1.5" stroke-linecap="butt"/><path d="M440.50785,322.75095v-65.90542h2.31493v65.90542z" fill="#00c9ff" stroke="#00c9ff" stroke-width="1.5" stroke-linecap="butt"/><path d="M337.4987,304.74595v52.49195h-2.31493v-52.49195z" fill="#00c9ff" stroke="#00c9ff" stroke-width="1.5" stroke-linecap="butt"/><path d="M374.78108,357.15107v-52.49195h2.31493v52.49195z" fill="#00c9ff" stroke="#00c9ff" stroke-width="1.5" stroke-linecap="butt"/><path d="M218.06053,286.32295v-37.92736h2.31493v37.92736z" fill="#00c9ff" stroke="#00c9ff" stroke-width="1.5" stroke-linecap="butt"/><path d="M192.20023,119.63152v-77.01151h34.69208v77.01151z" fill-opacity="0.30196" fill="#00c8ff" stroke="none" stroke-width="NaN" stroke-linecap="butt"/><text transform="translate(216.48609,116.17558) rotate(-90) scale(0.47057,0.47057)" font-size="40" xml:space="preserve" fill="#00c9ff" fill-rule="nonzero" stroke="none" stroke-width="1" stroke-linecap="butt" stroke-linejoin="miter" stroke-miterlimit="10" stroke-dasharray="" stroke-dashoffset="0" font-family="Sans Serif" font-weight="normal" text-anchor="start" style="mix-blend-mode: normal"><tspan x="0" dy="0">&lt;/html&gt;</tspan></text><text transform="translate(222.25485,277.6616) scale(0.79285,0.79285)" font-size="40" xml:space="preserve" fill="#00c8ff" fill-rule="nonzero" stroke="none" stroke-width="1" stroke-linecap="butt" stroke-linejoin="miter" stroke-miterlimit="10" stroke-dasharray="" stroke-dashoffset="0" font-family="Sans Serif" font-weight="normal" text-anchor="start" style="mix-blend-mode: normal"><tspan x="0" dy="0">&lt;/&gt;</tspan></text><text transform="translate(414.98941,213.07629) scale(0.58986,0.58986)" font-size="40" xml:space="preserve" fill="#00c8ff" fill-rule="nonzero" stroke="none" stroke-width="1" stroke-linecap="butt" stroke-linejoin="miter" stroke-miterlimit="10" stroke-dasharray="" stroke-dashoffset="0" font-family="Sans Serif" font-weight="normal" text-anchor="start" style="mix-blend-mode: normal"><tspan x="0" dy="0">JSON</tspan></text><text transform="translate(67.11245,356.1728) rotate(-90) scale(0.45144,0.45144)" font-size="40" xml:space="preserve" fill="#00c9ff" fill-rule="nonzero" stroke="none" stroke-width="1" stroke-linecap="butt" stroke-linejoin="miter" stroke-miterlimit="10" stroke-dasharray="" stroke-dashoffset="0" font-family="Sans Serif" font-weight="normal" text-anchor="start" style="mix-blend-mode: normal"><tspan x="0" dy="0">student</tspan></text><text transform="translate(256.77441,140.37312) scale(0.63038,0.63038)" font-size="40" xml:space="preserve" fill="#00c8ff" fill-rule="nonzero" stroke="none" stroke-width="1" stroke-linecap="butt" stroke-linejoin="miter" stroke-miterlimit="10" stroke-dasharray="" stroke-dashoffset="0" font-family="Sans Serif" font-weight="normal" text-anchor="start" style="mix-blend-mode: normal"><tspan x="0" dy="0">404</tspan></text><text transform="translate(66.59687,132.95694) scale(1.05155,1.05155)" font-size="40" xml:space="preserve" fill="#00c8ff" fill-rule="nonzero" stroke="none" stroke-width="1" stroke-linecap="butt" stroke-linejoin="miter" stroke-miterlimit="10" stroke-dasharray="" stroke-dashoffset="0" font-family="Sans Serif" font-weight="normal" text-anchor="start" style="mix-blend-mode: normal"><tspan x="0" dy="0">+</tspan></text><g stroke-linecap="butt"><path d="M377.09603,232.95773h-41.84293v-2.31493h41.84293z" fill="#00c9ff" stroke="#00c9ff" stroke-width="1.5"/><path d="M374.78108,272.48555v-41.84293h2.31493v41.84293z" fill="#00c9ff" stroke="#00c9ff" stroke-width="1.5"/><g><path d="M337.00064,270.49271v-38.35513h39.95326v38.35513z" fill-opacity="0.30196" fill="#00c8ff" stroke="none" stroke-width="0"/><path d="M337.4987,230.71212v41.84293h-2.31493v-41.84293z" fill="#00c9ff" stroke="#00c9ff" stroke-width="1.5"/><path d="M335.1837,270.24004h41.84293v2.31493h-41.84293z" fill="#00c9ff" stroke="#00c9ff" stroke-width="1.5"/><text transform="translate(342.75391,262.29358) scale(0.712,0.712)" font-size="40" xml:space="preserve" fill="#00c9ff" fill-rule="nonzero" stroke="none" stroke-width="1" stroke-linecap="butt" stroke-linejoin="miter" stroke-miterlimit="10" stroke-dasharray="" stroke-dashoffset="0" font-family="Sans Serif" font-weight="normal" text-anchor="start" style="mix-blend-mode: normal"><tspan x="0" dy="0">Id</tspan></text></g></g><path d="M-89.89277,20.6072l2,-10" fill="none" stroke-opacity="0.01569" stroke="#009cff" stroke-width="0.5" stroke-linecap="round"/><path d="M229.1457,169.74333h-3.74693v-14.75828h3.74693z" data-paper-data="{&quot;index&quot;:null}" fill-opacity="0.30196" fill="#00c8ff" stroke="none" stroke-width="0" stroke-linecap="butt"/><path d="M275.38714,188.03919h-3.74693v-32.51486h3.74693z" fill-opacity="0.30196" fill="#00c8ff" stroke="none" stroke-width="0" stroke-linecap="butt"/><path d="M344.52722,106.00584v3.74693h-47.88072v-3.74693z" fill-opacity="0.30196" fill="#00c8ff" stroke="none" stroke-width="0" stroke-linecap="butt"/><path d="M338.9769,176.75713h-3.74693v-21.23281h3.74693z" fill-opacity="0.30196" fill="#00c8ff" stroke="none" stroke-width="0" stroke-linecap="butt"/><path d="M352.43844,192.14175h-3.74693v-21.23281h3.74693z" fill-opacity="0.30196" fill="#00c8ff" stroke="none" stroke-width="0" stroke-linecap="butt"/><path d="M124.50671,251.19546v-3.77991h34.46211v3.77991z" fill-opacity="0.30196" fill="#00c8ff" stroke="none" stroke-width="0" stroke-linecap="butt"/><path d="M125.22429,283.61941v3.8h-17.89825l-0.02663,-3.8z" fill-opacity="0.30196" fill="#00c8ff" stroke="none" stroke-width="0" stroke-linecap="butt"/><path d="M80.35762,287.41939v-3.8h16.83956l-0.02663,3.8z" fill-opacity="0.30196" fill="#00c8ff" stroke="none" stroke-width="0" stroke-linecap="butt"/><path d="M208.25937,286.24396h3.8v13.69908l-3.8,0.02038z" fill-opacity="0.30196" fill="#00c8ff" stroke="none" stroke-width="0" stroke-linecap="butt"/><path d="M171.56447,286.24396h3.8v13.69908l-3.8,0.02038z" fill-opacity="0.30196" fill="#00c8ff" stroke="none" stroke-width="0" stroke-linecap="butt"/><path d="M212.05938,320.5843h-3.8v-12.88878l3.8,0.02038z" fill-opacity="0.30196" fill="#00c8ff" stroke="none" stroke-width="0" stroke-linecap="butt"/><path d="M175.36447,320.5843h-3.8v-12.88878l3.8,0.02038z" fill-opacity="0.30196" fill="#00c8ff" stroke="none" stroke-width="0" stroke-linecap="butt"/><path d="M14.60762,297.91939v-3.8h30.08956l-0.04758,3.8z" fill-opacity="0.30196" fill="#00c8ff" stroke="none" stroke-width="0" stroke-linecap="butt"/><path d="M3.60762,315.66939v-3.8h31.08956l-0.04916,3.8z" fill-opacity="0.30196" fill="#00c8ff" stroke="none" stroke-width="0" stroke-linecap="butt"/><path d="M97.13981,300.57726v-3.8h10.15639l-0.01606,3.8z" fill-opacity="0.30196" fill="#00c8ff" stroke="none" stroke-width="0" stroke-linecap="butt"/><path d="M4.10762,251.31911v-3.8h7.63953l0.01137,3.8z" fill-opacity="0.30196" fill="#00c8ff" stroke="none" stroke-width="0" stroke-linecap="butt"/><path d="M30.55763,247.51911v3.8h-8.4479l0.01336,-3.8z" fill-opacity="0.30196" fill="#00c8ff" stroke="none" stroke-width="0" stroke-linecap="butt"/><path d="M30.17139,248.47385h3.8v18.93971l-3.8,-0.02995z" fill-opacity="0.30196" fill="#00c8ff" stroke="none" stroke-width="0" stroke-linecap="butt"/><path d="M21.72583,233.86941v3.8h-8.88213l0.01404,-3.8z" fill-opacity="0.30196" fill="#00c8ff" stroke="none" stroke-width="0" stroke-linecap="butt"/><path d="M64.38443,267.48752h-3.8v-16.83956l3.8,0.02663z" fill-opacity="0.30196" fill="#00c8ff" stroke="none" stroke-width="0" stroke-linecap="butt"/><path d="M61.02718,247.29075v3.8h-16.83956l0.02663,-3.8z" fill-opacity="0.30196" fill="#00c8ff" stroke="none" stroke-width="0" stroke-linecap="butt"/><path d="M61.02718,209.66779v3.8h-16.83956l0.02663,-3.8z" fill-opacity="0.30196" fill="#00c8ff" stroke="none" stroke-width="0" stroke-linecap="butt"/><path d="M81.02715,197.33445v3.8h-16.83956l0.02663,-3.8z" fill-opacity="0.30196" fill="#00c8ff" stroke="none" stroke-width="0" stroke-linecap="butt"/><path d="M95.3605,178.00112v3.8h-16.83956l0.02663,-3.8z" fill-opacity="0.30196" fill="#00c8ff" stroke="none" stroke-width="0" stroke-linecap="butt"/><path d="M118.21236,178.00112v3.8h-14.24697l0.02253,-3.8z" fill-opacity="0.30196" fill="#00c8ff" stroke="none" stroke-width="0" stroke-linecap="butt"/><path d="M118.21236,141.70478v3.8h-14.24697l0.02253,-3.8z" fill-opacity="0.30196" fill="#00c8ff" stroke="none" stroke-width="0" stroke-linecap="butt"/><path d="M118.21236,100.40853v3.8h-14.24697l0.02253,-3.8z" fill-opacity="0.30196" fill="#00c8ff" stroke="none" stroke-width="0" stroke-linecap="butt"/><path d="M50.69931,230.07762v3.8h-16.83956l0.02663,-3.8z" fill-opacity="0.30196" fill="#00c8ff" stroke="none" stroke-width="0" stroke-linecap="butt"/><path d="M50.69931,192.29072v3.8h-16.83956l0.02663,-3.8z" fill-opacity="0.30196" fill="#00c8ff" stroke="none" stroke-width="0" stroke-linecap="butt"/><path d="M53.85719,154.79072v3.8h-12.77257l0.0202,-3.8z" fill-opacity="0.30196" fill="#00c8ff" stroke="none" stroke-width="0" stroke-linecap="butt"/><path d="M34.01014,132.45433l0.0419,-3.8h6.94799l0.0187,3.8z" fill-opacity="0.30196" fill="#00c8ff" stroke="none" stroke-width="0" stroke-linecap="butt"/><path d="M60.93166,128.65435v3.8h-7.22441l-0.03511,-3.8z" fill-opacity="0.30196" fill="#00c8ff" stroke="none" stroke-width="0" stroke-linecap="butt"/><path d="M3.52378,86.94053v-3.8h16.83956l-0.02663,3.8z" data-paper-data="{&quot;index&quot;:null}" fill-opacity="0.30196" fill="#00c8ff" stroke="none" stroke-width="0" stroke-linecap="butt"/><path d="M3.52378,144.34608v-3.8h16.83956l-0.02663,3.8z" data-paper-data="{&quot;index&quot;:null}" fill-opacity="0.30196" fill="#00c8ff" stroke="none" stroke-width="0" stroke-linecap="butt"/><path d="M13.85165,106.76235v-3.8h16.83956l-0.02663,3.8z" data-paper-data="{&quot;index&quot;:null}" fill-opacity="0.30196" fill="#00c8ff" stroke="none" stroke-width="0" stroke-linecap="butt"/><path d="M13.85165,162.15793v-3.8h16.83956l-0.02663,3.8z" data-paper-data="{&quot;index&quot;:null}" fill-opacity="0.30196" fill="#00c8ff" stroke="none" stroke-width="0" stroke-linecap="butt"/><path d="M184.91814,286.61675h-3.8v-28.16445l3.8,-0.0419z" fill-opacity="0.30196" fill="#00c8ff" stroke="none" stroke-width="0" stroke-linecap="butt"/><path d="M203.07604,348.45889h-3.8v-28.16445l3.8,-0.0419z" fill-opacity="0.30196" fill="#00c8ff" stroke="none" stroke-width="0" stroke-linecap="butt"/><path d="M166.49705,360.301h-3.8v-28.16445l3.8,-0.0419z" fill-opacity="0.30196" fill="#00c8ff" stroke="none" stroke-width="0" stroke-linecap="butt"/><path d="M158.62689,250.67516h3.8v18.86449l-3.8,-0.02983z" fill-opacity="0.30196" fill="#00c8ff" stroke="none" stroke-width="0" stroke-linecap="butt"/><path d="M126.52058,195.10088v3.8h-7.88268l-0.01173,-3.8z" fill-opacity="0.30196" fill="#00c8ff" stroke="none" stroke-width="0" stroke-linecap="butt"/><path d="M126.52058,158.80454v3.8h-7.88268l-0.01173,-3.8z" fill-opacity="0.30196" fill="#00c8ff" stroke="none" stroke-width="0" stroke-linecap="butt"/><path d="M126.52058,117.50829v3.8h-7.88268l-0.01173,-3.8z" fill-opacity="0.30196" fill="#00c8ff" stroke="none" stroke-width="0" stroke-linecap="butt"/><path d="M95.17244,198.90089v-3.8h9.17314l-0.01451,3.8z" fill-opacity="0.30196" fill="#00c8ff" stroke="none" stroke-width="0" stroke-linecap="butt"/><path d="M95.17244,162.60457v-3.8h9.17314l-0.01451,3.8z" fill-opacity="0.30196" fill="#00c8ff" stroke="none" stroke-width="0" stroke-linecap="butt"/><path d="M244.84279,128.88787v3.8h-8.8444l0.01399,-3.8z" fill-opacity="0.30196" fill="#00c8ff" stroke="none" stroke-width="0" stroke-linecap="butt"/><path d="M251.00998,145.98763v3.8h-5.8513l-0.00871,-3.8z" fill-opacity="0.30196" fill="#00c8ff" stroke="none" stroke-width="0" stroke-linecap="butt"/><path d="M251.00998,109.69134v3.8h-5.8513l-0.00871,-3.8z" fill-opacity="0.30196" fill="#00c8ff" stroke="none" stroke-width="0" stroke-linecap="butt"/><path d="M251.00998,90.93774v3.8h-15.36381l-0.02286,-3.8z" fill-opacity="0.30196" fill="#00c8ff" stroke="none" stroke-width="0" stroke-linecap="butt"/><path d="M243.50854,64.97119v3.8h-15.93439l-0.02371,-3.8z" fill-opacity="0.30196" fill="#00c8ff" stroke="none" stroke-width="0" stroke-linecap="butt"/><path d="M227.7403,149.78765v-3.8h6.8092l-0.01077,3.8z" fill-opacity="0.30196" fill="#00c8ff" stroke="none" stroke-width="0" stroke-linecap="butt"/><path d="M227.7403,113.49135v-3.8h6.8092l-0.01077,3.8z" fill-opacity="0.30196" fill="#00c8ff" stroke="none" stroke-width="0" stroke-linecap="butt"/><path d="M95.17244,121.30828v-3.8h9.17314l-0.01451,3.8z" fill-opacity="0.30196" fill="#00c8ff" stroke="none" stroke-width="0" stroke-linecap="butt"/><path d="M422.77533,52.60333h3.8v17.57281l-3.8,-0.02779z" fill-opacity="0.30196" fill="#00c8ff" stroke="none" stroke-width="0" stroke-linecap="butt"/><path d="M439.8751,42.35562h3.8v9.72283l-3.8,0.01447z" fill-opacity="0.30196" fill="#00c8ff" stroke="none" stroke-width="0" stroke-linecap="butt"/><path d="M443.67509,81.02174h-3.8v-11.31453l3.8,0.0179z" fill-opacity="0.30196" fill="#00c8ff" stroke="none" stroke-width="0" stroke-linecap="butt"/><path d="M303.91884,251.18378v-3.86256h23.906v3.86256z" fill-opacity="0.30196" fill="#00c8ff" stroke="none" stroke-width="0" stroke-linecap="butt"/><path d="M458.96404,106.30076v3.74693h-47.88072v-3.74693z" fill-opacity="0.30196" fill="#00c8ff" stroke="none" stroke-width="0" stroke-linecap="butt"/><path d="M285.39725,81.65901v-3.74693h47.88072v3.74693z" fill-opacity="0.30196" fill="#00c8ff" stroke="none" stroke-width="0" stroke-linecap="butt"/><path d="M398.90343,106.30076v3.74693h-16.82011v-3.74693z" fill-opacity="0.30196" fill="#00c8ff" stroke="none" stroke-width="0" stroke-linecap="butt"/><path d="M424.10912,88.98386h3.74693v17.32727h-3.74693z" fill-opacity="0.30196" fill="#00c8ff" stroke="none" stroke-width="0" stroke-linecap="butt"/><path d="M320.25217,98.9759h-3.74693v-17.32727h3.74693z" fill-opacity="0.30196" fill="#00c8ff" stroke="none" stroke-width="0" stroke-linecap="butt"/><path d="M427.85605,132.08969h-3.74693v-22.04474h3.74693z" fill-opacity="0.30196" fill="#00c8ff" stroke="none" stroke-width="0" stroke-linecap="butt"/><path d="M316.50523,55.87006h3.74693v22.04474h-3.74692z" fill-opacity="0.30196" fill="#00c8ff" stroke="none" stroke-width="0" stroke-linecap="butt"/><path d="M289.39766,41.20301h3.74693v22.04474h-3.74692z" fill-opacity="0.30196" fill="#00c8ff" stroke="none" stroke-width="0" stroke-linecap="butt"/><path d="M1.02796,359.18873v-2.31493h336.63996l-0.01022,2.31493z" fill="#00c9ff" stroke="#00c9ff" stroke-width="1.5" stroke-linecap="butt"/><path d="M479.20081,359.18873h-104.4048l0.00754,-2.31493h104.39726z" fill="#00c9ff" stroke="#00c9ff" stroke-width="1.5" stroke-linecap="butt"/></g></g></svg>