<svg version="1.1" xmlns="http://www.w3.org/2000/svg" xmlns:xlink="http://www.w3.org/1999/xlink" width="539.03904" height="403.9039" viewBox="0,0,539.03904,403.9039"><defs><linearGradient x1="4.97914" y1="16.60339" x2="22.57074" y2="16.60339" gradientUnits="userSpaceOnUse" id="color-1"><stop offset="0" stop-color="#35eb29"/><stop offset="1" stop-color="#dceb3d"/></linearGradient><linearGradient x1="7.12017" y1="16.65346" x2="20.37547" y2="16.65346" gradientUnits="userSpaceOnUse" id="color-2"><stop offset="0" stop-color="#298b2a"/><stop offset="1" stop-color="#000000"/></linearGradient><linearGradient x1="98.26459" y1="99.6221" x2="156.50121" y2="99.6221" gradientUnits="userSpaceOnUse" id="color-3"><stop offset="0" stop-color="#35eb29"/><stop offset="1" stop-color="#dceb3d"/></linearGradient></defs><g transform="translate(29.51952,21.95195)"><g data-paper-data="{&quot;isPaintingLayer&quot;:true}" fill-rule="nonzero" stroke-linejoin="miter" stroke-miterlimit="10" stroke-dasharray="" stroke-dashoffset="0" style="mix-blend-mode: normal"><path d="M-29.51952,381.95195v-403.9039h539.03904v403.9039z" fill="#3c3f41" stroke="none" stroke-width="0" stroke-linecap="butt"/><text transform="translate(50.40547,166.66225) scale(0.84709,0.84709)" font-size="40" xml:space="preserve" fill="#d1d1d1" fill-rule="nonzero" stroke="none" stroke-width="1" stroke-linecap="butt" stroke-linejoin="miter" stroke-miterlimit="10" stroke-dasharray="" stroke-dashoffset="0" font-family="Sans Serif" font-weight="normal" text-anchor="start" style="mix-blend-mode: normal"><tspan x="0" dy="0">Помогает взламывать</tspan><tspan x="0" dy="46.150000000000006px">    пароли аккаунтов</tspan><tspan x="0" dy="46.150000000000006px">    Имеет уровни 1-5</tspan></text><path d="M-11.47266,37.17589h494.84985" fill="none" stroke="#515151" stroke-width="2.5" stroke-linecap="round"/><g stroke="none" stroke-linecap="butt"><path d="M4.97914,25.39919v-17.59159h17.59159v17.59159z" fill="url(#color-1)" stroke-width="0"/><path d="M7.12017,23.2811v-13.25529h13.25529v13.25529z" fill="url(#color-2)" stroke-width="0"/><path d="M8.84483,21.65499v-0.98552h4.77979v0.98552z" fill="#ffffff" stroke-width="0"/><text transform="translate(8.15498,16.65643) scale(0.19799,0.17664)" font-size="40" xml:space="preserve" fill="#ffffff" fill-rule="nonzero" stroke="none" stroke-width="1" stroke-linecap="butt" stroke-linejoin="miter" stroke-miterlimit="10" stroke-dasharray="" stroke-dashoffset="0" font-family="Sans Serif" font-weight="normal" text-anchor="start" style="mix-blend-mode: normal"><tspan x="0" dy="0">PC</tspan></text></g><text transform="translate(27.04398,22.58053) scale(0.29902,0.29902)" font-size="40" xml:space="preserve" fill="#bbbbbb" fill-rule="nonzero" stroke="none" stroke-width="1" stroke-linecap="butt" stroke-linejoin="miter" stroke-miterlimit="10" stroke-dasharray="" stroke-dashoffset="0" font-family="Sans Serif" font-weight="normal" text-anchor="start" style="mix-blend-mode: normal"><tspan x="0" dy="0">File</tspan></text><text transform="translate(49.76253,22.58054) scale(0.29902,0.29902)" font-size="40" xml:space="preserve" fill="#bbbbbb" fill-rule="nonzero" stroke="none" stroke-width="1" stroke-linecap="butt" stroke-linejoin="miter" stroke-miterlimit="10" stroke-dasharray="" stroke-dashoffset="0" font-family="Sans Serif" font-weight="normal" text-anchor="start" style="mix-blend-mode: normal"><tspan x="0" dy="0">Edit</tspan></text><text transform="translate(75.67614,22.58054) scale(0.29902,0.29902)" font-size="40" xml:space="preserve" fill="#bbbbbb" fill-rule="nonzero" stroke="none" stroke-width="1" stroke-linecap="butt" stroke-linejoin="miter" stroke-miterlimit="10" stroke-dasharray="" stroke-dashoffset="0" font-family="Sans Serif" font-weight="normal" text-anchor="start" style="mix-blend-mode: normal"><tspan x="0" dy="0">View</tspan></text><text transform="translate(106.86981,22.58054) scale(0.29902,0.29902)" font-size="40" xml:space="preserve" fill="#bbbbbb" fill-rule="nonzero" stroke="none" stroke-width="1" stroke-linecap="butt" stroke-linejoin="miter" stroke-miterlimit="10" stroke-dasharray="" stroke-dashoffset="0" font-family="Sans Serif" font-weight="normal" text-anchor="start" style="mix-blend-mode: normal"><tspan x="0" dy="0">Navigate</tspan></text><text transform="translate(162.18656,22.58054) scale(0.29902,0.29902)" font-size="40" xml:space="preserve" fill="#bbbbbb" fill-rule="nonzero" stroke="none" stroke-width="1" stroke-linecap="butt" stroke-linejoin="miter" stroke-miterlimit="10" stroke-dasharray="" stroke-dashoffset="0" font-family="Sans Serif" font-weight="normal" text-anchor="start" style="mix-blend-mode: normal"><tspan x="0" dy="0">Code</tspan></text><text transform="translate(195.97717,22.58054) scale(0.29902,0.29902)" font-size="40" xml:space="preserve" fill="#bbbbbb" fill-rule="nonzero" stroke="none" stroke-width="1" stroke-linecap="butt" stroke-linejoin="miter" stroke-miterlimit="10" stroke-dasharray="" stroke-dashoffset="0" font-family="Sans Serif" font-weight="normal" text-anchor="start" style="mix-blend-mode: normal"><tspan x="0" dy="0">Refactor</tspan></text><text transform="translate(248.46732,22.58054) scale(0.29902,0.29902)" font-size="40" xml:space="preserve" fill="#bbbbbb" fill-rule="nonzero" stroke="none" stroke-width="1" stroke-linecap="butt" stroke-linejoin="miter" stroke-miterlimit="10" stroke-dasharray="" stroke-dashoffset="0" font-family="Sans Serif" font-weight="normal" text-anchor="start" style="mix-blend-mode: normal"><tspan x="0" dy="0">Run</tspan></text><text transform="translate(274.8322,22.58054) scale(0.29902,0.29902)" font-size="40" xml:space="preserve" fill="#bbbbbb" fill-rule="nonzero" stroke="none" stroke-width="1" stroke-linecap="butt" stroke-linejoin="miter" stroke-miterlimit="10" stroke-dasharray="" stroke-dashoffset="0" font-family="Sans Serif" font-weight="normal" text-anchor="start" style="mix-blend-mode: normal"><tspan x="0" dy="0">Tools</tspan></text><text transform="translate(308.38755,22.58054) scale(0.29902,0.29902)" font-size="40" xml:space="preserve" fill="#bbbbbb" fill-rule="nonzero" stroke="none" stroke-width="1" stroke-linecap="butt" stroke-linejoin="miter" stroke-miterlimit="10" stroke-dasharray="" stroke-dashoffset="0" font-family="Sans Serif" font-weight="normal" text-anchor="start" style="mix-blend-mode: normal"><tspan x="0" dy="0">VCS</tspan></text><text transform="translate(335.37864,22.58054) scale(0.29902,0.29902)" font-size="40" xml:space="preserve" fill="#bbbbbb" fill-rule="nonzero" stroke="none" stroke-width="1" stroke-linecap="butt" stroke-linejoin="miter" stroke-miterlimit="10" stroke-dasharray="" stroke-dashoffset="0" font-family="Sans Serif" font-weight="normal" text-anchor="start" style="mix-blend-mode: normal"><tspan x="0" dy="0">Window</tspan></text><text transform="translate(387.20156,22.58054) scale(0.29902,0.29902)" font-size="40" xml:space="preserve" fill="#bbbbbb" fill-rule="nonzero" stroke="none" stroke-width="1" stroke-linecap="butt" stroke-linejoin="miter" stroke-miterlimit="10" stroke-dasharray="" stroke-dashoffset="0" font-family="Sans Serif" font-weight="normal" text-anchor="start" style="mix-blend-mode: normal"><tspan x="0" dy="0">Help</tspan></text><path d="M19.27928,320.21943c0,-56.8832 0,-214.93774 0,-246.81433c0,-10.94999 8.1399,-21.03273 18.1785,-21.03273c41.48779,0 322.40148,0 402.17618,0c13.36698,0 21.08677,7.99412 21.08677,21.22787c0,56.3254 0,207.56768 0,241.35091c0,13.05474 -8.43405,25.70951 -22.93749,25.70951c-82.46393,0 -361.14267,0 -401.38301,0c-9.50475,0 -17.12094,-7.67117 -17.12094,-20.44122z" fill="none" stroke="#bbbbbb" stroke-width="2.5" stroke-linecap="butt"/><g stroke-linecap="butt"><path d="M156.50121,118.71734c0,4.84442 -3.92895,8.77235 -8.77235,8.77235h-40.69297c-4.84442,0 -8.77132,-3.92895 -8.77132,-8.77235v-38.19154c0,-4.84442 3.92691,-8.77132 8.77132,-8.77132c0,0 8.85249,0 14.35896,0c7.45697,0 26.33299,0 26.33299,0c4.84646,0 8.77235,3.92691 8.77235,8.77132v38.19154z" fill="url(#color-3)" stroke="#000000" stroke-width="2.5"/><g fill="none" stroke="#000000" stroke-width="1.5"><g data-paper-data="{&quot;index&quot;:null}"><path d="M144.41537,94.94658c-1.17824,-0.49748 -3.78121,0.37167 -3.78121,0.37167l-1.81213,-6.79552c0,0 6.10939,0.88716 7.90818,2.55022c2.14258,1.98087 4.09723,8.54914 4.09723,8.54914c0,0 -4.53231,-3.88183 -6.41208,-4.67552z"/><path d="M144.86841,105.5929c-1.17823,-0.49748 -4.46075,0.37167 -4.46075,0.37167l0.22652,-6.79552c0,0 4.75029,0.88717 6.54909,2.55022c2.14258,1.98088 4.09723,8.54914 4.09723,8.54914c0,0 -4.53232,-3.88182 -6.41208,-4.6755z"/><path d="M141.69717,116.0127c-1.17823,-0.49748 -7.63199,-0.98744 -7.63199,-0.98744l4.75687,-4.98337c0,0 4.75029,0.88717 6.54909,2.55022c2.14258,1.98088 4.09722,8.54914 4.09722,8.54914c0,0 -5.89142,-4.33485 -7.77119,-5.12854z"/></g><path d="M140.40766,100.07512c0,8.88225 -3.84342,16.08273 -13.13801,16.08273c-9.29459,0 -13.13801,-7.20049 -13.13801,-16.08273c0,-8.88225 0.88121,-16.26565 13.13801,-16.08273c11.77511,0.17573 13.13801,7.20048 13.13801,16.08273z"/><path d="M103.93832,99.62209c0,0 1.95464,-6.56827 4.09723,-8.54914c1.7988,-1.66305 7.90818,-2.55022 7.90818,-2.55022l-1.81213,6.79552c0,0 -2.60297,-0.86915 -3.78121,-0.37167c-1.87977,0.79369 -6.41208,4.67552 -6.41208,4.67552z"/><path d="M103.48528,110.26839c0,0 1.95464,-6.56826 4.09723,-8.54914c1.7988,-1.66304 6.54909,-2.55022 6.54909,-2.55022l0.22652,6.79552c0,0 -3.28252,-0.86915 -4.46075,-0.37167c-1.87977,0.79369 -6.41208,4.6755 -6.41208,4.6755z"/><path d="M105.29745,121.14124c0,0 1.95464,-6.56826 4.09723,-8.54914c1.7988,-1.66304 6.54909,-2.55022 6.54909,-2.55022l4.75687,4.98337c0,0 -6.45376,0.48996 -7.63199,0.98744c-1.87977,0.79369 -7.77119,5.12854 -7.77119,5.12854z"/><path d="M121.78744,84.67194c0,0 -4.51842,-0.14127 -5.23746,-1.18388c-0.78523,-1.13859 0.70711,-5.38512 0.70711,-5.38512c0,0 2.40794,2.48583 3.84089,3.50398c1.43626,1.02049 4.76677,2.61199 4.76677,2.61199z"/><path d="M128.10061,84.2189c0,0 3.33051,-1.59149 4.76677,-2.61199c1.43296,-1.01815 3.84089,-3.50398 3.84089,-3.50398c0,0 1.49234,4.24653 0.70711,5.38513c-0.71904,1.04261 -5.23746,1.18388 -5.23746,1.18388z" data-paper-data="{&quot;index&quot;:null}"/></g><text transform="translate(164.96868,116.33287) scale(1.06279,1.06279)" font-size="40" xml:space="preserve" fill="#d1d1d1" fill-rule="nonzero" stroke="none" stroke-width="1" stroke-linecap="butt" stroke-linejoin="miter" stroke-miterlimit="10" stroke-dasharray="" stroke-dashoffset="0" font-family="Sans Serif" font-weight="normal" text-anchor="start" style="mix-blend-mode: normal"><tspan x="0" dy="0">Bruteforce</tspan></text></g></g></g></svg>