<svg version="1.1" xmlns="http://www.w3.org/2000/svg" xmlns:xlink="http://www.w3.org/1999/xlink" width="147.66984" height="107.6279" viewBox="0,0,147.66984,107.6279"><defs><radialGradient cx="239.85184" cy="180.29637" r="67.85536" gradientUnits="userSpaceOnUse" id="color-1"><stop offset="0" stop-color="#ffffff"/><stop offset="1" stop-color="#909090"/></radialGradient></defs><g transform="translate(-166.16508,-136.39125)"><g data-paper-data="{&quot;isPaintingLayer&quot;:true}" fill-rule="nonzero" stroke-linecap="butt" stroke-linejoin="miter" stroke-miterlimit="10" stroke-dasharray="" stroke-dashoffset="0" style="mix-blend-mode: normal"><path d="M166.16508,243.91335v-107.5221h147.66984v107.5221z" fill="#ffffff" stroke="none" stroke-width="0"/><path d="M171.99648,219.55766v-78.52258h135.71072v78.52258z" fill="url(#color-1)" stroke="none" stroke-width="0"/><text transform="translate(182.32543,154.84548) scale(0.18131,0.19532)" font-size="40" xml:space="preserve" fill="#ffffff" fill-rule="nonzero" stroke="#000000" stroke-width="2" stroke-linecap="butt" stroke-linejoin="miter" stroke-miterlimit="10" stroke-dasharray="" stroke-dashoffset="0" font-family="Sans Serif" font-weight="normal" text-anchor="start" style="mix-blend-mode: normal"><tspan x="0" dy="0">ГОНКА ПРЯМО В АЛГОРИТМИКЕ!</tspan></text><g stroke="none" stroke-width="1"><path d="M282.30578,213.23721c-9.30338,-1.30089 -14.52409,-0.78115 -23.82869,-0.41751c-3.99084,0.15733 -6.20204,0.54668 -10.1941,0.93725c-1.75085,0.1561 -2.91644,1.35415 -4.42181,0.62504c-0.82828,-0.38935 -0.64585,-1.24947 -0.73646,-2.08265c-0.09305,-0.80563 -1.1154,-1.60209 -0.36976,-2.08143c3.80779,-2.44752 26.93002,-3.07255 41.51594,0z" data-paper-data="{&quot;index&quot;:null}" fill="#050817"/><path d="M286.236,202.35562c-3.22438,0.41567 -5.28132,1.8745 -6.26387,4.53017c-0.58341,1.61372 -0.85951,2.34222 -1.22804,3.95717c-9.91862,0 -19.65298,-0.57362 -32.85596,1.19682c-0.36915,-2.60301 -0.2161,-5.07624 -2.45731,-6.97646c-3.52986,-2.99419 -7.30704,-3.27947 -11.72947,-1.30212c-3.53108,1.56291 -1.74963,7.4203 -5.64986,6.82097c-3.93023,-0.59811 -9.15033,-1.5623 -6.87728,-6.24735c2.2406,0 1.7184,-2.18672 2.94706,-3.80044c1.44292,-1.90144 2.08816,-2.83871 4.36059,-3.95717c4.82095,-2.39487 8.13656,-2.7077 13.69458,-2.7077c3.31682,0 11.33032,2.45119 11.54581,1.24947c0.3067,-1.71657 8.16777,-7.13196 8.16777,-7.13196c0,0 0.67524,4.50323 0.67524,7.13257c9.05911,0 12.31349,1.09398 21.37199,0c4.88218,-0.573 9.15033,-1.40619 13.94067,-0.573c4.05327,0.7034 4.51364,3.95778 4.17572,7.4454c2.64096,0.1561 4.3912,3.93145 2.51792,5.51946c-2.24182,1.90022 -4.72913,0.573 -7.06278,1.30089c0,-4.0343 -4.57486,-7.08053 -9.27276,-6.45671z" data-paper-data="{&quot;index&quot;:null}" fill="#294364"/><path d="M260.18509,187.57993c1.15519,0.20753 1.09582,7.2446 1.43129,7.47723c2.15305,0.17448 15.25442,0.1457 21.20975,-0.4971c2.12795,-0.22957 11.29665,-1.87512 15.04077,0.03428c1.18825,0.60667 2.72238,2.34406 3.31008,3.40865c0.69789,1.26233 1.09887,2.97093 0.01714,4.14633l-5.25193,0.39119l-0.2412,-3.50905c0,0 2.97645,-0.66361 3.81759,-1.10193c-1.78391,-2.92991 -5.82126,-3.25865 -9.27399,-2.92746c-6.3508,0.61035 -12.71386,1.18641 -19.11058,1.27579c-2.66607,0.03673 -9.86291,-0.14448 -10.8473,-0.28467c-0.04469,-2.34405 -0.43772,-6.9685 -0.9042,-7.00584c-0.46587,-0.03734 -5.44171,4.43651 -7.76618,6.95075c-0.32507,0.08387 -20.82041,-3.70678 -27.23978,2.90787l3.71106,0.60729l-0.70769,4.4463l-5.56108,-0.60607c0,0 -0.41139,1.60331 -0.66484,1.84206c-0.25467,0.23753 -2.11999,0.01531 -2.11999,0.01531c0,0 -0.41262,2.89379 1.89287,3.60393c0.80135,0.24488 6.11206,0.65627 6.83933,0.63423c0.59137,-2.89135 2.70953,-6.63547 6.25898,-7.34928c2.67463,-0.53933 6.91034,-0.03918 9.32541,2.07164c1.97307,1.72513 3.22377,4.88829 3.46742,7.20358c8.73037,-1.54271 23.95112,-1.85369 31.43202,-0.99357c0.1506,-2.94645 1.98776,-5.72149 4.06552,-7.32479c4.73219,-3.65107 13.74417,0.24365 13.62112,5.1901c2.83809,0.30793 6.55467,0.02816 6.14205,-3.17724c-0.08999,-0.69728 -1.22436,-1.37864 -0.82032,-2.02756c0.2314,-0.37037 0.65014,-0.16836 0.94643,-0.01286c1.23845,0.64769 1.52679,2.09245 1.20172,3.23112c-0.33792,1.18519 -0.73279,2.81727 -3.71596,3.15091c-1.62045,0.18182 -2.98685,0.21488 -4.61404,0.03244c-0.02816,-0.96909 0.10101,-1.54577 -0.18427,-2.49894c-1.08724,-3.6425 -9.43376,-5.23846 -12.49285,-2.6128c-2.4169,2.07408 -3.09153,5.82861 -2.92135,7.06155c-9.6211,-0.50077 -19.26118,-0.51853 -28.83697,0.39853c-1.77411,0.1708 -3.68413,0.71564 -5.45334,0.6428c-0.24242,-2.85523 -0.37098,-5.44723 -3.22682,-7.3854c-2.19958,-1.49189 -5.63639,-2.29386 -8.35572,-1.42088c-4.34896,1.39578 -5.01441,6.64282 -5.45702,7.58007c-2.35262,-0.38017 -8.55467,-0.92072 -10.11819,-2.43894c-1.10315,-1.07377 -1.015,-3.32049 -0.17692,-4.46589c0.46955,-0.64218 1.18458,-0.65626 1.99144,-0.57484c2.77442,-5.3003 4.92074,-8.49652 11.95658,-9.93576c5.06767,-1.03643 15.0824,0.46037 19.2122,0.94828c0,0 8.01595,-7.30827 9.17176,-7.10135z" data-paper-data="{&quot;index&quot;:null}" fill="#272525"/><path d="M258.85175,190.20926c0.54179,0.1561 0.33119,5.82249 0.33119,5.82249l-6.16225,-0.11203c0,0 5.28928,-5.8678 5.83106,-5.71046z" data-paper-data="{&quot;index&quot;:null}" fill="#272525"/><path d="M258.01244,192.16152c0.32079,0.10285 0.09611,1.91613 -0.01714,2.92869l-2.90175,0.00979c0.90542,-0.95501 2.60056,-3.04194 2.9189,-2.93848z" data-paper-data="{&quot;index&quot;:null}" fill="#99ffff"/><path d="M274.67428,197.4257c-0.0202,0.62749 0.37159,9.30827 0.37343,9.87026c0.00184,0.5626 -1.12336,0.40465 -1.13315,-0.07653c-0.00979,-0.48057 -0.11203,-9.26052 -0.12672,-9.88495c-0.01531,-0.62321 0.90543,-0.53566 0.88645,0.09122z" data-paper-data="{&quot;index&quot;:null}" fill="#272525"/><path d="M296.92843,199.75077l2.89869,-0.47873l0.06367,1.60576l-2.98257,0.25467z" data-paper-data="{&quot;index&quot;:null}" fill="#ffaa00"/><path d="M252.07915,197.33632c0.07101,0.46159 0.41261,9.24583 0.38445,9.68721c-0.02877,0.44138 -0.98684,0.53137 -1.07867,0.03551c-0.09244,-0.49587 -0.04897,-9.33888 -0.04163,-9.75639c0.00551,-0.4169 0.663,-0.42914 0.73585,0.03367z" data-paper-data="{&quot;index&quot;:null}" fill="#272525"/><path d="M286.64311,198.96228c1.95226,0.24365 4.4212,0.97582 5.79433,2.24794c0.09733,0.09061 0.29691,0.42486 -0.02693,0.44078c-0.40649,0.02081 -1.97736,-0.94521 -2.50751,-1.10683c-2.7432,-0.8338 -6.7775,-1.14479 -8.82832,0.93419c-1.65657,1.67861 -3.6474,6.39244 -4.05573,6.01104c0.13774,-4.73648 3.27947,-9.31623 9.62416,-8.52712z" data-paper-data="{&quot;index&quot;:null}" fill="#272525"/><path d="M272.96628,199.73547l0.01592,2.37834l-5.01563,-0.0851l0.08203,-2.37344z" data-paper-data="{&quot;index&quot;:null}" fill="#272525"/><path d="M248.64724,207.08659c0.14081,0.7389 -1.25926,0.9446 -1.36884,0.52035c-2.16897,-8.44264 -11.15891,-10.25043 -15.92538,-5.54456c-0.21059,0.20569 -1.02663,0.39119 -0.9495,0.03979c0.93909,-4.27427 16.01537,-6.82219 18.24372,4.98441z" data-paper-data="{&quot;index&quot;:null}" fill="#272525"/><path d="M272.06943,200.25705l0.1053,1.28191l-3.25988,0.01102l-0.2008,-1.23294z" data-paper-data="{&quot;index&quot;:null}" fill="#050817"/><path d="M223.38176,200.1438c0.42976,-0.18794 2.86196,0.1708 2.86196,0.1708l-0.32262,2.58403l-3.82248,-0.39119c0,0 0.84726,-2.17448 1.28314,-2.36364z" data-paper-data="{&quot;index&quot;:null}" fill="#fff400"/><path d="M296.51398,203.82303l4.37712,-0.13835l0.34956,3.18703l-5.31438,0.12978z" data-paper-data="{&quot;index&quot;:null}" fill="#272525"/><path d="M300.19382,204.39971l0.30242,1.57882l-3.49558,-0.00612l0.14141,-1.23784z" data-paper-data="{&quot;index&quot;:null}" fill="#fff400"/><path d="M278.99018,209.01987c0.40037,0.17325 0.17264,0.63116 -0.16773,0.60055c-7.59231,-0.66789 -15.33095,-1.25008 -22.96918,-1.00643c-1.06765,0.03428 -7.80536,0.68197 -9.39275,1.20906c-0.34527,0.11631 -0.69482,-0.79952 -0.26568,-0.90726c6.79709,-1.70065 31.38305,-0.50566 32.79536,0.10408z" data-paper-data="{&quot;index&quot;:null}" fill="#272525"/><path d="M234.21376,204.44317c6.3153,-1.26845 12.49653,3.76616 8.40407,8.52651c-0.64769,0.75298 -1.20233,1.46067 -2.14142,1.9645c-5.11603,2.74749 -11.81762,0.03184 -11.465,-5.33397c0.16284,-2.45854 2.74443,-4.66362 5.20235,-5.15704z" data-paper-data="{&quot;index&quot;:null}" fill="#272525"/><path d="M231.08916,207.66449c2.65627,-3.26295 8.06493,-2.70218 10.55223,0.09183c0.87481,0.9844 0.60362,3.33518 -0.00857,4.38936c-1.03888,1.7937 -4.44385,3.05909 -6.74689,2.80564c-3.73739,-0.412 -6.32448,-4.18305 -3.79677,-7.28683z" data-paper-data="{&quot;index&quot;:null}" fill="#3815d9"/><path d="M234.40476,207.0021c3.3407,-1.56046 6.74628,1.52373 6.17083,3.88309c-0.38935,1.59351 -2.42609,3.2005 -5.14664,3.03154c-2.17203,-0.13652 -4.41201,-2.88094 -3.54149,-4.60241c0.28466,-0.56137 0.90971,-1.56291 2.5173,-2.31222z" data-paper-data="{&quot;index&quot;:null}" fill="#272525"/><path d="M232.91164,210.51421c-0.1004,-0.79646 0.11326,-1.52741 0.794,-2.14449c1.87512,-1.69698 5.76311,-0.18182 5.61496,2.13224c-0.18856,2.99665 -5.92412,3.85861 -6.40897,0.01225z" data-paper-data="{&quot;index&quot;:null}" fill="#ffffff"/><path d="M241.34265,211.62288l-10.1335,-1.56107l0.30732,-0.78115l9.82618,1.87512z" data-paper-data="{&quot;index&quot;:null}" fill="#272525"/><path d="M234.18927,214.49892l2.89012,-8.38143l0.88461,0.34099l-3.22621,8.08819z" data-paper-data="{&quot;index&quot;:null}" fill="#272525"/><path d="M285.30977,203.71345c6.3153,-1.26845 12.32634,4.29448 8.23389,9.05482c-0.64708,0.75421 -1.03276,0.93236 -1.97185,1.43618c-5.11419,2.74749 -11.817,0.03184 -11.46377,-5.33335c0.16161,-2.45731 2.7432,-4.6624 5.20174,-5.15766z" data-paper-data="{&quot;index&quot;:null}" fill="#272525"/><path d="M282.18518,206.93476c2.65627,-3.26295 7.42825,-3.59046 10.55223,0.09183c0.8491,1.00276 0.60423,3.33579 -0.00735,4.38936c-1.0401,1.79432 -4.46527,3.16867 -6.74811,2.80625c-2.97828,-0.4726 -6.32448,-4.18367 -3.79677,-7.28745z" data-paper-data="{&quot;index&quot;:null}" fill="#3815d9"/><path d="M285.50016,206.27238c3.34069,-1.56046 6.74689,1.52373 6.17082,3.88309c-0.38935,1.59413 -2.42487,3.19989 -5.14664,3.03154c-2.17142,-0.13652 -4.41201,-2.88094 -3.54087,-4.60241c0.28344,-0.56076 0.90909,-1.56107 2.51669,-2.31222z" data-paper-data="{&quot;index&quot;:null}" fill="#272525"/><path d="M284.00765,209.78571c-0.09978,-0.79646 0.11264,-1.5274 0.794,-2.14387c1.87451,-1.69759 5.99573,-0.16407 5.61557,2.13163c-0.43527,2.63179 -5.92656,3.85922 -6.40957,0.01225z" data-paper-data="{&quot;index&quot;:null}" fill="#ffffff"/><path d="M292.45764,208.12118l-9.50172,3.36885l-0.24426,-0.79707l9.44478,-2.9642z" data-paper-data="{&quot;index&quot;:null}" fill="#272525"/><path d="M288.30335,213.83531l-2.95869,-8.36489l0.95991,-0.12243l2.49098,8.27367z" data-paper-data="{&quot;index&quot;:null}" fill="#272525"/><path d="M286.3817,207.89834c1.67004,-0.78053 3.37375,0.76034 3.08541,1.94124c-0.19529,0.79767 -1.21274,1.60208 -2.57362,1.51638c-1.08601,-0.06918 -2.20632,-1.44048 -1.77044,-2.30121c0.14264,-0.28038 0.45485,-0.78054 1.25865,-1.15642z" data-paper-data="{&quot;index&quot;:null}" fill="#272525"/><path d="M285.63545,209.65531c-0.0502,-0.39731 0.05632,-0.764 0.3967,-1.07254c0.93786,-0.84849 2.99786,-0.08142 2.80809,1.06643c-0.21794,1.31558 -2.96359,1.92899 -3.20479,0.00612z" data-paper-data="{&quot;index&quot;:null}" fill="#a4b9bc"/><path d="M235.28692,208.62623c1.66943,-0.77931 3.37314,0.76156 3.0848,1.94185c-0.19406,0.79767 -1.21213,1.60086 -2.57301,1.51638c-1.08663,-0.06857 -2.20693,-1.43986 -1.77105,-2.30059c0.14081,-0.28222 0.45424,-0.78176 1.25926,-1.15764z" data-paper-data="{&quot;index&quot;:null}" fill="#272525"/><path d="M234.53944,210.3832c-0.04959,-0.39669 0.05693,-0.7634 0.39669,-1.07133c0.93725,-0.8491 3.06154,-0.07346 2.8081,1.06582c-0.18243,0.81911 -2.96359,1.92899 -3.20479,0.00551z" data-paper-data="{&quot;index&quot;:null}" fill="#a4b9bc"/></g><path d="M167.15254,222.69539v-85.39073h145.69492v85.39073zM306.30245,213.7052c0,-13.76894 0,-59.48565 0,-66.96176c0,-2.02466 -1.62431,-3.73601 -3.76958,-3.73863c-11.22048,-0.01366 -105.05287,-0.12843 -124.32303,-0.15201c-2.22047,-0.00271 -3.44984,1.24221 -3.448,3.40826c0.01142,13.27624 0.05256,61.10025 0.05867,68.21596c0.0015,1.73532 1.24511,3.14875 3.48587,3.14875c19.34968,0 113.14675,0 124.27487,0c2.11911,0 3.72116,-1.44315 3.72116,-3.92057z" fill="#ffffff" stroke="none" stroke-width="0"/><text transform="translate(203.30001,237.76915) scale(0.5,0.5)" font-size="40" xml:space="preserve" fill="#000000" fill-rule="nonzero" stroke="#000000" stroke-width="1" stroke-linecap="butt" stroke-linejoin="miter" stroke-miterlimit="10" stroke-dasharray="" stroke-dashoffset="0" font-family="Sans Serif" font-weight="normal" text-anchor="start" style="mix-blend-mode: normal"><tspan x="0" dy="0">Гонка!!!</tspan></text><path d="M306.3356,213.7221c0,2.47741 -1.60335,3.9229 -3.72246,3.9229c-11.12813,0 -104.98898,-0.00004 -124.33866,-0.00004c-2.24076,0 -3.48547,-1.41541 -3.48697,-3.15073c-0.00611,-7.11571 -0.04731,-54.974 -0.05873,-68.25025c-0.00185,-2.16606 1.22867,-3.41303 3.44915,-3.41032c19.27016,0.02359 113.16639,0.13834 124.38687,0.152c2.14527,0.00262 3.77083,1.71624 3.77083,3.74091c0,7.47612 0.00001,53.22659 0.00001,66.99554z" data-paper-data="{&quot;noHover&quot;:false,&quot;origItem&quot;:[&quot;Path&quot;,{&quot;applyMatrix&quot;:true,&quot;segments&quot;:[[[390.11262,450.54452],[0,0],[0,-36.98842]],[[390.11262,270.66074],[0,20.08358],[0,-5.43898]],[[379.98616,260.6174],[5.76298,0.00704],[-30.1423,-0.0367]],[[46.00902,260.20904],[51.7667,0.06336],[-5.965,-0.00728]],[[36.74644,269.36488],[-0.00496,-5.81882],[0.03068,35.66484]],[[36.90406,452.6179],[-0.01642,-19.1154],[0.00402,4.6617]],[[46.26838,461.0766],[-6.0195,0],[51.98032,0]],[[380.11614,461.0766],[-29.89422,0],[5.6927,0]],[[390.11254,450.54452],[0,6.65524],[0,0]]],&quot;closed&quot;:true,&quot;fillColor&quot;:[0,0,0,1]}]}" fill="none" stroke="#dbdbdb" stroke-width="0.5"/></g></g></svg>