<svg version="1.1" xmlns="http://www.w3.org/2000/svg" xmlns:xlink="http://www.w3.org/1999/xlink" width="669" height="438" viewBox="0,0,669,438"><defs><linearGradient x1="471.88034" y1="180" x2="432.46068" y2="180" gradientUnits="userSpaceOnUse" id="color-1"><stop offset="0" stop-color="#5a00ed" stop-opacity="0.2"/><stop offset="1" stop-color="#5a00ed" stop-opacity="0"/></linearGradient><linearGradient x1="471.88034" y1="180" x2="511.3" y2="180" gradientUnits="userSpaceOnUse" id="color-2"><stop offset="0" stop-color="#5a00ed" stop-opacity="0.2"/><stop offset="1" stop-color="#5a00ed" stop-opacity="0"/></linearGradient><linearGradient x1="413.91026" y1="180" x2="374.4906" y2="180" gradientUnits="userSpaceOnUse" id="color-3"><stop offset="0" stop-color="#c200ed" stop-opacity="0.2"/><stop offset="1" stop-color="#c200ed" stop-opacity="0"/></linearGradient><linearGradient x1="413.91026" y1="180" x2="453.32991" y2="180" gradientUnits="userSpaceOnUse" id="color-4"><stop offset="0" stop-color="#c200ed" stop-opacity="0.2"/><stop offset="1" stop-color="#c200ed" stop-opacity="0"/></linearGradient><linearGradient x1="355.94017" y1="180" x2="316.52051" y2="180" gradientUnits="userSpaceOnUse" id="color-5"><stop offset="0" stop-color="#0000ed" stop-opacity="0.2"/><stop offset="1" stop-color="#0000ed" stop-opacity="0"/></linearGradient><linearGradient x1="355.94017" y1="180" x2="395.35983" y2="180" gradientUnits="userSpaceOnUse" id="color-6"><stop offset="0" stop-color="#0000ed" stop-opacity="0.2"/><stop offset="1" stop-color="#0000ed" stop-opacity="0"/></linearGradient><linearGradient x1="297.97009" y1="180" x2="258.55043" y2="180" gradientUnits="userSpaceOnUse" id="color-7"><stop offset="0" stop-color="#00eded" stop-opacity="0.2"/><stop offset="1" stop-color="#00eded" stop-opacity="0"/></linearGradient><linearGradient x1="297.97009" y1="180" x2="337.38974" y2="180" gradientUnits="userSpaceOnUse" id="color-8"><stop offset="0" stop-color="#00eded" stop-opacity="0.2"/><stop offset="1" stop-color="#00eded" stop-opacity="0"/></linearGradient><linearGradient x1="240" y1="180" x2="200.58034" y2="180" gradientUnits="userSpaceOnUse" id="color-9"><stop offset="0" stop-color="#2fed00" stop-opacity="0.2"/><stop offset="1" stop-color="#2fed00" stop-opacity="0"/></linearGradient><linearGradient x1="240" y1="180" x2="279.41966" y2="180" gradientUnits="userSpaceOnUse" id="color-10"><stop offset="0" stop-color="#2fed00" stop-opacity="0.2"/><stop offset="1" stop-color="#2fed00" stop-opacity="0"/></linearGradient><linearGradient x1="182.02991" y1="180" x2="142.61026" y2="180" gradientUnits="userSpaceOnUse" id="color-11"><stop offset="0" stop-color="#edd500" stop-opacity="0.2"/><stop offset="1" stop-color="#edd500" stop-opacity="0"/></linearGradient><linearGradient x1="182.02991" y1="180" x2="221.44957" y2="180" gradientUnits="userSpaceOnUse" id="color-12"><stop offset="0" stop-color="#edd500" stop-opacity="0.2"/><stop offset="1" stop-color="#edd500" stop-opacity="0"/></linearGradient><linearGradient x1="124.05983" y1="180" x2="84.64017" y2="180" gradientUnits="userSpaceOnUse" id="color-13"><stop offset="0" stop-color="#ed6300" stop-opacity="0.2"/><stop offset="1" stop-color="#ed6300" stop-opacity="0"/></linearGradient><linearGradient x1="124.05983" y1="180" x2="163.47949" y2="180" gradientUnits="userSpaceOnUse" id="color-14"><stop offset="0" stop-color="#ed6300" stop-opacity="0.2"/><stop offset="1" stop-color="#ed6300" stop-opacity="0"/></linearGradient><linearGradient x1="66.08974" y1="180" x2="26.67009" y2="180" gradientUnits="userSpaceOnUse" id="color-15"><stop offset="0" stop-color="#ed0000" stop-opacity="0.2"/><stop offset="1" stop-color="#ed0000" stop-opacity="0"/></linearGradient><linearGradient x1="66.08974" y1="180" x2="105.5094" y2="180" gradientUnits="userSpaceOnUse" id="color-16"><stop offset="0" stop-color="#ed0000" stop-opacity="0.2"/><stop offset="1" stop-color="#ed0000" stop-opacity="0"/></linearGradient><linearGradient x1="8.11966" y1="180" x2="-31.3" y2="180" gradientUnits="userSpaceOnUse" id="color-17"><stop offset="0" stop-color="#ededed" stop-opacity="0.2"/><stop offset="1" stop-color="#ededed" stop-opacity="0"/></linearGradient><linearGradient x1="8.11966" y1="180" x2="47.53932" y2="180" gradientUnits="userSpaceOnUse" id="color-18"><stop offset="0" stop-color="#ededed" stop-opacity="0.2"/><stop offset="1" stop-color="#ededed" stop-opacity="0"/></linearGradient><linearGradient x1="240" y1="18.20513" x2="240" y2="45.71026" gradientUnits="userSpaceOnUse" id="color-19"><stop offset="0" stop-color="#5a00ed" stop-opacity="0.2"/><stop offset="1" stop-color="#5a00ed" stop-opacity="0"/></linearGradient><linearGradient x1="240" y1="18.20513" x2="240" y2="-9.3" gradientUnits="userSpaceOnUse" id="color-20"><stop offset="0" stop-color="#5a00ed" stop-opacity="0.2"/><stop offset="1" stop-color="#5a00ed" stop-opacity="0"/></linearGradient><linearGradient x1="240" y1="58.65385" x2="240" y2="86.15897" gradientUnits="userSpaceOnUse" id="color-21"><stop offset="0" stop-color="#c200ed" stop-opacity="0.2"/><stop offset="1" stop-color="#c200ed" stop-opacity="0"/></linearGradient><linearGradient x1="240" y1="58.65385" x2="240" y2="31.14872" gradientUnits="userSpaceOnUse" id="color-22"><stop offset="0" stop-color="#c200ed" stop-opacity="0.2"/><stop offset="1" stop-color="#c200ed" stop-opacity="0"/></linearGradient><linearGradient x1="240" y1="99.10256" x2="240" y2="126.60769" gradientUnits="userSpaceOnUse" id="color-23"><stop offset="0" stop-color="#0000ed" stop-opacity="0.2"/><stop offset="1" stop-color="#0000ed" stop-opacity="0"/></linearGradient><linearGradient x1="240" y1="99.10256" x2="240" y2="71.59744" gradientUnits="userSpaceOnUse" id="color-24"><stop offset="0" stop-color="#0000ed" stop-opacity="0.2"/><stop offset="1" stop-color="#0000ed" stop-opacity="0"/></linearGradient><linearGradient x1="240" y1="139.55128" x2="240" y2="167.05641" gradientUnits="userSpaceOnUse" id="color-25"><stop offset="0" stop-color="#00eded" stop-opacity="0.2"/><stop offset="1" stop-color="#00eded" stop-opacity="0"/></linearGradient><linearGradient x1="240" y1="139.55128" x2="240" y2="112.04615" gradientUnits="userSpaceOnUse" id="color-26"><stop offset="0" stop-color="#00eded" stop-opacity="0.2"/><stop offset="1" stop-color="#00eded" stop-opacity="0"/></linearGradient><linearGradient x1="240" y1="180" x2="240" y2="207.50513" gradientUnits="userSpaceOnUse" id="color-27"><stop offset="0" stop-color="#2fed00" stop-opacity="0.2"/><stop offset="1" stop-color="#2fed00" stop-opacity="0"/></linearGradient><linearGradient x1="240" y1="180" x2="240" y2="152.49487" gradientUnits="userSpaceOnUse" id="color-28"><stop offset="0" stop-color="#2fed00" stop-opacity="0.2"/><stop offset="1" stop-color="#2fed00" stop-opacity="0"/></linearGradient><linearGradient x1="240" y1="220.44872" x2="240" y2="247.95385" gradientUnits="userSpaceOnUse" id="color-29"><stop offset="0" stop-color="#edd500" stop-opacity="0.2"/><stop offset="1" stop-color="#edd500" stop-opacity="0"/></linearGradient><linearGradient x1="240" y1="220.44872" x2="240" y2="192.94359" gradientUnits="userSpaceOnUse" id="color-30"><stop offset="0" stop-color="#edd500" stop-opacity="0.2"/><stop offset="1" stop-color="#edd500" stop-opacity="0"/></linearGradient><linearGradient x1="240" y1="260.89744" x2="240" y2="288.40256" gradientUnits="userSpaceOnUse" id="color-31"><stop offset="0" stop-color="#ed6300" stop-opacity="0.2"/><stop offset="1" stop-color="#ed6300" stop-opacity="0"/></linearGradient><linearGradient x1="240" y1="260.89744" x2="240" y2="233.39231" gradientUnits="userSpaceOnUse" id="color-32"><stop offset="0" stop-color="#ed6300" stop-opacity="0.2"/><stop offset="1" stop-color="#ed6300" stop-opacity="0"/></linearGradient><linearGradient x1="240" y1="301.34615" x2="240" y2="328.85128" gradientUnits="userSpaceOnUse" id="color-33"><stop offset="0" stop-color="#ed0000" stop-opacity="0.2"/><stop offset="1" stop-color="#ed0000" stop-opacity="0"/></linearGradient><linearGradient x1="240" y1="301.34615" x2="240" y2="273.84103" gradientUnits="userSpaceOnUse" id="color-34"><stop offset="0" stop-color="#ed0000" stop-opacity="0.2"/><stop offset="1" stop-color="#ed0000" stop-opacity="0"/></linearGradient><linearGradient x1="240" y1="341.79487" x2="240" y2="369.3" gradientUnits="userSpaceOnUse" id="color-35"><stop offset="0" stop-color="#ededed" stop-opacity="0.2"/><stop offset="1" stop-color="#ededed" stop-opacity="0"/></linearGradient><linearGradient x1="240" y1="341.79487" x2="240" y2="314.28974" gradientUnits="userSpaceOnUse" id="color-36"><stop offset="0" stop-color="#ededed" stop-opacity="0.2"/><stop offset="1" stop-color="#ededed" stop-opacity="0"/></linearGradient></defs><g transform="translate(94.5,39)"><g data-paper-data="{&quot;isPaintingLayer&quot;:true}" fill-rule="nonzero" stroke-linecap="butt" stroke-linejoin="miter" stroke-miterlimit="10" stroke-dasharray="" stroke-dashoffset="0" style="mix-blend-mode: normal"><path d="M-94.5,380.5v-401h669v401z" fill="#000000" stroke="#44ff00" stroke-width="0"/><g data-paper-data="{&quot;index&quot;:null}" stroke="none" stroke-width="10"><g><path d="M432.46068,399v-438h39.41966v438z" fill="url(#color-1)"/><path d="M471.88034,399v-438h39.41966v438z" data-paper-data="{&quot;index&quot;:null}" fill="url(#color-2)"/></g><g><path d="M374.4906,399v-438h39.41966v438z" fill="url(#color-3)"/><path d="M413.91026,399v-438h39.41966v438z" data-paper-data="{&quot;index&quot;:null}" fill="url(#color-4)"/></g><g><path d="M316.52051,399v-438h39.41966v438z" fill="url(#color-5)"/><path d="M355.94017,399v-438h39.41966v438z" data-paper-data="{&quot;index&quot;:null}" fill="url(#color-6)"/></g><g><path d="M258.55043,399v-438h39.41966v438z" fill="url(#color-7)"/><path d="M297.97009,399v-438h39.41966v438z" data-paper-data="{&quot;index&quot;:null}" fill="url(#color-8)"/></g><g><path d="M200.58034,399v-438h39.41966v438z" fill="url(#color-9)"/><path d="M240,399v-438h39.41966v438z" data-paper-data="{&quot;index&quot;:null}" fill="url(#color-10)"/></g><g><path d="M142.61026,399v-438h39.41966v438z" fill="url(#color-11)"/><path d="M182.02991,399v-438h39.41966v438z" data-paper-data="{&quot;index&quot;:null}" fill="url(#color-12)"/></g><g><path d="M84.64017,399v-438h39.41966v438z" fill="url(#color-13)"/><path d="M124.05983,399v-438h39.41966v438z" data-paper-data="{&quot;index&quot;:null}" fill="url(#color-14)"/></g><g><path d="M26.67009,399v-438h39.41966v438z" fill="url(#color-15)"/><path d="M66.08974,399v-438h39.41966v438z" data-paper-data="{&quot;index&quot;:null}" fill="url(#color-16)"/></g><g><path d="M-31.3,399v-438h39.41966v438z" fill="url(#color-17)"/><path d="M8.11966,399v-438h39.41966v438z" data-paper-data="{&quot;index&quot;:null}" fill="url(#color-18)"/></g></g><g data-paper-data="{&quot;index&quot;:null}" stroke="none" stroke-width="10"><g><path d="M495.5,45.71026l-511,0l0,-27.50513l511,0z" fill="url(#color-19)"/><path d="M495.5,18.20513l-511,0l0,-27.50513h511z" data-paper-data="{&quot;index&quot;:null}" fill="url(#color-20)"/></g><g><path d="M495.5,86.15897l-511,0v-27.50513h511z" fill="url(#color-21)"/><path d="M495.5,58.65385h-511v-27.50513h511z" data-paper-data="{&quot;index&quot;:null}" fill="url(#color-22)"/></g><g><path d="M495.5,126.60769h-511v-27.50513l511,0z" fill="url(#color-23)"/><path d="M495.5,99.10256l-511,0l0,-27.50513h511z" data-paper-data="{&quot;index&quot;:null}" fill="url(#color-24)"/></g><g><path d="M495.5,167.05641l-511,0l0,-27.50513l511,0z" fill="url(#color-25)"/><path d="M495.5,139.55128l-511,0l0,-27.50513l511,0z" data-paper-data="{&quot;index&quot;:null}" fill="url(#color-26)"/></g><g><path d="M495.5,207.50513l-511,0l0,-27.50513l511,0z" fill="url(#color-27)"/><path d="M495.5,180l-511,0l0,-27.50513h511z" data-paper-data="{&quot;index&quot;:null}" fill="url(#color-28)"/></g><g><path d="M495.5,247.95385l-511,0v-27.50513l511,0z" fill="url(#color-29)"/><path d="M495.5,220.44872l-511,0l0,-27.50513l511,0z" data-paper-data="{&quot;index&quot;:null}" fill="url(#color-30)"/></g><g><path d="M495.5,288.40256l-511,0l0,-27.50513l511,0z" fill="url(#color-31)"/><path d="M495.5,260.89744l-511,0l0,-27.50513l511,0z" data-paper-data="{&quot;index&quot;:null}" fill="url(#color-32)"/></g><g><path d="M495.5,328.85128h-511v-27.50513h511z" fill="url(#color-33)"/><path d="M495.5,301.34615h-511v-27.50513h511z" data-paper-data="{&quot;index&quot;:null}" fill="url(#color-34)"/></g><g><path d="M495.5,369.3h-511v-27.50513h511z" fill="url(#color-35)"/><path d="M495.5,341.79487h-511l0,-27.50513h511z" data-paper-data="{&quot;index&quot;:null}" fill="url(#color-36)"/></g></g></g></g></svg>