<svg version="1.1" xmlns="http://www.w3.org/2000/svg" xmlns:xlink="http://www.w3.org/1999/xlink" width="410.5628" height="229.21179" viewBox="0,0,410.5628,229.21179"><g transform="translate(-21.1561,-67.39411)"><g data-paper-data="{&quot;isPaintingLayer&quot;:true}" fill-rule="nonzero" stroke-linejoin="miter" stroke-miterlimit="10" stroke-dasharray="" stroke-dashoffset="0" style="mix-blend-mode: normal"><path d="M137.73495,176.51192l-54.78261,-51.08696c0,0 7.84333,-7.57243 18.11763,-8.62161c11.04178,-1.12755 24.82389,4.43685 32.67926,9.82809c21.41294,14.69594 17.2644,35.99885 16.37898,38.80582c-1.68474,5.34098 -12.39326,11.07467 -12.39326,11.07467z" fill="#680000" stroke="#000000" stroke-width="2" stroke-linecap="round"/><path d="M61.942,234.46957l51.66667,-37.33334c0,0 14.34919,48.45664 -6.33333,57.66667c-3.74255,1.66658 -28.08836,-0.49307 -36.35785,-4.20218c-6.29809,-2.82488 -8.97548,-16.13116 -8.97548,-16.13116z" fill="#77ffff" stroke="#000000" stroke-width="2.5" stroke-linecap="round"/><path d="M54.74202,203.20291l-1.6,33.8c0,0 -0.46114,39.48757 -7.97394,51.11346c-2.95466,4.57227 -7.82776,7.50809 -12.7308,7.22008c-3.56154,-0.2092 -7.34027,-5.24941 -8.41396,-14.34718c-2.60401,-22.06465 -1.28131,-67.98636 -1.28131,-67.98636z" fill="#63d3d3" stroke="#000000" stroke-width="2.5" stroke-linecap="round"/><path d="M107.3061,219.14088c0,0 -16.59928,16.00097 -42.42724,16.52934c-19.29918,0.39482 -39.70987,-4.82844 -41.64017,-24.0349c-1.50305,-14.95538 3.28169,-34.10157 3.28169,-34.10157l38.87994,-40.56417l53,8.25l2.75,68.25z" fill="#99ffff" stroke="#000000" stroke-width="2.5" stroke-linecap="round"/><path d="M48.53884,183.80045c0,0 -1.2742,30.61613 -10.07797,30.97492c-8.25167,0.33628 -5.81787,-37.64159 -5.81787,-37.64159" fill="none" stroke="#000000" stroke-width="2.5" stroke-linecap="round"/><path d="M78.53764,203.62554c0,0 -6.04664,9.57296 -8.94663,10.7661c-2.21799,0.91255 -6.59883,-3.94791 -6.59883,-3.94791c0,0 -4.36696,3.84227 -6.8441,3.10447c-1.85571,-0.55271 -2.33773,-8.64992 -2.33773,-8.64992" fill="none" stroke="#000000" stroke-width="2.5" stroke-linecap="round"/><path d="M100.99214,180.53465c0,0 -1.16009,31.65848 -10.91687,30.20242c-7.48687,-1.11731 -3.44677,-31.38424 -3.44677,-31.38424" fill="none" stroke="#000000" stroke-width="2.5" stroke-linecap="round"/><path d="M108.3068,162.52685c0,0 -1.8137,9.06154 -6.62483,8.44794c-3.45355,-0.44046 -3.47321,-9.13421 -3.47321,-9.13421c0,0 -2.08078,12.21998 -7.30124,10.37032c-2.75702,-0.97684 -3.48308,-12.13502 -3.48308,-12.13502c0,0 0.20582,9.01241 -6.33469,9.55283c-4.44238,0.36706 -5.43001,-7.69009 -5.43001,-7.69009c0,0 0.11883,12.32449 -9.31284,11.81782c-7.97832,-0.4286 -7.54991,-11.52371 -7.54991,-11.52371c0,0 -2.52233,11.94491 -11.9699,12.6883c-7.53157,0.59262 -8.5075,-9.5147 -8.5203,-9.55104c-0.05221,-0.14821 -4.50009,11.99517 -10,11.66667c-3.79399,-0.22661 -5.68628,-11.66667 -5.68628,-11.66667c0,0 -0.11649,-8.99033 3.57414,-17.48973c2.69673,-6.21049 8.59137,-11.92581 12.26398,-14.83715c8.38281,-6.6452 35.4417,-8.32354 35.4417,-8.32354c0,0 21.53951,-1.23403 32.5,5.5c10.96049,6.73403 18.697,18.76395 25.08713,29.88102c5.69671,9.91072 11.41287,33.61898 11.41287,33.61898c0,0 3.98603,21.60005 2.36009,28.71804c-2.03255,8.89805 -13.61009,21.53196 -13.61009,21.53196l-13,2l-5.75,-80z" fill="#77ffff" stroke="#000000" stroke-width="2.5" stroke-linecap="round"/><path d="M125.98059,171.06414c3.60888,16.01787 3.49014,83.52922 3.49014,83.52922c-0.01096,0.46478 4.00915,38.37374 -12.99538,37.60954c-8.18628,-0.3679 -10.73353,-9.06304 -11.0189,-22.57228c-0.78529,-37.17535 2.6689,-109.77772 2.6689,-109.77772c0,0 14.35215,-4.33707 17.85524,11.21124z" fill="#63d3d3" stroke="#000000" stroke-width="0" stroke-linecap="round"/><path d="M130.23539,244.08512c-0.01096,0.46478 4.59065,48.88198 -13.76003,48.11778c-8.18628,-0.3679 -10.73353,-9.06304 -11.0189,-22.57228c-0.78529,-37.17535 2.6689,-109.77772 2.6689,-109.77772" fill="none" stroke="#000000" stroke-width="2.5" stroke-linecap="round"/><path d="M37.44072,274.22116c0,4.95152 0.32326,11.12069 -5.0431,11.46552c-3.63473,0.23356 -7.11207,-4.70365 -7.11207,-9.65517c0,-4.95152 1.74571,-9.39655 5.38793,-9.39655c3.64222,0 6.76724,2.63469 6.76724,7.58621z" fill="#c0ffff" stroke="#000000" stroke-width="0" stroke-linecap="butt"/><path d="M37.39762,276.0315c1.88063,0 6.25,1.51554 6.25,3.49138c0,1.97584 -5.74868,5.30172 -7.62931,5.30172c-1.88063,0 -1.33621,-3.5845 -1.33621,-5.56034c0,-1.97584 0.83489,-3.23276 2.71552,-3.23276z" fill="#c0ffff" stroke="#000000" stroke-width="0" stroke-linecap="butt"/><path d="M121.49754,270.1164c0.28596,8.36201 -3.42639,9.72222 -6.11111,9.72222c-2.68472,0 -5.23729,-1.22394 -5.69444,-10c-0.33808,-6.49013 2.16057,-6.81233 2.17605,-8.20069c0.05365,-4.81127 0.79953,-9.85486 2.40729,-9.85486c1.78441,0 2.86094,6.19496 4.11037,9.47955c0.35118,0.92323 2.83407,0.73118 3.11185,8.85379z" fill="#c0ffff" stroke="#000000" stroke-width="0" stroke-linecap="butt"/><path d="M143.89989,216.92414c0,6.10965 -1.62185,8.02238 -5.9375,8.5625c-3.82862,0.47916 -8.3125,-1.20285 -8.3125,-7.3125c0,-0.98936 5.4375,-16.1875 5.4375,-16.1875c0,0 8.8125,12.58496 8.8125,14.9375z" fill="#c0ffff" stroke="#000000" stroke-width="0" stroke-linecap="butt"/><path d="M30.21123,152.63841c0,-3.61616 14.48453,-8.21429 16.78572,-8.21429c2.30118,0 -7.14286,5.31242 -7.14286,8.92857c0,3.61615 -3.65119,7.02381 -5.95238,7.02381c-2.30119,0 -3.69048,-4.12195 -3.69048,-7.7381z" fill="#c0ffff" stroke="none" stroke-width="0" stroke-linecap="butt"/><path d="M88.16973,121.9467c0,0 9.85675,0.2467 17.28711,3.98313c8.36768,4.20777 14.9347,11.65935 15.01333,11.74107c16.62329,15.20203 20.53896,36.11697 20.53896,36.11697" fill="none" stroke="#000000" stroke-width="1" stroke-linecap="round"/><path d="M90.72075,119.80384c0,0 9.85675,0.2467 17.28711,3.98313c8.36768,4.20777 14.9347,11.65935 15.01333,11.74107c16.62329,15.20203 20.53895,36.11697 20.53895,36.11697" fill="none" stroke="#000000" stroke-width="1" stroke-linecap="round"/><path d="M93.98606,118.06915c0,0 9.85675,0.2467 17.28711,3.98313c8.36768,4.20777 14.9347,11.65935 15.01333,11.74107c16.62329,15.20203 20.53896,36.11698 20.53896,36.11698" fill="none" stroke="#000000" stroke-width="1" stroke-linecap="round"/><path d="M97.14932,116.84466c0,0 9.85675,0.2467 17.28711,3.98313c8.36768,4.20777 14.9347,11.65935 15.01333,11.74107c13.30005,12.16292 18.46549,27.98288 19.99923,33.82207" fill="none" stroke="#000000" stroke-width="1" stroke-linecap="round"/><path d="M115.96704,119.19514c8.36768,4.20777 16.05715,11.45526 16.13578,11.53698c10.87027,9.94088 16.30664,22.32464 18.76754,29.7056" fill="none" stroke="#000000" stroke-width="1" stroke-linecap="round"/><path d="M127.6536,123.66639c4.08098,3.27703 6.74624,6.29957 6.79616,6.35144c8.52635,7.79736 13.70954,17.09769 16.73596,24.30785" fill="none" stroke="#000000" stroke-width="1" stroke-linecap="round"/><path d="M169.65147,164.00522c0,0 0.94403,-10.0183 11.77551,-8.81253c14.37828,1.60061 11.42449,12.01254 11.42449,12.01254c0,0 10.49063,3.74072 1.99336,14.53969c-8.19843,10.41917 -17.29336,-0.63969 -17.29336,-0.63969c0,0 -14.28554,7.29049 -18.21415,-3.24657c-1.36053,-3.64913 -0.17249,-6.97381 1.91329,-8.95434c3.27557,-3.11028 8.40086,-4.89909 8.40086,-4.89909z" fill="#ffffff" stroke="#000000" stroke-width="2" stroke-linecap="round"/><g stroke="#000000"><path d="M231.12783,180.33397c0,0 -12.67137,-2.03247 -13.35875,-12.18057c-3.01864,-44.56591 19.4525,-57.03818 19.4525,-57.03818c0,0 -1.92451,-14.44963 4.66283,-20.43308c12.06968,-10.96322 49.08717,-8.78567 49.08717,-8.78567c0,0 8.74622,-12.03998 17.16245,-12.57877c30.0971,-4.4302 51.90005,8.51627 51.90005,8.51627c0,0 15.91593,-2.85453 36.54627,11.56845c22.18445,15.50949 25.95373,31.7128 25.95373,31.7128c0,0 8.5629,9.28449 8.17182,19.85951c-0.5249,14.19396 -12.23432,32.48424 -12.23432,32.48424c0,0 0.30672,7.85321 -1.39688,10.96996c-1.84372,3.37311 -18.16923,13.95795 -22.74707,15.31844c-4.51443,1.34165 -8.51229,0.43034 -8.51229,0.43034c0,0 -7.7373,11.17003 -24.1768,14.55581c-10.51321,2.16523 -25.66695,-2.99331 -25.66695,-2.99331c0,0 -6.7965,10.42255 -23.92919,9.22475c-13.75919,-0.96194 -30.28955,-13.131 -30.28955,-13.131c0,0 -18.81162,0.79372 -32.21834,-6.48087c-11.88797,-6.4505 -18.40667,-21.01913 -18.40667,-21.01913z" fill="#ffffff" stroke-width="2" stroke-linecap="round"/><path d="M281.73754,142.58095c0,0 0.26926,18.15603 -1.27976,23.69072c-0.97984,3.50102 -3.60768,7.77708 -7.11646,6.30928c-3.50879,-1.46779 -2.56635,-6.87056 -1.10626,-9.749c1.77855,-3.5063 11.01192,-9.7793 11.01192,-9.7793" fill="none" stroke-width="2" stroke-linecap="round"/><path d="M278.13545,142.92075c0.63833,0.25533 2.63027,0.50063 2.94257,1.21074c0.62691,1.42544 -0.37539,5.0928 -1.23645,7.24545c-0.06711,0.16778 -4.55787,3.9506 -6.37767,3.22268c-1.91967,-0.76787 -2.4301,-4.00475 -1.14008,-7.22979c1.29002,-3.22503 3.89197,-5.21696 5.81163,-4.44909z" fill="none" stroke-width="2" stroke-linecap="butt"/><path d="M258.24698,100.97716c0,0 -0.99778,11.83637 -5.7588,11.99586c-4.94848,0.43761 -1.59969,-11.61849 -1.59969,-11.61849" fill="none" stroke-width="2" stroke-linecap="round"/><path d="M255.79415,122.29793c0,0 -1.17861,-0.56144 -1.12792,-1.05662c0.17153,-1.67566 1.78829,-12.24527 1.78829,-12.24527" fill="none" stroke-width="2" stroke-linecap="round"/><path d="M272.20924,100.97717c0,0 -0.89395,7.56233 -1.69764,10.7087c-0.63333,2.4794 -2.73632,6.6498 -2.73632,6.6498" fill="none" stroke-width="2" stroke-linecap="round"/><path d="M282.30358,98.05265l-15.28302,1.79245" fill="none" stroke-width="3" stroke-linecap="round"/><path d="M284.66207,100.88282c2.23037,-3.14375 9.47548,0.18835 9.28753,3.50171c-0.0347,0.61166 -4.2934,14.99709 -9.75923,13.38509c-3.2604,-0.96156 -1.75867,-13.74304 0.4717,-16.88679z" fill="none" stroke-width="2" stroke-linecap="round"/><path d="M336.07717,108.24133c0,0 -1.8173,5.11573 -3.85473,6.73876c-1.51853,1.20968 -5.20188,1.37444 -5.20188,1.37444" fill="none" stroke-width="2" stroke-linecap="round"/><path d="M344.66207,114.56208c0,0 -0.53166,3.20208 -1.38833,3.66439c-4.14068,2.23455 -3.04564,-11.21155 -3.04564,-11.21155l1.98114,-6.88679" fill="none" stroke-width="2" stroke-linecap="round"/><path d="M336.78471,107.76963c-1.84964,0 -3.06604,-1.6881 -3.06604,-3.53773c0,-1.84964 0.93338,-3.34906 2.78301,-3.34906c1.84964,0 3.63208,1.68811 3.63208,3.53774c0,1.84963 -1.49943,3.34906 -3.34906,3.34905z" fill="none" stroke-width="2" stroke-linecap="butt"/><path d="M302.90214,153.51499c0,0 -1.84287,1.98998 -3.71143,2.3528c-1.68482,0.32714 -3.39053,-0.91794 -3.78496,-1.76538c-1.358,-2.91766 -0.25656,-7.63642 0.12534,-8.55444c0.35242,-0.84716 1.92197,-3.33858 3.56433,-4.44724c1.86678,-1.26015 3.82763,-1.07446 4.20212,-0.75758c0.36788,0.31128 0.9639,3.3047 -0.35723,5.61037c-0.75304,1.31423 -3.25414,2.2925 -3.94993,2.70579c-1.76559,1.04873 -5.83824,1.939 -5.83824,1.939" fill="none" stroke-width="2" stroke-linecap="round"/><path d="M307.73547,153.84831c0,0 8.17657,-11.86158 8.5,-11.75c0.30497,0.10521 -0.94278,13.68902 -0.19048,13.64285c5.59771,-0.34351 11.22243,-12.87151 11.79762,-12.79761c0.40929,0.05259 1.42858,17.07143 1.42858,17.07143" fill="none" stroke-width="2" stroke-linecap="round"/><path d="M322.91404,147.87212l15.42857,0.28571" fill="none" stroke-width="2" stroke-linecap="round"/><path d="M338.0569,155.94356c0,0 0.6065,-5.27409 1.36336,-7.59272c0.74288,-2.27582 3.13664,-6.193 3.13664,-6.193" fill="none" stroke-width="2" stroke-linecap="round"/><path d="M340.19976,148.37212l5,-0.14285" fill="none" stroke-width="2" stroke-linecap="round"/><path d="M353.12963,148.64885c-0.74228,1.30673 -6.90094,5.3999 -7.51438,3.91474c-0.78213,-1.89353 3.55018,-12.58422 5.42127,-12.38753c4.99955,0.52556 2.81472,7.20245 2.09311,8.47278z" fill="none" stroke-width="2" stroke-linecap="round"/><path d="M361.60133,152.84521l1.2931,-3.53448" fill="none" stroke-width="2" stroke-linecap="round"/><path d="M374.87719,154.82796l1.12069,-3.36207" fill="none" stroke-width="2" stroke-linecap="round"/><path d="M388.92892,155.86245l0.43103,-2.84483" fill="none" stroke-width="2" stroke-linecap="round"/><path d="M363.41167,128.01761c0,0 7.69471,-3.17086 6.93165,3.1032c-0.26099,2.14591 -6.84544,8.96577 -6.84544,8.96577" fill="none" stroke-width="2" stroke-linecap="round"/></g></g></g></svg>