<svg version="1.1" xmlns="http://www.w3.org/2000/svg" xmlns:xlink="http://www.w3.org/1999/xlink" width="118.07507" height="118.07507" viewBox="0,0,118.07507,118.07507"><g transform="translate(-180.96246,-120.96246)"><g data-paper-data="{&quot;isPaintingLayer&quot;:true}" fill-rule="nonzero" stroke-miterlimit="10" stroke-dasharray="" stroke-dashoffset="0" style="mix-blend-mode: normal"><path d="M182.71246,224.92905c0,-23.56821 0,-73.83332 0,-87.75507c0,-6.9859 7.08587,-14.46152 13.8016,-14.46152c13.73475,0 64.4065,0 88.23461,0c7.65447,0 12.53887,6.63022 12.53887,13.02291c0,13.43997 0,64.20481 0,88.47437c0,7.9662 -5.29289,13.07779 -13.49794,13.07779c-24.34251,0 -74.31702,0 -87.75507,0c-6.51735,0 -13.32206,-4.80992 -13.32206,-12.35848z" fill="#833ae0" stroke="#833ae0" stroke-width="3.5" stroke-linecap="butt" stroke-linejoin="miter"/><path d="M259.92626,215.73441c0,-0.20538 0.01136,-0.41077 0.03441,-0.61505l5.45706,0.61505zM220.03908,215.11938c0.02306,0.20428 0.03441,0.40968 0.03441,0.61505h-5.49147zM278.40581,149.49629l-7.53138,66.85279l-10.91376,-1.22972l7.53102,-66.85258zM270.90921,215.73441c0,2.19915 -0.7831,4.98407 -2.58796,7.31941c-1.98499,2.56891 -5.18835,4.53888 -9.4933,4.53888v-10.98296c0.41369,0 0.57953,-0.08309 0.61248,-0.09994c0.0465,-0.02378 0.1091,-0.06662 0.19038,-0.17169c0.09151,-0.11825 0.18086,-0.28519 0.24309,-0.4719c0.06992,-0.20904 0.05235,-0.27859 0.05235,-0.1318zM258.82795,227.59272h-37.65615v-10.98296h37.65615zM221.1718,227.59272c-4.30495,0 -7.5083,-1.96997 -9.4933,-4.53888c-1.80486,-2.33534 -2.58781,-5.12025 -2.58781,-7.31941h10.98281c0,-0.1468 -0.01757,-0.07724 0.05235,0.1318c0.06222,0.18671 0.15157,0.35365 0.24309,0.4719c0.08127,0.10508 0.14388,0.14791 0.19038,0.17169c0.03295,0.01684 0.1988,0.09994 0.61248,0.09994zM209.12521,216.3491l-7.53115,-66.85279l10.91403,-1.22951l7.53102,66.85258z" fill="#ffffff" stroke="none" stroke-width="1" stroke-linecap="butt" stroke-linejoin="miter"/><path d="M216.20348,148.88154v-7.32198h10.98296v7.32198zM216.20348,141.55957c0,-2.03532 0.50741,-4.50745 2.36645,-6.48572c1.91323,-2.03638 4.42247,-2.66674 6.57403,-2.66674v10.98296c-0.10872,0 0.67582,0.00698 1.42998,-0.79545c0.69924,-0.74439 0.61248,-1.38601 0.61248,-1.03503zM225.14397,132.40711h29.49984v10.98296h-29.49984zM254.64381,132.40711c2.13838,0 4.58538,0.61684 6.51179,2.49535c1.95021,1.90151 2.64067,4.38641 2.64067,6.65709h-10.98296c0,-0.11561 -0.00988,0.53879 0.67473,1.20636c0.66116,0.64463 1.27769,0.62413 1.15578,0.62413zM263.79627,141.55957v7.32198h-10.98296v-7.32198z" fill="#ffffff" stroke="none" stroke-width="1" stroke-linecap="butt" stroke-linejoin="miter"/><path d="M287.59268,150.66837h-95.18561" fill="none" stroke="#ffffff" stroke-width="5" stroke-linecap="round" stroke-linejoin="round"/></g></g></svg>