<svg version="1.1" xmlns="http://www.w3.org/2000/svg" xmlns:xlink="http://www.w3.org/1999/xlink" width="115.37729" height="127.29321" viewBox="0,0,115.37729,127.29321"><g transform="translate(-175.12271,-113.42657)"><g data-paper-data="{&quot;isPaintingLayer&quot;:true}" fill-rule="nonzero" stroke-miterlimit="10" stroke-dasharray="" stroke-dashoffset="0" style="mix-blend-mode: normal"><g stroke="#ffeb00" stroke-width="2.5"><path d="M274.49665,202.62228c0,5.7392 -4.65464,10.39264 -10.39264,10.39264h-48.20918c-5.7392,0 -10.39143,-4.65464 -10.39143,-10.39264v-45.24572c0,-5.7392 4.65223,-10.39143 10.39143,-10.39143h48.20798c5.74162,0 10.39264,4.65223 10.39264,10.39143v45.24572z" fill-opacity="0.2" fill="#ffea00" stroke-linecap="butt" stroke-linejoin="miter"/><path d="M223.19101,198.01017v-31.93712c0,-2.6897 0,-4.03555 0.52346,-5.06287c0.46042,-0.90368 1.19459,-1.63784 2.09827,-2.09827c1.02732,-0.52346 2.37317,-0.52346 5.06287,-0.52346h22.09184c1.34472,0 2.01829,0 2.53191,0.26172c0.45168,0.23024 0.81692,0.59733 1.04696,1.04914c0.26174,0.51367 0.26271,1.18659 0.26271,2.53145v28.33519c0,1.34472 -0.00096,2.01636 -0.26271,2.53c-0.23004,0.45193 -0.5948,0.82005 -1.04648,1.05033c-0.51316,0.2615 -1.18575,0.2615 -2.52808,0.2615h-24.37787c-2.98394,0 -5.40289,2.41906 -5.40289,5.40289c0,0.99461 0.80633,1.80096 1.80096,1.80096h25.57851c1.34232,0 2.01492,0 2.52808,-0.2615c0.45168,-0.23028 0.81643,-0.59816 1.04648,-1.05008c0.26174,-0.51364 0.26271,-1.18552 0.26271,-2.53048v-3.36181" fill="none" stroke-linecap="round" stroke-linejoin="round"/></g><text transform="translate(257.2874,155.05236) scale(0.5,0.5)" font-size="40" xml:space="preserve" fill="#ff0000" fill-rule="nonzero" stroke="none" stroke-width="1" stroke-linecap="butt" stroke-linejoin="miter" stroke-miterlimit="10" stroke-dasharray="" stroke-dashoffset="0" font-family="Sans Serif" font-weight="normal" text-anchor="start" style="mix-blend-mode: normal"><tspan x="0" dy="0">х5</tspan></text><path d="M189.5,113.54763h5.14285v2.26019l-5.14285,0.0014z" fill-opacity="0.00784" fill="#00ffff" stroke="#00fff6" stroke-width="0" stroke-linecap="butt" stroke-linejoin="miter"/><path d="M286.55825,113.54763l-0.00254,-0.12105l3.94429,0.0016v0.11945z" fill-opacity="0.00784" fill="#00ffff" stroke="#00fff6" stroke-width="0" stroke-linecap="butt" stroke-linejoin="miter"/><path d="M290.5,230.50001h-0.93562l0.02197,-4.68068l0.91365,-2.49445z" fill-opacity="0.00784" fill="#00ffff" stroke="#00fff6" stroke-width="0" stroke-linecap="butt" stroke-linejoin="miter"/><path d="M175.12271,240.71979v-1.89883l1.24644,0.09677l0.04974,1.80206z" fill-opacity="0.00784" fill="#00ffff" stroke="#00fff6" stroke-width="0" stroke-linecap="butt" stroke-linejoin="miter"/></g></g></svg>