<svg version="1.1" xmlns="http://www.w3.org/2000/svg" xmlns:xlink="http://www.w3.org/1999/xlink" width="49.38551" height="49.38551" viewBox="0,0,49.38551,49.38551"><g transform="translate(-215.30724,-155.30725)"><g data-paper-data="{&quot;isPaintingLayer&quot;:true}" fill-rule="nonzero" stroke="#ffffff" stroke-linejoin="miter" stroke-miterlimit="10" stroke-dasharray="" stroke-dashoffset="0" style="mix-blend-mode: normal"><path d="M217.05724,197.99338c0,-9.4387 0,-29.56908 0,-35.14452c0,-2.79774 2.83778,-5.79161 5.52732,-5.79161c5.50055,0 25.79379,0 35.33657,0c3.06549,0 5.02162,2.6553 5.02162,5.21547c0,5.3825 0,25.71302 0,35.43259c0,3.19034 -2.11972,5.23745 -5.40571,5.23745c-9.74879,0 -29.76279,0 -35.14452,0c-2.6101,0 -5.33528,-1.9263 -5.33528,-4.94938z" fill="#000000" stroke-width="3.5" stroke-linecap="butt"/><path d="M257.21446,162.78554l-34.42893,34.42893" fill="none" stroke-width="5" stroke-linecap="round"/><path d="M222.78553,162.78554l34.42893,34.42893" data-paper-data="{&quot;index&quot;:null}" fill="none" stroke-width="5" stroke-linecap="round"/></g></g></svg>