<svg version="1.1" xmlns="http://www.w3.org/2000/svg" xmlns:xlink="http://www.w3.org/1999/xlink" width="147.66984" height="107.83782" viewBox="0,0,147.66984,107.83782"><g transform="translate(-166.16508,-136.39125)"><g data-paper-data="{&quot;isPaintingLayer&quot;:true}" fill-rule="nonzero" stroke-linejoin="miter" stroke-miterlimit="10" stroke-dasharray="" stroke-dashoffset="0" style="mix-blend-mode: normal"><path d="M166.16508,243.91335v-107.5221h147.66984v107.5221z" fill="#ffffff" stroke="none" stroke-width="0" stroke-linecap="butt"/><path d="M172,220.75v-81.5h136v81.5z" fill="#000000" stroke="none" stroke-width="0" stroke-linecap="butt"/><text transform="translate(201.9189,237.97907) scale(0.5,0.5)" font-size="40" xml:space="preserve" fill="#000000" fill-rule="nonzero" stroke="#000000" stroke-width="1" stroke-linecap="butt" stroke-linejoin="miter" stroke-miterlimit="10" stroke-dasharray="" stroke-dashoffset="0" font-family="Sans Serif" font-weight="normal" text-anchor="start" style="mix-blend-mode: normal"><tspan x="0" dy="0">Лазеръ</tspan></text><path d="M248.15459,139.44558l-48.14815,56.11111" fill="none" stroke="#3aff13" stroke-width="3.5" stroke-linecap="round"/><g stroke="#3aff13" stroke-width="1"><path d="M190.35332,201.27548h-19.76586v-6.42315h19.76586z" fill="#092903" stroke-linecap="butt"/><path d="M193.29413,222.29739v-18.6828h6.42315v18.6828z" fill="#092903" stroke-linecap="butt"/><path d="M189.17394,204.96138v-13.7343l5.63948,-7.25l10.63082,-0.42473l-2.06246,7.10624l7.41357,-2.41139l-0.63709,10.96227l-7.19595,5.75191z" fill="#092903" stroke-linecap="butt"/><path d="M203.3095,197.47607l-3.29611,-1.6526l-3.49764,1.6526l1.69291,-3.45733l-1.69291,-3.33641l3.37672,1.59214l3.41703,-1.59214l-1.9146,3.35657z" fill="#35ff12" stroke-linecap="butt"/><path d="M202.9093,204.95187l-6.85098,-6.94171l-6.74745,-6.65672l-2.21398,-5.58419l5.85501,-6.24843l1.83444,4.6122l8.71262,6.66684l6.45023,8.49601l5.52271,0.68749l-7.75132,7.2204z" fill="none" stroke-linecap="round"/></g><path d="M167.15254,222.69539v-85.39073h145.69492v85.39073zM306.30245,213.7052c0,-13.76894 0,-59.48565 0,-66.96176c0,-2.02466 -1.62431,-3.73601 -3.76958,-3.73863c-11.22048,-0.01366 -105.05287,-0.12843 -124.32303,-0.15201c-2.22047,-0.00271 -3.44984,1.24221 -3.448,3.40826c0.01142,13.27624 0.05256,61.10025 0.05867,68.21596c0.0015,1.73532 1.24511,3.14875 3.48587,3.14875c19.34968,0 113.14675,0 124.27487,0c2.11911,0 3.72116,-1.44315 3.72116,-3.92057z" fill="#ffffff" stroke="none" stroke-width="0" stroke-linecap="butt"/></g></g></svg>