<svg version="1.1" xmlns="http://www.w3.org/2000/svg" xmlns:xlink="http://www.w3.org/1999/xlink" width="96.07083" height="85.25888" viewBox="0,0,96.07083,85.25888"><g transform="translate(-191.7625,-132.32065)"><g data-paper-data="{&quot;isPaintingLayer&quot;:true}" fill-rule="nonzero" stroke-linecap="butt" stroke-linejoin="miter" stroke-miterlimit="10" stroke-dasharray="" stroke-dashoffset="0" style="mix-blend-mode: normal"><path d="M206.30255,210.57667v-67.39493h67.39493v67.39493z" fill-opacity="0.01569" fill="#000000" stroke="#808080" stroke-width="5"/><text transform="translate(220.84723,198.54853) scale(1.52248,1.52248)" font-size="40" xml:space="preserve" fill="#808080" fill-rule="nonzero" stroke="none" stroke-width="1" stroke-linecap="butt" stroke-linejoin="miter" stroke-miterlimit="10" stroke-dasharray="" stroke-dashoffset="0" font-family="Sans Serif" font-weight="normal" text-anchor="start" style="mix-blend-mode: normal"><tspan x="0" dy="0">if</tspan></text><path d="M267.16666,179.83334v-20.66667h20.66667v20.66667z" fill="#ffffff" stroke="#000000" stroke-width="0"/><path d="M214.66666,212.33333h-20.33333v-9.33333h20.33333z" fill="#ffffff" stroke="none" stroke-width="0"/><path d="M246,170.99999h14.66667v23h-14.66667z" fill="#ffffff" stroke="none" stroke-width="0"/><path d="M257.83333,141.16667v9h-29.33333v-9z" fill="#ffffff" stroke="none" stroke-width="0"/><path d="M276.49999,183.16667v24h-8v-24z" fill="#ffffff" stroke="none" stroke-width="0"/><path d="M257.5,217.49999h-32.66667v-13.33333h32.66667z" fill="#ffffff" stroke="none" stroke-width="0"/><path d="M204.83332,156.5v-23h13.33334v23z" fill="#ffffff" stroke="none" stroke-width="0"/><path d="M281.66667,152.33333h-17.66667l0,-13.33333l17.66667,0z" fill="#ffffff" stroke="none" stroke-width="0"/><path d="M213.57083,168.99485v16.67696h-21.80833v-16.67696z" fill="#ffffff" stroke="none" stroke-width="0"/><path d="M236.16667,165.16667v20.66667h-12.66667v-20.66667z" fill="#ffffff" stroke="none" stroke-width="0"/></g></g></svg>