<svg version="1.1" xmlns="http://www.w3.org/2000/svg" xmlns:xlink="http://www.w3.org/1999/xlink" width="106.23881" height="49.18464" viewBox="0,0,106.23881,49.18464"><g transform="translate(-185.651,-152.29265)"><g data-paper-data="{&quot;isPaintingLayer&quot;:true}" fill-rule="nonzero" stroke-linejoin="miter" stroke-miterlimit="10" stroke-dasharray="" stroke-dashoffset="0" style="mix-blend-mode: normal"><path d="M185.651,201.47729v-49.18464h106.23881v49.18464z" fill="#000000" stroke="none" stroke-width="0" stroke-linecap="butt"/><path d="M288.28062,160.51823l-22.01589,12.44376l-5.1963,-11.76004l-30.49406,11.07632l-9.84562,-11.6233l-17.50332,7.38421l-12.17028,-11.34981" fill="none" stroke="#ffffff" stroke-width="2.5" stroke-linecap="round"/><path d="M283.28938,183.1666l-10.66608,11.76004l-18.18704,-12.30702l-9.76022,11.91376l-10.95643,-11.10182l-10.87115,10.04202l-15.58911,-10.58047l-14.51212,12.01634l-1.21351,-14.75123" fill="none" stroke="#ffffff" stroke-width="2.5" stroke-linecap="round"/><path d="M213.82298,174.18427l7.86282,7.86282" fill="none" stroke="#ffffff" stroke-width="2.5" stroke-linecap="round"/><path d="M241.44551,175.37216l2.4359,3.71761" fill="none" stroke="#ffffff" stroke-width="2.5" stroke-linecap="round"/><path d="M276.93059,175.92767l-5.94839,5.94839" fill="none" stroke="#ffffff" stroke-width="2.5" stroke-linecap="round"/><path d="M270.85427,162.95401v-6.56374" fill="none" stroke="#ffffff" stroke-width="2.5" stroke-linecap="round"/><path d="M234.16377,162.14208v-6.15351" fill="none" stroke="#ffffff" stroke-width="2.5" stroke-linecap="round"/><path d="M206.13988,160.7234v-4.37583" fill="none" stroke="#ffffff" stroke-width="2.5" stroke-linecap="round"/><path d="M198.7042,179.40596v-5.74328" fill="none" stroke="#ffffff" stroke-width="2.5" stroke-linecap="round"/></g></g></svg>