<svg version="1.1" xmlns="http://www.w3.org/2000/svg" xmlns:xlink="http://www.w3.org/1999/xlink" width="147.66984" height="107.68434" viewBox="0,0,147.66984,107.68434"><g transform="translate(-166.16508,-136.39125)"><g data-paper-data="{&quot;isPaintingLayer&quot;:true}" fill-rule="nonzero" stroke-linecap="butt" stroke-linejoin="miter" stroke-miterlimit="10" stroke-dasharray="" stroke-dashoffset="0" style="mix-blend-mode: normal"><path d="M166.16508,243.91335v-107.5221h147.66984v107.5221z" fill="#ffffff" stroke="none" stroke-width="0"/><path d="M306.34699,213.72791c0,2.47742 -1.60379,3.9237 -3.7229,3.9237c-11.12812,0 -105.01087,-0.00006 -124.36055,-0.00006c-2.24076,0 -3.48585,-1.41607 -3.48735,-3.15139c-0.00611,-7.11571 -0.04733,-54.98578 -0.05875,-68.26202c-0.00184,-2.16605 1.22907,-3.41374 3.44955,-3.41103c19.27016,0.02358 113.18829,0.13833 124.40877,0.15199c2.14527,0.00262 3.77127,1.71702 3.77127,3.74168c0,7.47611 0.00001,53.23818 0.00001,67.00713z" data-paper-data="{&quot;noHover&quot;:false,&quot;origItem&quot;:[&quot;Path&quot;,{&quot;applyMatrix&quot;:true,&quot;segments&quot;:[[[612.6049,427.41046],[0,0],[0,-27.53788]],[[612.6049,293.48694],[0,14.95222],[0,-4.04932]],[[605.06574,286.00968],[4.29054,0.00524],[-22.44096,-0.02732]],[[356.41968,285.70566],[38.54032,0.04716],[-4.44094,-0.00542]],[[349.52368,292.52218],[-0.00368,-4.3321],[0.02284,26.55248]],[[349.64102,428.9541],[-0.01222,-14.23142],[0.003,3.47064]],[[356.61276,435.2516],[-4.48152,0],[38.69936,0]],[[605.1625,435.2516],[-22.25624,0],[4.23822,0]],[[612.60482,427.41046],[0,4.95484],[0,0]]],&quot;closed&quot;:true,&quot;fillColor&quot;:[0,0,0,1]}]}" fill="#00dcff" stroke="none" stroke-width="0.5"/><path d="M169.02742,218.33124v-22.58768h140.65239v22.58768z" fill="#a5a5a5" stroke="none" stroke-width="0"/><path d="M184.24608,204.87474v-50.94244h28.67515v50.94244z" fill="#a5a5a5" stroke="none" stroke-width="0"/><path d="M224.32908,213.23887v-45.49576h28.67514v45.49576z" fill="#a5a5a5" stroke="none" stroke-width="0"/><path d="M268.41697,200.29688v-50.94244h28.67514v50.94244z" fill="#a5a5a5" stroke="none" stroke-width="0"/><path d="M187.12961,163.54409v-4.00491h3.85851v4.00491z" fill="#fff000" stroke="none" stroke-width="0"/><path d="M196.36337,163.61436v-4.00491h3.8585v4.00491z" fill="#2e2e2e" stroke="none" stroke-width="0"/><path d="M206.00312,163.62664v-4.00491h3.8585v4.00491z" fill="#fff000" stroke="none" stroke-width="0"/><path d="M187.19988,173.7058v-4.00491h3.8585v4.00491z" fill="#2e2e2e" stroke="none" stroke-width="0"/><path d="M196.43365,173.77607v-4.00491h3.85851v4.00491z" fill="#2e2e2e" stroke="none" stroke-width="0"/><path d="M206.07339,173.78835v-4.0049h3.85851v4.0049z" fill="#fff000" stroke="none" stroke-width="0"/><path d="M187.09617,183.63552v-4.00491h3.8585v4.00491z" fill="#fff000" stroke="none" stroke-width="0"/><path d="M196.32993,183.7058v-4.00491h3.85851v4.00491z" fill="#2e2e2e" stroke="none" stroke-width="0"/><path d="M205.96967,183.71807v-4.0049h3.85851v4.0049z" fill="#2e2e2e" stroke="none" stroke-width="0"/><path d="M187.22444,192.92728v-4.00491h3.8585v4.00491z" fill="#2e2e2e" stroke="none" stroke-width="0"/><path d="M196.45821,192.99756v-4.00491h3.85851v4.00491z" fill="#fff000" stroke="none" stroke-width="0"/><path d="M227.12961,175.21075v-4.00491h3.8585v4.00491z" fill="#2e2e2e" stroke="none" stroke-width="0"/><path d="M236.36338,175.28103v-4.00491h3.85851v4.00491z" fill="#fff000" stroke="none" stroke-width="0"/><path d="M246.00312,175.2933v-4.0049h3.85851v4.0049z" fill="#fff000" stroke="none" stroke-width="0"/><path d="M227.46294,184.04408v-4.0049h3.8585v4.0049z" fill="#2e2e2e" stroke="none" stroke-width="0"/><path d="M236.69671,184.11436v-4.00491h3.85851v4.00491z" fill="#2e2e2e" stroke="none" stroke-width="0"/><path d="M246.33645,184.12663v-4.0049h3.85851v4.0049z" fill="#fff000" stroke="none" stroke-width="0"/><path d="M227.96294,192.87742v-4.0049h3.8585v4.0049z" fill="#2e2e2e" stroke="none" stroke-width="0"/><path d="M237.19671,192.94769v-4.00491h3.85851v4.00491z" fill="#fff000" stroke="none" stroke-width="0"/><path d="M271.79627,157.04408v-4.0049h3.8585v4.0049z" fill="#fff000" stroke="none" stroke-width="0"/><path d="M281.03004,157.11436v-4.00491h3.85851v4.00491z" fill="#2e2e2e" stroke="none" stroke-width="0"/><path d="M290.66978,157.12663v-4.0049h3.85851v4.0049z" fill="#fff000" stroke="none" stroke-width="0"/><path d="M271.96294,166.71075v-4.0049h3.85851v4.0049z" fill="#2e2e2e" stroke="none" stroke-width="0"/><path d="M281.19669,166.78103v-4.00491h3.8585v4.00491z" fill="#2e2e2e" stroke="none" stroke-width="0"/><path d="M290.83645,166.7933v-4.0049h3.85851v4.0049z" fill="#2e2e2e" stroke="none" stroke-width="0"/><path d="M272.29627,176.04408v-4.0049h3.8585v4.0049z" fill="#fff000" stroke="none" stroke-width="0"/><path d="M281.53004,176.11436v-4.00491h3.8585v4.00491z" fill="#2e2e2e" stroke="none" stroke-width="0"/><path d="M291.16978,176.12663v-4.0049h3.85851v4.0049z" fill="#2e2e2e" stroke="none" stroke-width="0"/><path d="M272.12961,185.71075v-4.0049h3.85851v4.0049z" fill="#2e2e2e" stroke="none" stroke-width="0"/><path d="M281.36338,185.78103v-4.00491h3.8585v4.00491z" fill="#fff000" stroke="none" stroke-width="0"/><path d="M291.00311,185.7933v-4.0049h3.85851v4.0049z" fill="#2e2e2e" stroke="none" stroke-width="0"/><path d="M280.86338,193.78103v-4.00491h3.8585v4.00491z" fill="#2e2e2e" stroke="none" stroke-width="0"/><path d="M290.50311,193.7933v-4.0049h3.85851v4.0049z" fill="#2e2e2e" stroke="none" stroke-width="0"/><path d="M204.91668,194.83333v-7.83333h4.66667v7.83333z" fill="#969696" stroke="none" stroke-width="0"/><path d="M245.08334,195.33334v-7.83334h4.66667v7.83334z" fill="#969696" stroke="none" stroke-width="0"/><path d="M272.08333,196.33334v-7.83334h4.66667v7.83334z" fill="#969696" stroke="none" stroke-width="0"/><path d="M167.15254,222.69539v-85.39073h145.69492v85.39073zM306.30245,213.7052c0,-13.76894 0,-59.48565 0,-66.96176c0,-2.02466 -1.62431,-3.73601 -3.76958,-3.73863c-11.22048,-0.01366 -105.05287,-0.12843 -124.32303,-0.15201c-2.22047,-0.00271 -3.44984,1.24221 -3.448,3.40826c0.01142,13.27624 0.05256,61.10025 0.05867,68.21596c0.0015,1.73532 1.24511,3.14875 3.48587,3.14875c19.34968,0 113.14675,0 124.27487,0c2.11911,0 3.72116,-1.44315 3.72116,-3.92057z" fill="#ffffff" stroke="none" stroke-width="0"/><text transform="translate(185.35001,237.82559) scale(0.5,0.5)" font-size="40" xml:space="preserve" fill="#000000" fill-rule="nonzero" stroke="#000000" stroke-width="1" stroke-linecap="butt" stroke-linejoin="miter" stroke-miterlimit="10" stroke-dasharray="" stroke-dashoffset="0" font-family="Sans Serif" font-weight="normal" text-anchor="start" style="mix-blend-mode: normal"><tspan x="0" dy="0">Алго Город</tspan></text><path d="M306.3356,213.7221c0,2.47741 -1.60335,3.9229 -3.72246,3.9229c-11.12813,0 -104.98898,-0.00004 -124.33866,-0.00004c-2.24076,0 -3.48547,-1.41541 -3.48697,-3.15073c-0.00611,-7.11571 -0.04731,-54.974 -0.05873,-68.25025c-0.00185,-2.16606 1.22867,-3.41303 3.44915,-3.41032c19.27016,0.02359 113.16639,0.13834 124.38687,0.152c2.14527,0.00262 3.77083,1.71624 3.77083,3.74091c0,7.47612 0.00001,53.22659 0.00001,66.99554z" data-paper-data="{&quot;noHover&quot;:false,&quot;origItem&quot;:[&quot;Path&quot;,{&quot;applyMatrix&quot;:true,&quot;segments&quot;:[[[390.11262,450.54452],[0,0],[0,-36.98842]],[[390.11262,270.66074],[0,20.08358],[0,-5.43898]],[[379.98616,260.6174],[5.76298,0.00704],[-30.1423,-0.0367]],[[46.00902,260.20904],[51.7667,0.06336],[-5.965,-0.00728]],[[36.74644,269.36488],[-0.00496,-5.81882],[0.03068,35.66484]],[[36.90406,452.6179],[-0.01642,-19.1154],[0.00402,4.6617]],[[46.26838,461.0766],[-6.0195,0],[51.98032,0]],[[380.11614,461.0766],[-29.89422,0],[5.6927,0]],[[390.11254,450.54452],[0,6.65524],[0,0]]],&quot;closed&quot;:true,&quot;fillColor&quot;:[0,0,0,1]}]}" fill="none" stroke="#dbdbdb" stroke-width="0.5"/></g></g></svg>