<svg version="1.1" xmlns="http://www.w3.org/2000/svg" xmlns:xlink="http://www.w3.org/1999/xlink" width="453.97255" height="185.30566" viewBox="0,0,453.97255,185.30566"><g transform="translate(8.43893,-3.71408)"><g data-paper-data="{&quot;isPaintingLayer&quot;:true}" fill-rule="nonzero" stroke="none" stroke-linecap="butt" stroke-linejoin="miter" stroke-miterlimit="10" stroke-dasharray="" stroke-dashoffset="0" style="mix-blend-mode: normal"><text transform="translate(7.40551,21.6078) scale(0.41135,0.41135)" font-size="40" xml:space="preserve" fill="#27bb00" fill-rule="nonzero" stroke="none" stroke-width="1" stroke-linecap="butt" stroke-linejoin="miter" stroke-miterlimit="10" stroke-dasharray="" stroke-dashoffset="0" font-family="Sans Serif" font-weight="normal" text-anchor="start" style="mix-blend-mode: normal"><tspan x="0" dy="0">import pygame</tspan><tspan x="0" dy="46.150000000000006px"> </tspan><tspan x="0" dy="46.150000000000006px">def display_text(text, font):</tspan><tspan x="0" dy="46.150000000000006px">    displayable_text = Text(text, font)</tspan><tspan x="0" dy="46.150000000000006px">    main_win.display(displayable_text)</tspan><tspan x="0" dy="46.150000000000006px"> </tspan><tspan x="0" dy="46.150000000000006px">main_font = Font.game_font</tspan><tspan x="0" dy="46.150000000000006px">display_text("AlgoHacker", color = #00FF00 ,main_font)</tspan><tspan x="0" dy="46.150000000000006px">display_text("Hard Mode", color = #FF0000 ,main_font)</tspan></text><path d="M414.38439,45.05241c0,-3.34197 0,-23.69184 0,-29.14339c0,-0.85412 0.61835,-1.05085 1.68015,-0.55c5.8938,2.78009 25.45073,12.00506 28.75941,13.56576c0.93037,0.43885 0.94937,1.22651 0.03686,1.70859c-3.32341,1.75576 -23.3772,12.35022 -29.00743,15.32468c-0.9322,0.49248 -1.46899,0.00226 -1.46899,-0.90564z" fill="#27bb00" stroke-width="0"/><path d="M-8.43893,186.51974c0,-1.38071 1.11929,-2.5 2.5,-2.5c1.38071,0 2.5,1.11929 2.5,2.5c0,1.38071 -1.11929,2.5 -2.5,2.5c-1.38071,0 -2.5,-1.11929 -2.5,-2.5z" fill="#9966ff" stroke-width="0.5"/></g></g></svg>