<svg version="1.1" xmlns="http://www.w3.org/2000/svg" xmlns:xlink="http://www.w3.org/1999/xlink" width="13.51334" height="9.63766" viewBox="0,0,13.51334,9.63766"><g transform="translate(-235.18117,-175.18117)"><g data-paper-data="{&quot;isPaintingLayer&quot;:true}" fill-rule="nonzero" stroke-width="0.5" stroke-linecap="butt" stroke-linejoin="miter" stroke-miterlimit="10" stroke-dasharray="" stroke-dashoffset="0" style="mix-blend-mode: normal"><g><path d="M241.48064,175.80477l6.74047,4.17104l-6.67391,4.17104z" fill="#ff0000" stroke="#6d0000"/><path d="M235.43117,180c0,-2.5233 2.04554,-4.56883 4.56883,-4.56883c2.5233,0 4.56883,2.04554 4.56883,4.56883c0,2.5233 -2.04554,4.56883 -4.56883,4.56883c-2.5233,0 -4.56883,-2.04554 -4.56883,-4.56883z" fill="#ff0000" stroke="#6d0000"/><path d="M238.82095,180c0,-0.65117 0.52788,-1.17905 1.17905,-1.17905c0.65117,0 1.17905,0.52788 1.17905,1.17905c0,0.65117 -0.52788,1.17905 -1.17905,1.17905c-0.65117,0 -1.17905,-0.52788 -1.17905,-1.17905z" fill="#000000" stroke="none"/></g></g></g></svg>