<svg version="1.1" xmlns="http://www.w3.org/2000/svg" xmlns:xlink="http://www.w3.org/1999/xlink" width="365.33163" height="180.94735" viewBox="0,0,365.33163,180.94735"><g transform="translate(-58.88835,-93.83333)"><g data-paper-data="{&quot;isPaintingLayer&quot;:true}" fill-rule="nonzero" stroke-linejoin="miter" stroke-miterlimit="10" stroke-dasharray="" stroke-dashoffset="0" style="mix-blend-mode: normal"><text transform="translate(63.28559,257.19173) scale(1.09931,1.09931)" font-size="40" xml:space="preserve" fill="#ff3333" fill-rule="nonzero" stroke="#ff3333" stroke-width="8" stroke-linecap="butt" stroke-linejoin="miter" stroke-miterlimit="10" stroke-dasharray="" stroke-dashoffset="0" font-family="Sans Serif" font-weight="normal" text-anchor="start" style="mix-blend-mode: normal"><tspan x="0" dy="0">Читер концовка</tspan></text><text transform="translate(63.28559,258.19173) scale(1.09931,1.09931)" font-size="40" xml:space="preserve" fill="#ff0000" fill-rule="nonzero" stroke="#ff0000" stroke-width="2" stroke-linecap="butt" stroke-linejoin="miter" stroke-miterlimit="10" stroke-dasharray="" stroke-dashoffset="0" font-family="Sans Serif" font-weight="normal" text-anchor="start" style="mix-blend-mode: normal"><tspan x="0" dy="0">Читер концовка</tspan></text><g stroke="#ff0000" stroke-width="5.5" stroke-linecap="butt"><path d="M186.70961,190.41745c0,-30.96799 24.37274,-56.07251 54.43801,-56.07251c30.06527,0 54.43801,25.10452 54.43801,56.07251c0,30.96799 -24.37274,27.25313 -54.43801,27.25313c-30.06527,0 -54.43801,3.71486 -54.43801,-27.25313z" fill-opacity="0.36863" fill="#ff0000"/><path d="M226.24558,180.39332c0,-8.13127 6.39956,-14.72295 14.29376,-14.72295c7.89424,0 14.29376,6.5917 14.29376,14.72295c0,8.13127 -6.39956,14.72295 -14.29376,14.72295c-7.89424,0 -14.29376,-6.5917 -14.29376,-14.72295z" fill-opacity="0.10196" fill="#ff0000"/></g><path d="M299.61239,129.19445l-22.5,3.05556l4.72222,-12.22222" fill="none" stroke="#ff0000" stroke-width="5.5" stroke-linecap="round"/><text transform="translate(300.16794,115.58334) scale(0.5,0.5)" font-size="40" xml:space="preserve" fill="#ff0000" fill-rule="nonzero" stroke="none" stroke-width="1" stroke-linecap="butt" stroke-linejoin="miter" stroke-miterlimit="10" stroke-dasharray="" stroke-dashoffset="0" font-family="Sans Serif" font-weight="normal" text-anchor="start" style="mix-blend-mode: normal"><tspan x="0" dy="0">Не одобряю</tspan></text></g></g></svg>