<svg version="1.1" xmlns="http://www.w3.org/2000/svg" xmlns:xlink="http://www.w3.org/1999/xlink" width="87.66666" height="85.25888" viewBox="0,0,87.66666,85.25888"><g transform="translate(-197.5,-132.32065)"><g data-paper-data="{&quot;isPaintingLayer&quot;:true}" fill-rule="nonzero" stroke-linecap="butt" stroke-linejoin="miter" stroke-miterlimit="10" stroke-dasharray="" stroke-dashoffset="0" style="mix-blend-mode: normal"><path d="M206.30255,210.57667v-67.39493h67.39493v67.39493z" fill-opacity="0.01569" fill="#000000" stroke="#808080" stroke-width="5"/><text transform="translate(220.84723,198.54853) scale(1.52248,1.52248)" font-size="40" xml:space="preserve" fill="#808080" fill-rule="nonzero" stroke="none" stroke-width="1" stroke-linecap="butt" stroke-linejoin="miter" stroke-miterlimit="10" stroke-dasharray="" stroke-dashoffset="0" font-family="Sans Serif" font-weight="normal" text-anchor="start" style="mix-blend-mode: normal"><tspan x="0" dy="0">if</tspan></text><path d="M230.83333,217.16667v-20.66667h20.66667v20.66667z" fill="#ffffff" stroke="#000000" stroke-width="0"/><path d="M199.5,188.16666v-20.33333h9.33333v20.33333z" fill="#ffffff" stroke="none" stroke-width="0"/><path d="M237.83333,176.83333v-14.66667h23v14.66667z" fill="#ffffff" stroke="none" stroke-width="0"/><path d="M212.5,191.5v-9h29.33333v9z" fill="#ffffff" stroke="none" stroke-width="0"/><path d="M281.49999,207.16667l-24,0v-8l24,0z" fill="#ffffff" stroke="none" stroke-width="0"/><path d="M271.83333,194.16666v-32.66667h13.33333v32.66667z" fill="#ffffff" stroke="none" stroke-width="0"/><path d="M201.49999,161.16667v-16.66667h21v16.66667z" fill="#ffffff" stroke="none" stroke-width="0"/><path d="M262.16667,153.83333v-17.66667h13.33333v17.66667z" fill="#ffffff" stroke="none" stroke-width="0"/><path d="M229.5,155.16666v-13h17v13z" fill="#ffffff" stroke="none" stroke-width="0"/><path d="M218.16667,213.83334l-20.66667,0l0,-12.66667h20.66667z" fill="#ffffff" stroke="none" stroke-width="0"/></g></g></svg>