<svg version="1.1" xmlns="http://www.w3.org/2000/svg" xmlns:xlink="http://www.w3.org/1999/xlink" width="180.13352" height="180.13352" viewBox="0,0,180.13352,180.13352"><g transform="translate(-149.93323,-89.93323)"><g data-paper-data="{&quot;isPaintingLayer&quot;:true}" fill-rule="nonzero" stroke-linecap="butt" stroke-linejoin="miter" stroke-miterlimit="10" stroke-dasharray="" stroke-dashoffset="0" style="mix-blend-mode: normal"><path d="M149.93324,180c0,-49.74251 40.32426,-90.06676 90.06676,-90.06676c49.74251,0 90.06676,40.32426 90.06676,90.06676c0,49.74251 -40.32426,90.06676 -90.06676,90.06676c-49.74251,0 -90.06676,-40.32426 -90.06676,-90.06676z" fill-opacity="0.01176" fill="#00c8ff" stroke="#ff450a" stroke-width="0"/><g fill="none" stroke="#ff450a" stroke-width="1.5"><g><path d="M223.89356,196.10644v-32.21279h32.21279v32.21279z"/><path d="M239.37595,215.57095l-34.94691,-34.94691l36.195,-36.195l34.94691,34.94691z"/></g><g><path d="M239.99998,202.77791l-22.77789,-22.77789l22.77789,-22.77789l22.77789,22.77789z"/></g></g><g fill="none" stroke="#ff450a" stroke-width="1"><g><g><g><path d="M246.28293,177.40876l-3.69168,-3.69168l3.69168,-3.69168l3.69168,3.69168z"/><path d="M250.28795,177.86513h-8.01004v-8.29611h8.01004z"/></g><g><path d="M248.89335,176.32749h-5.22083v-5.22083h5.22083z"/><path d="M252.04803,173.81821l-5.66395,5.66395l-5.86624,-5.86624l5.66395,-5.66395z"/></g></g><g><g><path d="M233.71707,189.97462l-3.69168,-3.69168l3.69168,-3.69168l3.69168,3.69168z"/><path d="M237.72209,190.43099h-8.01004v-8.29611h8.01004z"/></g><g><path d="M236.32748,188.89335h-5.22083v-5.22083h5.22083z"/><path d="M239.48216,186.38407l-5.66395,5.66395l-5.86624,-5.86624l5.66395,-5.66395z"/></g></g></g><g><g><g><path d="M237.40876,173.71707l-3.69168,3.69168l-3.69168,-3.69168l3.69168,-3.69168z"/><path d="M237.86512,169.71205v8.01004h-8.29611v-8.01004z"/></g><g><path d="M236.32749,171.10665v5.22083h-5.22083v-5.22083z"/><path d="M233.81821,167.95197l5.66395,5.66395l-5.86624,5.86624l-5.66395,-5.66395z"/></g></g><g><g><path d="M249.97462,186.28293l-3.69168,3.69168l-3.69168,-3.69168l3.69168,-3.69168z"/><path d="M250.43099,182.27791v8.01004h-8.29611v-8.01004z"/></g><g><path d="M248.89335,183.67252v5.22083h-5.22083v-5.22083z"/><path d="M246.38407,180.51784l5.66395,5.66395l-5.86624,5.86624l-5.66395,-5.66395z"/></g></g></g></g><g fill="none" stroke="#ff450a" stroke-width="1"><g><g><g><path d="M255.13975,186.2982v-12.59636h12.59636v12.59636z"/><path d="M261.19392,193.90953l-13.6655,-13.6655l14.15355,-14.15355l13.6655,13.6655z"/></g><g><path d="M261.43794,188.90699l-8.90698,-8.90698l8.90698,-8.90698l8.90698,8.90698z"/><path d="M271.10091,190.00808h-19.32593v-20.01615h19.32593z"/></g></g><g><g><path d="M212.26386,186.2982v-12.59636h12.59636v12.59636z"/><path d="M218.31803,193.90953l-13.6655,-13.6655l14.15355,-14.15355l13.6655,13.6655z"/></g><g><path d="M218.56205,188.90699l-8.90698,-8.90698l8.90698,-8.90698l8.90698,8.90698z"/><path d="M228.22502,190.00808h-19.32593v-20.01615h19.32593z"/></g></g></g><g><g><g><path d="M246.2982,164.86025h-12.59636v-12.59636h12.59636z"/><path d="M254.63747,158.80608l-13.6655,13.6655l-14.15355,-14.15355l13.6655,-13.6655z"/></g><g><path d="M248.90699,158.56205l-8.90698,8.90698l-8.90698,-8.90698l8.90698,-8.90698z"/><path d="M250.00808,148.89909v19.32593h-20.01615v-19.32593z"/></g></g><g><g><path d="M246.2982,207.73614h-12.59636v-12.59636h12.59636z"/><path d="M253.18158,201.68197l-13.6655,13.6655l-14.15355,-14.15355l13.6655,-13.6655z"/></g><g><path d="M248.90699,201.43795l-8.90698,8.90698l-8.90698,-8.90698l8.90698,-8.90698z"/><path d="M250.00808,191.77498v19.32593h-20.01615v-19.32593z"/></g></g></g></g><path d="M170.49074,160.61661z" fill-opacity="0.01176" fill="#00c8ff" stroke="none" stroke-width="0"/></g></g></svg>