<svg version="1.1" xmlns="http://www.w3.org/2000/svg" xmlns:xlink="http://www.w3.org/1999/xlink" width="12.66667" height="12.66667" viewBox="0,0,12.66667,12.66667"><g transform="translate(-233.66666,-173.66666)"><g data-paper-data="{&quot;isPaintingLayer&quot;:true}" fill-rule="nonzero" stroke-linecap="butt" stroke-linejoin="miter" stroke-miterlimit="10" stroke-dasharray="" stroke-dashoffset="0" style="mix-blend-mode: normal"><path d="M234.75,180c0,-2.89949 2.35051,-5.25 5.25,-5.25c2.89949,0 5.25,2.35051 5.25,5.25c0,2.89949 -2.35051,5.25 -5.25,5.25c-2.89949,0 -5.25,-2.35051 -5.25,-5.25z" fill="#2fff00" stroke="#000000" stroke-width="0"/><path d="M234.41667,185.58334v-11.16667h11.16667v11.16667z" fill="#000000" stroke="#000000" stroke-width="1.5"/><path d="M234.625,180c0,-2.96853 2.40647,-5.375 5.375,-5.375c2.96853,0 5.375,2.40647 5.375,5.375c0,2.96853 -2.40647,5.375 -5.375,5.375c-2.96853,0 -5.375,-2.40647 -5.375,-5.375z" fill="#ff0000" stroke="#ff0000" stroke-width="1.5"/></g></g></svg>