<svg version="1.1" xmlns="http://www.w3.org/2000/svg" xmlns:xlink="http://www.w3.org/1999/xlink" width="372.46902" height="185.28201" viewBox="0,0,372.46902,185.28201"><g transform="translate(-101.8674,-75.96803)"><g data-paper-data="{&quot;isPaintingLayer&quot;:true}" fill-rule="nonzero" stroke-linecap="butt" stroke-linejoin="miter" stroke-miterlimit="10" stroke-dasharray="" stroke-dashoffset="0" style="mix-blend-mode: normal"><path d="M103.1174,223.6667c0,-30.63453 0,-72.14967 0,-89.33333c0,-15.03183 13.0436,-34.33334 27.1843,-34.33334c41.02262,0 243.8002,0 316.6586,0c16.32393,0 26.12612,16.91735 26.12612,30.66667c0,17.07089 0,60.77377 0,92.66667c0,20.85933 -10.65092,36.66667 -28.24247,36.66667c-74.94993,0 -275.88898,0 -315.86497,0c-13.53146,0 -25.86158,-15.69829 -25.86158,-36.33334z" fill-opacity="0.70196" fill="#ff0000" stroke="#000000" stroke-width="2.5"/><text transform="translate(117.28379,156.12198) scale(0.69235,0.69235)" font-size="40" xml:space="preserve" fill="#000000" fill-rule="nonzero" stroke="none" stroke-width="1" stroke-linecap="butt" stroke-linejoin="miter" stroke-miterlimit="10" stroke-dasharray="" stroke-dashoffset="0" font-family="Sans Serif" font-weight="normal" text-anchor="start" style="mix-blend-mode: normal"><tspan x="0" dy="0">Эт фраза чисто чтобы ты </tspan><tspan x="0" dy="48px">закрыл консоль и </tspan><tspan x="0" dy="48px">насладился остальным</tspan></text><path d="M106.26702,114.26103c0,-9.1728 0,-21.60355 0,-26.74881c0,-4.50093 4.92119,-10.28033 10.2563,-10.28033c15.47732,0 91.98278,0 119.47135,0c6.15882,0 9.85706,5.06551 9.85706,9.18243c0,5.11148 0,18.1973 0,27.7469c0,6.24585 -4.01846,10.97899 -10.65553,10.97899c-28.27768,0 -104.08948,0 -119.17192,0c-5.10525,0 -9.75725,-4.70049 -9.75725,-10.87918z" fill-opacity="0.70196" fill="#ff0000" stroke="#000000" stroke-width="2.5"/><text transform="translate(123.5782,112.01213) scale(0.8286,0.8286)" font-size="40" xml:space="preserve" fill="#000000" fill-rule="nonzero" stroke="#000000" stroke-width="1" stroke-linecap="butt" stroke-linejoin="miter" stroke-miterlimit="10" stroke-dasharray="" stroke-dashoffset="0" font-family="Sans Serif" font-weight="normal" text-anchor="start" style="mix-blend-mode: normal"><tspan x="0" dy="0">Ариор</tspan></text></g></g></svg>