<svg version="1.1" xmlns="http://www.w3.org/2000/svg" xmlns:xlink="http://www.w3.org/1999/xlink" width="147.66984" height="107.60875" viewBox="0,0,147.66984,107.60875"><g transform="translate(-166.16508,-136.39125)"><g data-paper-data="{&quot;isPaintingLayer&quot;:true}" stroke-miterlimit="10" stroke-dasharray="" stroke-dashoffset="0" style="mix-blend-mode: normal"><path d="M166.16508,243.91335v-107.5221h147.66984v107.5221z" fill="#ffffff" fill-rule="nonzero" stroke="none" stroke-width="0" stroke-linecap="butt" stroke-linejoin="miter"/><path d="M167.11408,222.88773v-85.39073h145.69492v85.39073z" fill="#ffffff" fill-rule="nonzero" stroke="none" stroke-width="0" stroke-linecap="butt" stroke-linejoin="miter"/><path d="M244.19087,162.79657c0.09177,-0.06118 0.24472,-0.03059 0.27531,0.09177l0.79535,3.27316c0,0 1.95778,1.43774 2.53899,2.44722c0.97889,1.68247 1.00948,3.05903 1.00948,3.05903c0,0 2.17191,0.6424 2.53899,2.38604c0.36708,1.74365 -0.97889,5.0474 -6.72986,6.17924c-5.75097,1.13184 -10.37011,-0.42826 -12.54202,-3.91556c-2.17191,-3.48729 1.2542,-7.64757 1.07066,-7.40285l-0.6424,-5.47566c-0.03059,-0.12236 0.12236,-0.21413 0.24472,-0.15295l3.70142,2.41663c0,0 1.37656,-0.52003 2.81431,-0.58122c0.85653,-0.06118 1.59069,0 2.29427,0.12236z" fill="#ffab19" fill-rule="evenodd" stroke="#150e02" stroke-width="0.5" stroke-linecap="butt" stroke-linejoin="miter"/><text transform="translate(179.58899,203.98246) scale(0.22896,0.22896)" font-size="40" xml:space="preserve" fill="#000000" fill-rule="nonzero" stroke="none" stroke-width="1" stroke-linecap="butt" stroke-linejoin="miter" stroke-miterlimit="10" stroke-dasharray="" stroke-dashoffset="0" font-family="Sans Serif" font-weight="normal" text-anchor="start" style="mix-blend-mode: normal"><tspan x="0" dy="0">Разоблачение горе-хакера</tspan></text><text transform="translate(210.2479,211.77004) scale(0.15295,0.15295)" font-size="40" xml:space="preserve" fill="#000000" fill-rule="nonzero" stroke="none" stroke-width="1" stroke-linecap="butt" stroke-linejoin="miter" stroke-miterlimit="10" stroke-dasharray="" stroke-dashoffset="0" font-family="Sans Serif" font-weight="normal" text-anchor="start" style="mix-blend-mode: normal"><tspan x="0" dy="0">Он вам не тест тест</tspan></text><path d="M235.31968,184.24036c0.24472,0.12236 0.76476,0.39767 0.03059,1.43774c-0.73417,1.04007 -2.8449,1.2542 -3.08962,1.2542c-0.9483,0.03059 -2.11073,0.03059 -3.39552,-0.39767c-3.73201,-1.22361 -3.76261,-5.23094 -2.56958,-5.87333c1.16243,-0.6424 1.68247,1.83542 3.36493,3.33434c0.73417,0.67299 1.62129,0.91771 2.35545,1.07066c1.04007,0.18354 3.02844,-0.97889 3.30375,-0.82594z" fill="#ffab19" fill-rule="evenodd" stroke="#150e02" stroke-width="0.5" stroke-linecap="round" stroke-linejoin="round"/><path d="M227.73329,181.76254c0.48944,0.82594 1.43774,1.98837 1.43774,1.98837c0,0 -1.13184,-0.27531 -1.77424,0.24472c-0.52003,0.39767 -0.39767,1.07066 -0.33649,1.28479c-0.39767,-0.39767 -0.88712,-0.9483 -1.19302,-2.01896c-0.3059,-1.07066 0,-2.35545 0.61181,-2.53899c0.61181,-0.12236 0.76476,0.33649 1.2542,1.04007z" fill="#ffffff" fill-rule="evenodd" stroke="none" stroke-width="1" stroke-linecap="butt" stroke-linejoin="miter"/><path d="M236.8492,187.42175c-0.55063,0.36708 -2.44722,1.71306 -4.86386,2.47781l-0.12236,0.03059c-0.12236,0.03059 -0.18354,0.18354 -0.12236,0.3059c0.52003,0.73417 1.46833,2.2025 -0.21413,2.72254c-1.62129,0.52003 -4.64972,-3.7932 -3.36493,-4.92504c0.58122,-0.42826 1.10125,-0.21413 1.37656,-0.09177c0.15295,0.06118 0.3059,0.06118 0.45885,0.03059c0.36708,-0.12236 1.04007,-0.36708 1.5601,-0.6424c1.31538,-0.67299 1.62129,-0.9483 2.23309,-1.40715c0.61181,-0.45885 2.01896,-1.59069 3.1508,-0.61181c0.97889,0.82594 0.42826,1.74365 -0.09177,2.11073z" fill="#101218" fill-rule="evenodd" stroke="#060609" stroke-width="0.5" stroke-linecap="round" stroke-linejoin="round"/><path d="M241.71305,181.05897c0.15295,0.12236 2.01896,2.32486 2.63076,1.77424c0.73417,-0.6424 1.74365,-1.8966 2.8449,-0.88712c1.10125,1.00948 -0.97889,2.72254 -1.86601,3.18139c-2.11073,0.9483 -3.82379,-0.85653 -4.19087,-1.34597c-0.36708,-0.48944 -1.00948,-1.31538 -1.00948,-2.11073c0.03059,-0.85653 1.07066,-1.07066 1.59069,-0.61181z" fill="#25cd14" fill-rule="evenodd" stroke="#041702" stroke-width="0.5" stroke-linecap="round" stroke-linejoin="round"/><path d="M241.74364,188.1865c0.6424,0.58122 2.04955,1.77424 2.04955,1.77424c0,0 4.59407,-0.42725 4.25205,1.40715c-0.18511,0.99284 -2.08014,1.65188 -5.0474,1.37656c-0.18354,-0.03059 -0.36708,-0.09177 -0.52003,-0.21413c-0.67299,-0.58122 -2.60017,-2.29427 -3.82379,-3.48729c-1.80483,-1.77424 -3.30375,-2.93667 -3.30375,-2.93667c-2.60017,-2.53899 -0.48944,-3.60965 0.33649,-5.07799c0.76476,-1.2542 1.10125,-1.00948 2.93667,-0.6424c1.04007,0.15295 1.65188,0.24472 2.32486,0.21413c1.00948,-0.03059 0.82594,1.43774 0.55063,2.2025c0,0 -0.42826,1.13184 -0.82594,1.71306c-0.48944,0.70358 -0.85653,1.16243 -1.22361,1.43774z" fill="#25cd14" fill-rule="evenodd" stroke="#041702" stroke-width="0.5" stroke-linecap="round" stroke-linejoin="round"/><path d="M238.41188,183.46318l-0.63631,-0.07001l0.19118,-1.80949l1.85481,0.22912l-0.16339,1.77723l-0.67598,-0.06842l-0.32698,0.33175z" fill="#ae2aff" fill-rule="evenodd" stroke="none" stroke-width="1" stroke-linecap="butt" stroke-linejoin="miter"/><path d="M248.71823,171.79011c0,0 2.11073,0.55063 2.47781,2.29427c0.36708,1.74365 -1.10125,4.89445 -6.79104,5.9957c-7.40285,1.52951 -10.92073,-2.87549 -8.87118,-6.11806c2.04955,-3.27316 5.56743,-0.48944 8.13702,-0.67299c2.2025,-0.15295 2.44722,-2.08014 5.0474,-1.49892z" fill="#ffffff" fill-rule="evenodd" stroke="none" stroke-width="1" stroke-linecap="butt" stroke-linejoin="miter"/><path d="M254.34684,172.1266c-1.43774,1.16243 -3.64024,1.19302 -3.64024,1.19302" fill="none" fill-rule="evenodd" stroke="#000000" stroke-width="0.5" stroke-linecap="round" stroke-linejoin="round"/><path d="M253.94917,175.55272c-1.92719,0.15295 -3.12021,-0.42826 -3.12021,-0.42826" fill="none" fill-rule="evenodd" stroke="#000000" stroke-width="0.5" stroke-linecap="round" stroke-linejoin="round"/><path d="M243.54847,172.49369c0.6424,0 1.31538,0.06118 1.34597,0.27531c0.03059,0.42826 -0.42826,1.28479 -0.91771,1.31538c-0.55063,0.06118 -1.83542,-0.70358 -1.83542,-1.19302c-0.03059,-0.36708 0.79535,-0.39767 1.40715,-0.39767z" fill="#000000" fill-rule="evenodd" stroke="#000000" stroke-width="1.2" stroke-linecap="round" stroke-linejoin="round"/><path d="M229.78284,172.03483c0,0 2.63076,0.85653 3.70142,1.80483" fill="none" fill-rule="evenodd" stroke="#000000" stroke-width="0.5" stroke-linecap="round" stroke-linejoin="round"/><path d="M233.57604,174.91032c-1.31538,0.52003 -3.57906,0.18354 -3.57906,0.18354" fill="none" fill-rule="evenodd" stroke="#000000" stroke-width="0.5" stroke-linecap="round" stroke-linejoin="round"/><path d="M239.95357,177.22815c0,0 2.38552,-0.83031 3.58343,-0.83031c1.17607,0 3.53973,0.83031 3.53973,0.83031" fill="none" fill-rule="nonzero" stroke="#000000" stroke-width="0.5" stroke-linecap="round" stroke-linejoin="miter"/><path d="M243.76643,190.00178c0,0 5.03872,-0.51404 4.25205,1.49892c-0.78668,2.01296 -5.29212,1.16243 -5.29212,1.16243c0,0 -6.14948,-5.32918 -7.62322,-6.87687c-0.67007,-0.70369 -0.91147,-2.08608 -0.91147,-2.08608l5.16976,2.2025z" fill="#101218" fill-rule="nonzero" stroke="#060609" stroke-width="0.5" stroke-linecap="round" stroke-linejoin="miter"/><path d="M234.55493,183.41442c0.67299,0.85653 1.71306,1.92719 0.39767,2.81431c-1.80483,1.00948 -3.30375,-2.04955 -3.60965,-3.12021c-0.27531,-0.9483 0.52003,-1.5601 1.19302,-2.08014c1.31538,-0.9483 2.41663,-1.80483 3.64024,-1.34597c1.52951,0.55063 0.42826,1.77424 -0.33649,2.32486c-0.45885,0.33649 -0.91771,0.70358 -1.2542,0.91771c-0.09177,0.15295 -0.12236,0.33649 -0.03059,0.48944z" fill="#25cd14" fill-rule="evenodd" stroke="#041702" stroke-width="0.5" stroke-linecap="round" stroke-linejoin="round"/><text transform="translate(238.28158,183.06323) rotate(6.76423) scale(0.03723,0.03723)" font-size="40" xml:space="preserve" fill="#ffffff" fill-rule="nonzero" stroke="none" stroke-width="1" stroke-linecap="butt" stroke-linejoin="miter" stroke-miterlimit="10" stroke-dasharray="" stroke-dashoffset="0" font-family="Sans Serif" font-weight="normal" text-anchor="start" style="mix-blend-mode: normal"><tspan x="0" dy="0">А</tspan></text><text transform="translate(191.5,156.37738) scale(0.30633,0.30633)" font-size="40" xml:space="preserve" fill="#000000" fill-rule="nonzero" stroke="none" stroke-width="1" stroke-linecap="butt" stroke-linejoin="miter" stroke-miterlimit="10" stroke-dasharray="" stroke-dashoffset="0" font-family="Sans Serif" font-weight="normal" text-anchor="start" style="mix-blend-mode: normal"><tspan x="0" dy="0">История позора</tspan></text><path d="M249.88053,167.56924c-0.05256,0.48275 -1.6511,0.82067 -1.48348,0.97869c0.11865,0.11185 1.57883,-0.26967 1.77737,0.13286c0.2698,0.54698 -0.91647,0.85815 -0.84602,0.86785c0.72365,0.09958 1.41315,1.01367 1.47873,1.57306c0.0097,0.08271 -1.89668,0.82161 -3.07861,1.08361c-0.07894,0.0175 -3.15537,0.54994 -4.15007,0.67353c-1.66526,0.20691 -6.2696,0.41088 -6.44419,0.39899c-0.17797,-0.01212 -1.83846,0.43144 -2.13873,0.35926c-0.67224,-0.16161 -0.04366,-0.94056 -0.1354,-0.93912c-0.50191,0.0079 -2.54695,1.07495 -2.7461,-0.20296c-0.16551,-1.06202 1.72149,-0.63143 1.30736,-1.47699c-0.3451,-0.70461 -1.92331,-0.26103 -1.9921,-0.79166c-0.01211,-0.09345 -0.00839,-0.81551 0.22678,-1.00774c0.31112,-0.25431 0.88304,0.01473 0.93985,-0.08107c0.3763,-0.63459 -0.73793,-0.81941 1.55618,-0.98201c0.65358,-0.04633 14.44602,-1.90797 13.97567,-1.17755c0,0 1.82662,-0.08723 1.75275,0.59125z" fill="#000000" fill-rule="nonzero" stroke="none" stroke-width="0.5" stroke-linecap="butt" stroke-linejoin="miter"/><text transform="translate(236.09674,171.40606) rotate(-4.08997) scale(0.07494,0.07494)" font-size="40" xml:space="preserve" fill="#1e1e1e" fill-rule="nonzero" stroke="none" stroke-width="1" stroke-linecap="butt" stroke-linejoin="miter" stroke-miterlimit="10" stroke-dasharray="" stroke-dashoffset="0" font-family="Serif" font-weight="normal" text-anchor="start" style="mix-blend-mode: normal"><tspan x="0" dy="0">тест тест</tspan></text><path d="M167.15254,222.69539v-85.39073h145.69492v85.39073zM306.30245,213.7052c0,-13.76894 0,-59.48565 0,-66.96176c0,-2.02466 -1.62431,-3.73601 -3.76958,-3.73863c-11.22048,-0.01366 -105.05287,-0.12843 -124.32303,-0.15201c-2.22047,-0.00271 -3.44984,1.24221 -3.448,3.40826c0.01142,13.27624 0.05256,61.10025 0.05867,68.21596c0.0015,1.73532 1.24511,3.14875 3.48587,3.14875c19.34968,0 113.14675,0 124.27487,0c2.11911,0 3.72116,-1.44315 3.72116,-3.92057z" fill="#ffffff" fill-rule="nonzero" stroke="none" stroke-width="0" stroke-linecap="butt" stroke-linejoin="miter"/><path d="M306.3356,213.7221c0,2.47741 -1.60335,3.9229 -3.72246,3.9229c-11.12813,0 -104.98898,-0.00004 -124.33866,-0.00004c-2.24076,0 -3.48547,-1.41541 -3.48697,-3.15073c-0.00611,-7.11571 -0.04731,-54.974 -0.05873,-68.25025c-0.00185,-2.16606 1.22867,-3.41303 3.44915,-3.41032c19.27016,0.02359 113.16639,0.13834 124.38687,0.152c2.14527,0.00262 3.77083,1.71624 3.77083,3.74091c0,7.47612 0.00001,53.22659 0.00001,66.99554z" data-paper-data="{&quot;noHover&quot;:false,&quot;origItem&quot;:[&quot;Path&quot;,{&quot;applyMatrix&quot;:true,&quot;segments&quot;:[[[390.11262,450.54452],[0,0],[0,-36.98842]],[[390.11262,270.66074],[0,20.08358],[0,-5.43898]],[[379.98616,260.6174],[5.76298,0.00704],[-30.1423,-0.0367]],[[46.00902,260.20904],[51.7667,0.06336],[-5.965,-0.00728]],[[36.74644,269.36488],[-0.00496,-5.81882],[0.03068,35.66484]],[[36.90406,452.6179],[-0.01642,-19.1154],[0.00402,4.6617]],[[46.26838,461.0766],[-6.0195,0],[51.98032,0]],[[380.11614,461.0766],[-29.89422,0],[5.6927,0]],[[390.11254,450.54452],[0,6.65524],[0,0]]],&quot;closed&quot;:true,&quot;fillColor&quot;:[0,0,0,1]}]}" fill="none" fill-rule="nonzero" stroke="#dbdbdb" stroke-width="0.5" stroke-linecap="butt" stroke-linejoin="miter"/><text transform="translate(168.7819,237.75) scale(0.5,0.5)" font-size="40" xml:space="preserve" fill="#000000" fill-rule="nonzero" stroke="#000000" stroke-width="1" stroke-linecap="butt" stroke-linejoin="miter" stroke-miterlimit="10" stroke-dasharray="" stroke-dashoffset="0" font-family="Sans Serif" font-weight="normal" text-anchor="start" style="mix-blend-mode: normal"><tspan x="0" dy="0">Разоблачение</tspan></text></g></g></svg>