<svg version="1.1" xmlns="http://www.w3.org/2000/svg" xmlns:xlink="http://www.w3.org/1999/xlink" width="147.66984" height="107.60875" viewBox="0,0,147.66984,107.60875"><defs><radialGradient cx="240" cy="179.99925" r="71.5" gradientUnits="userSpaceOnUse" id="color-1"><stop offset="0" stop-color="#29ff00"/><stop offset="1" stop-color="#000000"/></radialGradient><linearGradient x1="237.5" y1="188.36438" x2="237.5" y2="217.11438" gradientUnits="userSpaceOnUse" id="color-2"><stop offset="0" stop-color="#00ffcf" stop-opacity="0.45161"/><stop offset="1" stop-color="#00ffcf" stop-opacity="0"/></linearGradient></defs><g transform="translate(-166.16508,-136.39125)"><g data-paper-data="{&quot;isPaintingLayer&quot;:true}" stroke-miterlimit="10" stroke-dasharray="" stroke-dashoffset="0" style="mix-blend-mode: normal"><path d="M166.16508,243.91335v-107.5221h147.66984v107.5221z" fill="#ffffff" fill-rule="nonzero" stroke="none" stroke-width="0" stroke-linecap="butt" stroke-linejoin="miter"/><path d="M168.5,218.74925v-77.5h143v77.5z" fill="url(#color-1)" fill-rule="nonzero" stroke="none" stroke-width="0" stroke-linecap="butt" stroke-linejoin="miter"/><text transform="translate(175.5564,155.86614) scale(0.3081,0.3081)" font-size="40" xml:space="preserve" fill="#4eff00" fill-rule="nonzero" stroke="none" stroke-width="1" stroke-linecap="butt" stroke-linejoin="miter" stroke-miterlimit="10" stroke-dasharray="" stroke-dashoffset="0" font-family="Sans Serif" font-weight="normal" text-anchor="start" style="mix-blend-mode: normal"><tspan x="0" dy="0">110101010101010101</tspan><tspan x="0" dy="46.15px">101100101011010100</tspan><tspan x="0" dy="46.15px">101001010010101111</tspan><tspan x="0" dy="46.15px">010101010101010100</tspan><tspan x="0" dy="46.15px">110101010010101001</tspan></text><g><g fill="#ffab19" stroke="#001026" stroke-width="1.2"><path d="M230.36911,217.6773c-0.08819,-1.74857 -0.09155,-10.26246 3.21502,-11.15848c2.82051,-0.80139 4.71968,4.77856 4.75109,6.23549l-1.05317,8.81839c-1.08862,-0.29698 -2.17469,-0.59279 -3.25894,-0.87603c-0.9773,-0.2553 -2.29762,-0.39131 -3.59627,-0.41839c-0.01125,-1.1335 -0.03225,-2.09572 -0.05773,-2.60097z" data-paper-data="{&quot;index&quot;:null}" fill-rule="evenodd" stroke-linecap="round" stroke-linejoin="round"/><path d="" fill-rule="nonzero" stroke-linecap="butt" stroke-linejoin="miter"/></g><g data-paper-data="{&quot;index&quot;:null}" fill="#ffab19" stroke="#001026" stroke-width="1.2"><path d="M241.80422,208.03866c3.30657,0.89603 4.50949,7.85897 4.4213,9.60755c-0.02448,0.48531 -0.04482,1.39219 -0.05635,2.4675c-2.47906,0.13487 -4.76001,0.8158 -6.71388,1.98243c-0.34264,-3.43184 -0.76051,-7.79115 -0.76507,-8.68362c0,0 0.29348,-6.17523 3.11399,-5.37385z" data-paper-data="{&quot;index&quot;:null}" fill-rule="evenodd" stroke-linecap="round" stroke-linejoin="round"/><path d="" fill-rule="nonzero" stroke-linecap="butt" stroke-linejoin="miter"/></g><path d="M243.71926,199.91117c-1.5999,-3.54996 1.51136,-4.81121 2.84992,-2.55348c0,0 5.77016,8.61606 5.36273,14.34329c-0.38466,5.80343 -7.20601,5.76427 -6.64429,1.52732c0.30819,-2.58339 0.13048,-9.71373 -1.56837,-13.31713z" data-paper-data="{&quot;index&quot;:null}" fill="#ffab19" fill-rule="evenodd" stroke="#001026" stroke-width="1.2" stroke-linecap="round" stroke-linejoin="round"/><path d="M232.33003,199.86685c-1.65025,3.62592 -1.73207,10.75801 -1.38918,13.33702c0.61864,4.229 -6.20156,4.35988 -6.66422,-1.43786c-0.48439,-5.72123 5.1694,-14.4141 5.1694,-14.4141c1.30808,-2.27552 4.43601,-1.0562 2.884,2.51494z" fill="#ffab19" fill-rule="evenodd" stroke="#001026" stroke-width="1.2" stroke-linecap="round" stroke-linejoin="round"/><g fill-rule="evenodd"><path d="M238.44496,213.03678c-8.2737,-0.87588 -7.86475,-5.79335 -8.46258,-9.60357c-0.40413,-3.33861 0.71733,-11.01058 4.53658,-12.95364c2.08616,-1.20004 5.52142,2.16909 6.68756,1.15975c1.7709,-1.48652 5.81919,5.30959 5.52933,10.99045c-0.26782,5.24882 -2.67815,8.07755 -3.92423,9.13849c-1.1249,0.95777 -4.36666,1.26854 -4.36666,1.26854z" fill="#ffab19" stroke="#001026" stroke-width="1.2" stroke-linecap="round" stroke-linejoin="round"/><path d="M238.88832,210.17532c-2.41681,-0.15681 -4.66635,-0.10163 -4.98153,-3.40723c-0.06622,-2.69946 -0.64912,-5.90844 4.14751,-6.36822c4.5438,-0.4896 4.59512,2.33627 4.59512,2.33627c0.52508,2.4242 0.5835,4.70151 -0.38624,6.03569c-0.79293,1.09091 -2.49007,1.47899 -3.37487,1.4035z" fill="#ffffff" stroke="none" stroke-width="1" stroke-linecap="butt" stroke-linejoin="miter"/></g><path d="M254.29872,156.61999c0.2101,-0.14007 0.96882,-0.07003 1.03885,0.21009l-0.42631,11.57911c0,0 8.63619,11.22104 3.82812,17.81299c-2.51309,4.72055 -1.72432,3.60597 -6.44548,7.86111c-0.53073,0.09839 -2.96757,1.14414 -3.49882,1.23973c-1.59372,0.28677 -9.78981,2.12923 -17.50158,0.7952c-0.00916,-0.00602 -4.29085,-1.41754 -4.3,-1.42356c-0.02746,-0.01808 -4.8321,-3.85795 -7.37305,-7.93778c-4.97225,-7.98362 2.8713,-17.50793 2.45111,-16.94768l-1.47067,-12.53568c-0.07003,-0.28013 0.28013,-0.49022 0.56026,-0.35016l8.47384,5.53251c0,0 6.42,-1.80339 9.71149,-1.94346c1.96088,-0.14007 6.54778,0.99505 8.15851,1.27517z" fill="#ffab19" fill-rule="evenodd" stroke="#001026" stroke-width="1.2" stroke-linecap="butt" stroke-linejoin="miter"/><path d="M221.73151,181.93598c4.69213,-7.31623 17.49033,-1.86607 17.36322,-1.65868c0,0 15.37936,-5.53076 18.427,1.77725c0,0 3.74579,13.7613 -19.01003,14.16495c-6.99235,0.12403 -11.21185,-1.34197 -13.72236,-3.37735c-5.21235,-4.22588 -3.05784,-10.90617 -3.05784,-10.90617z" fill="#ffffff" fill-rule="evenodd" stroke="none" stroke-width="1" stroke-linecap="butt" stroke-linejoin="miter"/><path d="M239.73699,180.14833c1.47066,0 3.01136,0.14007 3.0814,0.63029c0.07003,0.98044 -1.92063,2.73987 -3.04114,2.8099c-1.26057,0.14007 -3.26171,-1.40926 -3.26171,-2.52977c-0.07003,-0.84038 1.82083,-0.91041 3.22146,-0.91041z" fill="#001026" fill-rule="evenodd" stroke="#001026" stroke-width="1.2" stroke-linecap="round" stroke-linejoin="round"/><path d="M213.75803,177.3582c0,0 6.02273,1.96088 8.47384,4.13187" fill="none" fill-rule="evenodd" stroke="#001026" stroke-width="1.2" stroke-linecap="round" stroke-linejoin="round"/><path d="M222.44197,183.94117c-3.01136,1.19054 -8.19371,0.42019 -8.19371,0.42019" fill="none" fill-rule="evenodd" stroke="#001026" stroke-width="1.2" stroke-linecap="round" stroke-linejoin="round"/><path d="M252.62741,173.89557c-0.10113,3.74779 -1.20042,4.285 -2.42758,5.99664c-0.41524,0.57917 -2.30697,0.13123 -3.18714,0.07625c-0.88017,-0.05497 -2.92185,-3.57116 -2.8908,-6.28671c0.10113,-3.74779 1.97525,-5.82219 4.30545,-5.7567c2.36971,0.00768 4.3012,2.22273 4.20006,5.97052z" data-paper-data="{&quot;origRot&quot;:0}" fill="#ffffff" fill-rule="evenodd" stroke="#001026" stroke-width="1.2" stroke-linecap="round" stroke-linejoin="round"/><path d="M247.7206,174.99752c0,0.77035 -0.56025,1.40064 -1.26057,1.40064c-0.70032,0 -1.26057,-0.63029 -1.26057,-1.40064c0,-0.77035 0.56026,-1.40063 1.26057,-1.40063c0.70032,0 1.26057,0.63028 1.26057,1.40063" fill="#001026" fill-rule="evenodd" stroke="#000000" stroke-width="0" stroke-linecap="butt" stroke-linejoin="miter"/><path d="M235.47424,173.78929c0.06822,3.02293 -1.15553,5.78619 -2.42697,6.38666c-1.27144,0.60048 -3.10112,0.01603 -3.56949,0.03353c-0.46837,0.0175 -3.12018,-2.15255 -3.20432,-5.88108c-0.14288,-3.76666 1.99649,-6.02767 4.65635,-6.13769c2.69799,-0.16874 4.4603,1.87005 4.54443,5.59858z" data-paper-data="{&quot;origRot&quot;:0}" fill="#ffffff" fill-rule="evenodd" stroke="#001026" stroke-width="1.2" stroke-linecap="round" stroke-linejoin="round"/><path d="M233.83043,175.1306c0,0.77035 -0.56026,1.40063 -1.26057,1.40063c-0.70032,0 -1.26057,-0.63028 -1.26057,-1.40063c0,-0.77035 0.56026,-1.40064 1.26057,-1.40064c0.70032,0.07003 1.26057,0.63029 1.26057,1.40064" fill="#001026" fill-rule="evenodd" stroke="#000000" stroke-width="0" stroke-linecap="butt" stroke-linejoin="miter"/><path d="M263.15238,184.70121c-4.412,0.34381 -7.14323,-0.96267 -7.14323,-0.96267" fill="none" fill-rule="evenodd" stroke="#001026" stroke-width="1.2" stroke-linecap="round" stroke-linejoin="round"/><path d="M255.76963,180.88386c1.62495,-1.41314 2.8251,-1.84452 4.81897,-2.68706c1.40278,-0.59277 3.65487,-1.36989 3.65487,-1.36989" data-paper-data="{&quot;index&quot;:null}" fill="none" fill-rule="evenodd" stroke="#001026" stroke-width="1.2" stroke-linecap="round" stroke-linejoin="round"/><path d="M230.83207,186.27956c-0.02555,-0.27896 0.23424,-0.51373 0.51959,-0.46954c1.36977,0.36681 5.23793,1.1377 9.44787,1.03338c3.78511,-0.13573 5.99762,-0.54936 7.02455,-0.8544c0.34231,-0.10168 0.65321,0.22147 0.54567,0.58294c-0.45519,1.94047 -2.62621,7.41369 -9.9872,7.66598c-6.4102,-0.1161 -7.44668,-4.52196 -7.55047,-7.95836z" data-paper-data="{&quot;origRot&quot;:0}" fill="#ffffff" fill-rule="evenodd" stroke="#001026" stroke-width="1.2" stroke-linecap="round" stroke-linejoin="round"/></g><path d="M217.46114,181.00174v-13.70818h40.8825v13.70818z" fill="#000000" fill-rule="nonzero" stroke="none" stroke-width="0" stroke-linecap="butt" stroke-linejoin="miter"/><g fill-rule="nonzero" stroke-linecap="butt" stroke-linejoin="miter"><path d="M181.75,169.04962l8.77757,-18.84597l10.06839,18.84597z" fill-opacity="0.59677" fill="#fffa00" stroke-opacity="0.68548" stroke="#000000" stroke-width="1.5"/><text transform="translate(189.04829,166.82153) scale(0.38772,0.38772)" font-size="40" xml:space="preserve" fill-opacity="0.62903" fill="#000000" fill-rule="nonzero" stroke="none" stroke-width="1" stroke-linecap="butt" stroke-linejoin="miter" stroke-miterlimit="10" stroke-dasharray="" stroke-dashoffset="0" font-family="Sans Serif" font-weight="normal" text-anchor="start" style="mix-blend-mode: normal"><tspan x="0" dy="0">!</tspan></text></g><path d="M219.25,217.11438c0,0 -8.81415,-21.80734 0,-28.75c8.81415,-6.94266 25.05417,-9.01555 36.5,0c11.44583,9.01555 0,28.75 0,28.75z" fill="url(#color-2)" fill-rule="nonzero" stroke="none" stroke-width="0" stroke-linecap="butt" stroke-linejoin="miter"/><path d="M214.5,220.84614v-23.97189h49v23.97189z" fill="#ffffff" fill-rule="nonzero" stroke="#000000" stroke-width="2" stroke-linecap="butt" stroke-linejoin="miter"/><path d="M198.83728,193.59925c0,0 0.69303,4.83173 -0.78506,8.2779c-1.45872,3.40102 -4.52952,6.23469 -6.64157,6.23469c-2.2128,0 -5.64405,-3.22617 -7.11925,-6.71285c-1.35956,-3.21336 -0.85245,-6.70959 -0.85245,-6.70959l6.74529,-5.65514z" fill-opacity="0.79032" fill="#007bd6" fill-rule="nonzero" stroke-opacity="0.5809" stroke="#c4c1d6" stroke-width="1.5" stroke-linecap="butt" stroke-linejoin="miter"/><text transform="translate(204,160.01827) scale(0.30062,0.30062)" font-size="40" xml:space="preserve" fill="#00d651" fill-rule="nonzero" stroke="#000000" stroke-width="1" stroke-linecap="butt" stroke-linejoin="miter" stroke-miterlimit="10" stroke-dasharray="" stroke-dashoffset="0" font-family="Marker" font-weight="normal" text-anchor="start" style="mix-blend-mode: normal"><tspan x="0" dy="0">Hacker Attack</tspan></text><g fill-rule="nonzero" stroke-linecap="butt" stroke-linejoin="miter"><path d="M279.07049,211.54964l8.77757,-18.84597l10.0684,18.84597z" fill-opacity="0.59677" fill="#fffa00" stroke-opacity="0.68548" stroke="#000000" stroke-width="1.5"/><text transform="translate(286.36878,209.32153) scale(0.38772,0.38772)" font-size="40" xml:space="preserve" fill-opacity="0.62903" fill="#000000" fill-rule="nonzero" stroke="none" stroke-width="1" stroke-linecap="butt" stroke-linejoin="miter" stroke-miterlimit="10" stroke-dasharray="" stroke-dashoffset="0" font-family="Sans Serif" font-weight="normal" text-anchor="start" style="mix-blend-mode: normal"><tspan x="0" dy="0">!</tspan></text></g><path d="M296.15778,156.86511c0,0 0.69302,4.83173 -0.78506,8.2779c-1.45872,3.40102 -4.52952,6.23469 -6.64157,6.23469c-2.21279,0 -5.64405,-3.22617 -7.11925,-6.71285c-1.35956,-3.21337 -0.85245,-6.70959 -0.85245,-6.70959l6.74528,-5.65514z" fill-opacity="0.79032" fill="#007bd6" fill-rule="nonzero" stroke-opacity="0.5809" stroke="#c4c1d6" stroke-width="1.5" stroke-linecap="butt" stroke-linejoin="miter"/><text transform="translate(194.80018,187.783) scale(0.60966,0.60966)" font-size="40" xml:space="preserve" fill-opacity="0.40323" fill="#ff0000" fill-rule="nonzero" stroke="none" stroke-width="1" stroke-linecap="butt" stroke-linejoin="miter" stroke-miterlimit="10" stroke-dasharray="" stroke-dashoffset="0" font-family="Pixel" font-weight="normal" text-anchor="start" style="mix-blend-mode: normal"><tspan x="0" dy="0">ERROR</tspan></text><path d="M167.15254,222.69539v-85.39073h145.69492v85.39073zM306.30245,213.7052c0,-13.76894 0,-59.48565 0,-66.96176c0,-2.02466 -1.62431,-3.73601 -3.76958,-3.73863c-11.22048,-0.01366 -105.05287,-0.12843 -124.32303,-0.15201c-2.22047,-0.00271 -3.44984,1.24221 -3.448,3.40826c0.01142,13.27624 0.05256,61.10025 0.05867,68.21596c0.0015,1.73532 1.24511,3.14875 3.48587,3.14875c19.34968,0 113.14675,0 124.27487,0c2.11911,0 3.72116,-1.44315 3.72116,-3.92057z" fill="#ffffff" fill-rule="nonzero" stroke="none" stroke-width="0" stroke-linecap="butt" stroke-linejoin="miter"/><path d="M306.3356,213.7221c0,2.47741 -1.60335,3.9229 -3.72246,3.9229c-11.12813,0 -104.98898,-0.00004 -124.33866,-0.00004c-2.24076,0 -3.48547,-1.41541 -3.48697,-3.15073c-0.00611,-7.11571 -0.04731,-54.974 -0.05873,-68.25025c-0.00185,-2.16606 1.22867,-3.41303 3.44915,-3.41032c19.27016,0.02359 113.16639,0.13834 124.38687,0.152c2.14527,0.00262 3.77083,1.71624 3.77083,3.74091c0,7.47612 0.00001,53.22659 0.00001,66.99554z" data-paper-data="{&quot;noHover&quot;:false,&quot;origItem&quot;:[&quot;Path&quot;,{&quot;applyMatrix&quot;:true,&quot;segments&quot;:[[[390.11262,450.54452],[0,0],[0,-36.98842]],[[390.11262,270.66074],[0,20.08358],[0,-5.43898]],[[379.98616,260.6174],[5.76298,0.00704],[-30.1423,-0.0367]],[[46.00902,260.20904],[51.7667,0.06336],[-5.965,-0.00728]],[[36.74644,269.36488],[-0.00496,-5.81882],[0.03068,35.66484]],[[36.90406,452.6179],[-0.01642,-19.1154],[0.00402,4.6617]],[[46.26838,461.0766],[-6.0195,0],[51.98032,0]],[[380.11614,461.0766],[-29.89422,0],[5.6927,0]],[[390.11254,450.54452],[0,6.65524],[0,0]]],&quot;closed&quot;:true,&quot;fillColor&quot;:[0,0,0,1]}]}" fill="none" fill-rule="nonzero" stroke="#dbdbdb" stroke-width="0.5" stroke-linecap="butt" stroke-linejoin="miter"/><text transform="translate(208.14001,237.75) scale(0.5,0.5)" font-size="40" xml:space="preserve" fill="#000000" fill-rule="nonzero" stroke="#000000" stroke-width="1" stroke-linecap="butt" stroke-linejoin="miter" stroke-miterlimit="10" stroke-dasharray="" stroke-dashoffset="0" font-family="Sans Serif" font-weight="normal" text-anchor="start" style="mix-blend-mode: normal"><tspan x="0" dy="0">Хакер!</tspan></text></g></g></svg>