<svg version="1.1" xmlns="http://www.w3.org/2000/svg" xmlns:xlink="http://www.w3.org/1999/xlink" width="73.05714" height="21.95449" viewBox="0,0,73.05714,21.95449"><g transform="translate(-203.69031,-169.02275)"><g data-paper-data="{&quot;isPaintingLayer&quot;:true}" fill="#ff8000" fill-rule="nonzero" stroke-linejoin="miter" stroke-miterlimit="10" stroke-dasharray="" stroke-dashoffset="0" style="mix-blend-mode: normal"><g><path d="M216.61897,174.57652l42.91573,-0.53083l4.30749,11.21769l-44.76824,0.55375z" stroke="#ffffff" stroke-width="3.5" stroke-linecap="butt"/><path d="M207.57766,173.83918c3.49443,-3.58196 9.231,-3.65292 12.81296,-0.15848c3.58196,3.49443 3.65292,9.23099 0.15848,12.81295c-3.49443,3.58196 -9.231,3.65293 -12.81296,0.15849c-3.58196,-3.49443 -3.65292,-9.231 -0.15848,-12.81296z" stroke="#ffffff" stroke-width="3.5" stroke-linecap="butt"/><path d="M259.45086,173.50635c3.49446,-3.58198 9.23102,-3.65294 12.813,-0.15849c3.58198,3.49445 3.65294,9.23102 0.15849,12.813c-3.49446,3.58198 -9.23102,3.65295 -12.813,0.15849c-3.58198,-3.49445 -3.65294,-9.23102 -0.15848,-12.813z" stroke="#ffffff" stroke-width="3.5" stroke-linecap="butt"/><path d="M273.65333,179.58373l-6.79242,0.08402" stroke="#ffffff" stroke-width="5" stroke-linecap="round"/><path d="M206.19031,180.26376l6.79243,-0.084" stroke="#ffffff" stroke-width="5" stroke-linecap="round"/><path d="M219.19417,176.25149l5.85858,-0.00223l0.35846,7.63667l-5.87533,0.0194z" stroke="none" stroke-width="0" stroke-linecap="butt"/><path d="M260.41542,183.5232l-5.85856,0.00222l-0.35846,-7.63668l5.87533,-0.01939z" data-paper-data="{&quot;index&quot;:null}" stroke="none" stroke-width="3.5" stroke-linecap="butt"/></g></g></g></svg>