<svg version="1.1" xmlns="http://www.w3.org/2000/svg" xmlns:xlink="http://www.w3.org/1999/xlink" width="427.88094" height="51.32615" viewBox="0,0,427.88094,51.32615"><defs><linearGradient x1="6.73618" y1="180.00001" x2="55.7873" y2="180.00001" gradientUnits="userSpaceOnUse" id="color-1"><stop offset="0" stop-color="#35eb29"/><stop offset="1" stop-color="#dceb3d"/></linearGradient></defs><g transform="translate(1.88046,-153.39599)"><g data-paper-data="{&quot;isPaintingLayer&quot;:true}" fill-rule="nonzero" stroke-linecap="butt" stroke-linejoin="miter" stroke-miterlimit="10" stroke-dasharray="" stroke-dashoffset="0" style="mix-blend-mode: normal"><path d="M-1.88045,204.3477v-49.49369h427.88094v49.49369z" fill="#3c3f41" stroke="none" stroke-width="0"/><g stroke="#000000" stroke-width="2.5"><path d="M55.7873,196.08342c0,4.08032 -3.30925,7.38871 -7.38871,7.38871h-34.27459c-4.08032,0 -7.38785,-3.30925 -7.38785,-7.38871v-32.1677c0,-4.08032 3.30753,-7.38785 7.38785,-7.38785h34.27373c4.08204,0 7.38871,3.30753 7.38871,7.38785v32.1677z" fill="url(#color-1)"/><g fill="none"><path d="M29.52191,186.44829l-11.14146,12.85864c-0.63688,0.68928 -1.53087,1.08389 -2.46932,1.08997c-1.93838,0.04331 -3.54485,-1.49294 -3.58817,-3.43132c-0.03585,-0.93778 0.31843,-1.84851 0.97858,-2.51554l11.22012,-12.17467z"/><path d="M25.44229,173.6669c0,-5.46708 4.43194,-9.89903 9.89903,-9.89903c5.46708,0 9.89903,4.43194 9.89903,9.89903c0,5.46708 -4.43194,9.89903 -9.89903,9.89903c-5.46708,0 -9.89903,-4.43194 -9.89903,-9.89903z"/><path d="M21.85684,173.74484c0,-7.49033 6.07212,-13.56245 13.56245,-13.56245c7.49033,0 13.56245,6.07212 13.56245,13.56245c0,7.49033 -6.07212,13.56245 -13.56245,13.56245c-7.49033,0 -13.56245,-6.07212 -13.56245,-13.56245z"/></g></g><text transform="translate(62.66922,191.79835) scale(0.89516,0.89516)" font-size="40" xml:space="preserve" fill="#d1d1d1" fill-rule="nonzero" stroke="none" stroke-width="1" stroke-linecap="butt" stroke-linejoin="miter" stroke-miterlimit="10" stroke-dasharray="" stroke-dashoffset="0" font-family="Sans Serif" font-weight="normal" text-anchor="start" style="mix-blend-mode: normal"><tspan x="0" dy="0">Поисковик Логинов</tspan></text></g></g></svg>