<svg version="1.1" xmlns="http://www.w3.org/2000/svg" xmlns:xlink="http://www.w3.org/1999/xlink" width="536.02597" height="370.47832" viewBox="0,0,536.02597,370.47832"><g transform="translate(62.5,-7.52168)"><g data-paper-data="{&quot;isPaintingLayer&quot;:true}" fill-rule="nonzero" stroke-linejoin="miter" stroke-miterlimit="10" stroke-dasharray="" stroke-dashoffset="0" style="mix-blend-mode: normal"><g stroke="none" stroke-linecap="butt"><path d="M107.46702,208.18806v-69.73505h73.52497v69.73505h-21.08591l-14.95306,15.43542l-17.36486,-15.43542z" fill="#27bb00" stroke-width="0"/><text transform="translate(123.51716,196.41395) scale(1.5835,1.5835)" font-size="40" xml:space="preserve" fill="#000000" fill-rule="nonzero" stroke="none" stroke-width="1" stroke-linecap="butt" stroke-linejoin="miter" stroke-miterlimit="10" stroke-dasharray="" stroke-dashoffset="0" font-family="Sans Serif" font-weight="normal" text-anchor="start" style="mix-blend-mode: normal"><tspan x="0" dy="0">А</tspan></text><path d="M107.38084,203.84002l65.0228,-65.544l8.59947,0.11139l-0.00561,7.88948l-62.58603,62.20276l-10.97356,-0.09891z" fill="#000000" stroke-width="0"/><path d="M180.94604,208.53104l-10.97357,-0.0314l-62.58602,-62.20276l-0.00561,-7.88947l8.59947,-0.11139l65.0228,65.544z" data-paper-data="{&quot;index&quot;:null}" fill="#000000" stroke-width="0"/></g><g><path d="M40.12696,187.70586l30.34832,-30.34833l10.91668,5.02165l-31.65835,31.65835z" fill="#000000" stroke="#27bb00" stroke-width="3.5" stroke-linecap="butt"/><path d="M33.1403,193.49168c0,-5.00415 4.05667,-9.06082 9.06082,-9.06082c5.00415,0 9.06082,4.05667 9.06082,9.06082c0,5.00415 -4.05667,9.06083 -9.06082,9.06083c-5.00415,0 -9.06082,-4.05668 -9.06082,-9.06083z" fill="#000000" stroke="#27bb00" stroke-width="3.5" stroke-linecap="butt"/><path d="M70.03866,157.03002c0,-5.00418 4.05668,-9.06085 9.06085,-9.06085c5.00418,0 9.06085,4.05667 9.06085,9.06085c0,5.00418 -4.05667,9.06086 -9.06085,9.06086c-5.00418,0 -9.06085,-4.05668 -9.06085,-9.06086z" fill="#000000" stroke="#27bb00" stroke-width="3.5" stroke-linecap="butt"/><path d="M84.44871,151.46252l-4.80333,4.80333" fill="#ff8000" stroke="#27bb00" stroke-width="5" stroke-linecap="round"/><path d="M36.63358,199.05918l4.80335,-4.80333" fill="#ff8000" stroke="#27bb00" stroke-width="5" stroke-linecap="round"/><path d="M43.13994,187.10652l4.192,-4.09268l5.58933,5.216l-4.192,4.11667z" fill="#000000" stroke="none" stroke-width="0" stroke-linecap="butt"/><path d="M77.72399,163.5265l-4.192,4.09266l-5.58933,-5.216l4.192,-4.11666z" data-paper-data="{&quot;index&quot;:null}" fill="#000000" stroke="none" stroke-width="3.5" stroke-linecap="butt"/></g><text transform="translate(199.69335,194.24454) scale(1.23463,1.23463)" font-size="40" xml:space="preserve" fill="#27bb00" fill-rule="nonzero" stroke="none" stroke-width="1" stroke-linecap="butt" stroke-linejoin="miter" stroke-miterlimit="10" stroke-dasharray="" stroke-dashoffset="0" font-family="Sans Serif" font-weight="normal" text-anchor="start" style="mix-blend-mode: normal"><tspan x="0" dy="0">TOA studio</tspan></text><path d="M-62.5,378v-3h1v3z" fill="#000000" stroke="none" stroke-width="0" stroke-linecap="butt"/><text transform="translate(6.31503,29.27168) scale(0.5,0.5)" font-size="40" xml:space="preserve" fill="#27bb00" fill-rule="nonzero" stroke="none" stroke-width="1" stroke-linecap="butt" stroke-linejoin="miter" stroke-miterlimit="10" stroke-dasharray="" stroke-dashoffset="0" font-family="Sans Serif" font-weight="normal" text-anchor="start" style="mix-blend-mode: normal"><tspan x="0" dy="0">PS C:\Programm Files\TOA Studio\appdata&gt; start</tspan><tspan x="0" dy="46.150000000000006px">Collecting appdata...</tspan><tspan x="0" dy="46.150000000000006px">Status: Success</tspan><tspan x="0" dy="46.150000000000006px">Loading...</tspan><tspan x="0" dy="46.150000000000006px">Starting</tspan></text><text transform="translate(69.0038,288.56122) scale(1.23463,1.23463)" font-size="40" xml:space="preserve" fill="#27bb00" fill-rule="nonzero" stroke="none" stroke-width="1" stroke-linecap="butt" stroke-linejoin="miter" stroke-miterlimit="10" stroke-dasharray="" stroke-dashoffset="0" font-family="Sans Serif" font-weight="normal" text-anchor="start" style="mix-blend-mode: normal"><tspan x="0" dy="0">Представляет</tspan></text></g></g></svg>