<svg version="1.1" xmlns="http://www.w3.org/2000/svg" xmlns:xlink="http://www.w3.org/1999/xlink" width="510.51051" height="377.35736" viewBox="0,0,510.51051,377.35736"><defs><linearGradient x1="13.21432" y1="27.13061" x2="36.81356" y2="27.13061" gradientUnits="userSpaceOnUse" id="color-1"><stop offset="0" stop-color="#f2cf6c"/><stop offset="1" stop-color="#fee286"/></linearGradient><linearGradient x1="17.23844" y1="14.51253" x2="17.23844" y2="51.75294" gradientUnits="userSpaceOnUse" id="color-2"><stop offset="0" stop-color="#fee89e"/><stop offset="1" stop-color="#fbdf89"/></linearGradient><linearGradient x1="13.21431" y1="27.13061" x2="36.81356" y2="27.13061" gradientUnits="userSpaceOnUse" id="color-3"><stop offset="0" stop-color="#f2cf6c"/><stop offset="1" stop-color="#fee286"/></linearGradient><linearGradient x1="17.23844" y1="14.51253" x2="17.23844" y2="51.75294" gradientUnits="userSpaceOnUse" id="color-4"><stop offset="0" stop-color="#fee89e"/><stop offset="1" stop-color="#fbdf89"/></linearGradient></defs><g transform="translate(15.25525,9.18919)"><g data-paper-data="{&quot;isPaintingLayer&quot;:true}" fill-rule="nonzero" stroke-linecap="butt" stroke-linejoin="miter" stroke-miterlimit="10" stroke-dasharray="" stroke-dashoffset="0" style="mix-blend-mode: normal"><path d="M-15.25524,368.16817v-377.35736h510.51051v377.35736z" fill="#ffffff" stroke="none" stroke-width="0"/><g stroke="#b1b1b1" stroke-width="2.5"><path d="M13.21432,40.84v-27.41876h23.59924v27.41877z" fill="url(#color-1)"/><path d="M18.67078,47.38776l-2.72824,-32.05676l26.05465,3.27388l0.40924,32.05677z" fill="#f7f7f7"/><path d="M17.17026,48.06982l-2.18259,-32.60241l18.82483,6.82059l0.13641,30.69265z" fill="#ffffff"/><path d="M13.21432,46.16006v-32.73882l8.0483,7.09342v31.78394z" fill="url(#color-2)"/></g><text transform="translate(49.74868,37.38579) scale(0.5,0.5)" font-size="40" xml:space="preserve" fill="#000000" fill-rule="nonzero" stroke="none" stroke-width="1" stroke-linecap="butt" stroke-linejoin="miter" stroke-miterlimit="10" stroke-dasharray="" stroke-dashoffset="0" font-family="Sans Serif" font-weight="normal" text-anchor="start" style="mix-blend-mode: normal"><tspan x="0" dy="0">Аккаунты</tspan></text><g stroke="none"><path d="M13.21431,40.84v-27.41877h23.59924v27.41877z" fill="url(#color-3)" stroke-width="0"/><path d="M18.67078,47.38776l-2.72824,-32.05676l26.05465,3.27388l0.40924,32.05677z" fill="#f7f7f7" stroke-width="NaN"/><path d="M17.17025,48.06982l-2.18259,-32.60241l18.82483,6.82059l0.13641,30.69265z" fill="#ffffff" stroke-width="0"/><path d="M13.21431,46.16006v-32.73883l8.04829,7.09342v31.78394z" fill="url(#color-4)" stroke-width="0"/></g></g></g></svg>