<svg version="1.1" xmlns="http://www.w3.org/2000/svg" xmlns:xlink="http://www.w3.org/1999/xlink" width="106.23881" height="49.18464" viewBox="0,0,106.23881,49.18464"><g transform="translate(-185.651,-152.29265)"><g data-paper-data="{&quot;isPaintingLayer&quot;:true}" fill-rule="nonzero" stroke-linejoin="miter" stroke-miterlimit="10" stroke-dasharray="" stroke-dashoffset="0" style="mix-blend-mode: normal"><path d="M185.651,201.47729v-49.18464h106.23881v49.18464z" fill="#000000" stroke="none" stroke-width="0" stroke-linecap="butt"/><path d="M287.25498,161.28746l-24.19538,10.77709l-3.91425,-12.01645l-30.23765,7.74299l-12.92254,-2.13612l-14.81101,-1.71835l-11.14464,-6.47802" fill="none" stroke="#ffffff" stroke-width="2.5" stroke-linecap="round"/><path d="M283.28938,183.1666l-10.66608,11.76004l-18.18704,-12.30702l-8.47817,14.22145l-15.3154,-13.53772l-11.89679,12.99074l-11.48655,-13.40098l-12.71725,13.81121l-3.00838,-16.5461" fill="none" stroke="#ffffff" stroke-width="2.5" stroke-linecap="round"/><path d="M215.87426,172.77401l7.86282,7.86282" fill="none" stroke="#ffffff" stroke-width="2.5" stroke-linecap="round"/><path d="M243.625,175.62857l-2.17949,5.8971" fill="none" stroke="#ffffff" stroke-width="2.5" stroke-linecap="round"/><path d="M280.00751,176.05588l-5.94839,5.94839" fill="none" stroke="#ffffff" stroke-width="2.5" stroke-linecap="round"/><path d="M268.93119,163.33863v-6.56374" fill="none" stroke="#ffffff" stroke-width="2.5" stroke-linecap="round"/><path d="M235.70223,162.6549v-6.15351" fill="none" stroke="#ffffff" stroke-width="2.5" stroke-linecap="round"/><path d="M203.70398,160.46699v-4.37583" fill="none" stroke="#ffffff" stroke-width="2.5" stroke-linecap="round"/><path d="M199.60164,182.48288v-5.74328" fill="none" stroke="#ffffff" stroke-width="2.5" stroke-linecap="round"/></g></g></svg>