<svg version="1.1" xmlns="http://www.w3.org/2000/svg" xmlns:xlink="http://www.w3.org/1999/xlink" width="345.19598" height="179.95321" viewBox="0,0,345.19598,179.95321"><g transform="translate(116.74527,-41.7149)"><g data-paper-data="{&quot;isPaintingLayer&quot;:true}" fill-rule="nonzero" stroke-linejoin="miter" stroke-miterlimit="10" stroke-dasharray="" stroke-dashoffset="0" style="mix-blend-mode: normal"><path d="M-88.08823,164.8197h87.7613v2.31493h-87.76129z" fill="#00ff08" stroke="#00ff08" stroke-width="1.5" stroke-linecap="butt"/><path d="" data-paper-data="{&quot;index&quot;:null}" fill="#0a00ff" stroke="#0a00ff" stroke-width="1.5" stroke-linecap="butt"/><path d="M-115.78365,195.35522v-2.31493h116.22507c-0.00103,0.77179 -0.0033,1.54339 -0.00832,2.31493z" fill="#00ff08" stroke="#00ff08" stroke-width="1.5" stroke-linecap="butt"/><path d="M-113.6648,42.82699v152.51732h-2.31493v-152.51732z" fill="#00ff08" stroke="#00ff08" stroke-width="1.5" stroke-linecap="butt"/><path d="M-88.16362,167.05923v-52.37653h2.31493v52.37653z" fill="#00ff08" stroke="#00ff08" stroke-width="1.5" stroke-linecap="butt"/><path d="M-88.16362,42.4649h2.31493v46.6094h-2.31493z" fill="#00ff08" stroke="#00ff08" stroke-width="1.5" stroke-linecap="butt"/><path d="M-85.94363,44.7962h-30.05164v-2.31493h30.05164z" fill="#00ff08" stroke="#00ff08" stroke-width="1.5" stroke-linecap="butt"/><path d="" fill="#00c9ff" stroke="#00c9ff" stroke-width="1.5" stroke-linecap="butt"/><path d="M228.45071,187.1577h-68.90142v-2.31493h68.90142z" fill-opacity="0.02353" fill="#00c8ff" stroke="#00c9ff" stroke-width="0" stroke-linecap="butt"/><path d="M-88.08823,114.63451h51.41984v2.31493h-51.41983z" fill="#00ff08" stroke="#00ff08" stroke-width="1.5" stroke-linecap="butt"/><path d="M-88.08823,86.85673h51.41984v2.31493h-51.41983z" fill="#00ff08" stroke="#00ff08" stroke-width="1.5" stroke-linecap="butt"/><path d="M-38.96261,116.83387v-29.95642h2.31493v29.95641z" fill="#00ff08" stroke="#00ff08" stroke-width="1.5" stroke-linecap="butt"/><path d="M-0.94787,216.41811l-0.17241,5" fill="none" stroke="#000000" stroke-width="0.5" stroke-linecap="round"/></g></g></svg>