<svg version="1.1" xmlns="http://www.w3.org/2000/svg" xmlns:xlink="http://www.w3.org/1999/xlink" width="401.5" height="257.40063" viewBox="0,0,401.5,257.40063"><defs><linearGradient x1="57.6008" y1="105.85481" x2="106.65196" y2="105.85481" gradientUnits="userSpaceOnUse" id="color-1"><stop offset="0" stop-color="#35eb29"/><stop offset="1" stop-color="#dceb3d"/></linearGradient></defs><g transform="translate(-39.25,-51.29968)"><g data-paper-data="{&quot;isPaintingLayer&quot;:true}" fill-rule="nonzero" stroke-linejoin="miter" stroke-miterlimit="10" stroke-dasharray="" stroke-dashoffset="0" style="mix-blend-mode: normal"><path d="M40,307.95031v-255.90063h400v255.90063z" fill="#3c3f41" stroke="#bbbbbb" stroke-width="1.5" stroke-linecap="butt"/><path d="M439.88201,72.42625h-399.41003" fill="none" stroke="#bbbbbb" stroke-width="1.5" stroke-linecap="round"/><path d="M421.63225,68.16617l11.4061,-11.4061" fill="none" stroke="#bbbbbb" stroke-width="1.5" stroke-linecap="round"/><path d="M433.03835,68.16617l-11.4061,-11.4061" data-paper-data="{&quot;index&quot;:null}" fill="none" stroke="#bbbbbb" stroke-width="1.5" stroke-linecap="round"/><path d="M414.21829,72.42625v-19.46903" fill="none" stroke="#bbbbbb" stroke-width="1.5" stroke-linecap="round"/><path d="M43.85448,62.16814c0,-3.63845 2.94955,-6.588 6.588,-6.588c3.63845,0 6.588,2.94955 6.588,6.588c0,3.63845 -2.94955,6.588 -6.588,6.588c-3.63845,0 -6.588,-2.94955 -6.588,-6.588z" fill="none" stroke="#bbbbbb" stroke-width="1.5" stroke-linecap="butt"/><path d="M49.9823,66.41003v-4.48378h0.82596v4.48378z" fill="#bbbbbb" stroke="#bbbbbb" stroke-width="1.5" stroke-linecap="butt"/><path d="M48.56637,58.74041c0,-0.9775 0.79241,-1.76991 1.76991,-1.76991c0.9775,0 1.76991,0.79241 1.76991,1.76991c0,0.9775 -0.79241,1.76991 -1.76991,1.76991c-0.9775,0 -1.76991,-0.79241 -1.76991,-1.76991z" fill="#bbbbbb" stroke="none" stroke-width="0.5" stroke-linecap="butt"/><text transform="translate(59.87416,65.52408) scale(0.27804,0.27804)" font-size="40" xml:space="preserve" fill="#bbbbbb" fill-rule="nonzero" stroke="none" stroke-width="1" stroke-linecap="butt" stroke-linejoin="miter" stroke-miterlimit="10" stroke-dasharray="" stroke-dashoffset="0" font-family="Sans Serif" font-weight="normal" text-anchor="start" style="mix-blend-mode: normal"><tspan x="0" dy="0">Описание проекта</tspan></text><text transform="translate(52.53662,201.31013) scale(1.01321,1.01321)" font-size="40" xml:space="preserve" fill="#bbbbbb" fill-rule="nonzero" stroke="none" stroke-width="1" stroke-linecap="butt" stroke-linejoin="miter" stroke-miterlimit="10" stroke-dasharray="" stroke-dashoffset="0" font-family="Sans Serif" font-weight="normal" text-anchor="start" style="mix-blend-mode: normal"><tspan x="0" dy="0">Помогает открыть</tspan><tspan x="0" dy="46.150000000000006px">         Мир Кода</tspan></text><g stroke-linecap="butt"><g><path d="M106.65196,121.93822c0,4.08032 -3.30925,7.38871 -7.38871,7.38871h-34.27459c-4.08032,0 -7.38785,-3.30925 -7.38785,-7.38871v-32.1677c0,-4.08032 3.30753,-7.38785 7.38785,-7.38785h34.27373c4.08204,0 7.38871,3.30753 7.38871,7.38785v32.1677z" fill="url(#color-1)" stroke="#000000" stroke-width="2.5"/><text transform="translate(59.22138,114.50226) scale(0.74951,0.74951)" font-size="40" xml:space="preserve" fill="#000000" fill-rule="nonzero" stroke="none" stroke-width="1" stroke-linecap="butt" stroke-linejoin="miter" stroke-miterlimit="10" stroke-dasharray="" stroke-dashoffset="0" font-family="Sans Serif" font-weight="normal" text-anchor="start" style="mix-blend-mode: normal"><tspan x="0" dy="0">&lt;/&gt;</tspan></text></g><text transform="translate(113.78388,118.87541) scale(0.89516,0.89516)" font-size="40" xml:space="preserve" fill="#d1d1d1" fill-rule="nonzero" stroke="none" stroke-width="1" stroke-linecap="butt" stroke-linejoin="miter" stroke-miterlimit="10" stroke-dasharray="" stroke-dashoffset="0" font-family="Sans Serif" font-weight="normal" text-anchor="start" style="mix-blend-mode: normal"><tspan x="0" dy="0">Анализатор Кода</tspan></text></g></g></g></svg>