<svg version="1.1" xmlns="http://www.w3.org/2000/svg" xmlns:xlink="http://www.w3.org/1999/xlink" width="101" height="101" viewBox="0,0,101,101"><g transform="translate(-189.5,-129.5)"><g data-paper-data="{&quot;isPaintingLayer&quot;:true}" fill-rule="nonzero" stroke="#00fff6" stroke-miterlimit="10" stroke-dasharray="" stroke-dashoffset="0" style="mix-blend-mode: normal"><path d="M274.3097,202.49971c0,5.7081 -4.62942,10.33632 -10.33632,10.33632h-47.94796c-5.7081,0 -10.33512,-4.62942 -10.33512,-10.33632v-45.00055c0,-5.7081 4.62702,-10.33512 10.33512,-10.33512h47.94676c5.7105,0 10.33632,4.62702 10.33632,10.33512v45.00055z" fill-opacity="0.2" fill="#00fff7" stroke-width="2.5" stroke-linecap="butt" stroke-linejoin="miter"/><path d="M221.4821,203.80878c0,-10.22717 8.29075,-18.5179 18.5179,-18.5179c10.22717,0 18.5179,8.29073 18.5179,18.5179M250.58167,166.77292c0,-5.84409 -4.73768,-10.58166 -10.58166,-10.58166c-5.84409,0 -10.58166,4.73757 -10.58166,10.58166c0,5.84409 4.73757,10.58166 10.58166,10.58166c5.84398,0 10.58166,-4.73757 10.58166,-10.58166z" fill="none" stroke-width="2.5" stroke-linecap="round" stroke-linejoin="round"/><path d="M189.5,230.5v-101h101v101z" fill="none" stroke-width="0" stroke-linecap="butt" stroke-linejoin="miter"/></g></g></svg>