<svg version="1.1" xmlns="http://www.w3.org/2000/svg" xmlns:xlink="http://www.w3.org/1999/xlink" width="189" height="83" viewBox="0,0,189,83"><g transform="translate(-139.5,42)"><g data-paper-data="{&quot;isPaintingLayer&quot;:true}" fill-rule="nonzero" stroke-width="0" stroke-linecap="butt" stroke-linejoin="miter" stroke-miterlimit="10" stroke-dasharray="" stroke-dashoffset="0" style="mix-blend-mode: normal"><path d="M328.5,-6.5c0,19.60611 -42.30909,35.5 -94.5,35.5c-52.19091,0 -94.5,-15.89389 -94.5,-35.5c0,-19.60611 42.30909,-35.5 94.5,-35.5c52.19091,0 94.5,15.89389 94.5,35.5z" fill="#666666" stroke="#ffffff"/><path d="M226.70833,35v-15h21.5v15z" fill="#ffffff" stroke="none"/><path d="M297.625,21.08333v-20h23.75v20z" fill="#ffffff" stroke="none"/><path d="M180.04167,9.08333v-17.25h17.25v17.25z" fill="#ffffff" stroke="none"/><path d="M284.29167,17.17448v-7.09896h16v7.09896z" fill="#ffffff" stroke="none"/><path d="M236.375,13.83333v-8.25h11.5v8.25z" fill="#ffffff" stroke="none"/><path d="M146.95833,4.08333v-12.25h9.5v12.25z" fill="#ffffff" stroke="none"/><path d="M248.29167,19.75v-9.25h7.75v9.25z" fill="#ffffff" stroke="none"/><path d="M181.20833,24.91667v-6.5h30.25v6.5z" fill="#ffffff" stroke="none"/><path d="M176.29167,28.66667v-14.5h11.25v14.5z" fill="#ffffff" stroke="none"/><path d="M141.45833,16.16667v-13.75h25.5v13.75z" fill="#ffffff" stroke="none"/><path d="M164.45833,14.83333v-12h21.25v12z" fill="#ffffff" stroke="none"/><path d="M257.20833,30.58333v-14h16.25v14z" fill="#ffffff" stroke="none"/><path d="M214.20833,9.75v-14.25h24v14.25z" fill="#ffffff" stroke="none"/><path d="M193.79167,12.5v-13.25h18v13.25z" fill="#ffffff" stroke="none"/><path d="M248.625,11.5v-9.75h20.25v9.75z" fill="#ffffff" stroke="none"/><path d="M162.20833,36.91667v-22h9.25v22z" fill="#ffffff" stroke="none"/><path d="M203.95833,41v-18h12.5v18z" fill="#ffffff" stroke="none"/><path d="M266.625,6.91667v-10.25h26v10.25z" fill="#ffffff" stroke="none"/><path d="M275.20833,30.66667v-23.25h15.5v23.25z" fill="#ffffff" stroke="none"/><path d="M209.29167,20.5v-13.25h16v13.25z" fill="#ffffff" stroke="none"/></g></g></svg>