<svg version="1.1" xmlns="http://www.w3.org/2000/svg" xmlns:xlink="http://www.w3.org/1999/xlink" width="555.10156" height="447.87623" viewBox="0,0,555.10156,447.87623"><defs><linearGradient x1="17.97357" y1="91.86136" x2="240.01832" y2="91.86136" gradientTransform="translate(-10.90594,-44.19699) scale(0.60671,0.60671)" gradientUnits="userSpaceOnUse" id="color-1"><stop offset="0" stop-color="#48ff00" stop-opacity="0.82745"/><stop offset="1" stop-color="#07d000" stop-opacity="0.84314"/></linearGradient><linearGradient x1="138.27032" y1="114.55904" x2="341.73331" y2="114.55904" gradientTransform="translate(-144.77864,-131.95128) scale(1.04708,1.04708)" gradientUnits="userSpaceOnUse" id="color-2"><stop offset="0" stop-color="#ff0000" stop-opacity="0.82745"/><stop offset="1" stop-color="#d10000" stop-opacity="0.84314"/></linearGradient></defs><g transform="translate(29.08993,55.11875)"><g data-paper-data="{&quot;isPaintingLayer&quot;:true}" fill-rule="nonzero" stroke-linejoin="miter" stroke-miterlimit="10" stroke-dasharray="" stroke-dashoffset="0" style="mix-blend-mode: normal"><path d="M-11.99993,370v-380h504v380z" fill="#000000" stroke="none" stroke-width="0" stroke-linecap="butt"/><text transform="translate(-3.7999,32.47326) scale(1.42075,1.42075)" font-size="40" xml:space="preserve" fill-opacity="0.10196" fill="#48ff00" fill-rule="nonzero" stroke="none" stroke-width="1" stroke-linecap="butt" stroke-linejoin="miter" stroke-miterlimit="10" stroke-dasharray="" stroke-dashoffset="0" font-family="Sans Serif" font-weight="normal" text-anchor="start" style="mix-blend-mode: normal"><tspan x="0" dy="0">011001010111010</tspan><tspan x="0" dy="46.150000000000006px">011110101001010</tspan><tspan x="0" dy="46.150000000000006px">010101101011000</tspan><tspan x="0" dy="46.150000000000006px">101101011011010</tspan><tspan x="0" dy="46.150000000000006px">111011000110101</tspan><tspan x="0" dy="46.150000000000006px">010011001100110</tspan></text><text transform="translate(-28.83993,-33.36875) scale(0.5,0.5)" font-size="40" xml:space="preserve" fill-opacity="0.10196" fill="#48ff00" fill-rule="nonzero" stroke="none" stroke-width="1" stroke-linecap="butt" stroke-linejoin="miter" stroke-miterlimit="10" stroke-dasharray="" stroke-dashoffset="0" font-family="Sans Serif" font-weight="normal" text-anchor="start" style="mix-blend-mode: normal"><tspan x="0" dy="0">00010101000101101011101010101010101001010101001</tspan><tspan x="0" dy="46.150000000000006px">01101010101010010101101001101010101001101010101</tspan><tspan x="0" dy="46.150000000000006px">01011101001010100010111001010001101111000110010</tspan><tspan x="0" dy="46.150000000000006px"> </tspan><tspan x="0" dy="46.150000000000006px"> </tspan><tspan x="0" dy="46.150000000000006px">00010101000101101011101010101010101001010101001</tspan><tspan x="0" dy="46.150000000000006px">01101010101010010101101001101010101001101010101</tspan><tspan x="0" dy="46.150000000000006px">01011101001010100010111001010001101111000110010</tspan><tspan x="0" dy="46.150000000000006px"> </tspan><tspan x="0" dy="46.150000000000006px"> </tspan><tspan x="0" dy="46.150000000000006px">00010101000101101011101010101010101001010101001</tspan><tspan x="0" dy="46.150000000000006px">01101010101010010101101001101010101001101010101</tspan><tspan x="0" dy="46.150000000000006px">01011101001010100010111001010001101111000110010</tspan><tspan x="0" dy="46.150000000000006px"> </tspan><tspan x="0" dy="46.150000000000006px"> </tspan><tspan x="0" dy="46.150000000000006px">00010101000101101011101010101010101001010101001</tspan><tspan x="0" dy="46.150000000000006px">01101010101010010101101001101010101001101010101</tspan><tspan x="0" dy="46.150000000000006px">01011101001010100010111001010001101111000110010Ф</tspan></text><text transform="translate(-4.99996,-10.95117) scale(0.61298,0.61298)" font-size="40" xml:space="preserve" fill-opacity="0.10196" fill="#48ff00" fill-rule="nonzero" stroke="none" stroke-width="1" stroke-linecap="butt" stroke-linejoin="miter" stroke-miterlimit="10" stroke-dasharray="" stroke-dashoffset="0" font-family="Sans Serif" font-weight="normal" text-anchor="start" style="mix-blend-mode: normal"><tspan x="0" dy="0">1011         0001         0101         1100         0101</tspan><tspan x="0" dy="46.150000000000006px">1101         0110         0010         1101         1101</tspan><tspan x="0" dy="46.150000000000006px">1011         0001         0001         1000         0101</tspan><tspan x="0" dy="46.150000000000006px">1011         0101         0101         1000         0101</tspan><tspan x="0" dy="46.150000000000006px">1011         0101         1101         1100         0001</tspan><tspan x="0" dy="46.150000000000006px">1011         0001         0101         1100         0101</tspan><tspan x="0" dy="46.150000000000006px">1101         0110         0010         1101         1101</tspan><tspan x="0" dy="46.150000000000006px">1011         0001         0001         1000         0101</tspan><tspan x="0" dy="46.150000000000006px">1011         0101         0101         1000         0101</tspan><tspan x="0" dy="46.150000000000006px">1011         0101         1101         1100         0001</tspan><tspan x="0" dy="46.150000000000006px">1011         0001         0101         1100         0101</tspan><tspan x="0" dy="46.150000000000006px">1101         0110         0010         1101         1101</tspan><tspan x="0" dy="46.150000000000006px">1011         0001         0001         1000         0101</tspan><tspan x="0" dy="46.150000000000006px">1011         0101         0101         1000         0101</tspan><tspan x="0" dy="46.150000000000006px">1011         0101         1101         1100         0001</tspan></text><g stroke="none" stroke-linecap="butt"><path d="M257.60758,346.07035v-42.34568h44.64705v42.34568h-12.80414l-9.08005,9.37295l-10.54458,-9.37295z" fill="#185600" stroke-width="0"/><text transform="translate(267.35382,338.92068) scale(0.96156,0.96156)" font-size="40" xml:space="preserve" fill="#36c000" fill-rule="nonzero" stroke="none" stroke-width="1" stroke-linecap="butt" stroke-linejoin="miter" stroke-miterlimit="10" stroke-dasharray="" stroke-dashoffset="0" font-family="Sans Serif" font-weight="normal" text-anchor="start" style="mix-blend-mode: normal"><tspan x="0" dy="0">А</tspan></text><path d="M257.55521,343.43007l39.48423,-39.80072l5.22191,0.06764l-0.00341,4.79078l-38.00453,37.77179l-6.66355,-0.06006z" fill="#36c000" stroke-width="0"/><path d="M302.2267,346.27862l-6.66355,-0.01907l-38.00452,-37.77179l-0.00341,-4.79078l5.22191,-0.06764l39.48423,39.80072z" data-paper-data="{&quot;index&quot;:null}" fill="#36c000" stroke-width="0"/></g><path d="M216.71625,333.63281l18.42861,-18.42862l6.62901,3.04933l-19.22411,19.22411z" fill="#185600" stroke="#36c000" stroke-width="3.5" stroke-linecap="butt"/><path d="M212.4737,337.14617c0,-3.0387 2.46336,-5.50206 5.50206,-5.50206c3.0387,0 5.50206,2.46336 5.50206,5.50206c0,3.0387 -2.46336,5.50207 -5.50206,5.50207c-3.0387,0 -5.50206,-2.46336 -5.50206,-5.50207z" fill="#185600" stroke="#36c000" stroke-width="3.5" stroke-linecap="butt"/><path d="M234.87974,315.00532c0,-3.03872 2.46336,-5.50208 5.50208,-5.50208c3.03872,0 5.50208,2.46336 5.50208,5.50208c0,3.03872 -2.46336,5.50209 -5.50208,5.50209c-3.03872,0 -5.50208,-2.46336 -5.50208,-5.50209z" fill="#185600" stroke="#36c000" stroke-width="3.5" stroke-linecap="butt"/><path d="M240.71328,314.54129l2.91676,-2.91676" fill="#ff8000" stroke="#36c000" stroke-width="2.5" stroke-linecap="round"/><path d="M214.59495,340.52696l2.91677,-2.91676" fill="#ff8000" stroke="#36c000" stroke-width="2.5" stroke-linecap="round"/><text transform="translate(313.61082,337.60334) scale(0.74971,0.74971)" font-size="40" xml:space="preserve" fill="#36c000" fill-rule="nonzero" stroke="none" stroke-width="1" stroke-linecap="butt" stroke-linejoin="miter" stroke-miterlimit="10" stroke-dasharray="" stroke-dashoffset="0" font-family="Sans Serif" font-weight="normal" text-anchor="start" style="mix-blend-mode: normal"><tspan x="0" dy="0">TOA studio</tspan></text><path d="M220.31257,337.1258l-2,-2.75l18.375,-18.375l2.75,2.125z" fill="#185600" stroke="none" stroke-width="0" stroke-linecap="butt"/><g stroke="#000000" stroke-linecap="butt"><text transform="translate(17.9755,72.84681) scale(1.64823,1.64823)" font-size="40" xml:space="preserve" fill="url(#color-1)" fill-rule="nonzero" stroke="#000000" stroke-width="1" stroke-linecap="butt" stroke-linejoin="miter" stroke-miterlimit="10" stroke-dasharray="" stroke-dashoffset="0" font-family="Sans Serif" font-weight="normal" text-anchor="start" style="mix-blend-mode: normal"><tspan x="0" dy="0">      lgoHacker</tspan></text><path d="M44.99823,81.31972v-68.22356h72.35831v68.22356h-17.366l-19.43335,16.53902l-19.01989,-16.53902z" fill-opacity="0.50196" fill="#48ff00" stroke-width="1.5"/><text transform="translate(60.211,71.2929) scale(1.58557,1.58557)" font-size="40" xml:space="preserve" fill-opacity="0.50196" fill="#48ff00" fill-rule="nonzero" stroke="#000000" stroke-width="1" stroke-linecap="butt" stroke-linejoin="miter" stroke-miterlimit="10" stroke-dasharray="" stroke-dashoffset="0" font-family="Sans Serif" font-weight="normal" text-anchor="start" style="mix-blend-mode: normal"><tspan x="0" dy="0">А</tspan></text><text transform="translate(138.2694,126.01875) scale(0.95504,0.95504)" font-size="40" xml:space="preserve" fill="url(#color-2)" fill-rule="nonzero" stroke="#000000" stroke-width="1" stroke-linecap="butt" stroke-linejoin="miter" stroke-miterlimit="10" stroke-dasharray="" stroke-dashoffset="0" font-family="Sans Serif" font-weight="normal" text-anchor="start" style="mix-blend-mode: normal"><tspan x="0" dy="0">Hard Mode</tspan></text></g><g stroke-linecap="butt"><text transform="translate(46.57802,340.44894) scale(0.76002,0.76002)" font-size="40" xml:space="preserve" fill="#36c000" fill-rule="nonzero" stroke="none" stroke-width="1" stroke-linecap="butt" stroke-linejoin="miter" stroke-miterlimit="10" stroke-dasharray="" stroke-dashoffset="0" font-family="Sans Serif" font-weight="normal" text-anchor="start" style="mix-blend-mode: normal"><tspan x="0" dy="0">Arior</tspan></text><g fill-opacity="0.10196" fill="#45ff00" stroke="#36c000" stroke-width="2"><path d="M4.87628,334.06448c0,-10.45823 8.23094,-18.9363 18.38431,-18.9363c10.15337,0 18.38431,8.47807 18.38431,18.9363c0,10.45823 -8.23094,9.20368 -18.38431,9.20368c-10.15337,0 -18.38431,1.25455 -18.38431,-9.20368z"/><path d="M18.22801,330.67922c0,-2.74602 2.1612,-4.9721 4.82716,-4.9721c2.66597,0 4.82716,2.22609 4.82716,4.9721c0,2.74602 -2.1612,4.9721 -4.82716,4.9721c-2.66597,0 -4.82716,-2.22609 -4.82716,-4.9721z"/></g></g></g></g></svg>