<svg version="1.1" xmlns="http://www.w3.org/2000/svg" xmlns:xlink="http://www.w3.org/1999/xlink" width="133.82785" height="133.82785" viewBox="0,0,133.82785,133.82785"><defs><linearGradient x1="201.39582" y1="228.05299" x2="278.60679" y2="228.05299" gradientTransform="translate(-555.69514,-640.78601) scale(2.75923,2.75923)" gradientUnits="userSpaceOnUse" id="color-1"><stop offset="0" stop-color="#780000" stop-opacity="0.83529"/><stop offset="1" stop-color="#e20000" stop-opacity="0.88235"/></linearGradient><linearGradient x1="173.46735" y1="150.03919" x2="241.09235" y2="150.03919" gradientTransform="translate(-345.56829,-287.35903) scale(1.99211,1.99211)" gradientUnits="userSpaceOnUse" id="color-2"><stop offset="0" stop-color="#48ff00" stop-opacity="0.6"/><stop offset="1" stop-color="#058a00" stop-opacity="0.6"/></linearGradient></defs><g transform="translate(-173.08608,-113.08609)"><g data-paper-data="{&quot;isPaintingLayer&quot;:true}" fill-rule="nonzero" stroke-linecap="butt" stroke-linejoin="miter" stroke-miterlimit="10" stroke-dasharray="" stroke-dashoffset="0" style="mix-blend-mode: normal"><path d="M174.33609,227.20794c0,-27.94742 0,-79.38507 0,-94.81778c0,-8.60191 9.66748,-18.05406 18.41088,-18.05406c15.4974,0 66.65198,0 94.48509,0c11.05579,0 18.43188,9.71996 18.43188,18.49766c0,15.56925 0,66.97117 0,94.70688c0,10.88378 -7.4761,18.12331 -18.65367,18.12331c-27.81443,0 -78.54912,0 -94.0415,0c-8.83097,0 -18.63268,-7.38486 -18.63268,-18.456z" fill="#000000" stroke="#44ff00" stroke-width="2.5"/><text transform="translate(201.39503,232.23367) scale(0.36242,0.36242)" font-size="40" xml:space="preserve" fill="url(#color-1)" fill-rule="nonzero" stroke="#000000" stroke-width="1" stroke-linecap="butt" stroke-linejoin="miter" stroke-miterlimit="10" stroke-dasharray="" stroke-dashoffset="0" font-family="Sans Serif" font-weight="normal" text-anchor="start" style="mix-blend-mode: normal"><tspan x="0" dy="0">Hard Mode</tspan></text><g stroke="#000000"><text transform="translate(173.46837,144.24848) scale(0.50198,0.50198)" font-size="40" xml:space="preserve" fill="url(#color-2)" fill-rule="nonzero" stroke="#000000" stroke-width="1" stroke-linecap="butt" stroke-linejoin="miter" stroke-miterlimit="10" stroke-dasharray="" stroke-dashoffset="0" font-family="Sans Serif" font-weight="normal" text-anchor="start" style="mix-blend-mode: normal"><tspan x="0" dy="0">      lgoHacker</tspan></text><path d="M181.69832,146.82898v-20.77795h22.03722v20.77795h-5.28894l-5.91855,5.03707l-5.79263,-5.03707z" fill-opacity="0.50196" fill="#48ff00" stroke-width="0.5"/><text transform="translate(186.33148,143.77524) scale(0.4829,0.4829)" font-size="40" xml:space="preserve" fill-opacity="0.50196" fill="#48ff00" fill-rule="nonzero" stroke="#000000" stroke-width="1" stroke-linecap="butt" stroke-linejoin="miter" stroke-miterlimit="10" stroke-dasharray="" stroke-dashoffset="0" font-family="Sans Serif" font-weight="normal" text-anchor="start" style="mix-blend-mode: normal"><tspan x="0" dy="0">А</tspan></text></g><g fill-opacity="0.10196" fill="#48ff00" stroke="#44ff00" stroke-width="0.5"><g><g><path d="M182.50697,166.86093l-2.69425,-2.69425l2.69425,-2.69425l2.69425,2.69425z"/><path d="M187.88711,166.86093l-2.69425,-2.69425l2.69425,-2.69425l2.69425,2.69425z"/></g><g><path d="M193.26676,166.86093l-2.69425,-2.69425l2.69425,-2.69425l2.69425,2.69425z"/><path d="M198.6469,166.86093l-2.69425,-2.69425l2.69425,-2.69425l2.69425,2.69425z"/></g></g><g><g><path d="M186.77573,171.77813h-3.81024v-3.81024h3.81024z"/><path d="M190.58006,167.97379h-3.81024v-3.81024h3.81024z"/></g><g><path d="M194.38405,164.16981h-3.81024v-3.81024h3.81024z"/><path d="M198.18839,160.36547h-3.81024v-3.81024h3.81024z"/></g></g><g><g><path d="M193.27118,172.23665l-2.69425,2.69425l-2.69425,-2.69425l2.69425,-2.69425z"/><path d="M193.27118,166.85651l-2.69425,2.69425l-2.69425,-2.69425l2.69425,-2.69425z"/></g><g><path d="M193.27118,161.47685l-2.69425,2.69425l-2.69425,-2.69425l2.69425,-2.69425z"/><path d="M193.27118,156.0967l-2.69425,2.69425l-2.69425,-2.69425l2.69425,-2.69425z"/></g></g><g><g><path d="M198.18839,167.96789v3.81024h-3.81024v-3.81024z"/><path d="M194.38405,164.16355v3.81024h-3.81024v-3.81024z"/></g><g><path d="M190.58006,160.35956v3.81024h-3.81024v-3.81024z"/><path d="M186.77573,156.55523v3.81024h-3.81024v-3.81024z"/></g></g></g><g fill-opacity="0.10196" fill="#48ff00" stroke="#44ff00" stroke-width="0.5"><g><g><path d="M182.50697,211.34811l-2.69425,-2.69425l2.69425,-2.69425l2.69425,2.69425z"/><path d="M187.88711,211.34811l-2.69425,-2.69425l2.69425,-2.69425l2.69425,2.69425z"/></g><g><path d="M193.26676,211.34811l-2.69425,-2.69425l2.69425,-2.69425l2.69425,2.69425z"/><path d="M198.6469,211.34811l-2.69425,-2.69425l2.69425,-2.69425l2.69425,2.69425z"/></g></g><g><g><path d="M186.77573,216.26531h-3.81024v-3.81024h3.81024z"/><path d="M190.58006,212.46097h-3.81024v-3.81024h3.81024z"/></g><g><path d="M194.38405,208.65699h-3.81024v-3.81024h3.81024z"/><path d="M198.18839,204.85265h-3.81024v-3.81024h3.81024z"/></g></g><g><g><path d="M193.27118,216.72383l-2.69425,2.69425l-2.69425,-2.69425l2.69425,-2.69425z"/><path d="M193.27118,211.34369l-2.69425,2.69425l-2.69425,-2.69425l2.69425,-2.69425z"/></g><g><path d="M193.27118,205.96403l-2.69425,2.69425l-2.69425,-2.69425l2.69425,-2.69425z"/><path d="M193.27118,200.58389l-2.69425,2.69425l-2.69425,-2.69425l2.69425,-2.69425z"/></g></g><g><g><path d="M198.18839,212.45507v3.81024h-3.81024v-3.81024z"/><path d="M194.38405,208.65073v3.81024h-3.81024v-3.81024z"/></g><g><path d="M190.58006,204.84674v3.81024h-3.81024v-3.81024z"/><path d="M186.77573,201.04241v3.81024h-3.81024v-3.81024z"/></g></g></g><g fill-opacity="0.10196" fill="#48ff00" stroke="#44ff00" stroke-width="0.5"><g><g><path d="M281.35312,166.86093l-2.69425,-2.69425l2.69425,-2.69425l2.69425,2.69425z"/><path d="M286.73326,166.86093l-2.69425,-2.69425l2.69425,-2.69425l2.69425,2.69425z"/></g><g><path d="M292.11291,166.86093l-2.69425,-2.69425l2.69425,-2.69425l2.69425,2.69425z"/><path d="M297.49305,166.86093l-2.69425,-2.69425l2.69425,-2.69425l2.69425,2.69425z"/></g></g><g><g><path d="M285.62188,171.77813h-3.81024v-3.81024h3.81024z"/><path d="M289.42621,167.97379h-3.81024v-3.81024h3.81024z"/></g><g><path d="M293.23019,164.16981h-3.81024v-3.81024h3.81024z"/><path d="M297.03454,160.36547h-3.81024v-3.81024h3.81024z"/></g></g><g><g><path d="M292.11733,172.23665l-2.69425,2.69425l-2.69425,-2.69425l2.69425,-2.69425z"/><path d="M292.11733,166.85651l-2.69425,2.69425l-2.69425,-2.69425l2.69425,-2.69425z"/></g><g><path d="M292.11733,161.47685l-2.69425,2.69425l-2.69425,-2.69425l2.69425,-2.69425z"/><path d="M292.11733,156.0967l-2.69425,2.69425l-2.69425,-2.69425l2.69425,-2.69425z"/></g></g><g><g><path d="M297.03454,167.96789v3.81024h-3.81024v-3.81024z"/><path d="M293.23019,164.16355v3.81024h-3.81024v-3.81024z"/></g><g><path d="M289.42621,160.35956v3.81024h-3.81024v-3.81024z"/><path d="M285.62188,156.55523v3.81024h-3.81024v-3.81024z"/></g></g></g><g fill-opacity="0.10196" fill="#48ff00" stroke="#44ff00" stroke-width="0.5"><g><g><path d="M281.35312,211.34811l-2.69425,-2.69425l2.69425,-2.69425l2.69425,2.69425z"/><path d="M286.73326,211.34811l-2.69425,-2.69425l2.69425,-2.69425l2.69425,2.69425z"/></g><g><path d="M292.11291,211.34811l-2.69425,-2.69425l2.69425,-2.69425l2.69425,2.69425z"/><path d="M297.49305,211.34811l-2.69425,-2.69425l2.69425,-2.69425l2.69425,2.69425z"/></g></g><g><g><path d="M285.62188,216.26531h-3.81024v-3.81024h3.81024z"/><path d="M289.42621,212.46097h-3.81024v-3.81024h3.81024z"/></g><g><path d="M293.23019,208.65699h-3.81024v-3.81024h3.81024z"/><path d="M297.03454,204.85265h-3.81024v-3.81024h3.81024z"/></g></g><g><g><path d="M292.11733,216.72383l-2.69425,2.69425l-2.69425,-2.69425l2.69425,-2.69425z"/><path d="M292.11733,211.34369l-2.69425,2.69425l-2.69425,-2.69425l2.69425,-2.69425z"/></g><g><path d="M292.11733,205.96403l-2.69425,2.69425l-2.69425,-2.69425l2.69425,-2.69425z"/><path d="M292.11733,200.58389l-2.69425,2.69425l-2.69425,-2.69425l2.69425,-2.69425z"/></g></g><g><g><path d="M297.03454,212.45507v3.81024h-3.81024v-3.81024z"/><path d="M293.23019,208.65073v3.81024h-3.81024v-3.81024z"/></g><g><path d="M289.42621,204.84674v3.81024h-3.81024v-3.81024z"/><path d="M285.62188,201.04241v3.81024h-3.81024v-3.81024z"/></g></g></g><g stroke="#ffffff"><path d="M216.91667,207.33432v-46.16667h46.16667v46.16667z" fill="none" stroke-width="1"/><g><path d="M232.404,191.84694v-15.19196h15.19195v15.19196z" fill-opacity="0.8" fill="#00b3ff" stroke-width="0.5"/><text transform="translate(238.15856,189.25721) scale(0.29298,0.29298)" font-size="40" xml:space="preserve" fill="#ffffff" fill-rule="nonzero" stroke="#ffffff" stroke-width="1" stroke-linecap="butt" stroke-linejoin="miter" stroke-miterlimit="10" stroke-dasharray="" stroke-dashoffset="0" font-family="Pixel" font-weight="normal" text-anchor="start" style="mix-blend-mode: normal"><tspan x="0" dy="0">1</tspan></text></g><g><path d="M247.59739,191.84694v-15.19196h15.19195v15.19196z" fill-opacity="0.8" fill="#00b3ff" stroke-width="0.5"/><text transform="translate(251.57673,189.25721) scale(0.29298,0.29298)" font-size="40" xml:space="preserve" fill="#ffffff" fill-rule="nonzero" stroke="#ffffff" stroke-width="1" stroke-linecap="butt" stroke-linejoin="miter" stroke-miterlimit="10" stroke-dasharray="" stroke-dashoffset="0" font-family="Pixel" font-weight="normal" text-anchor="start" style="mix-blend-mode: normal"><tspan x="0" dy="0">2</tspan></text></g><g><path d="M247.66905,176.72521v-15.19196h15.19195v15.19196z" fill-opacity="0.8" fill="#00b3ff" stroke-width="0.5"/><text transform="translate(252.536,174.13549) scale(0.29298,0.29298)" font-size="40" xml:space="preserve" fill="#ffffff" fill-rule="nonzero" stroke="#ffffff" stroke-width="1" stroke-linecap="butt" stroke-linejoin="miter" stroke-miterlimit="10" stroke-dasharray="" stroke-dashoffset="0" font-family="Pixel" font-weight="normal" text-anchor="start" style="mix-blend-mode: normal"><tspan x="0" dy="0">3</tspan></text></g><g><path d="M217.11612,207.04033v-15.19196h15.19196v15.19196z" fill-opacity="0.8" fill="#00b3ff" stroke-width="0.5"/><text transform="translate(220.68581,204.4506) scale(0.29298,0.29298)" font-size="40" xml:space="preserve" fill="#ffffff" fill-rule="nonzero" stroke="#ffffff" stroke-width="1" stroke-linecap="butt" stroke-linejoin="miter" stroke-miterlimit="10" stroke-dasharray="" stroke-dashoffset="0" font-family="Pixel" font-weight="normal" text-anchor="start" style="mix-blend-mode: normal"><tspan x="0" dy="0">4</tspan></text></g><g><path d="M232.41416,207.07296v-15.19196h15.19196v15.19196z" fill-opacity="0.8" fill="#00b3ff" stroke-width="0.5"/><text transform="translate(236.32523,204.48324) scale(0.29298,0.29298)" font-size="40" xml:space="preserve" fill="#ffffff" fill-rule="nonzero" stroke="#ffffff" stroke-width="1" stroke-linecap="butt" stroke-linejoin="miter" stroke-miterlimit="10" stroke-dasharray="" stroke-dashoffset="0" font-family="Pixel" font-weight="normal" text-anchor="start" style="mix-blend-mode: normal"><tspan x="0" dy="0">5</tspan></text></g><g><path d="M232.40398,176.78335v-15.19196h15.19196v15.19196z" fill-opacity="0.8" fill="#00b3ff" stroke-width="0.5"/><text transform="translate(236.31505,174.19363) scale(0.29298,0.29298)" font-size="40" xml:space="preserve" fill="#ffffff" fill-rule="nonzero" stroke="#ffffff" stroke-width="1" stroke-linecap="butt" stroke-linejoin="miter" stroke-miterlimit="10" stroke-dasharray="" stroke-dashoffset="0" font-family="Pixel" font-weight="normal" text-anchor="start" style="mix-blend-mode: normal"><tspan x="0" dy="0">6</tspan></text></g><path d="M217.2094,191.84694v-15.19196h15.19196v15.19196z" fill-opacity="0.8" fill="#00b3ff" stroke-width="0.5"/><text transform="translate(220.77909,189.25721) scale(0.29298,0.29298)" font-size="40" xml:space="preserve" fill="#ffffff" fill-rule="nonzero" stroke="#ffffff" stroke-width="1" stroke-linecap="butt" stroke-linejoin="miter" stroke-miterlimit="10" stroke-dasharray="" stroke-dashoffset="0" font-family="Pixel" font-weight="normal" text-anchor="start" style="mix-blend-mode: normal"><tspan x="0" dy="0">7</tspan></text><path d="M217.27489,176.71785v-15.19196h15.19195v15.19196z" fill-opacity="0.8" fill="#00b3ff" stroke-width="0.5"/><text transform="translate(221.25424,174.12813) scale(0.29298,0.29298)" font-size="40" xml:space="preserve" fill="#ffffff" fill-rule="nonzero" stroke="#ffffff" stroke-width="1" stroke-linecap="butt" stroke-linejoin="miter" stroke-miterlimit="10" stroke-dasharray="" stroke-dashoffset="0" font-family="Pixel" font-weight="normal" text-anchor="start" style="mix-blend-mode: normal"><tspan x="0" dy="0">8</tspan></text></g></g></g></svg>