<svg version="1.1" xmlns="http://www.w3.org/2000/svg" xmlns:xlink="http://www.w3.org/1999/xlink" width="510.51054" height="384.07498" viewBox="0,0,510.51054,384.07498"><defs><linearGradient x1="462.21623" y1="17.25769" x2="462.21623" y2="25.27249" gradientUnits="userSpaceOnUse" id="color-1"><stop offset="0" stop-color="#bb3aca"/><stop offset="1" stop-color="#833ae0"/></linearGradient><linearGradient x1="462.19732" y1="18.87046" x2="462.19732" y2="25.31158" gradientUnits="userSpaceOnUse" id="color-2"><stop offset="0" stop-color="#d195e7"/><stop offset="1" stop-color="#b68aed"/></linearGradient><linearGradient x1="56.39674" y1="56.21262" x2="71.64227" y2="56.21262" gradientTransform="translate(-336.04389,-346.94685) scale(5.95877,5.95877)" gradientUnits="userSpaceOnUse" id="color-3"><stop offset="0" stop-color="#484848"/><stop offset="1" stop-color="#484848"/></linearGradient><linearGradient x1="82.64754" y1="56.21258" x2="97.89309" y2="56.21258" gradientTransform="translate(-492.46148,-346.94685) scale(5.95877,5.95877)" gradientUnits="userSpaceOnUse" id="color-4"><stop offset="0" stop-color="#484848"/><stop offset="1" stop-color="#484848"/></linearGradient><linearGradient x1="183.15087" y1="56.21254" x2="198.39637" y2="56.21254" gradientTransform="translate(-1091.31745,-346.94685) scale(5.95877,5.95877)" gradientUnits="userSpaceOnUse" id="color-5"><stop offset="0" stop-color="#484848"/><stop offset="1" stop-color="#484848"/></linearGradient><linearGradient x1="239.40269" y1="56.2125" x2="254.64787" y2="56.2125" gradientTransform="translate(-1426.498,-346.94685) scale(5.95877,5.95877)" gradientUnits="userSpaceOnUse" id="color-6"><stop offset="0" stop-color="#484848"/><stop offset="1" stop-color="#484848"/></linearGradient><linearGradient x1="436.21623" y1="46.74576" x2="436.21623" y2="63.76056" gradientUnits="userSpaceOnUse" id="color-7"><stop offset="0" stop-color="#bb3aca"/><stop offset="1" stop-color="#833ae0"/></linearGradient><linearGradient x1="436.17609" y1="50.16954" x2="436.17609" y2="63.84354" gradientUnits="userSpaceOnUse" id="color-8"><stop offset="0" stop-color="#d195e7"/><stop offset="1" stop-color="#b68aed"/></linearGradient></defs><g transform="translate(15.25517,9.18919)"><g data-paper-data="{&quot;isPaintingLayer&quot;:true}" stroke-miterlimit="10" stroke-dasharray="" stroke-dashoffset="0" style="mix-blend-mode: normal"><path d="M-15.25517,368.16817v-377.35736h510.51051v377.35736z" fill="#dee1e6" fill-rule="nonzero" stroke="none" stroke-width="0" stroke-linecap="butt" stroke-linejoin="miter"/><path d="M-15.25513,368.16817v-353.35736h15.36666l1.52041,-1.51824c0,0 -0.32368,-6.01229 0.25658,-8.0069c0.36435,-1.25241 2.88967,-2.55819 2.88967,-2.55819l79.37338,0.40198c0,0 2.56435,0.5078 2.91419,1.90738c0.4714,1.88591 -0.0901,8.64069 -0.0901,8.64069l1.46919,1.13328h406.81052v353.35736z" fill="#ffffff" fill-rule="nonzero" stroke="none" stroke-width="0" stroke-linecap="butt" stroke-linejoin="miter"/><g fill-rule="nonzero" stroke="none" stroke-linecap="butt" stroke-linejoin="miter"><path d="M5.91235,10.9266v-5.29363h5.61446v5.29363h-1.34747l-1.50788,1.28331l-1.4758,-1.28331z" fill="#622d7b" stroke-width="0"/><text transform="translate(7.11017,10.06331) scale(0.12303,0.12303)" font-size="40" xml:space="preserve" fill="#ffffff" fill-rule="nonzero" stroke="none" stroke-width="1" stroke-linecap="butt" stroke-linejoin="miter" stroke-miterlimit="10" stroke-dasharray="" stroke-dashoffset="0" font-family="Sans Serif" font-weight="normal" text-anchor="start" style="mix-blend-mode: normal"><tspan x="0" dy="0">А</tspan></text></g><text transform="translate(14.89485,11.06085) scale(0.14772,0.14772)" font-size="40" xml:space="preserve" fill="#000000" fill-rule="nonzero" stroke="none" stroke-width="1" stroke-linecap="butt" stroke-linejoin="miter" stroke-miterlimit="10" stroke-dasharray="" stroke-dashoffset="0" font-family="Sans Serif" font-weight="normal" text-anchor="start" style="mix-blend-mode: normal"><tspan x="0" dy="0">Зал славы</tspan></text><g fill="none" fill-rule="nonzero" stroke="#000000" stroke-width="0.5" stroke-linecap="round" stroke-linejoin="miter"><path d="M82.53369,10.35747l-2.75,-2.75"/><path d="M79.78369,10.35747l2.75,-2.75" data-paper-data="{&quot;index&quot;:null}"/></g><g fill="none" fill-rule="nonzero" stroke="#000000" stroke-width="0.5" stroke-linecap="round" stroke-linejoin="miter"><path d="M90.39014,8.8158h4.53727"/><path d="M92.65876,6.54717v4.53727" data-paper-data="{&quot;index&quot;:null}"/></g><path d="M474.84474,3.45803l-3.33333,3.33333" fill="none" fill-rule="nonzero" stroke="#000000" stroke-width="0.5" stroke-linecap="round" stroke-linejoin="miter"/><path d="M471.51139,3.45804l3.33333,3.33333" data-paper-data="{&quot;index&quot;:null}" fill="none" fill-rule="nonzero" stroke="#000000" stroke-width="0.5" stroke-linecap="round" stroke-linejoin="miter"/><path d="M454.95582,6.68026v-3.33333h3.33334v3.33334z" fill="none" fill-rule="nonzero" stroke="#000000" stroke-width="0.5" stroke-linecap="butt" stroke-linejoin="miter"/><path d="M442.28915,5.1247h-3.33334" fill="none" fill-rule="nonzero" stroke="#000000" stroke-width="0.5" stroke-linecap="round" stroke-linejoin="miter"/><path d="M426.06696,3.68026l-2,2l-1.88889,-1.88889" fill="none" fill-rule="nonzero" stroke="#000000" stroke-width="0.5" stroke-linecap="round" stroke-linejoin="miter"/><path d="M9.06002,21.19331h-4.2" fill="none" fill-rule="nonzero" stroke="#5f6368" stroke-width="1" stroke-linecap="round" stroke-linejoin="miter"/><path d="M6.91009,23.54331l-2.25,-2.25l2,-2" fill="none" fill-rule="nonzero" stroke="#5f6368" stroke-width="1" stroke-linecap="round" stroke-linejoin="miter"/><g data-paper-data="{&quot;index&quot;:null}" fill="none" fill-rule="nonzero" stroke="#babcbe" stroke-width="1" stroke-linecap="round" stroke-linejoin="miter"><path d="M16.16006,21.19331h4.2"/><path d="M18.56004,19.29331l2,2l-2.25,2.25"/></g><path d="M31.68232,21.91553c0,0 -0.26186,1.45803 -1.78681,1.68063c-1.27648,0.18633 -2.83377,-0.78011 -2.8379,-2.13407c-0.00491,-1.6086 1.28015,-2.70325 2.39922,-2.66719c1.15444,0.0372 2.11438,1.23175 2.11438,1.23175" fill="none" fill-rule="nonzero" stroke="#5f6368" stroke-width="1" stroke-linecap="round" stroke-linejoin="miter"/><path d="M30.29344,20.91553l1.94444,-2.05556v2.05556z" fill="#5f6368" fill-rule="nonzero" stroke="#5f6368" stroke-width="0.5" stroke-linecap="butt" stroke-linejoin="miter"/><path d="M431.11167,21.58581c0,2.66937 -0.93629,5 -7,4.83333c-1.02125,-0.02807 -368.7081,-0.33352 -369.72602,-0.33391c-11.31959,0.29295 -15.94065,-0.18862 -15.94065,-4.16609c0,-2.3058 1.11494,-3.50438 2.08275,-4.17195c0.98263,-0.67778 1.84444,-0.80818 5.35778,-0.99426c0.90596,-0.04799 377.65096,-0.05566 378.55946,-0.00046c5.48564,0.33333 6.66667,2.16396 6.66667,4.83334z" fill="#f1f3f4" fill-rule="nonzero" stroke="none" stroke-width="0" stroke-linecap="butt" stroke-linejoin="miter"/><path d="M42.18129,22.97205v-2.68182h3.18182v2.68182z" fill="#5f6368" fill-rule="nonzero" stroke="none" stroke-width="0" stroke-linecap="butt" stroke-linejoin="miter"/><path d="M42.54492,20.19932c0,-0.6778 0.54947,-1.22727 1.22727,-1.22727c0.6778,0 1.22727,0.54947 1.22727,1.22727c0,0.6778 -0.54947,1.22727 -1.22727,1.22727c-0.6778,0 -1.22727,-0.54947 -1.22727,-1.22727z" fill="none" fill-rule="nonzero" stroke="#5f6368" stroke-width="0.5" stroke-linecap="butt" stroke-linejoin="miter"/><text transform="translate(49.10575,22.85468) scale(0.11493,0.11493)" font-size="40" xml:space="preserve" fill="#000000" fill-rule="nonzero" stroke="none" stroke-width="1" stroke-linecap="butt" stroke-linejoin="miter" stroke-miterlimit="10" stroke-dasharray="" stroke-dashoffset="0" font-family="Sans Serif" font-weight="normal" text-anchor="start" style="mix-blend-mode: normal"><tspan x="0" dy="0">learn.algoritmika.az</tspan></text><g fill-rule="nonzero" stroke="none" stroke-width="0" stroke-linecap="butt" stroke-linejoin="miter"><path d="M458.20883,21.26509c0,-2.21323 1.79417,-4.0074 4.0074,-4.0074c2.21323,0 4.0074,1.79417 4.0074,4.0074c0,2.21323 -1.79417,4.0074 -4.0074,4.0074c-2.21323,0 -4.0074,-1.79417 -4.0074,-4.0074z" fill="url(#color-1)"/><path d="M460.70005,20.08497c0.15067,-0.69723 0.77353,-1.21451 1.51584,-1.21451c0.73964,0 1.35814,0.50876 1.51163,1.20222c0.0083,0.0375 0.11093,-0.03013 0.24009,0.08046c0.11891,0.10181 0.11009,0.21388 0.11009,0.23252c0,0.01679 0.00371,0.15061 -0.102,0.23825c-0.14525,0.12043 -0.23262,0.0525 -0.23858,0.08404c-0.09399,0.49732 -0.42583,0.94137 -0.87277,1.14781c-0.01065,0.00492 -0.06299,0.04366 -0.11671,0.12546c-0.06673,0.10162 -0.07076,0.24758 -0.07076,0.24758c0,0 0.51098,0.03386 0.88799,0.20086c0.34846,0.15435 0.56058,0.43591 0.66471,0.59225c0.05655,0.08491 0.18391,0.35612 0.26948,0.76449c0.0246,0.11738 0.06882,0.40171 0.11197,0.69297c0.00089,0.00604 -0.96416,0.77945 -2.29281,0.8031c-1.53163,0.02726 -2.52468,-0.81332 -2.52328,-0.82227c0.04751,-0.30287 0.09543,-0.5976 0.11907,-0.71108c0.05715,-0.27435 0.14065,-0.50266 0.17983,-0.5605c0.13349,-0.1971 0.17474,-0.4621 0.65593,-0.71796c0.4174,-0.22194 1.00213,-0.23978 1.00213,-0.23978c0,0 0.00442,-0.14978 -0.05972,-0.24921c-0.10083,-0.1563 -0.03673,-0.062 -0.09225,-0.11566c-0.45049,-0.20592 -0.81201,-0.66008 -0.90574,-1.16057c-0.00256,-0.01369 -0.10966,0.02993 -0.2435,-0.08299c-0.10842,-0.09147 -0.09364,-0.2064 -0.09319,-0.23623c0.00021,-0.01364 -0.01121,-0.14936 0.11143,-0.24131c0.10068,-0.07549 0.22974,-0.05353 0.23113,-0.05993z" fill="url(#color-2)"/></g><path d="M472.77217,23.51242c0,-0.41421 0.33579,-0.75 0.75,-0.75c0.41421,0 0.75,0.33579 0.75,0.75c0,0.41421 -0.33579,0.75 -0.75,0.75c-0.41421,0 -0.75,-0.33579 -0.75,-0.75z" fill="#5f6368" fill-rule="nonzero" stroke="none" stroke-width="0.5" stroke-linecap="butt" stroke-linejoin="miter"/><path d="M472.77217,21.51242c0,-0.41421 0.33578,-0.75 0.75,-0.75c0.41422,0 0.75,0.33579 0.75,0.75c0,0.41421 -0.33578,0.75 -0.75,0.75c-0.41422,0 -0.75,-0.33579 -0.75,-0.75z" fill="#5f6368" fill-rule="nonzero" stroke="none" stroke-width="0.5" stroke-linecap="butt" stroke-linejoin="miter"/><path d="M472.77217,19.51243c0,-0.41421 0.33578,-0.75 0.75,-0.75c0.41422,0 0.75,0.33579 0.75,0.75c0,0.41421 -0.33578,0.75 -0.75,0.75c-0.41422,0 -0.75,-0.33579 -0.75,-0.75z" fill="#5f6368" fill-rule="nonzero" stroke="none" stroke-width="0.5" stroke-linecap="butt" stroke-linejoin="miter"/><path d="M448.12882,23.94331v-5.1h5.2v5.1z" fill="#5f6368" fill-rule="nonzero" stroke="none" stroke-width="0" stroke-linecap="butt" stroke-linejoin="miter"/><path d="M449.12882,23.12476v-3.8h2.1v3.8z" fill="#ffffff" fill-rule="nonzero" stroke="none" stroke-width="0" stroke-linecap="butt" stroke-linejoin="miter"/><path d="M436.85637,23.73803v-4.75h4.75v4.75z" fill="#5f6368" fill-rule="nonzero" stroke="none" stroke-width="0" stroke-linecap="butt" stroke-linejoin="miter"/><path d="M-4.39992,374.63579v-336h496v336z" fill="#ffffff" fill-rule="nonzero" stroke="#f1f3f4" stroke-width="0.5" stroke-linecap="butt" stroke-linejoin="miter"/><g fill-rule="nonzero" stroke-width="0.5" stroke-linecap="butt" stroke-linejoin="miter"><path d="M3.78753,32.16702c0,-1.38029 1.11895,-2.49924 2.49924,-2.49924c1.38029,0 2.49924,1.11895 2.49924,2.49924c0,1.38029 -1.11895,2.49924 -2.49924,2.49924c-1.38029,0 -2.49924,-1.11895 -2.49924,-2.49924z" fill="none" stroke="#5f6368"/><path d="M8.72094,31.67026c0,0.74323 -0.84574,0.48802 -1.59714,0.48802c-0.37981,0 -0.33878,-0.15134 -0.5856,-0.28c-0.24147,-0.12587 -0.77494,-0.22497 -0.77494,-0.59252c0,-0.201 0.45741,-0.353 0.66201,-0.64854c0.23656,-0.3417 0.23478,-0.81551 0.40275,-0.81551c0.7514,0 1.89291,1.10532 1.89291,1.84855z" fill="#5f6368" stroke="none"/><path d="M6.32522,32.77938c0,0.66687 -0.58671,0.45977 -0.76204,0.71462c-0.28317,0.41159 -0.25445,0.79379 -0.64285,0.79379c-0.62889,0 -1.72323,-2.21826 -1.09434,-2.21826c0.62889,0 2.49924,0.20346 2.49924,0.70984z" fill="#5f6368" stroke="none"/></g><text transform="translate(11.0115,33.70936) scale(0.09552,0.09552)" font-size="40" xml:space="preserve" fill="#000000" fill-rule="nonzero" stroke="none" stroke-width="1" stroke-linecap="butt" stroke-linejoin="miter" stroke-miterlimit="10" stroke-dasharray="" stroke-dashoffset="0" font-family="Sans Serif" font-weight="normal" text-anchor="start" style="mix-blend-mode: normal"><tspan x="0" dy="0">Главная</tspan></text><g fill-rule="nonzero" stroke-linecap="butt" stroke-linejoin="miter"><g stroke-width="0.5"><path d="M35.12089,32.16702c0,-1.38029 1.11894,-2.49924 2.49923,-2.49924c1.38029,0 2.49923,1.11895 2.49923,2.49924c0,1.38029 -1.11894,2.49923 -2.49923,2.49923c-1.38029,0 -2.49923,-1.11894 -2.49923,-2.49923z" fill="none" stroke="#5f6368"/><path d="M40.05427,31.67026c0,0.74323 -0.84574,0.48802 -1.59714,0.48802c-0.37981,0 -0.33878,-0.15134 -0.5856,-0.28c-0.24147,-0.12588 -0.77493,-0.22497 -0.77493,-0.59251c0,-0.20099 0.45741,-0.353 0.66201,-0.64854c0.23656,-0.3417 0.23478,-0.81551 0.40275,-0.81551c0.7514,0 1.89291,1.10532 1.89291,1.84855z" fill="#5f6368" stroke="none"/><path d="M37.65854,32.77939c0,0.66687 -0.58671,0.45977 -0.76204,0.71463c-0.28317,0.41159 -0.25445,0.79379 -0.64285,0.79379c-0.62889,0 -1.72323,-2.21826 -1.09434,-2.21826c0.62889,0 2.49923,0.20346 2.49923,0.70984z" fill="#5f6368" stroke="none"/></g><text transform="translate(42.34487,33.70937) scale(0.09552,0.09552)" font-size="40" xml:space="preserve" fill="#000000" fill-rule="nonzero" stroke="none" stroke-width="1" stroke-linecap="butt" stroke-linejoin="miter" stroke-miterlimit="10" stroke-dasharray="" stroke-dashoffset="0" font-family="Sans Serif" font-weight="normal" text-anchor="start" style="mix-blend-mode: normal"><tspan x="0" dy="0">Зал славы</tspan></text></g><g fill-rule="nonzero" stroke-linecap="butt" stroke-linejoin="miter"><g stroke-width="0.5"><path d="M70.62086,32.16702c0,-1.38029 1.11895,-2.49924 2.49924,-2.49924c1.38029,0 2.49924,1.11895 2.49924,2.49924c0,1.38029 -1.11895,2.49923 -2.49924,2.49923c-1.38029,0 -2.49924,-1.11894 -2.49924,-2.49923z" fill="none" stroke="#5f6368"/><path d="M75.55428,31.67026c0,0.74323 -0.84575,0.48802 -1.59715,0.48802c-0.37982,0 -0.33879,-0.15134 -0.5856,-0.28c-0.24147,-0.12588 -0.77494,-0.22497 -0.77494,-0.59251c0,-0.20099 0.45742,-0.353 0.66202,-0.64854c0.23656,-0.3417 0.23478,-0.81551 0.40275,-0.81551c0.7514,0 1.89292,1.10532 1.89292,1.84855z" fill="#5f6368" stroke="none"/><path d="M73.15858,32.77939c0,0.66687 -0.58671,0.45977 -0.76205,0.71463c-0.28317,0.41159 -0.25446,0.79379 -0.64285,0.79379c-0.62889,0 -1.72323,-2.21826 -1.09434,-2.21826c0.62889,0 2.49924,0.20346 2.49924,0.70984z" fill="#5f6368" stroke="none"/></g><text transform="translate(77.84488,33.70937) scale(0.09552,0.09552)" font-size="40" xml:space="preserve" fill="#000000" fill-rule="nonzero" stroke="none" stroke-width="1" stroke-linecap="butt" stroke-linejoin="miter" stroke-miterlimit="10" stroke-dasharray="" stroke-dashoffset="0" font-family="Sans Serif" font-weight="normal" text-anchor="start" style="mix-blend-mode: normal"><tspan x="0" dy="0">Поиск</tspan></text></g><text transform="translate(20.14485,58.22462) scale(0.16782,0.16782)" font-size="40" xml:space="preserve" fill="#484848" fill-rule="nonzero" stroke="none" stroke-width="1" stroke-linecap="butt" stroke-linejoin="miter" stroke-miterlimit="10" stroke-dasharray="" stroke-dashoffset="0" font-family="Sans Serif" font-weight="normal" text-anchor="start" style="mix-blend-mode: normal"><tspan x="0" dy="0">Главная</tspan></text><text transform="translate(56.39488,58.22462) scale(0.16782,0.16782)" font-size="40" xml:space="preserve" fill="url(#color-3)" fill-rule="nonzero" stroke="none" stroke-width="1" stroke-linecap="butt" stroke-linejoin="miter" stroke-miterlimit="10" stroke-dasharray="" stroke-dashoffset="0" font-family="Sans Serif" font-weight="normal" text-anchor="start" style="mix-blend-mode: normal"><tspan x="0" dy="0">Курс</tspan></text><text transform="translate(82.64488,58.22462) scale(0.16782,0.16782)" font-size="40" xml:space="preserve" fill="url(#color-4)" fill-rule="nonzero" stroke="none" stroke-width="1" stroke-linecap="butt" stroke-linejoin="miter" stroke-miterlimit="10" stroke-dasharray="" stroke-dashoffset="0" font-family="Sans Serif" font-weight="normal" text-anchor="start" style="mix-blend-mode: normal"><tspan x="0" dy="0">Онлайн-урок</tspan></text><text transform="translate(183.1449,58.22462) scale(0.16782,0.16782)" font-size="40" xml:space="preserve" fill="url(#color-5)" fill-rule="nonzero" stroke="none" stroke-width="1" stroke-linecap="butt" stroke-linejoin="miter" stroke-miterlimit="10" stroke-dasharray="" stroke-dashoffset="0" font-family="Sans Serif" font-weight="normal" text-anchor="start" style="mix-blend-mode: normal"><tspan x="0" dy="0">Лаборатория</tspan></text><text transform="translate(239.3949,58.22462) scale(0.16782,0.16782)" font-size="40" xml:space="preserve" fill="url(#color-6)" fill-rule="nonzero" stroke="none" stroke-width="1" stroke-linecap="butt" stroke-linejoin="miter" stroke-miterlimit="10" stroke-dasharray="" stroke-dashoffset="0" font-family="Sans Serif" font-weight="normal" text-anchor="start" style="mix-blend-mode: normal"><tspan x="0" dy="0">Центр развлечений</tspan></text><text transform="translate(137.39486,58.22462) scale(0.16782,0.16782)" font-size="40" xml:space="preserve" fill="#000000" fill-rule="nonzero" stroke="#000000" stroke-width="1" stroke-linecap="butt" stroke-linejoin="miter" stroke-miterlimit="10" stroke-dasharray="" stroke-dashoffset="0" font-family="Sans Serif" font-weight="normal" text-anchor="start" style="mix-blend-mode: normal"><tspan x="0" dy="0">Зал славы</tspan></text><path d="M-5.45517,71.7233h491.7404" fill="none" fill-rule="nonzero" stroke="#dbdbdb" stroke-width="0.5" stroke-linecap="round" stroke-linejoin="miter"/><path d="M8.77817,100.38997h460.50706" fill="none" fill-rule="nonzero" stroke="#dbdbdb" stroke-width="0.5" stroke-linecap="round" stroke-linejoin="miter"/><path d="M32.44483,100.38997h-23.33333" fill="none" fill-rule="nonzero" stroke="#000000" stroke-width="1" stroke-linecap="round" stroke-linejoin="miter"/><text transform="translate(9.7282,94.55795) scale(0.16782,0.16782)" font-size="40" xml:space="preserve" fill="#000000" fill-rule="nonzero" stroke="#000000" stroke-width="1" stroke-linecap="butt" stroke-linejoin="miter" stroke-miterlimit="10" stroke-dasharray="" stroke-dashoffset="0" font-family="Sans Serif" font-weight="normal" text-anchor="start" style="mix-blend-mode: normal"><tspan x="0" dy="0">Новые</tspan></text><text transform="translate(40.7282,94.55796) scale(0.16782,0.16782)" font-size="40" xml:space="preserve" fill="#484848" fill-rule="nonzero" stroke="none" stroke-width="0" stroke-linecap="butt" stroke-linejoin="miter" stroke-miterlimit="10" stroke-dasharray="" stroke-dashoffset="0" font-family="Sans Serif" font-weight="normal" text-anchor="start" style="mix-blend-mode: normal"><tspan x="0" dy="0">Популярные</tspan></text><text transform="translate(91.06155,94.55796) scale(0.16782,0.16782)" font-size="40" xml:space="preserve" fill="#484848" fill-rule="nonzero" stroke="none" stroke-width="0" stroke-linecap="butt" stroke-linejoin="miter" stroke-miterlimit="10" stroke-dasharray="" stroke-dashoffset="0" font-family="Sans Serif" font-weight="normal" text-anchor="start" style="mix-blend-mode: normal"><tspan x="0" dy="0">Обсуждаемые</tspan></text><text transform="translate(149.06156,94.55796) scale(0.16782,0.16782)" font-size="40" xml:space="preserve" fill="#484848" fill-rule="nonzero" stroke="none" stroke-width="0" stroke-linecap="butt" stroke-linejoin="miter" stroke-miterlimit="10" stroke-dasharray="" stroke-dashoffset="0" font-family="Sans Serif" font-weight="normal" text-anchor="start" style="mix-blend-mode: normal"><tspan x="0" dy="0">Селебрити</tspan></text><g fill-rule="nonzero" stroke="none" stroke-width="0" stroke-linecap="butt" stroke-linejoin="miter"><path d="M427.70883,55.25316c0,-4.69852 3.80889,-8.5074 8.5074,-8.5074c4.69851,0 8.5074,3.80888 8.5074,8.5074c0,4.69852 -3.80888,8.5074 -8.5074,8.5074c-4.69851,0 -8.5074,-3.80888 -8.5074,-8.5074z" fill="url(#color-7)"/><path d="M432.9975,52.74785c0.31986,-1.48016 1.64215,-2.57831 3.21802,-2.57831c1.5702,0 2.88322,1.08006 3.20907,2.55222c0.01762,0.07961 0.2355,-0.06397 0.50969,0.17081c0.25243,0.21614 0.23371,0.45406 0.23371,0.49363c0,0.03565 0.00788,0.31973 -0.21654,0.50578c-0.30836,0.25567 -0.49383,0.11146 -0.50649,0.17841c-0.19954,1.05577 -0.904,1.99846 -1.85282,2.43671c-0.02261,0.01044 -0.13373,0.09269 -0.24777,0.26635c-0.14166,0.21573 -0.15022,0.52559 -0.15022,0.52559c0,0 1.08477,0.07188 1.88513,0.42641c0.73976,0.32767 1.19007,0.9254 1.41113,1.2573c0.12005,0.18026 0.39042,0.75601 0.57209,1.62295c0.05223,0.24919 0.1461,0.8528 0.2377,1.47112c0.00189,0.01282 -2.04684,1.65472 -4.86746,1.70492c-3.25153,0.05787 -5.35969,-1.72662 -5.35672,-1.74562c0.10086,-0.64297 0.20259,-1.26865 0.25277,-1.50956c0.12133,-0.58243 0.29859,-1.06711 0.38177,-1.1899c0.28339,-0.41843 0.37096,-0.981 1.39249,-1.52417c0.88611,-0.47116 2.12744,-0.50904 2.12744,-0.50904c0,0 0.00938,-0.31797 -0.12678,-0.52905c-0.21405,-0.33181 -0.07797,-0.13162 -0.19583,-0.24554c-0.95635,-0.43715 -1.72384,-1.4013 -1.92282,-2.4638c-0.00543,-0.02907 -0.2328,0.06354 -0.51693,-0.17618c-0.23016,-0.19418 -0.19879,-0.43818 -0.19783,-0.5015c0.00045,-0.02896 -0.0238,-0.31707 0.23656,-0.51228c0.21373,-0.16026 0.48772,-0.11365 0.49067,-0.12723z" fill="url(#color-8)"/></g><text transform="translate(447.65536,54.656) scale(0.16173,0.16173)" font-size="40" xml:space="preserve" fill="#484848" fill-rule="nonzero" stroke="none" stroke-width="1" stroke-linecap="butt" stroke-linejoin="miter" stroke-miterlimit="10" stroke-dasharray="" stroke-dashoffset="0" font-family="Sans Serif" font-weight="normal" text-anchor="start" style="mix-blend-mode: normal"><tspan x="0" dy="0">Тест</tspan><tspan x="0" dy="46.150000000000006px">Тест</tspan></text><path d="M471.15536,54.39206l-2.5,2.5l-2.5,-2.5" fill="none" fill-rule="nonzero" stroke="#000000" stroke-width="1" stroke-linecap="round" stroke-linejoin="miter"/><g><path d="M354.49649,60.17266c0,-1.85954 0,-6.34123 0,-9.6923c0,-1.86397 2.27214,-3.36538 3.59615,-3.36538c1.89268,0 5.9878,0 9.38461,0c1.7449,0 3.51923,1.62403 3.51923,3.59615c0,3.12741 0,7.36323 0,9.15385c0,1.43538 -2.08579,3.75 -3.90385,3.75c-3.1732,0 -7.10491,0 -9,0c-1.59513,0 -3.59615,-2.06212 -3.59615,-3.44231z" fill="#eeeff0" fill-rule="nonzero" stroke="none" stroke-width="0" stroke-linecap="butt" stroke-linejoin="miter"/><path d="M376.39649,60.17266c0,-1.85954 0,-6.34123 0,-9.6923c0,-1.86397 2.27214,-3.36538 3.59615,-3.36538c1.89268,0 5.9878,0 9.38461,0c1.7449,0 3.51923,1.62403 3.51923,3.59615c0,3.12741 0,7.36323 0,9.15385c0,1.43538 -2.08579,3.75 -3.90385,3.75c-3.1732,0 -7.10491,0 -9,0c-1.59513,0 -3.59615,-2.06212 -3.59615,-3.44231z" fill="#eeeff0" fill-rule="nonzero" stroke="none" stroke-width="0" stroke-linecap="butt" stroke-linejoin="miter"/><path d="M398.89649,60.17266c0,-1.85954 0,-6.34123 0,-9.6923c0,-1.86397 2.27214,-3.36538 3.59615,-3.36538c1.89268,0 5.9878,0 9.38461,0c1.7449,0 3.51923,1.62403 3.51923,3.59615c0,3.12741 0,7.36323 0,9.15385c0,1.43538 -2.08579,3.75 -3.90385,3.75c-3.1732,0 -7.10491,0 -9,0c-1.59513,0 -3.59615,-2.06212 -3.59615,-3.44231z" fill="#eeeff0" fill-rule="nonzero" stroke="none" stroke-width="0" stroke-linecap="butt" stroke-linejoin="miter"/><path d="M384.74999,51.41659c0.33045,0 0.5983,-0.26786 0.5983,-0.5983c0,-0.33043 -0.26785,-0.5983 -0.5983,-0.5983c-0.33045,0 -0.5983,0.26786 -0.5983,0.5983c0,0.33043 0.26785,0.5983 0.5983,0.5983zM386.06624,50.81829c0,0.13758 -0.02111,0.27024 -0.06026,0.3949c0.37913,0.15493 0.78171,0.39136 1.11766,0.74498c0.44437,0.4677 0.75457,1.12272 0.75457,2.00699c0,1.41228 0.36396,2.09788 0.68555,2.48228c0.14464,0.17288 0.28613,0.29269 0.42087,0.40679l0.00005,0.00005c0.02226,0.01886 0.04437,0.03757 0.06629,0.05634c0.07122,0.06112 0.15694,0.13675 0.22367,0.22228c0.07103,0.09104 0.14206,0.22017 0.14206,0.38631v0.03365c0.00019,0.24473 0.00043,0.52727 -0.08879,0.77348c-0.10803,0.29824 -0.32782,0.50984 -0.67158,0.6519c-0.32294,0.13349 -0.7729,0.21381 -1.3868,0.26382c-0.21725,0.01766 -0.45887,0.03183 -0.72753,0.04274c-0.05476,0.86887 -0.89558,1.4652 -1.79202,1.4652c-0.89649,0 -1.7373,-0.59633 -1.79208,-1.4652c-0.26862,-0.01091 -0.51024,-0.02508 -0.72749,-0.04274c-0.6139,-0.05002 -1.06389,-0.13033 -1.38682,-0.26382c-0.34377,-0.14206 -0.56352,-0.35366 -0.67156,-0.6519c-0.08921,-0.24621 -0.08899,-0.52875 -0.08879,-0.77348l0.00001,-0.03365c0,-0.16613 0.07102,-0.29527 0.14203,-0.38631c0.06674,-0.08553 0.15244,-0.16116 0.22369,-0.22228c0.02182,-0.01867 0.04385,-0.03733 0.06606,-0.05614l0.00017,-0.00014l0.00008,-0.0001v0c0.13473,-0.11411 0.27623,-0.23391 0.42087,-0.40679c0.32161,-0.38439 0.68558,-1.06999 0.68558,-2.48228c0,-0.92035 0.33598,-1.59123 0.8074,-2.06112c0.32454,-0.32348 0.70473,-0.54372 1.06486,-0.69086c-0.03915,-0.12466 -0.06026,-0.25731 -0.06026,-0.39489c0,-0.72694 0.5893,-1.31625 1.31625,-1.31625c0.72695,0 1.31625,0.58931 1.31625,1.31625zM386.60313,52.45269c0.31801,0.3347 0.55713,0.81286 0.55713,1.51248c0,1.55051 0.40526,2.40799 0.85288,2.94301c0.18734,0.22386 0.37784,0.38468 0.51267,0.49845c0.02063,0.01742 0.04001,0.03379 0.05787,0.04906c0.06117,0.05246 0.0953,0.08481 0.11502,0.10702c-0.00053,0.26564 -0.00661,0.41086 -0.04581,0.51908c-0.02661,0.07333 -0.07606,0.15249 -0.27076,0.23295c-0.21553,0.08907 -0.57326,0.16302 -1.17089,0.2117c-0.59097,0.04815 -1.38709,0.06969 -2.46125,0.06969c-1.07422,0 -1.8703,-0.02154 -2.46129,-0.06969c-0.59764,-0.04868 -0.95535,-0.12263 -1.17089,-0.2117c-0.1947,-0.08046 -0.24418,-0.15963 -0.27076,-0.23295c-0.0392,-0.10822 -0.04529,-0.25344 -0.04581,-0.51908c0.01969,-0.02221 0.05383,-0.05456 0.11502,-0.10702c0.01767,-0.01512 0.03683,-0.0313 0.05728,-0.04858l0.00051,-0.00043l0.00009,-0.00005v0c0.1348,-0.11377 0.32533,-0.27459 0.51264,-0.49845c0.44763,-0.53502 0.8529,-1.3925 0.8529,-2.94301c0,-0.7266 0.25793,-1.21536 0.59629,-1.55262c0.28263,-0.28171 0.63341,-0.46884 0.96663,-0.58701c0.22898,0.19283 0.52459,0.30901 0.84738,0.30901c0.32279,0 0.6184,-0.11618 0.84738,-0.309c0.34993,0.1241 0.71728,0.32352 1.00576,0.62714zM383.68334,59.30538c0.06798,0.36865 0.46788,0.72667 1.06665,0.72667c0.59873,0 0.99863,-0.35802 1.06659,-0.72667c-0.32375,0.00594 -0.67837,0.00871 -1.06659,0.00871c-0.38827,0 -0.74284,-0.00278 -1.06665,-0.00871z" fill="#0f1c2c" fill-rule="evenodd" stroke="none" stroke-width="1" stroke-linecap="butt" stroke-linejoin="miter"/><path d="M412.21056,55.8977c-0.26337,2.14773 -1.7304,2.4929 -2.21287,2.60673c-0.04305,0.01112 -0.07754,0.01855 -0.10091,0.02598c-0.16,0.05197 -1.94458,0.26599 -3.32915,0.26599c-0.19075,0 -0.3692,-0.00492 -0.53292,-0.01235c-0.26338,0.32041 -1.05351,1.27551 -1.34151,1.56748c-0.09477,0.0965 -0.208,0.14847 -0.31876,0.14847c-0.04308,0 -0.08369,-0.00743 -0.12184,-0.02229c-0.192,-0.07544 -0.24246,-0.3179 -0.24246,-0.43547c0,-0.11383 0.24042,-1.09367 0.24289,-1.53781c-2.03688,-0.69157 -2.21946,-2.91848 -2.19238,-4.09877l0.00369,-0.13484c0.02831,-1.38068 0.33353,-2.31475 0.95998,-2.94076c1.12244,-1.02809 3.6676,-1.08005 4.16605,-1.08005h0.07508c2.1218,0.0099 3.48915,0.54312 4.059,1.04047c0.84675,0.73612 1.16307,2.3729 0.88611,4.60723z" fill="none" fill-rule="nonzero" stroke="#0f1c2c" stroke-width="0.75" stroke-linecap="round" stroke-linejoin="round"/><path d="M404.62084,53.325h5.125M404.62084,54.60625h5.125M404.62084,55.8875h3.29466" fill="none" fill-rule="nonzero" stroke="#0f1c2c" stroke-width="0.75" stroke-linecap="round" stroke-linejoin="round"/><path d="M365.34525,54.60033c0,1.74998 -1.41384,3.16877 -3.15797,3.16877c-1.74413,0 -3.15797,-1.41879 -3.15797,-3.16877c0,-1.75043 1.41384,-3.16877 3.15797,-3.16877c1.74413,0 3.15797,1.41879 3.15797,3.16877zM364.68243,57.59045c-0.69813,0.58845 -1.5821,0.91063 -2.49515,0.90941c-2.14641,0 -3.88694,-1.74593 -3.88694,-3.89954c0,-2.15406 1.74008,-3.89999 3.88694,-3.89999c2.14641,0 3.88694,1.74593 3.88694,3.89999c0.0015,0.90038 -0.30924,1.77343 -0.87926,2.4704l1.99792,2.00512c0.14239,0.14293 0.14239,0.3741 0,0.51703c-0.06821,0.06837 -0.16082,0.10679 -0.25739,0.10679c-0.09657,0 -0.18918,-0.03842 -0.25739,-0.10679z" fill="#0f1c2c" fill-rule="evenodd" stroke="none" stroke-width="1" stroke-linecap="butt" stroke-linejoin="miter"/></g><g fill-rule="nonzero" stroke="none" stroke-width="0" stroke-linecap="butt" stroke-linejoin="miter"><path d="M380.64649,120.92019c0,-1.85954 0,-6.34123 0,-9.6923c0,-1.86397 2.27214,-3.36538 3.59615,-3.36538c1.89268,0 25.93066,0 29.32747,0c1.7449,0 3.51923,1.62403 3.51923,3.59615c0,3.12741 0,7.36323 0,9.15385c0,1.43538 -2.08579,3.75 -3.90385,3.75c-3.1732,0 -27.04776,0 -28.94285,0c-1.59513,0 -3.59615,-2.06212 -3.59615,-3.44231z" fill="#eeeff0"/><path d="M329.44647,120.92019c0,-1.85954 0,-6.34123 0,-9.6923c0,-1.86397 2.27214,-3.36538 3.59615,-3.36538c1.89268,0 37.53066,0 40.92747,0c1.7449,0 3.51923,1.62403 3.51923,3.59615c0,3.12741 0,7.36323 0,9.15385c0,1.43538 -2.08579,3.75 -3.90385,3.75c-3.1732,0 -38.64776,0 -40.54285,0c-1.59513,0 -3.59615,-2.06212 -3.59615,-3.44231z" fill="#eeeff0"/><path d="M281.84649,120.92019c0,-1.85954 0,-6.34123 0,-9.6923c0,-1.86397 2.27214,-3.36538 3.59615,-3.36538c1.89268,0 33.53066,0 36.92747,0c1.7449,0 3.51923,1.62403 3.51923,3.59615c0,3.12741 0,7.36323 0,9.15385c0,1.43538 -2.08579,3.75 -3.90385,3.75c-3.1732,0 -34.64776,0 -36.54285,0c-1.59513,0 -3.59615,-2.06212 -3.59615,-3.44231z" fill="#eeeff0"/><path d="M228.04649,120.92019c0,-1.85954 0,-6.34123 0,-9.6923c0,-1.86397 2.27214,-3.36538 3.59615,-3.36538c1.89268,0 40.73066,0 44.12747,0c1.7449,0 3.51923,1.62403 3.51923,3.59615c0,3.12741 0,7.36323 0,9.15385c0,1.43538 -2.08579,3.75 -3.90385,3.75c-3.1732,0 -41.84776,0 -43.74285,0c-1.59513,0 -3.59615,-2.06212 -3.59615,-3.44231z" fill="#eeeff0"/><path d="M183.44649,120.92019c0,-1.85954 0,-6.34123 0,-9.6923c0,-1.86397 2.27214,-3.36538 3.59615,-3.36538c1.89268,0 30.33066,0 33.72747,0c1.7449,0 3.51923,1.62403 3.51923,3.59615c0,3.12741 0,7.36323 0,9.15385c0,1.43538 -2.08579,3.75 -3.90385,3.75c-3.1732,0 -31.44776,0 -33.34285,0c-1.59513,0 -3.59615,-2.06212 -3.59615,-3.44231z" fill="#eeeff0"/><path d="M137.64647,120.92019c0,-1.85954 0,-6.34123 0,-9.6923c0,-1.86397 2.27214,-3.36538 3.59615,-3.36538c1.89268,0 32.93066,0 36.32747,0c1.7449,0 3.51923,1.62403 3.51923,3.59615c0,3.12741 0,7.36323 0,9.15385c0,1.43538 -2.08579,3.75 -3.90385,3.75c-3.1732,0 -34.04776,0 -35.94285,0c-1.59513,0 -3.59615,-2.06212 -3.59615,-3.44231z" fill="#eeeff0"/><path d="M90.04647,120.92019c0,-1.85954 0,-6.34123 0,-9.6923c0,-1.86397 2.27214,-3.36538 3.59615,-3.36538c1.89268,0 33.93066,0 37.32747,0c1.7449,0 3.51923,1.62403 3.51923,3.59615c0,3.12741 0,7.36323 0,9.15385c0,1.43538 -2.08579,3.75 -3.90385,3.75c-3.1732,0 -35.04776,0 -36.94285,0c-1.59513,0 -3.59615,-2.06212 -3.59615,-3.44231z" fill="#eeeff0"/><path d="M44.04647,120.92019c0,-1.85954 0,-6.34123 0,-9.6923c0,-1.86397 2.27214,-3.36538 3.59615,-3.36538c1.89268,0 32.13066,0 35.52747,0c1.7449,0 3.51923,1.62403 3.51923,3.59615c0,3.12741 0,7.36323 0,9.15385c0,1.43538 -2.08579,3.75 -3.90385,3.75c-3.1732,0 -33.24776,0 -35.14285,0c-1.59513,0 -3.59615,-2.06212 -3.59615,-3.44231z" fill="#eeeff0"/><path d="M9.44647,120.92019c0,-1.85954 0,-6.34123 0,-9.6923c0,-1.86397 2.27214,-3.36538 3.59615,-3.36538c1.89268,0 20.73066,0 24.12747,0c1.7449,0 3.51923,1.62403 3.51923,3.59615c0,3.12741 0,7.36323 0,9.15385c0,1.43538 -2.08579,3.75 -3.90385,3.75c-3.1732,0 -21.84776,0 -23.74285,0c-1.59513,0 -3.59615,-2.06212 -3.59615,-3.44231z" fill="#f0daff"/></g><text transform="translate(18.14009,119.06438) scale(0.18818,0.18818)" font-size="40" xml:space="preserve" fill="#913ae0" fill-rule="nonzero" stroke="none" stroke-width="1" stroke-linecap="butt" stroke-linejoin="miter" stroke-miterlimit="10" stroke-dasharray="" stroke-dashoffset="0" font-family="Sans Serif" font-weight="normal" text-anchor="start" style="mix-blend-mode: normal"><tspan x="0" dy="0">Все</tspan></text><text transform="translate(52.85438,118.96197) scale(0.18109,0.18109)" font-size="40" xml:space="preserve" fill="#484848" fill-rule="nonzero" stroke="none" stroke-width="1" stroke-linecap="butt" stroke-linejoin="miter" stroke-miterlimit="10" stroke-dasharray="" stroke-dashoffset="0" font-family="Sans Serif" font-weight="normal" text-anchor="start" style="mix-blend-mode: normal"><tspan x="0" dy="0">Друзья</tspan></text><text transform="translate(99.85438,118.96197) scale(0.18109,0.18109)" font-size="40" xml:space="preserve" fill="#484848" fill-rule="nonzero" stroke="none" stroke-width="1" stroke-linecap="butt" stroke-linejoin="miter" stroke-miterlimit="10" stroke-dasharray="" stroke-dashoffset="0" font-family="Sans Serif" font-weight="normal" text-anchor="start" style="mix-blend-mode: normal"><tspan x="0" dy="0">Scratch</tspan></text><text transform="translate(147.28295,118.96197) scale(0.18109,0.18109)" font-size="40" xml:space="preserve" fill="#484848" fill-rule="nonzero" stroke="none" stroke-width="1" stroke-linecap="butt" stroke-linejoin="miter" stroke-miterlimit="10" stroke-dasharray="" stroke-dashoffset="0" font-family="Sans Serif" font-weight="normal" text-anchor="start" style="mix-blend-mode: normal"><tspan x="0" dy="0">Python</tspan></text><text transform="translate(192.71154,118.96197) scale(0.18109,0.18109)" font-size="40" xml:space="preserve" fill="#484848" fill-rule="nonzero" stroke="none" stroke-width="1" stroke-linecap="butt" stroke-linejoin="miter" stroke-miterlimit="10" stroke-dasharray="" stroke-dashoffset="0" font-family="Sans Serif" font-weight="normal" text-anchor="start" style="mix-blend-mode: normal"><tspan x="0" dy="0">Видео</tspan></text><text transform="translate(236.42582,118.96197) scale(0.18109,0.18109)" font-size="40" xml:space="preserve" fill="#484848" fill-rule="nonzero" stroke="none" stroke-width="1" stroke-linecap="butt" stroke-linejoin="miter" stroke-miterlimit="10" stroke-dasharray="" stroke-dashoffset="0" font-family="Sans Serif" font-weight="normal" text-anchor="start" style="mix-blend-mode: normal"><tspan x="0" dy="0">Картинки</tspan></text><text transform="translate(290.85437,118.96197) scale(0.18109,0.18109)" font-size="40" xml:space="preserve" fill="#484848" fill-rule="nonzero" stroke="none" stroke-width="1" stroke-linecap="butt" stroke-linejoin="miter" stroke-miterlimit="10" stroke-dasharray="" stroke-dashoffset="0" font-family="Sans Serif" font-weight="normal" text-anchor="start" style="mix-blend-mode: normal"><tspan x="0" dy="0">Дизайн</tspan></text><text transform="translate(338.42582,118.96197) scale(0.18109,0.18109)" font-size="40" xml:space="preserve" fill="#484848" fill-rule="nonzero" stroke="none" stroke-width="1" stroke-linecap="butt" stroke-linejoin="miter" stroke-miterlimit="10" stroke-dasharray="" stroke-dashoffset="0" font-family="Sans Serif" font-weight="normal" text-anchor="start" style="mix-blend-mode: normal"><tspan x="0" dy="0">Роблокс</tspan></text><text transform="translate(389.85439,118.96197) scale(0.18109,0.18109)" font-size="40" xml:space="preserve" fill="#484848" fill-rule="nonzero" stroke="none" stroke-width="1" stroke-linecap="butt" stroke-linejoin="miter" stroke-miterlimit="10" stroke-dasharray="" stroke-dashoffset="0" font-family="Sans Serif" font-weight="normal" text-anchor="start" style="mix-blend-mode: normal"><tspan x="0" dy="0">Unity</tspan></text><path d="M453.56316,120.75352c0,-1.85954 0,-6.34123 0,-9.6923c0,-1.86397 2.27214,-3.36538 3.59615,-3.36538c1.89268,0 5.9878,0 9.38461,0c1.7449,0 3.51923,1.62403 3.51923,3.59615c0,3.12741 0,7.36323 0,9.15385c0,1.43538 -2.08579,3.75 -3.90385,3.75c-3.1732,0 -7.10491,0 -9,0c-1.59513,0 -3.59615,-2.06212 -3.59615,-3.44231z" fill="#eeeff0" fill-rule="nonzero" stroke="none" stroke-width="0" stroke-linecap="butt" stroke-linejoin="miter"/><path d="M460.23869,112.64206l3.58333,3.58333l-3.58333,3.58333" fill="none" fill-rule="nonzero" stroke="#000000" stroke-width="1" stroke-linecap="round" stroke-linejoin="miter"/><path d="M451.22982,120.75353c0,1.38019 -2.00102,3.44231 -3.59615,3.44231c-1.89509,0 -5.8268,0 -9,0c-1.81806,0 -3.90385,-2.31462 -3.90385,-3.75c0,-1.79062 0,-6.02644 0,-9.15385c0,-1.97212 1.77433,-3.59615 3.51923,-3.59615c3.39681,0 7.49193,0 9.38461,0c1.32401,0 3.59615,1.50141 3.59615,3.36538c0,3.35107 0,7.83276 0,9.6923z" fill="#fafafb" fill-rule="nonzero" stroke="none" stroke-width="0" stroke-linecap="butt" stroke-linejoin="miter"/><path d="M444.55427,119.80872l-3.58333,-3.58333l3.58333,-3.58333" fill="none" fill-rule="nonzero" stroke="#c2c4c6" stroke-width="1" stroke-linecap="round" stroke-linejoin="miter"/><text transform="translate(93.31436,22.98289) scale(0.11494,0.11494)" font-size="40" xml:space="preserve" fill="#696a6c" fill-rule="nonzero" stroke="none" stroke-width="1" stroke-linecap="butt" stroke-linejoin="miter" stroke-miterlimit="10" stroke-dasharray="" stroke-dashoffset="0" font-family="Sans Serif" font-weight="normal" text-anchor="start" style="mix-blend-mode: normal"><tspan x="0" dy="0">/community?category=new</tspan></text></g></g></svg>