<svg version="1.1" xmlns="http://www.w3.org/2000/svg" xmlns:xlink="http://www.w3.org/1999/xlink" width="539.03904" height="403.9039" viewBox="0,0,539.03904,403.9039"><defs><linearGradient x1="30.46018" y1="97.34848" x2="85.64005" y2="97.34848" gradientUnits="userSpaceOnUse" id="color-1"><stop offset="0" stop-color="#35eb29"/><stop offset="1" stop-color="#dceb3d"/></linearGradient><linearGradient x1="4.97914" y1="16.60339" x2="22.57074" y2="16.60339" gradientUnits="userSpaceOnUse" id="color-2"><stop offset="0" stop-color="#35eb29"/><stop offset="1" stop-color="#dceb3d"/></linearGradient><linearGradient x1="7.12017" y1="16.65346" x2="20.37547" y2="16.65346" gradientUnits="userSpaceOnUse" id="color-3"><stop offset="0" stop-color="#298b2a"/><stop offset="1" stop-color="#000000"/></linearGradient></defs><g transform="translate(29.51952,21.95195)"><g data-paper-data="{&quot;isPaintingLayer&quot;:true}" fill-rule="nonzero" stroke-linejoin="miter" stroke-miterlimit="10" stroke-dasharray="" stroke-dashoffset="0" style="mix-blend-mode: normal"><path d="M-29.51952,381.95195v-403.9039h539.03904v403.9039z" fill="#3c3f41" stroke="none" stroke-width="0" stroke-linecap="butt"/><g stroke-linecap="butt"><g stroke="#000000"><path d="M85.64005,115.44145c0,4.59014 -3.72273,8.3119 -8.3119,8.3119h-38.55706c-4.59014,0 -8.31093,-3.72273 -8.31093,-8.3119v-36.18693c0,-4.59014 3.72079,-8.31093 8.31093,-8.31093h38.5561c4.59207,0 8.3119,3.72079 8.3119,8.31093v36.18693z" fill="url(#color-1)" stroke-width="2.5"/><g data-paper-data="{&quot;index&quot;:null}" fill="none" stroke-width="2"><path d="M40.50474,77.1059h17.44884v16.92538l-5.07789,-4.92555c0,0 -2.16891,1.48723 -3.31163,3.27567c-0.90412,1.41502 -1.58891,4.76429 -1.58891,4.76429l-10.14644,0.02647c0,0 -0.20194,-4.0337 1.64242,-7.98457c1.62263,-3.47589 5.57928,-7.67238 5.57928,-7.67238z"/><path d="M78.278,79.75588v17.44884h-16.92538l4.92555,-5.07789c0,0 -1.48723,-2.16891 -3.27567,-3.31163c-1.41502,-0.90412 -4.76429,-1.58891 -4.76429,-1.58891l-0.02647,-10.14644c0,0 4.0337,-0.20194 7.98457,1.64242c3.47589,1.62263 7.67238,5.57928 7.67238,5.57928z"/><path d="M37.85476,114.53018v-17.44884h16.92538l-4.92555,5.07789c0,0 2.12536,5.13545 7.90065,5.12648c7.2115,-0.0112 9.11966,-5.11163 9.11966,-5.11163l7.23866,7.37789c0,0 -4.48544,8.22842 -16.40597,8.06934c-10.26986,-0.13705 -15.44351,-7.63683 -15.44351,-7.63683z"/></g></g><text transform="translate(93.38185,111.80716) scale(1.00701,1.00701)" font-size="40" xml:space="preserve" fill="#d1d1d1" fill-rule="nonzero" stroke="none" stroke-width="1" stroke-linecap="butt" stroke-linejoin="miter" stroke-miterlimit="10" stroke-dasharray="" stroke-dashoffset="0" font-family="Sans Serif" font-weight="normal" text-anchor="start" style="mix-blend-mode: normal"><tspan x="0" dy="0">Обход reCAPTCHA</tspan></text></g><path d="M-11.47266,37.17589h494.84985" fill="none" stroke="#515151" stroke-width="2.5" stroke-linecap="round"/><g stroke="none" stroke-linecap="butt"><path d="M4.97914,25.39919v-17.59159h17.59159v17.59159z" fill="url(#color-2)" stroke-width="0"/><path d="M7.12017,23.2811v-13.25529h13.25529v13.25529z" fill="url(#color-3)" stroke-width="0"/><path d="M8.84483,21.65499v-0.98552h4.77979v0.98552z" fill="#ffffff" stroke-width="0"/><text transform="translate(8.15498,16.65643) scale(0.19799,0.17664)" font-size="40" xml:space="preserve" fill="#ffffff" fill-rule="nonzero" stroke="none" stroke-width="1" stroke-linecap="butt" stroke-linejoin="miter" stroke-miterlimit="10" stroke-dasharray="" stroke-dashoffset="0" font-family="Sans Serif" font-weight="normal" text-anchor="start" style="mix-blend-mode: normal"><tspan x="0" dy="0">PC</tspan></text></g><text transform="translate(27.04398,22.58053) scale(0.29902,0.29902)" font-size="40" xml:space="preserve" fill="#bbbbbb" fill-rule="nonzero" stroke="none" stroke-width="1" stroke-linecap="butt" stroke-linejoin="miter" stroke-miterlimit="10" stroke-dasharray="" stroke-dashoffset="0" font-family="Sans Serif" font-weight="normal" text-anchor="start" style="mix-blend-mode: normal"><tspan x="0" dy="0">File</tspan></text><text transform="translate(49.76253,22.58054) scale(0.29902,0.29902)" font-size="40" xml:space="preserve" fill="#bbbbbb" fill-rule="nonzero" stroke="none" stroke-width="1" stroke-linecap="butt" stroke-linejoin="miter" stroke-miterlimit="10" stroke-dasharray="" stroke-dashoffset="0" font-family="Sans Serif" font-weight="normal" text-anchor="start" style="mix-blend-mode: normal"><tspan x="0" dy="0">Edit</tspan></text><text transform="translate(75.67614,22.58054) scale(0.29902,0.29902)" font-size="40" xml:space="preserve" fill="#bbbbbb" fill-rule="nonzero" stroke="none" stroke-width="1" stroke-linecap="butt" stroke-linejoin="miter" stroke-miterlimit="10" stroke-dasharray="" stroke-dashoffset="0" font-family="Sans Serif" font-weight="normal" text-anchor="start" style="mix-blend-mode: normal"><tspan x="0" dy="0">View</tspan></text><text transform="translate(106.86981,22.58054) scale(0.29902,0.29902)" font-size="40" xml:space="preserve" fill="#bbbbbb" fill-rule="nonzero" stroke="none" stroke-width="1" stroke-linecap="butt" stroke-linejoin="miter" stroke-miterlimit="10" stroke-dasharray="" stroke-dashoffset="0" font-family="Sans Serif" font-weight="normal" text-anchor="start" style="mix-blend-mode: normal"><tspan x="0" dy="0">Navigate</tspan></text><text transform="translate(162.18656,22.58054) scale(0.29902,0.29902)" font-size="40" xml:space="preserve" fill="#bbbbbb" fill-rule="nonzero" stroke="none" stroke-width="1" stroke-linecap="butt" stroke-linejoin="miter" stroke-miterlimit="10" stroke-dasharray="" stroke-dashoffset="0" font-family="Sans Serif" font-weight="normal" text-anchor="start" style="mix-blend-mode: normal"><tspan x="0" dy="0">Code</tspan></text><text transform="translate(195.97717,22.58054) scale(0.29902,0.29902)" font-size="40" xml:space="preserve" fill="#bbbbbb" fill-rule="nonzero" stroke="none" stroke-width="1" stroke-linecap="butt" stroke-linejoin="miter" stroke-miterlimit="10" stroke-dasharray="" stroke-dashoffset="0" font-family="Sans Serif" font-weight="normal" text-anchor="start" style="mix-blend-mode: normal"><tspan x="0" dy="0">Refactor</tspan></text><text transform="translate(248.46732,22.58054) scale(0.29902,0.29902)" font-size="40" xml:space="preserve" fill="#bbbbbb" fill-rule="nonzero" stroke="none" stroke-width="1" stroke-linecap="butt" stroke-linejoin="miter" stroke-miterlimit="10" stroke-dasharray="" stroke-dashoffset="0" font-family="Sans Serif" font-weight="normal" text-anchor="start" style="mix-blend-mode: normal"><tspan x="0" dy="0">Run</tspan></text><text transform="translate(274.8322,22.58054) scale(0.29902,0.29902)" font-size="40" xml:space="preserve" fill="#bbbbbb" fill-rule="nonzero" stroke="none" stroke-width="1" stroke-linecap="butt" stroke-linejoin="miter" stroke-miterlimit="10" stroke-dasharray="" stroke-dashoffset="0" font-family="Sans Serif" font-weight="normal" text-anchor="start" style="mix-blend-mode: normal"><tspan x="0" dy="0">Tools</tspan></text><text transform="translate(308.38755,22.58054) scale(0.29902,0.29902)" font-size="40" xml:space="preserve" fill="#bbbbbb" fill-rule="nonzero" stroke="none" stroke-width="1" stroke-linecap="butt" stroke-linejoin="miter" stroke-miterlimit="10" stroke-dasharray="" stroke-dashoffset="0" font-family="Sans Serif" font-weight="normal" text-anchor="start" style="mix-blend-mode: normal"><tspan x="0" dy="0">VCS</tspan></text><text transform="translate(335.37864,22.58054) scale(0.29902,0.29902)" font-size="40" xml:space="preserve" fill="#bbbbbb" fill-rule="nonzero" stroke="none" stroke-width="1" stroke-linecap="butt" stroke-linejoin="miter" stroke-miterlimit="10" stroke-dasharray="" stroke-dashoffset="0" font-family="Sans Serif" font-weight="normal" text-anchor="start" style="mix-blend-mode: normal"><tspan x="0" dy="0">Window</tspan></text><text transform="translate(387.20156,22.58054) scale(0.29902,0.29902)" font-size="40" xml:space="preserve" fill="#bbbbbb" fill-rule="nonzero" stroke="none" stroke-width="1" stroke-linecap="butt" stroke-linejoin="miter" stroke-miterlimit="10" stroke-dasharray="" stroke-dashoffset="0" font-family="Sans Serif" font-weight="normal" text-anchor="start" style="mix-blend-mode: normal"><tspan x="0" dy="0">Help</tspan></text><path d="M19.27928,320.21943c0,-56.8832 0,-214.93774 0,-246.81433c0,-10.94999 8.1399,-21.03273 18.1785,-21.03273c41.48779,0 322.40148,0 402.17618,0c13.36698,0 21.08677,7.99412 21.08677,21.22787c0,56.3254 0,207.56768 0,241.35091c0,13.05474 -8.43405,25.70951 -22.93749,25.70951c-82.46393,0 -361.14267,0 -401.38301,0c-9.50475,0 -17.12094,-7.67117 -17.12094,-20.44122z" fill="none" stroke="#bbbbbb" stroke-width="2.5" stroke-linecap="butt"/><text transform="translate(39.38282,183.28472) scale(1.01671,1.01671)" font-size="40" xml:space="preserve" fill="#bbbbbb" fill-rule="nonzero" stroke="none" stroke-width="1" stroke-linecap="butt" stroke-linejoin="miter" stroke-miterlimit="10" stroke-dasharray="" stroke-dashoffset="0" font-family="Sans Serif" font-weight="normal" text-anchor="start" style="mix-blend-mode: normal"><tspan x="0" dy="0">Помогает обходить</tspan><tspan x="0" dy="46.150000000000006px"> защиту от взломов</tspan></text></g></g></svg>