<svg version="1.1" xmlns="http://www.w3.org/2000/svg" xmlns:xlink="http://www.w3.org/1999/xlink" width="84.50868" height="80.40848" viewBox="0,0,84.50868,80.40848"><g transform="translate(2.73611,-289.71653)"><g data-paper-data="{&quot;isPaintingLayer&quot;:true}" fill-rule="nonzero" stroke-width="1" stroke-linejoin="miter" stroke-miterlimit="10" stroke-dasharray="" stroke-dashoffset="0" style="mix-blend-mode: normal"><path d="M34.26389,330.80557h-36.5v-11.86111h36.5z" fill="#092903" stroke="#3aff13" stroke-linecap="butt"/><path d="M39.69444,369.62502v-34.5h11.86111v34.5z" fill="#092903" stroke="#3aff13" stroke-linecap="butt"/><path d="M32.08603,337.61203v-25.36201l10.41397,-13.38799l19.63106,-0.78431l-3.80858,13.12252l13.69003,-4.45291l-1.17647,20.24313l-13.28818,10.62158z" fill="#092903" stroke="#3aff13" stroke-linecap="butt"/><path d="M58.18901,323.78951l-6.08665,-3.05172l-6.45881,3.05172l3.12616,-6.38437l-3.12616,-6.16108l6.23551,2.94008l6.30995,-2.94008l-3.53554,6.1983z" fill="#35ff12" stroke="#3aff13" stroke-linecap="butt"/><path d="M57.45,337.59446l-12.65115,-12.81869l-12.45996,-12.29242l-4.08837,-10.31186l10.81197,-11.53846l3.38751,8.51698l16.08889,12.31111l11.91111,15.68889l10.19834,1.26953l-14.31373,13.33333z" fill="none" stroke="#3aff13" stroke-linecap="round"/></g></g></svg>