<svg version="1.1" xmlns="http://www.w3.org/2000/svg" xmlns:xlink="http://www.w3.org/1999/xlink" width="617.24401" height="463.10825" viewBox="0,0,617.24401,463.10825"><g transform="translate(90.14276,50.30723)"><g data-paper-data="{&quot;isPaintingLayer&quot;:true}" fill-rule="nonzero" stroke-linejoin="miter" stroke-miterlimit="10" stroke-dasharray="" stroke-dashoffset="0" style="mix-blend-mode: normal"><g fill-opacity="0.30196" fill="#00c8ff" stroke="none" stroke-width="0" stroke-linecap="butt"><path d="M380.42074,99.59551h3.74693v47.88072h-3.74693z"/><path d="M358.35384,134.4504v-3.74693h22.07727v3.74693z"/><path d="M406.20968,130.7035v3.74693h-22.04474v-3.74693z"/></g><g fill-opacity="0.30196" fill="#00c8ff" stroke="none" stroke-width="0" stroke-linecap="butt"><path d="M126.31745,212.70611v-3.74693h32.49011v3.74693z"/><path d="M145.78177,234.773h-3.74693v-22.07727h3.74693z"/><path d="M142.03483,186.91716h3.74693v22.04474h-3.74693z"/></g><g fill-opacity="0.30196" fill="#00c8ff" stroke="none" stroke-width="0" stroke-linecap="butt"><path d="M423.34311,158.69091v-3.74693h44.90645v3.74693z"/><path d="M458.19803,180.75782h-3.74693v-22.07727h3.74693z"/><path d="M454.45109,132.90196h3.74693v22.04474h-3.74693z"/></g><g fill-opacity="0.30196" fill="#00c8ff" stroke="none" stroke-width="0" stroke-linecap="butt"><path d="M420.42616,188.68776v3.74693h-48.41391v-3.74693z"/><path d="M385.57126,166.62087h3.74693v22.07727h-3.74693z"/><path d="M389.31819,214.47671h-3.74693v-22.04474h3.74693z"/></g><path d="M405.11357,230.10554v43.14512h-29.12776v-43.14512z" fill-opacity="0.30196" fill="#00c8ff" stroke="none" stroke-width="0" stroke-linecap="butt"/><path d="M196.37341,219.70537h-3.74693v-51.21212h3.74693z" fill-opacity="0.30196" fill="#00c8ff" stroke="none" stroke-width="0" stroke-linecap="butt"/><path d="M178.13232,74.59705v3.74693h-42.26475v-3.74693z" fill-opacity="0.30196" fill="#00c8ff" stroke="none" stroke-width="0" stroke-linecap="butt"/><path d="M192.38764,96.61834v3.74693h-21.3073v-3.74693z" fill-opacity="0.30196" fill="#00c8ff" stroke="none" stroke-width="0" stroke-linecap="butt"/><path d="M144.30253,96.61834v3.74693h-19.28603v-3.74693z" fill-opacity="0.30196" fill="#00c8ff" stroke="none" stroke-width="0" stroke-linecap="butt"/><path d="M221.2693,248.89455h-3.74693v-29.12776h3.74693z" fill-opacity="0.30196" fill="#00c8ff" stroke="none" stroke-width="0" stroke-linecap="butt"/><path d="M365.11357,317.0037v3.74693h-29.12776v-3.74693z" fill-opacity="0.30196" fill="#00c8ff" stroke="none" stroke-width="0" stroke-linecap="butt"/><path d="M441.95568,304.10893v3.74693h-22.54881v-3.74693z" fill-opacity="0.30196" fill="#00c8ff" stroke="none" stroke-width="0" stroke-linecap="butt"/><path d="M477.48198,310.42476v3.74693h-22.54881v-3.74693z" fill-opacity="0.30196" fill="#00c8ff" stroke="none" stroke-width="0" stroke-linecap="butt"/><path d="M426.95568,272.53004v3.74693h-22.54881v-3.74693z" fill-opacity="0.30196" fill="#00c8ff" stroke="none" stroke-width="0" stroke-linecap="butt"/><path d="M304.176,310.7537v3.74693h-17.76412v-3.74693z" fill-opacity="0.30196" fill="#00c8ff" stroke="none" stroke-width="0" stroke-linecap="butt"/><path d="M292.24422,292.0037v3.74693h-17.76412v-3.74693z" fill-opacity="0.30196" fill="#00c8ff" stroke="none" stroke-width="0" stroke-linecap="butt"/><path d="M275.30055,248.89455h-3.74693v-25.66479l-21.03651,-0.03379l-0.04608,-3.42917h24.82952z" fill-opacity="0.30196" fill="#00c8ff" stroke="none" stroke-width="0" stroke-linecap="butt"/><path d="M61.48292,134.52607v-32.60186h34.19999v32.60186z" fill-opacity="0.30196" fill="#00c8ff" stroke="none" stroke-width="0" stroke-linecap="butt"/><path d="M252.61935,156.8999v-49.22242h50.82055v49.22242z" fill-opacity="0.30196" fill="#00c8ff" stroke="none" stroke-width="0" stroke-linecap="butt"/><path d="M45.50162,358.48229v-72.2355h32.28224v72.2355z" fill-opacity="0.30196" fill="#00c8ff" stroke="none" stroke-width="0" stroke-linecap="butt"/><path d="M404.76138,221.14482v-30.36448h73.83363v30.36448z" fill-opacity="0.30196" fill="#00c8ff" stroke="none" stroke-width="0" stroke-linecap="butt"/><path d="M218.09972,285.51509v-35.44999h54.65607v35.44999z" fill-opacity="0.30196" fill="#00c8ff" stroke="none" stroke-width="0" stroke-linecap="butt"/><path d="M228.45081,120.55772h-103.10142v-2.31493h103.10142z" fill="#00c9ff" stroke="#00c9ff" stroke-width="1.5" stroke-linecap="butt"/><path d="" data-paper-data="{&quot;index&quot;:null}" fill="#0a00ff" stroke="#0a00ff" stroke-width="1.5" stroke-linecap="butt"/><path d="M228.65083,43.55769h-134.38713v-2.31493h134.38713z" fill="#00c9ff" stroke="#00c9ff" stroke-width="1.5" stroke-linecap="butt"/><path d="M226.2494,157.8528v-116.31285h2.31493v116.31285z" fill="#00c9ff" stroke="#00c9ff" stroke-width="1.5" stroke-linecap="butt"/><path d="M251.29699,157.69181v-116.31285h2.31493v116.31285z" fill="#00c9ff" stroke="#00c9ff" stroke-width="1.5" stroke-linecap="butt"/><path d="M286.45072,-47.2423h-92.90142v-2.31493h92.90142z" fill="#00c9ff" stroke="#00c9ff" stroke-width="1.5" stroke-linecap="butt"/><path d="M195.75757,-49.45046v92.90142h-2.31493v-92.90142z" fill="#00c9ff" stroke="#00c9ff" stroke-width="1.5" stroke-linecap="butt"/><path d="M286.55746,-49.45046v92.90142h-2.31493v-92.90142z" fill="#00c9ff" stroke="#00c9ff" stroke-width="1.5" stroke-linecap="butt"/><path d="M479.16511,43.55769h-227.41571v-2.31493h227.41571z" fill="#00c9ff" stroke="#00c9ff" stroke-width="1.5" stroke-linecap="butt"/><path d="M228.45081,157.95766h-35.30142v-2.31493h35.30142z" fill="#00c9ff" stroke="#00c9ff" stroke-width="1.5" stroke-linecap="butt"/><path d="M161.75752,118.34952v68.90142h-2.31493v-68.90142z" fill="#00c9ff" stroke="#00c9ff" stroke-width="1.5" stroke-linecap="butt"/><path d="M228.45081,187.1578h-68.90142v-2.31493h68.90142z" fill="#00c9ff" stroke="#00c9ff" stroke-width="1.5" stroke-linecap="butt"/><path d="M94.11606,71.65391v-30.11394h2.31493v30.11394z" fill="#00c9ff" stroke="#00c9ff" stroke-width="1.5" stroke-linecap="butt"/><path d="M125.31606,212.11484v-151.77475h2.31493v151.77475z" fill="#00c9ff" stroke="#00c9ff" stroke-width="1.5" stroke-linecap="butt"/><path d="M155.74458,101.9958v-59.65571h2.31493v59.65571z" fill="#00c9ff" stroke="#00c9ff" stroke-width="1.5" stroke-linecap="butt"/><path d="M190.81606,118.9958v-76.5307h2.31493v76.53071z" fill="#00c9ff" stroke="#00c9ff" stroke-width="1.5" stroke-linecap="butt"/><path d="M94.11606,211.88177v-110.74158h2.31493v110.74158z" fill="#00c9ff" stroke="#00c9ff" stroke-width="1.5" stroke-linecap="butt"/><path d="M96.45082,103.1577h-35.10142v-2.31493h35.10142z" fill="#00c9ff" stroke="#00c9ff" stroke-width="1.5" stroke-linecap="butt"/><path d="M96.45082,43.55769h-95.28142v-2.31493h95.28142z" fill="#00c9ff" stroke="#00c9ff" stroke-width="1.5" stroke-linecap="butt"/><path d="M61.31606,250.33874v-208.59856h2.31493v208.59856z" fill="#00c9ff" stroke="#00c9ff" stroke-width="1.5" stroke-linecap="butt"/><path d="M96.45082,250.43873h-35.10142v-2.31493h35.10142z" fill="#00c9ff" stroke="#00c9ff" stroke-width="1.5" stroke-linecap="butt"/><path d="M319.49834,80.80751h-66.64904v-2.31493h66.64904z" fill="#00c9ff" stroke="#00c9ff" stroke-width="1.5" stroke-linecap="butt"/><path d="M381.15414,109.27914v-67.90015h2.31493v67.90016z" fill="#00c9ff" stroke="#00c9ff" stroke-width="1.5" stroke-linecap="butt"/><path d="M451.6294,80.80751h-103.70857v-2.31493h103.70857z" fill="#00c9ff" stroke="#00c9ff" stroke-width="1.5" stroke-linecap="butt"/><path d="M125.31606,358.92004v-74.50844h2.31493v74.50844z" fill="#00c9ff" stroke="#00c9ff" stroke-width="1.5" stroke-linecap="butt"/><path d="M305.32572,250.43868h-145.97642v-2.31493h145.97642z" fill="#00c9ff" stroke="#00c9ff" stroke-width="1.5" stroke-linecap="butt"/><path d="M1.02796,359.18874v-2.31493h336.63996l-0.01022,2.31493z" fill="#00c9ff" stroke="#00c9ff" stroke-width="1.5" stroke-linecap="butt"/><path d="M479.20082,359.18874h-104.4048l0.00754,-2.31493h104.39726z" fill="#00c9ff" stroke="#00c9ff" stroke-width="1.5" stroke-linecap="butt"/><path d="M1.17311,357.67207v-164.61838l2.31493,0.00661v164.61176z" fill="#00c9ff" stroke="#00c9ff" stroke-width="1.5" stroke-linecap="butt"/><path d="M1.17311,41.74008h2.31493v125.35942c-0.77165,0.00013 -1.54331,0.00334 -2.31493,0.00958z" fill="#00c9ff" stroke="#00c9ff" stroke-width="1.5" stroke-linecap="butt"/><path d="M44.72377,359.30754v-73.75392h2.31493v73.75392z" fill="#00c9ff" stroke="#00c9ff" stroke-width="1.5" stroke-linecap="butt"/><path d="M79.77214,286.66544h-35.04343v-2.31493h35.04343z" fill="#00c9ff" stroke="#00c9ff" stroke-width="1.5" stroke-linecap="butt"/><path d="M77.46358,359.77717v-73.86363h2.31493v73.86363z" fill="#00c9ff" stroke="#00c9ff" stroke-width="1.5" stroke-linecap="butt"/><path d="M30.8994,250.67198v-55.59856h2.31493v55.59856z" fill="#00c9ff" stroke="#00c9ff" stroke-width="1.5" stroke-linecap="butt"/><path d="M96.45082,135.49088h-35.10142v-2.31493h35.10142z" fill="#00c9ff" stroke="#00c9ff" stroke-width="1.5" stroke-linecap="butt"/><path d="M33.2722,195.35533h-32.09212c0.00496,-0.77154 0.00721,-1.54314 0.00823,-2.31493h32.08389z" fill="#00c9ff" stroke="#00c9ff" stroke-width="1.5" stroke-linecap="butt"/><path d="M31.03231,166.58848v-85.76523h2.31493v85.76523z" data-paper-data="{&quot;index&quot;:null}" fill="#00c9ff" stroke="#00c9ff" stroke-width="1.5" stroke-linecap="butt"/><path d="M30.9744,78.7904h32.04785v2.31493h-32.04785z" data-paper-data="{&quot;index&quot;:null}" fill="#00c9ff" stroke="#00c9ff" stroke-width="1.5" stroke-linecap="butt"/><path d="M477.67322,357.67207v-168.2101l2.31493,-0.0203v168.23041z" fill="#00c9ff" stroke="#00c9ff" stroke-width="1.5" stroke-linecap="butt"/><path d="M477.67322,41.74017h2.31493v116.3031l-2.31493,-0.02031z" fill="#00c9ff" stroke="#00c9ff" stroke-width="1.5" stroke-linecap="butt"/><path d="M221.82581,286.65756h-96.51253v-2.31493h96.51253z" fill="#00c9ff" stroke="#00c9ff" stroke-width="1.5" stroke-linecap="butt"/><path d="M221.82581,322.05755h-96.40142v-2.31493h96.40142z" fill="#00c9ff" stroke="#00c9ff" stroke-width="1.5" stroke-linecap="butt"/><path d="M303.16238,322.44795v-91.8079h2.31493v91.8079z" fill="#00c9ff" stroke="#00c9ff" stroke-width="1.5" stroke-linecap="butt"/><path d="M272.1855,322.44795v-74.05236h2.31493v74.05236z" fill="#00c9ff" stroke="#00c9ff" stroke-width="1.5" stroke-linecap="butt"/><path d="M221.55037,284.34263h51.21467v2.31493h-51.21467z" fill="#00c9ff" stroke="#00c9ff" stroke-width="1.5" stroke-linecap="butt"/><path d="M437.84604,157.95766h-186.59293v-2.31493h186.59293z" fill="#00c9ff" stroke="#00c9ff" stroke-width="1.5" stroke-linecap="butt"/><path d="M303.16238,191.68024v-85.07178h2.31493v85.07179z" fill="#00c9ff" stroke="#00c9ff" stroke-width="1.5" stroke-linecap="butt"/><path d="M304.44597,108.92592h-53.19293v-2.31493h53.19293z" fill="#00c9ff" stroke="#00c9ff" stroke-width="1.5" stroke-linecap="butt"/><path d="M477.22941,109.60768h-35.10857v-2.31493h35.10857z" fill="#00c9ff" stroke="#00c9ff" stroke-width="1.5" stroke-linecap="butt"/><path d="M361.09605,191.70773h-57.84293v-2.31493h57.84293z" fill="#00c9ff" stroke="#00c9ff" stroke-width="1.5" stroke-linecap="butt"/><path d="M477.76273,191.70773h-73.84293v-2.31493h73.84293z" fill="#00c9ff" stroke="#00c9ff" stroke-width="1.5" stroke-linecap="butt"/><path d="M477.76273,222.45775h-73.84293v-2.31493h73.84293z" fill="#00c9ff" stroke="#00c9ff" stroke-width="1.5" stroke-linecap="butt"/><path d="M403.90788,322.55093v-131.90542h2.31493v131.90542z" fill="#00c9ff" stroke="#00c9ff" stroke-width="1.5" stroke-linecap="butt"/><path d="M477.76273,259.12424h-34.31793v-2.31493h34.31793z" fill="#00c9ff" stroke="#00c9ff" stroke-width="1.5" stroke-linecap="butt"/><path d="M440.50787,322.75095v-65.90542h2.31493v65.90542z" fill="#00c9ff" stroke="#00c9ff" stroke-width="1.5" stroke-linecap="butt"/><path d="M337.49872,304.74595v52.49195h-2.31493v-52.49195z" fill="#00c9ff" stroke="#00c9ff" stroke-width="1.5" stroke-linecap="butt"/><path d="M374.7811,357.15109v-52.49195h2.31493v52.49195z" fill="#00c9ff" stroke="#00c9ff" stroke-width="1.5" stroke-linecap="butt"/><path d="M218.06055,286.32295v-37.92736h2.31493v37.92736z" fill="#00c9ff" stroke="#00c9ff" stroke-width="1.5" stroke-linecap="butt"/><path d="M192.20025,119.63154v-77.01151h34.69208v77.01151z" fill-opacity="0.30196" fill="#00c8ff" stroke="none" stroke-width="NaN" stroke-linecap="butt"/><text transform="translate(216.48611,116.1756) rotate(-90) scale(0.47057,0.47057)" font-size="40" xml:space="preserve" fill="#00c9ff" fill-rule="nonzero" stroke="none" stroke-width="1" stroke-linecap="butt" stroke-linejoin="miter" stroke-miterlimit="10" stroke-dasharray="" stroke-dashoffset="0" font-family="Sans Serif" font-weight="normal" text-anchor="start" style="mix-blend-mode: normal"><tspan x="0" dy="0">&lt;/html&gt;</tspan></text><text transform="translate(222.25487,277.66162) scale(0.79285,0.79285)" font-size="40" xml:space="preserve" fill="#00c8ff" fill-rule="nonzero" stroke="none" stroke-width="1" stroke-linecap="butt" stroke-linejoin="miter" stroke-miterlimit="10" stroke-dasharray="" stroke-dashoffset="0" font-family="Sans Serif" font-weight="normal" text-anchor="start" style="mix-blend-mode: normal"><tspan x="0" dy="0">&lt;/&gt;</tspan></text><text transform="translate(414.98943,213.07631) scale(0.58986,0.58986)" font-size="40" xml:space="preserve" fill="#00c8ff" fill-rule="nonzero" stroke="none" stroke-width="1" stroke-linecap="butt" stroke-linejoin="miter" stroke-miterlimit="10" stroke-dasharray="" stroke-dashoffset="0" font-family="Sans Serif" font-weight="normal" text-anchor="start" style="mix-blend-mode: normal"><tspan x="0" dy="0">JSON</tspan></text><text transform="translate(67.11246,356.17282) rotate(-90) scale(0.45144,0.45144)" font-size="40" xml:space="preserve" fill="#00c9ff" fill-rule="nonzero" stroke="none" stroke-width="1" stroke-linecap="butt" stroke-linejoin="miter" stroke-miterlimit="10" stroke-dasharray="" stroke-dashoffset="0" font-family="Sans Serif" font-weight="normal" text-anchor="start" style="mix-blend-mode: normal"><tspan x="0" dy="0">student</tspan></text><text transform="translate(256.77441,140.37313) scale(0.63038,0.63038)" font-size="40" xml:space="preserve" fill="#00c8ff" fill-rule="nonzero" stroke="none" stroke-width="1" stroke-linecap="butt" stroke-linejoin="miter" stroke-miterlimit="10" stroke-dasharray="" stroke-dashoffset="0" font-family="Sans Serif" font-weight="normal" text-anchor="start" style="mix-blend-mode: normal"><tspan x="0" dy="0">404</tspan></text><text transform="translate(66.59688,132.95695) scale(1.05155,1.05155)" font-size="40" xml:space="preserve" fill="#00c8ff" fill-rule="nonzero" stroke="none" stroke-width="1" stroke-linecap="butt" stroke-linejoin="miter" stroke-miterlimit="10" stroke-dasharray="" stroke-dashoffset="0" font-family="Sans Serif" font-weight="normal" text-anchor="start" style="mix-blend-mode: normal"><tspan x="0" dy="0">+</tspan></text><g stroke-linecap="butt"><path d="M377.09605,232.95775h-41.84293v-2.31493h41.84293z" fill="#00c9ff" stroke="#00c9ff" stroke-width="1.5"/><path d="M374.7811,272.48555v-41.84293h2.31493v41.84293z" fill="#00c9ff" stroke="#00c9ff" stroke-width="1.5"/><g><path d="M337.00066,270.49271v-38.35513h39.95326v38.35513z" fill-opacity="0.30196" fill="#00c8ff" stroke="none" stroke-width="0"/><path d="M337.49872,230.71214v41.84293h-2.31493v-41.84293z" fill="#00c9ff" stroke="#00c9ff" stroke-width="1.5"/><path d="M335.1837,270.24006h41.84293v2.31493h-41.84293z" fill="#00c9ff" stroke="#00c9ff" stroke-width="1.5"/><text transform="translate(342.75393,262.2936) scale(0.712,0.712)" font-size="40" xml:space="preserve" fill="#00c9ff" fill-rule="nonzero" stroke="none" stroke-width="1" stroke-linecap="butt" stroke-linejoin="miter" stroke-miterlimit="10" stroke-dasharray="" stroke-dashoffset="0" font-family="Sans Serif" font-weight="normal" text-anchor="start" style="mix-blend-mode: normal"><tspan x="0" dy="0">Id</tspan></text></g></g><path d="M-87.89275,10.60721l-2,10" fill="none" stroke-opacity="0.01569" stroke="#009cff" stroke-width="0.5" stroke-linecap="round"/><path d="M229.14572,169.74335h-3.74693v-14.75828h3.74693z" data-paper-data="{&quot;index&quot;:null}" fill-opacity="0.30196" fill="#00c8ff" stroke="none" stroke-width="0" stroke-linecap="butt"/><path d="M275.38714,188.03921h-3.74693v-32.51486h3.74693z" fill-opacity="0.30196" fill="#00c8ff" stroke="none" stroke-width="0" stroke-linecap="butt"/><path d="M344.52723,106.00586v3.74693h-47.88072v-3.74693z" fill-opacity="0.30196" fill="#00c8ff" stroke="none" stroke-width="0" stroke-linecap="butt"/><path d="M338.97691,176.75715h-3.74693v-21.23281h3.74693z" fill-opacity="0.30196" fill="#00c8ff" stroke="none" stroke-width="0" stroke-linecap="butt"/><path d="M352.43846,192.14177h-3.74693v-21.23281h3.74693z" fill-opacity="0.30196" fill="#00c8ff" stroke="none" stroke-width="0" stroke-linecap="butt"/><path d="M124.50673,251.19548v-3.77991h34.46211v3.77991z" fill-opacity="0.30196" fill="#00c8ff" stroke="none" stroke-width="0" stroke-linecap="butt"/><path d="M125.22431,283.61942v3.8h-17.89825l-0.02663,-3.8z" fill-opacity="0.30196" fill="#00c8ff" stroke="none" stroke-width="0" stroke-linecap="butt"/><path d="M80.35764,287.41941v-3.8h16.83956l-0.02663,3.8z" fill-opacity="0.30196" fill="#00c8ff" stroke="none" stroke-width="0" stroke-linecap="butt"/><path d="M208.25939,286.24397h3.8v13.69908l-3.8,0.02038z" fill-opacity="0.30196" fill="#00c8ff" stroke="none" stroke-width="0" stroke-linecap="butt"/><path d="M171.56449,286.24397h3.8v13.69908l-3.8,0.02038z" fill-opacity="0.30196" fill="#00c8ff" stroke="none" stroke-width="0" stroke-linecap="butt"/><path d="M212.0594,320.5843h-3.8v-12.88878l3.8,0.02038z" fill-opacity="0.30196" fill="#00c8ff" stroke="none" stroke-width="0" stroke-linecap="butt"/><path d="M175.36449,320.5843h-3.8v-12.88878l3.8,0.02038z" fill-opacity="0.30196" fill="#00c8ff" stroke="none" stroke-width="0" stroke-linecap="butt"/><path d="M14.60764,297.91941v-3.8h30.08956l-0.04758,3.8z" fill-opacity="0.30196" fill="#00c8ff" stroke="none" stroke-width="0" stroke-linecap="butt"/><path d="M3.60764,315.66941v-3.8h31.08956l-0.04916,3.8z" fill-opacity="0.30196" fill="#00c8ff" stroke="none" stroke-width="0" stroke-linecap="butt"/><path d="M97.13983,300.57728v-3.8h10.15639l-0.01606,3.8z" fill-opacity="0.30196" fill="#00c8ff" stroke="none" stroke-width="0" stroke-linecap="butt"/><path d="M4.10762,251.31913v-3.8h7.63953l0.01137,3.8z" fill-opacity="0.30196" fill="#00c8ff" stroke="none" stroke-width="0" stroke-linecap="butt"/><path d="M30.55765,247.51913v3.8h-8.4479l0.01336,-3.8z" fill-opacity="0.30196" fill="#00c8ff" stroke="none" stroke-width="0" stroke-linecap="butt"/><path d="M30.1714,248.47387h3.8v18.93971l-3.8,-0.02995z" fill-opacity="0.30196" fill="#00c8ff" stroke="none" stroke-width="0" stroke-linecap="butt"/><path d="M21.72585,233.86943v3.8h-8.88213l0.01404,-3.8z" fill-opacity="0.30196" fill="#00c8ff" stroke="none" stroke-width="0" stroke-linecap="butt"/><path d="M64.38445,267.48753h-3.8v-16.83956l3.8,0.02663z" fill-opacity="0.30196" fill="#00c8ff" stroke="none" stroke-width="0" stroke-linecap="butt"/><path d="M61.0272,247.29077v3.8h-16.83956l0.02663,-3.8z" fill-opacity="0.30196" fill="#00c8ff" stroke="none" stroke-width="0" stroke-linecap="butt"/><path d="M61.0272,209.66781v3.8h-16.83956l0.02663,-3.8z" fill-opacity="0.30196" fill="#00c8ff" stroke="none" stroke-width="0" stroke-linecap="butt"/><path d="M81.02715,197.33447v3.8h-16.83956l0.02663,-3.8z" fill-opacity="0.30196" fill="#00c8ff" stroke="none" stroke-width="0" stroke-linecap="butt"/><path d="M95.36052,178.00114v3.8h-16.83956l0.02663,-3.8z" fill-opacity="0.30196" fill="#00c8ff" stroke="none" stroke-width="0" stroke-linecap="butt"/><path d="M118.21238,178.00114v3.8h-14.24697l0.02253,-3.8z" fill-opacity="0.30196" fill="#00c8ff" stroke="none" stroke-width="0" stroke-linecap="butt"/><path d="M118.21238,141.70479v3.8h-14.24697l0.02253,-3.8z" fill-opacity="0.30196" fill="#00c8ff" stroke="none" stroke-width="0" stroke-linecap="butt"/><path d="M118.21238,100.40855v3.8h-14.24697l0.02253,-3.8z" fill-opacity="0.30196" fill="#00c8ff" stroke="none" stroke-width="0" stroke-linecap="butt"/><path d="M50.69932,230.07764v3.8h-16.83956l0.02663,-3.8z" fill-opacity="0.30196" fill="#00c8ff" stroke="none" stroke-width="0" stroke-linecap="butt"/><path d="M50.69932,192.29074v3.8h-16.83956l0.02663,-3.8z" fill-opacity="0.30196" fill="#00c8ff" stroke="none" stroke-width="0" stroke-linecap="butt"/><path d="M53.8572,154.79074v3.8h-12.77257l0.0202,-3.8z" fill-opacity="0.30196" fill="#00c8ff" stroke="none" stroke-width="0" stroke-linecap="butt"/><path d="M34.01015,132.45434l0.0419,-3.8h6.94799l0.0187,3.8z" fill-opacity="0.30196" fill="#00c8ff" stroke="none" stroke-width="0" stroke-linecap="butt"/><path d="M60.93167,128.65437v3.8h-7.22441l-0.03511,-3.8z" fill-opacity="0.30196" fill="#00c8ff" stroke="none" stroke-width="0" stroke-linecap="butt"/><path d="M3.5238,86.94055v-3.8h16.83956l-0.02663,3.8z" data-paper-data="{&quot;index&quot;:null}" fill-opacity="0.30196" fill="#00c8ff" stroke="none" stroke-width="0" stroke-linecap="butt"/><path d="M3.5238,144.34609v-3.8h16.83956l-0.02663,3.8z" data-paper-data="{&quot;index&quot;:null}" fill-opacity="0.30196" fill="#00c8ff" stroke="none" stroke-width="0" stroke-linecap="butt"/><path d="M13.85166,106.76237v-3.8h16.83956l-0.02663,3.8z" data-paper-data="{&quot;index&quot;:null}" fill-opacity="0.30196" fill="#00c8ff" stroke="none" stroke-width="0" stroke-linecap="butt"/><path d="M13.85166,162.15795v-3.8h16.83956l-0.02663,3.8z" data-paper-data="{&quot;index&quot;:null}" fill-opacity="0.30196" fill="#00c8ff" stroke="none" stroke-width="0" stroke-linecap="butt"/><path d="M184.91816,286.61677h-3.8v-28.16445l3.8,-0.0419z" fill-opacity="0.30196" fill="#00c8ff" stroke="none" stroke-width="0" stroke-linecap="butt"/><path d="M203.07606,348.45891h-3.8v-28.16445l3.8,-0.0419z" fill-opacity="0.30196" fill="#00c8ff" stroke="none" stroke-width="0" stroke-linecap="butt"/><path d="M166.49705,360.30102h-3.8v-28.16445l3.8,-0.0419z" fill-opacity="0.30196" fill="#00c8ff" stroke="none" stroke-width="0" stroke-linecap="butt"/><path d="M158.62689,250.67518h3.8v18.86449l-3.8,-0.02983z" fill-opacity="0.30196" fill="#00c8ff" stroke="none" stroke-width="0" stroke-linecap="butt"/><path d="M126.5206,195.1009v3.8h-7.88268l-0.01173,-3.8z" fill-opacity="0.30196" fill="#00c8ff" stroke="none" stroke-width="0" stroke-linecap="butt"/><path d="M126.5206,158.80455v3.8h-7.88268l-0.01173,-3.8z" fill-opacity="0.30196" fill="#00c8ff" stroke="none" stroke-width="0" stroke-linecap="butt"/><path d="M126.5206,117.50831v3.8h-7.88268l-0.01173,-3.8z" fill-opacity="0.30196" fill="#00c8ff" stroke="none" stroke-width="0" stroke-linecap="butt"/><path d="M95.17246,198.90091v-3.8h9.17314l-0.01451,3.8z" fill-opacity="0.30196" fill="#00c8ff" stroke="none" stroke-width="0" stroke-linecap="butt"/><path d="M95.17246,162.60459v-3.8h9.17314l-0.01451,3.8z" fill-opacity="0.30196" fill="#00c8ff" stroke="none" stroke-width="0" stroke-linecap="butt"/><path d="M244.84281,128.88789v3.8h-8.8444l0.01399,-3.8z" fill-opacity="0.30196" fill="#00c8ff" stroke="none" stroke-width="0" stroke-linecap="butt"/><path d="M251.01,145.98765v3.8h-5.8513l-0.00871,-3.8z" fill-opacity="0.30196" fill="#00c8ff" stroke="none" stroke-width="0" stroke-linecap="butt"/><path d="M251.01,109.69136v3.8h-5.8513l-0.00871,-3.8z" fill-opacity="0.30196" fill="#00c8ff" stroke="none" stroke-width="0" stroke-linecap="butt"/><path d="M251.01,90.93776v3.8h-12.30343l-0.01831,-3.8z" fill-opacity="0.30196" fill="#00c8ff" stroke="none" stroke-width="0" stroke-linecap="butt"/><path d="M241.23584,64.9712v3.8h-13.66504l-0.02033,-3.8z" fill-opacity="0.30196" fill="#00c8ff" stroke="none" stroke-width="0" stroke-linecap="butt"/><path d="M227.74032,149.78767v-3.8h6.8092l-0.01077,3.8z" fill-opacity="0.30196" fill="#00c8ff" stroke="none" stroke-width="0" stroke-linecap="butt"/><path d="M227.74032,113.49137v-3.8h6.8092l-0.01077,3.8z" fill-opacity="0.30196" fill="#00c8ff" stroke="none" stroke-width="0" stroke-linecap="butt"/><path d="M95.17246,121.3083v-3.8h9.17314l-0.01451,3.8z" fill-opacity="0.30196" fill="#00c8ff" stroke="none" stroke-width="0" stroke-linecap="butt"/><path d="M422.77535,52.60335h3.8v17.57281l-3.8,-0.02779z" fill-opacity="0.30196" fill="#00c8ff" stroke="none" stroke-width="0" stroke-linecap="butt"/><path d="M439.87512,42.35564h3.8v9.72283l-3.8,0.01447z" fill-opacity="0.30196" fill="#00c8ff" stroke="none" stroke-width="0" stroke-linecap="butt"/><path d="M443.67511,81.02176h-3.8v-11.31453l3.8,0.0179z" fill-opacity="0.30196" fill="#00c8ff" stroke="none" stroke-width="0" stroke-linecap="butt"/><path d="M303.91884,251.1838v-3.86256h23.906v3.86256z" fill-opacity="0.30196" fill="#00c8ff" stroke="none" stroke-width="0" stroke-linecap="butt"/><path d="M458.96406,106.30078v3.74693h-47.88072v-3.74693z" fill-opacity="0.30196" fill="#00c8ff" stroke="none" stroke-width="0" stroke-linecap="butt"/><path d="M285.39725,81.65903v-3.74693h47.88072v3.74693z" fill-opacity="0.30196" fill="#00c8ff" stroke="none" stroke-width="0" stroke-linecap="butt"/><path d="M398.90345,106.30078v3.74693h-16.82011v-3.74693z" fill-opacity="0.30196" fill="#00c8ff" stroke="none" stroke-width="0" stroke-linecap="butt"/><path d="M424.10914,88.98388h3.74693v17.32727h-3.74693z" fill-opacity="0.30196" fill="#00c8ff" stroke="none" stroke-width="0" stroke-linecap="butt"/><path d="M320.25219,98.97592h-3.74693v-17.32727h3.74693z" fill-opacity="0.30196" fill="#00c8ff" stroke="none" stroke-width="0" stroke-linecap="butt"/><path d="M427.85608,132.08971h-3.74693v-22.04474h3.74693z" fill-opacity="0.30196" fill="#00c8ff" stroke="none" stroke-width="0" stroke-linecap="butt"/><path d="M316.50525,55.87008h3.74693v22.04474h-3.74692z" fill-opacity="0.30196" fill="#00c8ff" stroke="none" stroke-width="0" stroke-linecap="butt"/><path d="M289.39768,41.20301h3.74693v22.04474h-3.74692z" fill-opacity="0.30196" fill="#00c8ff" stroke="none" stroke-width="0" stroke-linecap="butt"/><path d="M483.09527,395.30102c0,9.66498 -1.86548,17.5 -4.16667,17.5c-2.30119,0 -4.16667,-7.83502 -4.16667,-17.5c0,-9.66498 1.86548,-17.5 4.16667,-17.5c2.30119,0 4.16667,7.83502 4.16667,17.5z" fill="none" stroke="#ff450a" stroke-width="0" stroke-linecap="butt"/><path d="M386.42859,391.9638v0z" fill="none" stroke="none" stroke-width="0" stroke-linecap="butt"/><path d="M522.10126,113.62189v-14h5v14z" fill-opacity="0.02353" fill="#00ff66" stroke="#00ff66" stroke-width="0" stroke-linecap="butt"/></g></g></svg>