<svg version="1.1" xmlns="http://www.w3.org/2000/svg" xmlns:xlink="http://www.w3.org/1999/xlink" width="24.88769" height="20.91429" viewBox="0,0,24.88769,20.91429"><g transform="translate(-229.54286,-169.54287)"><g data-paper-data="{&quot;isPaintingLayer&quot;:true}" fill-rule="nonzero" stroke="#ff450a" stroke-linecap="butt" stroke-linejoin="miter" stroke-miterlimit="10" stroke-dasharray="" stroke-dashoffset="0" style="mix-blend-mode: normal"><path d="M230.04287,189.95716v-19.91429h19.91429v19.91429z" fill="#0a0a0a" stroke-width="1"/><g fill="none" stroke-width="0.5"><g><path d="M235.94931,184.05071v-8.10139h8.10139v8.10139z"/><path d="M239.84307,188.94596l-8.78901,-8.78901l9.1029,-9.1029l8.78901,8.78901z"/></g><g><path d="M240.00001,185.72856l-5.72855,-5.72855l5.72855,-5.72855l5.72855,5.72855z"/><path d="M246.21478,186.43673h-12.42953v-12.87345h12.42953z"/></g></g><g fill="none" stroke-width="0.5"><g><path d="M234.6281,182.21895l3.15298,-7.59085l7.59085,3.15298l-3.15298,7.59085z"/><path d="M236.37129,188.32112l-4.81454,-11.65573l12.07199,-4.98649l4.81454,11.65573z"/></g><g><path d="M237.77052,185.36755l-3.13805,-7.59703l7.59703,-3.13805l3.13805,7.59703z"/><path d="M243.31802,188.44981l-11.64623,-4.83744l5.01021,-12.06217l11.64623,4.83744z"/></g></g><path d="M236.33333,180c0,-2.02504 1.64162,-3.66667 3.66667,-3.66667c2.02504,0 3.66667,1.64162 3.66667,3.66667c0,2.02504 -1.64162,3.66667 -3.66667,3.66667c-2.02504,0 -3.66667,-1.64162 -3.66667,-3.66667z" fill="#ff450a" stroke-width="0.5"/><ellipse cx="508.61111" cy="357.83333" transform="scale(0.5,0.5)" rx="0" ry="0" fill="#ff450a" stroke-width="0.5"/></g></g></svg>