<svg version="1.1" xmlns="http://www.w3.org/2000/svg" xmlns:xlink="http://www.w3.org/1999/xlink" width="484.96206" height="364.34287" viewBox="0,0,484.96206,364.34287"><defs><linearGradient x1="463.17328" y1="16.37149" x2="463.17328" y2="24.42135" gradientUnits="userSpaceOnUse" id="color-1"><stop offset="0" stop-color="#bb3aca"/><stop offset="1" stop-color="#833ae0"/></linearGradient><linearGradient x1="463.15428" y1="17.9913" x2="463.15428" y2="24.4606" gradientUnits="userSpaceOnUse" id="color-2"><stop offset="0" stop-color="#d195e7"/><stop offset="1" stop-color="#b68aed"/></linearGradient><linearGradient x1="55.57856" y1="55.49693" x2="70.89121" y2="55.49693" gradientTransform="translate(-329.71366,-341.22944) scale(5.93261,5.93261)" gradientUnits="userSpaceOnUse" id="color-3"><stop offset="0" stop-color="#484848"/><stop offset="1" stop-color="#484848"/></linearGradient><linearGradient x1="81.94429" y1="55.49689" x2="97.25697" y2="55.49689" gradientTransform="translate(-486.12598,-341.22944) scale(5.93261,5.93261)" gradientUnits="userSpaceOnUse" id="color-4"><stop offset="0" stop-color="#484848"/><stop offset="1" stop-color="#484848"/></linearGradient><linearGradient x1="182.88756" y1="55.49685" x2="198.20018" y2="55.49685" gradientTransform="translate(-1084.96117,-341.22944) scale(5.93261,5.93261)" gradientUnits="userSpaceOnUse" id="color-5"><stop offset="0" stop-color="#484848"/><stop offset="1" stop-color="#484848"/></linearGradient><linearGradient x1="239.38561" y1="55.49681" x2="254.69793" y2="55.49681" gradientTransform="translate(-1420.13019,-341.22944) scale(5.93261,5.93261)" gradientUnits="userSpaceOnUse" id="color-6"><stop offset="0" stop-color="#484848"/><stop offset="1" stop-color="#484848"/></linearGradient><linearGradient x1="136.93138" y1="55.49512" x2="171.25676" y2="55.49512" gradientTransform="translate(-812.35699,-341.22944) scale(5.93261,5.93261)" gradientUnits="userSpaceOnUse" id="color-7"><stop offset="0" stop-color="#484848"/><stop offset="1" stop-color="#484848"/></linearGradient><linearGradient x1="437.05955" y1="45.98856" x2="437.05955" y2="63.07779" gradientUnits="userSpaceOnUse" id="color-8"><stop offset="0" stop-color="#bb3aca"/><stop offset="1" stop-color="#833ae0"/></linearGradient><linearGradient x1="437.01924" y1="49.42732" x2="437.01924" y2="63.16114" gradientUnits="userSpaceOnUse" id="color-9"><stop offset="0" stop-color="#d195e7"/><stop offset="1" stop-color="#b68aed"/></linearGradient><radialGradient cx="240.12758" cy="179.88336" r="241.97137" gradientUnits="userSpaceOnUse" id="color-10"><stop offset="0" stop-color="#ffffff" stop-opacity="0"/><stop offset="1" stop-color="#ffffff" stop-opacity="0.30196"/></radialGradient></defs><g transform="translate(2.38632,2.17143)"><g data-paper-data="{&quot;isPaintingLayer&quot;:true}" stroke-miterlimit="10" stroke-dasharray="" stroke-dashoffset="0" style="mix-blend-mode: normal"><path d="M-1.84379,361.68815v-363.60958h483.94272v363.60958z" fill="#dee1e6" fill-rule="nonzero" stroke="none" stroke-width="0" stroke-linecap="butt" stroke-linejoin="miter"/><path d="M-2.32572,361.78653v-347.87263h1.37263l1.52707,-1.52488c0,0 -0.3251,-6.03859 0.2577,-8.04193c0.36594,-1.25788 2.90232,-2.56937 2.90232,-2.56937l79.72062,0.40374c0,0 2.57557,0.51002 2.92694,1.91573c0.47346,1.89415 -0.0905,8.67849 -0.0905,8.67849l1.47563,1.13824h394.19422v347.87264z" fill="#ffffff" fill-rule="nonzero" stroke="none" stroke-width="0" stroke-linecap="butt" stroke-linejoin="miter"/><g fill-rule="nonzero" stroke="none" stroke-linecap="butt" stroke-linejoin="miter"><path d="M4.87315,10.01269v-5.31679h5.63903v5.31679h-1.35337l-1.51447,1.28892l-1.48226,-1.28892z" fill="#622d7b" stroke-width="0"/><text transform="translate(6.07621,9.14562) scale(0.12357,0.12357)" font-size="40" xml:space="preserve" fill="#ffffff" fill-rule="nonzero" stroke="none" stroke-width="1" stroke-linecap="butt" stroke-linejoin="miter" stroke-miterlimit="10" stroke-dasharray="" stroke-dashoffset="0" font-family="Sans Serif" font-weight="normal" text-anchor="start" style="mix-blend-mode: normal"><tspan x="0" dy="0">А</tspan></text></g><text transform="translate(13.89495,10.14753) scale(0.14837,0.14837)" font-size="40" xml:space="preserve" fill="#000000" fill-rule="nonzero" stroke="none" stroke-width="1" stroke-linecap="butt" stroke-linejoin="miter" stroke-miterlimit="10" stroke-dasharray="" stroke-dashoffset="0" font-family="Sans Serif" font-weight="normal" text-anchor="start" style="mix-blend-mode: normal"><tspan x="0" dy="0">Главная</tspan></text><g fill="none" fill-rule="nonzero" stroke="#000000" stroke-width="0.5" stroke-linecap="round" stroke-linejoin="miter"><path d="M81.82975,9.44107l-2.76203,-2.76203"/><path d="M81.82975,6.67903l-2.76203,2.76204" data-paper-data="{&quot;index&quot;:null}"/></g><g fill="none" fill-rule="nonzero" stroke="#000000" stroke-width="0.5" stroke-linecap="round" stroke-linejoin="miter"><path d="M89.72057,7.89265h4.55712"/><path d="M91.99913,5.61411v4.55711" data-paper-data="{&quot;index&quot;:null}"/></g><path d="M475.85703,2.51144l-3.34792,3.34791" fill="none" fill-rule="nonzero" stroke="#000000" stroke-width="0.5" stroke-linecap="round" stroke-linejoin="miter"/><path d="M472.50911,2.51145l3.34792,3.34791" data-paper-data="{&quot;index&quot;:null}" fill="none" fill-rule="nonzero" stroke="#000000" stroke-width="0.5" stroke-linecap="round" stroke-linejoin="miter"/><path d="M455.88106,5.74777v-3.34791h3.34792v3.34793z" fill="none" fill-rule="nonzero" stroke="#000000" stroke-width="0.5" stroke-linecap="butt" stroke-linejoin="miter"/><path d="M439.81107,4.18541h3.34793" fill="none" fill-rule="nonzero" stroke="#000000" stroke-width="0.5" stroke-linecap="round" stroke-linejoin="miter"/><path d="M426.86586,2.73465l-2.00875,2.00875l-1.89716,-1.89715" fill="none" fill-rule="nonzero" stroke="#000000" stroke-width="0.5" stroke-linecap="round" stroke-linejoin="miter"/><path d="M3.81621,20.32431h4.21837" fill="none" fill-rule="nonzero" stroke="#5f6368" stroke-width="1" stroke-linecap="round" stroke-linejoin="miter"/><path d="M5.87526,22.68461l-2.25984,-2.25985l2.00875,-2.00875" fill="none" fill-rule="nonzero" stroke="#5f6368" stroke-width="1" stroke-linecap="round" stroke-linejoin="miter"/><g data-paper-data="{&quot;index&quot;:null}" fill="none" fill-rule="nonzero" stroke="#babcbe" stroke-width="1" stroke-linecap="round" stroke-linejoin="miter"><path d="M15.16568,20.32431h4.21837"/><path d="M17.57616,18.41599l2.00875,2.00875l-2.25984,2.25985"/></g><path d="M30.75585,21.0497c0,0 -0.263,1.46441 -1.79462,1.68798c-1.28206,0.18714 -2.84616,-0.78352 -2.85032,-2.1434c-0.00493,-1.61564 1.28576,-2.71508 2.40972,-2.67887c1.15949,0.03737 2.12364,1.23714 2.12364,1.23714" fill="none" fill-rule="nonzero" stroke="#5f6368" stroke-width="1" stroke-linecap="round" stroke-linejoin="miter"/><path d="M29.36091,20.04531l1.95295,-2.06455v2.06455z" fill="#5f6368" fill-rule="nonzero" stroke="#5f6368" stroke-width="0.5" stroke-linecap="butt" stroke-linejoin="miter"/><path d="M431.93264,20.71854c0,2.68105 -0.94039,5.02187 -7.03063,4.85448c-1.02573,-0.0282 -370.32114,-0.33498 -371.34352,-0.33538c-11.3691,0.29423 -16.01039,-0.18944 -16.01039,-4.18432c0,-2.31589 1.11982,-3.51972 2.09186,-4.1902c0.98692,-0.68074 1.85251,-0.81172 5.38121,-0.99861c0.90991,-0.0482 379.30313,-0.05589 380.21561,-0.00047c5.50964,0.33479 6.69584,2.17342 6.69584,4.85449z" fill="#f1f3f4" fill-rule="nonzero" stroke="none" stroke-width="0" stroke-linecap="butt" stroke-linejoin="miter"/><path d="M41.30075,22.11084v-2.69355h3.19575v2.69356z" fill="#5f6368" fill-rule="nonzero" stroke="none" stroke-width="0" stroke-linecap="butt" stroke-linejoin="miter"/><path d="M41.66597,19.32599c0,-0.68077 0.55186,-1.23264 1.23264,-1.23264c0.68077,0 1.23263,0.55187 1.23263,1.23264c0,0.68077 -0.55186,1.23264 -1.23263,1.23264c-0.68077,0 -1.23264,-0.55187 -1.23264,-1.23264z" fill="none" fill-rule="nonzero" stroke="#5f6368" stroke-width="0.5" stroke-linecap="butt" stroke-linejoin="miter"/><text transform="translate(48.25547,21.99297) scale(0.11544,0.11544)" font-size="40" xml:space="preserve" fill="#000000" fill-rule="nonzero" stroke="none" stroke-width="1" stroke-linecap="butt" stroke-linejoin="miter" stroke-miterlimit="10" stroke-dasharray="" stroke-dashoffset="0" font-family="Sans Serif" font-weight="normal" text-anchor="start" style="mix-blend-mode: normal"><tspan x="0" dy="0">learn.algoritmika.org</tspan></text><text transform="translate(95.2329,21.99297) scale(0.11545,0.11545)" font-size="40" xml:space="preserve" fill="#696a6c" fill-rule="nonzero" stroke="none" stroke-width="1" stroke-linecap="butt" stroke-linejoin="miter" stroke-miterlimit="10" stroke-dasharray="" stroke-dashoffset="0" font-family="Sans Serif" font-weight="normal" text-anchor="start" style="mix-blend-mode: normal"><tspan x="0" dy="0">/main</tspan></text><g fill-rule="nonzero" stroke="none" stroke-width="0" stroke-linecap="butt" stroke-linejoin="miter"><path d="M459.14835,20.3964c0,-2.22292 1.80202,-4.02493 4.02494,-4.02493c2.22292,0 4.02494,1.80202 4.02494,4.02493c0,2.22292 -1.80202,4.02494 -4.02494,4.02494c-2.22292,0 -4.02494,-1.80202 -4.02494,-4.02494z" fill="url(#color-1)"/><path d="M461.65046,19.21113c0.15133,-0.70028 0.77692,-1.21982 1.52248,-1.21982c0.74288,0 1.36408,0.51099 1.51824,1.20748c0.00833,0.03767 0.11142,-0.03026 0.24115,0.08081c0.11943,0.10226 0.11057,0.21481 0.11057,0.23354c0,0.01686 0.00373,0.15128 -0.10245,0.2393c-0.14589,0.12095 -0.23364,0.05273 -0.23963,0.08441c-0.0944,0.49949 -0.42769,0.94549 -0.87658,1.15283c-0.0107,0.00494 -0.06327,0.04386 -0.11723,0.12601c-0.06703,0.10206 -0.07107,0.24866 -0.07107,0.24866c0,0 0.51322,0.03401 0.89188,0.20173c0.34998,0.15502 0.56304,0.43782 0.66762,0.59484c0.0568,0.08528 0.18472,0.35768 0.27066,0.76784c0.02472,0.1179 0.06912,0.40347 0.11246,0.69599c0.0009,0.00607 -0.96837,0.78286 -2.30284,0.80661c-1.53834,0.02738 -2.53572,-0.81688 -2.53432,-0.82587c0.04772,-0.3042 0.09584,-0.60021 0.11959,-0.71419c0.0574,-0.27555 0.14126,-0.50486 0.18061,-0.56295c0.13407,-0.19796 0.17551,-0.46412 0.6588,-0.7211c0.41922,-0.22291 1.00651,-0.24083 1.00651,-0.24083c0,0 0.00444,-0.15043 -0.05998,-0.2503c-0.10127,-0.15699 -0.03688,-0.06227 -0.09265,-0.11616c-0.45246,-0.20681 -0.81556,-0.66296 -0.9097,-1.16565c-0.00257,-0.01375 -0.11014,0.03005 -0.24457,-0.08336c-0.1089,-0.09188 -0.09405,-0.2073 -0.09359,-0.23726c0.0002,-0.0137 -0.01126,-0.15001 0.11192,-0.24236c0.10111,-0.07582 0.23075,-0.05376 0.23214,-0.0602z" fill="url(#color-2)"/></g><path d="M473.77536,22.65358c0,-0.41603 0.33726,-0.75329 0.75329,-0.75329c0.41603,0 0.75329,0.33726 0.75329,0.75329c0,0.41603 -0.33726,0.75329 -0.75329,0.75329c-0.41603,0 -0.75329,-0.33726 -0.75329,-0.75329z" fill="#5f6368" fill-rule="nonzero" stroke="none" stroke-width="0.5" stroke-linecap="butt" stroke-linejoin="miter"/><path d="M473.77536,20.64482c0,-0.41603 0.33725,-0.75329 0.75329,-0.75329c0.41603,0 0.75329,0.33726 0.75329,0.75329c0,0.41603 -0.33724,0.75328 -0.75329,0.75328c-0.41603,0 -0.75329,-0.33725 -0.75329,-0.75328z" fill="#5f6368" fill-rule="nonzero" stroke="none" stroke-width="0.5" stroke-linecap="butt" stroke-linejoin="miter"/><path d="M473.77536,18.63608c0,-0.41603 0.33725,-0.75329 0.75329,-0.75329c0.41603,0 0.75329,0.33726 0.75329,0.75329c0,0.41603 -0.33724,0.75329 -0.75329,0.75329c-0.41603,0 -0.75329,-0.33726 -0.75329,-0.75329z" fill="#5f6368" fill-rule="nonzero" stroke="none" stroke-width="0.5" stroke-linecap="butt" stroke-linejoin="miter"/><path d="M449.0242,23.08635v-5.12232h5.22276v5.12232z" fill="#5f6368" fill-rule="nonzero" stroke="none" stroke-width="0" stroke-linecap="butt" stroke-linejoin="miter"/><path d="M450.02857,22.26422v-3.81662h2.10919v3.81662z" fill="#ffffff" fill-rule="nonzero" stroke="none" stroke-width="0" stroke-linecap="butt" stroke-linejoin="miter"/><path d="M437.70247,22.88018v-4.77078h4.77078v4.77078z" fill="#5f6368" fill-rule="nonzero" stroke="none" stroke-width="0" stroke-linecap="butt" stroke-linejoin="miter"/><path d="M-2.13632,361.92144v-324.07829h484.10869v324.07829z" fill="#ffffff" fill-rule="nonzero" stroke="#f1f3f4" stroke-width="0.5" stroke-linecap="butt" stroke-linejoin="miter"/><path d="M-2.06948,91.44078v-20.0875h484.10869v20.0875z" fill="#ffe3e5" fill-rule="nonzero" stroke="none" stroke-width="0" stroke-linecap="butt" stroke-linejoin="miter"/><path d="M3.53689,81.82852c0,-2.17336 1.76185,-3.93521 3.93521,-3.93521c2.17336,0 3.93521,1.76185 3.93521,3.93521c0,2.17336 -1.76185,3.93521 -3.93521,3.93521c-2.17335,0 -3.9352,-1.76185 -3.9352,-3.93521z" fill="#ffdc40" fill-rule="nonzero" stroke="#ffffff" stroke-width="0.5" stroke-linecap="butt" stroke-linejoin="miter"/><path d="M8.80641,79.6483c0.38677,-0.09328 0.80115,0.16973 0.9255,0.58746c0.12435,0.41772 0.05011,0.79857 -0.47513,0.92522c-0.52524,0.12665 -0.8011,-0.16974 -0.9255,-0.58746c-0.12434,-0.41772 0.08838,-0.83196 0.47515,-0.92523z" fill="#1b324f" fill-rule="nonzero" stroke="none" stroke-width="1" stroke-linecap="butt" stroke-linejoin="miter"/><path d="M6.56816,80.57352c-0.12436,0.41772 -0.40027,0.71411 -0.92551,0.58745c-0.52524,-0.12665 -0.5995,-0.5075 -0.47513,-0.92522c0.12435,-0.41772 0.53873,-0.68074 0.9255,-0.58746c0.38677,0.09327 0.59951,0.50751 0.47514,0.92523z" fill="#1b324f" fill-rule="nonzero" stroke="none" stroke-width="1" stroke-linecap="butt" stroke-linejoin="miter"/><path d="M8.87753,82.95286c0,1.40543 -0.52703,1.40543 -1.40543,1.40543c-0.8784,0 -1.40543,0 -1.40543,-1.40543c0,-0.7762 0.70272,-1.40543 1.40543,-1.40543c0.70271,0 1.40543,0.62924 1.40543,1.40543z" fill="#1b324f" fill-rule="nonzero" stroke="none" stroke-width="1" stroke-linecap="butt" stroke-linejoin="miter"/><text transform="translate(15.07666,83.92682) scale(0.16807,0.16807)" font-size="40" xml:space="preserve" fill="#000000" fill-rule="nonzero" stroke="none" stroke-width="1" stroke-linecap="butt" stroke-linejoin="miter" stroke-miterlimit="10" stroke-dasharray="" stroke-dashoffset="0" font-family="Sans Serif" font-weight="normal" text-anchor="start" style="mix-blend-mode: normal"><tspan x="0" dy="0">Ты не можешь публиковать и комментировать проекты за взломы в течение недели. Пожалуйста, соблюдай                  и уважай других. </tspan></text><text transform="translate(386.77336,83.92682) scale(0.16807,0.16807)" font-size="40" xml:space="preserve" fill="#833ae1" fill-rule="nonzero" stroke="none" stroke-width="1" stroke-linecap="butt" stroke-linejoin="miter" stroke-miterlimit="10" stroke-dasharray="" stroke-dashoffset="0" font-family="Sans Serif" font-weight="normal" text-anchor="start" style="mix-blend-mode: normal"><tspan x="0" dy="0">правила</tspan></text><g fill-rule="nonzero" stroke-width="0.5" stroke-linecap="butt" stroke-linejoin="miter"><path d="M2.73904,31.34603c0,-1.38633 1.12385,-2.51017 2.51017,-2.51017c1.38634,0 2.51017,1.12385 2.51017,2.51017c0,1.38634 -1.12385,2.51017 -2.51017,2.51017c-1.38633,0 -2.51017,-1.12385 -2.51017,-2.51017z" fill="none" stroke="#5f6368"/><path d="M7.69402,30.84711c0,0.74648 -0.84945,0.49016 -1.60412,0.49016c-0.38147,0 -0.34026,-0.152 -0.58817,-0.28122c-0.24253,-0.12642 -0.77833,-0.22595 -0.77833,-0.59511c0,-0.20188 0.45941,-0.35454 0.66491,-0.65138c0.23759,-0.3432 0.23581,-0.81907 0.40452,-0.81907c0.75469,0 1.90119,1.11015 1.90119,1.85664z" fill="#5f6368" stroke="none"/><path d="M5.28783,31.96108c0,0.66978 -0.58928,0.46178 -0.76538,0.71775c-0.28442,0.41338 -0.25556,0.79727 -0.64566,0.79727c-0.63164,0 -1.73076,-2.22796 -1.09912,-2.22796c0.63164,0 2.51017,0.20435 2.51017,0.71295z" fill="#5f6368" stroke="none"/></g><text transform="translate(9.99461,32.89513) scale(0.09594,0.09594)" font-size="40" xml:space="preserve" fill="#000000" fill-rule="nonzero" stroke="none" stroke-width="1" stroke-linecap="butt" stroke-linejoin="miter" stroke-miterlimit="10" stroke-dasharray="" stroke-dashoffset="0" font-family="Sans Serif" font-weight="normal" text-anchor="start" style="mix-blend-mode: normal"><tspan x="0" dy="0">Главная</tspan></text><g fill-rule="nonzero" stroke-linecap="butt" stroke-linejoin="miter"><g stroke-width="0.5"><path d="M34.20947,31.34603c0,-1.38633 1.12384,-2.51017 2.51016,-2.51017c1.38634,0 2.51015,1.12385 2.51015,2.51017c0,1.38634 -1.12383,2.51016 -2.51015,2.51016c-1.38634,0 -2.51016,-1.12384 -2.51016,-2.51016z" fill="none" stroke="#5f6368"/><path d="M39.16443,30.84711c0,0.74648 -0.84945,0.49016 -1.60412,0.49016c-0.38147,0 -0.34026,-0.152 -0.58816,-0.28122c-0.24253,-0.12644 -0.77832,-0.22596 -0.77832,-0.5951c0,-0.20188 0.45941,-0.35454 0.6649,-0.65137c0.23759,-0.3432 0.23582,-0.81907 0.40452,-0.81907c0.75469,0 1.90119,1.11015 1.90119,1.85664z" fill="#5f6368" stroke="none"/><path d="M36.75822,31.96108c0,0.66978 -0.58928,0.46178 -0.76537,0.71775c-0.28442,0.41338 -0.25556,0.79727 -0.64565,0.79727c-0.63164,0 -1.73076,-2.22796 -1.09913,-2.22796c0.63164,0 2.51015,0.20435 2.51015,0.71295z" fill="#5f6368" stroke="none"/></g><text transform="translate(41.46506,32.89513) scale(0.09594,0.09594)" font-size="40" xml:space="preserve" fill="#000000" fill-rule="nonzero" stroke="none" stroke-width="1" stroke-linecap="butt" stroke-linejoin="miter" stroke-miterlimit="10" stroke-dasharray="" stroke-dashoffset="0" font-family="Sans Serif" font-weight="normal" text-anchor="start" style="mix-blend-mode: normal"><tspan x="0" dy="0">Зал славы</tspan></text></g><g fill-rule="nonzero" stroke-linecap="butt" stroke-linejoin="miter"><g stroke-width="0.5"><path d="M69.86472,31.34603c0,-1.38633 1.12385,-2.51017 2.51017,-2.51017c1.38634,0 2.51017,1.12385 2.51017,2.51017c0,1.38634 -1.12385,2.51016 -2.51017,2.51016c-1.38634,0 -2.51017,-1.12384 -2.51017,-2.51016z" fill="none" stroke="#5f6368"/><path d="M74.81977,30.84711c0,0.74648 -0.84945,0.49016 -1.60414,0.49016c-0.38148,0 -0.34027,-0.152 -0.58816,-0.28122c-0.24253,-0.12644 -0.77833,-0.22596 -0.77833,-0.5951c0,-0.20188 0.45942,-0.35454 0.66492,-0.65137c0.23759,-0.3432 0.23582,-0.81907 0.40452,-0.81907c0.75469,0 1.9012,1.11015 1.9012,1.85664z" fill="#5f6368" stroke="none"/><path d="M72.41363,31.96108c0,0.66978 -0.58928,0.46178 -0.76539,0.71775c-0.28441,0.41338 -0.25557,0.79727 -0.64566,0.79727c-0.63164,0 -1.73076,-2.22796 -1.09912,-2.22796c0.63164,0 2.51017,0.20435 2.51017,0.71295z" fill="#5f6368" stroke="none"/></g><text transform="translate(77.12044,32.89513) scale(0.09594,0.09594)" font-size="40" xml:space="preserve" fill="#000000" fill-rule="nonzero" stroke="none" stroke-width="1" stroke-linecap="butt" stroke-linejoin="miter" stroke-miterlimit="10" stroke-dasharray="" stroke-dashoffset="0" font-family="Sans Serif" font-weight="normal" text-anchor="start" style="mix-blend-mode: normal"><tspan x="0" dy="0">Поиск</tspan></text></g><text transform="translate(19.16792,57.51764) scale(0.16856,0.16856)" font-size="40" xml:space="preserve" fill="#000000" fill-rule="nonzero" stroke="#000000" stroke-width="1" stroke-linecap="butt" stroke-linejoin="miter" stroke-miterlimit="10" stroke-dasharray="" stroke-dashoffset="0" font-family="Sans Serif" font-weight="normal" text-anchor="start" style="mix-blend-mode: normal"><tspan x="0" dy="0">Главная</tspan></text><text transform="translate(55.57654,57.51764) scale(0.16856,0.16856)" font-size="40" xml:space="preserve" fill="url(#color-3)" fill-rule="nonzero" stroke="none" stroke-width="1" stroke-linecap="butt" stroke-linejoin="miter" stroke-miterlimit="10" stroke-dasharray="" stroke-dashoffset="0" font-family="Sans Serif" font-weight="normal" text-anchor="start" style="mix-blend-mode: normal"><tspan x="0" dy="0">Курс</tspan></text><text transform="translate(81.9414,57.51764) scale(0.16856,0.16856)" font-size="40" xml:space="preserve" fill="url(#color-4)" fill-rule="nonzero" stroke="none" stroke-width="1" stroke-linecap="butt" stroke-linejoin="miter" stroke-miterlimit="10" stroke-dasharray="" stroke-dashoffset="0" font-family="Sans Serif" font-weight="normal" text-anchor="start" style="mix-blend-mode: normal"><tspan x="0" dy="0">Онлайн-урок</tspan></text><text transform="translate(182.88106,57.51764) scale(0.16856,0.16856)" font-size="40" xml:space="preserve" fill="url(#color-5)" fill-rule="nonzero" stroke="none" stroke-width="1" stroke-linecap="butt" stroke-linejoin="miter" stroke-miterlimit="10" stroke-dasharray="" stroke-dashoffset="0" font-family="Sans Serif" font-weight="normal" text-anchor="start" style="mix-blend-mode: normal"><tspan x="0" dy="0">Лаборатория</tspan></text><text transform="translate(239.37715,57.51764) scale(0.16856,0.16856)" font-size="40" xml:space="preserve" fill="url(#color-6)" fill-rule="nonzero" stroke="none" stroke-width="1" stroke-linecap="butt" stroke-linejoin="miter" stroke-miterlimit="10" stroke-dasharray="" stroke-dashoffset="0" font-family="Sans Serif" font-weight="normal" text-anchor="start" style="mix-blend-mode: normal"><tspan x="0" dy="0">Центр развлечений</tspan></text><text transform="translate(136.9309,57.51764) scale(0.16856,0.16856)" font-size="40" xml:space="preserve" fill="url(#color-7)" fill-rule="nonzero" stroke-opacity="0" stroke="#000000" stroke-width="0" stroke-linecap="butt" stroke-linejoin="miter" stroke-miterlimit="10" stroke-dasharray="" stroke-dashoffset="0" font-family="Sans Serif" font-weight="normal" text-anchor="start" style="mix-blend-mode: normal"><tspan x="0" dy="0">Зал славы</tspan></text><path d="M-1.857,71.07537h484.18274" fill="none" fill-rule="nonzero" stroke="#dbdbdb" stroke-width="0.5" stroke-linecap="round" stroke-linejoin="miter"/><g fill-rule="nonzero" stroke="none" stroke-width="0" stroke-linecap="butt" stroke-linejoin="miter"><path d="M428.51494,54.53319c0,-4.71908 3.82556,-8.54461 8.54462,-8.54461c4.71906,0 8.54461,3.82554 8.54461,8.54462c0,4.71908 -3.82554,8.54462 -8.54461,8.54462c-4.71906,0 -8.54462,-3.82554 -8.54462,-8.54461z" fill="url(#color-8)"/><path d="M433.82674,52.01692c0.32126,-1.48663 1.64934,-2.58959 3.23209,-2.58959c1.57707,0 2.89585,1.08479 3.22312,2.56338c0.01769,0.07995 0.23653,-0.06424 0.51192,0.17156c0.25353,0.21708 0.23474,0.45605 0.23474,0.49578c0,0.03581 0.00791,0.32113 -0.21749,0.50799c-0.30971,0.25678 -0.49599,0.11195 -0.5087,0.1792c-0.20042,1.06039 -0.90796,2.00721 -1.86093,2.44738c-0.0227,0.01049 -0.13431,0.0931 -0.24885,0.26752c-0.14229,0.21668 -0.15087,0.52788 -0.15087,0.52788c0,0 1.08951,0.07218 1.89337,0.42828c0.743,0.32911 1.19528,0.92945 1.4173,1.26281c0.12057,0.18106 0.39213,0.75931 0.5746,1.63004c0.05246,0.25028 0.14675,0.85654 0.23874,1.47755c0.0019,0.01288 -2.0558,1.66197 -4.88876,1.71239c-3.26576,0.05812 -5.38314,-1.73418 -5.38015,-1.75326c0.10129,-0.64578 0.20347,-1.2742 0.25387,-1.51617c0.12187,-0.58498 0.29989,-1.07178 0.38344,-1.19511c0.28463,-0.42025 0.37258,-0.98528 1.39858,-1.53083c0.88998,-0.47322 2.13675,-0.51127 2.13675,-0.51127c0,0 0.00941,-0.31936 -0.12734,-0.53137c-0.21498,-0.33326 -0.07831,-0.13219 -0.19668,-0.24662c-0.96053,-0.43906 -1.73138,-1.40742 -1.93124,-2.47458c-0.00545,-0.0292 -0.23382,0.06381 -0.5192,-0.17695c-0.23118,-0.19503 -0.19966,-0.4401 -0.19869,-0.50369c0.00045,-0.02909 -0.0239,-0.31845 0.23759,-0.51452c0.21467,-0.16096 0.48986,-0.11414 0.49282,-0.12778z" fill="url(#color-9)"/></g><text transform="translate(448.54872,53.9334) scale(0.16244,0.16244)" font-size="40" xml:space="preserve" fill="#484848" fill-rule="nonzero" stroke="none" stroke-width="1" stroke-linecap="butt" stroke-linejoin="miter" stroke-miterlimit="10" stroke-dasharray="" stroke-dashoffset="0" font-family="Sans Serif" font-weight="normal" text-anchor="start" style="mix-blend-mode: normal"><tspan x="0" dy="0">Тест</tspan><tspan x="0" dy="46.150000000000006px">Тест</tspan></text><path d="M472.15152,53.66832l-2.51094,2.51094l-2.51094,-2.51094" fill="none" fill-rule="nonzero" stroke="#000000" stroke-width="1" stroke-linecap="round" stroke-linejoin="miter"/><g><path d="M354.9823,59.47421c0,-1.86768 0,-6.36897 0,-9.7347c0,-1.87212 2.28209,-3.38011 3.61189,-3.38011c1.90096,0 6.014,0 9.42566,0c1.75254,0 3.53463,1.63114 3.53463,3.61188c0,3.1411 0,7.39545 0,9.1939c0,1.44165 -2.09492,3.7664 -3.92093,3.7664c-3.18709,0 -7.13599,0 -9.03937,0c-1.60212,0 -3.61188,-2.07114 -3.61188,-3.45737z" fill="#eeeff0" fill-rule="nonzero" stroke="none" stroke-width="0" stroke-linecap="butt" stroke-linejoin="miter"/><path d="M376.97809,59.47421c0,-1.86768 0,-6.36897 0,-9.7347c0,-1.87212 2.28209,-3.38011 3.61189,-3.38011c1.90096,0 6.014,0 9.42566,0c1.75254,0 3.53463,1.63114 3.53463,3.61188c0,3.1411 0,7.39545 0,9.1939c0,1.44165 -2.09492,3.7664 -3.92093,3.7664c-3.18709,0 -7.13599,0 -9.03938,0c-1.60212,0 -3.61188,-2.07114 -3.61188,-3.45737z" fill="#eeeff0" fill-rule="nonzero" stroke="none" stroke-width="0" stroke-linecap="butt" stroke-linejoin="miter"/><path d="M399.57653,59.47421c0,-1.86768 0,-6.36897 0,-9.7347c0,-1.87212 2.28208,-3.38011 3.61188,-3.38011c1.90096,0 6.014,0 9.42566,0c1.75254,0 3.53463,1.63114 3.53463,3.61188c0,3.1411 0,7.39545 0,9.1939c0,1.44165 -2.09492,3.7664 -3.92093,3.7664c-3.18709,0 -7.13599,0 -9.03937,0c-1.60212,0 -3.61189,-2.07114 -3.61189,-3.45737z" fill="#eeeff0" fill-rule="nonzero" stroke="none" stroke-width="0" stroke-linecap="butt" stroke-linejoin="miter"/><path d="M385.36816,50.67983c0.33189,0 0.60091,-0.26904 0.60091,-0.60091c0,-0.33187 -0.26902,-0.60091 -0.60091,-0.60091c-0.33189,0 -0.60091,0.26904 -0.60091,0.60091c0,0.33187 0.26902,0.60091 0.60091,0.60091zM386.69017,50.07891c0,0.13818 -0.0212,0.27142 -0.06052,0.39663c0.38079,0.15561 0.78513,0.39307 1.12254,0.74823c0.44632,0.46975 0.75788,1.12764 0.75788,2.01577c0,1.41846 0.36555,2.10706 0.68855,2.49314c0.14527,0.17363 0.28737,0.29397 0.4227,0.40856l0.00006,0.00006c0.02236,0.01895 0.04457,0.03774 0.06658,0.05659c0.07153,0.06139 0.15762,0.13735 0.22465,0.22326c0.07133,0.09143 0.14269,0.22113 0.14269,0.38799v0.0338c0.0002,0.2458 0.00043,0.52958 -0.08918,0.77686c-0.10851,0.29955 -0.32926,0.51208 -0.67452,0.65475c-0.32436,0.13408 -0.77628,0.21475 -1.39288,0.26497c-0.21821,0.01774 -0.46087,0.03197 -0.73071,0.04293c-0.055,0.87268 -0.8995,1.47162 -1.79985,1.47162c-0.90042,0 -1.7449,-0.59894 -1.79992,-1.47161c-0.26979,-0.01096 -0.51247,-0.02519 -0.73068,-0.04293c-0.61658,-0.05024 -1.06854,-0.1309 -1.39289,-0.26497c-0.34527,-0.14269 -0.56598,-0.35521 -0.6745,-0.65475c-0.08961,-0.24728 -0.08938,-0.53106 -0.08918,-0.77686l0.00001,-0.0338c0,-0.16686 0.07133,-0.29656 0.14265,-0.38799c0.06704,-0.0859 0.15311,-0.16186 0.22468,-0.22326c0.02192,-0.01875 0.04404,-0.03749 0.06635,-0.05638l0.00016,-0.00014l0.00008,-0.0001v0c0.13531,-0.11461 0.27744,-0.23494 0.42271,-0.40857c0.32302,-0.38607 0.68858,-1.07467 0.68858,-2.49314c0,-0.92437 0.33746,-1.5982 0.81094,-2.07014c0.32596,-0.32489 0.70781,-0.5461 1.06952,-0.69387c-0.03933,-0.12521 -0.06053,-0.25844 -0.06053,-0.39662c0,-0.73011 0.59188,-1.322 1.32201,-1.322c0.73013,0 1.32201,0.59189 1.32201,1.322zM387.22941,51.72045c0.3194,0.33617 0.55956,0.81642 0.55956,1.51911c0,1.5573 0.40704,2.41853 0.85661,2.95588c0.18816,0.22484 0.37949,0.38636 0.51492,0.50064c0.02072,0.0175 0.04019,0.03393 0.05811,0.04928c0.06144,0.05269 0.09572,0.08518 0.11552,0.10749c-0.00054,0.2668 -0.00664,0.41266 -0.04602,0.52136c-0.02672,0.07365 -0.07638,0.15316 -0.27194,0.23396c-0.21647,0.08946 -0.57578,0.16374 -1.17601,0.21263c-0.59356,0.04836 -1.39316,0.07 -2.47201,0.07c-1.07893,0 -1.87849,-0.02163 -2.47206,-0.07c-0.60025,-0.04889 -0.95953,-0.12317 -1.17601,-0.21263c-0.19556,-0.0808 -0.24524,-0.16033 -0.27194,-0.23396c-0.03938,-0.10869 -0.04549,-0.25456 -0.04602,-0.52136c0.01977,-0.02231 0.05407,-0.0548 0.11552,-0.10749c0.01775,-0.01519 0.03699,-0.03144 0.05752,-0.0488l0.00051,-0.00042l0.00009,-0.00005v0c0.13538,-0.11427 0.32675,-0.2758 0.51488,-0.50064c0.44958,-0.53735 0.85663,-1.39859 0.85663,-2.95588c0,-0.72978 0.25905,-1.22067 0.5989,-1.55942c0.28386,-0.28294 0.63619,-0.47089 0.97086,-0.58958c0.22999,0.19367 0.52689,0.31036 0.85108,0.31036c0.32421,0 0.62111,-0.11669 0.85109,-0.31036c0.35147,0.12465 0.72042,0.32494 1.01017,0.62988zM384.29683,58.60313c0.06828,0.37026 0.46993,0.72986 1.07131,0.72986c0.60135,0 1.00301,-0.35959 1.07126,-0.72986c-0.32517,0.00596 -0.68133,0.00874 -1.07126,0.00874c-0.38997,0 -0.74609,-0.00279 -1.07131,-0.00874z" fill="#0f1c2c" fill-rule="evenodd" stroke="none" stroke-width="1" stroke-linecap="butt" stroke-linejoin="miter"/><path d="M412.94885,55.18054c-0.26452,2.15712 -1.73797,2.50381 -2.22255,2.61813c-0.04323,0.01116 -0.07787,0.01863 -0.10135,0.02609c-0.16071,0.05219 -1.95309,0.26715 -3.34372,0.26715c-0.19159,0 -0.37081,-0.00494 -0.53525,-0.0124c-0.26454,0.32181 -1.05812,1.28109 -1.34738,1.57434c-0.09518,0.09692 -0.20891,0.14913 -0.32016,0.14913c-0.04327,0 -0.08405,-0.00747 -0.12237,-0.02239c-0.19284,-0.07577 -0.24352,-0.31929 -0.24352,-0.43736c0,-0.11433 0.24147,-1.09845 0.24395,-1.54454c-2.04579,-0.69459 -2.22917,-2.93125 -2.20198,-4.1167l0.0037,-0.13542c0.02843,-1.38672 0.33499,-2.32488 0.96418,-2.95363c1.12735,-1.0326 3.68364,-1.08478 4.18428,-1.08478h0.07541c2.13108,0.00994 3.50443,0.5455 4.07677,1.04503c0.85045,0.73934 1.16816,2.38328 0.88998,4.62739z" fill="none" fill-rule="nonzero" stroke="#0f1c2c" stroke-width="0.75" stroke-linecap="round" stroke-linejoin="round"/><path d="M405.32593,52.59658h5.14742M405.32593,53.88344h5.14742M405.32594,55.1703h3.30907" fill="none" fill-rule="nonzero" stroke="#0f1c2c" stroke-width="0.75" stroke-linecap="round" stroke-linejoin="round"/><path d="M365.87852,53.87749c0,1.75764 -1.42003,3.18263 -3.17178,3.18263c-1.75176,0 -3.17179,-1.42499 -3.17179,-3.18263c0,-1.75808 1.42003,-3.18264 3.17179,-3.18264c1.75176,0 3.17179,1.425 3.17179,3.18264zM365.2128,56.8807c-0.70119,0.59103 -1.58902,0.91461 -2.50607,0.91338c-2.1558,0 -3.90394,-1.75357 -3.90394,-3.91661c0,-2.16348 1.74769,-3.91704 3.90394,-3.91704c2.1558,0 3.90394,1.75356 3.90394,3.91704c0.0015,0.90431 -0.31059,1.78119 -0.88311,2.4812l2.00665,2.01389c0.14301,0.14355 0.14301,0.37574 0,0.51929c-0.06851,0.06867 -0.16152,0.10726 -0.25851,0.10726c-0.097,0 -0.19,-0.03859 -0.25851,-0.10726z" fill="#0f1c2c" fill-rule="evenodd" stroke="none" stroke-width="1" stroke-linecap="butt" stroke-linejoin="miter"/></g><path d="M-1.84379,361.68815v-363.60958h483.94272v363.60958z" fill="url(#color-10)" fill-rule="nonzero" stroke="#000000" stroke-width="0.5" stroke-linecap="butt" stroke-linejoin="miter"/></g></g></svg>