<svg version="1.1" xmlns="http://www.w3.org/2000/svg" xmlns:xlink="http://www.w3.org/1999/xlink" width="196.57593" height="148.96679" viewBox="0,0,196.57593,148.96679"><defs><linearGradient x1="191.18334" y1="162.42321" x2="295.85" y2="162.42321" gradientUnits="userSpaceOnUse" id="color-1"><stop offset="0" stop-color="#35eb29"/><stop offset="1" stop-color="#dceb3d"/></linearGradient><linearGradient x1="203.92217" y1="162.72111" x2="282.78866" y2="162.72111" gradientUnits="userSpaceOnUse" id="color-2"><stop offset="0" stop-color="#298b2a"/><stop offset="1" stop-color="#000000"/></linearGradient></defs><g transform="translate(-142.12342,-110.08989)"><g data-paper-data="{&quot;isPaintingLayer&quot;:true}" fill-rule="nonzero" stroke-linecap="butt" stroke-linejoin="miter" stroke-miterlimit="10" stroke-dasharray="" stroke-dashoffset="0" style="mix-blend-mode: normal"><path d="M191.18334,214.75655v-104.66666h104.66667v104.66666z" fill="url(#color-1)" stroke="none" stroke-width="0"/><path d="M203.92217,202.15435v-78.86648h78.86648v78.86648z" fill="url(#color-2)" stroke="none" stroke-width="0"/><path d="M214.18361,192.47927v-5.86367h28.43885v5.86367z" fill="#ffffff" stroke="none" stroke-width="0"/><text transform="translate(210.07904,162.73878) scale(1.17803,1.05098)" font-size="40" xml:space="preserve" fill="#ffffff" fill-rule="nonzero" stroke="none" stroke-width="1" stroke-linecap="butt" stroke-linejoin="miter" stroke-miterlimit="10" stroke-dasharray="" stroke-dashoffset="0" font-family="Sans Serif" font-weight="normal" text-anchor="start" style="mix-blend-mode: normal"><tspan x="0" dy="0">PC</tspan></text><text transform="translate(142.53274,248.82368) scale(0.81864,0.81864)" font-size="40" xml:space="preserve" fill="#ffffff" fill-rule="nonzero" stroke="#000000" stroke-width="1" stroke-linecap="butt" stroke-linejoin="miter" stroke-miterlimit="10" stroke-dasharray="" stroke-dashoffset="0" font-family="Sans Serif" font-weight="normal" text-anchor="start" style="mix-blend-mode: normal"><tspan x="0" dy="0">Программы</tspan></text><g stroke-width="2"><path d="M175.675,219.81875v-30.50001h30.5v30.50001z" fill="#ffffff" stroke="#bfbfbf"/><path d="M187.95422,216.64991c0,0 -4.77998,-2.93928 -5.31168,-5.87631c-0.20623,-1.13919 -0.08373,-4.9721 1.2327,-7.45569c1.23347,-2.32708 3.66017,-3.34867 3.66017,-3.34867l-5.91884,-6.29335h17.82468v16.43831c0,0 -3.05656,-4.11107 -7.07841,-3.5225c-3.83696,0.56152 -4.40861,10.05822 -4.40861,10.05822z" fill="#3765a0" stroke="none"/></g></g></g></svg>