<svg version="1.1" xmlns="http://www.w3.org/2000/svg" xmlns:xlink="http://www.w3.org/1999/xlink" width="303.02222" height="307.68814" viewBox="0,0,303.02222,307.68814"><g transform="translate(-88.48889,-26.15593)"><g data-paper-data="{&quot;isPaintingLayer&quot;:true}" fill="#ff1e00" fill-rule="nonzero" stroke="#000000" stroke-width="1" stroke-linecap="butt" stroke-linejoin="miter" stroke-miterlimit="10" stroke-dasharray="" stroke-dashoffset="0" style="mix-blend-mode: normal"><path d="M375.70318,271.99511v-15.30793h15.30793v15.30793z" data-paper-data="{&quot;index&quot;:null}"/><path d="M255.03651,271.99511v-15.30793h15.30793v15.30793z" data-paper-data="{&quot;index&quot;:null}"/><path d="M209.86985,271.99511v-15.30793h15.30793v15.30793z" data-paper-data="{&quot;index&quot;:null}"/><path d="M119.08413,271.99511v-15.30793h15.30793v15.30793z" data-paper-data="{&quot;index&quot;:null}"/><path d="M179.70318,271.99511v-15.30793h15.30793v15.30793z" data-paper-data="{&quot;index&quot;:null}"/><path d="M88.98889,271.99511v-15.30793h15.30793v15.30793z" data-paper-data="{&quot;index&quot;:null}"/><path d="M375.70318,256.62011v-15.30793h15.30793v15.30793z" data-paper-data="{&quot;index&quot;:null}"/><path d="M345.53651,256.62011v-15.30793h15.30793v15.30793z" data-paper-data="{&quot;index&quot;:null}"/><path d="M330.53651,256.62011v-15.30793h15.30793v15.30793z" data-paper-data="{&quot;index&quot;:null}"/><path d="M255.03652,256.62011v-15.30793h15.30793v15.30793z" data-paper-data="{&quot;index&quot;:null}"/><path d="M224.86985,256.62011v-15.30793h15.30793v15.30793z" data-paper-data="{&quot;index&quot;:null}"/><path d="M209.86984,256.62011v-15.30793h15.30793v15.30793z" data-paper-data="{&quot;index&quot;:null}"/><path d="M149.2508,256.62011v-15.30793h15.30793v15.30793z" data-paper-data="{&quot;index&quot;:null}"/><path d="M119.08413,256.62011v-15.30793h15.30793v15.30793z" data-paper-data="{&quot;index&quot;:null}"/><path d="M300.36985,256.62011v-15.30793h15.30793v15.30793z" data-paper-data="{&quot;index&quot;:null}"/><path d="M285.20317,256.62011v-15.30793h15.30793v15.30793z" data-paper-data="{&quot;index&quot;:null}"/><path d="M270.20317,256.62011v-15.30793h15.30793v15.30793z" data-paper-data="{&quot;index&quot;:null}"/><path d="M179.70318,256.62011v-15.30793h15.30793v15.30793z" data-paper-data="{&quot;index&quot;:null}"/><path d="M164.53651,256.62011v-15.30793h15.30793v15.30793z" data-paper-data="{&quot;index&quot;:null}"/><path d="M88.98889,256.62011v-15.30793h15.30793v15.30793z" data-paper-data="{&quot;index&quot;:null}"/><path d="M375.70318,241.30761v-15.30793h15.30793v15.30793z" data-paper-data="{&quot;index&quot;:null}"/><path d="M255.03652,241.30761v-15.30793h15.30793v15.30793z" data-paper-data="{&quot;index&quot;:null}"/><path d="M224.86985,241.30761v-15.30793h15.30793v15.30793z" data-paper-data="{&quot;index&quot;:null}"/><path d="M179.70318,241.30761v-15.30793h15.30793v15.30793z" data-paper-data="{&quot;index&quot;:null}"/><path d="M88.98889,241.30761v-15.30793h15.30793v15.30793z" data-paper-data="{&quot;index&quot;:null}"/><path d="M375.70318,225.93261v-15.30793h15.30793v15.30793z" data-paper-data="{&quot;index&quot;:null}"/><path d="M360.70318,225.93261v-15.30793h15.30793v15.30793z" data-paper-data="{&quot;index&quot;:null}"/><path d="M345.53651,225.93261v-15.30793h15.30793v15.30793z" data-paper-data="{&quot;index&quot;:null}"/><path d="M330.53651,225.93261v-15.30793h15.30793v15.30793z" data-paper-data="{&quot;index&quot;:null}"/><path d="M255.03652,225.93261v-15.30793h15.30793v15.30793z" data-paper-data="{&quot;index&quot;:null}"/><path d="M240.03652,225.93261v-15.30793h15.30793v15.30793z" data-paper-data="{&quot;index&quot;:null}"/><path d="M224.86985,225.93261v-15.30793h15.30793v15.30793z" data-paper-data="{&quot;index&quot;:null}"/><path d="M149.2508,225.93261v-15.30793h15.30793v15.30793z" data-paper-data="{&quot;index&quot;:null}"/><path d="M134.2508,225.93261v-15.30793h15.30793v15.30793z" data-paper-data="{&quot;index&quot;:null}"/><path d="M119.08413,225.93261v-15.30793h15.30793v15.30793z" data-paper-data="{&quot;index&quot;:null}"/><path d="M104.08413,225.93261v-15.30793h15.30793v15.30793z" data-paper-data="{&quot;index&quot;:null}"/><path d="M300.36985,225.93261v-15.30793h15.30793v15.30793z" data-paper-data="{&quot;index&quot;:null}"/><path d="M270.20317,225.93261v-15.30793h15.30793v15.30793z" data-paper-data="{&quot;index&quot;:null}"/><path d="M194.70318,225.93261v-15.30793h15.30793v15.30793z" data-paper-data="{&quot;index&quot;:null}"/><path d="M179.70318,225.93261v-15.30793h15.30793v15.30793z" data-paper-data="{&quot;index&quot;:null}"/><path d="M88.98889,225.93261v-15.30793h15.30793v15.30793z" data-paper-data="{&quot;index&quot;:null}"/><path d="M375.70318,210.69303v-15.30793h15.30793v15.30793z" data-paper-data="{&quot;index&quot;:null}"/><path d="M300.36985,210.69303v-15.30793h15.30793v15.30793z" data-paper-data="{&quot;index&quot;:null}"/><path d="M179.70318,210.69303v-15.30793h15.30793v15.30793z" data-paper-data="{&quot;index&quot;:null}"/><path d="M88.98889,210.69303v-15.30793h15.30793v15.30793z" data-paper-data="{&quot;index&quot;:null}"/><path d="M375.70318,195.31803v-15.30793h15.30793v15.30793z" data-paper-data="{&quot;index&quot;:null}"/><path d="M345.53651,195.31803v-15.30793h15.30793v15.30793z" data-paper-data="{&quot;index&quot;:null}"/><path d="M134.2508,195.31803v-15.30793h15.30793v15.30793z" data-paper-data="{&quot;index&quot;:null}"/><path d="M104.08413,195.31803v-15.30793h15.30793v15.30793z" data-paper-data="{&quot;index&quot;:null}"/><path d="M300.36985,195.31803v-15.30793h15.30793v15.30793z" data-paper-data="{&quot;index&quot;:null}"/><path d="M194.94128,195.31803v-15.30793h15.30793v15.30793z" data-paper-data="{&quot;index&quot;:null}"/><path d="M88.98889,195.31803v-15.30793h15.30793v15.30793z" data-paper-data="{&quot;index&quot;:null}"/><path d="M375.70318,180.00553v-15.30793h15.30793v15.30793z" data-paper-data="{&quot;index&quot;:null}"/><path d="M345.53651,180.00553v-15.30793h15.30793v15.30793z" data-paper-data="{&quot;index&quot;:null}"/><path d="M330.53651,180.00553v-15.30793h15.30793v15.30793z" data-paper-data="{&quot;index&quot;:null}"/><path d="M255.03652,180.00553v-15.30793h15.30793v15.30793z" data-paper-data="{&quot;index&quot;:null}"/><path d="M240.03652,195.56109v-15.30793h15.30793v15.30793z" data-paper-data="{&quot;index&quot;:null}"/><path d="M209.86984,180.00553v-15.30793h15.30793v15.30793z" data-paper-data="{&quot;index&quot;:null}"/><path d="M149.2508,180.00553v-15.30793h15.30793v15.30793z" data-paper-data="{&quot;index&quot;:null}"/><path d="M315.36985,195.00553v-15.30793h15.30793v15.30793z" data-paper-data="{&quot;index&quot;:null}"/><path d="M285.20317,180.00553v-15.30793h15.30793v15.30793z" data-paper-data="{&quot;index&quot;:null}"/><path d="M194.70318,180.00553v-15.30793h15.30793v15.30793z" data-paper-data="{&quot;index&quot;:null}"/><path d="M179.70318,180.00553v-15.30793h15.30793v15.30793z" data-paper-data="{&quot;index&quot;:null}"/><path d="M88.98889,180.00553v-15.30793h15.30793v15.30793z" data-paper-data="{&quot;index&quot;:null}"/><path d="M375.70318,164.63053v-15.30793h15.30793v15.30793z" data-paper-data="{&quot;index&quot;:null}"/><path d="M345.53651,164.63053v-15.30793h15.30793v15.30793z" data-paper-data="{&quot;index&quot;:null}"/><path d="M240.03652,164.63053v-15.30793h15.30793v15.30793z" data-paper-data="{&quot;index&quot;:null}"/><path d="M134.2508,164.63053v-15.30793h15.30793v15.30793z" data-paper-data="{&quot;index&quot;:null}"/><path d="M119.08413,164.63053v-15.30793h15.30793v15.30793z" data-paper-data="{&quot;index&quot;:null}"/><path d="M315.36985,164.63053v-15.30793h15.30793v15.30793z" data-paper-data="{&quot;index&quot;:null}"/><path d="M164.53651,164.63053v-15.30793h15.30793v15.30793z" data-paper-data="{&quot;index&quot;:null}"/><path d="M88.98889,164.63053v-15.30793h15.30793v15.30793z" data-paper-data="{&quot;index&quot;:null}"/><path d="M375.70318,149.32844v-15.30793h15.30793v15.30793z" data-paper-data="{&quot;index&quot;:null}"/><path d="M240.03651,149.32844v-15.30793h15.30793v15.30793z" data-paper-data="{&quot;index&quot;:null}"/><path d="M134.2508,149.32844v-15.30793h15.30793v15.30793z" data-paper-data="{&quot;index&quot;:null}"/><path d="M300.36984,149.32844v-15.30793h15.30793v15.30793z" data-paper-data="{&quot;index&quot;:null}"/><path d="M270.20317,149.32844v-15.30793h15.30793v15.30793z" data-paper-data="{&quot;index&quot;:null}"/><path d="M194.70318,149.32844v-15.30793h15.30793v15.30793z" data-paper-data="{&quot;index&quot;:null}"/><path d="M164.53651,149.32844v-15.30793h15.30793v15.30793z" data-paper-data="{&quot;index&quot;:null}"/><path d="M88.98889,149.32844v-15.30793h15.30793v15.30793z" data-paper-data="{&quot;index&quot;:null}"/><path d="M375.70318,133.95344v-15.30793h15.30793v15.30793z" data-paper-data="{&quot;index&quot;:null}"/><path d="M345.53651,133.95344v-15.30793h15.30793v15.30793z" data-paper-data="{&quot;index&quot;:null}"/><path d="M240.03651,133.95344v-15.30793h15.30793v15.30793z" data-paper-data="{&quot;index&quot;:null}"/><path d="M224.86984,133.95344v-15.30793h15.30793v15.30793z" data-paper-data="{&quot;index&quot;:null}"/><path d="M209.86984,133.95344v-15.30793h15.30793v15.30793z" data-paper-data="{&quot;index&quot;:null}"/><path d="M134.2508,133.95344v-15.30793h15.30793v15.30793z" data-paper-data="{&quot;index&quot;:null}"/><path d="M104.08413,133.95344v-15.30793h15.30793v15.30793z" data-paper-data="{&quot;index&quot;:null}"/><path d="M315.36984,133.95344v-15.30793h15.30793v15.30793z" data-paper-data="{&quot;index&quot;:null}"/><path d="M270.20317,133.95344v-15.30793h15.30793v15.30793z" data-paper-data="{&quot;index&quot;:null}"/><path d="M194.70318,133.95344v-15.30793h15.30793v15.30793z" data-paper-data="{&quot;index&quot;:null}"/><path d="M179.70318,133.95344v-15.30793h15.30793v15.30793z" data-paper-data="{&quot;index&quot;:null}"/><path d="M164.53651,133.95344v-15.30793h15.30793v15.30793z" data-paper-data="{&quot;index&quot;:null}"/><path d="M88.98889,133.95344v-15.30793h15.30793v15.30793z" data-paper-data="{&quot;index&quot;:null}"/><path d="M375.70318,118.64094v-15.30793h15.30793v15.30793z" data-paper-data="{&quot;index&quot;:null}"/><path d="M345.53651,118.64094v-15.30793h15.30793v15.30793z" data-paper-data="{&quot;index&quot;:null}"/><path d="M315.36984,118.64094v-15.30793h15.30793v15.30793z" data-paper-data="{&quot;index&quot;:null}"/><path d="M300.36984,118.64094v-15.30793h15.30793v15.30793z" data-paper-data="{&quot;index&quot;:null}"/><path d="M285.20317,118.64094v-15.30793h15.30793v15.30793z" data-paper-data="{&quot;index&quot;:null}"/><path d="M270.20317,118.64094v-15.30793h15.30793v15.30793z" data-paper-data="{&quot;index&quot;:null}"/><path d="M164.53651,118.64094v-15.30793h15.30793v15.30793z" data-paper-data="{&quot;index&quot;:null}"/><path d="M88.98889,118.64094v-15.30793h15.30793v15.30793z" data-paper-data="{&quot;index&quot;:null}"/><path d="M375.70318,103.26594v-15.30793h15.30793v15.30793z" data-paper-data="{&quot;index&quot;:null}"/><path d="M345.53651,103.26594v-15.30793h15.30793v15.30793z" data-paper-data="{&quot;index&quot;:null}"/><path d="M240.03651,103.26594v-15.30793h15.30793v15.30793z" data-paper-data="{&quot;index&quot;:null}"/><path d="M209.86984,103.26594v-15.30793h15.30793v15.30793z" data-paper-data="{&quot;index&quot;:null}"/><path d="M119.08413,103.26594v-15.30793h15.30793v15.30793z" data-paper-data="{&quot;index&quot;:null}"/><path d="M104.08413,103.26594v-15.30793h15.30793v15.30793z" data-paper-data="{&quot;index&quot;:null}"/><path d="M315.36984,103.26594v-15.30793h15.30793v15.30793z" data-paper-data="{&quot;index&quot;:null}"/><path d="M270.20317,103.26594v-15.30793h15.30793v15.30793z" data-paper-data="{&quot;index&quot;:null}"/><path d="M194.70318,103.26594v-15.30793h15.30793v15.30793z" data-paper-data="{&quot;index&quot;:null}"/><path d="M179.70318,103.26594v-15.30793h15.30793v15.30793z" data-paper-data="{&quot;index&quot;:null}"/><path d="M164.53651,103.26594v-15.30793h15.30793v15.30793z" data-paper-data="{&quot;index&quot;:null}"/><path d="M88.98889,103.26594v-15.30793h15.30793v15.30793z" data-paper-data="{&quot;index&quot;:null}"/><path d="M375.70318,88.02636v-15.30793h15.30793v15.30793z" data-paper-data="{&quot;index&quot;:null}"/><path d="M345.53651,88.02636v-15.30793h15.30793v15.30793z" data-paper-data="{&quot;index&quot;:null}"/><path d="M300.36984,88.02636v-15.30793h15.30793v15.30793z" data-paper-data="{&quot;index&quot;:null}"/><path d="M270.20317,88.02636v-15.30793h15.30793v15.30793z" data-paper-data="{&quot;index&quot;:null}"/><path d="M164.53651,88.02636v-15.30793h15.30793v15.30793z" data-paper-data="{&quot;index&quot;:null}"/><path d="M88.98889,88.02636v-15.30793h15.30793v15.30793z" data-paper-data="{&quot;index&quot;:null}"/><path d="M375.70318,72.65136v-15.30793h15.30793v15.30793z" data-paper-data="{&quot;index&quot;:null}"/><path d="M360.70318,72.65136v-15.30793h15.30793v15.30793z" data-paper-data="{&quot;index&quot;:null}"/><path d="M345.53651,72.65136v-15.30793h15.30793v15.30793z" data-paper-data="{&quot;index&quot;:null}"/><path d="M255.03651,72.65136v-15.30793h15.30793v15.30793z" data-paper-data="{&quot;index&quot;:null}"/><path d="M240.03651,72.65136v-15.30793h15.30793v15.30793z" data-paper-data="{&quot;index&quot;:null}"/><path d="M224.86984,72.65136v-15.30793h15.30793v15.30793z" data-paper-data="{&quot;index&quot;:null}"/><path d="M209.86984,72.65136v-15.30793h15.30793v15.30793z" data-paper-data="{&quot;index&quot;:null}"/><path d="M149.2508,72.65136v-15.30793h15.30793v15.30793z" data-paper-data="{&quot;index&quot;:null}"/><path d="M134.2508,72.65136v-15.30793h15.30793v15.30793z" data-paper-data="{&quot;index&quot;:null}"/><path d="M104.08413,72.65136v-15.30793h15.30793v15.30793z" data-paper-data="{&quot;index&quot;:null}"/><path d="M315.36984,72.65136v-15.30793h15.30793v15.30793z" data-paper-data="{&quot;index&quot;:null}"/><path d="M270.20317,72.65136v-15.30793h15.30793v15.30793z" data-paper-data="{&quot;index&quot;:null}"/><path d="M194.70318,72.65136v-15.30793h15.30793v15.30793z" data-paper-data="{&quot;index&quot;:null}"/><path d="M164.53651,72.65136v-15.30793h15.30793v15.30793z" data-paper-data="{&quot;index&quot;:null}"/><path d="M164.53651,56.96954v-15.30793h15.30793v15.30793z" data-paper-data="{&quot;index&quot;:null}"/><path d="M88.98889,72.65136v-15.30793h15.30793v15.30793z" data-paper-data="{&quot;index&quot;:null}"/><path d="M375.70318,57.33886v-15.30793h15.30793v15.30793z" data-paper-data="{&quot;index&quot;:null}"/><path d="M88.98889,57.33886v-15.30793h15.30793v15.30793z" data-paper-data="{&quot;index&quot;:null}"/><path d="M375.70318,41.96386v-15.30793h15.30793v15.30793z" data-paper-data="{&quot;index&quot;:null}"/><path d="M360.70318,41.96386v-15.30793h15.30793v15.30793z" data-paper-data="{&quot;index&quot;:null}"/><path d="M345.53651,41.96386v-15.30793h15.30793v15.30793z" data-paper-data="{&quot;index&quot;:null}"/><path d="M330.53651,41.96386v-15.30793h15.30793v15.30793z" data-paper-data="{&quot;index&quot;:null}"/><path d="M255.03651,41.96386v-15.30793h15.30793v15.30793z" data-paper-data="{&quot;index&quot;:null}"/><path d="M240.03651,41.96386v-15.30793h15.30793v15.30793z" data-paper-data="{&quot;index&quot;:null}"/><path d="M224.86984,41.96386v-15.30793h15.30793v15.30793z" data-paper-data="{&quot;index&quot;:null}"/><path d="M209.86984,41.96386v-15.30793h15.30793v15.30793z" data-paper-data="{&quot;index&quot;:null}"/><path d="M149.2508,41.96386v-15.30793h15.30793v15.30793z" data-paper-data="{&quot;index&quot;:null}"/><path d="M134.2508,41.96386v-15.30793h15.30793v15.30793z" data-paper-data="{&quot;index&quot;:null}"/><path d="M119.08413,41.96386v-15.30793h15.30793v15.30793z" data-paper-data="{&quot;index&quot;:null}"/><path d="M104.08413,41.96386v-15.30793h15.30793v15.30793z" data-paper-data="{&quot;index&quot;:null}"/><path d="M315.36984,41.96386v-15.30793h15.30793v15.30793z" data-paper-data="{&quot;index&quot;:null}"/><path d="M300.36984,41.96386v-15.30793h15.30793v15.30793z" data-paper-data="{&quot;index&quot;:null}"/><path d="M285.20317,41.96386v-15.30793h15.30793v15.30793z" data-paper-data="{&quot;index&quot;:null}"/><path d="M270.20317,41.96386v-15.30793h15.30793v15.30793z" data-paper-data="{&quot;index&quot;:null}"/><path d="M194.70318,41.96386v-15.30793h15.30793v15.30793z" data-paper-data="{&quot;index&quot;:null}"/><path d="M179.70318,41.96386v-15.30793h15.30793v15.30793z" data-paper-data="{&quot;index&quot;:null}"/><path d="M164.53651,41.96386v-15.30793h15.30793v15.30793z" data-paper-data="{&quot;index&quot;:null}"/><path d="M88.98889,41.96386v-15.30793h15.30793v15.30793z" data-paper-data="{&quot;index&quot;:null}"/><path d="M375.70318,333.34407v-15.30793h15.30793v15.30793z" data-paper-data="{&quot;index&quot;:null}"/><path d="M360.70318,333.34407v-15.30793h15.30793v15.30793z" data-paper-data="{&quot;index&quot;:null}"/><path d="M345.53651,333.34407v-15.30793h15.30793v15.30793z" data-paper-data="{&quot;index&quot;:null}"/><path d="M330.53651,333.34407v-15.30793h15.30793v15.30793z" data-paper-data="{&quot;index&quot;:null}"/><path d="M255.03652,333.34407v-15.30793h15.30793v15.30793z" data-paper-data="{&quot;index&quot;:null}"/><path d="M240.03652,333.34407v-15.30793h15.30793v15.30793z" data-paper-data="{&quot;index&quot;:null}"/><path d="M224.86984,333.34407v-15.30793h15.30793v15.30793z" data-paper-data="{&quot;index&quot;:null}"/><path d="M209.86984,333.34407v-15.30793h15.30793v15.30793z" data-paper-data="{&quot;index&quot;:null}"/><path d="M149.2508,333.34407v-15.30793h15.30793v15.30793z" data-paper-data="{&quot;index&quot;:null}"/><path d="M134.2508,333.34407v-15.30793h15.30793v15.30793z" data-paper-data="{&quot;index&quot;:null}"/><path d="M119.08413,333.34407v-15.30793h15.30793v15.30793z" data-paper-data="{&quot;index&quot;:null}"/><path d="M104.08413,333.34407v-15.30793h15.30793v15.30793z" data-paper-data="{&quot;index&quot;:null}"/><path d="M315.36984,333.34407v-15.30793h15.30793v15.30793z" data-paper-data="{&quot;index&quot;:null}"/><path d="M300.36984,333.34407v-15.30793h15.30793v15.30793z" data-paper-data="{&quot;index&quot;:null}"/><path d="M285.20318,333.34407v-15.30793h15.30793v15.30793z" data-paper-data="{&quot;index&quot;:null}"/><path d="M270.20318,333.34407v-15.30793h15.30793v15.30793z" data-paper-data="{&quot;index&quot;:null}"/><path d="M194.70318,333.34407v-15.30793h15.30793v15.30793z" data-paper-data="{&quot;index&quot;:null}"/><path d="M179.70318,333.34407v-15.30793h15.30793v15.30793z" data-paper-data="{&quot;index&quot;:null}"/><path d="M164.53651,333.34407v-15.30793h15.30793v15.30793z" data-paper-data="{&quot;index&quot;:null}"/><path d="M88.98889,333.34407v-15.30793h15.30793v15.30793z" data-paper-data="{&quot;index&quot;:null}"/><path d="M375.70318,317.96907v-15.30793h15.30793v15.30793z" data-paper-data="{&quot;index&quot;:null}"/><path d="M345.53651,317.96907v-15.30793h15.30793v15.30793z" data-paper-data="{&quot;index&quot;:null}"/><path d="M255.03652,317.96907v-15.30793h15.30793v15.30793z" data-paper-data="{&quot;index&quot;:null}"/><path d="M315.36984,317.96907v-15.30793h15.30793v15.30793z" data-paper-data="{&quot;index&quot;:null}"/><path d="M285.20318,317.96907v-15.30793h15.30793v15.30793z" data-paper-data="{&quot;index&quot;:null}"/><path d="M88.98889,317.96907v-15.30793h15.30793v15.30793z" data-paper-data="{&quot;index&quot;:null}"/><path d="M375.70318,302.65657v-15.30793h15.30793v15.30793z" data-paper-data="{&quot;index&quot;:null}"/><path d="M345.53651,302.65657v-15.30793h15.30793v15.30793z" data-paper-data="{&quot;index&quot;:null}"/><path d="M255.03652,302.65657v-15.30793h15.30793v15.30793z" data-paper-data="{&quot;index&quot;:null}"/><path d="M240.03652,302.65657v-15.30793h15.30793v15.30793z" data-paper-data="{&quot;index&quot;:null}"/><path d="M224.86984,302.65657v-15.30793h15.30793v15.30793z" data-paper-data="{&quot;index&quot;:null}"/><path d="M209.86984,302.65657v-15.30793h15.30793v15.30793z" data-paper-data="{&quot;index&quot;:null}"/><path d="M104.08413,302.65657v-15.30793h15.30793v15.30793z" data-paper-data="{&quot;index&quot;:null}"/><path d="M285.20318,302.65657v-15.30793h15.30793v15.30793z" data-paper-data="{&quot;index&quot;:null}"/><path d="M179.70318,302.65657v-15.30793h15.30793v15.30793z" data-paper-data="{&quot;index&quot;:null}"/><path d="M164.53651,302.65657v-15.30793h15.30793v15.30793z" data-paper-data="{&quot;index&quot;:null}"/><path d="M88.98889,302.65657v-15.30793h15.30793v15.30793z" data-paper-data="{&quot;index&quot;:null}"/><path d="M375.70318,287.28157v-15.30793h15.30793v15.30793z" data-paper-data="{&quot;index&quot;:null}"/><path d="M345.53651,287.28157v-15.30793h15.30793v15.30793z" data-paper-data="{&quot;index&quot;:null}"/><path d="M240.20893,287.28157v-15.30793h15.30793v15.30793z" data-paper-data="{&quot;index&quot;:null}"/><path d="M149.2508,287.28157v-15.30793h15.30793v15.30793z" data-paper-data="{&quot;index&quot;:null}"/><path d="M119.08413,287.28157v-15.30793h15.30793v15.30793z" data-paper-data="{&quot;index&quot;:null}"/><path d="M315.36984,287.28157v-15.30793h15.30793v15.30793z" data-paper-data="{&quot;index&quot;:null}"/><path d="M300.36984,287.28157v-15.30793h15.30793v15.30793z" data-paper-data="{&quot;index&quot;:null}"/><path d="M285.20318,287.28157v-15.30793h15.30793v15.30793z" data-paper-data="{&quot;index&quot;:null}"/><path d="M179.70318,287.28157v-15.30793h15.30793v15.30793z" data-paper-data="{&quot;index&quot;:null}"/><path d="M88.98889,287.28157v-15.30793h15.30793v15.30793z" data-paper-data="{&quot;index&quot;:null}"/></g></g></svg>