<svg version="1.1" xmlns="http://www.w3.org/2000/svg" xmlns:xlink="http://www.w3.org/1999/xlink" width="427.74393" height="60.86207" viewBox="0,0,427.74393,60.86207"><g transform="translate(3.62069,-146.577)"><g data-paper-data="{&quot;isPaintingLayer&quot;:true}" fill-rule="nonzero" stroke-linecap="butt" stroke-linejoin="miter" stroke-miterlimit="10" stroke-dasharray="" stroke-dashoffset="0" style="mix-blend-mode: normal"><g fill="none" stroke="#c4c4c4" stroke-width="3"><path d="M130.1146,188.15695v-16.31391h72.764v16.31391z"/><path d="M239.97357,188.15696v-16.31391h72.764v16.31391z"/><path d="M312.75441,188.15696v-16.31391h72.764v16.31391z"/><path d="M57.37676,188.15695v-16.31391h72.764v16.31391z"/><path d="M94.11632,188.15695v-16.31391h36.75277v16.31391z"/><path d="M239.86649,188.15695v-16.31391h36.75277v16.31391z"/><path d="M130.8776,188.15696v-16.31391h36.75277v16.31391z"/><path d="M276.62777,188.15696v-16.31391h36.75277v16.31391z"/><path d="M313.3949,188.15696v-16.31391h36.75277v16.31391z"/><path d="M203.29028,188.15696v-16.31391h36.75278v16.31391z"/><path d="M385.87047,188.15696v-16.31391h36.75277v16.31391z"/></g><path d="M-3.62069,207.43907v-60.86207h60.34483v60.86207z" fill="#000000" stroke="#ffffff" stroke-width="0"/><path d="M57.37676,188.15695v-16.31391h365.17944v16.31391z" fill="none" stroke="#c4c4c4" stroke-width="3"/></g></g></svg>