<svg version="1.1" xmlns="http://www.w3.org/2000/svg" xmlns:xlink="http://www.w3.org/1999/xlink" width="147.66984" height="107.5221" viewBox="0,0,147.66984,107.5221"><g transform="translate(-166.16508,-136.39125)"><g data-paper-data="{&quot;isPaintingLayer&quot;:true}" fill-rule="nonzero" stroke-linecap="butt" stroke-linejoin="miter" stroke-miterlimit="10" stroke-dasharray="" stroke-dashoffset="0" style="mix-blend-mode: normal"><path d="M166.16508,243.91335v-107.5221h147.66984v107.5221z" fill="#ffffff" stroke="none" stroke-width="0"/><path d="M172,220.75v-81.5h136v81.5z" fill="#cccccc" stroke="none" stroke-width="0"/><text transform="translate(169.9189,235.5564) scale(0.32689,0.32689)" font-size="40" xml:space="preserve" fill="#000000" fill-rule="nonzero" stroke="#000000" stroke-width="1" stroke-linecap="butt" stroke-linejoin="miter" stroke-miterlimit="10" stroke-dasharray="" stroke-dashoffset="0" font-family="Sans Serif" font-weight="normal" text-anchor="start" style="mix-blend-mode: normal"><tspan x="0" dy="0">Лучшая головоломка</tspan></text><path d="M167.15254,222.69539v-85.39073h145.69492v85.39073zM306.30245,213.7052c0,-13.76894 0,-59.48565 0,-66.96176c0,-2.02466 -1.62431,-3.73601 -3.76958,-3.73863c-11.22048,-0.01366 -105.05287,-0.12843 -124.32303,-0.15201c-2.22047,-0.00271 -3.44984,1.24221 -3.448,3.40826c0.01142,13.27624 0.05256,61.10025 0.05867,68.21596c0.0015,1.73532 1.24511,3.14875 3.48587,3.14875c19.34968,0 113.14675,0 124.27487,0c2.11911,0 3.72116,-1.44315 3.72116,-3.92057z" fill="#ffffff" stroke="none" stroke-width="0"/><path d="M210.25,180c0,-16.43047 13.31953,-29.75 29.75,-29.75c16.43047,0 29.75,13.31953 29.75,29.75c0,16.43047 -13.31953,29.75 -29.75,29.75c-16.43047,0 -29.75,-13.31953 -29.75,-29.75z" fill="#ff0000" stroke="#888888" stroke-width="2.5"/></g></g></svg>